<?xml version="1.0" standalone="no"?>
<!DOCTYPE svg PUBLIC "-//W3C//DTD SVG 1.1//EN" "http://www.w3.org/Graphics/SVG/1.1/DTD/svg11.dtd">
<svg width="512px" height="512px" version="1.1" xmlns="http://www.w3.org/2000/svg" xmlns:xlink="http://www.w3.org/1999/xlink" xml:space="preserve" style="fill-rule:evenodd;clip-rule:evenodd;stroke-linejoin:round;stroke-miterlimit:1.41421;">
    <g>
        <g id="Layer1">
            <g>
                <path d="M475.105,275.454L475.105,236.546L112.774,236.546L241.536,55.4201L175.372,55.4201L36.8945,256L175.372,456.58L241.536,456.58L112.774,275.454L475.105,275.454Z" style="fill:black;"/>
                <path d="M175.372,477.413L171.37,477.025L167.517,475.875L163.956,474.007L160.821,471.489L158.228,468.416L19.7501,267.836L17.7288,264.167L16.4824,260.168L16.0612,256L16.4824,251.832L17.7288,247.833L19.7501,244.164L158.228,43.5838L160.821,40.5107L163.956,37.993L167.517,36.1245L171.37,34.9748L175.372,34.5868L241.536,34.5868L245.654,34.9978L249.61,36.2148L253.247,38.1897L256.422,40.8446L259.009,44.0747L260.907,47.7525L262.041,51.7329L262.365,55.8588L261.867,59.9674L260.567,63.8965L258.516,67.4911L153.146,215.712L475.105,215.712L479.17,216.113L483.078,217.298L486.68,219.223L489.837,221.814L492.428,224.971L494.353,228.573L495.538,232.481L495.939,236.546L495.939,275.454L495.538,279.519L494.353,283.427L492.428,287.029L489.837,290.186L486.68,292.777L483.078,294.702L479.17,295.887L475.105,296.288L153.146,296.288L258.516,444.509L260.567,448.103L261.867,452.033L262.365,456.141L262.041,460.267L260.907,464.247L259.009,467.925L256.422,471.155L253.247,473.81L249.61,475.785L245.654,477.002L241.536,477.413L175.372,477.413ZM175.372,456.58L241.536,456.58L112.774,275.454L475.105,275.454L475.105,236.546L112.774,236.546L241.536,55.4201L175.372,55.4201L36.8945,256L175.372,456.58Z" style="fill:black;"/>
            </g>
        </g>
    </g>
</svg>
