<?xml version="1.0" standalone="no"?>
<!DOCTYPE svg PUBLIC "-//W3C//DTD SVG 1.1//EN" "http://www.w3.org/Graphics/SVG/1.1/DTD/svg11.dtd">
<svg width="512px" height="512px" version="1.1" xmlns="http://www.w3.org/2000/svg" xmlns:xlink="http://www.w3.org/1999/xlink" xml:space="preserve" style="fill-rule:evenodd;clip-rule:evenodd;stroke-linejoin:round;stroke-miterlimit:1.41421;">
    <g>
        <g id="Layer1">
            <g>
                <path d="M92.058,513.667L91.4961,513.665L90.8623,513.658L90.2301,513.647L89.5957,513.631L88.963,513.61L88.332,513.586L87.7008,513.556L87.0694,513.522L86.4417,513.484L85.812,513.442L85.1843,513.394L84.5583,513.343L83.9305,513.287L83.3066,513.227L82.6827,513.162L82.059,513.093L81.4392,513.019L80.8177,512.941L80.1964,512.859L79.5791,512.773L78.9603,512.682L78.3436,512.587L77.7292,512.488L77.1151,512.384L76.5033,512.276L75.8939,512.165L75.2829,512.048L74.6726,511.927L74.0665,511.803L73.4627,511.675L72.8578,511.542L72.2535,511.405L71.6535,511.264L71.054,511.119L70.4572,510.97L69.8594,510.817L69.2641,510.66L68.673,510.499L68.0811,510.334L67.49,510.165L66.9016,509.992L66.3159,509.815L65.7311,509.634L65.149,509.45L64.5678,509.262L63.9877,509.069L63.4122,508.874L62.8358,508.674L62.2623,508.471L61.6916,508.264L61.1202,508.052L60.5537,507.838L59.9881,507.62L59.4237,507.398L58.862,507.173L58.3018,506.944L57.7445,506.711L57.1885,506.475L56.6354,506.236L56.0837,505.993L55.533,505.746L54.9872,505.496L54.4427,505.243L53.8995,504.986L53.3578,504.726L52.819,504.462L52.2818,504.195L51.7476,503.924L51.2164,503.651L50.6868,503.375L50.1601,503.095L49.6335,502.811L49.11,502.524L48.591,502.236L48.0719,501.942L47.5547,501.646L47.0408,501.347L46.5296,501.045L46.0215,500.74L45.5135,500.431L45.0091,500.12L44.5076,499.806L44.0076,499.488L43.5094,499.168L43.0146,498.844L42.5227,498.519L42.0324,498.189L41.5442,497.857L41.059,497.522L40.5769,497.185L40.0955,496.844L39.6169,496.5L39.1428,496.155L38.6695,495.806L38.198,495.454L37.7307,495.1L37.2643,494.742L36.8009,494.382L36.3407,494.02L35.8824,493.655L35.4272,493.287L34.974,492.917L34.5227,492.543L34.0746,492.167L33.6298,491.79L33.1867,491.409L32.7458,491.025L32.308,490.64L31.8732,490.252L31.4396,489.861L31.0089,489.467L30.5814,489.071L30.157,488.674L29.7348,488.274L29.3137,487.87L28.8965,487.465L28.4816,487.057L28.0697,486.647L27.66,486.234L27.2526,485.819L26.8491,485.403L26.4468,484.983L26.0477,484.562L25.6507,484.137L25.2568,483.711L24.8661,483.283L24.4777,482.853L24.0913,482.42L23.7072,481.984L23.3271,481.548L22.9492,481.108L22.5737,480.667L22.2011,480.223L21.8309,479.778L21.463,479.329L21.099,478.88L20.7371,478.428L20.377,477.973L20.0206,477.518L19.6665,477.059L19.3149,476.599L18.967,476.137L18.6209,475.673L18.277,475.206L17.9369,474.738L17.5992,474.268L17.2639,473.796L16.9317,473.322L16.6027,472.846L16.2753,472.368L15.9509,471.888L15.6298,471.406L15.3111,470.923L14.9953,470.437L14.6822,469.95L14.372,469.461L14.0638,468.969L13.7593,468.477L13.4577,467.983L13.1576,467.485L12.8613,466.987L12.5678,466.488L12.277,465.986L11.9888,465.482L11.7035,464.977L11.4213,464.471L11.1413,463.961L10.8644,463.451L10.5905,462.939L10.3193,462.425L10.051,461.91L9.7855,461.392L9.52303,460.874L9.26319,460.353L9.00608,459.831L8.7524,459.308L8.50112,458.783L8.25251,458.255L8.00724,457.727L7.76505,457.197L7.52533,456.666L7.2884,456.132L7.05479,455.598L6.82399,455.061L6.59592,454.523L6.37097,453.984L6.14885,453.443L5.92984,452.901L5.71361,452.358L5.50018,451.812L5.29018,451.266L5.08298,450.718L4.87846,450.168L4.67721,449.617L4.47882,449.065L4.28342,448.511L4.09135,447.956L3.90196,447.4L3.71565,446.842L3.53231,446.282L3.35212,445.722L3.17508,445.161L3.0008,444.597L2.82964,444.032L2.6617,443.467L2.49685,442.9L2.33498,442.332L2.17609,441.762L2.02045,441.191L1.86787,440.619L1.71831,440.045L1.57206,439.471L1.42888,438.896L1.28871,438.319L1.15162,437.74L1.01783,437.161L0.887333,436.582L0.759791,436L0.635335,435.417L0.514227,434.834L0.396269,434.249L0.281466,433.663L0.169926,433.076L0.0615442,432.488L-0.043651,431.899L-0.145565,431.309L-0.244249,430.718L-0.33971,430.126L-0.43193,429.533L-0.52089,428.939L-0.606597,428.344L-0.689034,427.748L-0.768171,427.151L-0.844025,426.554L-0.916592,425.955L-0.985864,425.355L-1.05185,424.755L-1.1145,424.153L-1.17383,423.551L-1.22981,422.948L-1.28246,422.345L-1.33179,421.74L-1.37774,421.135L-1.42033,420.529L-1.45957,419.922L-1.49542,419.314L-1.52789,418.706L-1.55698,418.097L-1.58268,417.487L-1.60496,416.876L-1.62383,416.265L-1.6393,415.653L-1.65134,415.041L-1.65994,414.428L-1.66511,413.814L-1.66667,413.259L-1.66667,138.741L-1.66511,138.186L-1.65994,137.572L-1.65134,136.959L-1.6393,136.347L-1.62383,135.735L-1.60496,135.124L-1.58268,134.513L-1.55698,133.903L-1.52789,133.294L-1.49542,132.686L-1.45957,132.078L-1.42033,131.471L-1.37774,130.865L-1.33178,130.26L-1.28246,129.655L-1.22982,129.052L-1.17382,128.449L-1.11449,127.846L-1.05185,127.245L-0.985885,126.645L-0.916592,126.045L-0.844025,125.446L-0.768171,124.849L-0.689018,124.252L-0.606597,123.656L-0.520908,123.061L-0.431911,122.467L-0.339689,121.874L-0.244283,121.282L-0.145553,120.691L-0.043612,120.101L0.0615164,119.512L0.169911,118.924L0.281482,118.337L0.396236,117.751L0.514263,117.166L0.635372,116.583L0.759713,116L0.887271,115.419L1.01789,114.838L1.15168,114.259L1.28866,113.681L1.42883,113.104L1.57203,112.529L1.71839,111.954L1.8679,111.381L2.02045,110.809L2.17612,110.238L2.33489,109.669L2.49678,109.1L2.66173,108.533L2.82971,107.968L3.00084,107.403L3.175,106.84L3.35212,106.278L3.53235,105.717L3.71565,105.158L3.90196,104.6L4.09126,104.044L4.28352,103.489L4.47882,102.935L4.67721,102.383L4.87857,101.832L5.08281,101.282L5.29012,100.734L5.50036,100.188L5.71354,99.6425L5.92978,99.0987L6.14891,98.5564L6.3709,98.0159L6.59592,97.4766L6.82392,96.9387L7.05479,96.4024L7.28863,95.8676L7.52525,95.3346L7.76481,94.8031L8.00732,94.2731L8.25284,93.7443L8.50112,93.2175L8.75214,92.6925L9.00616,92.1688L9.26319,91.6465L9.52294,91.1262L9.7855,90.6075L10.051,90.0902L10.3194,89.5748L10.5905,89.061L10.8646,88.5487L11.1414,88.0384L11.421,87.5299L11.7035,87.0228L11.9889,86.5174L12.2769,86.014L12.5677,85.5124L12.8615,85.0122L13.1579,84.5142L13.4572,84.0177L13.7594,83.5228L14.0641,83.0303L14.3717,82.5392L14.6822,82.0498L14.9952,81.5628L15.3112,81.0771L15.6298,80.5936L15.9511,80.1121L16.2753,79.6321L16.6022,79.1542L16.9317,78.6783L17.2641,78.2042L17.5992,77.7321L17.937,77.2617L18.2775,76.7935L18.6207,76.3274L18.9665,75.8633L19.3152,75.4009L19.6665,74.9407L20.0204,74.4827L20.3773,74.0263L20.7366,73.5724L21.0986,73.1204L21.4636,72.6701L21.8309,72.2225L22.2009,71.7768L22.5737,71.3332L22.949,70.8918L23.3271,70.4524L23.7078,70.0152L24.0913,69.5801L24.4773,69.1474L24.8659,68.7168L25.2572,68.2884L25.6512,67.8622L26.0477,67.4384L26.4468,67.0168L26.8486,66.5974L27.2531,66.1803L27.6597,65.7659L28.0695,65.3533L28.4819,64.9431L28.8965,64.5355L29.3142,64.1299L29.734,63.727L30.1565,63.3265L30.5816,62.9284L31.0094,62.5326L31.4398,62.1392L31.8724,61.7487L32.308,61.3602L32.746,60.9743L33.1864,60.5911L33.6295,60.2103L34.0749,59.8323L34.523,59.4566L34.9737,59.0835L35.4269,58.713L35.8827,58.3451L36.3407,57.9801L36.8015,57.6175L37.2646,57.2577L37.7301,56.9007L38.1987,56.546L38.6692,56.1943L39.1422,55.8455L39.6176,55.4994L40.0958,55.1559L40.5763,54.8153L41.059,54.4777L41.5445,54.1427L42.032,53.8108L42.5224,53.4816L43.0153,53.1552L43.5098,52.8322L44.0072,52.5118L44.5073,52.1943L45.0091,51.8802L45.5139,51.5686L46.0208,51.2603L46.5296,50.9552L47.0415,50.6528L47.5554,50.3537L48.0711,50.058L48.5899,49.765L49.1108,49.4753L49.6335,49.189L50.159,48.9056L50.6868,48.6254L51.2164,48.3487L51.7484,48.0752L52.283,47.8048L52.8194,47.5379L53.3578,47.2745L53.8987,47.0142L54.4419,46.7573L54.9868,46.504L55.5343,46.2539L56.0837,46.0073L56.6349,45.7643L57.1889,45.5246L57.7445,45.2885L58.3022,45.056L58.8616,44.8272L59.4237,44.6017L59.9877,44.3798L60.5533,44.1618L61.1211,43.9472L61.6907,43.7364L62.2623,43.5293L62.8358,43.3259L63.4113,43.1262L63.9885,42.9304L64.5678,42.7382L65.149,42.5498L65.7316,42.3654L66.3159,42.1848L66.9025,42.008L67.4905,41.8352L68.0802,41.6662L68.6716,41.5013L69.265,41.3401L69.8598,41.1831L70.4558,41.0301L71.054,40.881L71.6539,40.7359L72.2548,40.595L72.8568,40.4583L73.4613,40.3254L74.0674,40.1966L74.674,40.0722L75.282,39.9519L75.892,39.8357L76.5033,39.7237L77.116,39.6159L77.7296,39.5124L78.3446,39.4131L78.9612,39.318L79.5782,39.2273L80.1969,39.1408L80.8167,39.0587L81.4377,38.9808L82.0599,38.9073L82.6823,38.8383L83.3066,38.7735L83.9319,38.7131L84.5578,38.6571L85.1847,38.6056L85.8121,38.5585L86.4407,38.5158L87.0708,38.4775L87.7008,38.4437L88.3315,38.4144L88.9635,38.3896L89.5957,38.3693L90.2292,38.3534L90.8628,38.3421L91.4966,38.3353L92.057,38.3333L419.943,38.3333L420.503,38.3353L421.137,38.3421L421.771,38.3534L422.404,38.3693L423.037,38.3896L423.668,38.4144L424.299,38.4437L424.929,38.4775L425.559,38.5158L426.188,38.5585L426.815,38.6056L427.442,38.6571L428.068,38.7131L428.693,38.7735L429.318,38.8383L429.94,38.9073L430.562,38.9808L431.183,39.0586L431.803,39.1408L432.422,39.2273L433.039,39.318L433.655,39.4131L434.27,39.5123L434.884,39.6159L435.497,39.7237L436.108,39.8357L436.718,39.9519L437.326,40.0723L437.933,40.1967L438.539,40.3254L439.143,40.4582L439.745,40.595L440.346,40.7359L440.946,40.8809L441.544,41.0301L442.141,41.1831L442.735,41.3401L443.328,41.5011L443.92,41.6663L444.51,41.8352L445.098,42.0081L445.684,42.1849L446.268,42.3654L446.851,42.5498L447.432,42.7383L448.012,42.9305L448.588,43.1261L449.164,43.3259L449.738,43.5295L450.309,43.7365L450.878,43.9471L451.447,44.1618L452.013,44.38L452.577,44.6018L453.138,44.8271L453.697,45.0559L454.256,45.2886L454.811,45.5244L455.365,45.7644L455.917,46.0076L456.465,46.2537L457.013,46.504L457.558,46.7573L458.101,47.0141L458.642,47.2745L459.18,47.5378L459.717,47.8049L460.252,48.0753L460.783,48.3486L461.313,48.6254L461.841,48.9055L462.367,49.189L462.889,49.4753L463.411,49.7652L463.929,50.0581L464.444,50.3532L464.959,50.6531L465.471,50.9553L465.979,51.26L466.486,51.5687L466.991,51.8802L467.493,52.1945L467.993,52.5117L468.49,52.8322L468.985,53.1552L469.477,53.4813L469.968,53.811L470.455,54.1427L470.941,54.4778L471.424,54.8153L471.904,55.1555L472.383,55.4996L472.858,55.8459L473.331,56.1942L473.801,56.5457L474.27,56.9005L474.735,57.2574L475.199,57.6175L475.659,57.9801L476.118,58.3456L476.574,58.7136L477.026,59.0831L477.477,59.4564L477.926,59.8328L478.371,60.2105L478.813,60.5905L479.254,60.9742L479.692,61.3603L480.128,61.7486L480.561,62.1395L480.991,62.5328L481.418,62.9282L481.843,63.3264L482.267,63.7276L482.686,64.1299L483.103,64.5353L483.518,64.9433L483.93,65.3526L484.34,65.7656L484.747,66.1804L485.151,66.5972L485.553,67.017L485.952,67.4385L486.349,67.8629L486.742,68.288L487.134,68.7162L487.523,69.1471L487.909,69.5807L488.293,70.0162L488.673,70.4523L489.05,70.8911L489.426,71.3328L489.799,71.7772L490.17,72.2232L490.536,72.6697L490.902,73.1206L491.264,73.5725L491.622,74.026L491.98,74.4827L492.333,74.9404L492.685,75.4011L493.034,75.8635L493.379,76.3271L493.722,76.7934L494.063,77.2624L494.401,77.7317L494.736,78.2038L495.068,78.6784L495.398,79.1545L495.725,79.6319L496.049,80.1119L496.371,80.5946L496.689,81.0773L497.005,81.5628L497.317,82.0493L497.628,82.5387L497.936,83.0306L498.24,83.5223L498.542,84.0169L498.842,84.5139L499.139,85.0134L499.433,85.513L499.723,86.0135L500.011,86.5179L500.296,87.0223L500.579,87.5292L500.859,88.0384L501.135,88.5489L501.41,89.0621L501.681,89.5748L501.949,90.0899L502.215,90.6077L502.477,91.1263L502.737,91.646L502.994,92.1685L503.248,92.6932L503.499,93.2173L503.747,93.744L503.993,94.2733L504.235,94.8033L504.475,95.3343L504.711,95.8676L504.946,96.4036L505.176,96.9389L505.403,97.475L505.629,98.0151L505.851,98.5574L506.07,99.0993L506.286,99.6419L506.5,100.188L506.71,100.734L506.917,101.282L507.122,101.833L507.323,102.382L507.521,102.936L507.716,103.488L507.909,104.043L508.098,104.6L508.284,105.158L508.468,105.719L508.648,106.278L508.825,106.84L508.999,107.403L509.17,107.968L509.338,108.533L509.503,109.1L509.665,109.668L509.824,110.238L509.98,110.81L510.132,111.381L510.281,111.953L510.428,112.529L510.571,113.104L510.711,113.681L510.848,114.26L510.982,114.839L511.113,115.418L511.24,116L511.365,116.583L511.486,117.166L511.604,117.75L511.719,118.337L511.83,118.924L511.939,119.513L512.044,120.102L512.145,120.69L512.244,121.282L512.34,121.875L512.432,122.467L512.521,123.06L512.607,123.656L512.689,124.252L512.768,124.849L512.844,125.447L512.917,126.046L512.986,126.645L513.052,127.245L513.114,127.846L513.174,128.447L513.23,129.051L513.283,129.656L513.332,130.261L513.378,130.865L513.42,131.472L513.46,132.078L513.495,132.685L513.528,133.295L513.557,133.905L513.583,134.513L513.605,135.123L513.624,135.735L513.639,136.346L513.651,136.959L513.66,137.572L513.665,138.185L513.667,138.741L513.667,413.259L513.665,413.815L513.66,414.428L513.651,415.041L513.639,415.654L513.624,416.265L513.605,416.877L513.583,417.487L513.557,418.095L513.528,418.705L513.495,419.315L513.46,419.922L513.42,420.528L513.378,421.135L513.332,421.739L513.283,422.344L513.23,422.949L513.174,423.553L513.114,424.154L513.052,424.755L512.986,425.356L512.917,425.954L512.844,426.553L512.768,427.151L512.689,427.748L512.607,428.344L512.521,428.94L512.432,429.533L512.34,430.125L512.244,430.719L512.145,431.31L512.044,431.898L511.939,432.487L511.83,433.076L511.719,433.663L511.604,434.25L511.486,434.834L511.365,435.416L511.24,436.001L511.113,436.582L510.982,437.161L510.848,437.74L510.711,438.319L510.571,438.896L510.428,439.472L510.281,440.047L510.132,440.619L509.98,441.19L509.824,441.762L509.665,442.332L509.503,442.9L509.338,443.467L509.17,444.032L508.999,444.597L508.825,445.161L508.648,445.722L508.468,446.281L508.284,446.842L508.098,447.4L507.908,447.957L507.716,448.511L507.521,449.064L507.323,449.618L507.122,450.167L506.917,450.718L506.71,451.266L506.5,451.811L506.286,452.358L506.07,452.901L505.852,453.442L505.629,453.985L505.403,454.525L505.176,455.061L504.946,455.596L504.712,456.132L504.475,456.666L504.235,457.197L503.993,457.727L503.747,458.255L503.499,458.783L503.248,459.307L502.994,459.831L502.737,460.354L502.477,460.874L502.215,461.392L501.949,461.91L501.681,462.425L501.41,462.938L501.136,463.451L500.859,463.961L500.578,464.471L500.296,464.978L500.012,465.482L499.723,465.987L499.432,466.487L499.139,466.986L498.842,467.486L498.542,467.984L498.24,468.478L497.936,468.969L497.628,469.462L497.317,469.951L497.005,470.437L496.689,470.922L496.371,471.405L496.049,471.888L495.725,472.368L495.398,472.846L495.068,473.322L494.736,473.796L494.401,474.268L494.064,474.737L493.723,475.206L493.379,475.673L493.033,476.137L492.685,476.598L492.333,477.06L491.979,477.518L491.623,477.974L491.263,478.428L490.901,478.88L490.537,479.33L490.17,479.777L489.799,480.223L489.426,480.667L489.05,481.109L488.673,481.548L488.294,481.983L487.909,482.419L487.522,482.853L487.133,483.284L486.743,483.712L486.35,484.137L485.952,484.562L485.553,484.983L485.151,485.403L484.747,485.819L484.34,486.235L483.93,486.648L483.519,487.056L483.103,487.465L482.686,487.87L482.266,488.273L481.843,488.674L481.418,489.072L480.991,489.467L480.561,489.86L480.127,490.252L479.692,490.64L479.254,491.026L478.813,491.41L478.37,491.79L477.926,492.167L477.477,492.543L477.025,492.917L476.573,493.287L476.118,493.654L475.659,494.02L475.199,494.382L474.735,494.742L474.269,495.1L473.802,495.454L473.33,495.806L472.858,496.155L472.383,496.5L471.904,496.844L471.423,497.185L470.941,497.522L470.456,497.857L469.968,498.189L469.477,498.519L468.985,498.844L468.491,499.168L467.992,499.489L467.493,499.806L466.991,500.12L466.487,500.431L465.978,500.74L465.471,501.045L464.96,501.346L464.444,501.646L463.928,501.942L463.409,502.235L462.89,502.524L462.367,502.811L461.84,503.095L461.313,503.375L460.783,503.651L460.253,503.924L459.718,504.195L459.181,504.462L458.642,504.726L458.1,504.986L457.557,505.243L457.013,505.496L456.467,505.746L455.917,505.992L455.365,506.236L454.811,506.475L454.256,506.711L453.698,506.944L453.138,507.173L452.577,507.398L452.012,507.62L451.446,507.838L450.879,508.053L450.309,508.264L449.738,508.47L449.164,508.674L448.588,508.874L448.013,509.069L447.432,509.262L446.851,509.45L446.269,509.634L445.684,509.815L445.099,509.992L444.51,510.165L443.919,510.334L443.327,510.499L442.736,510.66L442.141,510.817L441.543,510.97L440.946,511.119L440.347,511.264L439.747,511.405L439.142,511.542L438.537,511.675L437.934,511.803L437.328,511.927L436.717,512.048L436.106,512.165L435.497,512.276L434.885,512.384L434.271,512.488L433.656,512.587L433.04,512.682L432.421,512.773L431.804,512.859L431.182,512.942L430.561,513.019L429.941,513.093L429.317,513.162L428.693,513.227L428.069,513.287L427.442,513.343L426.816,513.394L426.188,513.442L425.558,513.484L424.931,513.522L424.299,513.556L423.668,513.586L423.037,513.61L422.404,513.631L421.77,513.647L421.138,513.658L420.504,513.665L419.942,513.667L92.058,513.667ZM92.1315,472L419.868,472L420.206,471.999L420.542,471.995L420.878,471.989L421.214,471.981L421.549,471.97L421.884,471.957L422.218,471.941L422.551,471.923L422.884,471.903L423.216,471.881L423.548,471.856L423.88,471.829L424.21,471.799L424.54,471.767L424.87,471.733L425.199,471.696L425.527,471.658L425.855,471.617L426.182,471.573L426.508,471.528L426.834,471.48L427.159,471.43L427.484,471.377L427.808,471.322L428.131,471.266L428.453,471.206L428.775,471.145L429.097,471.082L429.417,471.016L429.737,470.948L430.056,470.878L430.375,470.805L430.693,470.731L431.01,470.654L431.326,470.575L431.642,470.494L431.957,470.411L432.271,470.326L432.584,470.238L432.897,470.149L433.209,470.057L433.52,469.963L433.83,469.867L434.14,469.769L434.449,469.669L434.757,469.567L435.064,469.463L435.371,469.356L435.676,469.248L435.981,469.138L436.285,469.025L436.589,468.911L436.891,468.794L437.193,468.675L437.493,468.555L437.793,468.432L438.092,468.307L438.39,468.181L438.687,468.052L438.984,467.921L439.279,467.789L439.574,467.654L439.868,467.518L440.16,467.379L440.452,467.239L440.743,467.096L441.033,466.952L441.323,466.806L441.611,466.658L441.898,466.508L442.184,466.356L442.47,466.202L442.754,466.046L443.037,465.888L443.32,465.729L443.601,465.567L443.882,465.404L444.161,465.239L444.44,465.072L444.717,464.903L444.994,464.733L445.269,464.56L445.544,464.386L445.817,464.21L446.09,464.032L446.361,463.852L446.631,463.671L446.901,463.487L447.169,463.302L447.436,463.115L447.702,462.927L447.967,462.737L448.231,462.545L448.493,462.351L448.755,462.155L449.016,461.958L449.275,461.759L449.533,461.558L449.791,461.356L450.047,461.152L450.302,460.946L450.555,460.738L450.808,460.529L451.06,460.319L451.31,460.106L451.559,459.892L451.807,459.676L452.054,459.459L452.299,459.24L452.544,459.019L452.787,458.797L453.029,458.573L453.27,458.347L453.509,458.12L453.748,457.892L453.985,457.661L454.221,457.43L454.455,457.196L454.688,456.961L454.921,456.725L455.151,456.487L455.381,456.247L455.609,456.006L455.836,455.763L456.062,455.519L456.286,455.274L456.509,455.027L456.731,454.778L456.951,454.528L457.171,454.276L457.388,454.023L457.605,453.768L457.82,453.512L458.034,453.255L458.246,452.996L458.457,452.736L458.667,452.474L458.875,452.211L459.082,451.946L459.288,451.68L459.492,451.413L459.694,451.144L459.896,450.874L460.096,450.602L460.294,450.329L460.491,450.055L460.687,449.779L460.881,449.502L461.074,449.224L461.265,448.944L461.455,448.663L461.643,448.381L461.83,448.097L462.016,447.812L462.2,447.526L462.382,447.239L462.563,446.95L462.742,446.66L462.92,446.368L463.097,446.076L463.272,445.782L463.445,445.487L463.617,445.19L463.787,444.893L463.956,444.594L464.123,444.294L464.289,443.992L464.453,443.69L464.615,443.386L464.776,443.081L464.935,442.775L465.093,442.468L465.249,442.16L465.404,441.85L465.557,441.539L465.708,441.228L465.858,440.915L466.006,440.6L466.152,440.285L466.297,439.969L466.44,439.651L466.581,439.333L466.721,439.013L466.859,438.692L466.996,438.37L467.13,438.047L467.264,437.723L467.395,437.398L467.525,437.072L467.652,436.745L467.779,436.417L467.903,436.088L468.026,435.757L468.147,435.426L468.266,435.094L468.384,434.76L468.5,434.426L468.614,434.091L468.726,433.755L468.837,433.417L468.945,433.079L469.052,432.74L469.158,432.4L469.261,432.059L469.362,431.717L469.462,431.374L469.56,431.03L469.656,430.685L469.751,430.34L469.843,429.993L469.934,429.646L470.022,429.297L470.109,428.948L470.194,428.598L470.277,428.247L470.359,427.895L470.438,427.542L470.516,427.189L470.591,426.834L470.665,426.479L470.737,426.123L470.807,425.766L470.875,425.409L470.941,425.05L471.005,424.691L471.067,424.331L471.127,423.97L471.186,423.609L471.242,423.246L471.296,422.883L471.349,422.519L471.399,422.155L471.448,421.789L471.494,421.423L471.539,421.056L471.581,420.689L471.622,420.321L471.66,419.952L471.696,419.582L471.731,419.212L471.763,418.841L471.794,418.469L471.822,418.097L471.848,417.724L471.872,417.35L471.894,416.976L471.914,416.601L471.932,416.226L471.948,415.85L471.962,415.473L471.973,415.096L471.983,414.718L471.99,414.339L471.996,413.96L471.999,413.58L472,413.2L472,138.8L471.999,138.42L471.996,138.04L471.99,137.661L471.983,137.282L471.973,136.904L471.962,136.527L471.948,136.15L471.932,135.774L471.914,135.399L471.894,135.024L471.872,134.65L471.848,134.276L471.822,133.903L471.794,133.531L471.763,133.159L471.731,132.788L471.696,132.418L471.66,132.048L471.622,131.679L471.581,131.311L471.539,130.944L471.494,130.577L471.448,130.211L471.399,129.845L471.349,129.481L471.296,129.117L471.242,128.754L471.186,128.391L471.127,128.03L471.067,127.669L471.005,127.309L470.941,126.95L470.875,126.591L470.807,126.234L470.737,125.877L470.665,125.521L470.591,125.166L470.516,124.811L470.438,124.458L470.359,124.105L470.277,123.753L470.194,123.402L470.109,123.052L470.022,122.703L469.934,122.354L469.843,122.007L469.751,121.66L469.656,121.315L469.56,120.97L469.462,120.626L469.362,120.283L469.261,119.941L469.158,119.6L469.052,119.26L468.945,118.921L468.837,118.583L468.726,118.245L468.614,117.909L468.5,117.574L468.384,117.24L468.266,116.906L468.147,116.574L468.026,116.243L467.903,115.912L467.779,115.583L467.652,115.255L467.525,114.928L467.395,114.602L467.264,114.277L467.13,113.953L466.996,113.63L466.859,113.308L466.721,112.987L466.581,112.667L466.44,112.349L466.297,112.031L466.152,111.715L466.006,111.4L465.858,111.085L465.708,110.772L465.557,110.461L465.404,110.15L465.249,109.84L465.093,109.532L464.935,109.225L464.776,108.919L464.615,108.614L464.453,108.31L464.289,108.008L464.123,107.706L463.956,107.406L463.787,107.107L463.617,106.81L463.445,106.513L463.272,106.218L463.097,105.924L462.92,105.632L462.742,105.34L462.563,105.05L462.382,104.761L462.2,104.474L462.016,104.188L461.83,103.903L461.643,103.619L461.455,103.337L461.265,103.056L461.074,102.776L460.881,102.498L460.687,102.221L460.491,101.945L460.294,101.671L460.096,101.398L459.896,101.126L459.694,100.856L459.492,100.587L459.288,100.32L459.082,100.054L458.875,99.7892L458.667,99.526L458.457,99.2642L458.246,99.0039L458.034,98.745L457.82,98.4875L457.605,98.2315L457.388,97.977L457.171,97.7239L456.951,97.4723L456.731,97.2221L456.509,96.9735L456.286,96.7263L456.062,96.4807L455.836,96.2365L455.609,95.9939L455.381,95.7528L455.151,95.5132L454.921,95.2752L454.688,95.0387L454.455,94.8037L454.221,94.5704L453.985,94.3385L453.748,94.1083L453.509,93.8796L453.27,93.6525L453.029,93.4271L452.787,93.2032L452.544,92.9809L452.299,92.7603L452.054,92.5412L451.807,92.3238L451.559,92.1081L451.31,91.8939L451.06,91.6815L450.808,91.4707L450.555,91.2615L450.302,91.0541L450.047,90.8483L449.791,90.6442L449.533,90.4418L449.275,90.2411L449.016,90.0421L448.755,89.8448L448.493,89.6493L448.231,89.4555L447.967,89.2634L447.702,89.0731L447.436,88.8845L447.169,88.6977L446.901,88.5127L446.631,88.3294L446.361,88.1479L446.09,87.9682L445.817,87.7903L445.544,87.6142L445.269,87.4399L444.994,87.2675L444.717,87.0968L444.44,86.928L444.161,86.7611L443.882,86.596L443.601,86.4327L443.32,86.2713L443.037,86.1118L442.754,85.9541L442.47,85.7983L442.184,85.6444L441.898,85.4924L441.611,85.3424L441.323,85.1942L441.033,85.048L440.743,84.9036L440.452,84.7612L440.16,84.6208L439.868,84.4823L439.574,84.3458L439.279,84.2112L438.984,84.0786L438.687,83.9479L438.39,83.8193L438.092,83.6926L437.793,83.568L437.493,83.4453L437.193,83.3247L436.891,83.2061L436.589,83.0895L436.285,82.9749L435.981,82.8624L435.676,82.7519L435.371,82.6435L435.064,82.5372L434.757,82.4329L434.449,82.3307L434.14,82.2306L433.83,82.1326L433.52,82.0367L433.209,81.9429L432.897,81.8512L432.584,81.7616L432.271,81.6742L431.957,81.5889L431.642,81.5057L431.326,81.4247L431.01,81.3458L430.693,81.2691L430.375,81.1946L430.056,81.1223L429.737,81.0521L429.417,80.9842L429.097,80.9184L428.775,80.8548L428.453,80.7935L428.131,80.7344L427.808,80.6775L427.484,80.6229L427.159,80.5705L426.834,80.5203L426.508,80.4724L426.182,80.4268L425.855,80.3834L425.527,80.3424L425.199,80.3036L424.87,80.2671L424.54,80.2329L424.21,80.201L423.88,80.1715L423.548,80.1442L423.216,80.1193L422.884,80.0967L422.551,80.0765L422.218,80.0586L421.884,80.0431L421.549,80.03L421.214,80.0192L420.878,80.0108L420.542,80.0048L420.206,80.0012L419.868,80L92.1315,80L91.7944,80.0012L91.4577,80.0048L91.1216,80.0108L90.786,80.0192L90.4509,80.03L90.1163,80.0431L89.7823,80.0586L89.4488,80.0765L89.1159,80.0967L88.7835,80.1193L88.4517,80.1442L88.1205,80.1715L87.7898,80.201L87.4597,80.2329L87.1303,80.2671L86.8014,80.3036L86.4731,80.3424L86.1454,80.3834L85.8183,80.4268L85.4919,80.4724L85.166,80.5203L84.8408,80.5705L84.5163,80.6229L84.1924,80.6775L83.8691,80.7344L83.5465,80.7935L83.2246,80.8548L82.9034,80.9184L82.5828,80.9842L82.2629,81.0521L81.9437,81.1223L81.6252,81.1946L81.3074,81.2691L80.9903,81.3458L80.6739,81.4247L80.3583,81.5057L80.0434,81.5889L79.7292,81.6742L79.4157,81.7616L79.103,81.8512L78.7911,81.9429L78.4799,82.0367L78.1695,82.1326L77.8599,82.2306L77.551,82.3307L77.2429,82.4329L76.9357,82.5372L76.6292,82.6435L76.3235,82.7519L76.0187,82.8624L75.7146,82.9749L75.4114,83.0895L75.109,83.2061L74.8075,83.3247L74.5068,83.4453L74.2069,83.568L73.908,83.6926L73.6098,83.8193L73.3126,83.9479L73.0162,84.0786L72.7207,84.2112L72.4261,84.3458L72.1324,84.4823L71.8396,84.6208L71.5477,84.7612L71.2567,84.9036L70.9666,85.048L70.6775,85.1942L70.3893,85.3424L70.102,85.4924L69.8157,85.6444L69.5303,85.7983L69.2459,85.9541L68.9625,86.1118L68.68,86.2713L68.3986,86.4327L68.1181,86.596L67.8385,86.7611L67.56,86.928L67.2825,87.0968L67.006,87.2675L66.7306,87.4399L66.4561,87.6142L66.1827,87.7903L65.9103,87.9682L65.639,88.1479L65.3687,88.3294L65.0994,88.5127L64.8312,88.6977L64.5641,88.8845L64.2981,89.0731L64.0332,89.2634L63.7693,89.4555L63.5065,89.6493L63.2448,89.8448L62.9843,90.0421L62.7248,90.2411L62.4665,90.4418L62.2093,90.6442L61.9532,90.8483L61.6983,91.0541L61.4445,91.2615L61.1919,91.4707L60.9404,91.6815L60.6901,91.8939L60.4409,92.1081L60.193,92.3238L59.9462,92.5412L59.7006,92.7603L59.4562,92.9809L59.213,93.2032L58.971,93.4271L58.7303,93.6525L58.4907,93.8796L58.2524,94.1083L58.0153,94.3385L57.7795,94.5704L57.5449,94.8037L57.3115,95.0387L57.0795,95.2752L56.8486,95.5132L56.6191,95.7528L56.3908,95.9939L56.1639,96.2365L55.9382,96.4807L55.7138,96.7263L55.4907,96.9735L55.269,97.2221L55.0485,97.4723L54.8294,97.7239L54.6116,97.977L54.3951,98.2315L54.18,98.4875L53.9663,98.745L53.7539,99.0039L53.5428,99.2642L53.3331,99.526L53.1248,99.7892L52.9179,100.054L52.7124,100.32L52.5083,100.587L52.3055,100.856L52.1042,101.126L51.9043,101.398L51.7058,101.671L51.5087,101.945L51.3131,102.221L51.1189,102.498L50.9262,102.776L50.7349,103.056L50.5451,103.337L50.3567,103.619L50.1698,103.903L49.9844,104.188L49.8004,104.474L49.618,104.761L49.437,105.05L49.2576,105.34L49.0797,105.632L48.9032,105.924L48.7283,106.218L48.555,106.513L48.3832,106.81L48.2129,107.107L48.0441,107.406L47.8769,107.706L47.7113,108.008L47.5473,108.31L47.3848,108.614L47.2239,108.919L47.0645,109.225L46.9068,109.532L46.7507,109.84L46.5962,110.15L46.4433,110.461L46.292,110.772L46.1423,111.085L45.9943,111.4L45.8479,111.715L45.7032,112.031L45.5601,112.349L45.4186,112.667L45.2788,112.987L45.1407,113.308L45.0043,113.63L44.8696,113.953L44.7365,114.277L44.6051,114.602L44.4755,114.928L44.3475,115.255L44.2213,115.583L44.0968,115.912L43.974,116.243L43.8529,116.574L43.7336,116.906L43.616,117.24L43.5002,117.574L43.3861,117.909L43.2738,118.245L43.1633,118.583L43.0546,118.921L42.9476,119.26L42.8425,119.6L42.7391,119.941L42.6375,120.283L42.5378,120.626L42.4398,120.97L42.3437,121.315L42.2494,121.66L42.157,122.007L42.0664,122.354L41.9776,122.703L41.8907,123.052L41.8057,123.402L41.7225,123.753L41.6412,124.105L41.5618,124.458L41.4843,124.811L41.4087,125.166L41.3349,125.521L41.2631,125.877L41.1932,126.234L41.1252,126.591L41.0591,126.95L40.995,127.309L40.9328,127.669L40.8725,128.03L40.8142,128.391L40.7579,128.754L40.7035,129.117L40.6511,129.481L40.6007,129.845L40.5522,130.211L40.5058,130.577L40.4613,130.944L40.4188,131.311L40.3784,131.679L40.34,132.048L40.3035,132.418L40.2691,132.788L40.2368,133.159L40.2065,133.531L40.1782,133.903L40.152,134.276L40.1279,134.65L40.1058,135.024L40.0858,135.399L40.0678,135.774L40.052,136.15L40.0382,136.527L40.0266,136.904L40.017,137.282L40.0096,137.661L40.0043,138.04L40.0011,138.42L40,138.8L40,413.2L40.0011,413.58L40.0043,413.96L40.0096,414.339L40.017,414.718L40.0266,415.096L40.0382,415.473L40.052,415.85L40.0678,416.226L40.0858,416.601L40.1058,416.976L40.1279,417.35L40.152,417.724L40.1782,418.097L40.2065,418.469L40.2368,418.841L40.2691,419.212L40.3035,419.582L40.34,419.952L40.3784,420.321L40.4188,420.689L40.4613,421.056L40.5058,421.423L40.5522,421.789L40.6007,422.155L40.6511,422.519L40.7035,422.883L40.7579,423.246L40.8142,423.609L40.8725,423.97L40.9328,424.331L40.995,424.691L41.0591,425.05L41.1252,425.409L41.1932,425.766L41.2631,426.123L41.3349,426.479L41.4087,426.834L41.4843,427.189L41.5618,427.542L41.6412,427.895L41.7225,428.247L41.8057,428.598L41.8907,428.948L41.9776,429.297L42.0664,429.646L42.157,429.993L42.2494,430.34L42.3437,430.685L42.4398,431.03L42.5378,431.374L42.6375,431.717L42.7391,432.059L42.8425,432.4L42.9476,432.74L43.0546,433.079L43.1633,433.417L43.2738,433.755L43.3861,434.091L43.5002,434.426L43.616,434.76L43.7336,435.094L43.8529,435.426L43.974,435.757L44.0968,436.088L44.2213,436.417L44.3475,436.745L44.4755,437.072L44.6051,437.398L44.7365,437.723L44.8696,438.047L45.0043,438.37L45.1407,438.692L45.2788,439.013L45.4186,439.333L45.5601,439.651L45.7032,439.969L45.8479,440.285L45.9943,440.6L46.1423,440.915L46.292,441.228L46.4433,441.539L46.5962,441.85L46.7507,442.16L46.9068,442.468L47.0645,442.775L47.2239,443.081L47.3848,443.386L47.5473,443.69L47.7113,443.992L47.8769,444.294L48.0441,444.594L48.2129,444.893L48.3832,445.19L48.555,445.487L48.7283,445.782L48.9032,446.076L49.0797,446.368L49.2576,446.66L49.437,446.95L49.618,447.239L49.8004,447.526L49.9844,447.812L50.1698,448.097L50.3567,448.381L50.5451,448.663L50.7349,448.944L50.9262,449.224L51.1189,449.502L51.3131,449.779L51.5087,450.055L51.7058,450.329L51.9043,450.602L52.1042,450.874L52.3055,451.144L52.5083,451.413L52.7124,451.68L52.9179,451.946L53.1248,452.211L53.3331,452.474L53.5428,452.736L53.7539,452.996L53.9663,453.255L54.18,453.512L54.3951,453.768L54.6116,454.023L54.8294,454.276L55.0485,454.528L55.269,454.778L55.4907,455.027L55.7138,455.274L55.9382,455.519L56.1639,455.763L56.3908,456.006L56.6191,456.247L56.8486,456.487L57.0795,456.725L57.3115,456.961L57.5449,457.196L57.7795,457.43L58.0153,457.661L58.2524,457.892L58.4907,458.12L58.7303,458.347L58.971,458.573L59.213,458.797L59.4562,459.019L59.7006,459.24L59.9462,459.459L60.193,459.676L60.4409,459.892L60.6901,460.106L60.9404,460.319L61.1919,460.529L61.4445,460.738L61.6983,460.946L61.9532,461.152L62.2093,461.356L62.4665,461.558L62.7248,461.759L62.9843,461.958L63.2448,462.155L63.5065,462.351L63.7693,462.545L64.0332,462.737L64.2981,462.927L64.5641,463.115L64.8312,463.302L65.0994,463.487L65.3687,463.671L65.639,463.852L65.9103,464.032L66.1827,464.21L66.4561,464.386L66.7306,464.56L67.006,464.733L67.2825,464.903L67.56,465.072L67.8385,465.239L68.1181,465.404L68.3986,465.567L68.68,465.729L68.9625,465.888L69.2459,466.046L69.5303,466.202L69.8157,466.356L70.102,466.508L70.3893,466.658L70.6775,466.806L70.9666,466.952L71.2567,467.096L71.5477,467.239L71.8396,467.379L72.1324,467.518L72.4261,467.654L72.7207,467.789L73.0162,467.921L73.3126,468.052L73.6098,468.181L73.908,468.307L74.2069,468.432L74.5068,468.555L74.8075,468.675L75.109,468.794L75.4114,468.911L75.7146,469.025L76.0187,469.138L76.3235,469.248L76.6292,469.356L76.9357,469.463L77.2429,469.567L77.551,469.669L77.8599,469.769L78.1695,469.867L78.4799,469.963L78.7911,470.057L79.103,470.149L79.4157,470.238L79.7292,470.326L80.0434,470.411L80.3583,470.494L80.6739,470.575L80.9903,470.654L81.3074,470.731L81.6252,470.805L81.9437,470.878L82.2629,470.948L82.5828,471.016L82.9034,471.082L83.2246,471.145L83.5465,471.206L83.8691,471.266L84.1924,471.322L84.5163,471.377L84.8408,471.43L85.166,471.48L85.4919,471.528L85.8183,471.573L86.1454,471.617L86.4731,471.658L86.8014,471.696L87.1303,471.733L87.4597,471.767L87.7898,471.799L88.1205,471.829L88.4517,471.856L88.7835,471.881L89.1159,471.903L89.4488,471.923L89.7823,471.941L90.1163,471.957L90.4509,471.97L90.786,471.981L91.1216,471.989L91.4577,471.995L91.7944,471.999L92.1315,472Z" style="fill:black;"/>
            </g>
            <g>
                <path d="M170.714,391.7L170.714,273.21C148.665,290.137 133.821,298.601 126.182,298.601C122.536,298.601 119.303,297.147 116.482,294.239C113.661,291.331 112.25,287.967 112.25,284.148C112.25,279.72 113.639,276.465 116.417,274.382C119.194,272.299 124.099,269.608 131.13,266.309C141.634,261.361 150.032,256.153 156.326,250.684C162.619,245.215 168.196,239.095 173.057,232.325C177.918,225.554 181.087,221.387 182.562,219.825C184.038,218.262 186.816,217.481 190.896,217.481C195.497,217.481 199.186,219.26 201.964,222.819C204.741,226.378 206.13,231.283 206.13,237.533L206.13,386.622C206.13,404.069 200.184,412.793 188.292,412.793C182.997,412.793 178.743,411.014 175.531,407.455C172.319,403.896 170.714,398.644 170.714,391.7Z" style="fill:black;fill-rule:nonzero;"/>
                <path d="M399.75,315.918C399.75,330.155 398.882,342.394 397.146,352.637C395.41,362.88 392.198,372.168 387.51,380.502C381.608,390.745 373.969,398.644 364.594,404.2C355.219,409.755 344.802,412.533 333.344,412.533C320.149,412.533 308.322,408.8 297.862,401.335C287.402,393.87 279.524,383.54 274.229,370.345C271.538,363.141 269.563,355.176 268.305,346.452C267.046,337.728 266.417,328.288 266.417,318.132C266.417,305.024 267.111,293.219 268.5,282.715C269.889,272.212 272.059,263.184 275.01,255.632C280.132,243.132 287.576,233.605 297.341,227.051C307.107,220.497 318.76,217.22 332.302,217.22C341.243,217.22 349.359,218.674 356.651,221.582C363.943,224.49 370.345,228.744 375.857,234.343C381.369,239.942 386.035,246.865 389.854,255.111C396.451,269.434 399.75,289.703 399.75,315.918ZM364.073,313.314C364.073,297.429 363.118,284.43 361.208,274.317C359.299,264.204 356.087,256.565 351.573,251.4C347.059,246.235 340.809,243.653 332.823,243.653C321.365,243.653 313.4,249.425 308.93,260.97C304.459,272.516 302.224,290.311 302.224,314.356C302.224,330.675 303.179,344.043 305.089,354.46C306.998,364.877 310.21,372.754 314.724,378.093C319.238,383.431 325.358,386.101 333.083,386.101C341.069,386.101 347.319,383.323 351.833,377.767C356.347,372.212 359.516,364.269 361.339,353.939C363.161,343.609 364.073,330.068 364.073,313.314Z" style="fill:black;fill-rule:nonzero;"/>
            </g>
            <g>
                <rect x="105.5" y="24.0551" width="40" height="72" style="fill:black;"/>
            </g>
            <g>
                <rect x="192.5" y="24" width="40" height="72" style="fill:black;"/>
            </g>
            <g>
                <rect x="279.5" y="24" width="40" height="72" style="fill:black;"/>
            </g>
            <g>
                <rect x="366.5" y="24" width="40" height="72" style="fill:black;"/>
            </g>
            <g>
                <rect x="39.916" y="152" width="432" height="23.1842" style="fill:black;"/>
            </g>
        </g>
    </g>
</svg>
