<?xml version="1.0" standalone="no"?>
<!DOCTYPE svg PUBLIC "-//W3C//DTD SVG 1.1//EN" "http://www.w3.org/Graphics/SVG/1.1/DTD/svg11.dtd">
<svg width="512px" height="512px" version="1.1" xmlns="http://www.w3.org/2000/svg" xmlns:xlink="http://www.w3.org/1999/xlink" xml:space="preserve" style="fill-rule:evenodd;clip-rule:evenodd;stroke-linejoin:round;stroke-miterlimit:1.41421;">
    <g>
        <g id="Layer1">
            <path d="M289.415,2.19012C267.234,-0.730038 244.766,-0.730038 222.585,2.19012L199.145,70.9735C192.86,72.9049 186.677,75.1552 180.621,77.7158L118.451,40.0918C99.5828,52.1123 82.3714,66.5544 67.257,83.0489L93.5138,150.807C89.9404,156.327 86.6507,162.025 83.6573,167.879L11.8485,179.019C5.12102,200.356 1.21952,222.483 0.243655,244.833L63.9117,279.862C64.7223,286.387 65.8648,292.866 67.3348,299.275L19.4868,353.967C28.0483,374.636 39.2822,394.094 52.9015,411.843L124.19,397.751C129.005,402.229 134.045,406.458 139.291,410.422L137.792,483.075C157.637,493.405 178.75,501.09 200.591,505.932L246.144,449.314C252.71,449.648 259.29,449.648 265.856,449.314L311.409,505.932C333.25,501.09 354.363,493.405 374.208,483.075L372.709,410.422C377.955,406.458 382.995,402.229 387.81,397.751L459.098,411.843C472.718,394.094 483.952,374.636 492.513,353.967L444.665,299.275C446.135,292.866 447.278,286.387 448.088,279.862L511.756,244.833C510.78,222.483 506.879,200.356 500.152,179.019L428.343,167.879C425.349,162.025 422.06,156.327 418.486,150.807L444.743,83.0489C429.629,66.5544 412.417,52.1123 393.549,40.0918L331.379,77.7158C325.323,75.1552 319.14,72.9049 312.855,70.9735L289.415,2.19012ZM256,102.455C340.8,102.455 409.545,171.2 409.545,256C409.545,340.8 340.8,409.545 256,409.545C171.2,409.545 102.455,340.8 102.455,256C102.455,171.2 171.2,102.455 256,102.455Z" style="fill:black;"/>
        </g>
    </g>
</svg>
