<?xml version="1.0" standalone="no"?>
<!DOCTYPE svg PUBLIC "-//W3C//DTD SVG 1.1//EN" "http://www.w3.org/Graphics/SVG/1.1/DTD/svg11.dtd">
<svg width="512px" height="512px" version="1.1" xmlns="http://www.w3.org/2000/svg" xmlns:xlink="http://www.w3.org/1999/xlink" xml:space="preserve" style="fill-rule:evenodd;clip-rule:evenodd;stroke-linejoin:round;stroke-miterlimit:1.41421;">
    <g>
        <g id="Layer1">
            <g>
                <path d="M44,509.667L37.9664,509.227L32.06,507.919L26.4053,505.77L21.1214,502.824L16.3199,499.144L12.1018,494.807L8.55622,489.905L5.75774,484.542L3.76541,478.83L2.62123,472.89L2.34931,466.846L2.95539,460.827L4.42669,454.959L6.7322,449.366L218.732,25.3661L221.878,20.0873L225.767,15.3286L230.313,11.1935L235.417,7.77211L240.97,5.13872L246.849,3.35065L252.927,2.44678L259.073,2.44678L265.151,3.35065L271.03,5.13872L276.583,7.77211L281.687,11.1935L286.233,15.3286L290.122,20.0873L293.268,25.3661L505.268,449.366L507.573,454.959L509.045,460.827L509.651,466.846L509.379,472.89L508.235,478.83L506.242,484.542L503.444,489.905L499.898,494.807L495.68,499.144L490.879,502.824L485.595,505.77L479.94,507.919L474.034,509.227L468,509.667L44,509.667ZM44,468L468,468L256,44L44,468Z" style="fill:black;"/>
            </g>
            <g>
                <text x="189.398px" y="447.121px" style="font-family:Arial Rounded MT Bold;font-size:400px;fill:black;">!</text>
            </g>
        </g>
    </g>
</svg>
