<?xml version="1.0" standalone="no"?>
<!DOCTYPE svg PUBLIC "-//W3C//DTD SVG 1.1//EN" "http://www.w3.org/Graphics/SVG/1.1/DTD/svg11.dtd">
<svg width="512px" height="512px" version="1.1" xmlns="http://www.w3.org/2000/svg" xmlns:xlink="http://www.w3.org/1999/xlink" xml:space="preserve" style="fill-rule:evenodd;clip-rule:evenodd;stroke-linejoin:round;stroke-miterlimit:1.41421;">
    <g>
        <path d="M256,0C397.385,0 512,114.615 512,256C512,397.385 397.385,512 256,512C114.615,512 0,397.385 0,256C0,114.615 114.615,0 256,0ZM194.614,444.917C204.844,473.028 307.156,473.028 317.386,444.917C327.616,416.809 256,276.262 256,276.262C256,276.262 184.383,416.809 194.614,444.917ZM346.178,432.991C373.289,445.633 445.633,373.289 432.991,346.178C420.349,319.067 270.328,270.328 270.328,270.328C270.328,270.328 319.067,420.349 346.178,432.991ZM79.0086,346.178C66.3667,373.289 138.71,445.633 165.821,432.991C192.932,420.349 241.672,270.328 241.672,270.328C241.672,270.328 91.6504,319.067 79.0086,346.178ZM444.917,317.386C473.028,307.156 473.028,204.844 444.917,194.614C416.809,184.383 276.262,256 276.262,256C276.262,256 416.809,327.616 444.917,317.386ZM67.082,194.614C38.9727,204.844 38.9727,307.156 67.082,317.386C95.191,327.616 235.737,256 235.737,256C235.737,256 95.191,184.383 67.082,194.614ZM432.991,165.821C445.633,138.71 373.289,66.3667 346.178,79.0086C319.067,91.6504 270.328,241.672 270.328,241.672C270.328,241.672 420.349,192.932 432.991,165.821ZM165.821,79.0086C138.71,66.3667 66.3667,138.71 79.0086,165.821C91.6504,192.932 241.672,241.672 241.672,241.672C241.672,241.672 192.932,91.6504 165.821,79.0086ZM317.386,67.082C307.156,38.9727 204.844,38.9727 194.614,67.082C184.383,95.191 256,235.737 256,235.737C256,235.737 327.616,95.191 317.386,67.082Z" style="fill:black;"/>
    </g>
</svg>
