<?xml version="1.0" standalone="no"?>
<!DOCTYPE svg PUBLIC "-//W3C//DTD SVG 1.1//EN" "http://www.w3.org/Graphics/SVG/1.1/DTD/svg11.dtd">
<svg width="512px" height="512px" version="1.1" xmlns="http://www.w3.org/2000/svg" xmlns:xlink="http://www.w3.org/1999/xlink" xml:space="preserve" style="fill-rule:evenodd;clip-rule:evenodd;stroke-linejoin:round;stroke-miterlimit:1.41421;">
    <g>
        <g id="Layer1">
            <g>
                <path d="M256,460L256.793,459.497L257.586,458.993L258.381,458.487L259.177,457.978L259.975,457.468L260.773,456.956L261.573,456.441L262.373,455.925L263.175,455.408L263.978,454.888L264.781,454.366L265.586,453.842L266.392,453.317L267.198,452.79L268.006,452.26L268.814,451.729L269.623,451.197L270.433,450.662L271.244,450.125L272.056,449.587L272.869,449.047L273.682,448.505L274.496,447.961L275.311,447.416L276.126,446.869L276.943,446.32L277.759,445.769L278.577,445.216L279.395,444.662L280.214,444.106L281.033,443.548L281.852,442.989L282.673,442.427L283.493,441.865L284.315,441.3L285.136,440.734L285.958,440.166L286.781,439.596L287.604,439.025L288.427,438.452L289.251,437.877L290.074,437.301L290.899,436.723L291.723,436.143L292.548,435.562L293.373,434.979L294.198,434.395L295.023,433.809L295.848,433.221L296.674,432.632L297.5,432.042L298.325,431.449L299.151,430.855L299.977,430.26L300.803,429.663L301.629,429.064L302.455,428.464L303.28,427.863L304.106,427.26L304.932,426.655L305.757,426.049L306.583,425.441L307.408,424.832L308.233,424.222L309.058,423.61L309.882,422.996L310.707,422.381L311.531,421.765L312.355,421.147L313.178,420.528L314.001,419.907L314.824,419.285L315.646,418.662L316.468,418.037L317.29,417.411L318.111,416.783L318.931,416.154L319.752,415.523L320.571,414.892L321.39,414.259L322.209,413.624L323.026,412.988L323.844,412.351L324.66,411.713L325.476,411.073L326.292,410.432L327.106,409.789L327.92,409.146L328.733,408.501L329.546,407.854L330.357,407.207L331.168,406.558L331.978,405.908L332.787,405.257L333.595,404.604L334.402,403.95L335.208,403.295L336.014,402.639L336.818,401.982L337.622,401.323L338.424,400.663L339.225,400.002L340.026,399.34L340.825,398.677L341.623,398.012L342.42,397.347L343.216,396.68L344.01,396.012L344.804,395.343L345.596,394.673L346.387,394.001L347.177,393.329L347.965,392.655L348.752,391.981L349.538,391.305L350.322,390.628L351.105,389.95L351.887,389.271L352.667,388.591L353.446,387.91L354.223,387.228L354.999,386.545L355.773,385.861L356.546,385.176L357.317,384.49L358.087,383.802L358.855,383.114L359.621,382.425L360.386,381.735L361.149,381.044L361.91,380.352L362.67,379.659L363.428,378.965L364.184,378.27L364.938,377.574L365.691,376.877L366.441,376.179L367.19,375.481L367.937,374.781L368.682,374.081L369.425,373.38L370.167,372.677L370.906,371.974L371.643,371.27L372.378,370.566L373.112,369.86L373.843,369.154L374.572,368.446L375.299,367.738L376.024,367.029L376.746,366.319L377.467,365.609L378.185,364.898L378.901,364.185L379.615,363.473L380.327,362.759L381.036,362.044L381.743,361.329L382.448,360.613L383.15,359.896L383.85,359.179L384.548,358.461L385.243,357.742L385.936,357.022L386.626,356.302L387.314,355.581L387.999,354.859L388.682,354.137L389.362,353.414L390.04,352.69L390.715,351.966L391.388,351.241L392.057,350.515L392.725,349.789L393.389,349.062L394.051,348.334L394.71,347.606L395.366,346.878L396.019,346.148L396.67,345.418L397.318,344.688L397.963,343.957L398.605,343.225L399.244,342.493L399.881,341.76L400.514,341.027L401.144,340.293L401.772,339.558L402.396,338.823L403.018,338.088L403.636,337.352L404.251,336.616L404.864,335.879L405.473,335.141L406.079,334.403L406.681,333.665L407.281,332.926L407.877,332.187L408.471,331.447L409.06,330.707L409.647,329.967L410.23,329.226L410.81,328.484L411.387,327.743L411.96,327L412.53,326.258L413.097,325.515L413.66,324.771L414.22,324.028L414.498,323.656L414.776,323.284L415.053,322.911L415.329,322.539L415.604,322.167L415.878,321.794L416.151,321.422L416.423,321.049L416.695,320.677L416.965,320.304L417.235,319.931L417.504,319.558L417.772,319.185L418.039,318.812L418.305,318.439L418.57,318.066L418.834,317.692L419.097,317.319L419.36,316.946L419.621,316.572L419.882,316.199L420.141,315.825L420.4,315.451L420.658,315.077L420.915,314.703L421.17,314.33L421.425,313.956L421.679,313.582L421.932,313.207L422.184,312.833L422.436,312.459L422.686,312.085L422.935,311.71L423.183,311.336L423.43,310.961L423.677,310.587L423.922,310.212L424.167,309.838L424.41,309.463L424.652,309.088L424.894,308.713L425.134,308.339L425.374,307.964L425.612,307.589L425.85,307.214L426.086,306.839L426.322,306.464L426.556,306.088L426.79,305.713L427.022,305.338L427.254,304.963L427.484,304.587L427.713,304.212L427.942,303.837L428.169,303.461L428.396,303.086L428.621,302.71L428.845,302.335L429.069,301.959L429.291,301.584L429.512,301.208L429.732,300.832L429.951,300.457L430.169,300.081L430.386,299.705L430.602,299.329L430.817,298.954L431.031,298.578L431.244,298.202L431.456,297.826L431.666,297.45L431.876,297.074L432.084,296.698L432.292,296.322L432.498,295.946L432.703,295.57L432.908,295.194L433.111,294.818L433.313,294.442L433.514,294.066L433.714,293.69L433.912,293.314L434.11,292.938L434.307,292.562L434.502,292.185L434.696,291.809L434.89,291.433L435.082,291.057L435.273,290.681L435.462,290.305L435.651,289.929L435.839,289.552L436.025,289.176L436.211,288.8L436.474,288.298L436.737,287.797L436.998,287.295L437.258,286.794L437.518,286.292L437.776,285.791L438.033,285.289L438.29,284.788L438.545,284.286L438.799,283.785L439.052,283.283L439.304,282.782L439.555,282.28L439.805,281.779L440.055,281.278L440.303,280.776L440.55,280.275L440.795,279.774L441.04,279.272L441.284,278.771L441.527,278.27L441.769,277.769L442.01,277.268L442.249,276.767L442.488,276.266L442.726,275.765L442.963,275.264L443.198,274.763L443.433,274.262L443.666,273.762L443.899,273.261L444.13,272.76L444.361,272.26L444.59,271.759L444.819,271.259L445.046,270.759L445.272,270.258L445.498,269.758L445.722,269.258L445.945,268.758L446.168,268.258L446.389,267.758L446.609,267.258L446.828,266.758L447.046,266.259L447.263,265.759L447.479,265.26L447.694,264.76L447.908,264.261L448.121,263.762L448.333,263.263L448.544,262.764L448.754,262.265L448.963,261.766L449.17,261.267L449.377,260.769L449.583,260.27L449.788,259.772L449.991,259.273L450.194,258.775L450.396,258.277L450.596,257.779L450.796,257.281L450.994,256.784L451.192,256.286L451.388,255.789L451.583,255.291L451.778,254.794L451.971,254.297L452.164,253.8L452.355,253.303L452.545,252.807L452.734,252.31L452.922,251.814L453.11,251.317L453.296,250.821L453.481,250.325L453.665,249.829L453.848,249.334L454.03,248.838L454.211,248.343L454.391,247.848L454.57,247.353L454.748,246.858L454.925,246.363L455.1,245.868L455.275,245.374L455.449,244.88L455.622,244.386L455.793,243.892L455.964,243.398L456.134,242.905L456.302,242.411L456.47,241.918L456.636,241.425L456.802,240.932L456.966,240.439L457.13,239.947L457.292,239.455L457.454,238.963L457.614,238.471L457.773,237.979L457.932,237.488L458.089,236.996L458.245,236.505L458.4,236.014L458.554,235.523L458.708,235.033L458.86,234.543L459.011,234.053L459.161,233.563L459.31,233.073L459.458,232.584L459.605,232.094L459.751,231.605L459.896,231.116L460.039,230.628L460.182,230.14L460.324,229.651L460.465,229.164L460.604,228.676L460.743,228.188L460.881,227.701L461.017,227.214L461.153,226.728L461.288,226.241L461.421,225.755L461.554,225.269L461.685,224.783L461.816,224.297L461.945,223.812L462.073,223.327L462.201,222.842L462.327,222.358L462.452,221.874L462.577,221.39L462.7,220.906L462.822,220.422L462.943,219.939L463.063,219.456L463.183,218.974L463.301,218.491L463.418,218.009L463.534,217.527L463.649,217.046L463.763,216.564L463.875,216.083L463.987,215.603L464.098,215.122L464.208,214.642L464.317,214.162L464.425,213.682L464.531,213.203L464.637,212.724L464.742,212.245L464.845,211.767L464.948,211.289L465.05,210.811L465.15,210.333L465.25,209.856L465.348,209.379L465.446,208.903L465.542,208.426L465.637,207.95L465.732,207.475L465.825,206.999L465.917,206.524L466.009,206.05L466.099,205.575L466.188,205.101L466.276,204.627L466.363,204.154L466.449,203.681L466.534,203.208L466.619,202.736L466.702,202.263L466.783,201.792L466.864,201.32L466.944,200.849L467.023,200.378L467.101,199.908L467.178,199.438L467.254,198.968L467.328,198.499L467.402,198.03L467.475,197.561L467.547,197.093L467.617,196.625L467.687,196.158L467.755,195.69L467.823,195.224L467.889,194.757L467.955,194.291L468.019,193.825L468.083,193.36L468.145,192.895L468.207,192.43L468.267,191.966L468.326,191.502L468.384,191.039L468.442,190.575L468.498,190.113L468.553,189.65L468.607,189.188L468.66,188.727L468.712,188.266L468.763,187.805L468.813,187.345L468.862,186.885L468.91,186.425L468.957,185.966L469.003,185.507L469.048,185.049L469.092,184.591L469.135,184.133L469.176,183.676L469.217,183.219L469.257,182.763L469.296,182.307L469.333,181.852L469.37,181.397L469.405,180.942L469.44,180.488L469.473,180.034L469.506,179.581L469.537,179.128L469.568,178.675L469.597,178.223L469.626,177.772L469.653,177.32L469.679,176.87L469.704,176.419L469.729,175.97L469.752,175.52L469.774,175.071L469.795,174.623L469.815,174.175L469.834,173.727L469.852,173.28L469.869,172.833L469.885,172.387L469.9,171.941L469.914,171.496L469.927,171.051L469.939,170.607L469.95,170.163L469.96,169.719L469.968,169.276L469.976,168.834L469.983,168.392L469.989,167.95L469.993,167.509L469.997,167.069L469.999,166.629L470.001,166.189L470.001,165.75L470.001,165.311L469.999,164.873L469.997,164.436L469.993,163.998L469.989,163.562L469.983,163.126L469.976,162.69L469.968,162.255L469.96,161.82L469.95,161.386L469.939,160.953L469.927,160.519L469.914,160.087L469.9,159.655L469.885,159.223L469.869,158.792L469.852,158.362L469.834,157.932L469.815,157.502L469.795,157.073L469.774,156.645L469.752,156.217L469.729,155.789L469.704,155.363L469.679,154.936L469.653,154.511L469.626,154.085L469.597,153.661L469.568,153.237L469.537,152.813L469.506,152.39L469.473,151.967L469.44,151.546L469.405,151.124L469.37,150.703L469.333,150.283L469.296,149.863L469.257,149.444L469.217,149.026L469.176,148.608L469.135,148.19L469.092,147.773L469.048,147.357L469.003,146.941L468.957,146.526L468.91,146.111L468.862,145.697L468.813,145.284L468.763,144.871L468.712,144.459L468.66,144.047L468.607,143.636L468.553,143.225L468.498,142.816L468.442,142.406L468.384,141.997L468.326,141.589L468.267,141.182L468.207,140.775L468.145,140.369L468.083,139.963L468.019,139.558L467.955,139.153L467.889,138.749L467.823,138.346L467.755,137.943L467.687,137.541L467.617,137.14L467.547,136.739L467.475,136.339L467.402,135.939L467.328,135.54L467.254,135.142L467.178,134.744L467.101,134.347L467.023,133.951L466.944,133.555L466.864,133.16L466.783,132.765L466.702,132.371L466.619,131.978L466.534,131.585L466.449,131.193L466.363,130.802L466.276,130.412L466.188,130.022L466.099,129.632L466.009,129.244L465.917,128.856L465.825,128.468L465.732,128.081L465.637,127.695L465.542,127.31L465.446,126.925L465.348,126.541L465.25,126.158L465.15,125.775L465.05,125.393L464.948,125.012L464.845,124.631L464.742,124.251L464.637,123.872L464.531,123.493L464.425,123.115L464.317,122.738L464.208,122.362L464.098,121.986L463.987,121.611L463.875,121.236L463.763,120.862L463.649,120.489L463.534,120.117L463.418,119.745L463.301,119.374L463.183,119.004L463.063,118.635L462.943,118.266L462.822,117.898L462.7,117.53L462.577,117.164L462.452,116.798L462.327,116.432L462.201,116.068L462.073,115.704L461.945,115.341L461.816,114.979L461.685,114.617L461.554,114.256L461.421,113.896L461.288,113.537L461.153,113.178L461.017,112.82L460.881,112.463L460.743,112.107L460.604,111.751L460.465,111.396L460.324,111.042L460.182,110.688L460.039,110.336L459.896,109.984L459.751,109.633L459.605,109.282L459.458,108.933L459.31,108.584L459.161,108.236L459.011,107.888L458.86,107.542L458.708,107.196L458.554,106.851L458.4,106.506L458.245,106.163L458.089,105.82L457.932,105.478L457.773,105.137L457.614,104.797L457.454,104.457L457.292,104.119L457.13,103.781L456.966,103.443L456.802,103.107L456.636,102.771L456.47,102.437L456.302,102.103L456.134,101.769L455.964,101.437L455.793,101.105L455.622,100.774L455.449,100.445L455.275,100.115L455.1,99.787L454.925,99.4594L454.748,99.1327L454.57,98.8068L454.391,98.4817L454.211,98.1574L454.03,97.834L453.848,97.5114L453.665,97.1896L453.481,96.8686L453.296,96.5485L453.11,96.2292L452.922,95.9108L452.734,95.5932L452.545,95.2764L452.355,94.9605L452.164,94.6454L451.971,94.3311L451.778,94.0177L451.583,93.7052L451.388,93.3935L451.192,93.0826L450.994,92.7727L450.796,92.4635L450.596,92.1553L450.396,91.8478L450.194,91.5413L449.991,91.2356L449.788,90.9308L449.583,90.6269L449.377,90.3238L449.17,90.0216L448.963,89.7203L448.754,89.4198L448.544,89.1202L448.333,88.8215L448.121,88.5237L447.908,88.2268L447.694,87.9307L447.479,87.6356L447.263,87.3413L447.046,87.048L446.828,86.7555L446.609,86.4639L446.389,86.1732L446.168,85.8834L445.945,85.5945L445.722,85.3065L445.498,85.0195L445.272,84.7333L445.046,84.448L444.819,84.1637L444.59,83.8802L444.361,83.5977L444.13,83.3161L443.899,83.0354L443.666,82.7557L443.433,82.4768L443.198,82.1989L442.963,81.9219L442.726,81.6458L442.488,81.3707L442.249,81.0965L442.01,80.8232L441.769,80.5509L441.527,80.2795L441.284,80.009L441.04,79.7395L440.795,79.4709L440.55,79.2033L440.303,78.9366L440.055,78.6708L439.805,78.4061L439.555,78.1422L439.304,77.8794L439.052,77.6174L438.799,77.3565L438.545,77.0965L438.29,76.8374L438.033,76.5794L437.776,76.3223L437.518,76.0661L437.258,75.8109L436.998,75.5567L436.737,75.3035L436.474,75.0513L436.211,74.8L435.946,74.5497L435.681,74.3004L435.414,74.0521L435.147,73.8048L434.878,73.5585L434.608,73.3131L434.338,73.0688L434.066,72.8256L433.794,72.5833L433.52,72.3421L433.245,72.1019L432.97,71.8627L432.693,71.6246L432.416,71.3876L432.137,71.1516L431.858,70.9167L431.577,70.6828L431.296,70.45L431.013,70.2183L430.73,69.9877L430.446,69.7581L430.161,69.5297L429.875,69.3023L429.587,69.0761L429.299,68.851L429.01,68.627L428.721,68.4041L428.43,68.1824L428.138,67.9617L427.845,67.7423L427.552,67.5239L427.257,67.3067L426.962,67.0907L426.666,66.8759L426.368,66.6622L426.07,66.4496L425.772,66.2383L425.472,66.0281L425.171,65.8192L424.869,65.6114L424.567,65.4048L424.264,65.1995L423.96,64.9953L423.654,64.7924L423.349,64.5906L423.042,64.3902L422.734,64.1909L422.426,63.9929L422.117,63.7961L421.807,63.6006L421.496,63.4063L421.184,63.2133L420.871,63.0216L420.558,62.8311L420.244,62.6419L419.929,62.454L419.613,62.2674L419.296,62.0821L418.979,61.8981L418.661,61.7154L418.342,61.534L418.022,61.3539L417.701,61.1751L417.38,60.9977L417.058,60.8216L416.735,60.6469L416.411,60.4734L416.087,60.3014L415.762,60.1307L415.436,59.9613L415.109,59.7933L414.782,59.6267L414.454,59.4615L414.125,59.2976L413.795,59.1352L413.465,58.9741L413.134,58.8144L412.802,58.6562L412.469,58.4993L412.136,58.3439L411.802,58.1899L411.468,58.0373L411.132,57.8861L410.796,57.7364L410.459,57.5881L410.122,57.4413L409.784,57.2959L409.445,57.152L409.106,57.0096L408.765,56.8686L408.425,56.7291L408.083,56.5911L407.741,56.4546L407.398,56.3196L407.055,56.186L406.711,56.054L406.366,55.9235L406.021,55.7945L405.675,55.667L405.328,55.5411L404.981,55.4166L404.633,55.2938L404.284,55.1724L403.935,55.0526L403.585,54.9344L403.235,54.8177L402.884,54.7026L402.533,54.5891L402.18,54.4771L401.828,54.3667L401.474,54.2579L401.12,54.1507L400.766,54.0451L400.411,53.9411L400.055,53.8388L399.699,53.738L399.342,53.6388L398.985,53.5413L398.627,53.4454L398.268,53.3512L397.91,53.2585L397.55,53.1676L397.19,53.0783L396.829,52.9906L396.468,52.9046L396.106,52.8203L395.744,52.7377L395.382,52.6567L395.018,52.5774L394.655,52.4999L394.29,52.424L393.926,52.3498L393.56,52.2773L393.195,52.2066L392.828,52.1376L392.462,52.0702L392.094,52.0047L391.727,51.9408L391.359,51.8787L390.99,51.8184L390.621,51.7598L390.251,51.7029L389.881,51.6479L389.511,51.5946L389.14,51.543L388.768,51.4933L388.397,51.4453L388.024,51.3992L387.652,51.3548L387.279,51.3122L386.905,51.2715L386.531,51.2325L386.157,51.1954L385.782,51.1601L385.407,51.1266L385.031,51.095L384.655,51.0652L384.278,51.0373L383.902,51.0112L383.524,50.9869L383.147,50.9646L382.769,50.9441L382.39,50.9255L382.012,50.9087L381.633,50.8939L381.253,50.8809L380.873,50.8698L380.493,50.8607L380.113,50.8534L379.732,50.848L379.35,50.8446L378.969,50.8431L378.587,50.8436L378.205,50.8459L377.822,50.8502L377.439,50.8565L377.056,50.8647L376.672,50.8748L376.288,50.887L375.904,50.9011L375.52,50.9171L375.135,50.9352L374.75,50.9552L374.364,50.9772L373.979,51.0013L373.593,51.0273L373.207,51.0553L372.82,51.0854L372.433,51.1174L372.046,51.1515L371.659,51.1876L371.271,51.2258L370.883,51.266L370.495,51.3082L370.107,51.3525L369.718,51.3989L369.33,51.4473L368.94,51.4978L368.551,51.5503L368.162,51.605L367.772,51.6617L367.382,51.7205L366.992,51.7814L366.601,51.8444L366.211,51.9095L365.82,51.9767L365.429,52.0461L365.038,52.1175L364.646,52.1911L364.254,52.2669L363.863,52.3447L363.471,52.4248L363.079,52.5069L362.686,52.5913L362.294,52.6777L361.901,52.7664L361.508,52.8572L361.115,52.9502L360.722,53.0454L360.329,53.1428L359.935,53.2424L359.542,53.3442L359.148,53.4482L358.754,53.5544L358.36,53.6628L357.966,53.7734L357.572,53.8863L357.178,54.0014L356.783,54.1187L356.389,54.2383L355.994,54.3601L355.599,54.4842L355.204,54.6106L354.809,54.7392L354.414,54.8701L354.019,55.0033L353.624,55.1387L353.229,55.2765L352.833,55.4165L352.438,55.5589L352.042,55.7035L351.647,55.8505L351.251,55.9998L350.856,56.1514L350.46,56.3053L350.064,56.4616L349.668,56.6202L349.273,56.7811L348.877,56.9444L348.481,57.11L348.085,57.2781L347.689,57.4484L347.293,57.6212L346.897,57.7963L346.501,57.9738L346.105,58.1537L345.709,58.336L345.313,58.5207L344.917,58.7078L344.521,58.8973L344.125,59.0893L343.73,59.2836L343.334,59.4804L342.938,59.6796L342.542,59.8813L342.146,60.0854L341.75,60.2919L341.355,60.5009L340.959,60.7124L340.563,60.9263L340.168,61.1427L339.772,61.3616L339.377,61.5829L338.982,61.8068L338.586,62.0331L338.191,62.262L337.796,62.4933L337.401,62.7272L337.006,62.9635L336.611,63.2024L336.216,63.4439L335.822,63.6878L335.427,63.9343L335.033,64.1833L334.638,64.4349L334.244,64.6891L333.85,64.9458L333.456,65.205L333.062,65.4669L332.669,65.7313L332.275,65.9983L331.882,66.2679L331.488,66.54L331.095,66.8148L330.702,67.0922L330.309,67.3722L329.917,67.6548L329.524,67.94L329.132,68.2279L328.74,68.5184L328.348,68.8115L327.956,69.1072L327.564,69.4057L327.173,69.7067L326.782,70.0105L326.391,70.3169L326,70.6259L325.609,70.9377L325.219,71.2521L324.828,71.5692L324.439,71.889L324.049,72.2115L323.659,72.5367L323.27,72.8646L322.881,73.1953L322.492,73.5286L322.103,73.8647L321.715,74.2035L321.327,74.545L320.939,74.8893L320.551,75.2364L320.164,75.5862L319.777,75.9387L319.39,76.294L319.004,76.6521L318.618,77.013L318.232,77.3766L317.846,77.743L317.461,78.1123L317.075,78.4843L316.691,78.8591L316.306,79.2367L315.922,79.6172L315.538,80.0004L315.155,80.3865L314.771,80.7755L314.388,81.1672L314.006,81.5618L313.624,81.9593L313.242,82.3596L312.86,82.7627L312.479,83.1687L312.098,83.5776L311.717,83.9894L311.337,84.4041L310.957,84.8216L310.578,85.242L310.199,85.6654L309.82,86.0916L309.442,86.5207L309.064,86.9528L308.686,87.3877L308.309,87.8256L307.932,88.2665L307.556,88.7102L307.179,89.1569L306.804,89.6066L306.429,90.0592L306.054,90.5147L305.679,90.9733L305.305,91.4348L304.932,91.8992L304.559,92.3667L304.186,92.8371L303.814,93.3105L303.442,93.787L303.071,94.2664L302.7,94.7488L302.329,95.2343L301.959,95.7227L301.59,96.2142L301.221,96.7088L300.852,97.2063L300.484,97.7069L300.116,98.2106L299.749,98.7173L299.382,99.227L299.016,99.7398L298.65,100.256L298.285,100.775L297.92,101.297L297.556,101.822L297.192,102.35L296.829,102.881L296.466,103.416L296.104,103.953L295.742,104.494L295.381,105.038L295.021,105.585L294.66,106.135L294.301,106.688L293.942,107.244L293.584,107.803L293.226,108.366L292.868,108.932L292.512,109.501L292.155,110.073L291.8,110.648L291.445,111.226L291.09,111.808L290.736,112.393L290.383,112.981L290.03,113.572L289.678,114.166L289.326,114.764L288.975,115.365L288.625,115.969L288.275,116.576L287.926,117.187L287.578,117.8L287.23,118.417L286.883,119.038L286.536,119.661L286.19,120.288L285.844,120.918L285.5,121.551L285.156,122.188L284.812,122.828L284.469,123.471L284.127,124.117L283.786,124.767L283.445,125.42L283.105,126.077L282.765,126.736L282.427,127.399L282.089,128.066L281.751,128.735L281.414,129.408L281.078,130.085L280.743,130.764L280.408,131.448L280.074,132.134L279.741,132.824L279.409,133.517L279.077,134.213L278.746,134.913L278.415,135.617L278.086,136.323L277.757,137.034L277.429,137.747L277.101,138.464L276.775,139.184L276.449,139.908L276.124,140.635L275.799,141.366L275.476,142.1L275.153,142.838L274.831,143.579L274.509,144.323L274.189,145.071L273.869,145.822L273.55,146.577L273.232,147.335L272.914,148.097L272.598,148.862L272.282,149.631L271.967,150.404L271.653,151.179L271.339,151.959L271.027,152.741L270.715,153.528L270.404,154.318L270.094,155.111L269.785,155.908L269.476,156.708L269.169,157.512L268.862,158.32L268.556,159.131L268.251,159.946L267.947,160.764L267.644,161.586L267.341,162.411L267.04,163.24L266.739,164.073L266.439,164.909L266.14,165.749L265.842,166.592L265.545,167.439L265.249,168.29L264.953,169.144L264.659,170.002L264.365,170.864L264.073,171.729L263.781,172.598L263.49,173.471L263.2,174.347L262.911,175.227L262.623,176.11L262.336,176.997L262.05,177.888L261.765,178.783L261.48,179.681L261.197,180.583L260.915,181.488L260.633,182.398L260.353,183.311L260.073,184.228L259.795,185.148L259.517,186.072L259.241,187L258.965,187.932L258.691,188.868L258.417,189.807L258.144,190.75L257.873,191.697L257.602,192.647L257.333,193.602L257.064,194.56L256.797,195.521L256.53,196.487L256.264,197.457L256,198.43L255.736,197.457L255.47,196.487L255.203,195.521L254.936,194.56L254.667,193.602L254.398,192.647L254.127,191.697L253.856,190.75L253.583,189.807L253.309,188.868L253.035,187.932L252.759,187L252.483,186.072L252.205,185.148L251.927,184.228L251.647,183.311L251.367,182.398L251.085,181.488L250.803,180.583L250.52,179.681L250.235,178.783L249.95,177.888L249.664,176.997L249.377,176.11L249.089,175.227L248.8,174.347L248.51,173.471L248.219,172.598L247.927,171.729L247.635,170.864L247.341,170.002L247.047,169.144L246.751,168.29L246.455,167.439L246.158,166.592L245.86,165.749L245.561,164.909L245.261,164.073L244.96,163.24L244.659,162.411L244.356,161.586L244.053,160.764L243.749,159.946L243.444,159.131L243.138,158.32L242.831,157.512L242.524,156.708L242.215,155.908L241.906,155.111L241.596,154.318L241.285,153.528L240.973,152.741L240.661,151.959L240.347,151.179L240.033,150.404L239.718,149.631L239.402,148.862L239.086,148.097L238.768,147.335L238.45,146.577L238.131,145.822L237.811,145.071L237.491,144.323L237.169,143.579L236.847,142.838L236.524,142.1L236.201,141.366L235.876,140.635L235.551,139.908L235.225,139.184L234.899,138.464L234.571,137.747L234.243,137.034L233.914,136.323L233.585,135.617L233.254,134.913L232.923,134.213L232.591,133.517L232.259,132.824L231.926,132.134L231.592,131.448L231.257,130.764L230.922,130.085L230.586,129.408L230.249,128.735L229.911,128.066L229.573,127.399L229.235,126.736L228.895,126.077L228.555,125.42L228.214,124.767L227.873,124.117L227.531,123.471L227.188,122.828L226.844,122.188L226.5,121.551L226.156,120.918L225.81,120.288L225.464,119.661L225.117,119.038L224.77,118.417L224.422,117.8L224.074,117.187L223.725,116.576L223.375,115.969L223.025,115.365L222.674,114.764L222.322,114.166L221.97,113.572L221.617,112.981L221.264,112.393L220.91,111.808L220.555,111.226L220.2,110.648L219.845,110.073L219.488,109.501L219.132,108.932L218.774,108.366L218.416,107.803L218.058,107.244L217.699,106.688L217.34,106.135L216.979,105.585L216.619,105.038L216.258,104.494L215.896,103.953L215.534,103.416L215.171,102.881L214.808,102.35L214.444,101.822L214.08,101.297L213.715,100.775L213.35,100.256L212.984,99.7398L212.618,99.227L212.251,98.7173L211.884,98.2106L211.516,97.7069L211.148,97.2063L210.779,96.7088L210.41,96.2142L210.041,95.7227L209.671,95.2343L209.3,94.7488L208.929,94.2664L208.558,93.787L208.186,93.3105L207.814,92.8371L207.441,92.3667L207.068,91.8992L206.695,91.4348L206.321,90.9733L205.946,90.5147L205.571,90.0592L205.196,89.6066L204.821,89.1569L204.444,88.7102L204.068,88.2665L203.691,87.8256L203.314,87.3877L202.936,86.9528L202.558,86.5207L202.18,86.0916L201.801,85.6654L201.422,85.242L201.043,84.8216L200.663,84.4041L200.283,83.9894L199.902,83.5776L199.521,83.1687L199.14,82.7627L198.758,82.3596L198.376,81.9593L197.994,81.5618L197.612,81.1672L197.229,80.7755L196.845,80.3865L196.462,80.0004L196.078,79.6172L195.694,79.2367L195.309,78.8591L194.925,78.4843L194.539,78.1123L194.154,77.743L193.768,77.3766L193.382,77.013L192.996,76.6521L192.61,76.294L192.223,75.9387L191.836,75.5862L191.449,75.2364L191.061,74.8893L190.673,74.545L190.285,74.2035L189.897,73.8647L189.508,73.5286L189.119,73.1953L188.73,72.8646L188.341,72.5367L187.951,72.2115L187.562,71.889L187.172,71.5692L186.781,71.2521L186.391,70.9377L186,70.6259L185.609,70.3169L185.218,70.0105L184.827,69.7067L184.436,69.4057L184.044,69.1072L183.652,68.8115L183.26,68.5184L182.868,68.2279L182.476,67.94L182.083,67.6548L181.691,67.3722L181.298,67.0922L180.905,66.8148L180.512,66.54L180.118,66.2679L179.725,65.9983L179.331,65.7313L178.938,65.4669L178.544,65.205L178.15,64.9458L177.756,64.6891L177.362,64.4349L176.967,64.1833L176.573,63.9343L176.178,63.6878L175.784,63.4439L175.389,63.2024L174.994,62.9635L174.599,62.7272L174.204,62.4933L173.809,62.262L173.414,62.0331L173.018,61.8068L172.623,61.5829L172.228,61.3616L171.832,61.1427L171.437,60.9263L171.041,60.7124L170.645,60.5009L170.25,60.2919L169.854,60.0854L169.458,59.8813L169.062,59.6796L168.666,59.4804L168.271,59.2836L167.875,59.0893L167.479,58.8973L167.083,58.7078L166.687,58.5207L166.291,58.336L165.895,58.1537L165.499,57.9738L165.103,57.7963L164.707,57.6212L164.311,57.4484L163.915,57.2781L163.519,57.11L163.123,56.9444L162.727,56.7811L162.332,56.6202L161.936,56.4616L161.54,56.3053L161.144,56.1514L160.749,55.9998L160.353,55.8505L159.958,55.7035L159.562,55.5589L159.167,55.4165L158.771,55.2765L158.376,55.1387L157.981,55.0033L157.586,54.8701L157.191,54.7392L156.796,54.6106L156.401,54.4842L156.006,54.3601L155.611,54.2383L155.217,54.1187L154.822,54.0014L154.428,53.8863L154.034,53.7734L153.64,53.6628L153.246,53.5544L152.852,53.4482L152.458,53.3442L152.065,53.2424L151.671,53.1428L151.278,53.0454L150.885,52.9502L150.492,52.8572L150.099,52.7664L149.706,52.6777L149.314,52.5913L148.921,52.5069L148.529,52.4248L148.137,52.3447L147.746,52.2669L147.354,52.1911L146.963,52.1175L146.571,52.0461L146.18,51.9767L145.789,51.9095L145.399,51.8444L145.008,51.7814L144.618,51.7205L144.228,51.6617L143.838,51.605L143.449,51.5503L143.06,51.4978L142.67,51.4473L142.282,51.3989L141.893,51.3525L141.505,51.3082L141.117,51.266L140.729,51.2258L140.341,51.1876L139.954,51.1515L139.567,51.1174L139.18,51.0854L138.793,51.0553L138.407,51.0273L138.021,51.0013L137.636,50.9772L137.25,50.9552L136.865,50.9352L136.48,50.9171L136.096,50.9011L135.712,50.887L135.328,50.8748L134.944,50.8647L134.561,50.8565L134.178,50.8502L133.795,50.8459L133.413,50.8436L133.031,50.8431L132.65,50.8446L132.268,50.848L131.887,50.8534L131.507,50.8607L131.127,50.8698L130.747,50.8809L130.367,50.8939L129.988,50.9087L129.61,50.9255L129.231,50.9441L128.853,50.9646L128.476,50.9869L128.098,51.0112L127.722,51.0373L127.345,51.0652L126.969,51.095L126.594,51.1266L126.218,51.1601L125.843,51.1954L125.469,51.2325L125.095,51.2715L124.722,51.3122L124.348,51.3548L123.976,51.3992L123.603,51.4453L123.232,51.4933L122.86,51.543L122.489,51.5946L122.119,51.6479L121.749,51.7029L121.379,51.7598L121.01,51.8184L120.642,51.8787L120.273,51.9408L119.906,52.0047L119.538,52.0702L119.172,52.1376L118.805,52.2066L118.44,52.2773L118.074,52.3498L117.71,52.424L117.345,52.4999L116.982,52.5774L116.619,52.6567L116.256,52.7377L115.894,52.8203L115.532,52.9046L115.171,52.9906L114.81,53.0783L114.45,53.1676L114.091,53.2585L113.732,53.3512L113.373,53.4454L113.015,53.5413L112.658,53.6388L112.301,53.738L111.945,53.8388L111.589,53.9411L111.234,54.0451L110.88,54.1507L110.526,54.2579L110.172,54.3667L109.82,54.4771L109.468,54.5891L109.116,54.7026L108.765,54.8177L108.415,54.9344L108.065,55.0526L107.716,55.1724L107.367,55.2938L107.019,55.4166L106.672,55.5411L106.325,55.667L105.979,55.7945L105.634,55.9235L105.289,56.054L104.945,56.186L104.602,56.3196L104.259,56.4546L103.917,56.5911L103.575,56.7291L103.235,56.8686L102.894,57.0096L102.555,57.152L102.216,57.2959L101.878,57.4413L101.541,57.5881L101.204,57.7364L100.868,57.8861L100.533,58.0373L100.198,58.1899L99.864,58.3439L99.5308,58.4993L99.1983,58.6562L98.8665,58.8144L98.5354,58.9741L98.205,59.1352L97.8754,59.2976L97.5465,59.4615L97.2184,59.6267L96.8909,59.7933L96.5643,59.9613L96.2384,60.1307L95.9132,60.3014L95.5888,60.4734L95.2651,60.6469L94.9422,60.8216L94.6201,60.9977L94.2988,61.1751L93.9782,61.3539L93.6585,61.534L93.3395,61.7154L93.0213,61.8981L92.7038,62.0821L92.3872,62.2674L92.0714,62.454L91.7564,62.6419L91.4422,62.8311L91.1288,63.0216L90.8163,63.2133L90.5045,63.4063L90.1936,63.6006L89.8835,63.7961L89.5743,63.9929L89.2658,64.1909L88.9583,64.3902L88.6515,64.5906L88.3456,64.7924L88.0406,64.9953L87.7365,65.1995L87.4331,65.4048L87.1307,65.6114L86.8291,65.8192L86.5284,66.0281L86.2286,66.2383L85.9297,66.4496L85.6316,66.6622L85.3345,66.8759L85.0382,67.0907L84.7428,67.3067L84.4484,67.5239L84.1548,67.7423L83.8622,67.9617L83.5704,68.1824L83.2796,68.4041L82.9897,68.627L82.7008,68.851L82.4127,69.0761L82.1256,69.3023L81.8395,69.5297L81.5543,69.7581L81.27,69.9877L80.9867,70.2183L80.7043,70.45L80.4229,70.6828L80.1424,70.9167L79.8629,71.1516L79.5844,71.3876L79.3069,71.6246L79.0303,71.8627L78.7548,72.1019L78.4802,72.3421L78.2066,72.5833L77.934,72.8256L77.6624,73.0688L77.3918,73.3131L77.1222,73.5585L76.8536,73.8048L76.5861,74.0521L76.3195,74.3004L76.054,74.5497L75.7895,74.8L75.526,75.0513L75.2636,75.3035L75.0022,75.5567L74.7418,75.8109L74.4825,76.0661L74.2242,76.3223L73.9669,76.5794L73.7106,76.8374L73.4554,77.0965L73.2012,77.3565L72.9481,77.6174L72.696,77.8794L72.4449,78.1422L72.1948,78.4061L71.9458,78.6708L71.6978,78.9366L71.4508,79.2033L71.2049,79.4709L70.96,79.7395L70.7161,80.009L70.4733,80.2795L70.2315,80.5509L69.9907,80.8232L69.7509,81.0965L69.5122,81.3707L69.2745,81.6458L69.0379,81.9219L68.8023,82.1989L68.5677,82.4768L68.3341,82.7557L68.1016,83.0354L67.8701,83.3161L67.6396,83.5977L67.4102,83.8802L67.1818,84.1637L66.9544,84.448L66.7281,84.7333L66.5027,85.0195L66.2785,85.3065L66.0552,85.5945L65.833,85.8834L65.6118,86.1732L65.3917,86.4639L65.1725,86.7555L64.9544,87.048L64.7374,87.3413L64.5213,87.6356L64.3063,87.9307L64.0924,88.2268L63.8794,88.5237L63.6675,88.8215L63.4567,89.1202L63.2468,89.4198L63.038,89.7203L62.8302,90.0216L62.6235,90.3238L62.4177,90.6269L62.2131,90.9308L62.0094,91.2356L61.8068,91.5413L61.6052,91.8478L61.4046,92.1553L61.2051,92.4635L61.0066,92.7727L60.8091,93.0826L60.6127,93.3935L60.4173,93.7052L60.2229,94.0177L60.0295,94.3311L59.8372,94.6454L59.646,94.9605L59.4557,95.2764L59.2665,95.5932L59.0783,95.9108L58.8911,96.2292L58.705,96.5485L58.5199,96.8686L58.3358,97.1896L58.1528,97.5114L57.9708,97.834L57.7898,98.1574L57.6099,98.4817L57.431,98.8068L57.2531,99.1327L57.0763,99.4594L56.9005,99.787L56.7257,100.115L56.5519,100.445L56.3792,100.774L56.2075,101.105L56.0368,101.437L55.8672,101.769L55.6986,102.103L55.5311,102.437L55.3645,102.771L55.199,103.107L55.0345,103.443L54.8711,103.781L54.7087,104.119L54.5473,104.457L54.387,104.797L54.2277,105.137L54.0694,105.478L53.9121,105.82L53.7559,106.163L53.6007,106.506L53.4465,106.851L53.2934,107.196L53.1413,107.542L52.9902,107.888L52.8402,108.236L52.6912,108.584L52.5432,108.933L52.3963,109.282L52.2504,109.633L52.1055,109.984L51.9616,110.336L51.8188,110.688L51.677,111.042L51.5363,111.396L51.3966,111.751L51.2579,112.107L51.1202,112.463L50.9836,112.82L50.848,113.178L50.7134,113.537L50.5799,113.896L50.4474,114.256L50.3159,114.617L50.1855,114.979L50.056,115.341L49.9277,115.704L49.8003,116.068L49.674,116.432L49.5487,116.798L49.4244,117.164L49.3012,117.53L49.179,117.898L49.0579,118.266L48.9377,118.635L48.8186,119.004L48.7006,119.374L48.5835,119.745L48.4675,120.117L48.3525,120.489L48.2386,120.862L48.1257,121.236L48.0138,121.611L47.903,121.986L47.7931,122.362L47.6843,122.738L47.5766,123.115L47.4699,123.493L47.3642,123.872L47.2595,124.251L47.1559,124.631L47.0533,125.012L46.9517,125.393L46.8512,125.775L46.7516,126.158L46.6532,126.541L46.5557,126.925L46.4593,127.31L46.3639,127.695L46.2696,128.081L46.1763,128.468L46.084,128.856L45.9927,129.244L45.9025,129.632L45.8133,130.022L45.7251,130.412L45.638,130.802L45.5519,131.193L45.4668,131.585L45.3828,131.978L45.2998,132.371L45.2178,132.765L45.1368,133.16L45.0569,133.555L44.978,133.951L44.9002,134.347L44.8234,134.744L44.7476,135.142L44.6728,135.54L44.5991,135.939L44.5264,136.339L44.4547,136.739L44.3841,137.14L44.3145,137.541L44.2459,137.943L44.1784,138.346L44.1118,138.749L44.0464,139.153L43.9819,139.558L43.9185,139.963L43.8561,140.369L43.7948,140.775L43.7344,141.182L43.6751,141.589L43.6169,141.997L43.5596,142.406L43.5035,142.816L43.4483,143.225L43.3941,143.636L43.341,144.047L43.289,144.459L43.2379,144.871L43.1879,145.284L43.1389,145.697L43.091,146.111L43.0441,146.526L42.9982,146.941L42.9533,147.357L42.9095,147.773L42.8667,148.19L42.8249,148.608L42.7842,149.026L42.7445,149.444L42.7058,149.863L42.6682,150.283L42.6316,150.703L42.596,151.124L42.5615,151.546L42.528,151.967L42.4955,152.39L42.464,152.813L42.4336,153.237L42.4042,153.661L42.3759,154.085L42.3485,154.511L42.3222,154.936L42.297,155.363L42.2727,155.789L42.2495,156.217L42.2274,156.645L42.2062,157.073L42.1861,157.502L42.1671,157.932L42.149,158.362L42.132,158.792L42.116,159.223L42.1011,159.655L42.0871,160.087L42.0742,160.519L42.0624,160.953L42.0516,161.386L42.0418,161.82L42.033,162.255L42.0253,162.69L42.0186,163.126L42.0129,163.562L42.0082,163.998L42.0046,164.436L42.0021,164.873L42.0005,165.311L42,165.75L42.0005,166.189L42.0021,166.629L42.0046,167.069L42.0082,167.509L42.0129,167.95L42.0186,168.392L42.0253,168.834L42.033,169.276L42.0418,169.719L42.0516,170.163L42.0624,170.607L42.0742,171.051L42.0871,171.496L42.1011,171.941L42.116,172.387L42.132,172.833L42.149,173.28L42.1671,173.727L42.1861,174.175L42.2062,174.623L42.2274,175.071L42.2495,175.52L42.2727,175.97L42.297,176.419L42.3222,176.87L42.3485,177.32L42.3759,177.772L42.4042,178.223L42.4336,178.675L42.464,179.128L42.4955,179.581L42.528,180.034L42.5615,180.488L42.596,180.942L42.6316,181.397L42.6682,181.852L42.7058,182.307L42.7445,182.763L42.7842,183.219L42.8249,183.676L42.8667,184.133L42.9095,184.591L42.9533,185.049L42.9982,185.507L43.0441,185.966L43.091,186.425L43.1389,186.885L43.1879,187.345L43.2379,187.805L43.289,188.266L43.341,188.727L43.3941,189.188L43.4483,189.65L43.5035,190.113L43.5596,190.575L43.6169,191.039L43.6751,191.502L43.7344,191.966L43.7948,192.43L43.8561,192.895L43.9185,193.36L43.9819,193.825L44.0464,194.291L44.1118,194.757L44.1784,195.224L44.2459,195.69L44.3145,196.158L44.3841,196.625L44.4547,197.093L44.5264,197.561L44.5991,198.03L44.6728,198.499L44.7476,198.968L44.8234,199.438L44.9002,199.908L44.978,200.378L45.0569,200.849L45.1368,201.32L45.2178,201.792L45.2998,202.263L45.3828,202.736L45.4668,203.208L45.5519,203.681L45.638,204.154L45.7251,204.627L45.8133,205.101L45.9025,205.575L45.9927,206.05L46.084,206.524L46.1763,206.999L46.2696,207.475L46.3639,207.95L46.4593,208.426L46.5557,208.903L46.6532,209.379L46.7516,209.856L46.8512,210.333L46.9517,210.811L47.0533,211.289L47.1559,211.767L47.2595,212.245L47.3642,212.724L47.4699,213.203L47.5766,213.682L47.6843,214.162L47.7931,214.642L47.903,215.122L48.0138,215.603L48.1257,216.083L48.2386,216.564L48.3525,217.046L48.4675,217.527L48.5835,218.009L48.7006,218.491L48.8186,218.974L48.9377,219.456L49.0579,219.939L49.179,220.422L49.3012,220.906L49.4244,221.39L49.5487,221.874L49.674,222.358L49.8003,222.842L49.9277,223.327L50.056,223.812L50.1855,224.297L50.3159,224.783L50.4474,225.269L50.5799,225.755L50.7134,226.241L50.848,226.728L50.9836,227.214L51.1202,227.701L51.2579,228.188L51.3966,228.676L51.5363,229.164L51.677,229.651L51.8188,230.14L51.9616,230.628L52.1055,231.116L52.2504,231.605L52.3963,232.094L52.5432,232.584L52.6912,233.073L52.8402,233.563L52.9902,234.053L53.1413,234.543L53.2934,235.033L53.4465,235.523L53.6007,236.014L53.7559,236.505L53.9121,236.996L54.0694,237.488L54.2277,237.979L54.387,238.471L54.5473,238.963L54.7087,239.455L54.8711,239.947L55.0345,240.439L55.199,240.932L55.3645,241.425L55.5311,241.918L55.6986,242.411L55.8672,242.905L56.0368,243.398L56.2075,243.892L56.3792,244.386L56.5519,244.88L56.7257,245.374L56.9005,245.868L57.0763,246.363L57.2531,246.858L57.431,247.353L57.6099,247.848L57.7898,248.343L57.9708,248.838L58.1528,249.334L58.3358,249.829L58.5199,250.325L58.705,250.821L58.8911,251.317L59.0783,251.814L59.2665,252.31L59.4557,252.807L59.646,253.303L59.8372,253.8L60.0295,254.297L60.2229,254.794L60.4173,255.291L60.6127,255.789L60.8091,256.286L61.0066,256.784L61.2051,257.281L61.4046,257.779L61.6052,258.277L61.8068,258.775L62.0094,259.273L62.2131,259.772L62.4177,260.27L62.6235,260.769L62.8302,261.267L63.038,261.766L63.2468,262.265L63.4567,262.764L63.6675,263.263L63.8794,263.762L64.0924,264.261L64.3063,264.76L64.5213,265.26L64.7374,265.759L64.9544,266.259L65.1725,266.758L65.3917,267.258L65.6118,267.758L65.833,268.258L66.0552,268.758L66.2785,269.258L66.5027,269.758L66.7281,270.258L66.9544,270.759L67.1818,271.259L67.4102,271.759L67.6396,272.26L67.8701,272.76L68.1016,273.261L68.3341,273.762L68.5677,274.262L68.8023,274.763L69.0379,275.264L69.2745,275.765L69.5122,276.266L69.7509,276.767L69.9907,277.268L70.2315,277.769L70.4733,278.27L70.7161,278.771L70.96,279.272L71.2049,279.774L71.4508,280.275L71.6978,280.776L71.9458,281.278L72.1948,281.779L72.4449,282.28L72.696,282.782L72.9481,283.283L73.2012,283.785L73.4554,284.286L73.7106,284.788L73.9669,285.289L74.2242,285.791L74.4825,286.292L74.7418,286.794L75.0022,287.295L75.2636,287.797L75.526,288.298L75.7895,288.8L75.9748,289.176L76.1613,289.552L76.3489,289.929L76.5377,290.305L76.7275,290.681L76.9185,291.057L77.1106,291.433L77.3038,291.809L77.4982,292.185L77.6936,292.562L77.8901,292.938L78.0878,293.314L78.2865,293.69L78.4864,294.066L78.6873,294.442L78.8893,294.818L79.0925,295.194L79.2967,295.57L79.502,295.946L79.7083,296.322L79.9158,296.698L80.1243,297.074L80.3339,297.45L80.5446,297.826L80.7563,298.202L80.9691,298.578L81.1829,298.954L81.3978,299.329L81.6138,299.705L81.8308,300.081L82.0489,300.457L82.268,300.832L82.4882,301.208L82.7094,301.584L82.9316,301.959L83.1549,302.335L83.3792,302.71L83.6046,303.086L83.8309,303.461L84.0583,303.837L84.2867,304.212L84.5162,304.587L84.7466,304.963L84.9781,305.338L85.2105,305.713L85.444,306.088L85.6785,306.464L85.914,306.839L86.1505,307.214L86.388,307.589L86.6264,307.964L86.8659,308.339L87.1063,308.713L87.3478,309.088L87.5902,309.463L87.8336,309.838L88.078,310.212L88.3233,310.587L88.5696,310.961L88.8169,311.336L89.0652,311.71L89.3144,312.085L89.5646,312.459L89.8157,312.833L90.0678,313.207L90.3208,313.582L90.5748,313.956L90.8297,314.33L91.0856,314.703L91.3424,315.077L91.6001,315.451L91.8588,315.825L92.1184,316.199L92.379,316.572L92.6404,316.946L92.9028,317.319L93.1661,317.692L93.4304,318.066L93.6955,318.439L93.9616,318.812L94.2285,319.185L94.4964,319.558L94.7651,319.931L95.0348,320.304L95.3054,320.677L95.5768,321.049L95.8492,321.422L96.1224,321.794L96.3966,322.167L96.6716,322.539L96.9475,322.911L97.2242,323.284L97.5019,323.656L97.7804,324.028L98.3401,324.771L98.9031,325.515L99.4697,326.258L100.04,327L100.613,327.743L101.19,328.484L101.77,329.226L102.353,329.967L102.94,330.707L103.53,331.447L104.123,332.187L104.719,332.926L105.319,333.665L105.922,334.403L106.527,335.141L107.137,335.879L107.749,336.616L108.364,337.352L108.982,338.088L109.604,338.823L110.228,339.558L110.856,340.293L111.486,341.027L112.12,341.76L112.756,342.493L113.395,343.225L114.037,343.957L114.682,344.688L115.33,345.418L115.981,346.148L116.634,346.878L117.29,347.606L117.949,348.334L118.611,349.062L119.276,349.789L119.943,350.515L120.612,351.241L121.285,351.966L121.96,352.69L122.638,353.414L123.318,354.137L124.001,354.859L124.686,355.581L125.374,356.302L126.064,357.022L126.757,357.742L127.452,358.461L128.15,359.179L128.85,359.896L129.552,360.613L130.257,361.329L130.964,362.044L131.673,362.759L132.385,363.473L133.099,364.185L133.815,364.898L134.533,365.609L135.254,366.319L135.976,367.029L136.701,367.738L137.428,368.446L138.157,369.154L138.888,369.86L139.622,370.566L140.357,371.27L141.094,371.974L141.833,372.677L142.575,373.38L143.318,374.081L144.063,374.781L144.81,375.481L145.559,376.179L146.309,376.877L147.062,377.574L147.816,378.27L148.572,378.965L149.33,379.659L150.09,380.352L150.851,381.044L151.614,381.735L152.379,382.425L153.145,383.114L153.913,383.802L154.683,384.49L155.454,385.176L156.227,385.861L157.001,386.545L157.777,387.228L158.554,387.91L159.333,388.591L160.113,389.271L160.895,389.95L161.678,390.628L162.462,391.305L163.248,391.981L164.035,392.655L164.823,393.329L165.613,394.001L166.404,394.673L167.196,395.343L167.99,396.012L168.784,396.68L169.58,397.347L170.377,398.012L171.175,398.677L171.974,399.34L172.775,400.002L173.576,400.663L174.378,401.323L175.182,401.982L175.986,402.639L176.792,403.295L177.598,403.95L178.405,404.604L179.213,405.257L180.022,405.908L180.832,406.558L181.643,407.207L182.454,407.854L183.267,408.501L184.08,409.146L184.894,409.789L185.708,410.432L186.524,411.073L187.34,411.713L188.156,412.351L188.974,412.988L189.791,413.624L190.61,414.259L191.429,414.892L192.248,415.523L193.069,416.154L193.889,416.783L194.71,417.411L195.532,418.037L196.354,418.662L197.176,419.285L197.999,419.907L198.822,420.528L199.645,421.147L200.469,421.765L201.293,422.381L202.118,422.996L202.942,423.61L203.767,424.222L204.592,424.832L205.417,425.441L206.243,426.049L207.068,426.655L207.894,427.26L208.72,427.863L209.545,428.464L210.371,429.064L211.197,429.663L212.023,430.26L212.849,430.855L213.675,431.449L214.5,432.042L215.326,432.632L216.152,433.221L216.977,433.809L217.802,434.395L218.627,434.979L219.452,435.562L220.277,436.143L221.101,436.723L221.926,437.301L222.749,437.877L223.573,438.452L224.396,439.025L225.219,439.596L226.042,440.166L226.864,440.734L227.685,441.3L228.507,441.865L229.327,442.427L230.148,442.989L230.967,443.548L231.786,444.106L232.605,444.662L233.423,445.216L234.241,445.769L235.057,446.32L235.874,446.869L236.689,447.416L237.504,447.961L238.318,448.505L239.131,449.047L239.944,449.587L240.756,450.125L241.567,450.662L242.377,451.197L243.186,451.729L243.994,452.26L244.802,452.79L245.608,453.317L246.414,453.842L247.219,454.366L248.022,454.888L248.825,455.408L249.627,455.925L250.427,456.441L251.227,456.956L252.025,457.468L252.823,457.978L253.619,458.487L254.414,458.993L255.207,459.497L256,460ZM256,509.336L232.877,494.675L232.045,494.146L231.213,493.616L230.379,493.084L229.545,492.55L228.709,492.013L227.872,491.475L227.034,490.935L226.195,490.393L225.354,489.848L224.513,489.302L223.671,488.754L222.827,488.204L221.983,487.653L221.138,487.098L220.291,486.543L219.445,485.985L218.596,485.425L217.747,484.863L216.897,484.3L216.047,483.734L215.195,483.167L214.343,482.598L213.49,482.027L212.636,481.454L211.781,480.878L210.926,480.302L210.07,479.723L209.213,479.143L208.356,478.561L207.498,477.976L206.639,477.39L205.78,476.802L204.92,476.213L204.06,475.621L203.199,475.028L202.337,474.433L201.475,473.836L200.613,473.237L199.75,472.636L198.887,472.034L198.024,471.43L197.159,470.824L196.295,470.216L195.43,469.607L194.565,468.996L193.699,468.382L192.834,467.768L191.968,467.152L191.102,466.533L190.235,465.913L189.368,465.292L188.502,464.668L187.634,464.043L186.767,463.416L185.9,462.788L185.033,462.158L184.165,461.526L183.298,460.892L182.431,460.257L181.563,459.62L180.695,458.982L179.827,458.341L178.96,457.699L178.093,457.056L177.226,456.41L176.358,455.763L175.491,455.115L174.624,454.465L173.758,453.813L172.891,453.16L172.025,452.505L171.159,451.848L170.293,451.19L169.427,450.53L168.562,449.868L167.697,449.205L166.833,448.541L165.968,447.874L165.104,447.206L164.241,446.537L163.378,445.866L162.515,445.194L161.653,444.52L160.791,443.844L159.93,443.167L159.069,442.488L158.209,441.808L157.35,441.126L156.491,440.443L155.632,439.758L154.774,439.071L153.917,438.383L153.061,437.694L152.205,437.003L151.351,436.311L150.496,435.617L149.643,434.921L148.79,434.224L147.938,433.526L147.087,432.826L146.237,432.125L145.387,431.422L144.539,430.718L143.691,430.012L142.844,429.305L141.999,428.596L141.153,427.885L140.31,427.174L139.467,426.461L138.625,425.746L137.785,425.031L136.945,424.313L136.106,423.594L135.268,422.874L134.432,422.153L133.597,421.429L132.763,420.705L131.93,419.979L131.098,419.252L130.268,418.523L129.439,417.793L128.611,417.061L127.784,416.328L126.959,415.594L126.135,414.858L125.312,414.121L124.491,413.382L123.671,412.642L122.852,411.901L122.035,411.158L121.219,410.414L120.405,409.669L119.593,408.922L118.782,408.174L117.972,407.424L117.164,406.673L116.358,405.921L115.553,405.167L114.75,404.412L113.948,403.656L113.148,402.898L112.35,402.139L111.554,401.378L110.759,400.617L109.966,399.854L109.175,399.089L108.386,398.323L107.597,397.556L106.812,396.787L106.028,396.018L105.246,395.246L104.465,394.473L103.687,393.7L102.911,392.924L102.136,392.148L101.364,391.369L100.593,390.59L99.825,389.809L99.0588,389.028L98.2944,388.244L97.5319,387.459L96.7718,386.673L96.0139,385.886L95.2579,385.097L94.5042,384.307L93.7527,383.516L93.0035,382.723L92.2564,381.929L91.5113,381.133L90.7686,380.336L90.0284,379.538L89.2908,378.739L88.5549,377.938L87.8212,377.135L87.0904,376.332L86.3621,375.527L85.6359,374.72L84.9122,373.913L84.191,373.103L83.4725,372.293L82.7562,371.481L82.0421,370.668L81.3313,369.853L80.6228,369.037L79.9166,368.22L79.2135,367.401L78.5126,366.581L77.8144,365.759L77.1191,364.937L76.4264,364.112L75.7366,363.286L75.0493,362.459L74.3647,361.63L73.683,360.8L73.0043,359.969L72.3286,359.136L71.6555,358.302L70.9849,357.466L70.3174,356.628L69.6533,355.79L68.992,354.95L68.3335,354.108L67.6781,353.265L67.0256,352.421L66.3761,351.574L65.7298,350.727L65.0869,349.878L64.4567,349.041L64.1277,348.601L63.81,348.175L63.4927,347.749L63.176,347.321L62.8602,346.894L62.5456,346.466L62.2317,346.039L61.9182,345.61L61.6055,345.18L61.294,344.751L60.9839,344.322L60.6734,343.892L60.3639,343.461L60.0562,343.031L59.7484,342.599L59.4418,342.167L59.1359,341.735L58.8308,341.303L58.5271,340.87L58.2235,340.437L57.9209,340.003L57.6197,339.569L57.3188,339.135L57.019,338.7L56.7202,338.265L56.4217,337.829L56.1244,337.392L55.8283,336.956L55.5324,336.519L55.2378,336.081L54.9445,335.644L54.6517,335.206L54.3595,334.767L54.0683,334.328L53.7782,333.889L53.4893,333.45L53.2006,333.009L52.913,332.568L52.6268,332.127L52.3414,331.686L52.0568,331.244L51.7727,330.801L51.4896,330.358L51.2077,329.915L50.9272,329.472L50.6473,329.028L50.3678,328.583L50.0895,328.138L49.8128,327.693L49.5366,327.247L49.2611,326.8L48.987,326.354L48.7136,325.907L48.441,325.459L48.1698,325.011L47.8996,324.563L47.6298,324.113L47.3613,323.664L47.0942,323.215L46.8278,322.764L46.5621,322.313L46.2976,321.862L46.0341,321.41L45.7722,320.959L45.5106,320.506L45.2497,320.052L44.9907,319.599L44.7326,319.145L44.4751,318.691L44.2187,318.235L43.9636,317.78L43.7093,317.324L43.4562,316.868L43.2041,316.411L42.953,315.953L42.7036,315.496L42.4543,315.037L42.2063,314.578L41.9601,314.12L41.714,313.66L41.4693,313.199L41.2263,312.739L40.9838,312.278L40.7423,311.816L40.5024,311.354L40.2632,310.891L40.0254,310.428L39.7888,309.965L39.5527,309.5L39.318,309.035L39.0847,308.57L38.8527,308.104L38.6212,307.637L38.6516,307.699L38.6233,307.645L38.3296,307.084L38.0372,306.523L37.746,305.962L37.4555,305.4L37.1665,304.839L36.8785,304.278L36.5913,303.716L36.3057,303.154L36.0209,302.593L35.7372,302.03L35.4548,301.469L35.1733,300.907L34.8931,300.345L34.6139,299.783L34.3355,299.22L34.0589,298.659L33.783,298.096L33.5079,297.533L33.2344,296.971L32.9619,296.409L32.6904,295.846L32.4201,295.284L32.1509,294.721L31.8828,294.158L31.6157,293.595L31.3498,293.033L31.0848,292.469L30.8213,291.907L30.5586,291.344L30.297,290.78L30.0369,290.218L29.7776,289.655L29.5194,289.091L29.2625,288.529L29.0065,287.965L28.7515,287.402L28.4979,286.839L28.2452,286.275L27.9938,285.712L27.7434,285.149L27.4943,284.586L27.2461,284.022L26.9988,283.458L26.7528,282.894L26.5081,282.331L26.2644,281.768L26.0218,281.204L25.7804,280.641L25.5398,280.077L25.3005,279.513L25.0624,278.95L24.8254,278.386L24.5896,277.823L24.3546,277.259L24.1209,276.695L23.8885,276.132L23.6569,275.568L23.4263,275.004L23.1972,274.441L22.9691,273.877L22.7421,273.314L22.5162,272.75L22.2913,272.186L22.0677,271.623L21.8451,271.059L21.6236,270.495L21.4034,269.932L21.1841,269.368L20.9659,268.804L20.7489,268.241L20.5331,267.677L20.3185,267.114L20.1048,266.551L19.8922,265.987L19.6809,265.424L19.4707,264.86L19.2615,264.297L19.0534,263.733L18.8465,263.17L18.6407,262.607L18.436,262.043L18.2324,261.48L18.03,260.917L17.8287,260.354L17.6286,259.791L17.4294,259.228L17.2315,258.664L17.0347,258.102L16.839,257.539L16.6443,256.975L16.4509,256.412L16.2586,255.85L16.0675,255.287L15.8773,254.724L15.6883,254.161L15.5005,253.599L15.3138,253.037L15.1282,252.474L14.9437,251.911L14.7605,251.349L14.5783,250.787L14.3971,250.224L14.2172,249.662L14.0384,249.1L13.8606,248.538L13.6841,247.976L13.5087,247.414L13.3344,246.852L13.1612,246.29L12.9892,245.729L12.8183,245.167L12.6484,244.605L12.4799,244.044L12.3123,243.482L12.1459,242.921L11.9807,242.36L11.8165,241.798L11.6536,241.237L11.4917,240.676L11.331,240.115L11.1715,239.555L11.013,238.994L10.8557,238.433L10.6995,237.873L10.5445,237.312L10.3906,236.752L10.2378,236.191L10.0862,235.631L9.93576,235.071L9.78642,234.511L9.63821,233.951L9.49117,233.392L9.34527,232.832L9.20053,232.273L9.05684,231.713L8.91434,231.153L8.77304,230.594L8.63284,230.035L8.49377,229.476L8.35584,228.917L8.21912,228.359L8.08353,227.8L7.94902,227.241L7.81567,226.683L7.6835,226.124L7.55251,225.566L7.42266,225.008L7.29388,224.45L7.16634,223.893L7.03991,223.335L6.9146,222.777L6.79052,222.22L6.66756,221.663L6.54575,221.105L6.42507,220.548L6.30555,219.991L6.18721,219.435L6.07002,218.878L5.95401,218.322L5.83911,217.765L5.7254,217.209L5.61286,216.653L5.50146,216.097L5.39123,215.541L5.28215,214.986L5.17421,214.43L5.06745,213.875L4.9619,213.32L4.85748,212.765L4.75422,212.21L4.65211,211.655L4.55117,211.101L4.45142,210.546L4.35282,209.992L4.25541,209.438L4.15917,208.884L4.06409,208.331L3.97016,207.777L3.87743,207.223L3.78586,206.67L3.69544,206.117L3.60624,205.564L3.51823,205.012L3.43135,204.459L3.34565,203.906L3.26116,203.354L3.17781,202.802L3.09565,202.25L3.0147,201.699L2.9349,201.147L2.85629,200.596L2.77888,200.045L2.70262,199.494L2.62756,198.943L2.55371,198.392L2.48104,197.842L2.40954,197.292L2.33923,196.742L2.27011,196.192L2.20218,195.642L2.13547,195.093L2.06994,194.544L2.00558,193.995L1.94243,193.446L1.8805,192.897L1.81973,192.349L1.76017,191.801L1.70182,191.253L1.64466,190.705L1.5887,190.157L1.53395,189.61L1.48039,189.062L1.42804,188.515L1.37691,187.969L1.32699,187.422L1.27826,186.876L1.23074,186.33L1.18443,185.784L1.13934,185.238L1.09546,184.693L1.05278,184.147L1.01134,183.602L0.971099,183.057L0.932086,182.513L0.89428,181.968L0.857694,181.424L0.822341,180.88L0.7882,180.337L0.755284,179.793L0.723599,179.25L0.693131,178.707L0.663904,178.164L0.635888,177.622L0.609111,177.08L0.583567,176.538L0.559251,175.996L0.536168,175.454L0.51433,174.913L0.493715,174.372L0.474346,173.831L0.456217,173.291L0.439326,172.75L0.423681,172.21L0.409273,171.671L0.396113,171.131L0.384202,170.592L0.373533,170.053L0.364117,169.514L0.355954,168.975L0.349038,168.437L0.343381,167.899L0.338971,167.362L0.335827,166.824L0.333934,166.287L0.333305,165.75L0.333935,165.213L0.33583,164.677L0.338985,164.141L0.343413,163.605L0.349101,163.07L0.356064,162.534L0.364292,161.999L0.373795,161.465L0.384575,160.93L0.396625,160.396L0.409955,159.862L0.424567,159.329L0.440453,158.796L0.457625,158.262L0.476078,157.73L0.495816,157.197L0.51685,156.665L0.53916,156.134L0.562771,155.602L0.587674,155.071L0.613866,154.54L0.641355,154.009L0.670149,153.479L0.70023,152.949L0.731625,152.42L0.764308,151.89L0.798305,151.361L0.833615,150.833L0.870221,150.304L0.908149,149.776L0.947392,149.248L0.987933,148.721L1.0298,148.194L1.07297,147.667L1.11748,147.141L1.16332,146.614L1.21046,146.089L1.25893,145.563L1.30874,145.038L1.35989,144.513L1.41234,143.989L1.46612,143.465L1.52127,142.941L1.57775,142.418L1.63554,141.895L1.6947,141.372L1.75521,140.849L1.81703,140.328L1.88022,139.806L1.94479,139.284L2.01066,138.764L2.07791,138.243L2.14653,137.723L2.21647,137.203L2.28777,136.684L2.36046,136.165L2.43453,135.646L2.50996,135.127L2.58674,134.609L2.66487,134.092L2.74439,133.575L2.82529,133.058L2.90759,132.541L2.99123,132.025L3.07627,131.51L3.16274,130.994L3.25054,130.479L3.33972,129.965L3.43032,129.451L3.52229,128.937L3.61569,128.424L3.71048,127.911L3.80665,127.399L3.90422,126.887L4.00319,126.375L4.1036,125.864L4.20543,125.353L4.30864,124.843L4.41325,124.333L4.51929,123.823L4.62675,123.314L4.73563,122.806L4.84591,122.297L4.95769,121.79L5.07085,121.282L5.18542,120.775L5.30142,120.269L5.41884,119.763L5.53777,119.258L5.65814,118.752L5.77991,118.248L5.90309,117.744L6.02778,117.24L6.15386,116.737L6.28144,116.234L6.41047,115.732L6.54091,115.23L6.67288,114.729L6.80622,114.228L6.94109,113.728L7.07743,113.228L7.21526,112.728L7.35449,112.23L7.49518,111.731L7.63744,111.233L7.78108,110.736L7.92624,110.239L8.07296,109.743L8.22106,109.247L8.37067,108.752L8.52177,108.257L8.67437,107.763L8.8285,107.269L8.98404,106.776L9.14109,106.284L9.29973,105.792L9.45981,105.3L9.62146,104.809L9.78454,104.319L9.94916,103.829L10.1153,103.339L10.2829,102.851L10.4521,102.363L10.6227,101.875L10.795,101.388L10.9688,100.902L11.1439,100.416L11.3207,99.9309L11.499,99.4461L11.679,98.9618L11.8603,98.4786L12.0432,97.9958L12.2277,97.5135L12.4137,97.0319L12.6013,96.5509L12.7904,96.0705L12.981,95.5909L13.1732,95.1118L13.3669,94.6333L13.5622,94.1557L13.759,93.6786L13.9575,93.2019L14.1575,92.726L14.359,92.251L14.5621,91.7764L14.7668,91.3025L14.9731,90.8293L15.1809,90.3568L15.3902,89.8852L15.6011,89.4141L15.8138,88.9435L16.0279,88.4738L16.2436,88.0049L16.4609,87.5364L16.6797,87.0689L16.9001,86.6022L17.1222,86.136L17.3458,85.6706L17.571,85.2061L17.7979,84.742L18.0263,84.2787L18.2563,83.8163L18.4878,83.3549L18.721,82.8941L18.9559,82.4337L19.1923,81.9744L19.4303,81.5159L19.6699,81.0581L19.9111,80.6011L20.154,80.1449L20.3984,79.6896L20.6444,79.235L20.8921,78.7812L21.1414,78.3283L21.3923,77.8761L21.6447,77.425L21.8987,76.9746L22.1547,76.5247L22.4119,76.0761L22.6709,75.6282L22.9315,75.1812L23.1936,74.7351L23.4576,74.2896L23.723,73.8454L23.9899,73.4021L24.2587,72.9593L24.5292,72.5174L24.801,72.0768L25.0746,71.6367L25.3498,71.1978L25.6267,70.7597L25.9051,70.3227L26.1852,69.8865L26.467,69.4511L26.7502,69.0171L27.0353,68.5836L27.3219,68.1511L27.6101,67.7197L27.8999,67.2894L28.1914,66.86L28.4846,66.4315L28.7793,66.004L29.0756,65.5777L29.3737,65.1521L29.6734,64.7276L29.9745,64.3045L30.2775,63.882L30.5821,63.4605L30.8882,63.0403L31.1961,62.6209L31.5052,62.2031L31.8161,61.7862L32.1293,61.3694L32.4436,60.9545L32.7592,60.5409L33.0766,60.1283L33.3957,59.7167L33.7167,59.3058L34.039,58.8964L34.3633,58.4878L34.6888,58.0806L35.0159,57.6747L35.3449,57.2696L35.6753,56.866L36.0073,56.4634L36.341,56.0619L36.6762,55.6616L37.0134,55.2622L37.352,54.8641L37.692,54.4675L38.0337,54.072L38.3768,53.6778L38.7217,53.2847L39.0685,52.8925L39.4167,52.5016L39.7663,52.1123L40.1175,51.7242L40.4707,51.3369L40.8251,50.9512L41.181,50.5669L41.5387,50.1835L41.898,49.8015L42.2588,49.4209L42.6212,49.0415L42.985,48.6634L43.3506,48.2866L43.7176,47.9112L44.0863,47.537L44.4567,47.164L44.8283,46.7926L45.2017,46.4223L45.5766,46.0534L45.953,45.686L46.331,45.3198L46.7107,44.9549L47.0918,44.5914L47.4741,44.2297L47.858,43.8692L48.244,43.5095L48.6313,43.1516L49.0195,42.7955L49.4099,42.4403L49.8016,42.0867L50.1946,41.7347L50.5894,41.3838L50.9858,41.0343L51.3835,40.6864L51.7823,40.3403L52.1832,39.9952L52.5856,39.6515L52.9891,39.3096L53.3944,38.9689L53.8009,38.6299L54.209,38.2923L54.6186,37.9562L55.03,37.6213L55.4426,37.2882L55.8563,36.9568L56.2721,36.6265L56.689,36.2979L57.1075,35.9708L57.5277,35.6451L57.9491,35.3212L58.372,34.9987L58.796,34.678L59.2219,34.3586L59.6497,34.0405L60.0781,33.7245L60.508,33.41L60.9399,33.0968L61.3731,32.7853L61.8076,32.4755L62.2438,32.1671L62.6813,31.8605L63.1199,31.5557L63.5603,31.2522L64.0023,30.9503L64.4455,30.6502L64.8902,30.3517L65.336,30.0551L65.7836,29.76L66.2326,29.4665L66.6829,29.1748L67.135,28.8845L67.5882,28.5962L68.0428,28.3095L68.4989,28.0245L68.9563,27.7414L69.4151,27.4599L69.8757,27.18L70.3374,26.902L70.8005,26.6257L71.2651,26.3512L71.7309,26.0786L72.1985,25.8075L72.6672,25.5384L73.1371,25.2712L73.6088,25.0055L74.0817,24.7418L74.5559,24.48L75.0318,24.2198L75.509,23.9615L75.9874,23.7052L76.4672,23.4507L76.9485,23.198L77.4311,22.9473L77.9149,22.6985L78.4003,22.4514L78.8871,22.2063L79.3751,21.9632L79.8645,21.722L80.3553,21.4827L80.8475,21.2454L81.341,21.0099L81.8357,20.7766L82.3318,20.5452L82.8293,20.3157L83.3281,20.0883L83.8283,19.8628L84.3298,19.6394L84.8327,19.4179L85.3368,19.1986L85.8422,18.9813L86.3489,18.7661L86.857,18.5529L87.3664,18.3417L87.8771,18.1327L88.389,17.9258L88.9022,17.721L89.4167,17.5184L89.9325,17.3178L90.4495,17.1195L90.9679,16.9232L91.4878,16.729L92.0086,16.5371L92.5306,16.3475L93.054,16.16L93.5788,15.9746L94.1046,15.7915L94.6318,15.6106L95.1601,15.432L95.6896,15.2557L96.2204,15.0816L96.7525,14.9098L97.2859,14.7402L97.8201,14.573L98.3557,14.4081L98.8926,14.2455L99.4305,14.0852L99.9699,13.9273L100.51,13.7717L101.052,13.6186L101.594,13.4677L102.138,13.3193L102.683,13.1734L103.229,13.0297L103.776,12.8885L104.325,12.7498L104.874,12.6135L105.425,12.4797L105.976,12.3483L106.529,12.2195L107.083,12.0931L107.638,11.9692L108.194,11.8479L108.751,11.7291L109.309,11.6128L109.868,11.4991L110.428,11.388L110.99,11.2794L111.552,11.1734L112.115,11.0701L112.679,10.9693L113.244,10.8712L113.811,10.7757L114.378,10.6828L114.946,10.5926L115.515,10.5051L116.085,10.4203L116.656,10.3382L117.228,10.2587L117.801,10.182L118.374,10.108L118.949,10.0367L119.524,9.96826L120.1,9.90248L120.678,9.83951L121.256,9.77934L121.834,9.72195L122.414,9.66737L122.994,9.61559L123.576,9.56663L124.157,9.52054L124.74,9.47727L125.324,9.43687L125.908,9.39933L126.493,9.36468L127.079,9.33292L127.665,9.30406L128.252,9.27809L128.84,9.25505L129.429,9.23495L130.018,9.21778L130.607,9.20356L131.198,9.1923L131.789,9.18401L132.38,9.17869L132.973,9.17636L133.566,9.17703L134.159,9.1807L134.753,9.18739L135.347,9.19709L135.942,9.20983L136.537,9.2256L137.133,9.24443L137.73,9.26631L138.326,9.29125L138.924,9.31926L139.521,9.35036L140.12,9.38455L140.718,9.42184L141.317,9.4622L141.916,9.5057L142.516,9.55231L143.115,9.60203L143.716,9.65489L144.316,9.7109L144.917,9.77004L145.518,9.83232L146.12,9.89778L146.721,9.96639L147.323,10.0382L147.925,10.1131L148.527,10.1913L149.129,10.2725L149.732,10.3571L150.335,10.4448L150.937,10.5357L151.541,10.6298L152.143,10.7271L152.747,10.8276L153.35,10.9314L153.953,11.0383L154.556,11.1485L155.159,11.2619L155.763,11.3786L156.366,11.4985L156.969,11.6216L157.572,11.748L158.175,11.8776L158.778,12.0104L159.381,12.1465L159.983,12.2859L160.586,12.4285L161.188,12.5744L161.79,12.7235L162.392,12.8758L162.994,13.0315L163.596,13.1904L164.197,13.3525L164.798,13.518L165.399,13.6867L166,13.8585L166.6,14.0338L167.2,14.2123L167.8,14.394L168.399,14.5791L168.998,14.7673L169.597,14.9589L170.195,15.1537L170.792,15.3517L171.39,15.553L171.987,15.7576L172.583,15.9655L173.179,16.1765L173.775,16.3909L174.37,16.6086L174.964,16.8294L175.558,17.0535L176.151,17.2809L176.744,17.5116L177.336,17.7453L177.928,17.9826L178.519,18.2229L179.11,18.4663L179.7,18.7132L180.289,18.9633L180.877,19.2165L181.465,19.4731L182.053,19.7328L182.639,19.9957L183.225,20.2619L183.81,20.5313L184.394,20.8038L184.978,21.0795L185.561,21.3586L186.143,21.6407L186.724,21.9262L187.305,22.2148L187.884,22.5064L188.464,22.8014L189.041,23.0995L189.619,23.4008L190.196,23.7054L190.771,24.0129L191.345,24.3236L191.919,24.6376L192.492,24.9547L193.064,25.2749L193.635,25.5982L194.206,25.9248L194.775,26.2544L195.343,26.5873L195.911,26.923L196.477,27.262L197.043,27.6043L197.607,27.9493L198.171,28.2978L198.733,28.6492L199.295,29.0036L199.856,29.3616L200.415,29.7221L200.973,30.0857L201.531,30.4527L202.087,30.8227L202.643,31.1957L203.197,31.5718L203.75,31.9507L204.302,32.3329L204.854,32.7182L205.404,33.1064L205.953,33.4978L206.5,33.8919L207.047,34.2893L207.593,34.6896L208.137,35.0931L208.681,35.4997L209.223,35.9089L209.764,36.3212L210.304,36.7365L210.844,37.1553L211.382,37.5767L211.918,38.001L212.453,38.4282L212.988,38.8585L213.521,39.2918L214.053,39.7282L214.584,40.1677L215.114,40.6097L215.642,41.0547L216.17,41.503L216.696,41.9541L217.221,42.4081L217.745,42.8651L218.267,43.325L218.789,43.7879L219.309,44.2538L219.828,44.7225L220.346,45.1941L220.862,45.6686L221.377,46.1459L221.892,46.6265L222.405,47.1098L222.917,47.596L223.427,48.0851L223.936,48.5772L224.445,49.0723L224.951,49.5698L225.457,50.0707L225.962,50.5745L226.465,51.0809L226.967,51.5905L227.468,52.1029L227.967,52.6177L228.465,53.136L228.962,53.6571L229.458,54.1809L229.953,54.7076L230.446,55.2371L230.938,55.7697L231.429,56.3054L231.919,56.8435L232.407,57.3843L232.894,57.9283L233.381,58.4755L233.865,59.0255L234.349,59.5777L234.831,60.1331L235.312,60.6915L235.792,61.2529L236.27,61.8169L236.747,62.3837L237.223,62.9535L237.698,63.5264L238.172,64.1023L238.644,64.6804L239.115,65.2613L239.585,65.8455L240.053,66.4328L240.521,67.0229L240.987,67.6155L241.451,68.2109L241.915,68.8096L242.378,69.411L242.839,70.0151L243.299,70.6226L243.757,71.2323L244.215,71.845L244.671,72.4608L245.126,73.0794L245.58,73.7011L246.032,74.3254L246.483,74.9524L246.933,75.5828L247.382,76.2159L247.83,76.8514L248.276,77.4903L248.721,78.1323L249.165,78.7766L249.607,79.4239L250.049,80.0746L250.489,80.7277L250.928,81.3834L251.366,82.0427L251.802,82.7047L252.238,83.3696L252.672,84.0374L253.104,84.708L253.536,85.3815L253.966,86.058L254.395,86.7375L254.823,87.4196L255.25,88.1051L255.676,88.7934L256,89.3218L256.325,88.7931L256.75,88.1051L257.177,87.42L257.605,86.7375L258.033,86.0584L258.464,85.3815L258.896,84.708L259.329,84.0371L259.763,83.369L260.198,82.7051L260.634,82.0431L261.072,81.3838L261.511,80.7273L261.951,80.0743L262.392,79.4245L262.835,78.7762L263.279,78.1319L263.724,77.491L264.17,76.8514L264.618,76.2152L265.067,75.5825L265.517,74.9524L265.968,74.3257L266.42,73.7011L266.874,73.0791L267.329,72.4612L267.785,71.8453L268.243,71.232L268.701,70.6223L269.161,70.0151L269.622,69.4113L270.085,68.8096L270.549,68.2105L271.013,67.6155L271.479,67.0232L271.947,66.4328L272.415,65.8459L272.885,65.2617L273.356,64.6801L273.828,64.102L274.302,63.5264L274.777,62.9535L275.253,62.3841L275.73,61.8173L276.209,61.2526L276.689,60.6912L277.169,60.1331L277.651,59.5777L278.135,59.0252L278.619,58.4759L279.105,57.9286L279.593,57.3839L280.081,56.8435L280.57,56.3057L281.062,55.7697L281.554,55.2368L282.047,54.7076L282.541,54.1812L283.038,53.6571L283.535,53.136L284.033,52.6177L284.532,52.1029L285.033,51.5902L285.536,51.0806L286.038,50.5745L286.543,50.0707L287.049,49.5698L287.555,49.0726L288.063,48.5775L288.573,48.0851L289.083,47.596L289.595,47.1098L290.109,46.6262L290.623,46.1459L291.138,45.6686L291.655,45.1939L292.172,44.7225L292.691,44.2541L293.211,43.7882L293.733,43.3247L294.255,42.8651L294.779,42.4081L295.304,41.9541L295.83,41.503L296.358,41.0545L296.886,40.6099L297.416,40.1677L297.947,39.7282L298.479,39.292L299.013,38.8583L299.547,38.428L300.082,38.001L300.618,37.5767L301.156,37.1553L301.695,36.7368L302.236,36.3212L302.777,35.9089L303.319,35.4995L303.863,35.0928L304.407,34.6898L304.953,34.2896L305.499,33.8922L306.047,33.4978L306.597,33.1062L307.147,32.718L307.697,32.3331L308.25,31.9509L308.803,31.5716L309.358,31.1955L309.912,30.8229L310.469,30.4527L311.027,30.0855L311.585,29.7219L312.144,29.3616L312.705,29.004L313.267,28.6492L313.829,28.2978L314.393,27.9493L314.958,27.6039L315.523,27.2622L316.089,26.9232L316.657,26.5873L317.225,26.2546L317.795,25.9246L318.365,25.5981L318.936,25.2749L319.507,24.9549L320.081,24.6374L320.655,24.3234L321.229,24.0129L321.805,23.7054L322.381,23.4009L322.959,23.0995L323.537,22.8013L324.116,22.5064L324.695,22.215L325.276,21.926L325.857,21.6407L326.439,21.3586L327.022,21.0797L327.605,20.804L328.191,20.531L328.776,20.2617L329.361,19.9957L329.947,19.7329L330.535,19.4731L331.123,19.2164L331.711,18.9633L332.3,18.7133L332.89,18.4663L333.481,18.2228L334.071,17.9827L334.663,17.7454L335.256,17.5116L335.849,17.2809L336.442,17.0535L337.036,16.8293L337.631,16.6085L338.225,16.391L338.821,16.1766L339.417,15.9654L340.014,15.7576L340.61,15.5531L341.208,15.3517L341.806,15.1536L342.403,14.9589L343.002,14.7674L343.601,14.5791L344.2,14.394L344.8,14.2123L345.4,14.0338L346,13.8586L346.6,13.6867L347.202,13.5179L347.803,13.3525L348.404,13.1905L349.006,13.0314L349.608,12.8758L350.209,12.7235L350.812,12.5743L351.414,12.4285L352.017,12.2859L352.619,12.1465L353.222,12.0104L353.825,11.8775L354.428,11.748L355.031,11.6216L355.634,11.4985L356.238,11.3786L356.841,11.2619L357.444,11.1485L358.047,11.0383L358.65,10.9314L359.254,10.8276L359.856,10.7271L360.459,10.6298L361.063,10.5356L361.666,10.4447L362.268,10.3571L362.871,10.2726L363.473,10.1913L364.075,10.1131L364.677,10.0382L365.279,9.96639L365.88,9.89778L366.482,9.83233L367.083,9.77003L367.684,9.7109L368.284,9.6549L368.885,9.60203L369.484,9.55231L370.084,9.5057L370.683,9.46219L371.282,9.42183L371.88,9.38455L372.479,9.35036L373.076,9.31926L373.674,9.29126L374.27,9.26631L374.867,9.24443L375.463,9.2256L376.058,9.20983L376.653,9.19709L377.247,9.18739L377.841,9.1807L378.434,9.17703L379.027,9.17636L379.62,9.17869L380.211,9.18401L380.802,9.1923L381.393,9.20356L381.982,9.21778L382.572,9.23495L383.16,9.25505L383.748,9.27809L384.335,9.30406L384.921,9.33292L385.507,9.36468L386.092,9.39933L386.676,9.43687L387.26,9.47728L387.843,9.52053L388.424,9.56662L389.006,9.61558L389.586,9.66737L390.166,9.72195L390.745,9.77935L391.322,9.83951L391.899,9.90247L392.476,9.96826L393.051,10.0367L393.626,10.108L394.2,10.182L394.772,10.2587L395.344,10.3382L395.915,10.4203L396.485,10.5051L397.054,10.5926L397.622,10.6828L398.189,10.7757L398.756,10.8712L399.321,10.9693L399.885,11.0701L400.448,11.1734L401.01,11.2794L401.572,11.388L402.132,11.4992L402.691,11.6128L403.249,11.7291L403.806,11.8478L404.362,11.9692L404.917,12.0931L405.471,12.2195L406.024,12.3484L406.575,12.4797L407.126,12.6135L407.675,12.7497L408.224,12.8885L408.771,13.0297L409.317,13.1733L409.862,13.3194L410.406,13.4677L410.948,13.6185L411.49,13.7716L412.03,13.9273L412.57,14.0853L413.108,14.2455L413.644,14.4081L414.18,14.573L414.714,14.7402L415.248,14.9098L415.78,15.0816L416.31,15.2556L416.84,15.432L417.369,15.6108L417.895,15.7914L418.421,15.9744L418.946,16.16L419.469,16.3475L419.991,16.5371L420.513,16.7291L421.032,16.9232L421.55,17.1193L422.068,17.3178L422.583,17.5184L423.098,17.7209L423.611,17.926L424.123,18.1327L424.634,18.3417L425.143,18.5529L425.651,18.7658L426.158,18.9812L426.664,19.1989L427.167,19.4179L427.67,19.6392L428.172,19.8628L428.672,20.0883L429.171,20.3157L429.668,20.5451L430.165,20.7767L430.659,21.0101L431.153,21.2454L431.645,21.4826L432.136,21.7221L432.624,21.9629L433.112,22.206L433.6,22.4517L434.085,22.6985L434.569,22.9473L435.052,23.1983L435.532,23.4504L436.012,23.705L436.491,23.9617L436.968,24.2199L437.444,24.4798L437.918,24.7417L438.391,25.0054L438.863,25.2713L439.333,25.5387L439.802,25.8075L440.269,26.0785L440.735,26.351L441.199,26.6256L441.663,26.9019L442.124,27.1799L442.585,27.4599L443.044,27.7415L443.502,28.0248L443.957,28.3096L444.412,28.596L444.865,28.8845L445.317,29.1746L445.767,29.4662L446.217,29.76L446.664,30.0551L447.11,30.3517L447.554,30.6501L447.998,30.9504L448.44,31.2524L448.88,31.5557L449.319,31.8603L449.756,32.1671L450.192,32.4755L450.627,32.7852L451.06,33.097L451.492,33.4097L451.922,33.7242L452.351,34.0408L452.778,34.3585L453.204,34.678L453.628,34.9987L454.051,35.3208L454.473,35.6453L454.893,35.971L455.311,36.2979L455.728,36.6263L456.144,36.9568L456.558,37.2884L456.97,37.6213L457.381,37.9558L457.791,38.2923L458.199,38.6299L458.606,38.9687L459.011,39.3096L459.414,39.6511L459.817,39.9948L460.218,40.3403L460.617,40.687L461.014,41.0343L461.411,41.3836L461.806,41.7349L462.198,42.0865L462.59,42.4403L462.98,42.7953L463.368,43.1512L463.756,43.5095L464.142,43.869L464.526,44.2293L464.909,44.5916L465.289,44.9547L465.668,45.319L466.047,45.6856L466.424,46.0534L466.798,46.4217L467.171,46.7915L467.543,47.1633L467.914,47.5365L468.283,47.9112L468.649,48.2862L469.014,48.6623L469.378,49.0408L469.741,49.4207L470.102,49.8008L470.461,50.183L470.819,50.5666L471.175,50.9507L471.53,51.3369L471.882,51.7232L472.233,52.1109L472.583,52.5009L472.931,52.892L473.278,53.2845L473.623,53.6771L473.967,54.0717L474.309,54.4677L474.647,54.8628L474.986,55.2612L475.324,55.6609L475.659,56.0616L475.993,56.4636L476.324,56.8647L476.655,57.2688L476.984,57.6742L477.312,58.0806L477.637,58.4872L477.96,58.8951L478.284,59.3061L478.604,59.7161L478.923,60.1272L479.241,60.5403L479.557,60.9545L479.871,61.3689L480.183,61.7845L480.495,62.2031L480.804,62.6206L481.112,63.0391L481.418,63.4599L481.723,63.8818L482.026,64.3047L482.326,64.7261L482.626,65.1511L482.925,65.5771L483.221,66.004L483.516,66.4319L483.808,66.8585L484.1,67.2885L484.39,67.7193L484.678,68.1499L484.965,68.583L485.25,69.0169L485.533,69.4503L485.815,69.8862L486.096,70.3229L486.374,70.7592L486.65,71.1966L486.926,71.636L487.2,72.0766L487.471,72.5166L487.742,72.9589L488.011,73.4021L488.277,73.8447L488.542,74.2883L488.807,74.7343L489.069,75.1809L489.329,75.6272L489.589,76.0757L489.846,76.5249L490.102,76.9738L490.356,77.4248L490.608,77.8753L490.859,78.3266L491.109,78.7813L491.356,79.2343L491.602,79.6883L491.847,80.1455L492.09,80.6009L492.33,81.0571L492.57,81.5156L492.808,81.9732L493.045,82.433L493.28,82.8939L493.513,83.3541L493.744,83.8162L493.974,84.2777L494.203,84.7415L494.43,85.2061L494.655,85.67L494.879,86.1359L495.1,86.6012L495.321,87.0686L495.54,87.5368L495.757,88.0043L495.972,88.4724L496.187,88.9426L496.4,89.4138L496.61,89.8842L496.82,90.3564L497.028,90.8295L497.234,91.3018L497.438,91.7749L497.642,92.2515L497.843,92.7256L498.043,93.2008L498.242,93.678L498.439,94.1557L498.634,94.634L498.827,95.1102L499.02,95.59L499.211,96.0702L499.399,96.5496L499.587,97.0314L499.773,97.5135L499.958,97.9964L500.141,98.4784L500.322,98.9609L500.502,99.4455L500.68,99.9309L500.857,100.415L501.032,100.9L501.206,101.387L501.378,101.875L501.549,102.363L501.718,102.85L501.886,103.34L502.052,103.83L502.216,104.317L502.379,104.808L502.541,105.3L502.701,105.79L502.86,106.283L503.017,106.776L503.173,107.27L503.327,107.763L503.479,108.256L503.63,108.751L503.78,109.247L503.928,109.742L504.075,110.239L504.22,110.737L504.364,111.233L504.506,111.73L504.647,112.229L504.786,112.728L504.924,113.227L505.06,113.728L505.195,114.227L505.328,114.728L505.46,115.23L505.591,115.731L505.72,116.234L505.847,116.736L505.973,117.24L506.098,117.744L506.221,118.247L506.343,118.753L506.463,119.257L506.582,119.762L506.7,120.268L506.816,120.775L506.931,121.283L507.044,121.79L507.155,122.297L507.265,122.805L507.374,123.314L507.482,123.822L507.588,124.332L507.693,124.843L507.796,125.352L507.898,125.864L507.998,126.374L508.097,126.886L508.195,127.399L508.291,127.911L508.386,128.424L508.479,128.937L508.571,129.451L508.662,129.966L508.751,130.479L508.838,130.993L508.925,131.509L509.01,132.025L509.094,132.541L509.176,133.058L509.257,133.575L509.336,134.091L509.414,134.608L509.491,135.127L509.567,135.646L509.641,136.165L509.714,136.683L509.785,137.202L509.855,137.722L509.923,138.243L509.991,138.765L510.057,139.284L510.121,139.805L510.184,140.327L510.246,140.85L510.307,141.373L510.366,141.895L510.424,142.417L510.48,142.941L510.535,143.465L510.589,143.989L510.641,144.512L510.693,145.038L510.742,145.563L510.791,146.089L510.838,146.614L510.884,147.14L510.928,147.667L510.972,148.194L511.014,148.722L511.054,149.248L511.093,149.775L511.131,150.304L511.168,150.833L511.203,151.362L511.237,151.89L511.27,152.419L511.301,152.949L511.331,153.48L511.36,154.009L511.388,154.54L511.414,155.072L511.439,155.602L511.462,156.133L511.485,156.665L511.506,157.198L511.525,157.729L511.544,158.263L511.561,158.795L511.577,159.329L511.591,159.863L511.605,160.396L511.617,160.931L511.628,161.464L511.637,161.999L511.645,162.535L511.652,163.069L511.658,163.604L511.662,164.141L511.666,164.677L511.667,165.213L511.668,165.75L511.667,166.287L511.666,166.824L511.662,167.362L511.658,167.9L511.652,168.437L511.645,168.975L511.637,169.514L511.628,170.053L511.617,170.591L511.605,171.131L511.592,171.67L511.578,172.21L511.562,172.751L511.545,173.29L511.527,173.832L511.508,174.372L511.487,174.913L511.465,175.455L511.442,175.996L511.418,176.537L511.392,177.079L511.365,177.622L511.338,178.164L511.308,178.707L511.278,179.251L511.246,179.793L511.213,180.336L511.179,180.88L511.144,181.425L511.107,181.969L511.069,182.513L511.03,183.057L510.99,183.602L510.949,184.148L510.906,184.694L510.862,185.238L510.817,185.783L510.771,186.33L510.723,186.876L510.674,187.423L510.624,187.969L510.573,188.515L510.521,189.063L510.467,189.61L510.413,190.157L510.357,190.704L510.3,191.252L510.241,191.801L510.182,192.35L510.121,192.897L510.059,193.445L509.996,193.995L509.931,194.544L509.866,195.094L509.799,195.643L509.731,196.191L509.662,196.742L509.592,197.292L509.52,197.843L509.448,198.393L509.374,198.943L509.299,199.494L509.222,200.045L509.145,200.596L509.066,201.148L508.986,201.7L508.906,202.251L508.824,202.802L508.74,203.354L508.656,203.907L508.57,204.459L508.483,205.012L508.395,205.564L508.306,206.117L508.215,206.671L508.124,207.223L508.031,207.777L507.937,208.33L507.842,208.885L507.746,209.439L507.648,209.992L507.55,210.547L507.45,211.101L507.349,211.655L507.247,212.21L507.144,212.765L507.039,213.321L506.934,213.876L506.827,214.431L506.719,214.986L506.61,215.542L506.5,216.097L506.388,216.653L506.276,217.21L506.162,217.765L506.047,218.322L505.931,218.878L505.814,219.435L505.695,219.992L505.576,220.549L505.455,221.106L505.334,221.663L505.211,222.22L505.086,222.778L504.961,223.335L504.835,223.892L504.707,224.45L504.578,225.009L504.449,225.566L504.318,226.125L504.185,226.684L504.052,227.241L503.918,227.799L503.782,228.359L503.645,228.918L503.507,229.477L503.368,230.036L503.228,230.595L503.086,231.155L502.944,231.712L502.801,232.272L502.656,232.832L502.51,233.391L502.363,233.952L502.214,234.512L502.065,235.072L501.915,235.632L501.763,236.191L501.61,236.752L501.456,237.313L501.301,237.873L501.146,238.433L500.988,238.994L500.829,239.555L500.67,240.116L500.509,240.677L500.347,241.238L500.184,241.8L500.021,242.359L499.855,242.921L499.689,243.483L499.521,244.045L499.352,244.605L499.183,245.166L499.011,245.73L498.84,246.291L498.667,246.852L498.492,247.414L498.317,247.977L498.14,248.538L497.962,249.101L497.783,249.663L497.604,250.225L497.423,250.787L497.24,251.349L497.057,251.912L496.873,252.474L496.687,253.037L496.5,253.599L496.313,254.162L496.123,254.725L495.933,255.287L495.742,255.851L495.55,256.413L495.356,256.976L495.162,257.539L494.966,258.102L494.769,258.665L494.571,259.228L494.372,259.79L494.172,260.355L493.971,260.917L493.768,261.48L493.564,262.045L493.36,262.607L493.154,263.17L492.947,263.734L492.739,264.297L492.53,264.861L492.32,265.425L492.108,265.987L491.896,266.551L491.682,267.115L491.467,267.678L491.252,268.241L491.035,268.805L490.816,269.369L490.597,269.932L490.377,270.496L490.155,271.06L489.933,271.623L489.709,272.186L489.484,272.75L489.258,273.314L489.032,273.877L488.803,274.441L488.574,275.005L488.344,275.569L488.112,276.133L487.879,276.697L487.646,277.259L487.411,277.823L487.175,278.387L486.938,278.951L486.7,279.515L486.461,280.077L486.22,280.641L485.979,281.205L485.736,281.769L485.492,282.332L485.248,282.894L485.001,283.46L484.754,284.023L484.506,284.586L484.257,285.149L484.006,285.713L483.755,286.276L483.503,286.838L483.248,287.403L482.994,287.966L482.738,288.529L482.481,289.092L482.223,289.656L481.963,290.219L481.704,290.78L481.442,291.344L481.179,291.908L480.915,292.47L480.65,293.034L480.385,293.595L480.118,294.159L479.849,294.722L479.58,295.284L479.31,295.847L479.038,296.409L478.765,296.973L478.492,297.534L478.217,298.096L477.941,298.659L477.665,299.22L477.386,299.783L477.107,300.346L476.827,300.907L476.545,301.47L476.263,302.032L475.979,302.593L475.695,303.154L475.409,303.716L475.121,304.278L474.833,304.84L474.544,305.401L474.254,305.962L473.963,306.523L473.67,307.085L473.377,307.646L473.348,307.699L473.379,307.638L473.147,308.105L472.916,308.569L472.682,309.035L472.447,309.5L472.211,309.965L471.975,310.428L471.737,310.891L471.498,311.354L471.258,311.815L471.017,312.277L470.774,312.739L470.531,313.199L470.286,313.66L470.04,314.121L469.794,314.579L469.546,315.037L469.297,315.496L469.047,315.953L468.796,316.411L468.544,316.868L468.291,317.324L468.037,317.78L467.781,318.235L467.525,318.691L467.267,319.146L467.009,319.599L466.75,320.052L466.49,320.506L466.228,320.958L465.966,321.41L465.703,321.861L465.438,322.313L465.172,322.765L464.906,323.215L464.639,323.664L464.37,324.113L464.1,324.563L463.83,325.011L463.56,325.458L463.287,325.906L463.013,326.355L462.739,326.801L462.464,327.247L462.187,327.694L461.911,328.138L461.633,328.582L461.353,329.029L461.073,329.472L460.792,329.915L460.511,330.358L460.227,330.802L459.943,331.245L459.659,331.686L459.373,332.127L459.087,332.568L458.8,333.009L458.511,333.45L458.222,333.889L457.932,334.329L457.64,334.768L457.349,335.205L457.056,335.644L456.762,336.082L456.468,336.519L456.172,336.956L455.875,337.393L455.578,337.829L455.28,338.265L454.981,338.7L454.682,339.134L454.381,339.569L454.079,340.003L453.777,340.437L453.474,340.87L453.169,341.303L452.864,341.736L452.558,342.168L452.252,342.599L451.944,343.031L451.636,343.46L451.327,343.891L451.016,344.323L450.706,344.752L450.395,345.18L450.082,345.609L449.768,346.039L449.454,346.467L449.14,346.894L448.824,347.321L448.507,347.749L448.19,348.175L447.873,348.601L447.543,349.041L446.913,349.878L446.27,350.727L445.624,351.575L444.974,352.421L444.322,353.266L443.667,354.108L443.008,354.95L442.347,355.79L441.682,356.629L441.015,357.466L440.344,358.302L439.672,359.136L438.996,359.969L438.317,360.8L437.635,361.63L436.951,362.46L436.263,363.287L435.574,364.112L434.881,364.936L434.185,365.76L433.487,366.581L432.787,367.401L432.083,368.22L431.377,369.038L430.669,369.853L429.958,370.667L429.244,371.481L428.527,372.294L427.809,373.103L427.088,373.912L426.364,374.721L425.638,375.527L424.91,376.331L424.179,377.135L423.445,377.938L422.709,378.739L421.972,379.538L421.231,380.336L420.489,381.133L419.744,381.929L418.997,382.723L418.247,383.516L417.496,384.307L416.742,385.097L415.986,385.886L415.228,386.673L414.468,387.459L413.706,388.244L412.941,389.028L412.175,389.809L411.407,390.59L410.636,391.369L409.864,392.147L409.089,392.924L408.313,393.7L407.534,394.474L406.754,395.246L405.972,396.017L405.188,396.787L404.403,397.556L403.615,398.323L402.825,399.089L402.034,399.854L401.241,400.617L400.446,401.378L399.65,402.139L398.852,402.898L398.052,403.656L397.25,404.412L396.447,405.168L395.642,405.921L394.836,406.673L394.028,407.424L393.218,408.174L392.407,408.922L391.595,409.669L390.781,410.414L389.965,411.158L389.148,411.901L388.329,412.643L387.509,413.382L386.689,414.12L385.866,414.858L385.042,415.594L384.216,416.328L383.389,417.061L382.561,417.793L381.732,418.523L380.902,419.252L380.07,419.979L379.237,420.705L378.403,421.43L377.568,422.152L376.732,422.874L375.894,423.594L375.055,424.313L374.216,425.031L373.375,425.746L372.533,426.461L371.69,427.174L370.846,427.886L370.001,428.596L369.156,429.304L368.309,430.012L367.461,430.718L366.613,431.422L365.763,432.125L364.913,432.826L364.062,433.526L363.21,434.224L362.357,434.921L361.504,435.617L360.649,436.311L359.794,437.003L358.939,437.694L358.083,438.383L357.226,439.071L356.368,439.758L355.509,440.443L354.65,441.126L353.791,441.808L352.931,442.488L352.07,443.167L351.209,443.844L350.347,444.52L349.485,445.194L348.622,445.866L347.759,446.537L346.896,447.206L346.032,447.874L345.167,448.541L344.303,449.205L343.438,449.868L342.573,450.53L341.707,451.19L340.841,451.848L339.975,452.505L339.108,453.16L338.243,453.813L337.376,454.465L336.509,455.115L335.642,455.763L334.774,456.411L333.907,457.056L333.04,457.699L332.173,458.341L331.305,458.981L330.437,459.62L329.569,460.257L328.702,460.892L327.835,461.526L326.967,462.158L326.1,462.788L325.233,463.416L324.366,464.043L323.498,464.668L322.632,465.292L321.765,465.913L320.898,466.533L320.032,467.152L319.166,467.768L318.301,468.382L317.435,468.996L316.57,469.607L315.705,470.216L314.841,470.824L313.976,471.43L313.113,472.034L312.25,472.636L311.387,473.237L310.525,473.836L309.663,474.433L308.801,475.028L307.94,475.621L307.08,476.213L306.22,476.802L305.361,477.39L304.502,477.976L303.644,478.561L302.787,479.143L301.93,479.723L301.074,480.302L300.219,480.878L299.364,481.454L298.51,482.027L297.657,482.598L296.805,483.167L295.953,483.734L295.102,484.3L294.253,484.863L293.404,485.425L292.555,485.985L291.709,486.543L290.862,487.098L290.017,487.653L289.172,488.204L288.329,488.754L287.487,489.302L286.646,489.848L285.805,490.393L284.966,490.935L284.128,491.475L283.291,492.013L282.455,492.55L281.621,493.084L280.787,493.616L279.955,494.146L279.123,494.675L256,509.336Z" style="fill:black;"/>
            </g>
            <g>
                <path d="M168.977,97.1108C150.286,76.565 114.73,86.236 93.3177,114.294C71.9053,142.352 73.4151,175.007 91.4841,199.717C87.2612,183.095 95.496,151.554 112.664,129.058C129.832,106.562 151.83,97.4241 168.977,97.1108Z" style="fill:black;"/>
            </g>
        </g>
    </g>
</svg>
