<?xml version="1.0" standalone="no"?>
<!DOCTYPE svg PUBLIC "-//W3C//DTD SVG 1.1//EN" "http://www.w3.org/Graphics/SVG/1.1/DTD/svg11.dtd">
<svg width="512px" height="512px" version="1.1" xmlns="http://www.w3.org/2000/svg" xmlns:xlink="http://www.w3.org/1999/xlink" xml:space="preserve" style="fill-rule:evenodd;clip-rule:evenodd;stroke-linecap:round;stroke-linejoin:round;stroke-miterlimit:1.41421;">
    <g>
        <g id="Layer1">
            <g>
                <path d="M412.603,233L256,77.4584L99.3968,233L99.3968,488.75C99.3968,501.59 109.18,512 121.249,512L219.26,512C219.26,512 219.258,409.562 219.26,409.56C235.812,394.269 276.632,392.627 293.89,408.56C293.923,408.59 293.89,511 293.89,511L390.751,512C402.82,512 412.603,501.59 412.603,488.75L412.603,233Z" style="fill:black;"/>
                <path d="M121.249,512L121.107,512L120.966,511.998L120.825,511.996L120.685,511.992L120.544,511.988L120.404,511.983L120.264,511.977L120.124,511.97L119.985,511.962L119.845,511.953L119.706,511.943L119.567,511.932L119.429,511.921L119.29,511.908L119.152,511.894L119.015,511.88L118.877,511.865L118.74,511.848L118.602,511.831L118.466,511.813L118.329,511.794L118.193,511.774L118.057,511.754L117.921,511.732L117.785,511.71L117.65,511.686L117.515,511.662L117.381,511.637L117.246,511.611L117.112,511.584L116.978,511.556L116.845,511.528L116.712,511.498L116.579,511.468L116.446,511.437L116.314,511.405L116.182,511.372L116.05,511.338L115.919,511.303L115.788,511.268L115.657,511.232L115.526,511.195L115.396,511.157L115.267,511.118L115.137,511.078L115.008,511.038L114.879,510.997L114.751,510.955L114.623,510.912L114.495,510.868L114.367,510.824L114.24,510.778L114.113,510.732L113.987,510.685L113.861,510.638L113.735,510.589L113.61,510.54L113.485,510.49L113.36,510.439L113.236,510.387L113.112,510.335L112.989,510.282L112.866,510.228L112.743,510.173L112.621,510.117L112.499,510.061L112.377,510.004L112.256,509.946L112.135,509.888L112.015,509.828L111.895,509.768L111.775,509.707L111.656,509.646L111.537,509.583L111.419,509.52L111.301,509.456L111.183,509.392L111.066,509.327L110.949,509.261L110.833,509.194L110.717,509.126L110.601,509.058L110.486,508.989L110.372,508.92L110.258,508.849L110.144,508.778L110.031,508.706L109.918,508.634L109.805,508.561L109.693,508.487L109.582,508.412L109.471,508.337L109.36,508.261L109.25,508.185L109.14,508.107L109.031,508.029L108.922,507.951L108.814,507.871L108.706,507.791L108.599,507.71L108.492,507.629L108.386,507.547L108.28,507.464L108.174,507.381L108.069,507.297L107.965,507.212L107.861,507.127L107.758,507.041L107.655,506.954L107.552,506.867L107.45,506.779L107.349,506.691L107.248,506.602L107.148,506.512L107.048,506.421L106.948,506.33L106.849,506.239L106.751,506.146L106.653,506.053L106.556,505.96L106.459,505.866L106.363,505.771L106.267,505.676L106.172,505.58L106.078,505.483L105.984,505.386L105.89,505.288L105.797,505.19L105.705,505.091L105.613,504.992L105.522,504.892L105.431,504.791L105.341,504.69L105.251,504.588L105.162,504.486L105.074,504.383L104.986,504.279L104.898,504.175L104.812,504.07L104.725,503.965L104.64,503.86L104.555,503.753L104.471,503.646L104.387,503.539L104.304,503.431L104.221,503.323L104.139,503.214L104.057,503.104L103.977,502.994L103.897,502.883L103.817,502.772L103.738,502.661L103.66,502.549L103.582,502.436L103.505,502.323L103.428,502.209L103.353,502.095L103.277,501.98L103.203,501.865L103.129,501.749L103.055,501.633L102.983,501.516L102.911,501.399L102.839,501.281L102.769,501.163L102.699,501.045L102.629,500.925L102.56,500.806L102.492,500.686L102.425,500.565L102.358,500.444L102.292,500.323L102.226,500.201L102.162,500.078L102.098,499.955L102.034,499.832L101.971,499.708L101.909,499.584L101.848,499.459L101.787,499.334L101.727,499.209L101.668,499.083L101.61,498.956L101.552,498.83L101.494,498.702L101.438,498.575L101.382,498.447L101.327,498.318L101.273,498.189L101.219,498.06L101.166,497.93L101.114,497.8L101.063,497.669L101.012,497.538L100.962,497.407L100.913,497.275L100.864,497.143L100.816,497.01L100.769,496.877L100.723,496.744L100.677,496.61L100.632,496.476L100.588,496.342L100.545,496.207L100.502,496.071L100.461,495.936L100.419,495.8L100.379,495.664L100.34,495.527L100.301,495.39L100.263,495.252L100.226,495.115L100.189,494.977L100.154,494.838L100.119,494.699L100.085,494.56L100.051,494.421L100.019,494.281L99.9872,494.141L99.9563,494L99.9262,493.86L99.8969,493.719L99.8684,493.577L99.8407,493.435L99.8138,493.293L99.7878,493.151L99.7625,493.008L99.7381,492.865L99.7145,492.722L99.6917,492.578L99.6697,492.435L99.6486,492.29L99.6282,492.146L99.6088,492.001L99.5901,491.856L99.5723,491.711L99.5554,491.565L99.5393,491.419L99.524,491.273L99.5096,491.127L99.496,490.98L99.4833,490.833L99.4715,490.686L99.4605,490.538L99.4504,490.391L99.4411,490.243L99.4327,490.095L99.4252,489.946L99.4186,489.797L99.4128,489.648L99.4079,489.499L99.4039,489.35L99.4008,489.2L99.3986,489.05L99.3972,488.9L99.3968,488.75L99.3968,233L256,77.4584L412.603,233L412.603,488.75L412.603,488.9L412.601,489.05L412.599,489.2L412.596,489.35L412.592,489.499L412.587,489.648L412.581,489.797L412.575,489.946L412.567,490.095L412.559,490.243L412.55,490.391L412.54,490.538L412.529,490.686L412.517,490.833L412.504,490.98L412.49,491.127L412.476,491.273L412.461,491.419L412.445,491.565L412.428,491.711L412.41,491.856L412.391,492.001L412.372,492.146L412.351,492.29L412.33,492.435L412.308,492.578L412.286,492.722L412.262,492.865L412.237,493.008L412.212,493.151L412.186,493.293L412.159,493.435L412.132,493.577L412.103,493.719L412.074,493.86L412.044,494L412.013,494.141L411.981,494.281L411.949,494.421L411.915,494.56L411.881,494.699L411.846,494.838L411.811,494.977L411.774,495.115L411.737,495.252L411.699,495.39L411.66,495.527L411.621,495.664L411.581,495.8L411.539,495.936L411.498,496.071L411.455,496.207L411.412,496.342L411.368,496.476L411.323,496.61L411.277,496.744L411.231,496.877L411.184,497.01L411.136,497.143L411.087,497.275L411.038,497.407L410.988,497.538L410.937,497.669L410.886,497.8L410.834,497.93L410.781,498.06L410.727,498.189L410.673,498.318L410.618,498.447L410.562,498.575L410.506,498.702L410.448,498.83L410.39,498.956L410.332,499.083L410.273,499.209L410.213,499.334L410.152,499.459L410.091,499.584L410.029,499.708L409.966,499.832L409.902,499.955L409.838,500.078L409.774,500.201L409.708,500.323L409.642,500.444L409.575,500.565L409.508,500.686L409.44,500.806L409.371,500.925L409.301,501.045L409.231,501.163L409.161,501.281L409.089,501.399L409.017,501.516L408.945,501.633L408.871,501.749L408.797,501.865L408.723,501.98L408.647,502.095L408.572,502.209L408.495,502.323L408.418,502.436L408.34,502.549L408.262,502.661L408.183,502.772L408.103,502.883L408.023,502.994L407.943,503.104L407.861,503.214L407.779,503.323L407.696,503.431L407.613,503.539L407.529,503.646L407.445,503.753L407.36,503.86L407.275,503.965L407.188,504.07L407.102,504.175L407.014,504.279L406.926,504.383L406.838,504.486L406.749,504.588L406.659,504.69L406.569,504.791L406.478,504.892L406.387,504.992L406.295,505.091L406.203,505.19L406.11,505.288L406.016,505.386L405.922,505.483L405.828,505.58L405.733,505.676L405.637,505.771L405.541,505.866L405.444,505.96L405.347,506.053L405.249,506.146L405.151,506.239L405.052,506.33L404.952,506.421L404.852,506.512L404.752,506.602L404.651,506.691L404.55,506.779L404.448,506.867L404.345,506.954L404.242,507.041L404.139,507.127L404.035,507.212L403.931,507.297L403.826,507.381L403.72,507.464L403.614,507.547L403.508,507.629L403.401,507.71L403.294,507.791L403.186,507.871L403.078,507.951L402.969,508.029L402.86,508.107L402.75,508.185L402.64,508.261L402.529,508.337L402.418,508.412L402.307,508.487L402.195,508.561L402.082,508.634L401.969,508.706L401.856,508.778L401.742,508.849L401.628,508.92L401.514,508.989L401.399,509.058L401.283,509.126L401.167,509.194L401.051,509.261L400.934,509.327L400.817,509.392L400.699,509.456L400.581,509.52L400.463,509.583L400.344,509.646L400.225,509.707L400.105,509.768L399.985,509.828L399.865,509.888L399.744,509.946L399.623,510.004L399.501,510.061L399.379,510.117L399.257,510.173L399.134,510.228L399.011,510.282L398.888,510.335L398.764,510.387L398.64,510.439L398.515,510.49L398.39,510.54L398.265,510.589L398.139,510.638L398.013,510.685L397.887,510.732L397.76,510.778L397.633,510.824L397.505,510.868L397.377,510.912L397.249,510.955L397.121,510.997L396.992,511.038L396.863,511.078L396.733,511.118L396.604,511.157L396.474,511.195L396.343,511.232L396.212,511.268L396.081,511.303L395.95,511.338L395.818,511.372L395.686,511.405L395.554,511.437L395.421,511.468L395.288,511.498L395.155,511.528L395.022,511.556L394.888,511.584L394.754,511.611L394.619,511.637L394.485,511.662L394.35,511.686L394.215,511.71L394.079,511.732L393.943,511.754L393.807,511.774L393.671,511.794L393.534,511.813L393.398,511.831L393.26,511.848L393.123,511.865L392.985,511.88L392.848,511.894L392.71,511.908L392.571,511.921L392.433,511.932L392.294,511.943L392.155,511.953L392.015,511.962L391.876,511.97L391.736,511.977L391.596,511.983L391.456,511.988L391.315,511.992L391.175,511.996L391.034,511.998L390.893,512L390.751,512L293.89,511L293.895,494.998L293.899,478.595L293.902,459.791L293.905,440.986L293.905,432.333L293.904,424.579L293.902,418.025L293.9,412.97L293.898,411.099L293.896,409.715L293.893,408.856L293.892,408.635L293.891,408.579L293.89,408.56L293.687,408.374L293.481,408.19L293.274,408.007L293.064,407.826L292.852,407.646L292.638,407.469L292.422,407.292L292.205,407.118L291.985,406.944L291.763,406.773L291.539,406.603L291.313,406.435L291.085,406.268L290.855,406.103L290.623,405.939L290.39,405.777L290.154,405.617L289.917,405.458L289.678,405.301L289.437,405.146L289.194,404.992L288.949,404.839L288.703,404.688L288.454,404.539L288.204,404.391L287.953,404.245L287.699,404.101L287.444,403.958L287.187,403.816L286.929,403.676L286.669,403.538L286.407,403.401L286.144,403.266L285.879,403.132L285.613,403L285.344,402.87L285.075,402.741L284.804,402.614L284.531,402.488L284.257,402.364L283.982,402.241L283.704,402.12L283.426,402L283.146,401.882L282.865,401.766L282.582,401.651L282.298,401.537L282.013,401.425L281.726,401.315L281.438,401.206L281.148,401.099L280.858,400.993L280.566,400.889L280.273,400.786L279.978,400.685L279.683,400.586L279.386,400.488L279.088,400.391L278.789,400.296L278.488,400.203L278.187,400.111L277.884,400.02L277.581,399.932L277.276,399.844L276.97,399.758L276.663,399.674L276.356,399.591L276.047,399.51L275.737,399.43L275.426,399.352L275.114,399.275L274.801,399.2L274.488,399.126L274.173,399.054L273.858,398.983L273.541,398.914L273.224,398.846L272.906,398.78L272.587,398.715L272.267,398.652L271.947,398.59L271.626,398.53L271.304,398.471L270.981,398.414L270.658,398.358L270.333,398.304L270.009,398.251L269.683,398.2L269.357,398.15L269.03,398.102L268.703,398.055L268.375,398.009L268.046,397.966L267.717,397.923L267.387,397.882L267.057,397.843L266.726,397.805L266.395,397.768L266.063,397.733L265.731,397.7L265.398,397.668L265.065,397.637L264.732,397.608L264.398,397.58L264.064,397.554L263.729,397.529L263.394,397.506L263.059,397.484L262.723,397.463L262.387,397.445L262.051,397.427L261.715,397.411L261.378,397.396L261.041,397.383L260.704,397.372L260.367,397.361L260.029,397.353L259.692,397.345L259.354,397.339L259.016,397.335L258.678,397.332L258.34,397.33L258.002,397.33L257.663,397.331L257.325,397.334L256.987,397.338L256.649,397.344L256.31,397.351L255.972,397.359L255.634,397.369L255.296,397.381L254.958,397.393L254.62,397.407L254.282,397.423L253.945,397.44L253.607,397.458L253.27,397.478L252.933,397.5L252.596,397.522L252.259,397.546L251.922,397.572L251.586,397.599L251.25,397.627L250.915,397.657L250.579,397.688L250.244,397.72L249.909,397.754L249.575,397.79L249.241,397.826L248.908,397.865L248.574,397.904L248.242,397.945L247.909,397.987L247.578,398.031L247.246,398.076L246.915,398.123L246.585,398.171L246.255,398.22L245.926,398.271L245.597,398.323L245.269,398.376L244.941,398.431L244.614,398.487L244.288,398.545L243.962,398.604L243.638,398.664L243.313,398.726L242.99,398.789L242.667,398.853L242.345,398.919L242.023,398.986L241.702,399.055L241.383,399.125L241.064,399.196L240.745,399.269L240.428,399.343L240.111,399.418L239.796,399.495L239.481,399.573L239.167,399.653L238.854,399.734L238.542,399.816L238.231,399.899L237.921,399.984L237.612,400.071L237.304,400.158L236.997,400.247L236.691,400.337L236.386,400.429L236.082,400.522L235.779,400.616L235.477,400.712L235.177,400.809L234.877,400.907L234.579,401.007L234.282,401.108L233.986,401.211L233.691,401.314L233.398,401.419L233.106,401.526L232.815,401.633L232.525,401.742L232.237,401.853L231.95,401.964L231.664,402.077L231.38,402.192L231.097,402.307L230.815,402.424L230.535,402.542L230.256,402.662L229.979,402.783L229.703,402.905L229.428,403.028L229.156,403.153L228.884,403.279L228.614,403.407L228.346,403.536L228.079,403.666L227.814,403.797L227.55,403.93L227.288,404.064L227.028,404.199L226.769,404.335L226.512,404.473L226.256,404.612L226.002,404.753L225.75,404.894L225.5,405.037L225.251,405.182L225.004,405.327L224.759,405.474L224.516,405.622L224.275,405.772L224.035,405.923L223.797,406.075L223.561,406.228L223.327,406.382L223.095,406.538L222.865,406.695L222.637,406.854L222.41,407.013L222.186,407.174L221.964,407.336L221.743,407.5L221.525,407.665L221.308,407.831L221.094,407.998L220.882,408.166L220.672,408.336L220.464,408.507L220.258,408.68L220.054,408.853L219.852,409.028L219.653,409.204L219.456,409.381L219.26,409.56L219.26,413.962L219.259,425.567L219.26,460.781L219.26,512L121.249,512ZM132.73,478.667L185.926,478.667L185.926,460.781L185.926,425.567L185.926,413.959L185.929,394.881L197.06,384.691L197.482,384.312L197.906,383.939L198.329,383.571L198.756,383.208L199.184,382.849L199.613,382.497L200.043,382.15L200.475,381.807L200.908,381.469L201.343,381.135L201.778,380.807L202.213,380.484L202.652,380.164L203.091,379.849L203.53,379.539L203.97,379.234L204.411,378.934L204.853,378.636L205.296,378.344L205.739,378.056L206.185,377.771L206.63,377.491L207.075,377.216L207.521,376.944L207.97,376.675L208.417,376.411L208.865,376.151L209.316,375.894L209.765,375.641L210.215,375.393L210.666,375.147L211.117,374.905L211.569,374.666L212.021,374.432L212.475,374.2L212.928,373.972L213.382,373.747L213.835,373.526L214.291,373.308L214.746,373.093L215.201,372.881L215.657,372.673L216.114,372.467L216.571,372.265L217.028,372.066L217.485,371.87L217.943,371.676L218.402,371.486L218.861,371.298L219.32,371.114L219.778,370.932L220.239,370.753L220.699,370.577L221.16,370.404L221.62,370.233L222.082,370.065L222.543,369.9L223.005,369.738L223.468,369.578L223.93,369.421L224.393,369.266L224.857,369.113L225.32,368.964L225.784,368.817L226.248,368.672L226.712,368.53L227.177,368.39L227.642,368.253L228.109,368.118L228.574,367.986L229.039,367.856L229.506,367.728L229.973,367.603L230.441,367.48L230.906,367.359L231.374,367.241L231.842,367.125L232.31,367.011L232.78,366.899L233.248,366.79L233.716,366.683L234.186,366.578L234.656,366.475L235.125,366.375L235.594,366.277L236.066,366.18L236.537,366.086L237.006,365.995L237.479,365.905L237.95,365.817L238.421,365.732L238.894,365.648L239.365,365.567L239.838,365.488L240.31,365.411L240.783,365.336L241.258,365.263L241.73,365.193L242.203,365.124L242.677,365.058L243.151,364.993L243.626,364.93L244.1,364.87L244.574,364.812L245.051,364.755L245.526,364.701L245.999,364.649L246.475,364.598L246.952,364.55L247.428,364.504L247.904,364.46L248.38,364.417L248.856,364.377L249.334,364.339L249.812,364.303L250.288,364.269L250.764,364.237L251.242,364.207L251.721,364.178L252.199,364.152L252.676,364.128L253.154,364.106L253.633,364.086L254.113,364.068L254.591,364.052L255.069,364.038L255.548,364.026L256.026,364.016L256.506,364.008L256.987,364.002L257.465,363.999L257.945,363.997L258.426,363.997L258.905,363.999L259.385,364.004L259.864,364.01L260.345,364.018L260.826,364.029L261.307,364.041L261.786,364.056L262.267,364.072L262.75,364.091L263.229,364.112L263.71,364.135L264.192,364.16L264.672,364.187L265.155,364.216L265.637,364.248L266.116,364.281L266.598,364.317L267.081,364.355L267.563,364.395L268.043,364.437L268.525,364.481L269.008,364.528L269.489,364.576L269.971,364.627L270.454,364.68L270.936,364.736L271.417,364.793L271.9,364.853L272.383,364.915L272.863,364.98L273.346,365.046L273.83,365.116L274.312,365.187L274.794,365.26L275.277,365.337L275.759,365.415L276.242,365.496L276.725,365.579L277.206,365.664L277.689,365.753L278.172,365.843L278.654,365.936L279.137,366.031L279.619,366.129L280.103,366.23L280.584,366.333L281.066,366.438L281.551,366.547L282.033,366.658L282.514,366.771L282.998,366.887L283.481,367.006L283.962,367.127L284.446,367.252L284.928,367.379L285.41,367.508L285.893,367.641L286.374,367.776L286.857,367.915L287.338,368.056L287.821,368.2L288.304,368.347L288.785,368.497L289.267,368.65L289.75,368.806L290.23,368.965L290.713,369.128L291.194,369.293L291.673,369.461L292.155,369.633L292.639,369.808L293.118,369.986L293.599,370.168L294.08,370.353L294.56,370.541L295.042,370.733L295.52,370.928L295.999,371.126L296.48,371.329L296.96,371.535L297.439,371.745L297.917,371.958L298.396,372.175L298.874,372.395L299.351,372.619L299.83,372.848L300.306,373.08L300.784,373.317L301.261,373.557L301.736,373.801L302.212,374.05L302.687,374.303L303.16,374.559L303.635,374.82L304.109,375.086L304.581,375.355L305.053,375.629L305.524,375.908L305.994,376.19L306.463,376.478L306.933,376.77L307.402,377.068L307.87,377.37L308.336,377.676L308.8,377.986L309.265,378.303L309.729,378.624L310.191,378.95L310.651,379.281L311.11,379.617L311.569,379.959L312.026,380.306L312.481,380.657L312.934,381.014L313.388,381.377L313.839,381.745L314.286,382.118L314.734,382.497L315.18,382.882L315.622,383.271L316.063,383.667L326.649,393.348L327.216,407.705L327.223,408.31L327.226,408.699L327.229,409.64L327.231,411.056L327.233,412.945L327.236,418.011L327.237,424.573L327.238,432.331L327.238,440.988L327.236,459.797L327.232,478.009L379.27,478.546L379.27,246.874L256,124.439L132.73,246.874L132.73,478.667Z" style="fill:black;"/>
            </g>
            <g>
                <path d="M30.6729,245.589L256,21L478.235,245.589" style="fill:none;stroke-width:41.67px;stroke:black;"/>
            </g>
            <g>
                <path d="M384.11,121.295L384.11,60.8469" style="fill:none;stroke-width:58.33px;stroke-linecap:square;stroke:black;"/>
            </g>
        </g>
    </g>
</svg>
