<?xml version="1.0" standalone="no"?>
<!DOCTYPE svg PUBLIC "-//W3C//DTD SVG 1.1//EN" "http://www.w3.org/Graphics/SVG/1.1/DTD/svg11.dtd">
<svg width="432px" height="432px" version="1.1" xmlns="http://www.w3.org/2000/svg" xmlns:xlink="http://www.w3.org/1999/xlink" xml:space="preserve" style="fill-rule:evenodd;clip-rule:evenodd;stroke-linejoin:round;stroke-miterlimit:1.41421;">
    <g>
        <g id="Layer1">
            <g>
                <path d="M295.751,137.178C296.007,137.434 296.051,137.806 295.85,138.008L138.008,295.85C137.806,296.051 137.434,296.007 137.178,295.751L136.249,294.822C135.993,294.566 135.949,294.194 136.15,293.992L293.992,136.15C294.194,135.949 294.566,135.993 294.822,136.249L295.751,137.178Z" style="fill:black;"/>
                <path d="M137.286,312.643L136.455,312.604L135.64,312.526L134.853,312.414L134.093,312.27L133.358,312.096L132.631,311.892L131.92,311.658L131.242,311.402L130.579,311.12L129.924,310.809L129.299,310.48L128.688,310.126L128.094,309.749L127.52,309.352L126.954,308.926L126.416,308.485L125.895,308.023L125.508,307.651L124.347,306.49L123.979,306.108L123.517,305.587L123.072,305.043L122.65,304.483L122.251,303.906L121.873,303.31L121.52,302.701L121.189,302.073L120.882,301.424L120.6,300.763L120.34,300.075L120.108,299.368L119.905,298.646L119.729,297.903L119.586,297.143L119.473,296.355L119.397,295.55L119.357,294.723L119.358,293.869L119.402,293.004L119.492,292.118L119.634,291.211L119.828,290.292L120.08,289.359L120.392,288.423L120.766,287.485L121.206,286.549L121.709,285.629L122.277,284.728L122.913,283.845L123.609,283.002L124.172,282.4L282.4,124.172L283.002,123.609L283.845,122.913L284.728,122.277L285.629,121.709L286.549,121.206L287.485,120.766L288.423,120.392L289.359,120.08L290.292,119.828L291.211,119.634L292.118,119.492L293.004,119.402L293.869,119.358L294.723,119.357L295.55,119.397L296.355,119.473L297.143,119.586L297.903,119.729L298.646,119.905L299.368,120.108L300.075,120.34L300.763,120.6L301.424,120.882L302.073,121.189L302.701,121.52L303.31,121.873L303.906,122.251L304.483,122.65L305.043,123.072L305.587,123.517L306.108,123.979L306.49,124.347L307.651,125.508L308.023,125.895L308.485,126.416L308.926,126.954L309.352,127.52L309.749,128.094L310.126,128.688L310.48,129.299L310.809,129.924L311.12,130.579L311.402,131.242L311.658,131.92L311.892,132.631L312.096,133.358L312.27,134.093L312.414,134.853L312.526,135.64L312.604,136.455L312.643,137.286L312.642,138.126L312.599,138.991L312.508,139.882L312.366,140.794L312.171,141.708L311.923,142.63L311.609,143.575L311.234,144.514L310.792,145.455L310.288,146.375L309.723,147.274L309.085,148.157L308.389,149.001L307.823,149.605L149.605,307.823L149.001,308.389L148.157,309.085L147.274,309.723L146.375,310.288L145.455,310.792L144.514,311.234L143.575,311.609L142.63,311.923L141.708,312.171L140.794,312.366L139.882,312.508L138.991,312.599L138.126,312.642L137.286,312.643ZM137.669,295.976L137.697,295.976L137.724,295.975L137.751,295.972L137.777,295.968L137.804,295.962L137.829,295.955L137.854,295.947L137.878,295.937L137.902,295.926L137.925,295.914L137.947,295.9L137.968,295.885L137.988,295.868L138.008,295.85L295.85,138.008L295.868,137.988L295.885,137.968L295.9,137.947L295.914,137.925L295.926,137.902L295.937,137.878L295.947,137.854L295.955,137.829L295.962,137.804L295.968,137.777L295.972,137.751L295.975,137.724L295.976,137.697L295.976,137.669L295.975,137.641L295.972,137.613L295.968,137.585L295.963,137.557L295.956,137.528L295.948,137.5L295.939,137.472L295.928,137.443L295.916,137.415L295.903,137.387L295.888,137.36L295.872,137.332L295.855,137.305L295.837,137.279L295.817,137.253L295.796,137.227L295.774,137.202L295.751,137.178L294.822,136.249L294.798,136.226L294.773,136.204L294.747,136.183L294.721,136.163L294.695,136.145L294.668,136.128L294.64,136.112L294.613,136.097L294.585,136.084L294.557,136.072L294.528,136.061L294.5,136.052L294.472,136.044L294.443,136.037L294.415,136.032L294.387,136.028L294.359,136.025L294.331,136.024L294.303,136.024L294.276,136.025L294.249,136.028L294.223,136.032L294.196,136.038L294.171,136.045L294.146,136.053L294.122,136.063L294.098,136.074L294.075,136.086L294.053,136.1L294.032,136.115L294.012,136.132L293.992,136.15L136.15,293.992L136.132,294.012L136.115,294.032L136.1,294.053L136.086,294.075L136.074,294.098L136.063,294.122L136.053,294.146L136.045,294.171L136.038,294.196L136.032,294.223L136.028,294.249L136.025,294.276L136.024,294.303L136.024,294.331L136.025,294.359L136.028,294.387L136.032,294.415L136.037,294.443L136.044,294.472L136.052,294.5L136.061,294.528L136.072,294.557L136.084,294.585L136.097,294.613L136.112,294.64L136.128,294.668L136.145,294.695L136.163,294.721L136.183,294.747L136.204,294.773L136.226,294.798L136.249,294.822L137.178,295.751L137.202,295.774L137.227,295.796L137.253,295.817L137.279,295.837L137.305,295.855L137.332,295.872L137.36,295.888L137.387,295.903L137.415,295.916L137.443,295.928L137.472,295.939L137.5,295.948L137.528,295.956L137.557,295.963L137.585,295.968L137.613,295.972L137.641,295.975L137.669,295.976Z" style="fill:black;"/>
            </g>
            <g>
                <path d="M97.4858,430.246L96.9854,430.245L96.4863,430.24L95.9859,430.233L95.4856,430.223L94.9866,430.209L94.4864,430.193L93.9862,430.173L93.4862,430.151L92.9863,430.126L92.4877,430.097L91.9894,430.066L91.4898,430.032L90.9891,429.994L90.4912,429.954L89.9935,429.911L89.4946,429.865L88.996,429.816L88.4976,429.763L88.0007,429.708L87.5028,429.65L87.0052,429.589L86.5091,429.525L86.012,429.458L85.5153,429.388L85.0188,429.315L84.5227,429.238L84.0282,429.159L83.534,429.078L83.039,428.992L82.5444,428.904L82.0501,428.813L81.5563,428.719L81.0641,428.622L80.5711,428.522L80.0786,428.419L79.5878,428.314L79.0963,428.204L78.6052,428.092L78.1159,427.978L77.6259,427.86L77.1365,427.739L76.6487,427.615L76.1604,427.488L75.6727,427.358L75.1855,427.225L74.6989,427.089L74.2141,426.95L73.7301,426.808L73.2443,426.663L72.7603,426.515L72.2795,426.365L71.797,426.211L71.314,426.053L70.8339,425.893L70.3548,425.731L69.874,425.564L69.3952,425.395L68.9195,425.224L68.4423,425.049L67.9648,424.871L67.4903,424.69L67.0168,424.506L66.543,424.319L66.07,424.129L65.598,423.936L65.1269,423.74L64.6578,423.541L64.1897,423.339L63.7203,423.134L63.253,422.926L62.7879,422.715L62.3236,422.501L61.8594,422.284L61.3962,422.064L60.9341,421.841L60.4731,421.615L60.0141,421.386L59.5553,421.154L59.0986,420.92L58.6421,420.682L58.1867,420.44L57.7325,420.196L57.2795,419.949L56.8287,419.7L56.3791,419.447L55.9298,419.191L55.4808,418.931L55.035,418.67L54.5905,418.405L54.1463,418.137L53.7036,417.867L53.2621,417.593L52.822,417.316L52.3842,417.036L51.9478,416.754L51.5111,416.468L51.0767,416.179L50.6446,415.888L50.214,415.594L49.7839,415.296L49.3555,414.995L48.9286,414.692L48.5031,414.385L48.0801,414.076L47.6578,413.764L47.2379,413.449L46.8189,413.131L46.4016,412.81L45.9858,412.486L45.5717,412.159L45.1601,411.83L44.7502,411.497L44.3413,411.162L43.9332,410.822L43.5285,410.482L43.1256,410.138L42.7237,409.791L42.3236,409.44L41.9254,409.087L41.5291,408.732L41.1352,408.373L40.7432,408.012L40.3525,407.648L39.963,407.28L39.5768,406.911L39.1925,406.538L38.8089,406.162L38.4564,405.812L25.6736,393.029L25.3229,392.676L24.9478,392.294L24.5752,391.909L24.2051,391.522L23.8382,391.134L23.4738,390.743L23.1124,390.351L22.7535,389.956L22.3978,389.56L22.0458,389.163L21.6957,388.763L21.3483,388.361L21.004,387.957L20.6628,387.552L20.3242,387.145L19.9887,386.736L19.6564,386.326L19.3266,385.914L19,385.5L18.676,385.084L18.3548,384.667L18.0366,384.248L17.7216,383.828L17.4097,383.406L17.1001,382.982L16.7936,382.557L16.4906,382.13L16.1904,381.702L15.8929,381.273L15.5981,380.841L15.3064,380.408L15.0179,379.974L14.7321,379.539L14.4495,379.102L14.17,378.664L13.8929,378.223L13.6193,377.782L13.3485,377.34L13.0804,376.895L12.8159,376.451L12.5541,376.005L12.2951,375.557L12.039,375.107L11.7863,374.657L11.5363,374.206L11.2892,373.753L11.0453,373.299L10.8045,372.844L10.5665,372.388L10.3313,371.93L10.0996,371.472L9.87063,371.012L9.64457,370.551L9.42162,370.09L9.20175,369.627L8.98455,369.163L8.77045,368.697L8.55968,368.232L8.35175,367.765L8.14674,367.297L7.94482,366.828L7.74579,366.358L7.54966,365.887L7.35679,365.416L7.16684,364.943L6.97979,364.469L6.79597,363.995L6.61509,363.52L6.43696,363.044L6.26203,362.567L6.09006,362.089L5.92117,361.611L5.7553,361.132L5.59222,360.652L5.43238,360.171L5.27542,359.69L5.12141,359.207L4.97061,358.725L4.82271,358.241L4.67763,357.756L4.53573,357.272L4.39687,356.786L4.26084,356.3L4.12796,355.813L3.99803,355.326L3.87103,354.837L3.74717,354.349L3.62627,353.86L3.50829,353.371L3.39327,352.88L3.2813,352.389L3.17235,351.898L3.06641,351.407L2.96344,350.915L2.86343,350.422L2.76642,349.929L2.67242,349.435L2.58141,348.942L2.49342,348.447L2.40836,347.953L2.32633,347.458L2.24729,346.962L2.17119,346.466L2.0981,345.97L2.02803,345.474L1.96094,344.977L1.89678,344.48L1.83566,343.983L1.77751,343.486L1.72234,342.988L1.67017,342.49L1.62097,341.991L1.57476,341.493L1.53153,340.994L1.49127,340.496L1.45401,339.997L1.41973,339.497L1.38843,338.998L1.36011,338.499L1.33478,337.999L1.31242,337.499L1.29305,337L1.27665,336.5L1.26324,336L1.25281,335.5L1.24536,335L1.24089,334.5L1.2394,334L1.24089,333.5L1.24536,333L1.25281,332.5L1.26324,332L1.27665,331.5L1.29305,331L1.31242,330.501L1.33478,330.001L1.36011,329.501L1.38843,329.002L1.41973,328.503L1.45401,328.003L1.49128,327.504L1.53153,327.006L1.57476,326.507L1.62097,326.009L1.67016,325.51L1.72235,325.012L1.77751,324.515L1.83566,324.017L1.8968,323.52L1.96091,323.023L2.02801,322.526L2.09812,322.03L2.17123,321.533L2.24726,321.038L2.32631,320.542L2.40836,320.047L2.49338,319.553L2.58141,319.058L2.67244,318.565L2.76642,318.071L2.86341,317.578L2.96344,317.085L3.06641,316.593L3.17235,316.102L3.28136,315.61L3.39336,315.12L3.50822,314.63L3.62618,314.14L3.74717,313.651L3.87103,313.163L3.99803,312.674L4.12798,312.187L4.26086,311.7L4.39685,311.214L4.53581,310.728L4.67774,310.243L4.8226,309.759L4.97049,309.276L5.12143,308.793L5.27543,308.31L5.43236,307.829L5.59224,307.348L5.7553,306.868L5.92129,306.389L6.09006,305.911L6.26206,305.433L6.43696,304.956L6.61493,304.48L6.796,304.004L6.97977,303.531L7.16684,303.057L7.35682,302.584L7.54983,302.112L7.74576,301.642L7.94462,301.172L8.14674,300.703L8.35175,300.235L8.55968,299.768L8.77068,299.302L8.98455,298.837L9.20155,298.373L9.42163,297.91L9.64457,297.449L9.87063,296.988L10.0995,296.528L10.3315,296.07L10.5665,295.612L10.8045,295.156L11.0453,294.701L11.2893,294.247L11.5363,293.794L11.7862,293.343L12.0391,292.893L12.295,292.444L12.5539,291.996L12.8159,291.549L13.0806,291.104L13.3485,290.66L13.6193,290.218L13.8931,289.777L14.1698,289.337L14.4495,288.898L14.7323,288.461L15.0179,288.026L15.3064,287.592L15.5981,287.159L15.8927,286.728L16.1902,286.298L16.4906,285.87L16.7938,285.443L17.1001,285.018L17.4097,284.594L17.7218,284.172L18.0366,283.752L18.3548,283.333L18.6759,282.916L18.9998,282.5L19.3266,282.086L19.6563,281.674L19.989,281.264L20.3244,280.855L20.6627,280.448L21.004,280.043L21.3483,279.639L21.6955,279.238L22.0455,278.838L22.3982,278.44L22.7538,278.044L23.1124,277.649L23.4737,277.257L23.8382,276.866L24.2052,276.478L24.5749,276.091L24.9478,275.706L25.3232,275.324L25.6735,274.971L84.3924,216.252L84.7452,215.902L85.1277,215.526L85.5123,215.154L85.899,214.784L86.2877,214.417L86.6784,214.052L87.0708,213.691L87.465,213.333L87.861,212.977L88.2592,212.624L88.6592,212.274L89.0608,211.927L89.4641,211.583L89.8696,211.241L90.2764,210.903L90.6849,210.568L91.0957,210.235L91.5077,209.905L91.9213,209.579L92.3371,209.254L92.7545,208.933L93.1731,208.615L93.5934,208.3L94.0157,207.988L94.4392,207.679L94.864,207.373L95.2911,207.069L95.7196,206.769L96.149,206.471L96.5802,206.177L97.0131,205.885L97.4471,205.597L97.8825,205.311L98.3198,205.028L98.758,204.749L99.1976,204.472L99.6391,204.198L100.082,203.927L100.526,203.659L100.971,203.395L101.417,203.132L101.865,202.874L102.314,202.618L102.764,202.365L103.215,202.115L103.668,201.868L104.122,201.624L104.578,201.383L105.034,201.145L105.491,200.91L105.95,200.678L106.409,200.449L106.87,200.223L107.332,200L107.795,199.78L108.259,199.563L108.723,199.349L109.19,199.138L109.656,198.93L110.124,198.725L110.593,198.523L111.063,198.324L111.533,198.129L112.006,197.935L112.479,197.745L112.952,197.558L113.426,197.375L113.901,197.194L114.377,197.016L114.854,196.841L115.332,196.669L115.81,196.5L116.289,196.334L116.77,196.171L117.251,196.011L117.732,195.854L118.214,195.7L118.697,195.549L119.18,195.401L119.665,195.256L120.15,195.114L120.635,194.976L121.122,194.839L121.609,194.706L122.095,194.577L122.583,194.45L123.072,194.326L123.561,194.205L124.051,194.087L124.541,193.972L125.032,193.86L125.523,193.751L126.014,193.645L126.507,193.542L127,193.442L127.492,193.345L127.986,193.251L128.48,193.16L128.975,193.072L129.469,192.987L129.964,192.905L130.459,192.826L130.954,192.75L131.451,192.677L131.948,192.607L132.444,192.54L132.941,192.475L133.438,192.414L133.936,192.356L134.434,192.301L134.932,192.249L135.43,192.2L135.928,192.153L136.427,192.11L136.925,192.07L137.425,192.033L137.924,191.998L138.423,191.967L138.922,191.939L139.422,191.913L139.922,191.891L140.421,191.872L140.922,191.855L141.422,191.842L141.921,191.831L142.421,191.824L142.922,191.82L143.421,191.818L143.921,191.82L144.422,191.824L144.921,191.831L145.421,191.842L145.921,191.855L146.421,191.872L146.921,191.891L147.42,191.913L147.92,191.939L148.419,191.967L148.918,191.998L149.418,192.033L149.917,192.07L150.415,192.11L150.914,192.153L151.413,192.2L151.911,192.249L152.409,192.301L152.906,192.356L153.404,192.414L153.902,192.475L154.399,192.54L154.895,192.607L155.392,192.677L155.888,192.75L156.384,192.826L156.879,192.905L157.374,192.987L157.868,193.072L158.363,193.16L158.857,193.251L159.35,193.345L159.843,193.442L160.336,193.542L160.829,193.645L161.32,193.751L161.811,193.86L162.301,193.972L162.791,194.087L163.281,194.205L163.771,194.326L164.26,194.45L164.747,194.577L165.234,194.706L165.721,194.839L166.208,194.976L166.693,195.114L167.178,195.256L167.662,195.401L168.146,195.549L168.629,195.7L169.111,195.854L169.592,196.011L170.073,196.171L170.554,196.334L171.032,196.5L171.511,196.669L171.988,196.841L172.466,197.016L172.942,197.194L173.417,197.375L173.891,197.558L174.364,197.745L174.837,197.935L175.309,198.129L175.78,198.324L176.249,198.523L176.718,198.725L177.186,198.93L177.654,199.138L178.119,199.349L178.584,199.563L179.048,199.78L179.511,200L179.973,200.223L180.434,200.449L180.893,200.678L181.352,200.91L181.809,201.145L182.265,201.383L182.72,201.624L183.175,201.868L183.627,202.115L184.079,202.365L184.529,202.618L184.978,202.874L185.425,203.132L185.872,203.394L186.317,203.659L186.761,203.927L187.204,204.198L187.645,204.472L188.085,204.749L188.523,205.028L188.96,205.311L189.396,205.597L189.829,205.885L190.263,206.177L190.694,206.471L191.123,206.769L191.552,207.069L191.979,207.373L192.403,207.679L192.827,207.988L193.249,208.301L193.669,208.615L194.088,208.933L194.506,209.255L194.921,209.579L195.335,209.905L195.747,210.235L196.157,210.567L196.566,210.903L196.973,211.242L197.378,211.583L197.782,211.927L198.184,212.274L198.584,212.624L198.981,212.977L199.378,213.333L199.772,213.691L200.164,214.052L200.555,214.417L200.944,214.784L201.33,215.153L201.715,215.526L202.098,215.902L202.45,216.252L215.233,229.035L215.584,229.388L215.959,229.771L216.332,230.156L216.702,230.542L217.069,230.931L217.434,231.322L217.795,231.714L218.153,232.108L218.509,232.504L218.862,232.902L219.212,233.302L219.559,233.704L219.903,234.108L220.244,234.512L220.583,234.919L220.918,235.328L221.251,235.739L221.581,236.151L221.907,236.564L222.231,236.98L222.553,237.398L222.87,237.816L223.185,238.236L223.498,238.659L223.807,239.082L224.113,239.507L224.417,239.934L224.717,240.362L225.015,240.792L225.309,241.223L225.601,241.656L225.889,242.09L226.175,242.526L226.458,242.963L226.737,243.401L227.014,243.841L227.288,244.282L227.559,244.725L227.827,245.169L228.091,245.614L228.353,246.06L228.612,246.508L228.868,246.957L229.121,247.407L229.371,247.859L229.618,248.311L229.862,248.766L230.103,249.221L230.341,249.677L230.576,250.134L230.808,250.593L231.036,251.052L231.262,251.513L231.486,251.975L231.706,252.438L231.923,252.902L232.137,253.367L232.347,253.832L232.556,254.3L232.761,254.768L232.962,255.236L233.161,255.706L233.357,256.176L233.55,256.649L233.74,257.121L233.927,257.595L234.111,258.07L234.292,258.544L234.47,259.02L234.645,259.497L234.817,259.975L234.986,260.453L235.152,260.932L235.315,261.413L235.475,261.894L235.632,262.375L235.786,262.857L235.937,263.34L236.084,263.823L236.229,264.308L236.371,264.793L236.51,265.278L236.646,265.765L236.779,266.251L236.909,266.738L237.036,267.227L237.16,267.715L237.281,268.204L237.399,268.695L237.514,269.185L237.626,269.674L237.735,270.166L237.841,270.658L237.944,271.15L238.044,271.643L238.141,272.135L238.235,272.629L238.326,273.123L238.414,273.617L238.499,274.112L238.581,274.607L238.66,275.102L238.736,275.598L238.809,276.094L238.879,276.591L238.946,277.087L239.01,277.584L239.072,278.081L239.13,278.579L239.185,279.077L239.237,279.575L239.286,280.073L239.332,280.571L239.376,281.071L239.416,281.568L239.453,282.068L239.487,282.567L239.519,283.066L239.547,283.566L239.572,284.065L239.595,284.565L239.614,285.064L239.631,285.565L239.644,286.064L239.654,286.565L239.662,287.065L239.666,287.565L239.668,288.064L239.666,288.564L239.662,289.064L239.654,289.564L239.644,290.065L239.631,290.564L239.614,291.065L239.595,291.564L239.572,292.063L239.547,292.563L239.519,293.063L239.487,293.562L239.453,294.061L239.416,294.56L239.376,295.058L239.332,295.557L239.286,296.056L239.237,296.554L239.185,297.052L239.13,297.55L239.072,298.047L239.01,298.545L238.946,299.042L238.879,299.538L238.809,300.035L238.736,300.531L238.66,301.027L238.581,301.522L238.499,302.017L238.414,302.512L238.326,303.006L238.235,303.5L238.141,303.993L238.044,304.486L237.944,304.979L237.841,305.472L237.735,305.963L237.626,306.454L237.514,306.944L237.399,307.434L237.281,307.924L237.16,308.414L237.036,308.902L236.909,309.39L236.779,309.878L236.646,310.364L236.51,310.851L236.371,311.336L236.229,311.821L236.085,312.305L235.937,312.789L235.786,313.272L235.632,313.754L235.475,314.235L235.315,314.716L235.152,315.197L234.986,315.676L234.817,316.154L234.645,316.631L234.47,317.109L234.292,317.585L234.111,318.06L233.927,318.534L233.74,319.007L233.55,319.48L233.357,319.952L233.162,320.422L232.963,320.892L232.761,321.361L232.555,321.83L232.347,322.297L232.136,322.762L231.923,323.227L231.706,323.691L231.486,324.154L231.262,324.616L231.036,325.077L230.808,325.536L230.575,325.995L230.341,326.452L230.103,326.908L229.862,327.363L229.617,327.818L229.371,328.27L229.121,328.722L228.868,329.172L228.612,329.621L228.353,330.068L228.091,330.515L227.826,330.96L227.559,331.404L227.288,331.847L227.014,332.288L226.737,332.727L226.458,333.166L226.175,333.603L225.889,334.039L225.6,334.473L225.309,334.906L225.015,335.336L224.717,335.766L224.417,336.195L224.113,336.622L223.807,337.046L223.498,337.47L223.185,337.893L222.87,338.313L222.553,338.731L222.232,339.148L221.907,339.564L221.58,339.978L221.251,340.39L220.918,340.801L220.583,341.209L220.244,341.617L219.903,342.022L219.559,342.425L219.212,342.826L218.862,343.226L218.509,343.625L218.153,344.021L217.795,344.415L217.434,344.807L217.069,345.198L216.702,345.587L216.332,345.973L215.96,346.358L215.584,346.741L215.233,347.094L156.515,405.812L156.163,406.162L155.779,406.539L155.394,406.911L155.009,407.28L154.62,407.647L154.228,408.012L153.836,408.373L153.443,408.732L153.046,409.087L152.648,409.44L152.248,409.79L151.846,410.138L151.443,410.482L151.038,410.823L150.63,411.162L150.222,411.497L149.811,411.83L149.4,412.159L148.986,412.486L148.57,412.81L148.153,413.131L147.734,413.449L147.314,413.764L146.891,414.076L146.469,414.385L146.043,414.692L145.616,414.995L145.188,415.296L144.758,415.593L144.327,415.888L143.895,416.179L143.461,416.468L143.024,416.754L142.587,417.036L142.15,417.316L141.71,417.593L141.268,417.866L140.825,418.137L140.381,418.406L139.937,418.67L139.491,418.931L139.042,419.191L138.592,419.447L138.143,419.7L137.692,419.949L137.239,420.196L136.785,420.44L136.329,420.682L135.873,420.92L135.416,421.154L134.957,421.386L134.499,421.615L134.038,421.841L133.575,422.064L133.112,422.284L132.648,422.501L132.184,422.715L131.719,422.926L131.251,423.134L130.782,423.339L130.314,423.541L129.845,423.74L129.374,423.936L128.902,424.129L128.429,424.319L127.955,424.506L127.481,424.69L127.007,424.871L126.529,425.049L126.052,425.224L125.576,425.395L125.098,425.564L124.617,425.731L124.138,425.893L123.656,426.054L123.175,426.211L122.693,426.364L122.211,426.515L121.727,426.663L121.241,426.808L120.757,426.95L120.273,427.089L119.786,427.225L119.299,427.358L118.811,427.488L118.323,427.615L117.835,427.739L117.346,427.86L116.856,427.978L116.366,428.092L115.875,428.204L115.384,428.314L114.893,428.419L114.4,428.522L113.907,428.622L113.415,428.719L112.922,428.813L112.427,428.904L111.933,428.992L111.438,429.078L110.943,429.159L110.449,429.238L109.953,429.315L109.456,429.388L108.96,429.458L108.463,429.525L107.966,429.589L107.469,429.65L106.971,429.708L106.474,429.763L105.976,429.816L105.477,429.865L104.978,429.911L104.48,429.954L103.983,429.994L103.482,430.032L102.982,430.066L102.484,430.097L101.985,430.126L101.485,430.151L100.985,430.173L100.485,430.193L99.985,430.209L99.486,430.223L98.9857,430.233L98.4853,430.24L97.9862,430.245L97.4858,430.246ZM97.4858,405.246L97.8368,405.245L98.1878,405.242L98.5388,405.237L98.8897,405.23L99.2406,405.22L99.5915,405.209L99.9423,405.195L100.293,405.179L100.644,405.162L100.994,405.142L101.345,405.12L101.695,405.096L102.045,405.069L102.395,405.041L102.745,405.011L103.095,404.978L103.445,404.944L103.794,404.907L104.143,404.869L104.492,404.828L104.841,404.785L105.19,404.74L105.538,404.693L105.887,404.644L106.235,404.592L106.582,404.539L106.93,404.484L107.277,404.426L107.624,404.366L107.97,404.305L108.317,404.241L108.663,404.175L109.008,404.107L109.354,404.037L109.699,403.965L110.043,403.89L110.387,403.814L110.731,403.736L111.075,403.655L111.418,403.572L111.761,403.488L112.103,403.401L112.445,403.312L112.786,403.221L113.127,403.128L113.467,403.033L113.808,402.935L114.147,402.836L114.486,402.735L114.825,402.631L115.163,402.525L115.5,402.418L115.837,402.308L116.174,402.196L116.51,402.082L116.845,401.966L117.18,401.847L117.514,401.727L117.848,401.605L118.181,401.48L118.513,401.354L118.845,401.225L119.176,401.094L119.507,400.961L119.837,400.826L120.166,400.689L120.494,400.55L120.822,400.409L121.149,400.266L121.476,400.12L121.802,399.973L122.127,399.823L122.451,399.671L122.775,399.518L123.097,399.362L123.419,399.204L123.741,399.044L124.061,398.882L124.381,398.717L124.7,398.551L125.018,398.383L125.335,398.212L125.652,398.039L125.967,397.865L126.282,397.688L126.596,397.509L126.909,397.328L127.221,397.145L127.532,396.96L127.843,396.773L128.152,396.583L128.461,396.392L128.768,396.198L129.075,396.003L129.38,395.805L129.685,395.605L129.989,395.403L130.292,395.199L130.593,394.993L130.894,394.785L131.194,394.575L131.492,394.362L131.79,394.148L132.087,393.931L132.382,393.713L132.677,393.492L132.97,393.269L133.263,393.044L133.554,392.817L133.844,392.588L134.133,392.357L134.421,392.124L134.708,391.888L134.993,391.651L135.278,391.411L135.561,391.169L135.843,390.926L136.124,390.68L136.404,390.432L136.682,390.182L136.959,389.93L137.235,389.676L137.51,389.419L137.784,389.161L138.056,388.9L138.327,388.638L138.597,388.373L138.865,388.106L197.528,329.444L197.794,329.175L198.059,328.906L198.322,328.635L198.582,328.362L198.841,328.089L199.097,327.814L199.351,327.538L199.603,327.261L199.853,326.982L200.101,326.702L200.347,326.422L200.591,326.139L200.832,325.856L201.072,325.572L201.31,325.286L201.545,324.999L201.778,324.712L202.009,324.423L202.238,324.132L202.465,323.841L202.69,323.549L202.913,323.255L203.134,322.961L203.353,322.665L203.569,322.369L203.784,322.071L203.996,321.772L204.206,321.473L204.414,321.172L204.621,320.87L204.825,320.568L205.026,320.264L205.226,319.959L205.424,319.653L205.62,319.347L205.813,319.039L206.005,318.731L206.194,318.421L206.381,318.111L206.566,317.8L206.749,317.488L206.93,317.175L207.109,316.861L207.286,316.546L207.461,316.23L207.633,315.914L207.804,315.597L207.972,315.279L208.139,314.96L208.303,314.64L208.465,314.319L208.625,313.998L208.783,313.676L208.939,313.353L209.093,313.03L209.244,312.705L209.394,312.38L209.542,312.055L209.687,311.728L209.83,311.401L209.972,311.073L210.111,310.744L210.248,310.415L210.383,310.085L210.516,309.755L210.646,309.424L210.775,309.092L210.902,308.759L211.026,308.426L211.148,308.093L211.269,307.759L211.387,307.424L211.503,307.088L211.617,306.752L211.729,306.416L211.839,306.079L211.947,305.741L212.052,305.403L212.156,305.065L212.257,304.726L212.357,304.386L212.454,304.046L212.549,303.706L212.642,303.365L212.733,303.023L212.822,302.681L212.909,302.339L212.994,301.996L213.076,301.653L213.157,301.31L213.235,300.966L213.312,300.622L213.386,300.277L213.458,299.932L213.528,299.587L213.596,299.241L213.662,298.895L213.726,298.549L213.788,298.202L213.847,297.856L213.905,297.508L213.96,297.161L214.014,296.813L214.065,296.465L214.114,296.117L214.161,295.769L214.206,295.42L214.249,295.071L214.29,294.722L214.329,294.373L214.365,294.023L214.4,293.674L214.432,293.324L214.463,292.974L214.491,292.624L214.517,292.274L214.541,291.923L214.563,291.573L214.583,291.222L214.601,290.872L214.616,290.521L214.63,290.17L214.641,289.819L214.651,289.468L214.658,289.117L214.663,288.766L214.667,288.415L214.668,288.064L214.667,287.713L214.663,287.362L214.658,287.011L214.651,286.661L214.641,286.31L214.63,285.959L214.616,285.608L214.601,285.257L214.583,284.907L214.563,284.556L214.541,284.206L214.517,283.855L214.491,283.505L214.463,283.155L214.432,282.805L214.4,282.455L214.365,282.106L214.329,281.756L214.29,281.407L214.249,281.058L214.206,280.709L214.161,280.36L214.114,280.012L214.065,279.664L214.014,279.316L213.96,278.968L213.905,278.621L213.847,278.273L213.788,277.926L213.726,277.58L213.662,277.234L213.596,276.888L213.528,276.542L213.458,276.197L213.386,275.852L213.312,275.507L213.235,275.163L213.157,274.819L213.076,274.475L212.994,274.132L212.909,273.79L212.822,273.447L212.733,273.106L212.642,272.764L212.549,272.423L212.454,272.083L212.357,271.743L212.257,271.403L212.156,271.064L212.052,270.726L211.947,270.387L211.839,270.05L211.729,269.713L211.617,269.376L211.503,269.041L211.387,268.705L211.269,268.37L211.148,268.036L211.026,267.703L210.902,267.369L210.775,267.037L210.646,266.705L210.516,266.374L210.383,266.044L210.248,265.714L210.111,265.384L209.972,265.056L209.83,264.728L209.687,264.401L209.542,264.074L209.394,263.749L209.244,263.424L209.093,263.099L208.939,262.776L208.783,262.453L208.625,262.131L208.465,261.809L208.303,261.489L208.139,261.169L207.972,260.85L207.804,260.532L207.633,260.215L207.461,259.898L207.286,259.583L207.109,259.268L206.93,258.954L206.749,258.641L206.566,258.329L206.381,258.018L206.194,257.708L206.005,257.398L205.813,257.09L205.62,256.782L205.424,256.475L205.226,256.17L205.026,255.865L204.825,255.561L204.621,255.259L204.414,254.957L204.206,254.656L203.996,254.356L203.784,254.058L203.569,253.76L203.353,253.463L203.134,253.168L202.913,252.873L202.69,252.58L202.465,252.288L202.238,251.996L202.009,251.706L201.778,251.417L201.545,251.129L201.31,250.843L201.072,250.557L200.832,250.273L200.591,249.989L200.347,249.707L200.101,249.426L199.853,249.147L199.603,248.868L199.351,248.591L199.097,248.315L198.841,248.04L198.582,247.767L198.322,247.494L198.059,247.223L197.794,246.953L197.528,246.685L184.801,233.958L184.532,233.691L184.263,233.427L183.992,233.164L183.719,232.904L183.446,232.645L183.171,232.389L182.895,232.135L182.618,231.883L182.339,231.633L182.059,231.385L181.778,231.139L181.496,230.895L181.213,230.653L180.929,230.414L180.643,230.176L180.356,229.941L180.068,229.708L179.779,229.476L179.489,229.247L179.198,229.02L178.906,228.795L178.612,228.573L178.318,228.352L178.022,228.133L177.726,227.917L177.428,227.702L177.129,227.49L176.83,227.28L176.529,227.071L176.227,226.865L175.924,226.661L175.621,226.459L175.316,226.26L175.01,226.062L174.704,225.866L174.396,225.673L174.088,225.481L173.778,225.292L173.468,225.105L173.157,224.919L172.845,224.736L172.532,224.555L172.218,224.376L171.903,224.2L171.587,224.025L171.271,223.852L170.954,223.682L170.635,223.513L170.317,223.347L169.997,223.183L169.676,223.021L169.355,222.861L169.033,222.703L168.71,222.547L168.387,222.393L168.062,222.241L167.737,222.092L167.411,221.944L167.085,221.799L166.758,221.655L166.43,221.514L166.101,221.375L165.772,221.238L165.442,221.103L165.112,220.97L164.781,220.84L164.449,220.711L164.116,220.584L163.783,220.46L163.45,220.337L163.115,220.217L162.781,220.099L162.445,219.983L162.109,219.869L161.773,219.757L161.436,219.647L161.098,219.539L160.76,219.433L160.422,219.33L160.083,219.228L159.743,219.129L159.403,219.032L159.063,218.937L158.722,218.843L158.38,218.752L158.038,218.664L157.696,218.577L157.353,218.492L157.01,218.409L156.667,218.329L156.323,218.25L155.979,218.174L155.634,218.1L155.289,218.027L154.944,217.957L154.598,217.889L154.252,217.823L153.906,217.76L153.559,217.698L153.212,217.638L152.865,217.581L152.518,217.525L152.17,217.472L151.822,217.421L151.474,217.372L151.126,217.324L150.777,217.279L150.428,217.237L150.079,217.196L149.73,217.157L149.38,217.12L149.031,217.086L148.681,217.054L148.331,217.023L147.981,216.995L147.631,216.969L147.28,216.945L146.93,216.923L146.579,216.903L146.229,216.885L145.878,216.869L145.527,216.856L145.176,216.844L144.825,216.835L144.474,216.828L144.123,216.822L143.772,216.819L143.421,216.818L143.07,216.819L142.719,216.822L142.368,216.828L142.017,216.835L141.667,216.844L141.316,216.856L140.965,216.869L140.614,216.885L140.264,216.903L139.913,216.923L139.563,216.945L139.212,216.969L138.862,216.995L138.512,217.023L138.162,217.054L137.812,217.086L137.463,217.12L137.113,217.157L136.764,217.196L136.415,217.237L136.066,217.279L135.717,217.324L135.369,217.372L135.021,217.421L134.673,217.472L134.325,217.525L133.977,217.581L133.63,217.638L133.283,217.698L132.937,217.76L132.59,217.823L132.245,217.889L131.899,217.957L131.554,218.027L131.209,218.1L130.864,218.174L130.52,218.25L130.176,218.329L129.832,218.409L129.489,218.492L129.147,218.577L128.804,218.664L128.463,218.752L128.121,218.843L127.78,218.937L127.44,219.032L127.1,219.129L126.76,219.228L126.421,219.33L126.082,219.433L125.744,219.539L125.407,219.647L125.07,219.757L124.733,219.869L124.397,219.983L124.062,220.099L123.727,220.217L123.393,220.337L123.059,220.46L122.726,220.584L122.394,220.711L122.062,220.84L121.731,220.97L121.4,221.103L121.071,221.238L120.741,221.375L120.413,221.514L120.085,221.655L119.758,221.799L119.431,221.944L119.106,222.092L118.78,222.241L118.456,222.393L118.133,222.547L117.81,222.703L117.488,222.861L117.166,223.021L116.846,223.183L116.526,223.347L116.207,223.513L115.889,223.682L115.572,223.852L115.255,224.025L114.94,224.2L114.625,224.376L114.311,224.555L113.998,224.736L113.686,224.919L113.375,225.105L113.064,225.292L112.755,225.481L112.447,225.673L112.139,225.866L111.832,226.062L111.527,226.26L111.222,226.459L110.918,226.661L110.616,226.865L110.314,227.071L110.013,227.28L109.713,227.49L109.415,227.702L109.117,227.917L108.82,228.133L108.525,228.352L108.23,228.573L107.937,228.795L107.645,229.02L107.353,229.247L107.063,229.476L106.774,229.708L106.486,229.941L106.2,230.176L105.914,230.414L105.63,230.653L105.346,230.895L105.064,231.139L104.783,231.385L104.504,231.633L104.225,231.883L103.948,232.135L103.672,232.389L103.397,232.645L103.123,232.904L102.851,233.164L102.58,233.427L102.31,233.691L102.042,233.958L43.3794,292.621L43.1127,292.889L42.848,293.159L42.5854,293.43L42.3249,293.702L42.0665,293.976L41.8102,294.25L41.556,294.527L41.3039,294.804L41.0539,295.082L40.8059,295.362L40.5601,295.643L40.3163,295.925L40.0747,296.208L39.8351,296.493L39.5976,296.778L39.3623,297.065L39.129,297.353L38.8978,297.642L38.6687,297.932L38.4417,298.223L38.2167,298.516L37.9939,298.809L37.7732,299.103L37.5545,299.399L37.338,299.696L37.1235,299.993L36.9112,300.292L36.7009,300.592L36.4927,300.892L36.2866,301.194L36.0826,301.497L35.8807,301.801L35.6809,302.105L35.4832,302.411L35.2876,302.718L35.094,303.025L34.9026,303.334L34.7132,303.643L34.526,303.953L34.3408,304.265L34.1577,304.577L33.9767,304.89L33.7979,305.204L33.6211,305.518L33.4463,305.834L33.2737,306.151L33.1032,306.468L32.9348,306.786L32.7685,307.105L32.6042,307.425L32.4421,307.745L32.282,308.066L32.124,308.388L31.9682,308.711L31.8144,309.035L31.6627,309.359L31.5131,309.684L31.3656,310.01L31.2202,310.336L31.0768,310.664L30.9356,310.991L30.7965,311.32L30.6594,311.649L30.5245,311.979L30.3916,312.31L30.2609,312.641L30.1322,312.973L30.0056,313.305L29.8811,313.638L29.7587,313.972L29.6384,314.306L29.5202,314.641L29.4041,314.976L29.29,315.312L29.1781,315.648L29.0683,315.986L28.9605,316.323L28.8549,316.661L28.7513,317L28.6498,317.339L28.5504,317.678L28.4531,318.018L28.3579,318.359L28.2648,318.7L28.1738,319.041L28.0849,319.383L27.9981,319.725L27.9133,320.068L27.8307,320.411L27.7501,320.755L27.6717,321.098L27.5953,321.443L27.521,321.787L27.4488,322.132L27.3788,322.478L27.3108,322.823L27.2448,323.169L27.181,323.515L27.1193,323.862L27.0597,324.209L27.0021,324.556L26.9467,324.904L26.8933,325.251L26.8421,325.599L26.7929,325.947L26.7458,326.296L26.7009,326.644L26.658,326.993L26.6172,327.342L26.5785,327.692L26.5418,328.041L26.5073,328.391L26.4749,328.741L26.4445,329.091L26.4163,329.441L26.3901,329.791L26.3661,330.141L26.3441,330.492L26.3242,330.842L26.3065,331.193L26.2908,331.544L26.2772,331.894L26.2657,332.245L26.2562,332.596L26.2489,332.947L26.2437,333.298L26.2406,333.649L26.2395,334L26.2406,334.351L26.2437,334.702L26.2489,335.053L26.2562,335.404L26.2657,335.755L26.2772,336.106L26.2908,336.456L26.3065,336.807L26.3242,337.158L26.3441,337.508L26.3661,337.859L26.3901,338.209L26.4163,338.559L26.4445,338.909L26.4749,339.259L26.5073,339.609L26.5418,339.959L26.5785,340.308L26.6172,340.658L26.658,341.007L26.7009,341.356L26.7458,341.704L26.7929,342.053L26.8421,342.401L26.8933,342.749L26.9467,343.096L27.0021,343.444L27.0597,343.791L27.1193,344.138L27.181,344.485L27.2448,344.831L27.3108,345.177L27.3787,345.522L27.4488,345.868L27.521,346.213L27.5953,346.557L27.6717,346.902L27.7501,347.245L27.8307,347.589L27.9133,347.932L27.9981,348.275L28.0849,348.617L28.1738,348.959L28.2648,349.3L28.3579,349.641L28.4531,349.982L28.5504,350.322L28.6498,350.661L28.7513,351L28.8548,351.339L28.9605,351.677L29.0683,352.014L29.1781,352.352L29.29,352.688L29.4041,353.024L29.5202,353.359L29.6384,353.694L29.7587,354.028L29.8811,354.362L30.0056,354.695L30.1322,355.027L30.2609,355.359L30.3916,355.69L30.5245,356.021L30.6594,356.351L30.7965,356.68L30.9356,357.009L31.0768,357.336L31.2202,357.664L31.3656,357.99L31.5131,358.316L31.6627,358.641L31.8144,358.965L31.9682,359.289L32.124,359.612L32.282,359.934L32.4421,360.255L32.6042,360.575L32.7685,360.895L32.9348,361.214L33.1032,361.532L33.2737,361.849L33.4463,362.166L33.6211,362.482L33.7978,362.796L33.9767,363.11L34.1577,363.423L34.3408,363.735L34.526,364.047L34.7132,364.357L34.9026,364.666L35.094,364.975L35.2875,365.282L35.4832,365.589L35.6809,365.895L35.8807,366.199L36.0826,366.503L36.2866,366.806L36.4927,367.108L36.7009,367.408L36.9112,367.708L37.1235,368.007L37.338,368.304L37.5545,368.601L37.7732,368.897L37.9939,369.191L38.2167,369.484L38.4417,369.777L38.6687,370.068L38.8978,370.358L39.129,370.647L39.3623,370.935L39.5976,371.222L39.8351,371.507L40.0747,371.792L40.3163,372.075L40.5601,372.357L40.8059,372.638L41.0539,372.918L41.3039,373.196L41.556,373.473L41.8102,373.75L42.0665,374.024L42.3249,374.298L42.5854,374.57L42.848,374.841L43.1127,375.111L43.3794,375.379L56.1064,388.106L56.3748,388.373L56.6446,388.638L56.9156,388.9L57.1879,389.161L57.4615,389.419L57.7363,389.676L58.0123,389.93L58.2896,390.182L58.5681,390.432L58.8478,390.68L59.1287,390.926L59.4108,391.169L59.694,391.411L59.9785,391.651L60.2641,391.888L60.5508,392.124L60.8387,392.357L61.1277,392.588L61.4178,392.817L61.7091,393.044L62.0014,393.269L62.2948,393.492L62.5893,393.713L62.8848,393.931L63.1814,394.148L63.4791,394.362L63.7778,394.575L64.0775,394.785L64.3783,394.993L64.68,395.199L64.9827,395.403L65.2865,395.605L65.5911,395.805L65.8968,396.003L66.2034,396.198L66.511,396.392L66.8195,396.583L67.1289,396.773L67.4392,396.96L67.7505,397.145L68.0626,397.328L68.3756,397.509L68.6895,397.688L69.0043,397.865L69.3199,398.039L69.6363,398.212L69.9536,398.383L70.2717,398.551L70.5906,398.717L70.9103,398.882L71.2308,399.044L71.5521,399.204L71.8742,399.362L72.197,399.518L72.5206,399.671L72.8449,399.823L73.1699,399.973L73.4957,400.12L73.8222,400.266L74.1494,400.409L74.4773,400.55L74.8058,400.689L75.135,400.826L75.4649,400.961L75.7954,401.094L76.1266,401.225L76.4584,401.354L76.7908,401.48L77.1239,401.605L77.4575,401.727L77.7917,401.847L78.1265,401.966L78.4619,402.082L78.7978,402.196L79.1343,402.308L79.4713,402.418L79.8088,402.525L80.1469,402.631L80.4855,402.735L80.8245,402.836L81.1641,402.935L81.5041,403.033L81.8446,403.128L82.1856,403.221L82.527,403.312L82.8688,403.401L83.2111,403.488L83.5537,403.572L83.8968,403.655L84.2403,403.736L84.5842,403.814L84.9284,403.89L85.273,403.965L85.618,404.037L85.9633,404.107L86.309,404.175L86.6549,404.241L87.0012,404.305L87.3478,404.366L87.6947,404.426L88.0419,404.484L88.3893,404.539L88.737,404.592L89.085,404.644L89.4332,404.693L89.7816,404.74L90.1303,404.785L90.4791,404.828L90.8282,404.869L91.1775,404.907L91.527,404.944L91.8766,404.978L92.2264,405.011L92.5763,405.041L92.9264,405.069L93.2766,405.096L93.6269,405.12L93.9774,405.142L94.3279,405.162L94.6786,405.179L95.0293,405.195L95.3801,405.209L95.731,405.22L96.0819,405.23L96.4328,405.237L96.7838,405.242L97.1348,405.245L97.4858,405.246Z" style="fill:black;"/>
            </g>
            <g>
                <path d="M288.579,239.668L288.079,239.666L287.579,239.662L287.079,239.654L286.578,239.644L286.079,239.631L285.579,239.614L285.079,239.595L284.58,239.572L284.08,239.547L283.581,239.519L283.082,239.487L282.582,239.453L282.083,239.416L281.585,239.376L281.086,239.332L280.587,239.286L280.089,239.237L279.591,239.185L279.094,239.13L278.596,239.072L278.098,239.01L277.601,238.946L277.105,238.879L276.608,238.809L276.112,238.736L275.616,238.66L275.121,238.581L274.626,238.499L274.131,238.414L273.637,238.326L273.143,238.235L272.65,238.141L272.157,238.044L271.664,237.944L271.172,237.841L270.68,237.735L270.189,237.626L269.699,237.514L269.209,237.399L268.719,237.281L268.229,237.16L267.741,237.036L267.253,236.909L266.765,236.779L266.279,236.646L265.792,236.51L265.307,236.371L264.822,236.229L264.338,236.084L263.854,235.937L263.371,235.786L262.889,235.632L262.408,235.475L261.927,235.315L261.446,235.152L260.968,234.986L260.489,234.817L260.012,234.645L259.535,234.47L259.058,234.292L258.584,234.111L258.109,233.927L257.635,233.74L257.163,233.55L256.691,233.357L256.22,233.161L255.751,232.962L255.282,232.761L254.814,232.556L254.346,232.347L253.881,232.137L253.416,231.923L252.952,231.706L252.489,231.486L252.027,231.262L251.566,231.036L251.107,230.808L250.648,230.576L250.191,230.341L249.735,230.103L249.28,229.862L248.825,229.618L248.373,229.371L247.921,229.121L247.471,228.868L247.022,228.612L246.574,228.353L246.128,228.091L245.683,227.827L245.239,227.559L244.796,227.288L244.355,227.014L243.915,226.737L243.477,226.458L243.04,226.175L242.604,225.889L242.17,225.601L241.737,225.309L241.306,225.015L240.877,224.717L240.448,224.417L240.021,224.113L239.597,223.807L239.173,223.498L238.751,223.185L238.33,222.87L237.912,222.553L237.494,222.231L237.079,221.907L236.665,221.581L236.253,221.251L235.843,220.918L235.434,220.583L235.027,220.244L234.622,219.903L234.218,219.559L233.816,219.212L233.416,218.862L233.019,218.509L232.622,218.153L232.228,217.795L231.836,217.434L231.445,217.069L231.056,216.702L230.67,216.332L230.285,215.959L229.902,215.584L229.55,215.233L216.766,202.45L216.416,202.098L216.041,201.715L215.668,201.33L215.298,200.944L214.931,200.555L214.566,200.164L214.205,199.772L213.847,199.378L213.491,198.981L213.138,198.584L212.788,198.184L212.441,197.782L212.097,197.378L211.756,196.973L211.417,196.566L211.082,196.157L210.749,195.747L210.419,195.335L210.093,194.921L209.769,194.506L209.447,194.088L209.129,193.669L208.815,193.249L208.502,192.827L208.193,192.403L207.887,191.979L207.583,191.552L207.283,191.123L206.985,190.694L206.691,190.263L206.399,189.829L206.111,189.396L205.825,188.96L205.542,188.523L205.263,188.085L204.986,187.645L204.712,187.204L204.441,186.761L204.173,186.317L203.909,185.872L203.647,185.425L203.388,184.978L203.132,184.529L202.879,184.079L202.629,183.627L202.382,183.175L202.138,182.72L201.897,182.265L201.659,181.809L201.424,181.352L201.192,180.893L200.964,180.434L200.738,179.973L200.514,179.511L200.294,179.048L200.077,178.584L199.863,178.119L199.653,177.654L199.444,177.186L199.239,176.718L199.038,176.249L198.839,175.78L198.643,175.309L198.45,174.837L198.26,174.364L198.073,173.891L197.889,173.417L197.708,172.942L197.53,172.466L197.355,171.988L197.183,171.511L197.014,171.032L196.848,170.554L196.685,170.073L196.525,169.592L196.368,169.111L196.214,168.629L196.063,168.146L195.916,167.662L195.771,167.178L195.629,166.693L195.49,166.208L195.354,165.721L195.221,165.234L195.091,164.747L194.964,164.26L194.84,163.771L194.719,163.281L194.601,162.791L194.486,162.301L194.374,161.811L194.265,161.32L194.159,160.829L194.056,160.336L193.956,159.843L193.859,159.35L193.765,158.857L193.674,158.363L193.586,157.868L193.501,157.374L193.419,156.879L193.34,156.384L193.264,155.888L193.191,155.392L193.121,154.895L193.054,154.399L192.99,153.902L192.928,153.404L192.87,152.906L192.815,152.409L192.763,151.911L192.714,151.413L192.668,150.914L192.624,150.415L192.584,149.917L192.547,149.418L192.513,148.918L192.481,148.419L192.453,147.92L192.428,147.42L192.405,146.92L192.386,146.421L192.37,145.922L192.356,145.421L192.346,144.921L192.338,144.422L192.334,143.921L192.332,143.421L192.334,142.922L192.338,142.421L192.346,141.921L192.356,141.422L192.37,140.921L192.386,140.421L192.405,139.922L192.428,139.422L192.453,138.922L192.481,138.423L192.513,137.924L192.547,137.425L192.584,136.925L192.624,136.427L192.668,135.928L192.714,135.43L192.763,134.932L192.815,134.434L192.87,133.936L192.929,133.438L192.99,132.941L193.054,132.444L193.121,131.948L193.191,131.451L193.264,130.954L193.34,130.459L193.419,129.964L193.501,129.469L193.586,128.975L193.674,128.48L193.765,127.986L193.859,127.492L193.956,127L194.056,126.507L194.159,126.014L194.265,125.523L194.374,125.032L194.486,124.541L194.601,124.051L194.719,123.561L194.84,123.072L194.964,122.583L195.091,122.095L195.221,121.609L195.354,121.122L195.49,120.635L195.629,120.15L195.771,119.665L195.916,119.18L196.063,118.697L196.214,118.214L196.368,117.732L196.525,117.251L196.685,116.77L196.848,116.289L197.014,115.81L197.183,115.332L197.355,114.854L197.53,114.377L197.708,113.901L197.889,113.426L198.073,112.952L198.26,112.479L198.45,112.006L198.643,111.533L198.839,111.063L199.038,110.593L199.24,110.124L199.445,109.656L199.652,109.19L199.863,108.723L200.077,108.259L200.294,107.795L200.514,107.332L200.738,106.87L200.963,106.409L201.192,105.95L201.424,105.491L201.659,105.034L201.897,104.577L202.138,104.122L202.382,103.669L202.629,103.215L202.879,102.764L203.132,102.314L203.388,101.865L203.647,101.417L203.909,100.971L204.173,100.526L204.441,100.082L204.712,99.6391L204.986,99.1976L205.263,98.758L205.542,98.3198L205.825,97.8825L206.111,97.4471L206.399,97.0131L206.691,96.5802L206.985,96.149L207.283,95.7196L207.583,95.2911L207.887,94.864L208.193,94.4392L208.502,94.0157L208.815,93.5934L209.13,93.1731L209.448,92.7545L209.769,92.3371L210.093,91.9213L210.419,91.5077L210.749,91.0957L211.082,90.6849L211.417,90.2764L211.756,89.8696L212.097,89.4641L212.441,89.0608L212.788,88.6592L213.138,88.2592L213.491,87.861L213.847,87.465L214.205,87.0708L214.567,86.6784L214.931,86.2877L215.298,85.899L215.668,85.5123L216.041,85.1277L216.416,84.7452L216.766,84.3924L275.485,25.6735L275.838,25.3232L276.22,24.9478L276.605,24.5749L276.992,24.2052L277.38,23.8382L277.771,23.4737L278.164,23.1124L278.558,22.7538L278.954,22.3982L279.352,22.0455L279.752,21.6955L280.154,21.3483L280.557,21.004L280.962,20.6627L281.369,20.3244L281.778,19.989L282.188,19.6563L282.601,19.3266L283.014,18.9998L283.43,18.6759L283.847,18.3548L284.266,18.0366L284.686,17.7218L285.108,17.4095L285.532,17.1001L285.957,16.794L286.384,16.4906L286.812,16.1902L287.242,15.8927L287.673,15.5981L288.106,15.3064L288.54,15.0179L288.975,14.7323L289.413,14.4495L289.851,14.1698L290.291,13.8931L290.732,13.6193L291.174,13.3485L291.618,13.0806L292.063,12.8159L292.51,12.5539L292.958,12.295L293.407,12.0391L293.857,11.7862L294.308,11.5363L294.761,11.2893L295.215,11.0453L295.67,10.8045L296.126,10.5665L296.584,10.3315L297.042,10.0995L297.502,9.87063L297.963,9.64457L298.424,9.42163L298.888,9.20155L299.352,8.98455L299.816,8.77068L300.282,8.55968L300.749,8.35175L301.217,8.14674L301.686,7.94462L302.156,7.74576L302.627,7.54983L303.098,7.35682L303.571,7.16684L304.045,6.97977L304.519,6.796L304.994,6.61493L305.47,6.43696L305.947,6.26206L306.425,6.09006L306.903,5.92115L307.382,5.7553L307.862,5.59237L308.343,5.43236L308.825,5.27543L309.307,5.12143L309.79,4.97049L310.273,4.8226L310.757,4.67774L311.242,4.53581L311.728,4.39685L312.214,4.26086L312.701,4.12798L313.188,3.99803L313.677,3.87103L314.165,3.74717L314.654,3.62618L315.144,3.50822L315.634,3.39336L316.125,3.28136L316.616,3.17235L317.107,3.06641L317.6,2.96344L318.092,2.86341L318.585,2.76642L319.079,2.67244L319.573,2.58141L320.067,2.49338L320.562,2.40836L321.057,2.32631L321.552,2.24726L322.048,2.17123L322.544,2.09812L323.04,2.02801L323.537,1.96091L324.034,1.8968L324.531,1.83566L325.029,1.77751L325.526,1.72235L326.025,1.67016L326.523,1.62097L327.021,1.57476L327.52,1.53153L328.019,1.49128L328.518,1.45401L329.017,1.41973L329.516,1.38843L330.016,1.36011L330.515,1.33478L331.015,1.31242L331.514,1.29305L332.014,1.27665L332.514,1.26324L333.014,1.25281L333.514,1.24536L334.014,1.24089L334.514,1.2394L335.014,1.24089L335.514,1.24536L336.014,1.25281L336.514,1.26324L337.014,1.27665L337.514,1.29305L338.014,1.31242L338.513,1.33478L339.013,1.36011L339.512,1.38843L340.012,1.41973L340.511,1.45401L341.01,1.49127L341.509,1.53153L342.007,1.57476L342.506,1.62097L343.004,1.67017L343.502,1.72234L344,1.77751L344.497,1.83566L344.994,1.89678L345.492,1.96094L345.988,2.02803L346.484,2.0981L346.981,2.17119L347.477,2.24729L347.972,2.32633L348.467,2.40836L348.962,2.49342L349.456,2.58141L349.95,2.67242L350.443,2.76642L350.936,2.86343L351.429,2.96344L351.921,3.06641L352.412,3.17235L352.904,3.2813L353.394,3.39327L353.885,3.50829L354.375,3.62627L354.863,3.74717L355.352,3.87103L355.84,3.99803L356.327,4.12796L356.814,4.26084L357.3,4.39687L357.786,4.53573L358.271,4.67763L358.755,4.82271L359.239,4.97061L359.721,5.12141L360.204,5.27542L360.685,5.43238L361.166,5.59222L361.646,5.7553L362.125,5.92117L362.604,6.09006L363.081,6.26203L363.558,6.43696L364.035,6.61509L364.51,6.79597L364.984,6.97979L365.457,7.16684L365.93,7.35679L366.401,7.54966L366.873,7.74579L367.343,7.94482L367.811,8.14674L368.279,8.35175L368.746,8.55968L369.212,8.77045L369.677,8.98455L370.141,9.20175L370.604,9.42162L371.066,9.64457L371.527,9.87063L371.986,10.0996L372.444,10.3313L372.902,10.5665L373.358,10.8045L373.813,11.0453L374.267,11.2892L374.72,11.5363L375.171,11.7863L375.621,12.039L376.071,12.2951L376.519,12.5541L376.965,12.8159L377.41,13.0804L377.854,13.3485L378.296,13.6193L378.737,13.8929L379.178,14.17L379.616,14.4495L380.053,14.7321L380.488,15.0179L380.923,15.3064L381.355,15.5981L381.787,15.8929L382.217,16.1904L382.645,16.4906L383.071,16.7936L383.496,17.1001L383.92,17.4097L384.342,17.7216L384.762,18.0366L385.181,18.3548L385.599,18.676L386.014,19L386.428,19.3266L386.84,19.6564L387.25,19.9887L387.659,20.3242L388.066,20.6628L388.471,21.004L388.875,21.3483L389.277,21.6957L389.677,22.0458L390.074,22.3978L390.47,22.7535L390.865,23.1124L391.257,23.4738L391.648,23.8382L392.036,24.2051L392.423,24.5752L392.808,24.9478L393.19,25.3229L393.543,25.6736L406.326,38.4564L406.676,38.8089L407.053,39.1925L407.425,39.5768L407.794,39.963L408.162,40.3525L408.527,40.7432L408.888,41.1352L409.246,41.5291L409.602,41.9254L409.955,42.3236L410.305,42.7237L410.652,43.1256L410.996,43.5285L411.337,43.9332L411.676,44.3413L412.012,44.7502L412.343,45.1593L412.673,45.5717L413.001,45.9866L413.324,46.4016L413.645,46.8189L413.963,47.2379L414.278,47.6578L414.591,48.0801L414.899,48.5031L415.206,48.9286L415.51,49.3555L415.81,49.7839L416.108,50.214L416.402,50.6446L416.693,51.0767L416.982,51.5111L417.268,51.9478L417.55,52.3842L417.83,52.822L418.107,53.2621L418.381,53.7036L418.652,54.1463L418.92,54.5905L419.184,55.035L419.446,55.4808L419.705,55.9298L419.961,56.3791L420.214,56.8287L420.463,57.2795L420.71,57.7325L420.955,58.1867L421.196,58.6421L421.434,59.0986L421.668,59.5553L421.901,60.0141L422.129,60.4731L422.355,60.9341L422.578,61.3962L422.799,61.8594L423.016,62.3236L423.229,62.7879L423.44,63.253L423.648,63.7203L423.854,64.1897L424.055,64.6578L424.254,65.1269L424.45,65.598L424.643,66.07L424.833,66.543L425.02,67.0168L425.204,67.4903L425.385,67.9648L425.563,68.4423L425.738,68.9195L425.909,69.3952L426.079,69.874L426.245,70.3548L426.408,70.8339L426.567,71.314L426.725,71.797L426.879,72.2795L427.029,72.7603L427.177,73.2443L427.323,73.7301L427.464,74.2141L427.603,74.6989L427.739,75.1855L427.872,75.6727L428.002,76.1604L428.129,76.6487L428.253,77.1365L428.374,77.6259L428.492,78.1159L428.607,78.6052L428.719,79.0963L428.828,79.5878L428.933,80.0786L429.037,80.5711L429.137,81.0641L429.233,81.5563L429.328,82.0501L429.419,82.5444L429.507,83.039L429.592,83.5327L429.674,84.0282L429.753,84.524L429.829,85.0188L429.902,85.5153L429.972,86.012L430.039,86.5091L430.103,87.0052L430.164,87.5028L430.223,88.0007L430.278,88.4976L430.33,88.996L430.379,89.4946L430.425,89.9935L430.468,90.4912L430.509,90.9891L430.546,91.4898L430.58,91.9894L430.612,92.4877L430.64,92.9863L430.665,93.4862L430.688,93.9862L430.707,94.4864L430.723,94.9866L430.737,95.4856L430.747,95.9859L430.755,96.4863L430.759,96.9854L430.761,97.4858L430.759,97.9862L430.755,98.4853L430.747,98.9857L430.737,99.486L430.723,99.985L430.707,100.485L430.688,100.985L430.665,101.485L430.64,101.985L430.612,102.484L430.58,102.982L430.546,103.482L430.509,103.983L430.468,104.48L430.425,104.978L430.379,105.477L430.33,105.976L430.278,106.474L430.223,106.971L430.164,107.469L430.103,107.966L430.039,108.463L429.972,108.96L429.902,109.456L429.829,109.953L429.753,110.449L429.674,110.943L429.592,111.438L429.507,111.933L429.419,112.427L429.328,112.922L429.233,113.415L429.137,113.907L429.037,114.4L428.933,114.893L428.828,115.384L428.719,115.875L428.607,116.366L428.492,116.856L428.374,117.346L428.253,117.835L428.129,118.323L428.002,118.811L427.872,119.299L427.739,119.786L427.603,120.273L427.464,120.757L427.323,121.241L427.177,121.727L427.029,122.211L426.878,122.693L426.725,123.175L426.568,123.656L426.408,124.138L426.245,124.617L426.079,125.098L425.91,125.576L425.738,126.052L425.563,126.529L425.385,127.007L425.204,127.481L425.02,127.955L424.833,128.429L424.643,128.902L424.45,129.374L424.254,129.845L424.055,130.314L423.854,130.782L423.648,131.251L423.44,131.719L423.229,132.184L423.016,132.648L422.799,133.112L422.578,133.575L422.355,134.038L422.129,134.499L421.901,134.957L421.668,135.416L421.434,135.873L421.196,136.329L420.955,136.785L420.71,137.239L420.463,137.692L420.214,138.143L419.961,138.592L419.705,139.042L419.446,139.491L419.184,139.937L418.92,140.381L418.652,140.825L418.381,141.268L418.107,141.71L417.83,142.15L417.551,142.587L417.268,143.024L416.982,143.461L416.693,143.895L416.402,144.327L416.108,144.758L415.81,145.188L415.51,145.616L415.206,146.043L414.899,146.469L414.591,146.891L414.278,147.314L413.963,147.734L413.645,148.153L413.324,148.57L413,148.986L412.673,149.4L412.344,149.811L412.011,150.222L411.676,150.63L411.337,151.038L410.996,151.443L410.652,151.846L410.305,152.248L409.955,152.648L409.602,153.046L409.246,153.443L408.888,153.836L408.527,154.228L408.162,154.62L407.794,155.009L407.425,155.394L407.053,155.779L406.676,156.163L406.326,156.515L347.608,215.233L347.255,215.584L346.872,215.96L346.487,216.332L346.101,216.702L345.712,217.069L345.321,217.434L344.93,217.795L344.535,218.153L344.139,218.509L343.741,218.862L343.341,219.212L342.939,219.559L342.536,219.903L342.131,220.244L341.723,220.583L341.315,220.918L340.904,221.251L340.492,221.58L340.078,221.907L339.663,222.232L339.245,222.553L338.827,222.87L338.407,223.185L337.984,223.498L337.561,223.807L337.136,224.113L336.709,224.417L336.28,224.717L335.851,225.015L335.42,225.309L334.987,225.6L334.553,225.889L334.117,226.175L333.68,226.458L333.242,226.737L332.803,227.014L332.361,227.288L331.918,227.559L331.475,227.826L331.03,228.091L330.582,228.353L330.135,228.612L329.687,228.868L329.236,229.121L328.785,229.371L328.332,229.617L327.878,229.862L327.422,230.103L326.966,230.341L326.509,230.575L326.05,230.808L325.591,231.036L325.13,231.262L324.668,231.486L324.205,231.706L323.741,231.923L323.277,232.136L322.811,232.347L322.344,232.555L321.875,232.761L321.406,232.963L320.937,233.162L320.467,233.357L319.994,233.55L319.521,233.74L319.048,233.927L318.574,234.111L318.099,234.292L317.623,234.47L317.145,234.645L316.668,234.817L316.19,234.986L315.711,235.152L315.23,235.315L314.749,235.475L314.268,235.632L313.786,235.786L313.303,235.937L312.819,236.085L312.335,236.229L311.85,236.371L311.365,236.51L310.878,236.646L310.392,236.779L309.905,236.909L309.416,237.036L308.928,237.16L308.438,237.281L307.949,237.399L307.459,237.514L306.968,237.626L306.477,237.735L305.986,237.841L305.493,237.944L305,238.044L304.508,238.141L304.014,238.235L303.52,238.326L303.026,238.414L302.531,238.499L302.036,238.581L301.541,238.66L301.045,238.736L300.549,238.809L300.052,238.879L299.556,238.946L299.059,239.01L298.562,239.072L298.064,239.13L297.566,239.185L297.068,239.237L296.57,239.286L296.072,239.332L295.573,239.376L295.075,239.416L294.575,239.453L294.076,239.487L293.577,239.519L293.078,239.547L292.578,239.572L292.078,239.595L291.579,239.614L291.078,239.631L290.579,239.644L290.079,239.654L289.578,239.662L289.078,239.666L288.579,239.668ZM288.579,214.668L288.93,214.667L289.281,214.663L289.632,214.658L289.983,214.651L290.333,214.641L290.684,214.63L291.035,214.616L291.386,214.601L291.736,214.583L292.087,214.563L292.437,214.541L292.788,214.517L293.138,214.491L293.488,214.463L293.838,214.432L294.188,214.4L294.537,214.365L294.887,214.329L295.236,214.29L295.585,214.249L295.934,214.206L296.283,214.161L296.631,214.114L296.979,214.065L297.327,214.014L297.675,213.96L298.023,213.905L298.37,213.847L298.717,213.788L299.063,213.726L299.41,213.662L299.755,213.596L300.101,213.528L300.446,213.458L300.791,213.386L301.136,213.312L301.48,213.235L301.824,213.157L302.168,213.076L302.511,212.994L302.853,212.909L303.196,212.822L303.537,212.733L303.879,212.642L304.22,212.549L304.56,212.454L304.9,212.357L305.24,212.257L305.579,212.156L305.918,212.052L306.256,211.947L306.593,211.839L306.93,211.729L307.267,211.617L307.603,211.503L307.938,211.387L308.273,211.269L308.607,211.148L308.941,211.026L309.274,210.902L309.606,210.775L309.938,210.646L310.269,210.516L310.6,210.383L310.929,210.248L311.259,210.111L311.587,209.972L311.915,209.83L312.242,209.687L312.569,209.542L312.894,209.394L313.22,209.244L313.544,209.093L313.867,208.939L314.19,208.783L314.512,208.625L314.834,208.465L315.154,208.303L315.474,208.139L315.793,207.972L316.111,207.804L316.428,207.633L316.745,207.461L317.06,207.286L317.375,207.109L317.689,206.93L318.002,206.749L318.314,206.566L318.625,206.381L318.936,206.194L319.245,206.005L319.553,205.813L319.861,205.62L320.168,205.424L320.473,205.226L320.778,205.026L321.082,204.825L321.384,204.621L321.686,204.414L321.987,204.206L322.287,203.996L322.585,203.784L322.883,203.569L323.18,203.353L323.475,203.134L323.77,202.913L324.063,202.69L324.355,202.465L324.647,202.238L324.937,202.009L325.226,201.778L325.514,201.545L325.8,201.31L326.086,201.072L326.37,200.832L326.654,200.591L326.936,200.347L327.217,200.101L327.496,199.853L327.775,199.603L328.052,199.351L328.328,199.097L328.603,198.841L328.877,198.582L329.149,198.322L329.42,198.059L329.69,197.794L329.958,197.528L388.621,138.865L388.887,138.597L389.152,138.327L389.415,138.056L389.675,137.784L389.933,137.51L390.19,137.235L390.444,136.959L390.696,136.682L390.946,136.404L391.194,136.124L391.44,135.843L391.684,135.561L391.925,135.278L392.165,134.993L392.402,134.708L392.638,134.421L392.871,134.133L393.102,133.844L393.331,133.554L393.558,133.263L393.783,132.97L394.006,132.677L394.227,132.382L394.445,132.087L394.662,131.79L394.876,131.492L395.089,131.194L395.299,130.894L395.507,130.593L395.713,130.292L395.917,129.989L396.119,129.685L396.319,129.38L396.517,129.075L396.712,128.768L396.906,128.461L397.097,128.152L397.287,127.843L397.474,127.532L397.659,127.221L397.842,126.909L398.023,126.596L398.202,126.282L398.379,125.967L398.554,125.652L398.726,125.335L398.897,125.018L399.065,124.7L399.232,124.381L399.396,124.061L399.558,123.741L399.718,123.419L399.876,123.097L400.032,122.775L400.186,122.451L400.337,122.127L400.487,121.802L400.634,121.476L400.78,121.149L400.923,120.822L401.064,120.494L401.204,120.166L401.341,119.837L401.476,119.507L401.608,119.176L401.739,118.845L401.868,118.513L401.994,118.181L402.119,117.848L402.241,117.514L402.362,117.18L402.48,116.845L402.596,116.51L402.71,116.174L402.822,115.837L402.932,115.5L403.039,115.163L403.145,114.825L403.249,114.486L403.35,114.147L403.45,113.808L403.547,113.467L403.642,113.127L403.735,112.786L403.826,112.445L403.915,112.103L404.002,111.761L404.087,111.418L404.169,111.075L404.25,110.731L404.328,110.387L404.405,110.043L404.479,109.699L404.551,109.354L404.621,109.008L404.689,108.663L404.755,108.317L404.819,107.97L404.881,107.624L404.94,107.277L404.998,106.93L405.053,106.582L405.107,106.235L405.158,105.887L405.207,105.538L405.254,105.19L405.299,104.841L405.342,104.492L405.383,104.143L405.422,103.794L405.458,103.445L405.493,103.095L405.525,102.745L405.555,102.395L405.584,102.045L405.61,101.695L405.634,101.345L405.656,100.994L405.676,100.644L405.694,100.293L405.709,99.9423L405.723,99.5915L405.734,99.2406L405.744,98.8897L405.751,98.5388L405.756,98.1878L405.759,97.8368L405.76,97.4858L405.759,97.1348L405.756,96.7838L405.751,96.4328L405.744,96.0819L405.734,95.731L405.723,95.3801L405.709,95.0293L405.694,94.6786L405.676,94.3279L405.656,93.9774L405.634,93.6269L405.61,93.2766L405.584,92.9264L405.555,92.5763L405.525,92.2264L405.493,91.8766L405.458,91.527L405.422,91.1775L405.383,90.8282L405.342,90.4791L405.299,90.1303L405.254,89.7816L405.207,89.4332L405.158,89.085L405.107,88.737L405.053,88.3893L404.998,88.0419L404.94,87.6947L404.881,87.3478L404.819,87.0012L404.755,86.6549L404.689,86.309L404.621,85.9633L404.551,85.618L404.479,85.273L404.405,84.9284L404.328,84.5842L404.25,84.2403L404.169,83.8968L404.087,83.5537L404.002,83.2111L403.915,82.8688L403.826,82.527L403.735,82.1856L403.642,81.8446L403.547,81.5041L403.45,81.1641L403.35,80.8245L403.249,80.4855L403.145,80.1469L403.039,79.8088L402.932,79.4713L402.822,79.1343L402.71,78.7978L402.596,78.4619L402.48,78.1265L402.362,77.7917L402.241,77.4575L402.119,77.1239L401.994,76.7908L401.868,76.4584L401.739,76.1266L401.608,75.7954L401.476,75.4649L401.341,75.135L401.204,74.8058L401.064,74.4773L400.923,74.1494L400.78,73.8222L400.634,73.4957L400.487,73.1699L400.337,72.8449L400.186,72.5206L400.032,72.197L399.876,71.8742L399.718,71.5521L399.558,71.2308L399.396,70.9103L399.232,70.5906L399.065,70.2717L398.897,69.9536L398.726,69.6363L398.554,69.3199L398.379,69.0043L398.202,68.6895L398.023,68.3756L397.842,68.0626L397.659,67.7505L397.474,67.4392L397.287,67.1289L397.097,66.8195L396.906,66.511L396.712,66.2034L396.517,65.8968L396.319,65.5911L396.119,65.2865L395.917,64.9827L395.713,64.68L395.507,64.3783L395.299,64.0775L395.089,63.7778L394.876,63.4791L394.662,63.1814L394.445,62.8848L394.227,62.5893L394.006,62.2948L393.783,62.0014L393.558,61.7091L393.331,61.4178L393.102,61.1277L392.871,60.8387L392.638,60.5508L392.402,60.2641L392.165,59.9785L391.925,59.694L391.684,59.4108L391.44,59.1287L391.194,58.8478L390.946,58.5681L390.696,58.2896L390.444,58.0123L390.19,57.7363L389.933,57.4615L389.675,57.1879L389.415,56.9156L389.152,56.6446L388.887,56.3748L388.621,56.1064L375.894,43.3794L375.625,43.1127L375.355,42.848L375.084,42.5854L374.812,42.3249L374.539,42.0665L374.264,41.8102L373.988,41.556L373.71,41.3039L373.432,41.0539L373.152,40.8059L372.871,40.5601L372.589,40.3163L372.306,40.0747L372.022,39.8351L371.736,39.5976L371.449,39.3623L371.161,39.129L370.872,38.8978L370.582,38.6687L370.291,38.4417L369.999,38.2167L369.705,37.9939L369.411,37.7732L369.115,37.5545L368.819,37.338L368.521,37.1235L368.222,36.9112L367.922,36.7009L367.622,36.4927L367.32,36.2866L367.017,36.0826L366.714,35.8807L366.409,35.6809L366.103,35.4832L365.797,35.2875L365.489,35.094L365.181,34.9026L364.871,34.7132L364.561,34.526L364.25,34.3408L363.937,34.1577L363.624,33.9767L363.31,33.7978L362.996,33.6211L362.68,33.4463L362.364,33.2737L362.046,33.1032L361.728,32.9348L361.409,32.7685L361.09,32.6042L360.769,32.4421L360.448,32.282L360.126,32.124L359.803,31.9682L359.479,31.8144L359.155,31.6627L358.83,31.5131L358.504,31.3656L358.178,31.2202L357.851,31.0768L357.523,30.9356L357.194,30.7965L356.865,30.6594L356.535,30.5245L356.205,30.3916L355.873,30.2609L355.542,30.1322L355.209,30.0056L354.876,29.8811L354.542,29.7587L354.208,29.6384L353.873,29.5202L353.538,29.4041L353.202,29.29L352.866,29.1781L352.529,29.0683L352.191,28.9605L351.853,28.8548L351.515,28.7513L351.175,28.6498L350.836,28.5504L350.496,28.4531L350.155,28.3579L349.814,28.2648L349.473,28.1738L349.131,28.0849L348.789,27.9981L348.446,27.9133L348.103,27.8307L347.76,27.7501L347.416,27.6717L347.072,27.5953L346.727,27.521L346.382,27.4488L346.037,27.3787L345.691,27.3108L345.345,27.2448L344.999,27.181L344.652,27.1193L344.305,27.0597L343.958,27.0021L343.611,26.9467L343.263,26.8933L342.915,26.8421L342.567,26.7929L342.218,26.7458L341.87,26.7009L341.521,26.658L341.172,26.6172L340.823,26.5785L340.473,26.5418L340.123,26.5073L339.774,26.4749L339.424,26.4445L339.074,26.4163L338.723,26.3901L338.373,26.3661L338.023,26.3441L337.672,26.3242L337.321,26.3065L336.971,26.2908L336.62,26.2772L336.269,26.2657L335.918,26.2562L335.567,26.2489L335.216,26.2437L334.865,26.2406L334.514,26.2395L334.163,26.2406L333.812,26.2437L333.461,26.2489L333.11,26.2562L332.759,26.2657L332.409,26.2772L332.058,26.2908L331.707,26.3065L331.356,26.3242L331.006,26.3441L330.655,26.3661L330.305,26.3901L329.955,26.4163L329.605,26.4445L329.255,26.4749L328.905,26.5073L328.555,26.5418L328.206,26.5785L327.857,26.6172L327.508,26.658L327.159,26.7009L326.81,26.7458L326.462,26.7929L326.113,26.8421L325.765,26.8933L325.418,26.9467L325.07,27.0021L324.723,27.0597L324.376,27.1193L324.03,27.181L323.683,27.2448L323.337,27.3108L322.992,27.3788L322.646,27.4488L322.301,27.521L321.957,27.5953L321.613,27.6717L321.269,27.7501L320.925,27.8307L320.582,27.9133L320.239,27.9981L319.897,28.0849L319.555,28.1738L319.214,28.2648L318.873,28.3579L318.533,28.4531L318.192,28.5504L317.853,28.6498L317.514,28.7513L317.175,28.8549L316.837,28.9605L316.5,29.0683L316.163,29.1781L315.826,29.29L315.49,29.4041L315.155,29.5202L314.82,29.6384L314.486,29.7587L314.152,29.8811L313.819,30.0056L313.487,30.1322L313.155,30.2609L312.824,30.3916L312.493,30.5245L312.163,30.6594L311.834,30.7965L311.506,30.9356L311.178,31.0768L310.851,31.2202L310.524,31.3656L310.198,31.5131L309.873,31.6627L309.549,31.8144L309.225,31.9682L308.903,32.124L308.581,32.282L308.259,32.4421L307.939,32.6042L307.619,32.7685L307.3,32.9348L306.982,33.1032L306.665,33.2737L306.348,33.4463L306.033,33.6211L305.718,33.7979L305.404,33.9767L305.091,34.1577L304.779,34.3408L304.468,34.526L304.157,34.7132L303.848,34.9026L303.539,35.094L303.232,35.2876L302.925,35.4832L302.62,35.6809L302.315,35.8807L302.011,36.0826L301.708,36.2866L301.407,36.4927L301.106,36.7009L300.806,36.9112L300.508,37.1235L300.21,37.338L299.913,37.5545L299.618,37.7732L299.323,37.9939L299.03,38.2167L298.737,38.4417L298.446,38.6687L298.156,38.8978L297.867,39.129L297.579,39.3623L297.292,39.5976L297.007,39.8351L296.722,40.0747L296.439,40.3163L296.157,40.5601L295.876,40.8059L295.596,41.0539L295.318,41.3039L295.041,41.556L294.765,41.8102L294.49,42.0665L294.216,42.3249L293.944,42.5854L293.673,42.848L293.403,43.1127L293.135,43.3794L234.472,102.042L234.206,102.31L233.941,102.58L233.678,102.851L233.418,103.123L233.159,103.397L232.903,103.672L232.649,103.948L232.397,104.225L232.147,104.504L231.899,104.783L231.653,105.064L231.409,105.346L231.168,105.63L230.928,105.914L230.69,106.2L230.455,106.486L230.222,106.774L229.991,107.063L229.762,107.353L229.535,107.645L229.31,107.937L229.087,108.23L228.866,108.525L228.647,108.82L228.431,109.117L228.216,109.415L228.004,109.713L227.794,110.013L227.586,110.314L227.379,110.616L227.175,110.918L226.974,111.222L226.774,111.527L226.576,111.832L226.38,112.139L226.187,112.447L225.995,112.755L225.806,113.064L225.619,113.375L225.434,113.686L225.251,113.998L225.07,114.311L224.891,114.625L224.714,114.94L224.539,115.255L224.367,115.572L224.196,115.889L224.028,116.207L223.861,116.526L223.697,116.846L223.535,117.166L223.375,117.488L223.217,117.81L223.061,118.133L222.907,118.456L222.756,118.78L222.606,119.106L222.458,119.431L222.313,119.758L222.17,120.085L222.028,120.413L221.889,120.741L221.752,121.071L221.617,121.4L221.484,121.731L221.354,122.062L221.225,122.394L221.098,122.726L220.974,123.059L220.852,123.393L220.731,123.727L220.613,124.062L220.497,124.397L220.383,124.733L220.271,125.07L220.161,125.407L220.053,125.744L219.948,126.082L219.844,126.421L219.743,126.76L219.643,127.1L219.546,127.44L219.451,127.78L219.358,128.121L219.267,128.463L219.178,128.804L219.091,129.147L219.006,129.489L218.924,129.832L218.843,130.176L218.765,130.52L218.688,130.864L218.614,131.209L218.542,131.554L218.472,131.899L218.404,132.245L218.338,132.59L218.274,132.937L218.212,133.283L218.153,133.63L218.095,133.977L218.04,134.325L217.986,134.673L217.935,135.021L217.886,135.369L217.839,135.717L217.794,136.066L217.751,136.415L217.71,136.764L217.671,137.113L217.635,137.463L217.6,137.812L217.568,138.162L217.537,138.512L217.509,138.862L217.483,139.212L217.459,139.563L217.437,139.913L217.417,140.264L217.399,140.614L217.384,140.965L217.37,141.316L217.359,141.667L217.349,142.017L217.342,142.368L217.337,142.719L217.333,143.07L217.332,143.421L217.333,143.772L217.337,144.123L217.342,144.474L217.349,144.825L217.359,145.176L217.37,145.527L217.384,145.878L217.399,146.229L217.417,146.579L217.437,146.93L217.459,147.28L217.483,147.631L217.509,147.981L217.537,148.331L217.568,148.681L217.6,149.031L217.635,149.38L217.671,149.73L217.71,150.079L217.751,150.428L217.794,150.777L217.839,151.126L217.886,151.474L217.935,151.822L217.986,152.17L218.04,152.518L218.095,152.865L218.153,153.212L218.212,153.559L218.274,153.906L218.338,154.252L218.404,154.598L218.472,154.944L218.542,155.289L218.614,155.634L218.688,155.979L218.765,156.323L218.843,156.667L218.924,157.01L219.006,157.353L219.091,157.696L219.178,158.038L219.267,158.38L219.358,158.722L219.451,159.063L219.546,159.403L219.643,159.743L219.743,160.083L219.844,160.422L219.948,160.76L220.053,161.098L220.161,161.436L220.271,161.773L220.383,162.109L220.497,162.445L220.613,162.781L220.731,163.115L220.852,163.45L220.974,163.783L221.098,164.116L221.225,164.449L221.354,164.781L221.484,165.112L221.617,165.442L221.752,165.772L221.889,166.101L222.028,166.43L222.17,166.758L222.313,167.085L222.458,167.411L222.606,167.737L222.756,168.062L222.907,168.387L223.061,168.71L223.217,169.033L223.375,169.355L223.535,169.676L223.697,169.997L223.861,170.317L224.028,170.635L224.196,170.954L224.367,171.271L224.539,171.587L224.714,171.903L224.891,172.218L225.07,172.532L225.251,172.845L225.434,173.157L225.619,173.468L225.806,173.778L225.995,174.088L226.187,174.396L226.38,174.704L226.576,175.01L226.774,175.316L226.974,175.621L227.175,175.924L227.379,176.227L227.586,176.529L227.794,176.83L228.004,177.129L228.216,177.428L228.431,177.726L228.647,178.022L228.866,178.318L229.087,178.612L229.31,178.906L229.535,179.198L229.762,179.489L229.991,179.779L230.222,180.068L230.455,180.356L230.69,180.643L230.928,180.929L231.168,181.213L231.409,181.496L231.653,181.778L231.899,182.059L232.147,182.339L232.397,182.618L232.649,182.895L232.903,183.171L233.159,183.446L233.418,183.719L233.678,183.992L233.941,184.263L234.206,184.532L234.472,184.801L247.199,197.528L247.468,197.794L247.737,198.059L248.008,198.322L248.281,198.582L248.554,198.841L248.829,199.097L249.105,199.351L249.382,199.603L249.661,199.853L249.941,200.101L250.222,200.347L250.504,200.591L250.787,200.832L251.071,201.072L251.357,201.31L251.644,201.545L251.932,201.778L252.221,202.009L252.511,202.238L252.802,202.465L253.094,202.69L253.388,202.913L253.682,203.134L253.978,203.353L254.274,203.569L254.572,203.784L254.871,203.996L255.17,204.206L255.471,204.414L255.773,204.621L256.076,204.825L256.379,205.026L256.684,205.226L256.99,205.424L257.296,205.62L257.604,205.813L257.912,206.005L258.222,206.194L258.532,206.381L258.843,206.566L259.155,206.749L259.468,206.93L259.782,207.109L260.097,207.286L260.413,207.461L260.729,207.633L261.046,207.804L261.365,207.972L261.683,208.139L262.003,208.303L262.324,208.465L262.645,208.625L262.967,208.783L263.29,208.939L263.613,209.093L263.938,209.244L264.263,209.394L264.589,209.542L264.915,209.687L265.242,209.83L265.57,209.972L265.899,210.111L266.228,210.248L266.558,210.383L266.888,210.516L267.219,210.646L267.551,210.775L267.884,210.902L268.217,211.026L268.55,211.148L268.885,211.269L269.219,211.387L269.555,211.503L269.891,211.617L270.227,211.729L270.564,211.839L270.902,211.947L271.24,212.052L271.578,212.156L271.917,212.257L272.257,212.357L272.597,212.454L272.937,212.549L273.278,212.642L273.62,212.733L273.962,212.822L274.304,212.909L274.647,212.994L274.99,213.076L275.333,213.157L275.677,213.235L276.021,213.312L276.366,213.386L276.711,213.458L277.056,213.528L277.402,213.596L277.748,213.662L278.094,213.726L278.441,213.788L278.788,213.847L279.135,213.905L279.482,213.96L279.83,214.014L280.178,214.065L280.526,214.114L280.874,214.161L281.223,214.206L281.572,214.249L281.921,214.29L282.27,214.329L282.62,214.365L282.969,214.4L283.319,214.432L283.669,214.463L284.019,214.491L284.369,214.517L284.72,214.541L285.07,214.563L285.421,214.583L285.771,214.601L286.122,214.616L286.473,214.63L286.824,214.641L287.175,214.651L287.526,214.658L287.877,214.663L288.228,214.667L288.579,214.668Z" style="fill:black;"/>
            </g>
        </g>
    </g>
</svg>
