<?xml version="1.0" standalone="no"?>
<!DOCTYPE svg PUBLIC "-//W3C//DTD SVG 1.1//EN" "http://www.w3.org/Graphics/SVG/1.1/DTD/svg11.dtd">
<svg width="432px" height="432px" version="1.1" xmlns="http://www.w3.org/2000/svg" xmlns:xlink="http://www.w3.org/1999/xlink" xml:space="preserve" style="fill-rule:evenodd;clip-rule:evenodd;stroke-linejoin:round;stroke-miterlimit:1.41421;">
    <g>
        <g id="Layer1">
            <g>
                <path d="M280.104,152.825C280.36,153.081 280.437,153.42 280.275,153.582L153.582,280.275C153.42,280.437 153.081,280.36 152.825,280.104L151.896,279.175C151.64,278.919 151.563,278.58 151.725,278.418L278.418,151.725C278.58,151.563 278.919,151.64 279.175,151.896L280.104,152.825Z" style="fill:black;"/>
                <path d="M153.695,297.029L152.79,297.023L151.922,296.972L151.097,296.882L150.321,296.76L149.577,296.61L148.861,296.432L148.185,296.234L147.542,296.018L146.927,295.784L146.332,295.533L145.763,295.266L145.214,294.986L144.681,294.69L144.179,294.388L143.684,294.068L143.205,293.734L142.747,293.393L142.3,293.037L141.866,292.667L141.445,292.285L141.134,291.984L140.016,290.866L139.715,290.555L139.335,290.136L138.966,289.703L138.607,289.253L138.263,288.791L137.931,288.315L137.613,287.823L137.308,287.315L137.015,286.789L136.735,286.24L136.467,285.666L136.218,285.077L135.982,284.457L135.764,283.809L135.568,283.138L135.391,282.425L135.24,281.683L135.117,280.898L135.028,280.074L134.977,279.214L134.971,278.306L135.016,277.351L135.12,276.356L135.292,275.32L135.539,274.252L135.872,273.152L136.301,272.021L136.826,270.893L137.453,269.772L138.185,268.671L139.012,267.619L139.702,266.87L266.87,139.702L267.619,139.012L268.671,138.185L269.772,137.453L270.893,136.826L272.021,136.301L273.152,135.872L274.252,135.539L275.32,135.292L276.356,135.12L277.351,135.016L278.306,134.971L279.214,134.977L280.074,135.028L280.898,135.117L281.683,135.24L282.425,135.391L283.138,135.568L283.809,135.764L284.457,135.982L285.077,136.218L285.666,136.467L286.24,136.735L286.789,137.015L287.315,137.308L287.823,137.613L288.315,137.931L288.791,138.263L289.253,138.607L289.703,138.966L290.136,139.335L290.555,139.715L290.866,140.016L291.984,141.134L292.285,141.445L292.667,141.866L293.037,142.3L293.393,142.747L293.734,143.205L294.068,143.684L294.388,144.179L294.69,144.681L294.986,145.214L295.266,145.763L295.533,146.332L295.784,146.927L296.018,147.542L296.234,148.185L296.432,148.861L296.61,149.577L296.76,150.321L296.882,151.097L296.972,151.922L297.023,152.79L297.029,153.695L296.984,154.653L296.879,155.647L296.709,156.675L296.46,157.75L296.126,158.854L295.702,159.971L295.178,161.1L294.546,162.23L293.816,163.327L292.987,164.384L292.293,165.135L165.135,292.293L164.384,292.987L163.327,293.816L162.23,294.546L161.1,295.178L159.971,295.702L158.854,296.126L157.75,296.46L156.675,296.709L155.647,296.879L154.653,296.984L153.695,297.029ZM153.363,280.36L153.387,280.359L153.409,280.356L153.432,280.353L153.453,280.348L153.474,280.341L153.495,280.334L153.514,280.325L153.532,280.314L153.55,280.302L153.567,280.289L153.582,280.275L280.275,153.582L280.289,153.567L280.302,153.55L280.314,153.532L280.325,153.514L280.334,153.495L280.341,153.474L280.348,153.453L280.353,153.432L280.356,153.409L280.359,153.387L280.36,153.363L280.36,153.339L280.358,153.315L280.355,153.29L280.352,153.265L280.346,153.239L280.34,153.213L280.332,153.187L280.323,153.161L280.313,153.134L280.302,153.108L280.29,153.081L280.276,153.055L280.262,153.029L280.246,153.002L280.229,152.976L280.211,152.95L280.192,152.924L280.171,152.899L280.15,152.874L280.127,152.849L280.104,152.825L279.175,151.896L279.151,151.873L279.126,151.85L279.101,151.829L279.076,151.808L279.05,151.789L279.024,151.771L278.998,151.754L278.971,151.738L278.945,151.724L278.919,151.71L278.892,151.698L278.866,151.687L278.839,151.677L278.813,151.668L278.787,151.66L278.761,151.654L278.735,151.648L278.71,151.645L278.685,151.642L278.661,151.64L278.637,151.64L278.613,151.641L278.591,151.644L278.568,151.647L278.547,151.652L278.526,151.659L278.505,151.666L278.486,151.675L278.468,151.686L278.45,151.698L278.433,151.711L278.418,151.725L151.725,278.418L151.711,278.433L151.698,278.45L151.686,278.468L151.675,278.486L151.666,278.505L151.659,278.526L151.652,278.547L151.647,278.568L151.644,278.591L151.641,278.613L151.64,278.637L151.64,278.661L151.642,278.685L151.645,278.71L151.648,278.735L151.654,278.761L151.66,278.787L151.668,278.813L151.677,278.839L151.687,278.866L151.698,278.892L151.71,278.919L151.724,278.945L151.738,278.971L151.754,278.998L151.771,279.024L151.789,279.05L151.808,279.076L151.829,279.101L151.85,279.126L151.873,279.151L151.896,279.175L152.825,280.104L152.849,280.127L152.874,280.15L152.899,280.171L152.924,280.192L152.95,280.211L152.976,280.229L153.002,280.246L153.029,280.262L153.055,280.276L153.081,280.29L153.108,280.302L153.134,280.313L153.161,280.323L153.187,280.332L153.213,280.34L153.239,280.346L153.265,280.352L153.29,280.355L153.315,280.358L153.339,280.36L153.363,280.36Z" style="fill:black;"/>
            </g>
            <g>
                <path d="M108.995,431.198L108.432,431.196L107.87,431.191L107.308,431.183L106.745,431.171L106.181,431.156L105.62,431.138L105.058,431.116L104.495,431.091L103.934,431.062L103.371,431.03L102.808,430.995L102.249,430.957L101.687,430.915L101.125,430.869L100.564,430.821L100.003,430.769L99.4428,430.713L98.8831,430.655L98.3222,430.593L97.7616,430.527L97.2028,430.458L96.6442,430.386L96.0846,430.311L95.5252,430.232L94.9676,430.15L94.4105,430.064L93.8523,429.975L93.2944,429.883L92.7384,429.787L92.1829,429.688L91.6264,429.586L91.0717,429.48L90.5161,429.371L89.9609,429.258L89.4092,429.142L88.8551,429.023L88.3016,428.9L87.7499,428.774L87.1975,428.645L86.6471,428.512L86.0973,428.376L85.5466,428.237L84.9966,428.093L84.4487,427.947L83.9013,427.798L83.3534,427.645L82.8061,427.488L82.2609,427.329L81.7164,427.166L81.1714,426.999L80.6271,426.829L80.0848,426.656L79.5434,426.479L79.0015,426.299L78.4618,426.116L77.9216,425.929L77.3823,425.738L76.8463,425.545L76.3088,425.348L75.7721,425.147L75.2377,424.944L74.7031,424.737L74.1705,424.526L73.639,424.313L73.1073,424.095L72.5765,423.874L72.0481,423.65L71.5195,423.423L70.9932,423.192L70.468,422.958L69.9427,422.72L69.4197,422.48L68.8967,422.235L68.375,421.987L67.8556,421.736L67.3372,421.482L66.8191,421.224L66.3023,420.963L65.7877,420.698L65.2745,420.431L64.7615,420.159L64.251,419.885L63.7417,419.607L63.2326,419.325L62.7251,419.04L62.2201,418.752L61.7153,418.46L61.2132,418.166L60.7122,417.868L60.212,417.566L59.7133,417.261L59.217,416.953L58.7222,416.641L58.2281,416.326L57.7356,416.007L57.2455,415.686L56.7572,415.361L56.2697,415.033L55.7846,414.702L55.3003,414.366L54.8178,414.028L54.3377,413.687L53.8597,413.342L53.3824,412.994L52.9076,412.642L52.4349,412.288L51.9632,411.93L51.4933,411.568L51.0259,411.204L50.5596,410.836L50.0955,410.464L49.6348,410.091L49.1743,409.713L48.716,409.332L48.2605,408.948L47.8069,408.561L47.3546,408.171L46.9043,407.777L46.4578,407.381L46.0116,406.98L45.5677,406.577L45.1268,406.171L44.6872,405.761L44.2497,405.347L43.8152,404.932L43.3831,404.513L42.9523,404.09L42.5616,403.702L29.2926,390.433L28.9048,390.043L28.4824,389.612L28.0627,389.179L27.647,388.744L27.2347,388.308L26.8252,387.869L26.4185,387.427L26.0145,386.983L25.6146,386.538L25.2181,386.09L24.8244,385.64L24.4341,385.189L24.0467,384.735L23.6621,384.278L23.2815,383.82L22.9044,383.361L22.5297,382.899L22.1589,382.435L21.791,381.969L21.4267,381.502L21.0657,381.033L20.7071,380.56L20.3521,380.087L20.0011,379.612L19.653,379.135L19.3079,378.657L18.9668,378.177L18.6285,377.695L18.2939,377.211L17.9622,376.726L17.6336,376.238L17.3086,375.749L16.9868,375.258L16.6687,374.767L16.3541,374.273L16.0425,373.778L15.734,373.281L15.429,372.783L15.1274,372.283L14.8294,371.782L14.5345,371.279L14.243,370.775L13.9551,370.27L13.6699,369.762L13.3886,369.254L13.1108,368.745L12.8357,368.233L12.5645,367.721L12.2965,367.207L12.0319,366.692L11.7709,366.176L11.513,365.658L11.2586,365.14L11.0074,364.619L10.7596,364.098L10.5154,363.576L10.2744,363.052L10.0368,362.527L9.80271,362.002L9.57183,361.475L9.34442,360.947L9.12054,360.418L8.89983,359.888L8.68259,359.357L8.46859,358.824L8.25806,358.291L8.05105,357.757L7.84736,357.223L7.647,356.687L7.44996,356.149L7.25632,355.612L7.06618,355.073L6.87942,354.534L6.69589,353.993L6.51591,353.452L6.3393,352.91L6.16599,352.367L5.99602,351.823L5.82951,351.279L5.66636,350.734L5.50667,350.188L5.35023,349.642L5.19711,349.094L5.04767,348.547L4.90138,347.998L4.75836,347.448L4.61894,346.899L4.48292,346.348L4.35005,345.797L4.22063,345.245L4.09472,344.693L3.97202,344.14L3.85279,343.587L3.73689,343.033L3.62432,342.478L3.51514,341.924L3.40939,341.368L3.30698,340.813L3.20791,340.256L3.11221,339.7L3.01987,339.142L2.93096,338.585L2.84536,338.027L2.76307,337.469L2.6842,336.91L2.60869,336.351L2.53655,335.792L2.46776,335.233L2.40231,334.673L2.34025,334.113L2.28154,333.552L2.22617,332.992L2.17418,332.431L2.12554,331.87L2.08026,331.309L2.03832,330.747L1.99974,330.185L1.96453,329.624L1.93266,329.062L1.90416,328.5L1.87901,327.937L1.85721,327.375L1.83876,326.813L1.82367,326.25L1.81193,325.688L1.80355,325.125L1.79851,324.563L1.79684,324L1.79851,323.437L1.80355,322.875L1.81193,322.312L1.82367,321.75L1.83876,321.187L1.85721,320.625L1.87901,320.063L1.90417,319.5L1.93266,318.938L1.96452,318.376L1.99975,317.815L2.03832,317.253L2.08025,316.692L2.12554,316.13L2.17418,315.569L2.22617,315.008L2.28154,314.448L2.34026,313.887L2.40233,313.327L2.46774,312.767L2.53653,312.208L2.60871,311.648L2.68423,311.09L2.76308,310.531L2.84533,309.973L2.93092,309.415L3.0199,308.857L3.11222,308.3L3.20787,307.744L3.30698,307.187L3.40939,306.632L3.51514,306.076L3.62438,305.521L3.73689,304.967L3.85273,304.413L3.97202,303.86L4.09472,303.307L4.22075,302.754L4.35005,302.203L4.48279,301.652L4.61894,301.101L4.75836,300.552L4.90138,300.002L5.04767,299.453L5.19722,298.906L5.35023,298.358L5.50655,297.812L5.66636,297.266L5.82951,296.721L5.99602,296.177L6.16599,295.633L6.3393,295.09L6.51591,294.548L6.69589,294.007L6.87942,293.466L7.06618,292.927L7.25632,292.388L7.45014,291.85L7.64706,291.313L7.84718,290.778L8.05099,290.243L8.25813,289.709L8.4686,289.176L8.68259,288.643L8.89984,288.112L9.12047,287.582L9.34442,287.053L9.57183,286.525L9.80271,285.998L10.0368,285.473L10.2744,284.948L10.5154,284.424L10.7599,283.901L11.0074,283.381L11.2583,282.861L11.513,282.342L11.7709,281.824L12.0319,281.308L12.2965,280.793L12.5645,280.279L12.8361,279.766L13.1108,279.255L13.3886,278.746L13.67,278.238L13.9547,277.731L14.243,277.225L14.5345,276.721L14.8293,276.218L15.1275,275.717L15.429,275.217L15.734,274.719L16.0425,274.222L16.3541,273.727L16.6688,273.233L16.9868,272.742L17.3089,272.25L17.6342,271.761L17.9618,271.275L18.2934,270.79L18.6286,270.305L18.9668,269.823L19.3078,269.344L19.653,268.865L20.0011,268.388L20.3527,267.912L20.7077,267.439L21.0651,266.968L21.4261,266.499L21.791,266.031L22.1589,265.565L22.5297,265.101L22.9045,264.639L23.2816,264.18L23.6621,263.722L24.0467,263.265L24.4341,262.811L24.8243,262.36L25.218,261.91L25.6152,261.462L26.0151,261.016L26.4178,260.573L26.8246,260.132L27.2348,259.692L27.647,259.255L28.0626,258.821L28.4823,258.388L28.9048,257.957L29.2926,257.567L63.7749,223.085L64.1655,222.696L64.5963,222.274L65.0288,221.855L65.4633,221.439L65.9005,221.026L66.3396,220.617L66.7809,220.21L67.2249,219.807L67.6702,219.407L68.1178,219.01L68.5677,218.616L69.0197,218.226L69.4737,217.838L69.9296,217.454L70.3876,217.074L70.8471,216.696L71.3094,216.322L71.7734,215.951L72.2391,215.583L72.7067,215.218L73.1759,214.857L73.6472,214.499L74.121,214.144L74.5961,213.793L75.0723,213.445L75.5509,213.1L76.0319,212.758L76.514,212.42L76.9973,212.086L77.4829,211.754L77.9699,211.426L78.4588,211.101L78.9493,210.779L79.4412,210.461L79.9349,210.146L80.4302,209.834L80.9271,209.526L81.4252,209.221L81.9249,208.919L82.4264,208.621L82.9291,208.326L83.4333,208.035L83.939,207.747L84.4454,207.462L84.9538,207.181L85.464,206.902L85.9752,206.628L86.4871,206.357L87.0009,206.089L87.5166,205.824L88.033,205.562L88.5498,205.305L89.0686,205.05L89.5888,204.799L90.1099,204.552L90.6323,204.307L91.1559,204.066L91.6806,203.829L92.2064,203.595L92.7333,203.364L93.2614,203.136L93.7903,202.912L94.3204,202.692L94.8516,202.474L95.3831,202.261L95.9169,202.05L96.451,201.843L96.9853,201.639L97.522,201.439L98.0589,201.242L98.5961,201.048L99.1348,200.858L99.675,200.671L100.215,200.488L100.756,200.308L101.299,200.131L101.841,199.958L102.385,199.788L102.929,199.621L103.474,199.458L104.02,199.298L104.567,199.142L105.114,198.989L105.662,198.839L106.211,198.693L106.76,198.55L107.31,198.411L107.86,198.275L108.411,198.142L108.963,198.012L109.515,197.886L110.068,197.764L110.622,197.645L111.175,197.529L111.729,197.416L112.284,197.307L112.84,197.201L113.396,197.099L113.952,197L114.508,196.904L115.065,196.812L115.623,196.723L116.181,196.637L116.739,196.555L117.298,196.476L117.857,196.401L118.416,196.328L118.976,196.26L119.535,196.194L120.096,196.132L120.655,196.073L121.216,196.018L121.778,195.966L122.339,195.917L122.9,195.872L123.461,195.83L124.022,195.792L124.584,195.756L125.146,195.725L125.708,195.696L126.271,195.671L126.834,195.649L127.395,195.631L127.958,195.616L128.52,195.604L129.083,195.595L129.646,195.59L130.208,195.589L130.771,195.59L131.333,195.595L131.896,195.604L132.459,195.616L133.021,195.631L133.583,195.649L134.145,195.671L134.708,195.696L135.27,195.725L135.832,195.756L136.394,195.792L136.955,195.83L137.516,195.872L138.078,195.917L138.639,195.966L139.2,196.018L139.761,196.073L140.321,196.132L140.881,196.194L141.441,196.26L142,196.328L142.56,196.401L143.118,196.476L143.677,196.555L144.236,196.637L144.793,196.723L145.351,196.812L145.908,196.904L146.464,197L147.02,197.099L147.577,197.201L148.132,197.307L148.687,197.416L149.241,197.529L149.795,197.645L150.348,197.764L150.901,197.886L151.453,198.012L152.006,198.142L152.557,198.275L153.107,198.411L153.656,198.55L154.206,198.693L154.754,198.839L155.302,198.989L155.85,199.142L156.396,199.298L156.942,199.458L157.487,199.621L158.032,199.788L158.575,199.958L159.118,200.131L159.66,200.308L160.202,200.488L160.742,200.671L161.281,200.858L161.82,201.048L162.358,201.242L162.894,201.439L163.431,201.639L163.965,201.843L164.499,202.05L165.033,202.261L165.565,202.474L166.096,202.692L166.626,202.912L167.155,203.136L167.683,203.364L168.21,203.595L168.736,203.829L169.26,204.066L169.784,204.307L170.307,204.552L170.828,204.799L171.348,205.05L171.867,205.305L172.383,205.562L172.9,205.824L173.416,206.089L173.929,206.357L174.441,206.627L174.952,206.902L175.463,207.181L175.971,207.462L176.478,207.747L176.983,208.035L177.487,208.326L177.99,208.621L178.491,208.919L178.991,209.221L179.489,209.526L179.986,209.834L180.481,210.146L180.975,210.461L181.467,210.779L181.958,211.101L182.447,211.426L182.933,211.754L183.419,212.085L183.903,212.42L184.385,212.758L184.865,213.1L185.344,213.445L185.82,213.793L186.295,214.144L186.769,214.499L187.24,214.857L187.709,215.218L188.177,215.583L188.643,215.951L189.107,216.321L189.569,216.696L190.029,217.074L190.487,217.454L190.943,217.839L191.397,218.226L191.849,218.616L192.298,219.01L192.746,219.407L193.192,219.807L193.635,220.21L194.077,220.617L194.516,221.026L194.953,221.439L195.387,221.855L195.82,222.274L196.251,222.696L196.641,223.085L209.911,236.354L210.299,236.745L210.721,237.174L211.14,237.607L211.556,238.042L211.969,238.479L212.378,238.918L212.785,239.36L213.188,239.803L213.588,240.249L213.985,240.696L214.379,241.146L214.769,241.598L215.157,242.053L215.54,242.508L215.921,242.966L216.299,243.426L216.673,243.888L217.044,244.352L217.412,244.817L217.777,245.285L218.138,245.755L218.496,246.226L218.85,246.699L219.202,247.174L219.55,247.652L219.895,248.13L220.236,248.61L220.575,249.092L220.91,249.576L221.241,250.061L221.569,250.549L221.895,251.038L222.216,251.528L222.534,252.02L222.849,252.513L223.161,253.009L223.469,253.506L223.774,254.004L224.076,254.504L224.374,255.005L224.669,255.508L224.96,256.012L225.248,256.517L225.533,257.024L225.815,257.533L226.092,258.042L226.367,258.553L226.639,259.066L226.907,259.58L227.171,260.095L227.432,260.611L227.69,261.128L227.945,261.647L228.196,262.168L228.443,262.688L228.688,263.211L228.929,263.735L229.166,264.259L229.4,264.785L229.631,265.312L229.858,265.839L230.083,266.369L230.303,266.899L230.52,267.429L230.735,267.962L230.945,268.496L231.152,269.03L231.356,269.565L231.556,270.1L231.753,270.636L231.947,271.176L232.137,271.714L232.324,272.253L232.507,272.793L232.687,273.335L232.864,273.877L233.037,274.42L233.207,274.963L233.374,275.508L233.537,276.053L233.697,276.599L233.853,277.145L234.006,277.692L234.155,278.24L234.302,278.789L234.445,279.339L234.584,279.888L234.72,280.439L234.853,280.99L234.982,281.542L235.108,282.094L235.231,282.646L235.35,283.2L235.466,283.754L235.579,284.308L235.688,284.863L235.794,285.418L235.896,285.974L235.995,286.53L236.091,287.087L236.183,287.644L236.272,288.202L236.358,288.759L236.44,289.318L236.519,289.876L236.594,290.435L236.667,290.995L236.735,291.553L236.801,292.114L236.863,292.674L236.922,293.235L236.977,293.795L237.029,294.356L237.078,294.917L237.123,295.478L237.165,296.039L237.203,296.602L237.239,297.164L237.27,297.725L237.299,298.287L237.324,298.849L237.346,299.412L237.364,299.974L237.379,300.536L237.391,301.1L237.4,301.662L237.405,302.224L237.406,302.787L237.405,303.349L237.4,303.912L237.391,304.474L237.379,305.037L237.364,305.6L237.346,306.162L237.324,306.724L237.299,307.287L237.27,307.849L237.239,308.41L237.203,308.972L237.165,309.534L237.123,310.096L237.078,310.656L237.029,311.217L236.977,311.778L236.922,312.339L236.863,312.899L236.801,313.459L236.735,314.02L236.667,314.579L236.594,315.138L236.519,315.697L236.44,316.256L236.358,316.814L236.272,317.372L236.183,317.929L236.091,318.486L235.995,319.043L235.896,319.6L235.794,320.155L235.688,320.711L235.579,321.265L235.466,321.819L235.35,322.374L235.231,322.927L235.108,323.48L234.982,324.032L234.853,324.583L234.72,325.135L234.584,325.686L234.445,326.235L234.302,326.785L234.155,327.333L234.006,327.881L233.853,328.428L233.697,328.975L233.537,329.521L233.374,330.066L233.207,330.61L233.037,331.153L232.864,331.697L232.687,332.239L232.507,332.78L232.324,333.321L232.137,333.859L231.947,334.398L231.753,334.937L231.556,335.474L231.356,336.009L231.152,336.544L230.945,337.078L230.735,337.611L230.52,338.144L230.303,338.675L230.083,339.205L229.859,339.734L229.631,340.262L229.4,340.789L229.166,341.314L228.929,341.839L228.688,342.363L228.443,342.885L228.196,343.406L227.945,343.926L227.69,344.445L227.432,344.963L227.171,345.479L226.907,345.993L226.639,346.507L226.367,347.02L226.092,347.532L225.815,348.041L225.533,348.549L225.248,349.057L224.96,349.562L224.669,350.066L224.373,350.569L224.076,351.07L223.774,351.569L223.469,352.068L223.161,352.565L222.849,353.06L222.534,353.553L222.216,354.045L221.895,354.536L221.569,355.026L221.241,355.512L220.91,355.997L220.574,356.482L220.236,356.964L219.895,357.443L219.55,357.923L219.202,358.399L218.851,358.873L218.496,359.347L218.138,359.819L217.776,360.289L217.412,360.756L217.044,361.222L216.674,361.685L216.299,362.148L215.922,362.607L215.541,363.065L215.156,363.521L214.769,363.976L214.379,364.427L213.985,364.877L213.588,365.324L213.188,365.771L212.785,366.214L212.378,366.655L211.969,367.095L211.556,367.531L211.14,367.966L210.721,368.399L210.298,368.829L209.911,369.22L175.428,403.702L175.038,404.09L174.607,404.513L174.174,404.932L173.74,405.347L173.303,405.76L172.863,406.171L172.421,406.577L171.978,406.98L171.533,407.38L171.086,407.776L170.635,408.171L170.183,408.561L169.73,408.948L169.274,409.332L168.815,409.713L168.355,410.091L167.895,410.464L167.43,410.836L166.964,411.204L166.497,411.568L166.027,411.93L165.555,412.288L165.082,412.642L164.607,412.994L164.13,413.342L163.652,413.687L163.172,414.028L162.69,414.366L162.205,414.702L161.72,415.033L161.233,415.361L160.744,415.686L160.254,416.007L159.761,416.327L159.268,416.641L158.773,416.953L158.277,417.261L157.779,417.565L157.278,417.868L156.777,418.166L156.275,418.46L155.77,418.752L155.265,419.04L154.757,419.325L154.248,419.607L153.739,419.885L153.228,420.159L152.715,420.431L152.202,420.698L151.688,420.963L151.171,421.224L150.653,421.482L150.134,421.736L149.615,421.987L149.093,422.235L148.57,422.48L148.047,422.72L147.522,422.958L146.997,423.192L146.47,423.423L145.942,423.65L145.413,423.874L144.883,424.095L144.351,424.313L143.819,424.526L143.287,424.737L142.752,424.944L142.218,425.147L141.681,425.348L141.144,425.545L140.608,425.738L140.068,425.929L139.528,426.116L138.988,426.299L138.446,426.479L137.905,426.656L137.363,426.829L136.819,426.999L136.273,427.166L135.729,427.329L135.182,427.489L134.637,427.645L134.09,427.798L133.541,427.947L132.993,428.093L132.443,428.237L131.893,428.376L131.343,428.512L130.792,428.645L130.24,428.774L129.688,428.9L129.135,429.023L128.581,429.142L128.029,429.258L127.474,429.371L126.918,429.48L126.364,429.586L125.807,429.688L125.251,429.787L124.696,429.883L124.138,429.975L123.579,430.064L123.022,430.15L122.465,430.232L121.905,430.311L121.346,430.386L120.787,430.458L120.228,430.527L119.668,430.593L119.107,430.655L118.547,430.713L117.987,430.769L117.426,430.821L116.865,430.869L116.303,430.915L115.741,430.957L115.181,430.995L114.619,431.03L114.056,431.062L113.495,431.091L112.932,431.116L112.37,431.138L111.809,431.156L111.245,431.171L110.682,431.183L110.12,431.191L109.558,431.196L108.995,431.198ZM108.995,397.865L109.359,397.864L109.723,397.86L110.087,397.855L110.45,397.847L110.814,397.838L111.178,397.826L111.542,397.811L111.905,397.795L112.269,397.777L112.632,397.756L112.996,397.733L113.359,397.708L113.722,397.681L114.085,397.652L114.448,397.621L114.81,397.587L115.173,397.551L115.535,397.513L115.897,397.473L116.259,397.431L116.621,397.386L116.982,397.34L117.344,397.291L117.705,397.24L118.065,397.187L118.426,397.131L118.786,397.074L119.146,397.014L119.506,396.952L119.865,396.889L120.224,396.822L120.583,396.754L120.941,396.684L121.299,396.611L121.657,396.536L122.014,396.459L122.371,396.38L122.727,396.298L123.083,396.215L123.439,396.129L123.794,396.041L124.149,395.951L124.504,395.859L124.857,395.765L125.211,395.668L125.564,395.57L125.916,395.469L126.269,395.366L126.62,395.261L126.971,395.153L127.322,395.044L127.671,394.932L128.021,394.818L128.37,394.702L128.718,394.584L129.066,394.463L129.413,394.341L129.759,394.216L130.105,394.089L130.45,393.96L130.795,393.829L131.139,393.695L131.482,393.56L131.825,393.422L132.167,393.282L132.508,393.14L132.849,392.996L133.189,392.85L133.528,392.701L133.867,392.55L134.204,392.397L134.541,392.242L134.878,392.085L135.213,391.925L135.548,391.764L135.882,391.6L136.215,391.434L136.547,391.266L136.879,391.096L137.209,390.923L137.539,390.749L137.868,390.572L138.196,390.393L138.523,390.212L138.85,390.029L139.175,389.843L139.499,389.655L139.823,389.466L140.146,389.274L140.467,389.08L140.788,388.883L141.108,388.685L141.427,388.484L141.745,388.281L142.062,388.076L142.378,387.869L142.693,387.66L143.006,387.448L143.319,387.235L143.631,387.019L143.942,386.801L144.251,386.581L144.56,386.358L144.868,386.134L145.174,385.907L145.479,385.678L145.783,385.447L146.087,385.214L146.388,384.979L146.689,384.741L146.989,384.501L147.287,384.26L147.585,384.016L147.881,383.769L148.176,383.521L148.469,383.27L148.762,383.018L149.053,382.763L149.343,382.506L149.632,382.247L149.919,381.985L150.205,381.722L150.49,381.456L150.774,381.188L151.056,380.918L151.337,380.646L151.617,380.371L151.895,380.095L186.303,345.687L186.58,345.409L186.854,345.129L187.126,344.848L187.396,344.566L187.664,344.282L187.93,343.997L188.193,343.711L188.455,343.423L188.714,343.135L188.971,342.845L189.226,342.554L189.479,342.261L189.729,341.967L189.978,341.673L190.224,341.376L190.468,341.079L190.71,340.781L190.949,340.481L191.187,340.18L191.422,339.878L191.655,339.575L191.886,339.271L192.115,338.966L192.342,338.659L192.566,338.352L192.789,338.043L193.009,337.734L193.227,337.423L193.443,337.111L193.656,336.798L193.868,336.484L194.077,336.169L194.284,335.854L194.489,335.537L194.692,335.219L194.893,334.9L195.091,334.58L195.288,334.259L195.482,333.938L195.674,333.615L195.864,333.291L196.051,332.967L196.237,332.641L196.42,332.315L196.601,331.988L196.78,331.66L196.957,331.331L197.131,331.001L197.304,330.67L197.474,330.339L197.642,330.007L197.808,329.674L197.972,329.34L198.134,329.005L198.293,328.669L198.45,328.333L198.605,327.996L198.758,327.659L198.909,327.32L199.058,326.981L199.204,326.641L199.348,326.3L199.49,325.959L199.63,325.617L199.768,325.274L199.904,324.931L200.037,324.587L200.168,324.242L200.297,323.897L200.424,323.551L200.549,323.205L200.672,322.858L200.792,322.51L200.91,322.162L201.026,321.813L201.14,321.463L201.252,321.113L201.361,320.763L201.469,320.412L201.574,320.06L201.677,319.708L201.778,319.356L201.876,319.003L201.973,318.649L202.067,318.295L202.16,317.941L202.25,317.586L202.337,317.231L202.423,316.875L202.507,316.519L202.588,316.163L202.667,315.806L202.744,315.448L202.819,315.091L202.892,314.733L202.962,314.374L203.03,314.016L203.097,313.657L203.161,313.297L203.222,312.938L203.282,312.578L203.34,312.218L203.395,311.857L203.448,311.496L203.499,311.135L203.548,310.774L203.594,310.413L203.639,310.051L203.681,309.689L203.721,309.327L203.759,308.965L203.795,308.602L203.829,308.24L203.86,307.877L203.889,307.514L203.917,307.151L203.942,306.787L203.964,306.424L203.985,306.061L204.003,305.697L204.02,305.334L204.034,304.97L204.046,304.606L204.055,304.242L204.063,303.878L204.068,303.515L204.072,303.151L204.073,302.787L204.072,302.423L204.068,302.059L204.063,301.695L204.055,301.331L204.046,300.967L204.034,300.604L204.02,300.24L204.003,299.876L203.985,299.513L203.964,299.149L203.942,298.786L203.917,298.423L203.889,298.06L203.86,297.697L203.829,297.334L203.795,296.971L203.759,296.609L203.721,296.247L203.681,295.885L203.639,295.523L203.594,295.161L203.548,294.799L203.499,294.438L203.448,294.077L203.395,293.716L203.34,293.356L203.282,292.996L203.222,292.636L203.161,292.276L203.097,291.917L203.03,291.558L202.962,291.199L202.892,290.841L202.819,290.483L202.744,290.125L202.667,289.768L202.588,289.411L202.507,289.055L202.423,288.698L202.337,288.343L202.25,287.987L202.16,287.633L202.067,287.278L201.973,286.924L201.877,286.571L201.778,286.218L201.677,285.865L201.574,285.513L201.469,285.162L201.361,284.811L201.252,284.46L201.14,284.11L201.026,283.761L200.91,283.412L200.792,283.064L200.672,282.716L200.549,282.369L200.424,282.022L200.297,281.677L200.168,281.331L200.037,280.987L199.904,280.643L199.768,280.299L199.63,279.957L199.49,279.615L199.348,279.273L199.204,278.933L199.058,278.593L198.909,278.254L198.758,277.915L198.605,277.577L198.45,277.24L198.293,276.904L198.134,276.569L197.972,276.234L197.808,275.9L197.642,275.567L197.474,275.235L197.304,274.903L197.131,274.573L196.957,274.243L196.78,273.914L196.601,273.586L196.42,273.259L196.237,272.932L196.051,272.607L195.864,272.282L195.674,271.959L195.482,271.636L195.288,271.314L195.091,270.993L194.893,270.674L194.692,270.355L194.489,270.037L194.284,269.72L194.077,269.404L193.868,269.089L193.656,268.775L193.443,268.463L193.227,268.151L193.009,267.84L192.789,267.53L192.566,267.222L192.342,266.914L192.115,266.608L191.886,266.303L191.655,265.998L191.422,265.695L191.187,265.393L190.949,265.093L190.71,264.793L190.468,264.494L190.224,264.197L189.978,263.901L189.729,263.606L189.479,263.313L189.226,263.02L188.971,262.729L188.714,262.439L188.455,262.15L188.193,261.863L187.93,261.576L187.664,261.292L187.396,261.008L187.126,260.726L186.854,260.445L186.58,260.165L186.303,259.887L173.108,246.692L172.83,246.415L172.55,246.141L172.269,245.869L171.987,245.599L171.703,245.331L171.418,245.065L171.132,244.802L170.845,244.54L170.556,244.281L170.266,244.024L169.975,243.769L169.682,243.516L169.389,243.266L169.094,243.017L168.798,242.771L168.501,242.527L168.202,242.285L167.902,242.046L167.602,241.808L167.3,241.573L166.997,241.34L166.692,241.109L166.387,240.88L166.081,240.653L165.773,240.429L165.465,240.206L165.155,239.986L164.844,239.768L164.532,239.552L164.22,239.339L163.906,239.127L163.591,238.918L163.275,238.711L162.958,238.506L162.64,238.303L162.321,238.102L162.001,237.904L161.681,237.707L161.359,237.513L161.036,237.321L160.713,237.131L160.388,236.944L160.063,236.758L159.736,236.575L159.409,236.394L159.081,236.215L158.752,236.038L158.422,235.864L158.092,235.691L157.76,235.521L157.428,235.353L157.095,235.187L156.761,235.023L156.426,234.861L156.091,234.702L155.755,234.545L155.418,234.39L155.08,234.237L154.741,234.086L154.402,233.937L154.062,233.791L153.722,233.647L153.38,233.505L153.038,233.365L152.696,233.227L152.352,233.091L152.008,232.958L151.664,232.827L151.318,232.698L150.972,232.571L150.626,232.446L150.279,232.323L149.931,232.203L149.583,232.085L149.234,231.969L148.885,231.855L148.535,231.743L148.184,231.634L147.833,231.526L147.482,231.421L147.13,231.318L146.777,231.217L146.424,231.118L146.071,231.022L145.717,230.928L145.362,230.835L145.007,230.745L144.652,230.658L144.297,230.572L143.94,230.488L143.584,230.407L143.227,230.328L142.87,230.251L142.512,230.176L142.154,230.103L141.796,230.033L141.437,229.964L141.078,229.898L140.719,229.834L140.359,229.772L139.999,229.713L139.639,229.655L139.278,229.6L138.918,229.547L138.557,229.496L138.195,229.447L137.834,229.4L137.472,229.356L137.11,229.314L136.748,229.274L136.386,229.236L136.024,229.2L135.661,229.166L135.298,229.135L134.935,229.105L134.572,229.078L134.209,229.053L133.845,229.031L133.482,229.01L133.119,228.992L132.755,228.975L132.391,228.961L132.027,228.949L131.664,228.94L131.3,228.932L130.936,228.927L130.572,228.923L130.208,228.922L129.844,228.923L129.48,228.927L129.116,228.932L128.753,228.94L128.389,228.949L128.025,228.961L127.661,228.975L127.298,228.992L126.934,229.01L126.571,229.031L126.207,229.053L125.844,229.078L125.481,229.105L125.118,229.135L124.755,229.166L124.393,229.2L124.03,229.236L123.668,229.274L123.306,229.314L122.944,229.356L122.582,229.4L122.221,229.447L121.86,229.496L121.499,229.547L121.138,229.6L120.777,229.655L120.417,229.713L120.057,229.772L119.698,229.834L119.338,229.898L118.979,229.964L118.621,230.033L118.262,230.103L117.904,230.176L117.547,230.251L117.189,230.328L116.832,230.407L116.476,230.488L116.12,230.572L115.764,230.658L115.409,230.745L115.054,230.835L114.7,230.928L114.346,231.022L113.992,231.118L113.639,231.217L113.287,231.318L112.935,231.421L112.583,231.526L112.232,231.634L111.882,231.743L111.532,231.855L111.182,231.969L110.833,232.085L110.485,232.203L110.137,232.323L109.79,232.446L109.444,232.571L109.098,232.698L108.753,232.827L108.408,232.958L108.064,233.091L107.721,233.227L107.378,233.365L107.036,233.505L106.695,233.647L106.354,233.791L106.014,233.937L105.675,234.086L105.336,234.237L104.999,234.39L104.662,234.545L104.325,234.702L103.99,234.861L103.655,235.023L103.321,235.187L102.988,235.353L102.656,235.521L102.325,235.691L101.994,235.864L101.664,236.038L101.335,236.215L101.007,236.394L100.68,236.575L100.354,236.758L100.028,236.944L99.7036,237.131L99.38,237.321L99.0574,237.513L98.7356,237.707L98.4148,237.904L98.095,238.102L97.7761,238.303L97.4583,238.506L97.1414,238.711L96.8255,238.918L96.5106,239.127L96.1967,239.339L95.8839,239.552L95.5721,239.768L95.2614,239.986L94.9517,240.206L94.6431,240.429L94.3356,240.653L94.0292,240.88L93.7239,241.109L93.4197,241.34L93.1166,241.573L92.8147,241.808L92.5139,242.046L92.2142,242.285L91.9158,242.527L91.6185,242.771L91.3224,243.017L91.0275,243.266L90.7339,243.516L90.4414,243.769L90.1502,244.024L89.8602,244.281L89.5715,244.54L89.284,244.802L88.9978,245.065L88.7129,245.331L88.4293,245.599L88.147,245.869L87.866,246.141L87.5863,246.415L87.308,246.692L52.9001,281.1L52.6236,281.378L52.3492,281.658L52.0769,281.939L51.8069,282.221L51.539,282.505L51.2733,282.79L51.0097,283.076L50.7483,283.363L50.4891,283.652L50.2321,283.942L49.9772,284.233L49.7245,284.526L49.4739,284.819L49.2256,285.114L48.9794,285.41L48.7353,285.708L48.4935,286.006L48.2538,286.306L48.0163,286.607L47.7809,286.908L47.5477,287.212L47.3167,287.516L47.0879,287.821L46.8612,288.127L46.6367,288.435L46.4143,288.744L46.1942,289.053L45.9762,289.364L45.7603,289.676L45.5467,289.989L45.3352,290.302L45.1258,290.617L44.9187,290.933L44.7137,291.25L44.5109,291.568L44.3102,291.887L44.1118,292.207L43.9154,292.527L43.7213,292.849L43.5293,293.172L43.3395,293.495L43.1519,293.82L42.9664,294.145L42.7831,294.472L42.602,294.799L42.4231,295.127L42.2463,295.456L42.0717,295.786L41.8992,296.116L41.7289,296.448L41.5608,296.78L41.3949,297.113L41.2311,297.447L41.0695,297.782L40.9101,298.117L40.7528,298.454L40.5977,298.791L40.4448,299.128L40.294,299.467L40.1454,299.806L39.999,300.146L39.8548,300.487L39.7127,300.828L39.5728,301.17L39.435,301.513L39.2995,301.856L39.1661,302.2L39.0348,302.544L38.9058,302.89L38.7789,303.236L38.6541,303.582L38.5316,303.929L38.4112,304.277L38.293,304.625L38.1769,304.974L38.063,305.323L37.9513,305.673L37.8418,306.024L37.7344,306.375L37.6292,306.726L37.5262,307.078L37.4253,307.431L37.3266,307.784L37.2301,308.137L37.1357,308.491L37.0435,308.846L36.9535,309.201L36.8657,309.556L36.78,309.912L36.6965,310.268L36.6151,310.624L36.5359,310.981L36.4589,311.338L36.3841,311.696L36.3114,312.054L36.2409,312.412L36.1726,312.771L36.1064,313.13L36.0425,313.489L35.9806,313.849L35.921,314.209L35.8635,314.569L35.8082,314.93L35.755,315.29L35.7041,315.651L35.6553,316.013L35.6086,316.374L35.5642,316.736L35.5219,317.098L35.4817,317.46L35.4438,317.822L35.408,318.185L35.3744,318.547L35.3429,318.91L35.3136,319.273L35.2865,319.636L35.2616,319.999L35.2388,320.363L35.2182,320.726L35.1997,321.09L35.1835,321.453L35.1694,321.817L35.1574,322.181L35.1477,322.544L35.1401,322.908L35.1347,323.272L35.1314,323.636L35.1303,324L35.1314,324.364L35.1347,324.728L35.1401,325.092L35.1477,325.456L35.1574,325.819L35.1694,326.183L35.1835,326.547L35.1997,326.91L35.2182,327.274L35.2388,327.637L35.2616,328.001L35.2865,328.364L35.3136,328.727L35.3429,329.09L35.3744,329.453L35.408,329.815L35.4438,330.178L35.4817,330.54L35.5219,330.902L35.5642,331.264L35.6086,331.626L35.6553,331.987L35.7041,332.349L35.755,332.71L35.8082,333.07L35.8635,333.431L35.921,333.791L35.9806,334.151L36.0425,334.511L36.1064,334.87L36.1726,335.229L36.2409,335.588L36.3114,335.946L36.3841,336.304L36.4589,336.662L36.5359,337.019L36.6151,337.376L36.6965,337.732L36.78,338.088L36.8657,338.444L36.9535,338.799L37.0435,339.154L37.1357,339.509L37.2301,339.863L37.3266,340.216L37.4253,340.569L37.5262,340.922L37.6292,341.274L37.7344,341.625L37.8418,341.976L37.9513,342.327L38.063,342.677L38.1769,343.026L38.293,343.375L38.4112,343.723L38.5316,344.071L38.6541,344.418L38.7789,344.764L38.9058,345.11L39.0348,345.456L39.1661,345.8L39.2995,346.144L39.435,346.487L39.5728,346.83L39.7127,347.172L39.8548,347.513L39.999,347.854L40.1454,348.194L40.294,348.533L40.4448,348.872L40.5977,349.209L40.7528,349.546L40.9101,349.883L41.0695,350.218L41.2311,350.553L41.3949,350.887L41.5608,351.22L41.7289,351.552L41.8992,351.884L42.0717,352.214L42.2463,352.544L42.4231,352.873L42.602,353.201L42.7831,353.528L42.9664,353.855L43.1519,354.18L43.3395,354.505L43.5293,354.828L43.7213,355.151L43.9154,355.473L44.1118,355.793L44.3102,356.113L44.5109,356.432L44.7137,356.75L44.9187,357.067L45.1258,357.383L45.3352,357.698L45.5467,358.011L45.7603,358.324L45.9762,358.636L46.1942,358.947L46.4143,359.256L46.6367,359.565L46.8612,359.873L47.0879,360.179L47.3167,360.484L47.5477,360.788L47.7809,361.092L48.0163,361.393L48.2538,361.694L48.4935,361.994L48.7353,362.292L48.9794,362.59L49.2256,362.886L49.4739,363.181L49.7245,363.474L49.9772,363.767L50.2321,364.058L50.4891,364.348L50.7483,364.637L51.0097,364.924L51.2733,365.21L51.539,365.495L51.8069,365.779L52.0769,366.061L52.3492,366.342L52.6236,366.622L52.9001,366.9L66.0948,380.095L66.3731,380.371L66.6528,380.646L66.9338,380.918L67.2161,381.188L67.4997,381.456L67.7846,381.722L68.0708,381.985L68.3583,382.247L68.647,382.506L68.937,382.763L69.2282,383.018L69.5207,383.27L69.8143,383.521L70.1092,383.769L70.4053,384.016L70.7026,384.26L71.001,384.501L71.3007,384.741L71.6015,384.979L71.9034,385.214L72.2065,385.447L72.5107,385.678L72.816,385.907L73.1224,386.134L73.4299,386.358L73.7385,386.581L74.0482,386.801L74.3589,387.019L74.6707,387.235L74.9835,387.448L75.2974,387.66L75.6123,387.869L75.9282,388.076L76.2451,388.281L76.5629,388.484L76.8818,388.685L77.2016,388.883L77.5224,389.08L77.8442,389.274L78.1668,389.466L78.4904,389.655L78.815,389.843L79.1404,390.029L79.4667,390.212L79.7939,390.393L80.122,390.572L80.4509,390.749L80.7807,390.923L81.1113,391.096L81.4428,391.266L81.7751,391.434L82.1082,391.6L82.4421,391.764L82.7768,391.925L83.1122,392.085L83.4485,392.242L83.7855,392.397L84.1232,392.55L84.4617,392.701L84.8009,392.85L85.1408,392.996L85.4815,393.14L85.8228,393.282L86.1648,393.422L86.5075,393.56L86.8508,393.695L87.1948,393.829L87.5394,393.96L87.8847,394.089L88.2306,394.216L88.5771,394.341L88.9242,394.463L89.2719,394.584L89.6202,394.702L89.969,394.818L90.3184,394.932L90.6684,395.044L91.0188,395.153L91.3699,395.261L91.7214,395.366L92.0734,395.469L92.4259,395.57L92.7789,395.668L93.1324,395.765L93.4864,395.859L93.8408,395.951L94.1956,396.041L94.5509,396.129L94.9066,396.215L95.2627,396.298L95.6192,396.38L95.9761,396.459L96.3334,396.536L96.691,396.611L97.049,396.684L97.4074,396.754L97.766,396.822L98.1251,396.889L98.4844,396.952L98.844,397.014L99.2039,397.074L99.5642,397.131L99.9246,397.187L100.285,397.24L100.646,397.291L101.008,397.34L101.369,397.386L101.731,397.431L102.093,397.473L102.455,397.513L102.817,397.551L103.18,397.587L103.542,397.621L103.905,397.652L104.268,397.681L104.631,397.708L104.994,397.733L105.358,397.756L105.721,397.777L106.085,397.795L106.448,397.811L106.812,397.826L107.176,397.838L107.539,397.847L107.903,397.855L108.267,397.86L108.631,397.864L108.995,397.865Z" style="fill:black;"/>
            </g>
            <g>
                <path d="M302.028,236.679L301.466,236.677L300.903,236.672L300.34,236.664L299.778,236.652L299.215,236.637L298.654,236.619L298.091,236.597L297.528,236.572L296.967,236.543L296.404,236.511L295.843,236.476L295.282,236.438L294.72,236.396L294.158,236.35L293.598,236.302L293.037,236.25L292.475,236.194L291.916,236.136L291.356,236.074L290.796,236.008L290.236,235.939L289.677,235.867L289.118,235.792L288.559,235.713L288.001,235.631L287.443,235.545L286.886,235.456L286.328,235.364L285.772,235.268L285.215,235.169L284.659,235.066L284.105,234.961L283.549,234.851L282.995,234.739L282.442,234.623L281.888,234.504L281.335,234.381L280.783,234.255L280.232,234.126L279.68,233.993L279.13,233.857L278.58,233.717L278.031,233.575L277.482,233.428L276.934,233.279L276.387,233.126L275.84,232.969L275.294,232.809L274.749,232.646L274.204,232.48L273.661,232.31L273.118,232.137L272.576,231.96L272.036,231.78L271.495,231.597L270.955,231.409L270.416,231.219L269.879,231.026L269.342,230.829L268.805,230.628L268.27,230.425L267.737,230.218L267.203,230.007L266.672,229.793L266.141,229.576L265.611,229.356L265.081,229.131L264.553,228.904L264.026,228.673L263.501,228.439L262.976,228.201L262.452,227.96L261.93,227.716L261.409,227.468L260.889,227.217L260.37,226.963L259.853,226.705L259.336,226.444L258.821,226.179L258.307,225.911L257.795,225.64L257.284,225.366L256.774,225.087L256.265,224.806L255.759,224.521L255.253,224.233L254.749,223.941L254.247,223.647L253.745,223.348L253.245,223.047L252.747,222.742L252.25,222.434L251.755,222.122L251.261,221.807L250.77,221.489L250.279,221.167L249.79,220.842L249.303,220.514L248.818,220.182L248.334,219.848L247.851,219.509L247.371,219.168L246.893,218.823L246.415,218.474L245.94,218.123L245.468,217.769L244.997,217.411L244.527,217.05L244.059,216.685L243.593,216.317L243.129,215.946L242.668,215.572L242.208,215.194L241.75,214.813L241.294,214.429L240.84,214.042L240.388,213.651L239.938,213.258L239.49,212.861L239.045,212.461L238.601,212.058L238.159,211.651L237.72,211.241L237.284,210.829L236.849,210.413L236.416,209.994L235.986,209.571L235.595,209.183L222.326,195.914L221.938,195.523L221.515,195.093L221.097,194.661L220.68,194.226L220.267,193.788L219.858,193.35L219.452,192.908L219.048,192.464L218.648,192.019L218.251,191.571L217.858,191.121L217.467,190.669L217.08,190.215L216.696,189.76L216.315,189.302L215.937,188.841L215.563,188.38L215.192,187.915L214.824,187.45L214.46,186.982L214.099,186.513L213.741,186.042L213.386,185.568L213.034,185.093L212.687,184.617L212.342,184.138L212,183.657L211.661,183.175L211.327,182.692L210.995,182.206L210.667,181.719L210.342,181.23L210.02,180.74L209.702,180.248L209.387,179.754L209.076,179.259L208.767,178.762L208.462,178.264L208.161,177.764L207.862,177.263L207.568,176.76L207.277,176.256L206.988,175.75L206.703,175.243L206.422,174.735L206.144,174.225L205.869,173.714L205.598,173.202L205.33,172.688L205.065,172.172L204.804,171.657L204.546,171.139L204.292,170.62L204.041,170.1L203.793,169.579L203.549,169.057L203.308,168.533L203.07,168.009L202.836,167.483L202.605,166.956L202.378,166.428L202.154,165.899L201.933,165.369L201.716,164.837L201.502,164.306L201.292,163.773L201.084,163.238L200.881,162.703L200.68,162.167L200.483,161.63L200.29,161.093L200.1,160.554L199.913,160.015L199.729,159.474L199.549,158.932L199.372,158.39L199.199,157.848L199.029,157.305L198.863,156.76L198.7,156.215L198.54,155.669L198.384,155.122L198.231,154.575L198.081,154.027L197.935,153.478L197.792,152.929L197.652,152.379L197.516,151.83L197.383,151.278L197.254,150.726L197.128,150.174L197.005,149.621L196.886,149.068L196.77,148.513L196.658,147.959L196.549,147.405L196.443,146.85L196.34,146.293L196.241,145.737L196.146,145.181L196.053,144.624L195.964,144.066L195.879,143.508L195.796,142.95L195.718,142.391L195.642,141.832L195.57,141.273L195.501,140.714L195.436,140.154L195.374,139.593L195.315,139.033L195.26,138.473L195.207,137.912L195.159,137.35L195.114,136.79L195.072,136.228L195.033,135.666L194.998,135.104L194.966,134.543L194.937,133.981L194.912,133.418L194.891,132.856L194.872,132.294L194.857,131.731L194.845,131.169L194.837,130.606L194.832,130.044L194.83,129.481L194.832,128.918L194.837,128.356L194.845,127.793L194.857,127.231L194.872,126.668L194.891,126.106L194.912,125.544L194.937,124.981L194.966,124.419L194.998,123.858L195.033,123.296L195.072,122.733L195.114,122.172L195.159,121.611L195.207,121.05L195.26,120.489L195.315,119.928L195.374,119.368L195.436,118.808L195.501,118.248L195.57,117.689L195.642,117.129L195.718,116.57L195.796,116.012L195.879,115.454L195.964,114.896L196.053,114.338L196.146,113.781L196.241,113.225L196.34,112.669L196.443,112.112L196.549,111.557L196.658,111.003L196.77,110.448L196.886,109.894L197.005,109.341L197.128,108.788L197.254,108.236L197.383,107.683L197.516,107.132L197.652,106.583L197.792,106.033L197.935,105.483L198.081,104.935L198.231,104.387L198.384,103.839L198.54,103.293L198.7,102.747L198.863,102.202L199.029,101.657L199.199,101.114L199.372,100.571L199.549,100.029L199.729,99.4875L199.913,98.9471L200.1,98.4076L200.29,97.8688L200.483,97.3316L200.68,96.7948L200.881,96.2587L201.084,95.7237L201.292,95.189L201.502,94.6558L201.716,94.1243L201.933,93.5933L202.154,93.0631L202.378,92.534L202.605,92.0061L202.836,91.4791L203.07,90.9534L203.308,90.4287L203.549,89.9051L203.793,89.3827L204.041,88.8615L204.292,88.342L204.546,87.8225L204.804,87.3052L205.065,86.7894L205.33,86.2736L205.598,85.7599L205.869,85.2481L206.144,84.7369L206.422,84.2265L206.704,83.718L206.988,83.2116L207.276,82.706L207.568,82.2018L207.863,81.6991L208.161,81.1976L208.462,80.6979L208.767,80.1998L209.076,79.703L209.387,79.2076L209.702,78.7141L210.02,78.2221L210.342,77.7314L210.667,77.2426L210.995,76.7556L211.327,76.27L211.662,75.7867L212,75.3047L212.342,74.8237L212.686,74.3452L213.034,73.8688L213.386,73.3936L213.741,72.9199L214.099,72.4487L214.46,71.9797L214.824,71.5118L215.192,71.046L215.563,70.5823L215.938,70.1199L216.315,69.6602L216.696,69.2024L217.08,68.7464L217.467,68.2925L217.858,67.8404L218.251,67.391L218.648,66.9429L219.048,66.4973L219.452,66.0538L219.858,65.6123L220.268,65.173L220.681,64.736L221.096,64.3016L221.515,63.869L221.938,63.4383L222.326,63.0477L256.808,28.5653L257.199,28.1768L257.63,27.7545L258.062,27.3361L258.496,26.9204L258.934,26.5068L259.373,26.0973L259.814,25.6912L260.258,25.2878L260.704,24.8874L261.151,24.4908L261.601,24.0971L262.053,23.7062L262.507,23.3194L262.963,22.9354L263.42,22.5548L263.881,22.1766L264.343,21.8024L264.806,21.4317L265.272,21.0638L265.74,20.6994L266.21,20.3379L266.681,19.9799L267.154,19.6254L267.629,19.2738L268.106,18.9257L268.584,18.5812L269.065,18.2395L269.547,17.9013L270.031,17.5662L270.516,17.2345L271.003,16.9064L271.492,16.5818L271.982,16.26L272.475,15.9414L272.969,15.6264L273.464,15.3148L273.96,15.0072L274.458,14.7022L274.959,14.4001L275.459,14.1022L275.962,13.8072L276.467,13.5154L276.972,13.2275L277.479,12.943L277.987,12.6614L278.497,12.3832L279.008,12.1085L279.521,11.8373L280.034,11.5695L280.549,11.3047L281.066,11.0434L281.583,10.7857L282.102,10.5313L282.622,10.2802L283.144,10.0324L283.666,9.78811L284.189,9.54713L284.714,9.30956L285.24,9.07545L285.766,8.84481L286.294,8.6174L286.824,8.39307L287.354,8.17236L287.885,7.95534L288.416,7.74154L288.95,7.53081L289.484,7.3238L290.019,7.12017L290.555,6.91962L291.092,6.7227L291.629,6.52923L292.168,6.33903L292.708,6.15211L293.248,5.96864L293.789,5.78866L294.332,5.61191L294.875,5.4386L295.418,5.2689L295.962,5.10231L296.507,4.93915L297.053,4.77936L297.6,4.62298L298.147,4.47001L298.695,4.32026L299.244,4.17408L299.793,4.03125L300.343,3.89169L300.893,3.75554L301.445,3.62279L301.996,3.49338L302.549,3.36739L303.101,3.24484L303.654,3.12554L304.209,3.00957L304.763,2.89707L305.318,2.78794L305.873,2.68213L306.429,2.57972L306.985,2.4807L307.542,2.38496L308.099,2.29261L308.656,2.20367L309.214,2.11808L309.773,2.03582L310.331,1.95697L310.89,1.88146L311.449,1.80927L312.009,1.74051L312.569,1.67507L313.129,1.61298L313.689,1.55428L314.25,1.49893L314.811,1.44691L315.372,1.39828L315.933,1.353L316.494,1.31106L317.056,1.27249L317.618,1.23728L318.18,1.20541L318.742,1.1769L319.304,1.15175L319.866,1.12995L320.429,1.1115L320.991,1.09642L321.554,1.08467L322.116,1.07629L322.679,1.07126L323.241,1.06958L323.804,1.07126L324.367,1.07629L324.929,1.08467L325.492,1.09642L326.054,1.1115L326.617,1.12995L327.179,1.15175L327.741,1.1769L328.303,1.20541L328.865,1.23728L329.427,1.27249L329.988,1.31106L330.55,1.353L331.111,1.39827L331.672,1.44691L332.233,1.49895L332.794,1.55428L333.354,1.61298L333.914,1.67507L334.474,1.74051L335.034,1.80927L335.593,1.88144L336.152,1.95697L336.711,2.03585L337.269,2.11808L337.826,2.20364L338.384,2.29261L338.941,2.38499L339.498,2.48065L340.054,2.57969L340.61,2.68218L341.165,2.78798L341.72,2.89707L342.274,3.00957L342.828,3.12554L343.382,3.24484L343.934,3.36736L344.486,3.49337L345.039,3.62284L345.589,3.75554L346.14,3.89169L346.69,4.03125L347.239,4.17408L347.788,4.32026L348.336,4.46996L348.883,4.62298L349.43,4.77941L349.976,4.93915L350.52,5.10219L351.065,5.26885L351.609,5.43873L352.151,5.61191L352.693,5.78866L353.235,5.9687L353.775,6.15211L354.315,6.33903L354.853,6.52923L355.391,6.7227L355.928,6.91962L356.464,7.12017L356.999,7.3238L357.533,7.53081L358.066,7.74154L358.598,7.95534L359.129,8.1723L359.659,8.39306L360.189,8.61746L360.717,8.84481L361.243,9.07545L361.769,9.30956L362.293,9.54706L362.817,9.78811L363.34,10.0324L363.861,10.2801L364.381,10.5313L364.9,10.7858L365.417,11.0433L365.933,11.3047L366.449,11.5696L366.962,11.8373L367.474,12.1085L367.986,12.3832L368.495,12.6613L369.004,12.9426L369.511,13.2275L370.017,13.5158L370.521,13.8072L371.024,14.1022L371.524,14.4001L372.025,14.7021L372.523,15.0071L373.019,15.3148L373.514,15.6264L374.008,15.9415L374.501,16.2601L374.991,16.5817L375.479,16.9064L375.966,17.2345L376.452,17.5662L376.936,17.9013L377.418,18.2394L377.899,18.5811L378.377,18.9257L378.854,19.2738L379.329,19.6254L379.802,19.9799L380.273,20.338L380.743,20.6994L381.211,21.0638L381.677,21.4317L382.14,21.8024L382.602,22.1767L383.062,22.5548L383.52,22.9354L383.976,23.3194L384.43,23.7062L384.881,24.0965L385.332,24.4908L385.78,24.8879L386.225,25.2878L386.669,25.6912L387.11,26.0973L387.549,26.5069L387.986,26.9197L388.421,27.336L388.854,27.7551L389.284,28.1768L389.675,28.5653L402.944,41.8352L403.332,42.2258L403.754,42.6551L404.173,43.0881L404.589,43.5232L405.002,43.9599L405.412,44.3995L405.818,44.8405L406.221,45.2837L406.621,45.7297L407.019,46.1779L407.412,46.6273L407.802,47.0789L408.19,47.5332L408.574,47.9896L408.955,48.447L409.332,48.9067L409.707,49.3691L410.078,49.8332L410.445,50.2986L410.81,50.7658L411.171,51.2358L411.529,51.7069L411.883,52.1796L412.235,52.655L412.584,53.1325L412.929,53.6116L413.27,54.0915L413.608,54.573L413.942,55.0563L414.274,55.5423L414.603,56.0299L414.928,56.5184L415.25,57.0094L415.568,57.5009L415.882,57.9939L416.194,58.4898L416.503,58.987L416.807,59.4847L417.109,59.9841L417.407,60.4859L417.702,60.988L417.993,61.4927L418.282,61.999L418.566,62.5055L418.848,63.0133L419.125,63.5226L419.4,64.0343L419.672,64.5472L419.94,65.0616L420.205,65.5762L420.465,66.0918L420.723,66.6087L420.978,67.1283L421.229,67.6489L421.477,68.1695L421.721,68.6925L421.962,69.2155L422.199,69.7396L422.434,70.2659L422.665,70.7935L422.892,71.3208L423.116,71.8493L423.337,72.3801L423.554,72.9105L423.768,73.4433L423.979,73.9771L424.185,74.5091L424.389,75.0449L424.59,75.5816L424.786,76.1178L424.98,76.6563L425.17,77.1943L425.357,77.7345L425.541,78.2756L425.72,78.8149L425.897,79.3576L426.071,79.9011L426.24,80.4441L426.407,80.9892L426.57,81.5337L426.73,82.0789L426.886,82.6261L427.039,83.1741L427.189,83.7214L427.335,84.2694L427.478,84.8194L427.617,85.3686L427.754,85.9198L427.887,86.4716L428.015,87.0213L428.142,87.5743L428.264,88.1278L428.384,88.6805L428.5,89.2351L428.612,89.7888L428.721,90.3444L428.827,90.9005L428.929,91.4542L429.028,92.0112L429.124,92.5686L429.216,93.125L429.305,93.6818L429.391,94.2404L429.473,94.7994L429.552,95.3573L429.628,95.9155L429.7,96.4755L429.769,97.0358L429.834,97.595L429.896,98.1544L429.955,98.7155L430.01,99.2769L430.062,99.8356L430.111,100.397L430.156,100.959L430.198,101.52L430.237,102.083L430.272,102.644L430.304,103.206L430.332,103.769L430.357,104.329L430.379,104.892L430.398,105.456L430.413,106.017L430.424,106.579L430.433,107.142L430.438,107.706L430.44,108.268L430.438,108.83L430.433,109.393L430.424,109.956L430.413,110.518L430.398,111.08L430.379,111.643L430.357,112.206L430.332,112.766L430.304,113.329L430.272,113.892L430.237,114.453L430.198,115.015L430.156,115.576L430.111,116.138L430.062,116.7L430.01,117.258L429.955,117.82L429.896,118.381L429.834,118.94L429.769,119.5L429.7,120.06L429.628,120.62L429.552,121.178L429.473,121.736L429.391,122.295L429.305,122.854L429.216,123.41L429.124,123.967L429.028,124.524L428.929,125.081L428.827,125.635L428.721,126.191L428.612,126.747L428.5,127.3L428.384,127.855L428.264,128.408L428.142,128.961L428.015,129.514L427.887,130.064L427.754,130.616L427.617,131.167L427.478,131.716L427.335,132.266L427.189,132.814L427.039,133.361L426.886,133.909L426.73,134.456L426.57,135.002L426.407,135.546L426.24,136.091L426.071,136.634L425.897,137.178L425.72,137.721L425.54,138.261L425.357,138.801L425.171,139.34L424.98,139.879L424.786,140.418L424.589,140.955L424.389,141.491L424.185,142.025L423.979,142.558L423.768,143.092L423.554,143.625L423.337,144.155L423.116,144.686L422.892,145.215L422.665,145.742L422.434,146.269L422.199,146.796L421.962,147.32L421.721,147.843L421.477,148.366L421.229,148.886L420.978,149.407L420.723,149.927L420.465,150.444L420.205,150.959L419.94,151.474L419.672,151.988L419.4,152.501L419.125,153.013L418.848,153.522L418.566,154.03L418.282,154.537L417.994,155.043L417.702,155.547L417.407,156.05L417.109,156.551L416.807,157.05L416.503,157.549L416.194,158.046L415.882,158.541L415.568,159.034L415.25,159.526L414.928,160.017L414.602,160.506L414.274,160.993L413.943,161.478L413.608,161.962L413.27,162.444L412.929,162.924L412.584,163.403L412.235,163.88L411.884,164.356L411.529,164.828L411.171,165.3L410.81,165.77L410.446,166.236L410.078,166.702L409.707,167.166L409.332,167.629L408.955,168.088L408.574,168.546L408.19,169.002L407.802,169.457L407.412,169.908L407.019,170.358L406.621,170.806L406.221,171.252L405.818,171.695L405.412,172.136L405.002,172.575L404.59,173.012L404.173,173.448L403.754,173.88L403.332,174.31L402.944,174.7L368.461,209.183L368.071,209.572L367.64,209.994L367.208,210.413L366.774,210.828L366.336,211.242L365.897,211.651L365.456,212.057L365.012,212.461L364.566,212.861L364.119,213.258L363.668,213.652L363.216,214.042L362.763,214.429L362.307,214.813L361.85,215.193L361.389,215.572L360.927,215.946L360.464,216.317L359.997,216.685L359.53,217.049L359.06,217.411L358.589,217.769L358.116,218.123L357.641,218.475L357.163,218.823L356.685,219.168L356.205,219.509L355.723,219.847L355.239,220.182L354.753,220.514L354.266,220.842L353.778,221.167L353.287,221.489L352.795,221.807L352.301,222.122L351.806,222.434L351.31,222.741L350.812,223.047L350.312,223.348L349.81,223.647L349.307,223.941L348.803,224.233L348.297,224.521L347.791,224.805L347.283,225.087L346.772,225.366L346.261,225.64L345.749,225.911L345.236,226.179L344.72,226.444L344.203,226.705L343.687,226.963L343.168,227.217L342.648,227.468L342.126,227.716L341.604,227.96L341.08,228.201L340.556,228.439L340.03,228.673L339.503,228.904L338.976,229.131L338.446,229.356L337.915,229.576L337.385,229.793L336.853,230.007L336.319,230.218L335.786,230.425L335.251,230.628L334.714,230.829L334.177,231.026L333.641,231.219L333.102,231.409L332.561,231.597L332.021,231.78L331.48,231.96L330.938,232.137L330.395,232.31L329.852,232.48L329.308,232.646L328.762,232.809L328.217,232.969L327.67,233.126L327.123,233.279L326.574,233.428L326.026,233.575L325.477,233.717L324.927,233.857L324.376,233.993L323.825,234.126L323.274,234.255L322.721,234.381L322.168,234.504L321.615,234.623L321.061,234.739L320.507,234.851L319.952,234.961L319.397,235.066L318.841,235.169L318.284,235.268L317.728,235.364L317.171,235.456L316.613,235.545L316.056,235.631L315.497,235.713L314.939,235.792L314.38,235.867L313.82,235.939L313.261,236.008L312.701,236.074L312.141,236.136L311.581,236.194L311.02,236.25L310.459,236.302L309.899,236.35L309.337,236.396L308.775,236.438L308.214,236.476L307.652,236.511L307.089,236.543L306.528,236.572L305.966,236.597L305.403,236.619L304.841,236.637L304.279,236.652L303.716,236.664L303.153,236.672L302.591,236.677L302.028,236.679ZM302.028,203.346L302.392,203.344L302.756,203.341L303.12,203.336L303.484,203.328L303.848,203.318L304.211,203.306L304.575,203.292L304.939,203.276L305.302,203.258L305.666,203.237L306.029,203.214L306.392,203.189L306.755,203.162L307.118,203.133L307.481,203.101L307.844,203.068L308.206,203.032L308.568,202.994L308.93,202.954L309.292,202.912L309.654,202.867L310.016,202.821L310.377,202.772L310.738,202.721L311.099,202.668L311.459,202.612L311.819,202.555L312.179,202.495L312.539,202.433L312.898,202.369L313.257,202.303L313.616,202.235L313.974,202.164L314.332,202.092L314.69,202.017L315.047,201.94L315.404,201.861L315.761,201.779L316.117,201.696L316.472,201.61L316.828,201.522L317.182,201.432L317.537,201.34L317.891,201.246L318.244,201.149L318.597,201.051L318.95,200.95L319.302,200.847L319.653,200.741L320.004,200.634L320.355,200.525L320.705,200.413L321.054,200.299L321.403,200.183L321.751,200.065L322.099,199.944L322.446,199.822L322.793,199.697L323.138,199.57L323.484,199.441L323.828,199.31L324.172,199.176L324.516,199.041L324.858,198.903L325.2,198.763L325.542,198.621L325.882,198.477L326.222,198.33L326.562,198.182L326.9,198.031L327.238,197.878L327.575,197.723L327.911,197.566L328.246,197.406L328.581,197.245L328.915,197.081L329.248,196.915L329.58,196.747L329.912,196.577L330.242,196.404L330.572,196.23L330.901,196.053L331.229,195.874L331.557,195.693L331.883,195.509L332.208,195.324L332.533,195.136L332.856,194.947L333.179,194.755L333.501,194.56L333.822,194.364L334.141,194.166L334.46,193.965L334.778,193.762L335.095,193.557L335.411,193.35L335.726,193.141L336.04,192.929L336.353,192.716L336.664,192.5L336.975,192.282L337.285,192.062L337.593,191.839L337.901,191.615L338.207,191.388L338.513,191.159L338.817,190.928L339.12,190.695L339.422,190.46L339.723,190.222L340.022,189.982L340.321,189.741L340.618,189.496L340.914,189.25L341.209,189.002L341.503,188.751L341.795,188.499L342.086,188.244L342.376,187.987L342.665,187.728L342.952,187.466L343.239,187.203L343.523,186.937L343.807,186.669L344.089,186.399L344.37,186.127L344.65,185.852L344.928,185.576L379.336,151.168L379.613,150.89L379.887,150.61L380.159,150.329L380.43,150.047L380.697,149.763L380.963,149.478L381.227,149.192L381.488,148.904L381.747,148.616L382.004,148.326L382.259,148.034L382.512,147.742L382.762,147.448L383.011,147.153L383.257,146.857L383.501,146.56L383.743,146.262L383.983,145.962L384.22,145.661L384.456,145.359L384.689,145.056L384.92,144.752L385.149,144.447L385.375,144.14L385.6,143.833L385.822,143.524L386.042,143.214L386.26,142.904L386.476,142.592L386.69,142.279L386.901,141.965L387.111,141.65L387.318,141.334L387.523,141.018L387.726,140.7L387.926,140.381L388.125,140.061L388.321,139.74L388.515,139.418L388.707,139.096L388.897,138.772L389.085,138.448L389.27,138.122L389.453,137.796L389.634,137.469L389.813,137.141L389.99,136.812L390.165,136.482L390.337,136.151L390.507,135.82L390.676,135.488L390.842,135.154L391.005,134.821L391.167,134.486L391.326,134.15L391.484,133.814L391.639,133.477L391.792,133.139L391.942,132.801L392.091,132.462L392.237,132.122L392.382,131.781L392.524,131.44L392.664,131.098L392.801,130.755L392.937,130.412L393.07,130.068L393.202,129.723L393.331,129.378L393.458,129.032L393.582,128.686L393.705,128.338L393.825,127.991L393.943,127.642L394.059,127.294L394.173,126.944L394.285,126.594L394.395,126.244L394.502,125.893L394.607,125.541L394.71,125.189L394.811,124.837L394.91,124.484L395.006,124.13L395.101,123.776L395.193,123.422L395.283,123.067L395.371,122.712L395.456,122.356L395.54,122L395.621,121.643L395.7,121.287L395.777,120.929L395.852,120.572L395.925,120.214L395.995,119.855L396.064,119.497L396.13,119.138L396.194,118.778L396.256,118.419L396.315,118.059L396.373,117.698L396.428,117.338L396.481,116.977L396.532,116.616L396.581,116.255L396.628,115.894L396.672,115.532L396.715,115.17L396.755,114.808L396.793,114.446L396.828,114.083L396.862,113.72L396.894,113.358L396.923,112.995L396.95,112.632L396.975,112.268L396.998,111.905L397.018,111.542L397.037,111.178L397.053,110.814L397.067,110.451L397.079,110.087L397.089,109.723L397.096,109.359L397.102,108.996L397.105,108.632L397.106,108.268L397.105,107.904L397.102,107.54L397.096,107.176L397.089,106.812L397.079,106.448L397.067,106.085L397.053,105.721L397.037,105.357L397.018,104.994L396.998,104.63L396.975,104.267L396.95,103.904L396.923,103.541L396.894,103.178L396.862,102.815L396.828,102.452L396.793,102.09L396.755,101.728L396.715,101.365L396.672,101.004L396.628,100.642L396.581,100.28L396.532,99.9191L396.481,99.5581L396.428,99.1974L396.373,98.8369L396.315,98.4767L396.256,98.1168L396.194,97.7571L396.13,97.3978L396.064,97.0388L395.995,96.6801L395.925,96.3218L395.852,95.9638L395.777,95.6061L395.7,95.2488L395.621,94.8919L395.54,94.5354L395.456,94.1793L395.371,93.8236L395.283,93.4684L395.193,93.1135L395.101,92.7591L395.006,92.4052L394.91,92.0517L394.811,91.6987L394.71,91.3462L394.607,90.9941L394.502,90.6426L394.395,90.2916L394.285,89.9411L394.173,89.5912L394.059,89.2418L393.943,88.8929L393.825,88.5447L393.705,88.197L393.582,87.8499L393.458,87.5034L393.331,87.1575L393.202,86.8122L393.07,86.4676L392.937,86.1236L392.801,85.7802L392.664,85.4375L392.524,85.0955L392.382,84.7542L392.237,84.4136L392.091,84.0737L391.942,83.7344L391.792,83.396L391.639,83.0582L391.484,82.7212L391.326,82.385L391.167,82.0495L391.005,81.7148L390.842,81.3809L390.676,81.0478L390.507,80.7156L390.337,80.3841L390.165,80.0535L389.99,79.7237L389.813,79.3947L389.634,79.0666L389.453,78.7394L389.27,78.4131L389.085,78.0877L388.897,77.7632L388.707,77.4396L388.515,77.1169L388.321,76.7952L388.125,76.4744L387.926,76.1545L387.726,75.8357L387.523,75.5178L387.318,75.2009L387.111,74.885L386.901,74.5701L386.69,74.2563L386.476,73.9434L386.26,73.6316L386.042,73.3209L385.822,73.0112L385.6,72.7026L385.375,72.3951L385.149,72.0887L384.92,71.7834L384.689,71.4792L384.456,71.1761L384.22,70.8742L383.983,70.5734L383.743,70.2738L383.501,69.9753L383.257,69.6781L383.011,69.382L382.762,69.0871L382.512,68.7934L382.259,68.5009L382.004,68.2097L381.747,67.9197L381.488,67.631L381.227,67.3435L380.963,67.0574L380.697,66.7725L380.43,66.4888L380.159,66.2065L379.887,65.9255L379.613,65.6459L379.336,65.3676L366.142,52.1729L365.863,51.8963L365.584,51.6219L365.303,51.3497L365.02,51.0796L364.737,50.8117L364.452,50.546L364.166,50.2825L363.878,50.0211L363.589,49.7619L363.299,49.5048L363.008,49.2499L362.716,48.9972L362.422,48.7467L362.127,48.4983L361.831,48.2521L361.534,48.0081L361.235,47.7662L360.936,47.5265L360.635,47.289L360.333,47.0537L360.03,46.8205L359.726,46.5894L359.42,46.3606L359.114,46.1339L358.807,45.9094L358.498,45.6871L358.188,45.4669L357.878,45.2489L357.566,45.0331L357.253,44.8194L356.939,44.6079L356.624,44.3986L356.308,44.1914L355.991,43.9864L355.673,43.7836L355.355,43.583L355.035,43.3845L354.714,43.1882L354.392,42.9941L354.07,42.8021L353.746,42.6123L353.421,42.4246L353.096,42.2392L352.77,42.0559L352.443,41.8748L352.114,41.6958L351.785,41.519L351.456,41.3444L351.125,41.172L350.794,41.0017L350.461,40.8336L350.128,40.6676L349.794,40.5038L349.46,40.3422L349.124,40.1828L348.788,40.0255L348.451,39.8705L348.113,39.7175L347.775,39.5668L347.435,39.4182L347.096,39.2718L346.755,39.1275L346.414,38.9854L346.072,38.8455L345.729,38.7078L345.386,38.5722L345.042,38.4388L344.697,38.3076L344.352,38.1785L344.006,38.0516L343.659,37.9269L343.312,37.8043L342.964,37.6839L342.616,37.5657L342.267,37.4497L341.918,37.3358L341.568,37.2241L341.218,37.1145L340.867,37.0072L340.515,36.9019L340.163,36.7989L339.81,36.698L339.457,36.5993L339.104,36.5028L338.75,36.4085L338.396,36.3163L338.041,36.2263L337.686,36.1384L337.33,36.0527L336.974,35.9692L336.617,35.8879L336.26,35.8087L335.903,35.7317L335.545,35.6568L335.187,35.5842L334.829,35.5137L334.47,35.4454L334.111,35.3792L333.752,35.3152L333.392,35.2534L333.032,35.1937L332.672,35.1362L332.312,35.0809L331.951,35.0278L331.59,34.9768L331.229,34.928L330.867,34.8814L330.506,34.8369L330.144,34.7946L329.782,34.7545L329.419,34.7165L329.057,34.6807L328.694,34.6471L328.331,34.6156L327.968,34.5864L327.605,34.5592L327.242,34.5343L326.879,34.5115L326.515,34.4909L326.152,34.4725L325.788,34.4562L325.425,34.4421L325.061,34.4302L324.697,34.4204L324.333,34.4128L323.969,34.4074L323.605,34.4042L323.241,34.4031L322.878,34.4042L322.514,34.4074L322.15,34.4128L321.786,34.4204L321.422,34.4302L321.058,34.4421L320.695,34.4562L320.331,34.4725L319.968,34.4909L319.604,34.5115L319.241,34.5343L318.878,34.5592L318.514,34.5864L318.152,34.6156L317.789,34.6471L317.426,34.6807L317.064,34.7165L316.701,34.7545L316.339,34.7946L315.977,34.8369L315.616,34.8814L315.254,34.928L314.893,34.9768L314.532,35.0278L314.171,35.0809L313.811,35.1362L313.45,35.1937L313.091,35.2534L312.731,35.3152L312.372,35.3792L312.013,35.4454L311.654,35.5137L311.296,35.5842L310.938,35.6568L310.58,35.7317L310.223,35.8087L309.866,35.8879L309.509,35.9692L309.153,36.0527L308.797,36.1384L308.442,36.2263L308.087,36.3163L307.733,36.4085L307.379,36.5028L307.025,36.5993L306.672,36.698L306.32,36.7989L305.968,36.9019L305.616,37.0072L305.265,37.1145L304.915,37.2241L304.565,37.3358L304.216,37.4497L303.867,37.5657L303.518,37.6839L303.171,37.8043L302.824,37.9269L302.477,38.0516L302.131,38.1785L301.786,38.3076L301.441,38.4388L301.097,38.5722L300.754,38.7078L300.411,38.8455L300.069,38.9854L299.728,39.1275L299.387,39.2718L299.047,39.4182L298.708,39.5668L298.37,39.7175L298.032,39.8705L297.695,40.0255L297.359,40.1828L297.023,40.3422L296.689,40.5039L296.355,40.6676L296.022,40.8336L295.689,41.0017L295.358,41.172L295.027,41.3444L294.697,41.519L294.368,41.6958L294.04,41.8748L293.713,42.0559L293.387,42.2392L293.061,42.4246L292.737,42.6123L292.413,42.8021L292.091,42.9941L291.769,43.1882L291.448,43.3845L291.128,43.583L290.809,43.7836L290.492,43.9864L290.175,44.1914L289.859,44.3986L289.544,44.6079L289.23,44.8194L288.917,45.0331L288.605,45.2489L288.295,45.4669L287.985,45.6871L287.676,45.9094L287.369,46.1339L287.062,46.3606L286.757,46.5894L286.453,46.8205L286.15,47.0537L285.848,47.289L285.547,47.5265L285.248,47.7662L284.949,48.0081L284.652,48.2521L284.356,48.4983L284.061,48.7467L283.767,48.9972L283.475,49.2499L283.183,49.5048L282.894,49.7619L282.605,50.0211L282.317,50.2825L282.031,50.546L281.746,50.8117L281.463,51.0796L281.18,51.3497L280.899,51.6219L280.62,51.8963L280.341,52.1729L245.933,86.5808L245.657,86.8591L245.382,87.1387L245.11,87.4197L244.84,87.702L244.572,87.9857L244.307,88.2706L244.043,88.5567L243.782,88.8442L243.522,89.1329L243.265,89.4229L243.01,89.7141L242.758,90.0066L242.507,90.3003L242.259,90.5952L242.013,90.8913L241.769,91.1885L241.527,91.487L241.287,91.7866L241.05,92.0874L240.814,92.3893L240.581,92.6924L240.35,92.9966L240.121,93.3019L239.894,93.6083L239.67,93.9158L239.448,94.2244L239.227,94.5341L239.009,94.8448L238.794,95.1566L238.58,95.4695L238.368,95.7833L238.159,96.0982L237.952,96.4141L237.747,96.731L237.544,97.0489L237.344,97.3677L237.145,97.6876L236.949,98.0084L236.755,98.3301L236.563,98.6528L236.373,98.9764L236.185,99.3009L236,99.6263L235.816,99.9526L235.635,100.28L235.456,100.608L235.28,100.937L235.105,101.267L234.933,101.597L234.762,101.929L234.594,102.261L234.428,102.594L234.264,102.928L234.103,103.263L233.943,103.598L233.786,103.934L233.631,104.271L233.478,104.609L233.327,104.948L233.179,105.287L233.032,105.627L232.888,105.967L232.746,106.309L232.606,106.651L232.468,106.993L232.333,107.337L232.199,107.681L232.068,108.025L231.939,108.371L231.812,108.717L231.687,109.063L231.565,109.41L231.444,109.758L231.326,110.106L231.21,110.455L231.096,110.804L230.985,111.154L230.875,111.505L230.768,111.856L230.663,112.207L230.559,112.559L230.459,112.912L230.36,113.265L230.263,113.618L230.169,113.972L230.077,114.327L229.987,114.682L229.899,115.037L229.813,115.393L229.73,115.749L229.648,116.105L229.569,116.462L229.492,116.819L229.417,117.177L229.345,117.535L229.274,117.893L229.206,118.252L229.14,118.611L229.076,118.97L229.014,119.33L228.954,119.69L228.897,120.05L228.841,120.411L228.788,120.771L228.737,121.132L228.689,121.494L228.642,121.855L228.597,122.217L228.555,122.579L228.515,122.941L228.477,123.303L228.441,123.666L228.408,124.028L228.376,124.391L228.347,124.754L228.32,125.117L228.295,125.48L228.272,125.844L228.251,126.207L228.233,126.571L228.217,126.934L228.203,127.298L228.191,127.662L228.181,128.025L228.173,128.389L228.168,128.753L228.165,129.117L228.164,129.481L228.165,129.845L228.168,130.209L228.173,130.573L228.181,130.936L228.191,131.3L228.203,131.664L228.217,132.028L228.233,132.391L228.251,132.755L228.272,133.118L228.295,133.482L228.32,133.845L228.347,134.208L228.376,134.571L228.408,134.934L228.441,135.296L228.477,135.659L228.515,136.021L228.555,136.383L228.597,136.745L228.642,137.107L228.689,137.468L228.737,137.829L228.788,138.19L228.841,138.551L228.897,138.912L228.954,139.272L229.014,139.632L229.076,139.991L229.14,140.351L229.206,140.71L229.274,141.068L229.345,141.427L229.417,141.785L229.492,142.142L229.569,142.5L229.648,142.857L229.73,143.213L229.813,143.569L229.899,143.925L229.987,144.28L230.077,144.635L230.169,144.989L230.263,145.343L230.36,145.697L230.459,146.05L230.559,146.402L230.663,146.754L230.768,147.106L230.875,147.457L230.985,147.807L231.096,148.157L231.21,148.507L231.326,148.856L231.444,149.204L231.565,149.552L231.687,149.899L231.812,150.245L231.939,150.591L232.068,150.936L232.199,151.281L232.333,151.625L232.468,151.968L232.606,152.311L232.746,152.653L232.888,152.994L233.032,153.335L233.179,153.675L233.327,154.014L233.478,154.353L233.631,154.69L233.786,155.027L233.943,155.364L234.103,155.699L234.264,156.034L234.428,156.368L234.594,156.701L234.762,157.033L234.933,157.365L235.105,157.695L235.28,158.025L235.456,158.354L235.635,158.682L235.816,159.009L236,159.335L236.185,159.661L236.373,159.985L236.563,160.309L236.755,160.632L236.949,160.953L237.145,161.274L237.344,161.594L237.544,161.913L237.747,162.231L237.952,162.548L238.159,162.864L238.368,163.178L238.58,163.492L238.794,163.805L239.009,164.117L239.227,164.428L239.448,164.737L239.67,165.046L239.894,165.353L240.121,165.66L240.35,165.965L240.581,166.269L240.814,166.572L241.05,166.874L241.287,167.175L241.527,167.475L241.769,167.773L242.013,168.071L242.259,168.367L242.507,168.662L242.758,168.955L243.01,169.248L243.265,169.539L243.522,169.829L243.782,170.118L244.043,170.405L244.307,170.691L244.572,170.976L244.84,171.26L245.11,171.542L245.382,171.823L245.657,172.103L245.933,172.381L259.128,185.576L259.406,185.852L259.686,186.127L259.967,186.399L260.249,186.669L260.533,186.937L260.818,187.203L261.104,187.466L261.392,187.728L261.68,187.987L261.97,188.244L262.262,188.499L262.554,188.751L262.848,189.002L263.143,189.25L263.439,189.496L263.736,189.741L264.034,189.982L264.334,190.222L264.635,190.46L264.937,190.695L265.24,190.928L265.544,191.159L265.849,191.388L266.156,191.615L266.463,191.839L266.772,192.062L267.081,192.282L267.392,192.5L267.704,192.716L268.017,192.929L268.331,193.141L268.646,193.35L268.961,193.557L269.278,193.762L269.596,193.965L269.915,194.166L270.235,194.364L270.556,194.56L270.877,194.755L271.2,194.947L271.524,195.136L271.848,195.324L272.174,195.509L272.5,195.693L272.827,195.874L273.155,196.053L273.484,196.23L273.814,196.404L274.145,196.577L274.476,196.747L274.808,196.915L275.141,197.081L275.475,197.245L275.81,197.406L276.146,197.566L276.482,197.723L276.819,197.878L277.157,198.031L277.495,198.182L277.834,198.33L278.174,198.477L278.515,198.621L278.856,198.763L279.198,198.903L279.541,199.041L279.884,199.176L280.228,199.31L280.573,199.441L280.918,199.57L281.264,199.697L281.61,199.822L281.958,199.944L282.305,200.065L282.653,200.183L283.002,200.299L283.352,200.413L283.702,200.525L284.052,200.634L284.403,200.741L284.755,200.847L285.107,200.95L285.459,201.051L285.812,201.149L286.166,201.246L286.52,201.34L286.874,201.432L287.229,201.522L287.584,201.61L287.94,201.696L288.296,201.779L288.652,201.861L289.009,201.94L289.367,202.017L289.724,202.092L290.082,202.164L290.441,202.235L290.799,202.303L291.158,202.369L291.518,202.433L291.877,202.495L292.237,202.555L292.597,202.612L292.958,202.668L293.319,202.721L293.68,202.772L294.041,202.821L294.402,202.867L294.764,202.912L295.126,202.954L295.488,202.994L295.85,203.032L296.213,203.068L296.576,203.101L296.938,203.133L297.301,203.162L297.664,203.189L298.028,203.214L298.391,203.237L298.754,203.258L299.118,203.276L299.481,203.292L299.845,203.306L300.209,203.318L300.573,203.328L300.937,203.336L301.3,203.341L301.664,203.344L302.028,203.346Z" style="fill:black;"/>
            </g>
        </g>
    </g>
</svg>
