<?xml version="1.0" standalone="no"?>
<!DOCTYPE svg PUBLIC "-//W3C//DTD SVG 1.1//EN" "http://www.w3.org/Graphics/SVG/1.1/DTD/svg11.dtd">
<svg width="512px" height="512px" version="1.1" xmlns="http://www.w3.org/2000/svg" xmlns:xlink="http://www.w3.org/1999/xlink" xml:space="preserve" style="fill-rule:evenodd;clip-rule:evenodd;stroke-linejoin:round;stroke-miterlimit:1.41421;">
    <g>
        <g id="Layer1">
            <g>
                <path d="M22.0734,510L21.9436,510L21.8139,509.998L21.6845,509.996L21.5553,509.993L21.4263,509.99L21.2974,509.985L21.1688,509.98L21.0404,509.974L20.9122,509.967L20.7842,509.959L20.6565,509.951L20.5289,509.941L20.4016,509.931L20.2745,509.92L20.1476,509.909L20.021,509.896L19.8946,509.883L19.7684,509.869L19.6425,509.854L19.5168,509.838L19.3913,509.822L19.2661,509.805L19.1411,509.787L19.0164,509.768L18.8919,509.749L18.7677,509.728L18.6438,509.707L18.5201,509.685L18.3966,509.663L18.2734,509.64L18.1505,509.616L18.0279,509.591L17.9055,509.565L17.7834,509.539L17.6616,509.512L17.5401,509.484L17.4188,509.456L17.2978,509.427L17.1771,509.397L17.0567,509.366L16.9366,509.335L16.8168,509.303L16.6973,509.27L16.578,509.236L16.4591,509.202L16.3405,509.167L16.2222,509.131L16.1042,509.095L15.9865,509.058L15.8691,509.02L15.752,508.981L15.6353,508.942L15.5188,508.902L15.4027,508.861L15.2869,508.82L15.1715,508.778L15.0564,508.735L14.9416,508.692L14.8271,508.648L14.713,508.603L14.5992,508.558L14.4858,508.512L14.3727,508.465L14.2599,508.418L14.1475,508.369L14.0355,508.321L13.8125,508.221L13.5909,508.119L13.3707,508.014L13.1521,507.907L12.9349,507.797L12.7193,507.685L12.5052,507.57L12.2927,507.452L12.0817,507.332L11.8724,507.21L11.6646,507.085L11.4585,506.957L11.254,506.828L11.0513,506.696L10.8502,506.561L10.6508,506.424L10.4532,506.285L10.2573,506.143L10.0632,506L9.87084,505.854L9.68034,505.705L9.49167,505.555L9.30485,505.402L9.1199,505.247L8.93685,505.09L8.75571,504.93L8.57649,504.769L8.39923,504.605L8.22395,504.44L8.05065,504.272L7.87936,504.102L7.7101,503.93L7.54289,503.757L7.37775,503.581L7.2147,503.403L7.05376,503.223L6.89495,503.041L6.73828,502.858L6.58379,502.672L6.43148,502.485L6.28137,502.296L6.1335,502.105L5.98787,501.912L5.84451,501.717L5.70343,501.52L5.56466,501.322L5.42822,501.122L5.29412,500.92L5.16239,500.717L5.03304,500.512L4.90609,500.305L4.78157,500.097L4.65949,499.887L4.53988,499.675L4.42275,499.462L4.30812,499.247L4.19602,499.031L4.08645,498.813L3.97945,498.594L3.87503,498.373L3.77322,498.151L3.67402,497.927L3.57747,497.702L3.53018,497.589L3.48357,497.475L3.43763,497.361L3.39236,497.247L3.34776,497.133L3.30384,497.018L3.2606,496.903L3.21805,496.787L3.17618,496.671L3.13499,496.555L3.0945,496.439L3.0547,496.322L3.01559,496.205L2.97718,496.087L2.93947,495.97L2.90246,495.852L2.86616,495.733L2.83056,495.615L2.79567,495.496L2.7615,495.376L2.72804,495.257L2.69529,495.137L2.66327,495.017L2.63196,494.896L2.60138,494.775L2.57153,494.654L2.54241,494.533L2.51402,494.411L2.48636,494.289L2.45944,494.167L2.43326,494.045L2.40782,493.922L2.38312,493.799L2.35917,493.676L2.33597,493.552L2.31352,493.428L2.29183,493.304L2.27089,493.18L2.25071,493.055L2.23129,492.93L2.21264,492.805L2.19475,492.68L2.17762,492.554L2.16128,492.428L2.1457,492.302L2.1309,492.176L2.11688,492.049L2.10364,491.923L2.09118,491.796L2.07951,491.668L2.06862,491.541L2.05853,491.413L2.04923,491.285L2.04073,491.157L2.03302,491.029L2.02612,490.9L2.02002,490.771L2.01472,490.642L2.01023,490.513L2.00656,490.383L2.00369,490.254L2.00164,490.124L2.00041,489.994L2,489.864L2,143.163L223.103,2L295.912,2L510,143.163L510,489.864L510,489.994L509.998,490.124L509.996,490.254L509.993,490.383L509.99,490.513L509.985,490.642L509.98,490.771L509.974,490.9L509.967,491.029L509.959,491.157L509.951,491.285L509.941,491.413L509.931,491.541L509.92,491.668L509.909,491.796L509.896,491.923L509.883,492.049L509.869,492.176L509.854,492.302L509.839,492.428L509.822,492.554L509.805,492.68L509.787,492.805L509.769,492.93L509.749,493.055L509.729,493.18L509.708,493.304L509.686,493.428L509.664,493.552L509.641,493.676L509.617,493.799L509.592,493.922L509.567,494.045L509.541,494.167L509.514,494.289L509.486,494.411L509.458,494.533L509.428,494.654L509.399,494.775L509.368,494.896L509.337,495.017L509.305,495.137L509.272,495.257L509.239,495.376L509.204,495.496L509.169,495.615L509.134,495.733L509.098,495.852L509.061,495.97L509.023,496.087L508.984,496.205L508.945,496.322L508.906,496.439L508.865,496.555L508.824,496.671L508.782,496.787L508.739,496.903L508.696,497.018L508.652,497.133L508.608,497.247L508.562,497.361L508.516,497.475L508.47,497.589L508.423,497.702L508.326,497.927L508.227,498.151L508.125,498.373L508.021,498.594L507.914,498.813L507.804,499.031L507.692,499.247L507.577,499.462L507.46,499.675L507.341,499.887L507.218,500.097L507.094,500.305L506.967,500.512L506.838,500.717L506.706,500.92L506.572,501.122L506.435,501.322L506.297,501.52L506.155,501.717L506.012,501.912L505.867,502.105L505.719,502.296L505.569,502.485L505.416,502.672L505.262,502.858L505.105,503.041L504.946,503.223L504.785,503.403L504.622,503.581L504.457,503.757L504.29,503.93L504.121,504.102L503.949,504.272L503.776,504.44L503.601,504.605L503.424,504.769L503.244,504.93L503.063,505.09L502.88,505.247L502.695,505.402L502.508,505.555L502.32,505.705L502.129,505.854L501.937,506L501.743,506.143L501.547,506.285L501.349,506.424L501.15,506.561L500.949,506.696L500.746,506.828L500.542,506.957L500.335,507.085L500.128,507.21L499.918,507.332L499.707,507.452L499.495,507.57L499.281,507.685L499.065,507.797L498.848,507.907L498.629,508.014L498.409,508.119L498.188,508.221L497.965,508.321L497.852,508.369L497.74,508.418L497.627,508.465L497.514,508.512L497.401,508.558L497.287,508.603L497.173,508.648L497.058,508.692L496.944,508.735L496.829,508.778L496.713,508.82L496.597,508.861L496.481,508.902L496.365,508.942L496.248,508.981L496.131,509.02L496.014,509.058L495.896,509.095L495.778,509.131L495.659,509.167L495.541,509.202L495.422,509.236L495.303,509.27L495.183,509.303L495.063,509.335L494.943,509.366L494.823,509.397L494.702,509.427L494.581,509.456L494.46,509.484L494.338,509.512L494.217,509.539L494.094,509.565L493.972,509.591L493.849,509.616L493.727,509.64L493.603,509.663L493.48,509.685L493.356,509.707L493.232,509.728L493.108,509.749L492.984,509.768L492.859,509.787L492.734,509.805L492.609,509.822L492.483,509.838L492.358,509.854L492.232,509.869L492.105,509.883L491.979,509.896L491.852,509.909L491.725,509.92L491.598,509.931L491.471,509.941L491.344,509.951L491.216,509.959L491.088,509.967L490.96,509.974L490.831,509.98L490.703,509.985L490.574,509.99L490.445,509.993L490.315,509.996L490.186,509.998L490.056,510L489.927,510L22.0734,510ZM43.6667,468.333L468.333,468.333L468.333,165.598L283.412,43.6667L235.269,43.6667L43.6667,165.996L43.6667,468.333Z" style="fill:black;"/>
            </g>
            <g>
                <path d="M11.4028,506.442L207.081,278.442L304.919,278.442L500.597,506.442L11.4028,506.442ZM65.8034,481.442L446.197,481.442L293.431,303.442L218.569,303.442L65.8034,481.442Z" style="fill:black;"/>
            </g>
            <g>
                <path d="M39.3337,164.584L194,294.364L178.573,312.749L23.9068,182.969L39.3337,164.584Z" style="fill:black;"/>
            </g>
            <g>
                <path d="M470.573,164.584L315.907,294.364L331.334,312.749L486,182.969L470.573,164.584Z" style="fill:black;"/>
            </g>
        </g>
    </g>
</svg>
