<?xml version="1.0" standalone="no"?>
<!DOCTYPE svg PUBLIC "-//W3C//DTD SVG 1.1//EN" "http://www.w3.org/Graphics/SVG/1.1/DTD/svg11.dtd">
<svg width="512px" height="512px" version="1.1" xmlns="http://www.w3.org/2000/svg" xmlns:xlink="http://www.w3.org/1999/xlink" xml:space="preserve" style="fill-rule:evenodd;clip-rule:evenodd;stroke-linejoin:round;stroke-miterlimit:1.414;">
    <g>
        <g id="Layer1">
            <g>
                <rect x="116" y="241.818" width="280" height="28.3633" style="fill:black;stroke-width:41.67px;stroke:black;"/>
            </g>
            <g>
                <path d="M256,509.667L255.182,509.665L254.365,509.662L253.548,509.655L252.732,509.646L251.916,509.634L251.102,509.62L250.287,509.603L249.473,509.584L248.659,509.562L247.847,509.538L247.034,509.511L246.223,509.481L245.411,509.449L244.6,509.414L243.791,509.377L242.982,509.337L242.172,509.295L241.364,509.25L240.557,509.203L239.749,509.153L238.943,509.101L238.137,509.046L237.332,508.988L236.528,508.928L235.723,508.866L234.92,508.801L234.118,508.734L233.316,508.664L232.515,508.591L231.714,508.516L230.913,508.439L230.114,508.359L229.316,508.277L228.518,508.192L227.721,508.104L226.923,508.015L226.128,507.922L225.333,507.828L224.538,507.73L223.745,507.631L222.952,507.529L222.159,507.424L221.368,507.317L220.577,507.208L219.787,507.096L218.997,506.982L218.209,506.865L217.421,506.746L216.634,506.624L215.848,506.501L215.062,506.374L214.276,506.245L213.493,506.114L212.71,505.981L211.928,505.845L211.145,505.706L210.365,505.566L209.585,505.422L208.806,505.277L208.027,505.129L207.25,504.979L206.473,504.826L205.696,504.671L204.922,504.514L204.147,504.354L203.373,504.192L202.602,504.028L201.829,503.861L201.058,503.692L200.289,503.52L199.519,503.347L198.75,503.17L197.983,502.992L197.217,502.811L196.45,502.628L195.686,502.443L194.922,502.255L194.159,502.065L193.397,501.873L192.636,501.678L191.875,501.481L191.116,501.282L190.357,501.081L189.599,500.877L188.843,500.671L188.087,500.463L187.333,500.252L186.579,500.039L185.826,499.824L185.074,499.607L184.324,499.387L183.573,499.165L182.824,498.941L182.076,498.715L181.329,498.486L180.583,498.256L179.837,498.022L179.093,497.787L178.351,497.55L177.609,497.31L176.867,497.068L176.126,496.824L175.387,496.578L174.65,496.329L173.913,496.079L173.176,495.826L172.441,495.57L171.707,495.313L170.974,495.054L170.242,494.792L169.511,494.528L168.781,494.262L168.053,493.994L167.324,493.724L166.598,493.451L165.872,493.177L165.147,492.9L164.424,492.621L163.702,492.34L162.98,492.057L162.26,491.772L161.541,491.484L160.822,491.195L160.105,490.903L159.39,490.609L158.675,490.313L157.962,490.016L157.249,489.715L156.537,489.413L155.827,489.109L155.118,488.802L154.41,488.494L153.702,488.183L152.997,487.87L152.292,487.556L151.589,487.239L150.886,486.92L150.185,486.599L149.485,486.276L148.786,485.951L148.088,485.624L147.392,485.295L146.697,484.964L146.002,484.631L145.309,484.295L144.618,483.958L143.927,483.619L143.238,483.278L142.549,482.934L141.862,482.589L141.176,482.242L140.492,481.892L139.809,481.541L139.126,481.188L138.445,480.832L137.765,480.475L137.087,480.116L136.41,479.755L135.734,479.391L135.059,479.026L134.385,478.659L133.713,478.29L133.041,477.918L132.372,477.545L131.704,477.17L131.036,476.793L130.371,476.414L129.705,476.033L129.042,475.65L128.381,475.266L127.719,474.879L127.059,474.49L126.401,474.1L125.744,473.707L125.088,473.313L124.435,472.917L123.781,472.519L123.128,472.118L122.478,471.716L121.83,471.313L121.182,470.907L120.535,470.499L119.89,470.09L119.246,469.678L118.603,469.265L117.962,468.85L117.323,468.433L116.684,468.014L116.047,467.593L115.411,467.17L114.776,466.746L114.144,466.32L113.511,465.891L112.881,465.461L112.253,465.03L111.625,464.596L110.999,464.161L110.373,463.723L109.75,463.284L109.128,462.843L108.508,462.401L107.889,461.956L107.271,461.509L106.655,461.062L106.039,460.612L105.426,460.16L104.814,459.706L104.203,459.251L103.593,458.793L102.986,458.335L102.379,457.874L101.774,457.412L101.17,456.947L100.568,456.481L99.9679,456.014L99.3684,455.544L98.7707,455.073L98.1743,454.6L97.5793,454.125L96.9863,453.649L96.3941,453.171L95.8037,452.691L95.2145,452.209L94.6269,451.726L94.0413,451.241L93.4562,450.754L92.8733,450.265L92.2924,449.775L91.7121,449.283L91.1331,448.789L90.5562,448.294L89.9809,447.797L89.4067,447.298L88.8344,446.798L88.2632,446.296L87.6938,445.792L87.1258,445.287L86.5594,444.779L85.9948,444.271L85.4317,443.761L84.8693,443.248L84.3091,442.734L83.7508,442.219L83.1934,441.702L82.638,441.183L82.0841,440.663L81.5314,440.141L80.9809,439.617L80.4313,439.092L79.8831,438.564L79.3375,438.036L78.7929,437.506L78.2502,436.975L77.7089,436.441L77.1687,435.906L76.6305,435.369L76.0938,434.831L75.559,434.291L75.0257,433.75L74.4936,433.207L73.9639,432.663L73.435,432.116L72.908,431.568L72.3832,431.02L71.8595,430.469L71.3376,429.916L70.817,429.362L70.2979,428.806L69.7808,428.249L69.2658,427.691L68.7519,427.13L68.2396,426.568L67.7293,426.005L67.2205,425.44L66.7134,424.874L66.2082,424.306L65.7041,423.737L65.2022,423.166L64.7018,422.593L64.2029,422.019L63.706,421.444L63.2104,420.867L62.7169,420.288L62.2249,419.708L61.7346,419.126L61.246,418.543L60.7592,417.959L60.2741,417.373L59.7907,416.785L59.3093,416.197L58.8295,415.606L58.3511,415.014L57.8747,414.421L57.3998,413.826L56.9267,413.229L56.4556,412.631L55.9863,412.032L55.5185,411.432L55.0524,410.829L54.5884,410.226L54.1258,409.621L53.6651,409.014L53.2066,408.407L52.7493,407.797L52.2937,407.186L51.8405,406.574L51.3886,405.961L50.9385,405.346L50.4903,404.729L50.0441,404.111L49.5996,403.492L49.1565,402.871L48.7158,402.249L48.2769,401.626L47.8394,401.001L47.4038,400.375L46.9702,399.747L46.5384,399.119L46.1085,398.488L45.6804,397.857L45.2538,397.223L44.8293,396.589L44.4069,395.953L43.9862,395.316L43.5674,394.678L43.1501,394.038L42.7349,393.396L42.3218,392.754L41.9105,392.11L41.5009,391.465L41.0933,390.819L40.6875,390.171L40.2833,389.521L39.8814,388.871L39.4815,388.219L39.0832,387.566L38.6868,386.911L38.2926,386.256L37.9002,385.599L37.5093,384.94L37.1209,384.281L36.7345,383.621L36.3495,382.958L35.9664,382.294L35.5858,381.63L35.207,380.964L34.8297,380.296L34.4546,379.628L34.0816,378.958L33.7105,378.287L33.3413,377.615L32.974,376.941L32.6089,376.267L32.2456,375.59L31.8842,374.913L31.5251,374.235L31.1676,373.555L30.8121,372.874L30.4589,372.192L30.1078,371.509L29.7581,370.824L29.4108,370.138L29.0657,369.451L28.7221,368.762L28.3808,368.073L28.0416,367.382L27.7043,366.691L27.3692,365.998L27.0359,365.303L26.7047,364.608L26.3757,363.912L26.0486,363.214L25.7236,362.515L25.4006,361.815L25.0796,361.114L24.7608,360.411L24.4441,359.708L24.1294,359.003L23.8166,358.297L23.5062,357.59L23.1977,356.882L22.8912,356.173L22.5869,355.463L22.2848,354.751L21.9847,354.039L21.6866,353.325L21.3907,352.61L21.097,351.895L20.8053,351.177L20.5158,350.459L20.2284,349.74L19.943,349.02L19.6598,348.298L19.3788,347.576L19.0999,346.852L18.8232,346.128L18.5486,345.402L18.2762,344.676L18.0058,343.948L17.7376,343.219L17.4717,342.489L17.2079,341.758L16.9462,341.026L16.6868,340.293L16.4295,339.559L16.1744,338.824L15.9215,338.088L15.6708,337.351L15.4223,336.612L15.1759,335.873L14.9319,335.133L14.6899,334.392L14.4502,333.65L14.2128,332.907L13.9775,332.162L13.7445,331.417L13.5136,330.671L13.2851,329.924L13.0588,329.176L12.8347,328.427L12.6128,327.677L12.3932,326.926L12.1759,326.174L11.9608,325.421L11.7479,324.667L11.5374,323.912L11.3291,323.157L11.1231,322.4L10.9193,321.643L10.7179,320.884L10.5188,320.125L10.3218,319.364L10.1272,318.603L9.93497,317.841L9.74493,317.078L9.55721,316.314L9.37188,315.549L9.18882,314.784L9.00806,314.017L8.8296,313.249L8.65352,312.481L8.47978,311.712L8.30829,310.942L8.13919,310.171L7.97245,309.399L7.80804,308.626L7.64599,307.853L7.48624,307.078L7.32887,306.303L7.17391,305.527L7.02129,304.751L6.87103,303.973L6.72311,303.194L6.57757,302.415L6.43449,301.635L6.29373,300.854L6.15536,300.073L6.01939,299.29L5.88583,298.507L5.75465,297.723L5.62588,296.938L5.49953,296.153L5.37557,295.366L5.25403,294.579L5.13492,293.791L5.01823,293.003L4.90395,292.213L4.79213,291.423L4.68273,290.632L4.57575,289.841L4.47123,289.048L4.36917,288.255L4.26954,287.462L4.17235,286.667L4.07764,285.872L3.98539,285.076L3.89559,284.279L3.80826,283.482L3.72341,282.684L3.64103,281.886L3.56112,281.086L3.48371,280.286L3.40878,279.486L3.33634,278.684L3.26639,277.882L3.19895,277.08L3.134,276.277L3.07155,275.473L3.0116,274.668L2.95418,273.863L2.89928,273.057L2.84688,272.251L2.797,271.444L2.74966,270.636L2.70485,269.828L2.66256,269.019L2.62281,268.209L2.58561,267.399L2.55095,266.589L2.51883,265.778L2.48925,264.966L2.46224,264.153L2.43779,263.341L2.41589,262.527L2.39655,261.713L2.37979,260.899L2.36559,260.083L2.35397,259.268L2.34492,258.452L2.33846,257.635L2.33458,256.818L2.33328,256L2.33458,255.182L2.33846,254.365L2.34492,253.548L2.35397,252.732L2.36559,251.917L2.37979,251.101L2.39655,250.287L2.41589,249.473L2.43779,248.659L2.46224,247.847L2.48925,247.034L2.51883,246.222L2.55095,245.411L2.58561,244.601L2.62281,243.791L2.66256,242.981L2.70484,242.172L2.74966,241.364L2.79701,240.556L2.84688,239.749L2.89928,238.943L2.95417,238.137L3.0116,237.332L3.07155,236.527L3.134,235.723L3.19894,234.92L3.26639,234.118L3.33634,233.316L3.40878,232.514L3.48371,231.714L3.56113,230.914L3.64103,230.114L3.72341,229.316L3.80827,228.518L3.89559,227.721L3.98539,226.924L4.07764,226.128L4.17236,225.333L4.26954,224.538L4.36915,223.745L4.47123,222.952L4.57576,222.159L4.68272,221.368L4.79213,220.577L4.90397,219.787L5.01822,218.998L5.13492,218.209L5.25404,217.421L5.37557,216.634L5.49952,215.848L5.62586,215.062L5.75465,214.277L5.88584,213.493L6.01939,212.71L6.15536,211.927L6.29373,211.146L6.43446,210.365L6.57761,209.585L6.72313,208.805L6.87101,208.027L7.02127,207.249L7.17391,206.473L7.32891,205.697L7.48624,204.922L7.64595,204.147L7.80802,203.374L7.97245,202.601L8.13923,201.829L8.30831,201.058L8.47976,200.288L8.65352,199.519L8.8296,198.751L9.00806,197.983L9.18882,197.216L9.37188,196.451L9.55723,195.686L9.74493,194.922L9.93494,194.159L10.1272,193.397L10.3218,192.636L10.5187,191.875L10.7179,191.116L10.9193,190.357L11.123,189.6L11.3291,188.843L11.5374,188.087L11.748,187.333L11.9608,186.579L12.1759,185.826L12.3932,185.074L12.6128,184.323L12.8347,183.573L13.0588,182.824L13.2851,182.076L13.5137,181.329L13.7445,180.583L13.9775,179.838L14.2127,179.094L14.4502,178.35L14.6899,177.608L14.9318,176.867L15.1759,176.127L15.4223,175.387L15.6708,174.649L15.9215,173.912L16.1744,173.176L16.4295,172.441L16.6867,171.707L16.9463,170.974L17.2079,170.242L17.4717,169.511L17.7377,168.781L18.0058,168.052L18.2761,167.325L18.5486,166.598L18.8232,165.872L19.0999,165.147L19.3788,164.424L19.6599,163.702L19.943,162.98L20.2283,162.26L20.5158,161.541L20.8053,160.823L21.097,160.106L21.3907,159.39L21.6867,158.675L21.9847,157.961L22.2848,157.249L22.5871,156.537L22.8913,155.827L23.1977,155.118L23.5061,154.41L23.8166,153.703L24.1294,152.997L24.4441,152.292L24.7608,151.589L25.0797,150.886L25.4006,150.185L25.7235,149.485L26.0486,148.786L26.3757,148.088L26.7047,147.392L27.0359,146.697L27.3692,146.002L27.7043,145.309L28.0416,144.618L28.3809,143.927L28.7221,143.238L29.0655,142.549L29.4109,141.862L29.7582,141.176L30.1075,140.492L30.4589,139.808L30.8123,139.126L31.1676,138.445L31.525,137.765L31.8842,137.087L32.2456,136.41L32.6089,135.733L32.974,135.059L33.3412,134.385L33.7105,133.713L34.0817,133.042L34.4548,132.372L34.8298,131.703L35.2068,131.036L35.5857,130.37L35.9667,129.705L36.3495,129.042L36.7343,128.38L37.1209,127.719L37.5096,127.059L37.9002,126.401L38.2926,125.744L38.6868,125.089L39.0832,124.434L39.4815,123.781L39.8814,123.129L40.2834,122.479L40.6875,121.829L41.0931,121.181L41.5007,120.535L41.9104,119.89L42.3218,119.246L42.7351,118.603L43.1501,117.962L43.5672,117.322L43.9861,116.684L44.4069,116.047L44.8296,115.411L45.2539,114.777L45.6802,114.144L46.1085,113.512L46.5385,112.881L46.9702,112.253L47.4036,111.625L47.8394,110.999L48.2767,110.374L48.7158,109.751L49.1569,109.128L49.5996,108.508L50.0441,107.889L50.4903,107.271L50.9385,106.654L51.3886,106.039L51.8405,105.426L52.2937,104.814L52.7491,104.203L53.2064,103.593L53.6651,102.986L54.1258,102.379L54.5883,101.774L55.0525,101.171L55.5185,100.568L55.9863,99.9676L56.4556,99.3685L56.9269,98.7707L57.3999,98.1743L57.8747,97.5793L58.3511,96.986L58.8291,96.3942L59.3091,95.8037L59.7909,95.2145L60.2742,94.6271L60.7593,94.0411L61.2463,93.4564L61.7347,92.8734L62.2248,92.2921L62.7168,91.7119L63.2105,91.1334L63.7058,90.5564L64.2028,89.9809L64.7017,89.4067L65.2022,88.8341L65.7041,88.2633L66.2079,87.6938L66.7135,87.1258L67.2205,86.5595L67.7293,85.9947L68.2397,85.4315L68.7519,84.8696L69.2657,84.3093L69.7811,83.7507L70.2982,83.1935L70.817,82.6379L71.3373,82.0839L71.8593,81.5316L72.383,80.9806L72.9083,80.4313L73.4351,79.8836L73.9637,79.3374L74.4938,78.7929L75.0254,78.2501L75.559,77.7085L76.094,77.1687L76.6305,76.6305L77.1687,76.094L77.7085,75.559L78.2501,75.0254L78.7929,74.4938L79.3374,73.9637L79.8836,73.4351L80.4313,72.9083L80.9806,72.383L81.5316,71.8593L82.0839,71.3373L82.6379,70.817L83.1935,70.2982L83.7507,69.7811L84.3093,69.2657L84.8696,68.7519L85.4315,68.2397L85.9947,67.7293L86.5595,67.2205L87.1258,66.7135L87.6938,66.2079L88.2633,65.7041L88.8341,65.2022L89.4067,64.7017L89.9809,64.2028L90.5564,63.7058L91.1334,63.2105L91.7119,62.7168L92.2921,62.2248L92.8734,61.7347L93.4564,61.2463L94.0411,60.7593L94.6271,60.2742L95.2145,59.7909L95.8037,59.3091L96.3942,58.8291L96.986,58.3511L97.5793,57.8747L98.1743,57.3999L98.7707,56.9269L99.3685,56.4556L99.9676,55.9863L100.568,55.5185L101.171,55.0525L101.774,54.5883L102.379,54.1258L102.986,53.6651L103.593,53.2064L104.203,52.7491L104.814,52.2937L105.426,51.8405L106.039,51.3886L106.654,50.9385L107.271,50.4903L107.889,50.0441L108.508,49.5996L109.128,49.1569L109.751,48.7158L110.374,48.2767L110.999,47.8394L111.625,47.4036L112.253,46.9702L112.881,46.5385L113.512,46.1085L114.144,45.6802L114.777,45.2539L115.411,44.8296L116.047,44.4069L116.684,43.9861L117.322,43.5672L117.962,43.1501L118.603,42.7351L119.246,42.3218L119.89,41.9104L120.535,41.5007L121.181,41.0931L121.829,40.6875L122.479,40.2834L123.129,39.8814L123.781,39.4815L124.434,39.0832L125.089,38.6868L125.744,38.2926L126.401,37.9002L127.059,37.5096L127.719,37.1209L128.38,36.7343L129.042,36.3495L129.705,35.9667L130.37,35.5857L131.036,35.2068L131.703,34.8298L132.372,34.4548L133.042,34.0817L133.713,33.7105L134.385,33.3412L135.059,32.974L135.733,32.6089L136.41,32.2456L137.087,31.8842L137.765,31.525L138.445,31.1676L139.126,30.8123L139.808,30.4589L140.492,30.1075L141.176,29.7582L141.862,29.4109L142.549,29.0655L143.238,28.7221L143.927,28.3809L144.618,28.0416L145.309,27.7043L146.002,27.3692L146.697,27.0359L147.392,26.7047L148.088,26.3757L148.786,26.0486L149.485,25.7235L150.185,25.4006L150.886,25.0797L151.589,24.7608L152.292,24.4441L152.997,24.1294L153.703,23.8166L154.41,23.5061L155.118,23.1977L155.827,22.8913L156.537,22.5871L157.249,22.2848L157.961,21.9847L158.675,21.6867L159.39,21.3907L160.106,21.097L160.823,20.8053L161.541,20.5158L162.26,20.2283L162.98,19.943L163.702,19.6599L164.424,19.3788L165.147,19.0999L165.872,18.8232L166.598,18.5486L167.325,18.2761L168.052,18.0058L168.781,17.7377L169.511,17.4717L170.242,17.2079L170.974,16.9463L171.707,16.6867L172.441,16.4295L173.176,16.1744L173.912,15.9215L174.649,15.6708L175.387,15.4223L176.127,15.1759L176.867,14.9318L177.608,14.6899L178.35,14.4502L179.094,14.2127L179.838,13.9775L180.583,13.7445L181.329,13.5137L182.076,13.2851L182.824,13.0588L183.573,12.8347L184.323,12.6128L185.074,12.3932L185.826,12.1759L186.579,11.9608L187.333,11.748L188.087,11.5374L188.843,11.3291L189.6,11.123L190.357,10.9193L191.116,10.7179L191.875,10.5187L192.636,10.3218L193.397,10.1272L194.159,9.93494L194.922,9.74493L195.686,9.55723L196.451,9.37188L197.216,9.18882L197.983,9.00806L198.751,8.8296L199.519,8.65352L200.288,8.47976L201.058,8.30831L201.829,8.13923L202.601,7.97245L203.374,7.80802L204.147,7.64595L204.922,7.48624L205.697,7.32891L206.473,7.17391L207.249,7.02127L208.027,6.87101L208.805,6.72313L209.585,6.57761L210.365,6.43446L211.146,6.29373L211.927,6.15536L212.71,6.01939L213.493,5.88584L214.277,5.75465L215.062,5.62586L215.848,5.49952L216.634,5.37557L217.421,5.25404L218.209,5.13492L218.998,5.01822L219.787,4.90397L220.577,4.79213L221.368,4.68272L222.159,4.57576L222.952,4.47123L223.745,4.36915L224.538,4.26954L225.333,4.17236L226.128,4.07764L226.924,3.98539L227.721,3.89559L228.518,3.80827L229.316,3.72341L230.114,3.64103L230.914,3.56113L231.714,3.48371L232.514,3.40878L233.316,3.33634L234.118,3.26639L234.92,3.19894L235.723,3.134L236.527,3.07155L237.332,3.0116L238.137,2.95417L238.943,2.89928L239.749,2.84688L240.556,2.79701L241.364,2.74966L242.172,2.70484L242.981,2.66256L243.791,2.62281L244.601,2.58561L245.411,2.55095L246.222,2.51883L247.034,2.48925L247.847,2.46224L248.659,2.43779L249.473,2.41589L250.287,2.39655L251.101,2.37979L251.917,2.36559L252.732,2.35397L253.548,2.34492L254.365,2.33846L255.182,2.33458L256,2.33328L256.818,2.33458L257.635,2.33846L258.452,2.34492L259.268,2.35397L260.083,2.36559L260.899,2.37979L261.713,2.39655L262.527,2.41589L263.341,2.43779L264.153,2.46224L264.966,2.48925L265.778,2.51883L266.589,2.55095L267.399,2.58561L268.209,2.62281L269.019,2.66256L269.828,2.70485L270.636,2.74966L271.444,2.797L272.251,2.84688L273.057,2.89928L273.863,2.95418L274.668,3.0116L275.473,3.07155L276.277,3.134L277.08,3.19895L277.882,3.26639L278.684,3.33634L279.486,3.40878L280.286,3.48371L281.086,3.56112L281.886,3.64103L282.684,3.72341L283.482,3.80826L284.279,3.89559L285.076,3.98539L285.872,4.07764L286.667,4.17235L287.462,4.26954L288.255,4.36917L289.048,4.47123L289.841,4.57575L290.632,4.68273L291.423,4.79213L292.213,4.90395L293.003,5.01823L293.791,5.13492L294.579,5.25403L295.366,5.37557L296.153,5.49953L296.938,5.62588L297.723,5.75465L298.507,5.88583L299.29,6.01939L300.073,6.15536L300.854,6.29373L301.635,6.43449L302.415,6.57757L303.194,6.72311L303.973,6.87103L304.751,7.02129L305.527,7.17391L306.303,7.32887L307.078,7.48624L307.853,7.64599L308.626,7.80804L309.399,7.97245L310.171,8.13919L310.942,8.30829L311.712,8.47978L312.481,8.65352L313.249,8.8296L314.017,9.00806L314.784,9.18882L315.549,9.37188L316.314,9.55721L317.078,9.74493L317.841,9.93497L318.603,10.1272L319.364,10.3218L320.125,10.5188L320.884,10.7179L321.643,10.9193L322.4,11.1231L323.157,11.3291L323.912,11.5374L324.667,11.7479L325.421,11.9608L326.174,12.1759L326.926,12.3932L327.677,12.6128L328.427,12.8347L329.176,13.0588L329.924,13.2851L330.671,13.5136L331.417,13.7445L332.162,13.9775L332.907,14.2128L333.65,14.4502L334.392,14.6899L335.133,14.9319L335.873,15.1759L336.612,15.4223L337.351,15.6708L338.088,15.9215L338.824,16.1744L339.559,16.4295L340.293,16.6868L341.026,16.9462L341.758,17.2079L342.489,17.4717L343.219,17.7376L343.948,18.0058L344.676,18.2762L345.402,18.5486L346.128,18.8232L346.852,19.0999L347.576,19.3788L348.298,19.6598L349.02,19.943L349.74,20.2284L350.459,20.5158L351.177,20.8053L351.895,21.097L352.61,21.3907L353.325,21.6866L354.039,21.9847L354.751,22.2848L355.463,22.5869L356.173,22.8912L356.882,23.1977L357.59,23.5062L358.297,23.8166L359.003,24.1294L359.708,24.4441L360.411,24.7608L361.114,25.0796L361.815,25.4006L362.515,25.7236L363.214,26.0486L363.912,26.3757L364.608,26.7047L365.303,27.0359L365.998,27.3692L366.691,27.7043L367.382,28.0416L368.073,28.3808L368.762,28.7221L369.451,29.0657L370.138,29.4108L370.824,29.7581L371.509,30.1078L372.192,30.4589L372.874,30.8121L373.555,31.1676L374.235,31.5251L374.913,31.8842L375.59,32.2456L376.267,32.6089L376.941,32.974L377.615,33.3413L378.287,33.7105L378.958,34.0816L379.628,34.4546L380.296,34.8297L380.964,35.207L381.63,35.5858L382.294,35.9664L382.958,36.3495L383.621,36.7345L384.281,37.1209L384.94,37.5093L385.599,37.9002L386.256,38.2926L386.911,38.6868L387.566,39.0832L388.219,39.4815L388.871,39.8814L389.521,40.2833L390.171,40.6875L390.819,41.0933L391.465,41.5009L392.11,41.9105L392.754,42.3218L393.396,42.7349L394.038,43.1501L394.678,43.5674L395.316,43.9862L395.953,44.4069L396.589,44.8293L397.223,45.2538L397.857,45.6804L398.488,46.1085L399.119,46.5384L399.747,46.9702L400.375,47.4038L401.001,47.8394L401.626,48.2769L402.249,48.7158L402.871,49.1565L403.492,49.5996L404.111,50.0441L404.729,50.4903L405.346,50.9385L405.961,51.3886L406.574,51.8405L407.186,52.2937L407.797,52.7493L408.407,53.2066L409.014,53.6651L409.621,54.1258L410.226,54.5884L410.829,55.0524L411.432,55.5185L412.032,55.9863L412.631,56.4556L413.229,56.9267L413.826,57.3998L414.421,57.8747L415.014,58.3511L415.606,58.8295L416.197,59.3093L416.785,59.7907L417.373,60.2741L417.959,60.7592L418.543,61.246L419.126,61.7346L419.708,62.2249L420.288,62.7169L420.867,63.2104L421.444,63.706L422.019,64.2029L422.593,64.7018L423.166,65.2022L423.737,65.7041L424.306,66.2082L424.874,66.7134L425.44,67.2205L426.005,67.7293L426.568,68.2396L427.13,68.7519L427.691,69.2658L428.249,69.7808L428.806,70.2979L429.362,70.817L429.916,71.3376L430.469,71.8595L431.02,72.3832L431.568,72.908L432.116,73.435L432.663,73.9639L433.207,74.4936L433.75,75.0257L434.291,75.559L434.831,76.0938L435.369,76.6305L435.906,77.1687L436.441,77.7089L436.975,78.2502L437.506,78.7929L438.036,79.3375L438.564,79.8831L439.092,80.4313L439.617,80.9809L440.141,81.5314L440.663,82.0841L441.183,82.638L441.702,83.1934L442.219,83.7508L442.734,84.3091L443.248,84.8693L443.761,85.4317L444.271,85.9948L444.779,86.5594L445.287,87.1258L445.792,87.6938L446.296,88.2632L446.798,88.8344L447.298,89.4067L447.797,89.9809L448.294,90.5562L448.789,91.1331L449.283,91.7121L449.775,92.2924L450.265,92.8733L450.754,93.4562L451.241,94.0413L451.726,94.6269L452.209,95.2145L452.691,95.8037L453.171,96.3941L453.649,96.9863L454.125,97.5793L454.6,98.1743L455.073,98.7707L455.544,99.3684L456.014,99.9679L456.481,100.568L456.947,101.17L457.412,101.774L457.874,102.379L458.335,102.986L458.793,103.593L459.251,104.203L459.706,104.814L460.16,105.426L460.612,106.039L461.062,106.655L461.509,107.271L461.956,107.889L462.401,108.508L462.843,109.128L463.284,109.75L463.723,110.373L464.161,110.999L464.596,111.625L465.03,112.253L465.461,112.881L465.891,113.511L466.32,114.144L466.746,114.776L467.17,115.411L467.593,116.047L468.014,116.684L468.433,117.323L468.85,117.962L469.265,118.603L469.678,119.246L470.09,119.89L470.499,120.535L470.907,121.182L471.313,121.83L471.716,122.478L472.118,123.128L472.519,123.781L472.917,124.435L473.313,125.088L473.707,125.744L474.1,126.401L474.49,127.059L474.879,127.719L475.266,128.381L475.65,129.042L476.033,129.705L476.414,130.371L476.793,131.036L477.17,131.704L477.545,132.372L477.918,133.041L478.29,133.713L478.659,134.385L479.026,135.059L479.391,135.734L479.755,136.41L480.116,137.087L480.475,137.765L480.832,138.445L481.188,139.126L481.541,139.809L481.892,140.492L482.242,141.176L482.589,141.862L482.934,142.549L483.278,143.238L483.619,143.927L483.958,144.618L484.295,145.309L484.631,146.002L484.964,146.697L485.295,147.392L485.624,148.088L485.951,148.786L486.276,149.485L486.599,150.185L486.92,150.886L487.239,151.589L487.556,152.292L487.87,152.997L488.183,153.702L488.494,154.41L488.802,155.118L489.109,155.827L489.413,156.537L489.715,157.249L490.016,157.962L490.313,158.675L490.609,159.39L490.903,160.105L491.195,160.822L491.484,161.541L491.772,162.26L492.057,162.98L492.34,163.702L492.621,164.424L492.9,165.147L493.177,165.872L493.451,166.598L493.724,167.324L493.994,168.053L494.262,168.781L494.528,169.511L494.792,170.242L495.054,170.974L495.313,171.707L495.57,172.441L495.826,173.176L496.079,173.913L496.329,174.65L496.578,175.387L496.824,176.126L497.068,176.867L497.31,177.609L497.55,178.351L497.787,179.093L498.022,179.837L498.256,180.583L498.486,181.329L498.715,182.076L498.941,182.824L499.165,183.573L499.387,184.324L499.607,185.074L499.824,185.826L500.039,186.579L500.252,187.333L500.463,188.087L500.671,188.843L500.877,189.599L501.081,190.357L501.282,191.116L501.481,191.875L501.678,192.636L501.873,193.397L502.065,194.159L502.255,194.922L502.443,195.686L502.628,196.45L502.811,197.217L502.992,197.983L503.17,198.75L503.347,199.519L503.52,200.289L503.692,201.058L503.861,201.829L504.028,202.602L504.192,203.373L504.354,204.147L504.514,204.922L504.671,205.696L504.826,206.473L504.979,207.25L505.129,208.027L505.277,208.806L505.422,209.585L505.566,210.365L505.706,211.145L505.845,211.928L505.981,212.71L506.114,213.493L506.245,214.276L506.374,215.062L506.501,215.848L506.624,216.634L506.746,217.421L506.865,218.209L506.982,218.997L507.096,219.787L507.208,220.577L507.317,221.368L507.424,222.159L507.529,222.952L507.631,223.745L507.73,224.538L507.828,225.333L507.922,226.128L508.015,226.923L508.104,227.721L508.192,228.518L508.277,229.316L508.359,230.114L508.439,230.913L508.516,231.714L508.591,232.515L508.664,233.316L508.734,234.118L508.801,234.92L508.866,235.723L508.928,236.528L508.988,237.332L509.046,238.137L509.101,238.943L509.153,239.749L509.203,240.557L509.25,241.364L509.295,242.172L509.337,242.982L509.377,243.791L509.414,244.6L509.449,245.411L509.481,246.223L509.511,247.034L509.538,247.847L509.562,248.659L509.584,249.473L509.603,250.287L509.62,251.102L509.634,251.916L509.646,252.732L509.655,253.548L509.662,254.365L509.665,255.182L509.667,256L509.665,256.818L509.662,257.635L509.655,258.451L509.646,259.268L509.634,260.084L509.62,260.898L509.603,261.713L509.584,262.527L509.562,263.341L509.538,264.153L509.511,264.966L509.481,265.777L509.449,266.589L509.414,267.4L509.377,268.209L509.337,269.018L509.295,269.828L509.25,270.636L509.203,271.443L509.153,272.251L509.101,273.057L509.046,273.863L508.988,274.668L508.929,275.472L508.866,276.277L508.801,277.08L508.734,277.882L508.664,278.684L508.591,279.486L508.516,280.286L508.439,281.087L508.359,281.886L508.277,282.684L508.192,283.482L508.104,284.279L508.015,285.077L507.922,285.872L507.828,286.667L507.73,287.462L507.631,288.255L507.529,289.048L507.424,289.841L507.317,290.632L507.208,291.423L507.096,292.213L506.982,293.003L506.865,293.791L506.746,294.579L506.624,295.366L506.501,296.152L506.374,296.938L506.245,297.724L506.114,298.507L505.981,299.29L505.845,300.072L505.706,300.855L505.566,301.635L505.422,302.415L505.277,303.194L505.129,303.973L504.979,304.75L504.826,305.527L504.671,306.304L504.514,307.078L504.354,307.853L504.192,308.627L504.028,309.398L503.861,310.171L503.692,310.942L503.52,311.711L503.347,312.481L503.17,313.25L502.992,314.017L502.811,314.783L502.628,315.55L502.443,316.314L502.255,317.078L502.065,317.841L501.873,318.603L501.678,319.364L501.481,320.125L501.282,320.884L501.081,321.643L500.877,322.401L500.671,323.157L500.463,323.912L500.252,324.667L500.039,325.42L499.824,326.174L499.607,326.927L499.387,327.676L499.165,328.427L498.941,329.176L498.715,329.924L498.486,330.671L498.256,331.417L498.022,332.163L497.787,332.907L497.55,333.649L497.31,334.391L497.068,335.134L496.824,335.874L496.578,336.612L496.329,337.35L496.079,338.087L495.826,338.824L495.57,339.559L495.313,340.293L495.054,341.025L494.792,341.758L494.528,342.489L494.262,343.219L493.994,343.947L493.724,344.676L493.451,345.402L493.177,346.128L492.9,346.852L492.621,347.576L492.34,348.298L492.057,349.02L491.772,349.74L491.484,350.459L491.195,351.178L490.903,351.895L490.609,352.61L490.313,353.325L490.015,354.038L489.715,354.751L489.413,355.463L489.109,356.173L488.802,356.882L488.494,357.59L488.183,358.298L487.87,359.003L487.556,359.708L487.239,360.411L486.92,361.113L486.599,361.815L486.276,362.515L485.951,363.214L485.624,363.912L485.295,364.608L484.964,365.303L484.631,365.998L484.295,366.691L483.958,367.382L483.619,368.073L483.278,368.762L482.934,369.451L482.589,370.138L482.242,370.824L481.892,371.509L481.541,372.191L481.188,372.873L480.832,373.555L480.475,374.235L480.116,374.913L479.755,375.59L479.391,376.266L479.026,376.941L478.659,377.615L478.29,378.287L477.918,378.958L477.545,379.628L477.171,380.296L476.793,380.965L476.414,381.63L476.034,382.294L475.65,382.958L475.266,383.62L474.879,384.281L474.49,384.941L474.1,385.599L473.707,386.256L473.313,386.912L472.917,387.565L472.519,388.219L472.118,388.872L471.716,389.522L471.313,390.17L470.907,390.818L470.499,391.465L470.089,392.111L469.678,392.754L469.265,393.396L468.85,394.038L468.433,394.678L468.014,395.316L467.593,395.953L467.171,396.589L466.746,397.223L466.32,397.856L465.891,398.489L465.462,399.119L465.03,399.747L464.596,400.375L464.161,401.001L463.723,401.627L463.284,402.25L462.844,402.871L462.401,403.492L461.956,404.111L461.509,404.729L461.062,405.345L460.612,405.961L460.16,406.574L459.706,407.186L459.251,407.797L458.793,408.407L458.335,409.014L457.875,409.62L457.411,410.226L456.948,410.829L456.481,411.432L456.014,412.032L455.544,412.632L455.073,413.229L454.6,413.826L454.125,414.421L453.649,415.014L453.17,415.606L452.691,416.197L452.209,416.785L451.726,417.373L451.241,417.959L450.754,418.543L450.265,419.127L449.775,419.708L449.283,420.288L448.789,420.867L448.294,421.444L447.797,422.019L447.298,422.593L446.798,423.166L446.296,423.737L445.792,424.306L445.287,424.874L444.779,425.441L444.271,426.005L443.761,426.568L443.248,427.131L442.734,427.691L442.219,428.249L441.702,428.806L441.183,429.362L440.663,429.916L440.14,430.469L439.617,431.019L439.092,431.568L438.564,432.117L438.036,432.663L437.506,433.207L436.974,433.75L436.441,434.291L435.906,434.831L435.369,435.369L434.831,435.906L434.291,436.441L433.75,436.974L433.207,437.506L432.663,438.036L432.117,438.564L431.568,439.092L431.019,439.617L430.469,440.14L429.916,440.663L429.362,441.183L428.806,441.702L428.249,442.219L427.691,442.734L427.131,443.248L426.568,443.761L426.005,444.271L425.441,444.779L424.874,445.287L424.306,445.792L423.737,446.296L423.166,446.798L422.593,447.298L422.019,447.797L421.444,448.294L420.867,448.789L420.288,449.283L419.708,449.775L419.127,450.265L418.543,450.754L417.959,451.241L417.373,451.726L416.785,452.209L416.197,452.691L415.606,453.17L415.014,453.649L414.421,454.125L413.826,454.6L413.229,455.073L412.632,455.544L412.032,456.014L411.432,456.481L410.829,456.948L410.226,457.411L409.62,457.875L409.014,458.335L408.407,458.793L407.797,459.251L407.186,459.706L406.574,460.16L405.961,460.612L405.345,461.062L404.729,461.509L404.111,461.956L403.492,462.401L402.871,462.844L402.25,463.284L401.627,463.723L401.001,464.161L400.375,464.596L399.747,465.03L399.119,465.462L398.489,465.891L397.856,466.32L397.223,466.746L396.589,467.171L395.953,467.593L395.316,468.014L394.678,468.433L394.038,468.85L393.396,469.265L392.754,469.678L392.111,470.089L391.465,470.499L390.818,470.907L390.17,471.313L389.522,471.716L388.872,472.118L388.219,472.519L387.565,472.917L386.912,473.313L386.256,473.707L385.599,474.1L384.941,474.49L384.281,474.879L383.62,475.266L382.958,475.65L382.294,476.034L381.63,476.414L380.965,476.793L380.296,477.171L379.628,477.545L378.958,477.918L378.287,478.29L377.615,478.659L376.941,479.026L376.266,479.391L375.59,479.755L374.913,480.116L374.235,480.475L373.555,480.832L372.873,481.188L372.191,481.541L371.509,481.892L370.824,482.242L370.138,482.589L369.451,482.934L368.762,483.278L368.073,483.619L367.382,483.958L366.691,484.295L365.998,484.631L365.303,484.964L364.608,485.295L363.912,485.624L363.214,485.951L362.515,486.276L361.815,486.599L361.113,486.92L360.411,487.239L359.708,487.556L359.003,487.87L358.298,488.183L357.59,488.494L356.882,488.802L356.173,489.109L355.463,489.413L354.751,489.715L354.038,490.015L353.325,490.313L352.61,490.609L351.895,490.903L351.178,491.195L350.459,491.484L349.74,491.772L349.02,492.057L348.298,492.34L347.576,492.621L346.852,492.9L346.128,493.177L345.402,493.451L344.676,493.724L343.947,493.994L343.219,494.262L342.489,494.528L341.758,494.792L341.025,495.054L340.293,495.313L339.559,495.57L338.824,495.826L338.087,496.079L337.35,496.329L336.612,496.578L335.874,496.824L335.134,497.068L334.391,497.31L333.649,497.55L332.907,497.787L332.163,498.022L331.417,498.256L330.671,498.486L329.924,498.715L329.176,498.941L328.427,499.165L327.676,499.387L326.927,499.607L326.174,499.824L325.42,500.039L324.667,500.252L323.912,500.463L323.157,500.671L322.401,500.877L321.643,501.081L320.884,501.282L320.125,501.481L319.364,501.678L318.603,501.873L317.841,502.065L317.078,502.255L316.314,502.443L315.55,502.628L314.783,502.811L314.017,502.992L313.25,503.17L312.481,503.347L311.711,503.52L310.942,503.692L310.171,503.861L309.398,504.028L308.627,504.192L307.853,504.354L307.078,504.514L306.304,504.671L305.527,504.826L304.75,504.979L303.973,505.129L303.194,505.277L302.415,505.422L301.635,505.566L300.855,505.706L300.072,505.845L299.29,505.981L298.507,506.114L297.724,506.245L296.938,506.374L296.152,506.501L295.366,506.624L294.579,506.746L293.791,506.865L293.003,506.982L292.213,507.096L291.423,507.208L290.632,507.317L289.841,507.424L289.048,507.529L288.255,507.631L287.462,507.73L286.667,507.828L285.872,507.922L285.077,508.015L284.279,508.104L283.482,508.192L282.684,508.277L281.886,508.359L281.087,508.439L280.286,508.516L279.486,508.591L278.684,508.664L277.882,508.734L277.08,508.801L276.277,508.866L275.472,508.929L274.668,508.988L273.863,509.046L273.057,509.101L272.251,509.153L271.443,509.203L270.636,509.25L269.828,509.295L269.018,509.337L268.209,509.377L267.4,509.414L266.589,509.449L265.777,509.481L264.966,509.511L264.153,509.538L263.341,509.562L262.527,509.584L261.713,509.603L260.898,509.62L260.084,509.634L259.268,509.646L258.451,509.655L257.635,509.662L256.818,509.665L256,509.667ZM256,468L256.686,467.999L257.371,467.996L258.056,467.99L258.74,467.983L259.424,467.973L260.107,467.961L260.79,467.947L261.472,467.931L262.153,467.912L262.835,467.892L263.515,467.869L264.195,467.845L264.874,467.818L265.553,467.789L266.232,467.757L266.909,467.724L267.587,467.689L268.263,467.651L268.939,467.612L269.615,467.57L270.29,467.526L270.964,467.48L271.638,467.432L272.311,467.382L272.984,467.33L273.656,467.275L274.327,467.219L274.998,467.16L275.669,467.1L276.338,467.037L277.007,466.972L277.676,466.905L278.344,466.837L279.011,466.766L279.677,466.693L280.343,466.618L281.009,466.54L281.673,466.461L282.338,466.38L283.001,466.297L283.664,466.211L284.326,466.124L284.988,466.035L285.648,465.943L286.309,465.85L286.968,465.754L287.627,465.657L288.286,465.557L288.943,465.456L289.6,465.352L290.256,465.247L290.912,465.139L291.567,465.029L292.221,464.918L292.875,464.804L293.528,464.689L294.18,464.571L294.831,464.452L295.482,464.33L296.132,464.207L296.781,464.081L297.43,463.954L298.078,463.824L298.725,463.693L299.372,463.56L300.018,463.424L300.663,463.287L301.307,463.148L301.951,463.007L302.594,462.863L303.236,462.718L303.877,462.571L304.518,462.422L305.158,462.271L305.797,462.119L306.436,461.964L307.074,461.807L307.71,461.649L308.347,461.488L308.982,461.326L309.617,461.161L310.251,460.995L310.884,460.827L311.516,460.657L312.148,460.485L312.778,460.311L313.408,460.135L314.038,459.958L314.666,459.778L315.294,459.597L315.92,459.413L316.546,459.228L317.172,459.041L317.796,458.852L318.42,458.662L319.042,458.469L319.664,458.274L320.285,458.078L320.906,457.88L321.525,457.68L322.144,457.478L322.762,457.274L323.378,457.069L323.995,456.861L324.61,456.652L325.224,456.441L325.838,456.228L326.451,456.013L327.062,455.796L327.673,455.578L328.283,455.358L328.893,455.136L329.501,454.912L330.109,454.686L330.715,454.459L331.321,454.23L331.926,453.999L332.53,453.766L333.133,453.531L333.735,453.295L334.336,453.057L334.937,452.817L335.536,452.575L336.135,452.332L336.732,452.086L337.329,451.839L337.925,451.591L338.52,451.34L339.114,451.088L339.707,450.834L340.299,450.578L340.89,450.32L341.481,450.061L342.07,449.8L342.658,449.537L343.246,449.273L343.832,449.006L344.418,448.738L345.002,448.469L345.586,448.197L346.169,447.924L346.75,447.649L347.331,447.373L347.911,447.094L348.49,446.815L349.067,446.533L349.644,446.249L350.22,445.964L350.795,445.678L351.369,445.389L351.941,445.099L352.513,444.807L353.084,444.514L353.654,444.219L354.223,443.922L354.791,443.623L355.357,443.323L355.923,443.021L356.488,442.718L357.052,442.413L357.615,442.106L358.176,441.798L358.737,441.487L359.296,441.176L359.855,440.862L360.413,440.547L360.969,440.231L361.524,439.912L362.079,439.593L362.632,439.271L363.184,438.948L363.736,438.623L364.286,438.297L364.835,437.969L365.383,437.639L365.93,437.308L366.476,436.975L367.02,436.641L367.564,436.305L368.107,435.967L368.648,435.628L369.188,435.287L369.728,434.945L370.266,434.601L370.803,434.256L371.339,433.909L371.874,433.56L372.407,433.21L372.94,432.858L373.472,432.505L374.002,432.15L374.531,431.794L375.059,431.436L375.586,431.076L376.112,430.715L376.637,430.353L377.16,429.989L377.683,429.623L378.204,429.256L378.724,428.887L379.243,428.517L379.761,428.145L380.277,427.772L380.793,427.397L381.307,427.021L381.82,426.643L382.332,426.264L382.843,425.883L383.353,425.501L383.861,425.117L384.368,424.732L384.874,424.345L385.379,423.957L385.882,423.567L386.385,423.176L386.886,422.783L387.386,422.389L387.885,421.994L388.382,421.597L388.879,421.198L389.374,420.798L389.868,420.397L390.36,419.994L390.852,419.59L391.342,419.184L391.831,418.777L392.318,418.368L392.805,417.958L393.29,417.546L393.774,417.133L394.257,416.719L394.738,416.303L395.218,415.886L395.697,415.467L396.175,415.047L396.651,414.626L397.126,414.203L397.6,413.779L398.073,413.353L398.544,412.926L399.014,412.498L399.483,412.068L399.95,411.637L400.416,411.204L400.881,410.77L401.344,410.335L401.807,409.898L402.267,409.46L402.727,409.021L403.185,408.58L403.642,408.138L404.098,407.694L404.552,407.249L405.005,406.803L405.456,406.356L405.907,405.907L406.356,405.456L406.803,405.005L407.249,404.552L407.694,404.098L408.138,403.642L408.58,403.185L409.021,402.727L409.46,402.267L409.898,401.807L410.335,401.344L410.77,400.881L411.204,400.416L411.637,399.95L412.068,399.483L412.498,399.014L412.926,398.544L413.353,398.073L413.779,397.6L414.203,397.126L414.626,396.651L415.047,396.175L415.467,395.697L415.886,395.218L416.303,394.738L416.719,394.257L417.133,393.774L417.546,393.29L417.958,392.805L418.368,392.318L418.777,391.831L419.184,391.342L419.59,390.852L419.994,390.36L420.397,389.868L420.798,389.374L421.198,388.879L421.597,388.382L421.994,387.885L422.389,387.386L422.783,386.886L423.176,386.385L423.567,385.882L423.957,385.379L424.345,384.874L424.732,384.368L425.117,383.861L425.501,383.353L425.883,382.843L426.264,382.332L426.643,381.82L427.021,381.307L427.397,380.793L427.772,380.277L428.145,379.761L428.517,379.243L428.887,378.724L429.256,378.204L429.623,377.683L429.989,377.16L430.353,376.637L430.715,376.112L431.076,375.586L431.436,375.059L431.794,374.531L432.15,374.002L432.505,373.472L432.858,372.94L433.21,372.407L433.56,371.874L433.909,371.339L434.256,370.803L434.601,370.266L434.945,369.728L435.287,369.188L435.628,368.648L435.967,368.107L436.305,367.564L436.641,367.02L436.975,366.476L437.308,365.93L437.639,365.383L437.969,364.835L438.297,364.286L438.623,363.736L438.948,363.184L439.271,362.632L439.593,362.079L439.912,361.524L440.231,360.969L440.547,360.413L440.862,359.855L441.176,359.296L441.487,358.737L441.798,358.176L442.106,357.615L442.413,357.052L442.718,356.488L443.021,355.923L443.323,355.357L443.623,354.791L443.922,354.223L444.219,353.654L444.514,353.084L444.807,352.513L445.099,351.941L445.389,351.369L445.678,350.795L445.964,350.22L446.249,349.644L446.533,349.067L446.815,348.49L447.094,347.911L447.373,347.331L447.649,346.75L447.924,346.169L448.197,345.586L448.469,345.002L448.738,344.418L449.006,343.832L449.273,343.246L449.537,342.658L449.8,342.07L450.061,341.481L450.32,340.89L450.578,340.299L450.834,339.707L451.088,339.114L451.34,338.52L451.591,337.925L451.839,337.329L452.086,336.732L452.332,336.135L452.575,335.536L452.817,334.937L453.057,334.336L453.295,333.735L453.531,333.133L453.766,332.53L453.999,331.926L454.23,331.321L454.459,330.715L454.686,330.109L454.912,329.501L455.136,328.893L455.358,328.283L455.578,327.673L455.796,327.062L456.013,326.451L456.228,325.838L456.441,325.224L456.652,324.61L456.861,323.995L457.069,323.378L457.274,322.762L457.478,322.144L457.68,321.525L457.88,320.906L458.078,320.285L458.274,319.664L458.469,319.042L458.662,318.42L458.852,317.796L459.041,317.172L459.228,316.546L459.413,315.92L459.597,315.294L459.778,314.666L459.958,314.038L460.135,313.408L460.311,312.778L460.485,312.148L460.657,311.516L460.827,310.884L460.995,310.251L461.161,309.617L461.326,308.982L461.488,308.347L461.649,307.71L461.807,307.074L461.964,306.436L462.119,305.797L462.271,305.158L462.422,304.518L462.571,303.877L462.718,303.236L462.863,302.594L463.007,301.951L463.148,301.307L463.287,300.663L463.424,300.018L463.56,299.372L463.693,298.725L463.824,298.078L463.954,297.43L464.081,296.781L464.207,296.132L464.33,295.482L464.452,294.831L464.571,294.18L464.689,293.528L464.804,292.875L464.918,292.221L465.029,291.567L465.139,290.912L465.247,290.256L465.352,289.6L465.456,288.943L465.557,288.286L465.657,287.627L465.754,286.968L465.85,286.309L465.943,285.648L466.035,284.988L466.124,284.326L466.211,283.664L466.297,283.001L466.38,282.338L466.461,281.673L466.54,281.009L466.618,280.343L466.693,279.677L466.766,279.011L466.837,278.344L466.905,277.676L466.972,277.007L467.037,276.338L467.1,275.669L467.16,274.998L467.219,274.327L467.275,273.656L467.33,272.984L467.382,272.311L467.432,271.638L467.48,270.964L467.526,270.29L467.57,269.615L467.612,268.939L467.651,268.263L467.689,267.587L467.724,266.909L467.757,266.232L467.789,265.553L467.818,264.874L467.845,264.195L467.869,263.515L467.892,262.835L467.912,262.153L467.931,261.472L467.947,260.79L467.961,260.107L467.973,259.424L467.983,258.74L467.99,258.056L467.996,257.371L467.999,256.686L468,256L467.999,255.314L467.996,254.629L467.99,253.944L467.983,253.26L467.973,252.576L467.961,251.893L467.947,251.21L467.931,250.528L467.912,249.847L467.892,249.165L467.869,248.485L467.845,247.805L467.818,247.126L467.789,246.447L467.757,245.768L467.724,245.091L467.689,244.413L467.651,243.737L467.612,243.061L467.57,242.385L467.526,241.71L467.48,241.036L467.432,240.362L467.382,239.689L467.33,239.016L467.275,238.344L467.219,237.673L467.16,237.002L467.1,236.331L467.037,235.662L466.972,234.993L466.905,234.324L466.837,233.656L466.766,232.989L466.693,232.323L466.618,231.657L466.54,230.991L466.461,230.327L466.38,229.662L466.297,228.999L466.211,228.336L466.124,227.674L466.035,227.012L465.943,226.352L465.85,225.691L465.754,225.032L465.657,224.373L465.557,223.714L465.456,223.057L465.352,222.4L465.247,221.744L465.139,221.088L465.029,220.433L464.918,219.779L464.804,219.125L464.689,218.472L464.571,217.82L464.452,217.169L464.33,216.518L464.207,215.868L464.081,215.219L463.954,214.57L463.824,213.922L463.693,213.275L463.56,212.628L463.424,211.982L463.287,211.337L463.148,210.693L463.007,210.049L462.863,209.406L462.718,208.764L462.571,208.123L462.422,207.482L462.271,206.842L462.119,206.203L461.964,205.564L461.807,204.926L461.649,204.29L461.488,203.653L461.326,203.018L461.161,202.383L460.995,201.749L460.827,201.116L460.657,200.484L460.485,199.852L460.311,199.222L460.135,198.592L459.958,197.962L459.778,197.334L459.597,196.706L459.413,196.08L459.228,195.454L459.041,194.828L458.852,194.204L458.662,193.58L458.469,192.958L458.274,192.336L458.078,191.715L457.88,191.094L457.68,190.475L457.478,189.856L457.274,189.238L457.069,188.622L456.861,188.005L456.652,187.39L456.441,186.776L456.228,186.162L456.013,185.549L455.796,184.938L455.578,184.327L455.358,183.717L455.136,183.107L454.912,182.499L454.686,181.891L454.459,181.285L454.23,180.679L453.999,180.074L453.766,179.47L453.531,178.867L453.295,178.265L453.057,177.664L452.817,177.063L452.575,176.464L452.332,175.865L452.086,175.268L451.839,174.671L451.591,174.075L451.34,173.48L451.088,172.886L450.834,172.293L450.578,171.701L450.32,171.11L450.061,170.519L449.8,169.93L449.537,169.342L449.273,168.754L449.006,168.168L448.738,167.582L448.469,166.998L448.197,166.414L447.924,165.831L447.649,165.25L447.373,164.669L447.094,164.089L446.815,163.51L446.533,162.933L446.249,162.356L445.964,161.78L445.678,161.205L445.389,160.631L445.099,160.059L444.807,159.487L444.514,158.916L444.219,158.346L443.922,157.777L443.623,157.209L443.323,156.643L443.021,156.077L442.718,155.512L442.413,154.948L442.106,154.385L441.798,153.824L441.487,153.263L441.176,152.704L440.862,152.145L440.547,151.587L440.231,151.031L439.912,150.476L439.593,149.921L439.271,149.368L438.948,148.816L438.623,148.264L438.297,147.714L437.969,147.165L437.639,146.617L437.308,146.07L436.975,145.524L436.641,144.98L436.305,144.436L435.967,143.893L435.628,143.352L435.287,142.812L434.945,142.272L434.601,141.734L434.256,141.197L433.909,140.661L433.56,140.126L433.21,139.593L432.858,139.06L432.505,138.528L432.15,137.998L431.794,137.469L431.436,136.941L431.076,136.414L430.715,135.888L430.353,135.363L429.989,134.84L429.623,134.317L429.256,133.796L428.887,133.276L428.517,132.757L428.145,132.239L427.772,131.723L427.397,131.207L427.021,130.693L426.643,130.18L426.264,129.668L425.883,129.157L425.501,128.647L425.117,128.139L424.732,127.632L424.345,127.126L423.957,126.621L423.567,126.118L423.176,125.615L422.783,125.114L422.389,124.614L421.994,124.115L421.597,123.618L421.198,123.121L420.798,122.626L420.397,122.132L419.994,121.64L419.59,121.148L419.184,120.658L418.777,120.169L418.368,119.682L417.958,119.195L417.546,118.71L417.133,118.226L416.719,117.743L416.303,117.262L415.886,116.782L415.467,116.303L415.047,115.825L414.626,115.349L414.203,114.874L413.779,114.4L413.353,113.927L412.926,113.456L412.498,112.986L412.068,112.517L411.637,112.05L411.204,111.584L410.77,111.119L410.335,110.656L409.898,110.193L409.46,109.733L409.021,109.273L408.58,108.815L408.138,108.358L407.694,107.902L407.249,107.448L406.803,106.995L406.356,106.544L405.907,106.093L405.456,105.644L405.005,105.197L404.552,104.751L404.098,104.306L403.642,103.862L403.185,103.42L402.727,102.979L402.267,102.54L401.807,102.102L401.344,101.665L400.881,101.23L400.416,100.796L399.95,100.363L399.483,99.932L399.014,99.5022L398.544,99.0738L398.073,98.6467L397.6,98.2211L397.126,97.7969L396.651,97.374L396.175,96.9526L395.697,96.5326L395.218,96.1139L394.738,95.6968L394.257,95.281L393.774,94.8666L393.29,94.4537L392.805,94.0422L392.318,93.6321L391.831,93.2235L391.342,92.8163L390.852,92.4105L390.36,92.0062L389.868,91.6033L389.374,91.2019L388.879,90.8019L388.382,90.4034L387.885,90.0064L387.386,89.6108L386.886,89.2167L386.385,88.824L385.882,88.4328L385.379,88.0431L384.874,87.6549L384.368,87.2682L383.861,86.8829L383.353,86.4992L382.843,86.1169L382.332,85.7361L381.82,85.3568L381.307,84.9791L380.793,84.6028L380.277,84.2281L379.761,83.8548L379.243,83.4831L378.724,83.1129L378.204,82.7442L377.683,82.377L377.16,82.0114L376.637,81.6473L376.112,81.2847L375.586,80.9237L375.059,80.5642L374.531,80.2063L374.002,79.8499L373.472,79.495L372.94,79.1417L372.407,78.79L371.874,78.4398L371.339,78.0912L370.803,77.7442L370.266,77.3987L369.728,77.0548L369.188,76.7125L368.648,76.3718L368.107,76.0326L367.564,75.6951L367.02,75.3591L366.476,75.0247L365.93,74.692L365.383,74.3608L364.835,74.0312L364.286,73.7032L363.736,73.3769L363.184,73.0521L362.632,72.729L362.079,72.4075L361.524,72.0876L360.969,71.7693L360.413,71.4527L359.855,71.1377L359.296,70.8243L358.737,70.5126L358.176,70.2025L357.615,69.894L357.052,69.5873L356.488,69.2821L355.923,68.9786L355.357,68.6768L354.791,68.3766L354.223,68.0781L353.654,67.7813L353.084,67.4862L352.513,67.1927L351.941,66.9009L351.369,66.6107L350.795,66.3223L350.22,66.0356L349.644,65.7505L349.067,65.4671L348.49,65.1855L347.911,64.9055L347.331,64.6272L346.75,64.3507L346.169,64.0758L345.586,63.8027L345.002,63.5313L344.418,63.2616L343.832,62.9936L343.246,62.7274L342.658,62.4629L342.07,62.2001L341.481,61.9391L340.89,61.6798L340.299,61.4222L339.707,61.1664L339.114,60.9123L338.52,60.66L337.925,60.4095L337.329,60.1607L336.732,59.9136L336.135,59.6684L335.536,59.4249L334.937,59.1831L334.336,58.9432L333.735,58.705L333.133,58.4686L332.53,58.234L331.926,58.0012L331.321,57.7702L330.715,57.541L330.109,57.3136L329.501,57.0879L328.893,56.8641L328.283,56.6421L327.673,56.4219L327.062,56.2035L326.451,55.9869L325.838,55.7722L325.224,55.5593L324.61,55.3482L323.995,55.1389L323.378,54.9315L322.762,54.7259L322.144,54.5221L321.525,54.3202L320.906,54.1202L320.285,53.922L319.664,53.7256L319.042,53.5311L318.42,53.3385L317.796,53.1477L317.172,52.9588L316.546,52.7717L315.92,52.5866L315.294,52.4033L314.666,52.2219L314.038,52.0424L313.408,51.8647L312.778,51.689L312.148,51.5151L311.516,51.3431L310.884,51.1731L310.251,51.0049L309.617,50.8387L308.982,50.6743L308.347,50.5119L307.71,50.3514L307.074,50.1928L306.436,50.0361L305.797,49.8813L305.158,49.7285L304.518,49.5776L303.877,49.4287L303.236,49.2817L302.594,49.1366L301.951,48.9935L301.307,48.8523L300.663,48.713L300.018,48.5758L299.372,48.4404L298.725,48.3071L298.078,48.1757L297.43,48.0463L296.781,47.9188L296.132,47.7933L295.482,47.6698L294.831,47.5483L294.18,47.4288L293.528,47.3112L292.875,47.1956L292.221,47.0821L291.567,46.9705L290.912,46.8609L290.256,46.7534L289.6,46.6478L288.943,46.5443L288.286,46.4427L287.627,46.3432L286.968,46.2457L286.309,46.1502L285.648,46.0568L284.988,45.9653L284.326,45.8759L283.664,45.7886L283.001,45.7033L282.338,45.62L281.673,45.5388L281.009,45.4596L280.343,45.3825L279.677,45.3074L279.011,45.2344L278.344,45.1634L277.676,45.0945L277.007,45.0277L276.338,44.963L275.669,44.9003L274.998,44.8397L274.327,44.7812L273.656,44.7248L272.984,44.6704L272.311,44.6182L271.638,44.568L270.964,44.52L270.29,44.474L269.615,44.4302L268.939,44.3884L268.263,44.3488L267.587,44.3113L266.909,44.2759L266.232,44.2426L265.553,44.2114L264.874,44.1824L264.195,44.1555L263.515,44.1307L262.835,44.1081L262.153,44.0876L261.472,44.0692L260.79,44.053L260.107,44.039L259.424,44.0271L258.74,44.0173L258.056,44.0098L257.371,44.0043L256.686,44.0011L256,44L255.314,44.0011L254.629,44.0043L253.944,44.0098L253.26,44.0173L252.576,44.0271L251.893,44.039L251.21,44.053L250.528,44.0692L249.847,44.0876L249.165,44.1081L248.485,44.1307L247.805,44.1555L247.126,44.1824L246.447,44.2114L245.768,44.2426L245.091,44.2759L244.413,44.3113L243.737,44.3488L243.061,44.3884L242.385,44.4302L241.71,44.474L241.036,44.52L240.362,44.568L239.689,44.6182L239.016,44.6704L238.344,44.7248L237.673,44.7812L237.002,44.8397L236.331,44.9003L235.662,44.963L234.993,45.0277L234.324,45.0945L233.656,45.1634L232.989,45.2344L232.323,45.3074L231.657,45.3825L230.991,45.4596L230.327,45.5388L229.662,45.62L228.999,45.7033L228.336,45.7886L227.674,45.8759L227.012,45.9653L226.352,46.0568L225.691,46.1502L225.032,46.2457L224.373,46.3432L223.714,46.4427L223.057,46.5443L222.4,46.6478L221.744,46.7534L221.088,46.8609L220.433,46.9705L219.779,47.0821L219.125,47.1956L218.472,47.3112L217.82,47.4288L217.169,47.5483L216.518,47.6698L215.868,47.7933L215.219,47.9188L214.57,48.0463L213.922,48.1757L213.275,48.3071L212.628,48.4404L211.982,48.5758L211.337,48.713L210.693,48.8523L210.049,48.9935L209.406,49.1366L208.764,49.2817L208.123,49.4287L207.482,49.5776L206.842,49.7285L206.203,49.8813L205.564,50.0361L204.926,50.1928L204.29,50.3514L203.653,50.5119L203.018,50.6743L202.383,50.8387L201.749,51.0049L201.116,51.1731L200.484,51.3431L199.852,51.5151L199.222,51.689L198.592,51.8647L197.962,52.0424L197.334,52.2219L196.706,52.4033L196.08,52.5866L195.454,52.7717L194.828,52.9588L194.204,53.1477L193.58,53.3385L192.958,53.5311L192.336,53.7256L191.715,53.922L191.094,54.1202L190.475,54.3202L189.856,54.5221L189.238,54.7259L188.622,54.9315L188.005,55.1389L187.39,55.3482L186.776,55.5593L186.162,55.7722L185.549,55.9869L184.938,56.2035L184.327,56.4219L183.717,56.6421L183.107,56.8641L182.499,57.0879L181.891,57.3136L181.285,57.541L180.679,57.7702L180.074,58.0012L179.47,58.234L178.867,58.4686L178.265,58.705L177.664,58.9432L177.063,59.1831L176.464,59.4249L175.865,59.6684L175.268,59.9136L174.671,60.1607L174.075,60.4095L173.48,60.66L172.886,60.9123L172.293,61.1664L171.701,61.4222L171.11,61.6798L170.519,61.9391L169.93,62.2001L169.342,62.4629L168.754,62.7274L168.168,62.9936L167.582,63.2616L166.998,63.5313L166.414,63.8027L165.831,64.0758L165.25,64.3507L164.669,64.6272L164.089,64.9055L163.51,65.1855L162.933,65.4671L162.356,65.7505L161.78,66.0356L161.205,66.3223L160.631,66.6107L160.059,66.9009L159.487,67.1927L158.916,67.4862L158.346,67.7813L157.777,68.0781L157.209,68.3766L156.643,68.6768L156.077,68.9786L155.512,69.2821L154.948,69.5873L154.385,69.894L153.824,70.2025L153.263,70.5126L152.704,70.8243L152.145,71.1377L151.587,71.4527L151.031,71.7693L150.476,72.0876L149.921,72.4075L149.368,72.729L148.816,73.0521L148.264,73.3769L147.714,73.7032L147.165,74.0312L146.617,74.3608L146.07,74.692L145.524,75.0247L144.98,75.3591L144.436,75.6951L143.893,76.0326L143.352,76.3718L142.812,76.7125L142.272,77.0548L141.734,77.3987L141.197,77.7442L140.661,78.0912L140.126,78.4398L139.593,78.79L139.06,79.1417L138.528,79.495L137.998,79.8499L137.469,80.2063L136.941,80.5642L136.414,80.9237L135.888,81.2847L135.363,81.6473L134.84,82.0114L134.317,82.377L133.796,82.7442L133.276,83.1129L132.757,83.4831L132.239,83.8548L131.723,84.2281L131.207,84.6028L130.693,84.9791L130.18,85.3568L129.668,85.7361L129.157,86.1169L128.647,86.4992L128.139,86.8829L127.632,87.2682L127.126,87.6549L126.621,88.0431L126.118,88.4328L125.615,88.824L125.114,89.2167L124.614,89.6108L124.115,90.0064L123.618,90.4034L123.121,90.8019L122.626,91.2019L122.132,91.6033L121.64,92.0062L121.148,92.4105L120.658,92.8163L120.169,93.2235L119.682,93.6321L119.195,94.0422L118.71,94.4537L118.226,94.8666L117.743,95.281L117.262,95.6968L116.782,96.1139L116.303,96.5326L115.825,96.9526L115.349,97.374L114.874,97.7969L114.4,98.2211L113.927,98.6467L113.456,99.0738L112.986,99.5022L112.517,99.932L112.05,100.363L111.584,100.796L111.119,101.23L110.656,101.665L110.193,102.102L109.733,102.54L109.273,102.979L108.815,103.42L108.358,103.862L107.902,104.306L107.448,104.751L106.995,105.197L106.544,105.644L106.093,106.093L105.644,106.544L105.197,106.995L104.751,107.448L104.306,107.902L103.862,108.358L103.42,108.815L102.979,109.273L102.54,109.733L102.102,110.193L101.665,110.656L101.23,111.119L100.796,111.584L100.363,112.05L99.932,112.517L99.5022,112.986L99.0738,113.456L98.6467,113.927L98.2211,114.4L97.7969,114.874L97.374,115.349L96.9526,115.825L96.5326,116.303L96.1139,116.782L95.6968,117.262L95.281,117.743L94.8666,118.226L94.4537,118.71L94.0422,119.195L93.6321,119.682L93.2235,120.169L92.8163,120.658L92.4105,121.148L92.0062,121.64L91.6033,122.132L91.2019,122.626L90.8019,123.121L90.4034,123.618L90.0064,124.115L89.6108,124.614L89.2167,125.114L88.824,125.615L88.4328,126.118L88.0431,126.621L87.6549,127.126L87.2682,127.632L86.8829,128.139L86.4992,128.647L86.1169,129.157L85.7361,129.668L85.3568,130.18L84.9791,130.693L84.6028,131.207L84.2281,131.723L83.8548,132.239L83.4831,132.757L83.1129,133.276L82.7442,133.796L82.377,134.317L82.0114,134.84L81.6473,135.363L81.2847,135.888L80.9237,136.414L80.5642,136.941L80.2063,137.469L79.8499,137.998L79.495,138.528L79.1417,139.06L78.79,139.593L78.4398,140.126L78.0912,140.661L77.7442,141.197L77.3987,141.734L77.0548,142.272L76.7125,142.812L76.3718,143.352L76.0326,143.893L75.6951,144.436L75.3591,144.98L75.0247,145.524L74.692,146.07L74.3608,146.617L74.0312,147.165L73.7032,147.714L73.3769,148.264L73.0521,148.816L72.729,149.368L72.4075,149.921L72.0876,150.476L71.7693,151.031L71.4527,151.587L71.1377,152.145L70.8243,152.704L70.5126,153.263L70.2025,153.824L69.894,154.385L69.5873,154.948L69.2821,155.512L68.9786,156.077L68.6768,156.643L68.3766,157.209L68.0781,157.777L67.7813,158.346L67.4862,158.916L67.1927,159.487L66.9009,160.059L66.6107,160.631L66.3223,161.205L66.0356,161.78L65.7505,162.356L65.4671,162.933L65.1855,163.51L64.9055,164.089L64.6272,164.669L64.3507,165.25L64.0758,165.831L63.8027,166.414L63.5313,166.998L63.2616,167.582L62.9936,168.168L62.7274,168.754L62.4629,169.342L62.2001,169.93L61.9391,170.519L61.6798,171.11L61.4222,171.701L61.1664,172.293L60.9123,172.886L60.66,173.48L60.4095,174.075L60.1607,174.671L59.9136,175.268L59.6684,175.865L59.4249,176.464L59.1831,177.063L58.9432,177.664L58.705,178.265L58.4686,178.867L58.234,179.47L58.0012,180.074L57.7702,180.679L57.541,181.285L57.3136,181.891L57.0879,182.499L56.8641,183.107L56.6421,183.717L56.4219,184.327L56.2035,184.938L55.9869,185.549L55.7722,186.162L55.5593,186.776L55.3482,187.39L55.1389,188.005L54.9315,188.622L54.7259,189.238L54.5221,189.856L54.3202,190.475L54.1202,191.094L53.922,191.715L53.7256,192.336L53.5311,192.958L53.3385,193.58L53.1477,194.204L52.9588,194.828L52.7717,195.454L52.5866,196.08L52.4033,196.706L52.2219,197.334L52.0424,197.962L51.8647,198.592L51.689,199.222L51.5151,199.852L51.3431,200.484L51.1731,201.116L51.0049,201.749L50.8387,202.383L50.6743,203.018L50.5119,203.653L50.3514,204.29L50.1928,204.926L50.0361,205.564L49.8813,206.203L49.7285,206.842L49.5776,207.482L49.4287,208.123L49.2817,208.764L49.1366,209.406L48.9935,210.049L48.8523,210.693L48.713,211.337L48.5758,211.982L48.4404,212.628L48.3071,213.275L48.1757,213.922L48.0463,214.57L47.9188,215.219L47.7933,215.868L47.6698,216.518L47.5483,217.169L47.4288,217.82L47.3112,218.472L47.1956,219.125L47.0821,219.779L46.9705,220.433L46.8609,221.088L46.7534,221.744L46.6478,222.4L46.5443,223.057L46.4427,223.714L46.3432,224.373L46.2457,225.032L46.1502,225.691L46.0568,226.352L45.9653,227.012L45.8759,227.674L45.7886,228.336L45.7033,228.999L45.62,229.662L45.5388,230.327L45.4596,230.991L45.3825,231.657L45.3074,232.323L45.2344,232.989L45.1634,233.656L45.0945,234.324L45.0277,234.993L44.963,235.662L44.9003,236.331L44.8397,237.002L44.7812,237.673L44.7248,238.344L44.6704,239.016L44.6182,239.689L44.568,240.362L44.52,241.036L44.474,241.71L44.4302,242.385L44.3884,243.061L44.3488,243.737L44.3113,244.413L44.2759,245.091L44.2426,245.768L44.2114,246.447L44.1824,247.126L44.1555,247.805L44.1307,248.485L44.1081,249.165L44.0876,249.847L44.0692,250.528L44.053,251.21L44.039,251.893L44.0271,252.576L44.0173,253.26L44.0098,253.944L44.0043,254.629L44.0011,255.314L44,256L44.0011,256.686L44.0043,257.371L44.0098,258.056L44.0173,258.74L44.0271,259.424L44.039,260.107L44.053,260.79L44.0692,261.472L44.0876,262.153L44.1081,262.835L44.1307,263.515L44.1555,264.195L44.1824,264.874L44.2114,265.553L44.2426,266.232L44.2759,266.909L44.3113,267.587L44.3488,268.263L44.3884,268.939L44.4302,269.615L44.474,270.29L44.52,270.964L44.568,271.638L44.6182,272.311L44.6704,272.984L44.7248,273.656L44.7812,274.327L44.8397,274.998L44.9003,275.669L44.963,276.338L45.0277,277.007L45.0945,277.676L45.1634,278.344L45.2344,279.011L45.3074,279.677L45.3825,280.343L45.4596,281.009L45.5388,281.673L45.62,282.338L45.7033,283.001L45.7886,283.664L45.8759,284.326L45.9653,284.988L46.0568,285.648L46.1502,286.309L46.2457,286.968L46.3432,287.627L46.4427,288.286L46.5443,288.943L46.6478,289.6L46.7534,290.256L46.8609,290.912L46.9705,291.567L47.0821,292.221L47.1956,292.875L47.3112,293.528L47.4288,294.18L47.5483,294.831L47.6698,295.482L47.7933,296.132L47.9188,296.781L48.0463,297.43L48.1757,298.078L48.3071,298.725L48.4404,299.372L48.5758,300.018L48.713,300.663L48.8523,301.307L48.9935,301.951L49.1366,302.594L49.2817,303.236L49.4287,303.877L49.5776,304.518L49.7285,305.158L49.8813,305.797L50.0361,306.436L50.1928,307.074L50.3514,307.71L50.5119,308.347L50.6743,308.982L50.8387,309.617L51.0049,310.251L51.1731,310.884L51.3431,311.516L51.5151,312.148L51.689,312.778L51.8647,313.408L52.0424,314.038L52.2219,314.666L52.4033,315.294L52.5866,315.92L52.7717,316.546L52.9588,317.172L53.1477,317.796L53.3385,318.42L53.5311,319.042L53.7256,319.664L53.922,320.285L54.1202,320.906L54.3202,321.525L54.5221,322.144L54.7259,322.762L54.9315,323.378L55.1389,323.995L55.3482,324.61L55.5593,325.224L55.7722,325.838L55.9869,326.451L56.2035,327.062L56.4219,327.673L56.6421,328.283L56.8641,328.893L57.0879,329.501L57.3136,330.109L57.541,330.715L57.7702,331.321L58.0012,331.926L58.234,332.53L58.4686,333.133L58.705,333.735L58.9432,334.336L59.1831,334.937L59.4249,335.536L59.6684,336.135L59.9136,336.732L60.1607,337.329L60.4095,337.925L60.66,338.52L60.9123,339.114L61.1664,339.707L61.4222,340.299L61.6798,340.89L61.9391,341.481L62.2001,342.07L62.4629,342.658L62.7274,343.246L62.9936,343.832L63.2616,344.418L63.5313,345.002L63.8027,345.586L64.0758,346.169L64.3507,346.75L64.6272,347.331L64.9055,347.911L65.1855,348.49L65.4671,349.067L65.7505,349.644L66.0356,350.22L66.3223,350.795L66.6107,351.369L66.9009,351.941L67.1927,352.513L67.4862,353.084L67.7813,353.654L68.0781,354.223L68.3766,354.791L68.6768,355.357L68.9786,355.923L69.2821,356.488L69.5873,357.052L69.894,357.615L70.2025,358.176L70.5126,358.737L70.8243,359.296L71.1377,359.855L71.4527,360.413L71.7693,360.969L72.0876,361.524L72.4075,362.079L72.729,362.632L73.0521,363.184L73.3769,363.736L73.7032,364.286L74.0312,364.835L74.3608,365.383L74.692,365.93L75.0247,366.476L75.3591,367.02L75.6951,367.564L76.0326,368.107L76.3718,368.648L76.7125,369.188L77.0548,369.728L77.3987,370.266L77.7442,370.803L78.0912,371.339L78.4398,371.874L78.79,372.407L79.1417,372.94L79.495,373.472L79.8499,374.002L80.2063,374.531L80.5642,375.059L80.9237,375.586L81.2847,376.112L81.6473,376.637L82.0114,377.16L82.377,377.683L82.7442,378.204L83.1129,378.724L83.4831,379.243L83.8548,379.761L84.2281,380.277L84.6028,380.793L84.9791,381.307L85.3568,381.82L85.7361,382.332L86.1169,382.843L86.4992,383.353L86.8829,383.861L87.2682,384.368L87.6549,384.874L88.0431,385.379L88.4328,385.882L88.824,386.385L89.2167,386.886L89.6108,387.386L90.0064,387.885L90.4034,388.382L90.8019,388.879L91.2019,389.374L91.6033,389.868L92.0062,390.36L92.4105,390.852L92.8163,391.342L93.2235,391.831L93.6321,392.318L94.0422,392.805L94.4537,393.29L94.8666,393.774L95.281,394.257L95.6968,394.738L96.1139,395.218L96.5326,395.697L96.9526,396.175L97.374,396.651L97.7969,397.126L98.2211,397.6L98.6467,398.073L99.0738,398.544L99.5022,399.014L99.932,399.483L100.363,399.95L100.796,400.416L101.23,400.881L101.665,401.344L102.102,401.807L102.54,402.267L102.979,402.727L103.42,403.185L103.862,403.642L104.306,404.098L104.751,404.552L105.197,405.005L105.644,405.456L106.093,405.907L106.544,406.356L106.995,406.803L107.448,407.249L107.902,407.694L108.358,408.138L108.815,408.58L109.273,409.021L109.733,409.46L110.193,409.898L110.656,410.335L111.119,410.77L111.584,411.204L112.05,411.637L112.517,412.068L112.986,412.498L113.456,412.926L113.927,413.353L114.4,413.779L114.874,414.203L115.349,414.626L115.825,415.047L116.303,415.467L116.782,415.886L117.262,416.303L117.743,416.719L118.226,417.133L118.71,417.546L119.195,417.958L119.682,418.368L120.169,418.777L120.658,419.184L121.148,419.59L121.64,419.994L122.132,420.397L122.626,420.798L123.121,421.198L123.618,421.597L124.115,421.994L124.614,422.389L125.114,422.783L125.615,423.176L126.118,423.567L126.621,423.957L127.126,424.345L127.632,424.732L128.139,425.117L128.647,425.501L129.157,425.883L129.668,426.264L130.18,426.643L130.693,427.021L131.207,427.397L131.723,427.772L132.239,428.145L132.757,428.517L133.276,428.887L133.796,429.256L134.317,429.623L134.84,429.989L135.363,430.353L135.888,430.715L136.414,431.076L136.941,431.436L137.469,431.794L137.998,432.15L138.528,432.505L139.06,432.858L139.593,433.21L140.126,433.56L140.661,433.909L141.197,434.256L141.734,434.601L142.272,434.945L142.812,435.287L143.352,435.628L143.893,435.967L144.436,436.305L144.98,436.641L145.524,436.975L146.07,437.308L146.617,437.639L147.165,437.969L147.714,438.297L148.264,438.623L148.816,438.948L149.368,439.271L149.921,439.593L150.476,439.912L151.031,440.231L151.587,440.547L152.145,440.862L152.704,441.176L153.263,441.487L153.824,441.798L154.385,442.106L154.948,442.413L155.512,442.718L156.077,443.021L156.643,443.323L157.209,443.623L157.777,443.922L158.346,444.219L158.916,444.514L159.487,444.807L160.059,445.099L160.631,445.389L161.205,445.678L161.78,445.964L162.356,446.249L162.933,446.533L163.51,446.815L164.089,447.094L164.669,447.373L165.25,447.649L165.831,447.924L166.414,448.197L166.998,448.469L167.582,448.738L168.168,449.006L168.754,449.273L169.342,449.537L169.93,449.8L170.519,450.061L171.11,450.32L171.701,450.578L172.293,450.834L172.886,451.088L173.48,451.34L174.075,451.591L174.671,451.839L175.268,452.086L175.865,452.332L176.464,452.575L177.063,452.817L177.664,453.057L178.265,453.295L178.867,453.531L179.47,453.766L180.074,453.999L180.679,454.23L181.285,454.459L181.891,454.686L182.499,454.912L183.107,455.136L183.717,455.358L184.327,455.578L184.938,455.796L185.549,456.013L186.162,456.228L186.776,456.441L187.39,456.652L188.005,456.861L188.622,457.069L189.238,457.274L189.856,457.478L190.475,457.68L191.094,457.88L191.715,458.078L192.336,458.274L192.958,458.469L193.58,458.662L194.204,458.852L194.828,459.041L195.454,459.228L196.08,459.413L196.706,459.597L197.334,459.778L197.962,459.958L198.592,460.135L199.222,460.311L199.852,460.485L200.484,460.657L201.116,460.827L201.749,460.995L202.383,461.161L203.018,461.326L203.653,461.488L204.29,461.649L204.926,461.807L205.564,461.964L206.203,462.119L206.842,462.271L207.482,462.422L208.123,462.571L208.764,462.718L209.406,462.863L210.049,463.007L210.693,463.148L211.337,463.287L211.982,463.424L212.628,463.56L213.275,463.693L213.922,463.824L214.57,463.954L215.219,464.081L215.868,464.207L216.518,464.33L217.169,464.452L217.82,464.571L218.472,464.689L219.125,464.804L219.779,464.918L220.433,465.029L221.088,465.139L221.744,465.247L222.4,465.352L223.057,465.456L223.714,465.557L224.373,465.657L225.032,465.754L225.691,465.85L226.352,465.943L227.012,466.035L227.674,466.124L228.336,466.211L228.999,466.297L229.662,466.38L230.327,466.461L230.991,466.54L231.657,466.618L232.323,466.693L232.989,466.766L233.656,466.837L234.324,466.905L234.993,466.972L235.662,467.037L236.331,467.1L237.002,467.16L237.673,467.219L238.344,467.275L239.016,467.33L239.689,467.382L240.362,467.432L241.036,467.48L241.71,467.526L242.385,467.57L243.061,467.612L243.737,467.651L244.413,467.689L245.091,467.724L245.768,467.757L246.447,467.789L247.126,467.818L247.805,467.845L248.485,467.869L249.165,467.892L249.847,467.912L250.528,467.931L251.21,467.947L251.893,467.961L252.576,467.973L253.26,467.983L253.944,467.99L254.629,467.996L255.314,467.999L256,468Z" style="fill:black;"/>
            </g>
        </g>
    </g>
</svg>
