<?xml version="1.0" standalone="no"?>
<!DOCTYPE svg PUBLIC "-//W3C//DTD SVG 1.1//EN" "http://www.w3.org/Graphics/SVG/1.1/DTD/svg11.dtd">
<svg width="512px" height="512px" version="1.1" xmlns="http://www.w3.org/2000/svg" xmlns:xlink="http://www.w3.org/1999/xlink" xml:space="preserve" style="fill-rule:evenodd;clip-rule:evenodd;stroke-linejoin:round;stroke-miterlimit:1.41421;">
    <g>
        <g id="Layer1">
            <g>
                <path d="M416,241.818L270.182,241.818L270.182,96L241.818,96L241.818,241.818L96,241.818L96,270.182L241.818,270.182L241.818,416L270.182,416L270.182,270.182L416,270.182L416,241.818Z" style="fill:black;stroke-width:41.67px;stroke:black;"/>
            </g>
            <g>
                <path d="M256,511L255.177,510.999L254.354,510.995L253.532,510.988L252.711,510.979L251.89,510.968L251.069,510.953L250.249,510.936L249.431,510.917L248.612,510.895L247.794,510.87L246.976,510.843L246.16,510.813L245.343,510.781L244.528,510.746L243.713,510.709L242.898,510.669L242.085,510.626L241.272,510.581L240.459,510.533L239.648,510.483L238.836,510.431L238.026,510.375L237.216,510.318L236.407,510.257L235.599,510.195L234.791,510.129L233.983,510.061L233.177,509.991L232.371,509.918L231.566,509.843L230.762,509.765L229.958,509.685L229.155,509.602L228.353,509.516L227.551,509.429L226.75,509.338L225.95,509.246L225.151,509.15L224.351,509.053L223.554,508.953L222.757,508.85L221.96,508.745L221.164,508.637L220.37,508.527L219.575,508.415L218.782,508.3L217.989,508.183L217.197,508.063L216.406,507.941L215.616,507.816L214.826,507.689L214.037,507.56L213.249,507.428L212.462,507.294L211.676,507.157L210.89,507.018L210.105,506.877L209.321,506.733L208.538,506.587L207.756,506.438L206.974,506.287L206.193,506.134L205.414,505.978L204.635,505.82L203.857,505.659L203.08,505.496L202.303,505.331L201.528,505.164L200.753,504.994L199.979,504.821L199.206,504.647L198.434,504.47L197.663,504.291L196.893,504.109L196.124,503.925L195.355,503.739L194.587,503.55L193.821,503.359L193.055,503.166L192.29,502.97L191.526,502.773L190.763,502.573L190.001,502.37L189.24,502.165L188.48,501.958L187.72,501.749L186.962,501.538L186.205,501.324L185.448,501.108L184.693,500.889L183.938,500.669L183.185,500.446L182.432,500.221L181.68,499.993L180.93,499.764L180.18,499.532L179.431,499.297L178.684,499.061L177.937,498.822L177.191,498.582L176.447,498.339L175.703,498.093L174.96,497.846L174.219,497.596L173.478,497.344L172.738,497.09L172,496.834L171.263,496.575L170.526,496.315L169.79,496.052L169.056,495.787L168.323,495.52L167.59,495.25L166.859,494.979L166.129,494.705L165.4,494.429L164.671,494.151L163.945,493.87L163.219,493.588L162.494,493.304L161.77,493.017L161.047,492.728L160.326,492.437L159.605,492.144L158.886,491.849L158.168,491.552L157.451,491.252L156.735,490.951L156.02,490.647L155.306,490.341L154.593,490.033L153.882,489.723L153.172,489.411L152.462,489.097L151.754,488.781L151.047,488.463L150.341,488.142L149.637,487.82L148.934,487.495L148.231,487.168L147.53,486.84L146.83,486.509L146.131,486.176L145.433,485.841L144.737,485.505L144.042,485.165L143.348,484.825L142.655,484.482L141.963,484.136L141.272,483.789L140.583,483.44L139.895,483.089L139.208,482.736L138.522,482.381L137.838,482.024L137.155,481.665L136.473,481.303L135.792,480.94L135.113,480.575L134.435,480.208L133.758,479.839L133.082,479.468L132.407,479.095L131.734,478.72L131.062,478.343L130.391,477.964L129.722,477.583L129.054,477.2L128.387,476.815L127.721,476.429L127.057,476.04L126.394,475.649L125.732,475.257L125.072,474.862L124.412,474.466L123.755,474.067L123.098,473.667L122.443,473.265L121.789,472.861L121.136,472.455L120.485,472.047L119.836,471.637L119.187,471.225L118.539,470.812L117.894,470.396L117.249,469.979L116.605,469.559L115.963,469.138L115.323,468.716L114.684,468.291L114.046,467.864L113.409,467.435L112.775,467.005L112.141,466.573L111.508,466.138L110.878,465.702L110.248,465.264L109.62,464.825L108.993,464.383L108.367,463.94L107.743,463.495L107.121,463.048L106.499,462.599L105.88,462.148L105.261,461.696L104.644,461.242L104.029,460.786L103.415,460.328L102.802,459.868L102.191,459.407L101.581,458.944L100.973,458.479L100.366,458.012L99.76,457.543L99.156,457.073L98.5536,456.601L97.9526,456.127L97.353,455.651L96.7547,455.174L96.158,454.695L95.563,454.214L94.9689,453.731L94.3766,453.247L93.7861,452.761L93.1966,452.273L92.6086,451.783L92.0223,451.292L91.4378,450.799L90.8544,450.305L90.2727,449.808L89.6925,449.31L89.1134,448.81L88.5363,448.309L87.9608,447.806L87.3863,447.3L86.8136,446.794L86.2424,446.285L85.6731,445.776L85.1051,445.264L84.5383,444.75L83.9733,444.235L83.41,443.719L82.8484,443.201L82.2879,442.68L81.7291,442.159L81.1721,441.636L80.6164,441.11L80.0626,440.584L79.5101,440.056L78.9591,439.526L78.4101,438.994L77.8625,438.461L77.3162,437.926L76.7718,437.39L76.2291,436.852L75.6879,436.312L75.1483,435.771L74.61,435.228L74.0734,434.683L73.5388,434.138L73.0057,433.59L72.4742,433.041L71.9445,432.49L71.4162,431.938L70.8894,431.383L70.3644,430.828L69.8413,430.271L69.3196,429.712L68.7994,429.152L68.2813,428.59L67.7646,428.027L67.2495,427.462L66.736,426.895L66.2244,426.327L65.7144,425.757L65.2061,425.186L64.6995,424.614L64.1944,424.039L63.6912,423.464L63.1899,422.887L62.6899,422.308L62.1919,421.728L61.6955,421.146L61.2005,420.562L60.7077,419.978L60.2166,419.391L59.7268,418.803L59.239,418.214L58.7529,417.623L58.2686,417.031L57.7861,416.437L57.3052,415.842L56.8261,415.245L56.3487,414.647L55.8731,414.048L55.3993,413.446L54.9271,412.844L54.4568,412.24L53.9881,411.634L53.5214,411.027L53.0566,410.419L52.5933,409.809L52.1318,409.198L51.6723,408.585L51.2144,407.971L50.7583,407.356L50.3041,406.738L49.8517,406.12L49.4011,405.5L48.9523,404.879L48.5054,404.257L48.0601,403.633L47.6166,403.007L47.1753,402.38L46.7356,401.752L46.2976,401.122L45.8618,400.492L45.4276,399.859L44.9952,399.225L44.5646,398.59L44.1363,397.954L43.7096,397.316L43.2845,396.677L42.8614,396.036L42.4404,395.394L42.0213,394.751L41.6038,394.107L41.1882,393.46L40.7747,392.813L40.363,392.165L39.9532,391.515L39.5451,390.863L39.1392,390.211L38.7351,389.557L38.333,388.902L37.9326,388.245L37.5342,387.587L37.1379,386.928L36.7434,386.268L36.3508,385.606L35.9601,384.943L35.5713,384.279L35.1846,383.613L34.7998,382.946L34.4169,382.278L34.0361,381.609L33.657,380.938L33.2801,380.266L32.9052,379.593L32.532,378.918L32.1609,378.242L31.7918,377.565L31.4247,376.887L31.0595,376.207L30.6965,375.527L30.3354,374.845L29.9762,374.162L29.6191,373.477L29.2639,372.792L28.9108,372.105L28.5597,371.417L28.2106,370.728L27.8635,370.037L27.5185,369.345L27.1755,368.653L26.8344,367.958L26.4956,367.263L26.1587,366.567L25.8238,365.869L25.491,365.17L25.1603,364.47L24.8316,363.769L24.5049,363.067L24.1805,362.363L23.858,361.659L23.5375,360.953L23.2192,360.246L22.9029,359.538L22.5887,358.828L22.2767,358.118L21.9667,357.406L21.6588,356.694L21.3531,355.98L21.0494,355.265L20.7479,354.549L20.4484,353.832L20.1511,353.114L19.8559,352.395L19.5628,351.674L19.2718,350.952L18.983,350.23L18.6964,349.506L18.4119,348.781L18.1295,348.055L17.8492,347.328L17.5712,346.6L17.2952,345.871L17.0215,345.141L16.7499,344.41L16.4805,343.677L16.2132,342.944L15.9481,342.21L15.6853,341.474L15.4246,340.738L15.1661,340L14.9098,339.262L14.6557,338.522L14.4037,337.781L14.1541,337.04L13.9066,336.297L13.6613,335.553L13.4183,334.809L13.1775,334.063L12.9389,333.316L12.7025,332.569L12.4683,331.82L12.2365,331.07L12.0068,330.32L11.7794,329.568L11.5543,328.815L11.3314,328.062L11.1108,327.307L10.8924,326.552L10.6762,325.795L10.4624,325.038L10.2509,324.28L10.0416,323.52L9.83457,322.76L9.62987,321.999L9.42746,321.237L9.22733,320.474L9.0295,319.71L8.83399,318.945L8.64079,318.179L8.44986,317.413L8.26128,316.645L8.07501,315.876L7.89108,315.107L7.70946,314.337L7.53016,313.566L7.35324,312.794L7.17861,312.021L7.00634,311.247L6.83642,310.472L6.66884,309.697L6.50364,308.92L6.34078,308.143L6.18026,307.365L6.02216,306.586L5.86641,305.806L5.71301,305.025L5.56202,304.244L5.41339,303.462L5.26714,302.679L5.1233,301.895L4.98187,301.11L4.8428,300.324L4.70615,299.538L4.57192,298.751L4.44007,297.963L4.31064,297.174L4.18365,296.384L4.05907,295.594L3.93691,294.803L3.81718,294.011L3.69989,293.218L3.58503,292.425L3.4726,291.63L3.36263,290.836L3.25512,290.04L3.15004,289.243L3.04742,288.446L2.94726,287.648L2.84957,286.849L2.75434,286.05L2.6616,285.25L2.57131,284.449L2.48351,283.647L2.3982,282.845L2.31536,282.042L2.23502,281.238L2.15718,280.434L2.08183,279.629L2.00898,278.823L1.93864,278.017L1.8708,277.209L1.80548,276.402L1.74268,275.593L1.6824,274.784L1.62464,273.974L1.56941,273.164L1.51671,272.352L1.46655,271.541L1.41892,270.728L1.37383,269.915L1.3313,269.101L1.29131,268.287L1.25388,267.472L1.219,266.657L1.18669,265.84L1.15694,265.024L1.12975,264.206L1.10514,263.388L1.08311,262.57L1.06365,261.75L1.04678,260.931L1.03249,260.11L1.02079,259.289L1.01169,258.468L1.00518,257.646L1.00127,256.823L0.999969,256L1.00127,255.177L1.00518,254.354L1.01169,253.532L1.02079,252.711L1.03249,251.89L1.04678,251.069L1.06365,250.25L1.08311,249.43L1.10514,248.612L1.12975,247.794L1.15694,246.976L1.18669,246.16L1.219,245.343L1.25388,244.528L1.29131,243.713L1.3313,242.899L1.37384,242.085L1.41892,241.272L1.46655,240.459L1.51671,239.648L1.56941,238.836L1.62464,238.026L1.6824,237.216L1.74268,236.407L1.80549,235.598L1.87081,234.791L1.93864,233.983L2.00898,233.177L2.08183,232.371L2.15718,231.566L2.23503,230.762L2.31536,229.958L2.39819,229.155L2.48351,228.353L2.57131,227.551L2.6616,226.75L2.75435,225.95L2.84957,225.151L2.94726,224.352L3.04742,223.554L3.15004,222.757L3.25511,221.96L3.36264,221.164L3.47261,220.369L3.58503,219.575L3.69988,218.782L3.81718,217.989L3.93691,217.197L4.05906,216.406L4.18365,215.616L4.31066,214.826L4.44007,214.037L4.57191,213.249L4.70616,212.462L4.8428,211.676L4.98186,210.89L5.12331,210.105L5.26715,209.321L5.41339,208.538L5.56202,207.756L5.71301,206.975L5.8664,206.194L6.02216,205.414L6.18028,204.635L6.34078,203.857L6.50364,203.08L6.66884,202.303L6.83642,201.528L7.00634,200.753L7.17862,199.979L7.35323,199.206L7.53016,198.434L7.70946,197.663L7.89108,196.893L8.07502,196.123L8.26127,195.355L8.44988,194.587L8.64077,193.821L8.83397,193.055L9.02951,192.29L9.22733,191.526L9.42746,190.763L9.62987,190.001L9.83458,189.24L10.0416,188.48L10.2508,187.72L10.4624,186.962L10.6763,186.205L10.8924,185.448L11.1107,184.693L11.3314,183.938L11.5543,183.185L11.7794,182.432L12.0068,181.68L12.2365,180.93L12.4683,180.18L12.7025,179.431L12.9389,178.684L13.1774,177.937L13.4183,177.191L13.6613,176.447L13.9066,175.703L14.1541,174.96L14.4038,174.219L14.6557,173.478L14.9098,172.738L15.1661,172L15.4246,171.262L15.6853,170.526L15.9482,169.79L16.2133,169.056L16.4805,168.323L16.7499,167.59L17.0215,166.859L17.2952,166.129L17.5711,165.4L17.8492,164.672L18.1295,163.945L18.4118,163.219L18.6964,162.494L18.983,161.77L19.2718,161.048L19.5628,160.326L19.8559,159.606L20.1511,158.886L20.4484,158.168L20.7478,157.451L21.0494,156.735L21.3531,156.02L21.6588,155.306L21.9668,154.593L22.2767,153.882L22.5888,153.172L22.903,152.462L23.2192,151.754L23.5375,151.047L23.8579,150.341L24.1804,149.637L24.5049,148.933L24.8316,148.231L25.1603,147.53L25.491,146.83L25.8238,146.131L26.1587,145.433L26.4956,144.737L26.8345,144.042L27.1755,143.348L27.5184,142.655L27.8635,141.963L28.2106,141.272L28.5597,140.583L28.9108,139.895L29.2639,139.208L29.6191,138.523L29.9762,137.838L30.3353,137.155L30.6965,136.473L31.0596,135.792L31.4248,135.113L31.7918,134.435L32.1609,133.758L32.532,133.082L32.9051,132.407L33.2801,131.734L33.6571,131.062L34.0361,130.391L34.4169,129.722L34.7998,129.054L35.1847,128.387L35.5714,127.721L35.96,127.057L36.3507,126.394L36.7434,125.732L37.1379,125.072L37.5342,124.413L37.9326,123.755L38.333,123.098L38.7351,122.443L39.1392,121.789L39.5453,121.136L39.9531,120.485L40.3629,119.835L40.7747,119.187L41.1883,118.539L41.6038,117.893L42.0212,117.249L42.4404,116.606L42.8616,115.964L43.2846,115.323L43.7094,114.684L44.1362,114.046L44.5648,113.41L44.9952,112.775L45.4275,112.141L45.8617,111.509L46.2977,110.877L46.7356,110.248L47.1752,109.62L47.6167,108.993L48.0601,108.367L48.5053,107.743L48.9523,107.121L49.4011,106.5L49.8517,105.88L50.3042,105.261L50.7584,104.644L51.2144,104.029L51.6722,103.415L52.1319,102.802L52.5933,102.191L53.0565,101.581L53.5215,100.973L53.9883,100.366L54.4568,99.7602L54.9271,99.1563L55.3992,98.5537L55.8731,97.9525L56.3487,97.3528L56.8261,96.7547L57.3052,96.158L57.786,95.5628L58.2686,94.9691L58.753,94.3767L59.239,93.7859L59.7268,93.1966L60.2165,92.6088L60.7077,92.0225L61.2006,91.4377L61.6954,90.8544L62.1919,90.2725L62.6899,89.6923L63.1898,89.1135L63.6914,88.5362L64.1945,87.9606L64.6994,87.3864L65.2062,86.8136L65.7145,86.2425L66.2244,85.673L66.7361,85.1049L67.2494,84.5384L67.7645,83.9734L68.2812,83.41L68.7995,82.8482L69.3195,82.2879L69.8412,81.7292L70.3645,81.172L70.8895,80.6165L71.416,80.0626L71.9443,79.5101L72.4743,78.9592L73.0057,78.41L73.5389,77.8624L74.0737,77.3163L74.61,76.7719L75.1481,76.229L75.6878,75.6878L76.229,75.1481L76.7719,74.61L77.3163,74.0737L77.8624,73.5389L78.41,73.0057L78.9592,72.4743L79.5101,71.9443L80.0626,71.416L80.6165,70.8895L81.172,70.3645L81.7292,69.8412L82.2879,69.3195L82.8482,68.7995L83.41,68.2812L83.9734,67.7645L84.5384,67.2494L85.1049,66.7361L85.673,66.2244L86.2425,65.7145L86.8136,65.2062L87.3864,64.6994L87.9606,64.1945L88.5362,63.6914L89.1135,63.1898L89.6923,62.6899L90.2725,62.1919L90.8544,61.6954L91.4377,61.2006L92.0225,60.7077L92.6088,60.2165L93.1966,59.7268L93.7859,59.239L94.3767,58.753L94.9691,58.2686L95.5628,57.786L96.158,57.3052L96.7547,56.8261L97.3528,56.3487L97.9525,55.8731L98.5537,55.3992L99.1563,54.9271L99.7602,54.4568L100.366,53.9883L100.973,53.5215L101.581,53.0565L102.191,52.5933L102.802,52.1319L103.415,51.6722L104.029,51.2144L104.644,50.7584L105.261,50.3042L105.88,49.8517L106.5,49.4011L107.121,48.9523L107.743,48.5053L108.367,48.0601L108.993,47.6167L109.62,47.1752L110.248,46.7356L110.877,46.2977L111.509,45.8617L112.141,45.4275L112.775,44.9952L113.41,44.5648L114.046,44.1362L114.684,43.7094L115.323,43.2846L115.964,42.8616L116.606,42.4404L117.249,42.0212L117.893,41.6038L118.539,41.1883L119.187,40.7747L119.835,40.3629L120.485,39.9531L121.136,39.5453L121.789,39.1392L122.443,38.7351L123.098,38.333L123.755,37.9326L124.413,37.5342L125.072,37.1379L125.732,36.7434L126.394,36.3507L127.057,35.96L127.721,35.5714L128.387,35.1847L129.054,34.7998L129.722,34.4169L130.391,34.0361L131.062,33.6571L131.734,33.2801L132.407,32.9051L133.082,32.532L133.758,32.1609L134.435,31.7918L135.113,31.4248L135.792,31.0596L136.473,30.6965L137.155,30.3353L137.838,29.9762L138.523,29.6191L139.208,29.2639L139.895,28.9108L140.583,28.5597L141.272,28.2106L141.963,27.8635L142.655,27.5184L143.348,27.1755L144.042,26.8345L144.737,26.4956L145.433,26.1587L146.131,25.8238L146.83,25.491L147.53,25.1603L148.231,24.8316L148.933,24.5049L149.637,24.1804L150.341,23.8579L151.047,23.5375L151.754,23.2192L152.462,22.903L153.172,22.5888L153.882,22.2767L154.593,21.9668L155.306,21.6588L156.02,21.3531L156.735,21.0494L157.451,20.7478L158.168,20.4484L158.886,20.1511L159.606,19.8559L160.326,19.5628L161.048,19.2718L161.77,18.983L162.494,18.6964L163.219,18.4118L163.945,18.1295L164.672,17.8492L165.4,17.5711L166.129,17.2952L166.859,17.0215L167.59,16.7499L168.323,16.4805L169.056,16.2133L169.79,15.9482L170.526,15.6853L171.262,15.4246L172,15.1661L172.738,14.9098L173.478,14.6557L174.219,14.4038L174.96,14.1541L175.703,13.9066L176.447,13.6613L177.191,13.4183L177.937,13.1774L178.684,12.9389L179.431,12.7025L180.18,12.4683L180.93,12.2365L181.68,12.0068L182.432,11.7794L183.185,11.5543L183.938,11.3314L184.693,11.1107L185.448,10.8924L186.205,10.6763L186.962,10.4624L187.72,10.2508L188.48,10.0416L189.24,9.83458L190.001,9.62987L190.763,9.42746L191.526,9.22733L192.29,9.02951L193.055,8.83397L193.821,8.64077L194.587,8.44988L195.355,8.26127L196.123,8.07502L196.893,7.89108L197.663,7.70946L198.434,7.53016L199.206,7.35323L199.979,7.17862L200.753,7.00634L201.528,6.83642L202.303,6.66884L203.08,6.50364L203.857,6.34078L204.635,6.18028L205.414,6.02216L206.194,5.8664L206.975,5.71301L207.756,5.56202L208.538,5.41339L209.321,5.26715L210.105,5.12331L210.89,4.98186L211.676,4.8428L212.462,4.70616L213.249,4.57191L214.037,4.44007L214.826,4.31066L215.616,4.18365L216.406,4.05906L217.197,3.93691L217.989,3.81718L218.782,3.69988L219.575,3.58503L220.369,3.47261L221.164,3.36264L221.96,3.25511L222.757,3.15004L223.554,3.04742L224.352,2.94726L225.151,2.84957L225.95,2.75435L226.75,2.6616L227.551,2.57131L228.353,2.48351L229.155,2.39819L229.958,2.31536L230.762,2.23503L231.566,2.15718L232.371,2.08183L233.177,2.00898L233.983,1.93864L234.791,1.87081L235.598,1.80549L236.407,1.74268L237.216,1.6824L238.026,1.62464L238.836,1.56941L239.648,1.51671L240.459,1.46655L241.272,1.41892L242.085,1.37384L242.899,1.3313L243.713,1.29131L244.528,1.25388L245.343,1.219L246.16,1.18669L246.976,1.15694L247.794,1.12975L248.612,1.10514L249.43,1.08311L250.25,1.06365L251.069,1.04678L251.89,1.03249L252.711,1.02079L253.532,1.01169L254.354,1.00518L255.177,1.00127L256,0.999969L256.823,1.00127L257.646,1.00518L258.468,1.01169L259.289,1.02079L260.11,1.03249L260.931,1.04678L261.75,1.06365L262.57,1.08311L263.388,1.10514L264.206,1.12975L265.024,1.15694L265.84,1.18669L266.657,1.219L267.472,1.25388L268.287,1.29131L269.101,1.3313L269.915,1.37383L270.728,1.41892L271.541,1.46655L272.352,1.51671L273.164,1.56941L273.974,1.62464L274.784,1.6824L275.593,1.74268L276.402,1.80548L277.209,1.8708L278.017,1.93864L278.823,2.00898L279.629,2.08183L280.434,2.15718L281.238,2.23502L282.042,2.31536L282.845,2.3982L283.647,2.48351L284.449,2.57131L285.25,2.6616L286.05,2.75434L286.849,2.84957L287.648,2.94726L288.446,3.04742L289.243,3.15004L290.04,3.25512L290.836,3.36263L291.63,3.4726L292.425,3.58503L293.218,3.69989L294.011,3.81718L294.803,3.93691L295.594,4.05907L296.384,4.18365L297.174,4.31064L297.963,4.44007L298.751,4.57192L299.538,4.70615L300.324,4.8428L301.11,4.98187L301.895,5.1233L302.679,5.26714L303.462,5.41339L304.244,5.56202L305.025,5.71301L305.806,5.86641L306.586,6.02216L307.365,6.18026L308.143,6.34078L308.92,6.50364L309.697,6.66884L310.472,6.83642L311.247,7.00634L312.021,7.17861L312.794,7.35324L313.566,7.53016L314.337,7.70946L315.107,7.89108L315.876,8.07501L316.645,8.26128L317.413,8.44986L318.179,8.64079L318.945,8.83399L319.71,9.0295L320.474,9.22733L321.237,9.42746L321.999,9.62987L322.76,9.83457L323.52,10.0416L324.28,10.2509L325.038,10.4624L325.795,10.6762L326.552,10.8924L327.307,11.1108L328.062,11.3314L328.815,11.5543L329.568,11.7794L330.32,12.0068L331.07,12.2365L331.82,12.4683L332.569,12.7025L333.316,12.9389L334.063,13.1775L334.809,13.4183L335.553,13.6613L336.297,13.9066L337.04,14.1541L337.781,14.4037L338.522,14.6557L339.262,14.9098L340,15.1661L340.738,15.4246L341.474,15.6853L342.21,15.9481L342.944,16.2132L343.677,16.4805L344.41,16.7499L345.141,17.0215L345.871,17.2952L346.6,17.5712L347.328,17.8492L348.055,18.1295L348.781,18.4119L349.506,18.6964L350.23,18.983L350.952,19.2718L351.674,19.5628L352.395,19.8559L353.114,20.1511L353.832,20.4484L354.549,20.7479L355.265,21.0494L355.98,21.3531L356.694,21.6588L357.406,21.9667L358.118,22.2767L358.828,22.5887L359.538,22.9029L360.246,23.2192L360.953,23.5375L361.659,23.858L362.363,24.1805L363.067,24.5049L363.769,24.8316L364.47,25.1603L365.17,25.491L365.869,25.8238L366.567,26.1587L367.263,26.4956L367.958,26.8344L368.653,27.1755L369.345,27.5185L370.037,27.8635L370.728,28.2106L371.417,28.5597L372.105,28.9108L372.792,29.2639L373.477,29.6191L374.162,29.9762L374.845,30.3354L375.527,30.6965L376.207,31.0595L376.887,31.4247L377.565,31.7918L378.242,32.1609L378.918,32.532L379.593,32.9052L380.266,33.2801L380.938,33.657L381.609,34.0361L382.278,34.4169L382.946,34.7998L383.613,35.1846L384.279,35.5713L384.943,35.9601L385.606,36.3508L386.268,36.7434L386.928,37.1379L387.587,37.5342L388.245,37.9326L388.902,38.333L389.557,38.7351L390.211,39.1392L390.863,39.5451L391.515,39.9532L392.165,40.363L392.813,40.7747L393.46,41.1882L394.107,41.6038L394.751,42.0213L395.394,42.4404L396.036,42.8614L396.677,43.2845L397.316,43.7096L397.954,44.1363L398.59,44.5646L399.225,44.9952L399.859,45.4276L400.492,45.8618L401.122,46.2976L401.752,46.7356L402.38,47.1753L403.007,47.6166L403.633,48.0601L404.257,48.5054L404.879,48.9523L405.5,49.4011L406.12,49.8517L406.738,50.3041L407.356,50.7583L407.971,51.2144L408.585,51.6723L409.198,52.1318L409.809,52.5933L410.419,53.0566L411.027,53.5214L411.634,53.9881L412.24,54.4568L412.844,54.9271L413.446,55.3993L414.048,55.8731L414.647,56.3487L415.245,56.8261L415.842,57.3052L416.437,57.7861L417.031,58.2686L417.623,58.7529L418.214,59.239L418.803,59.7268L419.391,60.2166L419.978,60.7077L420.562,61.2005L421.146,61.6955L421.728,62.1919L422.308,62.6899L422.887,63.1899L423.464,63.6912L424.039,64.1944L424.614,64.6995L425.186,65.2061L425.757,65.7144L426.327,66.2244L426.895,66.736L427.462,67.2495L428.027,67.7646L428.59,68.2813L429.152,68.7994L429.712,69.3196L430.271,69.8413L430.828,70.3644L431.383,70.8894L431.938,71.4162L432.49,71.9445L433.041,72.4742L433.59,73.0057L434.138,73.5388L434.683,74.0734L435.228,74.61L435.771,75.1483L436.312,75.6879L436.852,76.2291L437.39,76.7718L437.926,77.3162L438.461,77.8625L438.994,78.4101L439.526,78.9591L440.056,79.5101L440.584,80.0626L441.11,80.6164L441.636,81.1721L442.159,81.7291L442.68,82.2879L443.201,82.8484L443.719,83.41L444.235,83.9733L444.75,84.5383L445.264,85.1051L445.776,85.6731L446.285,86.2424L446.794,86.8136L447.3,87.3863L447.806,87.9608L448.309,88.5363L448.81,89.1134L449.31,89.6925L449.808,90.2727L450.305,90.8544L450.799,91.4378L451.292,92.0223L451.783,92.6086L452.273,93.1966L452.761,93.7861L453.247,94.3766L453.731,94.9689L454.214,95.563L454.695,96.158L455.174,96.7547L455.651,97.353L456.127,97.9526L456.601,98.5536L457.073,99.156L457.543,99.76L458.012,100.366L458.479,100.973L458.944,101.581L459.407,102.191L459.868,102.802L460.328,103.415L460.786,104.029L461.242,104.644L461.696,105.261L462.148,105.88L462.599,106.499L463.048,107.121L463.495,107.743L463.94,108.367L464.383,108.993L464.825,109.62L465.264,110.248L465.702,110.878L466.138,111.508L466.573,112.141L467.005,112.775L467.435,113.409L467.864,114.046L468.291,114.684L468.716,115.323L469.138,115.963L469.559,116.605L469.979,117.249L470.396,117.894L470.812,118.539L471.225,119.187L471.637,119.836L472.047,120.485L472.455,121.136L472.861,121.789L473.265,122.443L473.667,123.098L474.067,123.755L474.466,124.412L474.862,125.072L475.257,125.732L475.649,126.394L476.04,127.057L476.429,127.721L476.815,128.387L477.2,129.054L477.583,129.722L477.964,130.391L478.343,131.062L478.72,131.734L479.095,132.407L479.468,133.082L479.839,133.758L480.208,134.435L480.575,135.113L480.94,135.792L481.303,136.473L481.665,137.155L482.024,137.838L482.381,138.522L482.736,139.208L483.089,139.895L483.44,140.583L483.789,141.272L484.136,141.963L484.482,142.655L484.825,143.348L485.165,144.042L485.505,144.737L485.841,145.433L486.176,146.131L486.509,146.83L486.84,147.53L487.168,148.231L487.495,148.934L487.82,149.637L488.142,150.341L488.463,151.047L488.781,151.754L489.097,152.462L489.411,153.172L489.723,153.882L490.033,154.593L490.341,155.306L490.647,156.02L490.951,156.735L491.252,157.451L491.552,158.168L491.849,158.886L492.144,159.605L492.437,160.326L492.728,161.047L493.017,161.77L493.304,162.494L493.588,163.219L493.87,163.945L494.151,164.671L494.429,165.4L494.705,166.129L494.979,166.859L495.25,167.59L495.52,168.323L495.787,169.056L496.052,169.79L496.315,170.526L496.575,171.263L496.834,172L497.09,172.738L497.344,173.478L497.596,174.219L497.846,174.96L498.093,175.703L498.339,176.447L498.582,177.191L498.822,177.937L499.061,178.684L499.297,179.431L499.532,180.18L499.764,180.93L499.993,181.68L500.221,182.432L500.446,183.185L500.669,183.938L500.889,184.693L501.108,185.448L501.324,186.205L501.538,186.962L501.749,187.72L501.958,188.48L502.165,189.24L502.37,190.001L502.573,190.763L502.773,191.526L502.97,192.29L503.166,193.055L503.359,193.821L503.55,194.587L503.739,195.355L503.925,196.124L504.109,196.893L504.291,197.663L504.47,198.434L504.647,199.206L504.821,199.979L504.994,200.753L505.164,201.528L505.331,202.303L505.496,203.08L505.659,203.857L505.82,204.635L505.978,205.414L506.134,206.193L506.287,206.974L506.438,207.756L506.587,208.538L506.733,209.321L506.877,210.105L507.018,210.89L507.157,211.676L507.294,212.462L507.428,213.249L507.56,214.037L507.689,214.826L507.816,215.616L507.941,216.406L508.063,217.197L508.183,217.989L508.3,218.782L508.415,219.575L508.527,220.37L508.637,221.164L508.745,221.96L508.85,222.757L508.953,223.554L509.053,224.351L509.15,225.151L509.246,225.95L509.338,226.75L509.429,227.551L509.516,228.353L509.602,229.155L509.685,229.958L509.765,230.762L509.843,231.566L509.918,232.371L509.991,233.177L510.061,233.983L510.129,234.791L510.195,235.599L510.257,236.407L510.318,237.216L510.375,238.026L510.431,238.836L510.483,239.648L510.533,240.459L510.581,241.272L510.626,242.085L510.669,242.898L510.709,243.713L510.746,244.528L510.781,245.343L510.813,246.16L510.843,246.976L510.87,247.794L510.895,248.612L510.917,249.431L510.936,250.249L510.953,251.069L510.968,251.89L510.979,252.711L510.988,253.532L510.995,254.354L510.999,255.177L511,256L510.999,256.823L510.995,257.646L510.988,258.468L510.979,259.289L510.968,260.11L510.953,260.931L510.936,261.751L510.917,262.569L510.895,263.388L510.87,264.206L510.843,265.024L510.813,265.84L510.781,266.657L510.746,267.472L510.709,268.287L510.669,269.102L510.626,269.915L510.581,270.728L510.533,271.541L510.483,272.352L510.431,273.164L510.375,273.974L510.318,274.784L510.257,275.593L510.195,276.401L510.129,277.209L510.061,278.017L509.991,278.823L509.918,279.629L509.843,280.434L509.765,281.238L509.685,282.042L509.602,282.845L509.516,283.647L509.429,284.449L509.338,285.25L509.246,286.05L509.15,286.849L509.053,287.649L508.953,288.446L508.85,289.243L508.745,290.04L508.637,290.835L508.527,291.63L508.415,292.425L508.3,293.218L508.183,294.011L508.063,294.803L507.941,295.594L507.816,296.384L507.689,297.174L507.56,297.963L507.428,298.751L507.294,299.538L507.157,300.324L507.018,301.11L506.877,301.895L506.733,302.679L506.587,303.462L506.438,304.244L506.287,305.026L506.133,305.807L505.978,306.586L505.82,307.365L505.659,308.143L505.496,308.92L505.331,309.697L505.164,310.472L504.994,311.247L504.821,312.021L504.647,312.794L504.47,313.566L504.291,314.337L504.109,315.107L503.925,315.876L503.739,316.645L503.55,317.412L503.359,318.18L503.166,318.945L502.971,319.71L502.773,320.474L502.573,321.237L502.37,321.999L502.165,322.76L501.958,323.52L501.749,324.28L501.538,325.038L501.324,325.795L501.108,326.552L500.889,327.307L500.669,328.062L500.446,328.815L500.221,329.568L499.993,330.32L499.764,331.07L499.532,331.82L499.298,332.569L499.061,333.316L498.822,334.063L498.582,334.809L498.339,335.553L498.093,336.297L497.846,337.04L497.596,337.781L497.344,338.522L497.09,339.262L496.834,340L496.575,340.737L496.315,341.474L496.052,342.21L495.787,342.944L495.52,343.677L495.25,344.41L494.979,345.141L494.705,345.871L494.429,346.6L494.151,347.328L493.87,348.055L493.588,348.781L493.304,349.506L493.017,350.23L492.728,350.953L492.437,351.674L492.144,352.395L491.849,353.114L491.552,353.832L491.252,354.549L490.951,355.265L490.647,355.98L490.341,356.694L490.033,357.407L489.723,358.118L489.411,358.828L489.097,359.538L488.781,360.246L488.463,360.953L488.142,361.659L487.82,362.363L487.495,363.066L487.168,363.769L486.84,364.47L486.509,365.17L486.176,365.869L485.841,366.567L485.505,367.263L485.166,367.958L484.825,368.652L484.482,369.345L484.137,370.037L483.789,370.728L483.44,371.417L483.089,372.105L482.736,372.792L482.381,373.478L482.024,374.162L481.665,374.845L481.303,375.527L480.94,376.208L480.575,376.887L480.208,377.565L479.839,378.242L479.468,378.918L479.095,379.593L478.72,380.266L478.343,380.938L477.964,381.609L477.583,382.278L477.2,382.946L476.815,383.613L476.429,384.278L476.04,384.943L475.649,385.606L475.257,386.268L474.862,386.928L474.466,387.588L474.067,388.245L473.667,388.901L473.265,389.557L472.861,390.211L472.455,390.864L472.047,391.515L471.637,392.165L471.225,392.813L470.812,393.461L470.396,394.106L469.979,394.751L469.56,395.394L469.138,396.036L468.716,396.677L468.29,397.316L467.864,397.954L467.435,398.59L467.005,399.225L466.572,399.859L466.138,400.492L465.702,401.122L465.264,401.752L464.825,402.38L464.384,403.007L463.94,403.633L463.495,404.257L463.048,404.879L462.599,405.501L462.148,406.12L461.696,406.738L461.242,407.356L460.786,407.971L460.328,408.585L459.868,409.198L459.407,409.809L458.943,410.419L458.479,411.027L458.012,411.634L457.543,412.24L457.073,412.844L456.601,413.447L456.127,414.047L455.651,414.647L455.174,415.245L454.695,415.842L454.214,416.437L453.731,417.031L453.247,417.623L452.761,418.214L452.273,418.803L451.783,419.392L451.292,419.978L450.8,420.562L450.304,421.146L449.808,421.727L449.31,422.308L448.81,422.887L448.309,423.464L447.806,424.039L447.3,424.614L446.794,425.186L446.286,425.758L445.776,426.327L445.264,426.895L444.75,427.462L444.235,428.027L443.719,428.59L443.201,429.151L442.68,429.712L442.159,430.271L441.636,430.828L441.111,431.383L440.584,431.938L440.055,432.49L439.526,433.041L438.994,433.59L438.461,434.137L437.926,434.684L437.39,435.228L436.852,435.771L436.312,436.312L435.771,436.852L435.228,437.39L434.684,437.926L434.137,438.461L433.59,438.994L433.041,439.526L432.49,440.055L431.938,440.584L431.383,441.111L430.828,441.636L430.271,442.159L429.712,442.68L429.151,443.201L428.59,443.719L428.027,444.235L427.462,444.75L426.895,445.264L426.327,445.776L425.758,446.286L425.186,446.794L424.614,447.3L424.039,447.806L423.464,448.309L422.887,448.81L422.308,449.31L421.727,449.808L421.146,450.304L420.562,450.8L419.978,451.292L419.392,451.783L418.803,452.273L418.214,452.761L417.623,453.247L417.031,453.731L416.437,454.214L415.842,454.695L415.245,455.174L414.647,455.651L414.047,456.127L413.447,456.601L412.844,457.073L412.24,457.543L411.634,458.012L411.027,458.479L410.419,458.943L409.809,459.407L409.198,459.868L408.585,460.328L407.971,460.786L407.356,461.242L406.738,461.696L406.12,462.148L405.501,462.599L404.879,463.048L404.257,463.495L403.633,463.94L403.007,464.384L402.38,464.825L401.752,465.264L401.122,465.702L400.492,466.138L399.859,466.572L399.225,467.005L398.59,467.435L397.954,467.864L397.316,468.29L396.677,468.716L396.036,469.138L395.394,469.56L394.751,469.979L394.106,470.396L393.461,470.812L392.813,471.225L392.165,471.637L391.515,472.047L390.864,472.455L390.211,472.861L389.557,473.265L388.901,473.667L388.245,474.067L387.588,474.466L386.928,474.862L386.268,475.257L385.606,475.649L384.943,476.04L384.278,476.429L383.613,476.815L382.946,477.2L382.278,477.583L381.609,477.964L380.938,478.343L380.266,478.72L379.593,479.095L378.918,479.468L378.242,479.839L377.565,480.208L376.887,480.575L376.208,480.94L375.527,481.303L374.845,481.665L374.162,482.024L373.478,482.381L372.792,482.736L372.105,483.089L371.417,483.44L370.728,483.789L370.037,484.137L369.345,484.482L368.652,484.825L367.958,485.166L367.263,485.505L366.567,485.841L365.869,486.176L365.17,486.509L364.47,486.84L363.769,487.168L363.066,487.495L362.363,487.82L361.659,488.142L360.953,488.463L360.246,488.781L359.538,489.097L358.828,489.411L358.118,489.723L357.407,490.033L356.694,490.341L355.98,490.647L355.265,490.951L354.549,491.252L353.832,491.552L353.114,491.849L352.395,492.144L351.674,492.437L350.953,492.728L350.23,493.017L349.506,493.304L348.781,493.588L348.055,493.87L347.328,494.151L346.6,494.429L345.871,494.705L345.141,494.979L344.41,495.25L343.677,495.52L342.944,495.787L342.21,496.052L341.474,496.315L340.737,496.575L340,496.834L339.262,497.09L338.522,497.344L337.781,497.596L337.04,497.846L336.297,498.093L335.553,498.339L334.809,498.582L334.063,498.822L333.316,499.061L332.569,499.298L331.82,499.532L331.07,499.764L330.32,499.993L329.568,500.221L328.815,500.446L328.062,500.669L327.307,500.889L326.552,501.108L325.795,501.324L325.038,501.538L324.28,501.749L323.52,501.958L322.76,502.165L321.999,502.37L321.237,502.573L320.474,502.773L319.71,502.971L318.945,503.166L318.18,503.359L317.412,503.55L316.645,503.739L315.876,503.925L315.107,504.109L314.337,504.291L313.566,504.47L312.794,504.647L312.021,504.821L311.247,504.994L310.472,505.164L309.697,505.331L308.92,505.496L308.143,505.659L307.365,505.82L306.586,505.978L305.807,506.133L305.026,506.287L304.244,506.438L303.462,506.587L302.679,506.733L301.895,506.877L301.11,507.018L300.324,507.157L299.538,507.294L298.751,507.428L297.963,507.56L297.174,507.689L296.384,507.816L295.594,507.941L294.803,508.063L294.011,508.183L293.218,508.3L292.425,508.415L291.63,508.527L290.835,508.637L290.04,508.745L289.243,508.85L288.446,508.953L287.649,509.053L286.849,509.15L286.05,509.246L285.25,509.338L284.449,509.429L283.647,509.516L282.845,509.602L282.042,509.685L281.238,509.765L280.434,509.843L279.629,509.918L278.823,509.991L278.017,510.061L277.209,510.129L276.401,510.195L275.593,510.257L274.784,510.318L273.974,510.375L273.164,510.431L272.352,510.483L271.541,510.533L270.728,510.581L269.915,510.626L269.102,510.669L268.287,510.709L267.472,510.746L266.657,510.781L265.84,510.813L265.024,510.843L264.206,510.87L263.388,510.895L262.569,510.917L261.751,510.936L260.931,510.953L260.11,510.968L259.289,510.979L258.468,510.988L257.646,510.995L256.823,510.999L256,511ZM256,486L256.744,485.999L257.487,485.995L258.23,485.989L258.973,485.981L259.714,485.971L260.456,485.958L261.196,485.942L261.936,485.925L262.676,485.905L263.415,485.883L264.153,485.858L264.891,485.831L265.628,485.802L266.364,485.771L267.1,485.737L267.836,485.701L268.57,485.662L269.305,485.622L270.038,485.579L270.771,485.533L271.503,485.486L272.235,485.436L272.966,485.384L273.696,485.329L274.426,485.273L275.155,485.214L275.884,485.152L276.611,485.089L277.339,485.023L278.065,484.955L278.791,484.885L279.516,484.813L280.241,484.738L280.965,484.661L281.688,484.582L282.41,484.5L283.132,484.416L283.853,484.331L284.574,484.242L285.294,484.152L286.013,484.06L286.731,483.965L287.449,483.868L288.166,483.769L288.882,483.667L289.598,483.564L290.313,483.458L291.027,483.35L291.74,483.24L292.453,483.127L293.165,483.013L293.876,482.896L294.587,482.777L295.296,482.656L296.006,482.533L296.714,482.408L297.421,482.28L298.128,482.15L298.834,482.019L299.54,481.885L300.244,481.748L300.948,481.61L301.651,481.47L302.353,481.327L303.054,481.183L303.755,481.036L304.455,480.887L305.154,480.736L305.852,480.583L306.55,480.427L307.247,480.27L307.943,480.11L308.638,479.949L309.332,479.785L310.025,479.619L310.718,479.451L311.41,479.281L312.101,479.109L312.791,478.935L313.481,478.759L314.169,478.581L314.857,478.4L315.544,478.218L316.23,478.033L316.915,477.847L317.599,477.658L318.283,477.468L318.965,477.275L319.647,477.08L320.328,476.883L321.008,476.684L321.687,476.483L322.365,476.281L323.043,476.076L323.719,475.869L324.395,475.66L325.07,475.449L325.744,475.236L326.417,475.021L327.089,474.804L327.76,474.584L328.43,474.363L329.099,474.14L329.768,473.915L330.435,473.688L331.102,473.459L331.767,473.228L332.432,472.995L333.096,472.76L333.759,472.523L334.421,472.285L335.082,472.044L335.742,471.801L336.401,471.556L337.059,471.309L337.716,471.061L338.372,470.81L339.028,470.557L339.682,470.303L340.335,470.046L340.988,469.788L341.639,469.528L342.289,469.265L342.939,469.001L343.587,468.735L344.235,468.467L344.881,468.197L345.526,467.925L346.171,467.652L346.814,467.376L347.457,467.099L348.098,466.819L348.738,466.538L349.378,466.255L350.016,465.97L350.653,465.683L351.29,465.394L351.925,465.103L352.559,464.81L353.192,464.516L353.824,464.22L354.456,463.921L355.086,463.621L355.715,463.32L356.342,463.016L356.969,462.71L357.595,462.403L358.22,462.093L358.843,461.782L359.466,461.469L360.087,461.155L360.708,460.838L361.327,460.52L361.945,460.2L362.563,459.877L363.179,459.554L363.793,459.228L364.407,458.901L365.02,458.571L365.632,458.24L366.242,457.907L366.852,457.573L367.46,457.236L368.067,456.898L368.673,456.558L369.278,456.216L369.882,455.873L370.484,455.528L371.086,455.181L371.686,454.832L372.285,454.481L372.883,454.129L373.48,453.775L374.076,453.419L374.67,453.061L375.263,452.702L375.856,452.341L376.447,451.978L377.036,451.614L377.625,451.248L378.212,450.88L378.799,450.51L379.384,450.139L379.968,449.766L380.55,449.391L381.132,449.014L381.712,448.636L382.291,448.256L382.869,447.875L383.446,447.491L384.021,447.106L384.595,446.72L385.168,446.331L385.74,445.941L386.31,445.55L386.88,445.156L387.448,444.761L388.014,444.365L388.58,443.966L389.144,443.566L389.707,443.165L390.269,442.761L390.829,442.356L391.389,441.95L391.946,441.542L392.503,441.132L393.059,440.72L393.613,440.307L394.165,439.892L394.717,439.476L395.267,439.058L395.816,438.639L396.364,438.217L396.91,437.795L397.455,437.37L397.999,436.944L398.541,436.517L399.083,436.087L399.622,435.657L400.161,435.224L400.698,434.79L401.234,434.355L401.768,433.918L402.301,433.479L402.833,433.039L403.364,432.597L403.893,432.154L404.42,431.709L404.947,431.263L405.472,430.815L405.996,430.365L406.518,429.914L407.039,429.461L407.558,429.007L408.077,428.551L408.593,428.094L409.109,427.635L409.623,427.175L410.136,426.713L410.647,426.25L411.157,425.785L411.665,425.319L412.172,424.851L412.678,424.382L413.182,423.911L413.685,423.439L414.186,422.965L414.686,422.49L415.185,422.013L415.682,421.535L416.178,421.055L416.672,420.574L417.165,420.091L417.656,419.607L418.146,419.122L418.635,418.635L419.122,418.146L419.607,417.656L420.091,417.165L420.574,416.672L421.055,416.178L421.535,415.682L422.013,415.185L422.49,414.686L422.965,414.186L423.439,413.685L423.911,413.182L424.382,412.678L424.851,412.172L425.319,411.665L425.785,411.157L426.25,410.647L426.713,410.136L427.175,409.623L427.635,409.109L428.094,408.593L428.551,408.077L429.007,407.558L429.461,407.039L429.914,406.518L430.365,405.996L430.815,405.472L431.263,404.947L431.709,404.42L432.154,403.893L432.597,403.364L433.039,402.833L433.479,402.301L433.918,401.768L434.355,401.234L434.79,400.698L435.224,400.161L435.657,399.622L436.087,399.083L436.517,398.541L436.944,397.999L437.37,397.455L437.795,396.91L438.217,396.364L438.639,395.816L439.058,395.267L439.476,394.717L439.892,394.165L440.307,393.613L440.72,393.059L441.132,392.503L441.542,391.946L441.95,391.389L442.356,390.829L442.761,390.269L443.165,389.707L443.566,389.144L443.966,388.58L444.365,388.014L444.761,387.448L445.156,386.88L445.55,386.31L445.941,385.74L446.331,385.168L446.72,384.595L447.106,384.021L447.491,383.446L447.875,382.869L448.256,382.291L448.636,381.712L449.014,381.132L449.391,380.55L449.766,379.968L450.139,379.384L450.51,378.799L450.88,378.212L451.248,377.625L451.614,377.036L451.978,376.447L452.341,375.856L452.702,375.263L453.061,374.67L453.419,374.076L453.775,373.48L454.129,372.883L454.481,372.285L454.832,371.686L455.181,371.086L455.528,370.484L455.873,369.882L456.216,369.278L456.558,368.673L456.898,368.067L457.236,367.46L457.573,366.852L457.907,366.242L458.24,365.632L458.571,365.02L458.901,364.407L459.228,363.793L459.554,363.179L459.877,362.563L460.2,361.945L460.52,361.327L460.838,360.708L461.155,360.087L461.469,359.466L461.782,358.843L462.093,358.22L462.403,357.595L462.71,356.969L463.016,356.342L463.32,355.715L463.621,355.086L463.921,354.456L464.22,353.824L464.516,353.192L464.81,352.559L465.103,351.925L465.394,351.29L465.683,350.653L465.97,350.016L466.255,349.378L466.538,348.738L466.819,348.098L467.099,347.457L467.376,346.814L467.652,346.171L467.925,345.526L468.197,344.881L468.467,344.235L468.735,343.587L469.001,342.939L469.265,342.289L469.528,341.639L469.788,340.988L470.046,340.335L470.303,339.682L470.557,339.028L470.81,338.372L471.061,337.716L471.309,337.059L471.556,336.401L471.801,335.742L472.044,335.082L472.285,334.421L472.523,333.759L472.76,333.096L472.995,332.432L473.228,331.767L473.459,331.102L473.688,330.435L473.915,329.768L474.14,329.099L474.363,328.43L474.584,327.76L474.804,327.089L475.021,326.417L475.236,325.744L475.449,325.07L475.66,324.395L475.869,323.719L476.076,323.043L476.281,322.365L476.483,321.687L476.684,321.008L476.883,320.328L477.08,319.647L477.275,318.965L477.468,318.283L477.658,317.599L477.847,316.915L478.033,316.23L478.218,315.544L478.4,314.857L478.581,314.169L478.759,313.481L478.935,312.791L479.109,312.101L479.281,311.41L479.451,310.718L479.619,310.025L479.785,309.332L479.949,308.638L480.11,307.943L480.27,307.247L480.427,306.55L480.583,305.852L480.736,305.154L480.887,304.455L481.036,303.755L481.183,303.054L481.327,302.353L481.47,301.651L481.61,300.948L481.748,300.244L481.885,299.54L482.019,298.834L482.15,298.128L482.28,297.421L482.408,296.714L482.533,296.006L482.656,295.296L482.777,294.587L482.896,293.876L483.013,293.165L483.127,292.453L483.24,291.74L483.35,291.027L483.458,290.313L483.564,289.598L483.667,288.882L483.769,288.166L483.868,287.449L483.965,286.731L484.06,286.013L484.152,285.294L484.242,284.574L484.331,283.853L484.416,283.132L484.5,282.41L484.582,281.688L484.661,280.965L484.738,280.241L484.813,279.516L484.885,278.791L484.955,278.065L485.023,277.339L485.089,276.611L485.152,275.884L485.214,275.155L485.273,274.426L485.329,273.696L485.384,272.966L485.436,272.235L485.486,271.503L485.533,270.771L485.579,270.038L485.622,269.305L485.662,268.57L485.701,267.836L485.737,267.1L485.771,266.364L485.802,265.628L485.831,264.891L485.858,264.153L485.883,263.415L485.905,262.676L485.925,261.936L485.942,261.196L485.958,260.456L485.971,259.714L485.981,258.973L485.989,258.23L485.995,257.487L485.999,256.744L486,256L485.999,255.256L485.995,254.513L485.989,253.77L485.981,253.027L485.971,252.286L485.958,251.544L485.942,250.804L485.925,250.064L485.905,249.324L485.883,248.585L485.858,247.847L485.831,247.109L485.802,246.372L485.771,245.636L485.737,244.9L485.701,244.164L485.662,243.43L485.622,242.695L485.579,241.962L485.533,241.229L485.486,240.497L485.436,239.765L485.384,239.034L485.329,238.304L485.273,237.574L485.214,236.845L485.152,236.116L485.089,235.389L485.023,234.661L484.955,233.935L484.885,233.209L484.813,232.484L484.738,231.759L484.661,231.035L484.582,230.312L484.5,229.59L484.416,228.868L484.331,228.147L484.242,227.426L484.152,226.706L484.06,225.987L483.965,225.269L483.868,224.551L483.769,223.834L483.667,223.118L483.564,222.402L483.458,221.687L483.35,220.973L483.24,220.26L483.127,219.547L483.013,218.835L482.896,218.124L482.777,217.413L482.656,216.704L482.533,215.994L482.408,215.286L482.28,214.579L482.15,213.872L482.019,213.166L481.885,212.46L481.748,211.756L481.61,211.052L481.47,210.349L481.327,209.647L481.183,208.946L481.036,208.245L480.887,207.545L480.736,206.846L480.583,206.148L480.427,205.45L480.27,204.753L480.11,204.057L479.949,203.362L479.785,202.668L479.619,201.975L479.451,201.282L479.281,200.59L479.109,199.899L478.935,199.209L478.759,198.519L478.581,197.831L478.4,197.143L478.218,196.456L478.033,195.77L477.847,195.085L477.658,194.401L477.468,193.717L477.275,193.035L477.08,192.353L476.883,191.672L476.684,190.992L476.483,190.313L476.281,189.635L476.076,188.957L475.869,188.281L475.66,187.605L475.449,186.93L475.236,186.256L475.021,185.583L474.804,184.911L474.584,184.24L474.363,183.57L474.14,182.901L473.915,182.232L473.688,181.565L473.459,180.898L473.228,180.233L472.995,179.568L472.76,178.904L472.523,178.241L472.285,177.579L472.044,176.918L471.801,176.258L471.556,175.599L471.309,174.941L471.061,174.284L470.81,173.628L470.557,172.972L470.303,172.318L470.046,171.665L469.788,171.012L469.528,170.361L469.265,169.711L469.001,169.061L468.735,168.413L468.467,167.765L468.197,167.119L467.925,166.474L467.652,165.829L467.376,165.186L467.099,164.543L466.819,163.902L466.538,163.262L466.255,162.622L465.97,161.984L465.683,161.347L465.394,160.71L465.103,160.075L464.81,159.441L464.516,158.808L464.22,158.176L463.921,157.544L463.621,156.914L463.32,156.285L463.016,155.658L462.71,155.031L462.403,154.405L462.093,153.78L461.782,153.157L461.469,152.534L461.155,151.913L460.838,151.292L460.52,150.673L460.2,150.055L459.877,149.437L459.554,148.821L459.228,148.207L458.901,147.593L458.571,146.98L458.24,146.368L457.907,145.758L457.573,145.148L457.236,144.54L456.898,143.933L456.558,143.327L456.216,142.722L455.873,142.118L455.528,141.516L455.181,140.914L454.832,140.314L454.481,139.715L454.129,139.117L453.775,138.52L453.419,137.924L453.061,137.33L452.702,136.737L452.341,136.144L451.978,135.553L451.614,134.964L451.248,134.375L450.88,133.788L450.51,133.201L450.139,132.616L449.766,132.032L449.391,131.45L449.014,130.868L448.636,130.288L448.256,129.709L447.875,129.131L447.491,128.554L447.106,127.979L446.72,127.405L446.331,126.832L445.941,126.26L445.55,125.69L445.156,125.12L444.761,124.552L444.365,123.986L443.966,123.42L443.566,122.856L443.165,122.293L442.761,121.731L442.356,121.171L441.95,120.611L441.542,120.054L441.132,119.497L440.72,118.941L440.307,118.387L439.892,117.835L439.476,117.283L439.058,116.733L438.639,116.184L438.217,115.636L437.795,115.09L437.37,114.545L436.944,114.001L436.517,113.459L436.087,112.917L435.657,112.378L435.224,111.839L434.79,111.302L434.355,110.766L433.918,110.232L433.479,109.699L433.039,109.167L432.597,108.636L432.154,108.107L431.709,107.58L431.263,107.053L430.815,106.528L430.365,106.004L429.914,105.482L429.461,104.961L429.007,104.442L428.551,103.923L428.094,103.407L427.635,102.891L427.175,102.377L426.713,101.864L426.25,101.353L425.785,100.843L425.319,100.335L424.851,99.8278L424.382,99.3222L423.911,98.8179L423.439,98.3151L422.965,97.8137L422.49,97.3137L422.013,96.8151L421.535,96.318L421.055,95.8223L420.574,95.3281L420.091,94.8352L419.607,94.3439L419.122,93.8539L418.635,93.3654L418.146,92.8784L417.656,92.3928L417.165,91.9087L416.672,91.4261L416.178,90.9449L415.682,90.4652L415.185,89.987L414.686,89.5102L414.186,89.0349L413.685,88.5612L413.182,88.0889L412.678,87.6181L412.172,87.1487L411.665,86.6809L411.157,86.2146L410.647,85.7498L410.136,85.2865L409.623,84.8248L409.109,84.3645L408.593,83.9058L408.077,83.4486L407.558,82.9929L407.039,82.5387L406.518,82.0861L405.996,81.635L405.472,81.1855L404.947,80.7375L404.42,80.291L403.893,79.8461L403.364,79.4028L402.833,78.961L402.301,78.5208L401.768,78.0822L401.234,77.6451L400.698,77.2096L400.161,76.7757L399.622,76.3433L399.083,75.9126L398.541,75.4834L397.999,75.0558L397.455,74.6298L396.91,74.2054L396.364,73.7826L395.816,73.3615L395.267,72.9419L394.717,72.5239L394.165,72.1076L393.613,71.6929L393.059,71.2798L392.503,70.8683L391.946,70.4584L391.389,70.0502L390.829,69.6436L390.269,69.2387L389.707,68.8354L389.144,68.4338L388.58,68.0338L388.014,67.6355L387.448,67.2388L386.88,66.8438L386.31,66.4504L385.74,66.0587L385.168,65.6687L384.595,65.2804L384.021,64.8937L383.446,64.5088L382.869,64.1255L382.291,63.7439L381.712,63.364L381.132,62.9858L380.55,62.6093L379.968,62.2345L379.384,61.8614L378.799,61.49L378.212,61.1203L377.625,60.7524L377.036,60.3862L376.447,60.0217L375.856,59.6589L375.263,59.2979L374.67,58.9386L374.076,58.581L373.48,58.2252L372.883,57.8711L372.285,57.5188L371.686,57.1682L371.086,56.8194L370.484,56.4724L369.882,56.1271L369.278,55.7836L368.673,55.4418L368.067,55.1018L367.46,54.7636L366.852,54.4272L366.242,54.0926L365.632,53.7598L365.02,53.4287L364.407,53.0995L363.793,52.772L363.179,52.4464L362.563,52.1225L361.945,51.8005L361.327,51.4803L360.708,51.1619L360.087,50.8453L359.466,50.5305L358.843,50.2176L358.22,49.9065L357.595,49.5972L356.969,49.2898L356.342,48.9842L355.715,48.6805L355.086,48.3786L354.456,48.0786L353.824,47.7804L353.192,47.4841L352.559,47.1896L351.925,46.897L351.29,46.6063L350.653,46.3175L350.016,46.0305L349.378,45.7454L348.738,45.4622L348.098,45.1809L347.457,44.9014L346.814,44.6239L346.171,44.3483L345.526,44.0745L344.881,43.8027L344.235,43.5328L343.587,43.2648L342.939,42.9987L342.289,42.7345L341.639,42.4723L340.988,42.212L340.335,41.9536L339.682,41.6971L339.028,41.4426L338.372,41.19L337.716,40.9394L337.059,40.6907L336.401,40.4439L335.742,40.1992L335.082,39.9563L334.421,39.7155L333.759,39.4766L333.096,39.2397L332.432,39.0047L331.767,38.7717L331.102,38.5407L330.435,38.3117L329.768,38.0847L329.099,37.8596L328.43,37.6366L327.76,37.4155L327.089,37.1965L326.417,36.9794L325.744,36.7644L325.07,36.5514L324.395,36.3403L323.719,36.1313L323.043,35.9244L322.365,35.7194L321.687,35.5165L321.008,35.3156L320.328,35.1168L319.647,34.92L318.965,34.7252L318.283,34.5325L317.599,34.3418L316.915,34.1532L316.23,33.9666L315.544,33.7821L314.857,33.5997L314.169,33.4193L313.481,33.241L312.791,33.0648L312.101,32.8906L311.41,32.7186L310.718,32.5486L310.025,32.3807L309.332,32.2149L308.638,32.0512L307.943,31.8896L307.247,31.7301L306.55,31.5727L305.852,31.4174L305.154,31.2643L304.455,31.1132L303.755,30.9643L303.054,30.8175L302.353,30.6728L301.651,30.5302L300.948,30.3898L300.244,30.2515L299.54,30.1154L298.834,29.9814L298.128,29.8496L297.421,29.7199L296.714,29.5924L296.006,29.467L295.296,29.3438L294.587,29.2227L293.876,29.1038L293.165,28.9871L292.453,28.8726L291.74,28.7603L291.027,28.6501L290.313,28.5421L289.598,28.4364L288.882,28.3328L288.166,28.2314L287.449,28.1322L286.731,28.0352L286.013,27.9404L285.294,27.8479L284.574,27.7575L283.853,27.6694L283.132,27.5835L282.41,27.4998L281.688,27.4184L280.965,27.3392L280.241,27.2622L279.516,27.1875L278.791,27.115L278.065,27.0447L277.339,26.9767L276.611,26.911L275.884,26.8475L275.155,26.7863L274.426,26.7273L273.696,26.6707L272.966,26.6162L272.235,26.5641L271.503,26.5143L270.771,26.4667L270.038,26.4214L269.305,26.3784L268.57,26.3377L267.836,26.2993L267.1,26.2632L266.364,26.2294L265.628,26.1979L264.891,26.1687L264.153,26.1418L263.415,26.1173L262.676,26.095L261.936,26.0751L261.196,26.0575L260.456,26.0423L259.714,26.0294L258.973,26.0188L258.23,26.0106L257.487,26.0047L256.744,26.0012L256,26L255.256,26.0012L254.513,26.0047L253.77,26.0106L253.027,26.0188L252.286,26.0294L251.544,26.0423L250.804,26.0575L250.064,26.0751L249.324,26.095L248.585,26.1173L247.847,26.1418L247.109,26.1687L246.372,26.1979L245.636,26.2294L244.9,26.2632L244.164,26.2993L243.43,26.3377L242.695,26.3784L241.962,26.4214L241.229,26.4667L240.497,26.5143L239.765,26.5641L239.034,26.6162L238.304,26.6707L237.574,26.7273L236.845,26.7863L236.116,26.8475L235.389,26.911L234.661,26.9767L233.935,27.0447L233.209,27.115L232.484,27.1875L231.759,27.2622L231.035,27.3392L230.312,27.4184L229.59,27.4998L228.868,27.5835L228.147,27.6694L227.426,27.7575L226.706,27.8479L225.987,27.9404L225.269,28.0352L224.551,28.1322L223.834,28.2314L223.118,28.3328L222.402,28.4364L221.687,28.5421L220.973,28.6501L220.26,28.7603L219.547,28.8726L218.835,28.9871L218.124,29.1038L217.413,29.2227L216.704,29.3438L215.994,29.467L215.286,29.5924L214.579,29.7199L213.872,29.8496L213.166,29.9814L212.46,30.1154L211.756,30.2515L211.052,30.3898L210.349,30.5302L209.647,30.6728L208.946,30.8175L208.245,30.9643L207.545,31.1132L206.846,31.2643L206.148,31.4174L205.45,31.5727L204.753,31.7301L204.057,31.8896L203.362,32.0512L202.668,32.2149L201.975,32.3807L201.282,32.5486L200.59,32.7186L199.899,32.8906L199.209,33.0648L198.519,33.241L197.831,33.4193L197.143,33.5997L196.456,33.7821L195.77,33.9666L195.085,34.1532L194.401,34.3418L193.717,34.5325L193.035,34.7252L192.353,34.92L191.672,35.1168L190.992,35.3156L190.313,35.5165L189.635,35.7194L188.957,35.9244L188.281,36.1313L187.605,36.3403L186.93,36.5514L186.256,36.7644L185.583,36.9794L184.911,37.1965L184.24,37.4155L183.57,37.6366L182.901,37.8596L182.232,38.0847L181.565,38.3117L180.898,38.5407L180.233,38.7717L179.568,39.0047L178.904,39.2397L178.241,39.4766L177.579,39.7155L176.918,39.9563L176.258,40.1992L175.599,40.4439L174.941,40.6907L174.284,40.9394L173.628,41.19L172.972,41.4426L172.318,41.6971L171.665,41.9536L171.012,42.212L170.361,42.4723L169.711,42.7345L169.061,42.9987L168.413,43.2648L167.765,43.5328L167.119,43.8027L166.474,44.0745L165.829,44.3483L165.186,44.6239L164.543,44.9014L163.902,45.1809L163.262,45.4622L162.622,45.7454L161.984,46.0305L161.347,46.3175L160.71,46.6063L160.075,46.897L159.441,47.1896L158.808,47.4841L158.176,47.7804L157.544,48.0786L156.914,48.3786L156.285,48.6805L155.658,48.9842L155.031,49.2898L154.405,49.5972L153.78,49.9065L153.157,50.2176L152.534,50.5305L151.913,50.8453L151.292,51.1619L150.673,51.4803L150.055,51.8005L149.437,52.1225L148.821,52.4464L148.207,52.772L147.593,53.0995L146.98,53.4287L146.368,53.7598L145.758,54.0926L145.148,54.4272L144.54,54.7636L143.933,55.1018L143.327,55.4418L142.722,55.7836L142.118,56.1271L141.516,56.4724L140.914,56.8194L140.314,57.1682L139.715,57.5188L139.117,57.8711L138.52,58.2252L137.924,58.581L137.33,58.9386L136.737,59.2979L136.144,59.6589L135.553,60.0217L134.964,60.3862L134.375,60.7524L133.788,61.1203L133.201,61.49L132.616,61.8614L132.032,62.2345L131.45,62.6093L130.868,62.9858L130.288,63.364L129.709,63.7439L129.131,64.1255L128.554,64.5088L127.979,64.8937L127.405,65.2804L126.832,65.6687L126.26,66.0587L125.69,66.4504L125.12,66.8438L124.552,67.2388L123.986,67.6355L123.42,68.0338L122.856,68.4338L122.293,68.8354L121.731,69.2387L121.171,69.6436L120.611,70.0502L120.054,70.4584L119.497,70.8683L118.941,71.2798L118.387,71.6929L117.835,72.1076L117.283,72.5239L116.733,72.9419L116.184,73.3615L115.636,73.7826L115.09,74.2054L114.545,74.6298L114.001,75.0558L113.459,75.4834L112.917,75.9126L112.378,76.3433L111.839,76.7757L111.302,77.2096L110.766,77.6451L110.232,78.0822L109.699,78.5208L109.167,78.961L108.636,79.4028L108.107,79.8461L107.58,80.291L107.053,80.7375L106.528,81.1855L106.004,81.635L105.482,82.0861L104.961,82.5387L104.442,82.9929L103.923,83.4486L103.407,83.9058L102.891,84.3645L102.377,84.8248L101.864,85.2865L101.353,85.7498L100.843,86.2146L100.335,86.6809L99.8278,87.1487L99.3222,87.6181L98.8179,88.0889L98.3151,88.5612L97.8137,89.0349L97.3137,89.5102L96.8151,89.987L96.318,90.4652L95.8223,90.9449L95.3281,91.4261L94.8352,91.9087L94.3439,92.3928L93.8539,92.8784L93.3654,93.3654L92.8784,93.8539L92.3928,94.3439L91.9087,94.8352L91.4261,95.3281L90.9449,95.8223L90.4652,96.318L89.987,96.8151L89.5102,97.3137L89.0349,97.8137L88.5612,98.3151L88.0889,98.8179L87.6181,99.3222L87.1487,99.8278L86.6809,100.335L86.2146,100.843L85.7498,101.353L85.2865,101.864L84.8248,102.377L84.3645,102.891L83.9058,103.407L83.4486,103.923L82.9929,104.442L82.5387,104.961L82.0861,105.482L81.635,106.004L81.1855,106.528L80.7375,107.053L80.291,107.58L79.8461,108.107L79.4028,108.636L78.961,109.167L78.5208,109.699L78.0822,110.232L77.6451,110.766L77.2096,111.302L76.7757,111.839L76.3433,112.378L75.9126,112.917L75.4834,113.459L75.0558,114.001L74.6298,114.545L74.2054,115.09L73.7826,115.636L73.3615,116.184L72.9419,116.733L72.5239,117.283L72.1076,117.835L71.6929,118.387L71.2798,118.941L70.8683,119.497L70.4584,120.054L70.0502,120.611L69.6436,121.171L69.2387,121.731L68.8354,122.293L68.4338,122.856L68.0338,123.42L67.6355,123.986L67.2388,124.552L66.8438,125.12L66.4504,125.69L66.0587,126.26L65.6687,126.832L65.2804,127.405L64.8937,127.979L64.5088,128.554L64.1255,129.131L63.7439,129.709L63.364,130.288L62.9858,130.868L62.6093,131.45L62.2345,132.032L61.8614,132.616L61.49,133.201L61.1203,133.788L60.7524,134.375L60.3862,134.964L60.0217,135.553L59.6589,136.144L59.2979,136.737L58.9386,137.33L58.581,137.924L58.2252,138.52L57.8711,139.117L57.5188,139.715L57.1682,140.314L56.8194,140.914L56.4724,141.516L56.1271,142.118L55.7836,142.722L55.4418,143.327L55.1018,143.933L54.7636,144.54L54.4272,145.148L54.0926,145.758L53.7598,146.368L53.4287,146.98L53.0995,147.593L52.772,148.207L52.4464,148.821L52.1225,149.437L51.8005,150.055L51.4803,150.673L51.1619,151.292L50.8453,151.913L50.5305,152.534L50.2176,153.157L49.9065,153.78L49.5972,154.405L49.2898,155.031L48.9842,155.658L48.6805,156.285L48.3786,156.914L48.0786,157.544L47.7804,158.176L47.4841,158.808L47.1896,159.441L46.897,160.075L46.6063,160.71L46.3175,161.347L46.0305,161.984L45.7454,162.622L45.4622,163.262L45.1809,163.902L44.9014,164.543L44.6239,165.186L44.3483,165.829L44.0745,166.474L43.8027,167.119L43.5328,167.765L43.2648,168.413L42.9987,169.061L42.7345,169.711L42.4723,170.361L42.212,171.012L41.9536,171.665L41.6971,172.318L41.4426,172.972L41.19,173.628L40.9394,174.284L40.6907,174.941L40.4439,175.599L40.1992,176.258L39.9563,176.918L39.7155,177.579L39.4766,178.241L39.2397,178.904L39.0047,179.568L38.7717,180.233L38.5407,180.898L38.3117,181.565L38.0847,182.232L37.8596,182.901L37.6366,183.57L37.4155,184.24L37.1965,184.911L36.9794,185.583L36.7644,186.256L36.5514,186.93L36.3403,187.605L36.1313,188.281L35.9244,188.957L35.7194,189.635L35.5165,190.313L35.3156,190.992L35.1168,191.672L34.92,192.353L34.7252,193.035L34.5325,193.717L34.3418,194.401L34.1532,195.085L33.9666,195.77L33.7821,196.456L33.5997,197.143L33.4193,197.831L33.241,198.519L33.0648,199.209L32.8906,199.899L32.7186,200.59L32.5486,201.282L32.3807,201.975L32.2149,202.668L32.0512,203.362L31.8896,204.057L31.7301,204.753L31.5727,205.45L31.4174,206.148L31.2643,206.846L31.1132,207.545L30.9643,208.245L30.8175,208.946L30.6728,209.647L30.5302,210.349L30.3898,211.052L30.2515,211.756L30.1154,212.46L29.9814,213.166L29.8496,213.872L29.7199,214.579L29.5924,215.286L29.467,215.994L29.3438,216.704L29.2227,217.413L29.1038,218.124L28.9871,218.835L28.8726,219.547L28.7603,220.26L28.6501,220.973L28.5421,221.687L28.4364,222.402L28.3328,223.118L28.2314,223.834L28.1322,224.551L28.0352,225.269L27.9404,225.987L27.8479,226.706L27.7575,227.426L27.6694,228.147L27.5835,228.868L27.4998,229.59L27.4184,230.312L27.3392,231.035L27.2622,231.759L27.1875,232.484L27.115,233.209L27.0447,233.935L26.9767,234.661L26.911,235.389L26.8475,236.116L26.7863,236.845L26.7273,237.574L26.6707,238.304L26.6162,239.034L26.5641,239.765L26.5143,240.497L26.4667,241.229L26.4214,241.962L26.3784,242.695L26.3377,243.43L26.2993,244.164L26.2632,244.9L26.2294,245.636L26.1979,246.372L26.1687,247.109L26.1418,247.847L26.1173,248.585L26.095,249.324L26.0751,250.064L26.0575,250.804L26.0423,251.544L26.0294,252.286L26.0188,253.027L26.0106,253.77L26.0047,254.513L26.0012,255.256L26,256L26.0012,256.744L26.0047,257.487L26.0106,258.23L26.0188,258.973L26.0294,259.714L26.0423,260.456L26.0575,261.196L26.0751,261.936L26.095,262.676L26.1173,263.415L26.1418,264.153L26.1687,264.891L26.1979,265.628L26.2294,266.364L26.2632,267.1L26.2993,267.836L26.3377,268.57L26.3784,269.305L26.4214,270.038L26.4667,270.771L26.5143,271.503L26.5641,272.235L26.6162,272.966L26.6707,273.696L26.7273,274.426L26.7863,275.155L26.8475,275.884L26.911,276.611L26.9767,277.339L27.0447,278.065L27.115,278.791L27.1875,279.516L27.2622,280.241L27.3392,280.965L27.4184,281.688L27.4998,282.41L27.5835,283.132L27.6694,283.853L27.7575,284.574L27.8479,285.294L27.9404,286.013L28.0352,286.731L28.1322,287.449L28.2314,288.166L28.3328,288.882L28.4364,289.598L28.5421,290.313L28.6501,291.027L28.7603,291.74L28.8726,292.453L28.9871,293.165L29.1038,293.876L29.2227,294.587L29.3438,295.296L29.467,296.006L29.5924,296.714L29.7199,297.421L29.8496,298.128L29.9814,298.834L30.1154,299.54L30.2515,300.244L30.3898,300.948L30.5302,301.651L30.6728,302.353L30.8175,303.054L30.9643,303.755L31.1132,304.455L31.2643,305.154L31.4174,305.852L31.5727,306.55L31.7301,307.247L31.8896,307.943L32.0512,308.638L32.2149,309.332L32.3807,310.025L32.5486,310.718L32.7186,311.41L32.8906,312.101L33.0648,312.791L33.241,313.481L33.4193,314.169L33.5997,314.857L33.7821,315.544L33.9666,316.23L34.1532,316.915L34.3418,317.599L34.5325,318.283L34.7252,318.965L34.92,319.647L35.1168,320.328L35.3156,321.008L35.5165,321.687L35.7194,322.365L35.9244,323.043L36.1313,323.719L36.3403,324.395L36.5514,325.07L36.7644,325.744L36.9794,326.417L37.1965,327.089L37.4155,327.76L37.6366,328.43L37.8596,329.099L38.0847,329.768L38.3117,330.435L38.5407,331.102L38.7717,331.767L39.0047,332.432L39.2397,333.096L39.4766,333.759L39.7155,334.421L39.9563,335.082L40.1992,335.742L40.4439,336.401L40.6907,337.059L40.9394,337.716L41.19,338.372L41.4426,339.028L41.6971,339.682L41.9536,340.335L42.212,340.988L42.4723,341.639L42.7345,342.289L42.9987,342.939L43.2648,343.587L43.5328,344.235L43.8027,344.881L44.0745,345.526L44.3483,346.171L44.6239,346.814L44.9014,347.457L45.1809,348.098L45.4622,348.738L45.7454,349.378L46.0305,350.016L46.3175,350.653L46.6063,351.29L46.897,351.925L47.1896,352.559L47.4841,353.192L47.7804,353.824L48.0786,354.456L48.3786,355.086L48.6805,355.715L48.9842,356.342L49.2898,356.969L49.5972,357.595L49.9065,358.22L50.2176,358.843L50.5305,359.466L50.8453,360.087L51.1619,360.708L51.4803,361.327L51.8005,361.945L52.1225,362.563L52.4464,363.179L52.772,363.793L53.0995,364.407L53.4287,365.02L53.7598,365.632L54.0926,366.242L54.4272,366.852L54.7636,367.46L55.1018,368.067L55.4418,368.673L55.7836,369.278L56.1271,369.882L56.4724,370.484L56.8194,371.086L57.1682,371.686L57.5188,372.285L57.8711,372.883L58.2252,373.48L58.581,374.076L58.9386,374.67L59.2979,375.263L59.6589,375.856L60.0217,376.447L60.3862,377.036L60.7524,377.625L61.1203,378.212L61.49,378.799L61.8614,379.384L62.2345,379.968L62.6093,380.55L62.9858,381.132L63.364,381.712L63.7439,382.291L64.1255,382.869L64.5088,383.446L64.8937,384.021L65.2804,384.595L65.6687,385.168L66.0587,385.74L66.4504,386.31L66.8438,386.88L67.2388,387.448L67.6355,388.014L68.0338,388.58L68.4338,389.144L68.8354,389.707L69.2387,390.269L69.6436,390.829L70.0502,391.389L70.4584,391.946L70.8683,392.503L71.2798,393.059L71.6929,393.613L72.1076,394.165L72.5239,394.717L72.9419,395.267L73.3615,395.816L73.7826,396.364L74.2054,396.91L74.6298,397.455L75.0558,397.999L75.4834,398.541L75.9126,399.083L76.3433,399.622L76.7757,400.161L77.2096,400.698L77.6451,401.234L78.0822,401.768L78.5208,402.301L78.961,402.833L79.4028,403.364L79.8461,403.893L80.291,404.42L80.7375,404.947L81.1855,405.472L81.635,405.996L82.0861,406.518L82.5387,407.039L82.9929,407.558L83.4486,408.077L83.9058,408.593L84.3645,409.109L84.8248,409.623L85.2865,410.136L85.7498,410.647L86.2146,411.157L86.6809,411.665L87.1487,412.172L87.6181,412.678L88.0889,413.182L88.5612,413.685L89.0349,414.186L89.5102,414.686L89.987,415.185L90.4652,415.682L90.9449,416.178L91.4261,416.672L91.9087,417.165L92.3928,417.656L92.8784,418.146L93.3654,418.635L93.8539,419.122L94.3439,419.607L94.8352,420.091L95.3281,420.574L95.8223,421.055L96.318,421.535L96.8151,422.013L97.3137,422.49L97.8137,422.965L98.3151,423.439L98.8179,423.911L99.3222,424.382L99.8278,424.851L100.335,425.319L100.843,425.785L101.353,426.25L101.864,426.713L102.377,427.175L102.891,427.635L103.407,428.094L103.923,428.551L104.442,429.007L104.961,429.461L105.482,429.914L106.004,430.365L106.528,430.815L107.053,431.263L107.58,431.709L108.107,432.154L108.636,432.597L109.167,433.039L109.699,433.479L110.232,433.918L110.766,434.355L111.302,434.79L111.839,435.224L112.378,435.657L112.917,436.087L113.459,436.517L114.001,436.944L114.545,437.37L115.09,437.795L115.636,438.217L116.184,438.639L116.733,439.058L117.283,439.476L117.835,439.892L118.387,440.307L118.941,440.72L119.497,441.132L120.054,441.542L120.611,441.95L121.171,442.356L121.731,442.761L122.293,443.165L122.856,443.566L123.42,443.966L123.986,444.365L124.552,444.761L125.12,445.156L125.69,445.55L126.26,445.941L126.832,446.331L127.405,446.72L127.979,447.106L128.554,447.491L129.131,447.875L129.709,448.256L130.288,448.636L130.868,449.014L131.45,449.391L132.032,449.766L132.616,450.139L133.201,450.51L133.788,450.88L134.375,451.248L134.964,451.614L135.553,451.978L136.144,452.341L136.737,452.702L137.33,453.061L137.924,453.419L138.52,453.775L139.117,454.129L139.715,454.481L140.314,454.832L140.914,455.181L141.516,455.528L142.118,455.873L142.722,456.216L143.327,456.558L143.933,456.898L144.54,457.236L145.148,457.573L145.758,457.907L146.368,458.24L146.98,458.571L147.593,458.901L148.207,459.228L148.821,459.554L149.437,459.877L150.055,460.2L150.673,460.52L151.292,460.838L151.913,461.155L152.534,461.469L153.157,461.782L153.78,462.093L154.405,462.403L155.031,462.71L155.658,463.016L156.285,463.32L156.914,463.621L157.544,463.921L158.176,464.22L158.808,464.516L159.441,464.81L160.075,465.103L160.71,465.394L161.347,465.683L161.984,465.97L162.622,466.255L163.262,466.538L163.902,466.819L164.543,467.099L165.186,467.376L165.829,467.652L166.474,467.925L167.119,468.197L167.765,468.467L168.413,468.735L169.061,469.001L169.711,469.265L170.361,469.528L171.012,469.788L171.665,470.046L172.318,470.303L172.972,470.557L173.628,470.81L174.284,471.061L174.941,471.309L175.599,471.556L176.258,471.801L176.918,472.044L177.579,472.285L178.241,472.523L178.904,472.76L179.568,472.995L180.233,473.228L180.898,473.459L181.565,473.688L182.232,473.915L182.901,474.14L183.57,474.363L184.24,474.584L184.911,474.804L185.583,475.021L186.256,475.236L186.93,475.449L187.605,475.66L188.281,475.869L188.957,476.076L189.635,476.281L190.313,476.483L190.992,476.684L191.672,476.883L192.353,477.08L193.035,477.275L193.717,477.468L194.401,477.658L195.085,477.847L195.77,478.033L196.456,478.218L197.143,478.4L197.831,478.581L198.519,478.759L199.209,478.935L199.899,479.109L200.59,479.281L201.282,479.451L201.975,479.619L202.668,479.785L203.362,479.949L204.057,480.11L204.753,480.27L205.45,480.427L206.148,480.583L206.846,480.736L207.545,480.887L208.245,481.036L208.946,481.183L209.647,481.327L210.349,481.47L211.052,481.61L211.756,481.748L212.46,481.885L213.166,482.019L213.872,482.15L214.579,482.28L215.286,482.408L215.994,482.533L216.704,482.656L217.413,482.777L218.124,482.896L218.835,483.013L219.547,483.127L220.26,483.24L220.973,483.35L221.687,483.458L222.402,483.564L223.118,483.667L223.834,483.769L224.551,483.868L225.269,483.965L225.987,484.06L226.706,484.152L227.426,484.242L228.147,484.331L228.868,484.416L229.59,484.5L230.312,484.582L231.035,484.661L231.759,484.738L232.484,484.813L233.209,484.885L233.935,484.955L234.661,485.023L235.389,485.089L236.116,485.152L236.845,485.214L237.574,485.273L238.304,485.329L239.034,485.384L239.765,485.436L240.497,485.486L241.229,485.533L241.962,485.579L242.695,485.622L243.43,485.662L244.164,485.701L244.9,485.737L245.636,485.771L246.372,485.802L247.109,485.831L247.847,485.858L248.585,485.883L249.324,485.905L250.064,485.925L250.804,485.942L251.544,485.958L252.286,485.971L253.027,485.981L253.77,485.989L254.513,485.995L255.256,485.999L256,486Z" style="fill:black;"/>
            </g>
        </g>
    </g>
</svg>
