<?xml version="1.0" standalone="no"?>
<!DOCTYPE svg PUBLIC "-//W3C//DTD SVG 1.1//EN" "http://www.w3.org/Graphics/SVG/1.1/DTD/svg11.dtd">
<svg width="512px" height="512px" version="1.1" xmlns="http://www.w3.org/2000/svg" xmlns:xlink="http://www.w3.org/1999/xlink" xml:space="preserve" style="fill-rule:evenodd;clip-rule:evenodd;stroke-linecap:round;stroke-linejoin:round;stroke-miterlimit:1.41421;">
    <g>
        <g>
            <g>
                <path d="M449.254,169.493C460.645,196.049 466.937,225.29 466.937,256C466.937,377.503 368.44,476 246.937,476C216.227,476 186.987,469.708 160.43,458.317L191.8,426.947C209.266,432.598 227.751,435.606 246.937,435.606C346.131,435.606 426.544,355.194 426.544,256C426.544,236.813 423.535,218.329 417.884,200.863L449.254,169.493ZM85.6683,335.089L55.8274,364.93C37.4007,332.758 26.9375,295.601 26.9375,256C26.9375,134.497 125.435,36 246.937,36C286.539,36 323.696,46.4633 355.867,64.89L326.026,94.7308C302.211,82.9885 275.344,76.3937 246.937,76.3937C147.744,76.3937 67.3312,156.806 67.3312,256C67.3312,284.407 73.926,311.273 85.6683,335.089Z" style="fill:black;stroke-width:2px;stroke:black;"/>
            </g>
            <g>
                <path d="M369.315,104.829L499.512,138.692L365.686,239.309L369.315,104.829Z" style="fill:black;stroke-width:2px;stroke:black;"/>
            </g>
            <g>
                <path d="M145.923,423.848L12.4877,406.724L132.514,289.989L145.923,423.848Z" style="fill:black;stroke-width:2px;stroke:black;"/>
            </g>
        </g>
    </g>
</svg>
