<?xml version="1.0" standalone="no"?>
<!DOCTYPE svg PUBLIC "-//W3C//DTD SVG 1.1//EN" "http://www.w3.org/Graphics/SVG/1.1/DTD/svg11.dtd">
<svg width="512px" height="512px" version="1.1" xmlns="http://www.w3.org/2000/svg" xmlns:xlink="http://www.w3.org/1999/xlink" xml:space="preserve" style="fill-rule:evenodd;clip-rule:evenodd;stroke-linejoin:round;stroke-miterlimit:1.41421;">
    <g>
        <g id="Layer1">
            <g>
                <path d="M330,356L329.45,355.999L328.901,355.997L328.351,355.992L327.803,355.986L327.255,355.978L326.707,355.969L326.159,355.957L325.612,355.944L325.066,355.93L324.52,355.913L323.974,355.895L323.429,355.875L322.884,355.854L322.339,355.83L321.795,355.805L321.252,355.779L320.709,355.75L320.166,355.72L319.624,355.689L319.082,355.655L318.541,355.62L318,355.583L317.46,355.545L316.92,355.504L316.381,355.462L315.842,355.419L315.303,355.374L314.765,355.327L314.228,355.278L313.691,355.228L313.155,355.176L312.618,355.122L312.083,355.067L311.548,355.01L311.013,354.952L310.479,354.891L309.946,354.83L309.413,354.766L308.88,354.701L308.348,354.634L307.817,354.566L307.286,354.496L306.755,354.424L306.225,354.351L305.696,354.276L305.167,354.199L304.639,354.121L304.111,354.041L303.583,353.96L303.057,353.877L302.53,353.792L302.005,353.706L301.479,353.618L300.955,353.529L300.431,353.437L299.907,353.345L299.384,353.251L298.862,353.155L298.34,353.057L297.819,352.958L297.298,352.858L296.778,352.755L296.258,352.652L295.739,352.546L295.221,352.439L294.703,352.331L294.185,352.221L293.669,352.109L293.153,351.996L292.637,351.881L292.122,351.765L291.608,351.647L291.094,351.527L290.581,351.406L290.068,351.284L289.556,351.16L289.045,351.034L288.534,350.907L288.024,350.778L287.514,350.648L287.005,350.516L286.497,350.383L285.989,350.248L285.482,350.112L284.976,349.974L284.47,349.834L283.965,349.693L283.46,349.551L282.957,349.407L282.453,349.262L281.951,349.115L281.449,348.966L280.947,348.816L280.447,348.665L279.947,348.512L279.447,348.357L278.948,348.201L278.45,348.044L277.953,347.885L277.456,347.724L276.96,347.562L276.465,347.399L275.97,347.234L275.476,347.068L274.983,346.9L274.49,346.731L273.998,346.56L273.507,346.388L273.016,346.214L272.526,346.039L272.037,345.862L271.548,345.684L271.06,345.505L270.573,345.324L270.087,345.142L269.601,344.958L269.116,344.773L268.632,344.586L268.148,344.398L267.665,344.208L267.183,344.017L266.702,343.825L266.221,343.631L265.741,343.436L265.262,343.239L264.783,343.041L264.305,342.841L263.828,342.641L263.352,342.438L262.876,342.235L262.402,342.029L261.928,341.823L261.454,341.615L260.982,341.406L260.51,341.195L260.039,340.983L259.568,340.769L259.099,340.554L258.63,340.338L258.162,340.12L257.695,339.901L257.229,339.681L256.763,339.459L256.298,339.236L255.834,339.012L255.371,338.786L254.908,338.559L254.446,338.33L253.985,338.1L253.525,337.869L253.066,337.636L252.607,337.402L252.149,337.167L251.693,336.93L251.236,336.692L250.781,336.453L250.327,336.212L249.873,335.97L249.42,335.727L248.968,335.482L248.517,335.236L248.066,334.989L247.617,334.74L247.168,334.49L246.72,334.239L246.273,333.986L245.827,333.732L245.381,333.477L244.937,333.22L244.493,332.963L244.05,332.704L243.608,332.443L243.167,332.181L242.727,331.918L242.287,331.654L241.849,331.389L241.411,331.122L240.974,330.854L240.538,330.584L240.103,330.313L239.669,330.041L239.236,329.768L238.803,329.494L238.372,329.218L237.941,328.941L237.511,328.663L237.082,328.383L236.654,328.102L236.227,327.82L235.801,327.537L235.376,327.252L234.951,326.967L234.528,326.68L234.105,326.391L233.684,326.102L233.263,325.811L232.843,325.519L232.424,325.226L232.006,324.932L231.589,324.636L231.173,324.339L230.758,324.041L230.344,323.742L229.93,323.441L229.518,323.139L229.106,322.836L228.696,322.532L228.286,322.227L227.878,321.92L227.47,321.613L227.063,321.304L226.658,320.994L226.253,320.682L225.849,320.37L225.446,320.056L225.044,319.741L224.643,319.425L224.243,319.108L223.844,318.79L223.446,318.47L223.049,318.149L222.653,317.828L222.258,317.504L221.864,317.18L221.471,316.855L221.079,316.528L220.688,316.201L220.298,315.872L219.909,315.542L219.521,315.211L219.134,314.878L218.748,314.545L218.363,314.211L217.979,313.875L217.596,313.538L217.214,313.2L216.833,312.861L216.453,312.521L216.074,312.18L215.696,311.837L215.319,311.494L214.943,311.149L214.568,310.803L214.195,310.456L213.822,310.108L213.45,309.759L213.08,309.409L212.71,309.058L212.342,308.705L211.974,308.352L211.608,307.997L211.242,307.642L210.878,307.285L210.515,306.927L210.153,306.568L209.792,306.208L209.432,305.847L209.073,305.485L208.715,305.122L208.358,304.758L208.003,304.392L207.648,304.026L207.295,303.658L206.942,303.29L206.591,302.92L206.241,302.55L205.892,302.178L205.544,301.805L205.197,301.432L204.851,301.057L204.506,300.681L204.163,300.304L203.82,299.926L203.479,299.547L203.139,299.167L202.8,298.786L202.462,298.404L202.125,298.021L201.789,297.637L201.455,297.252L201.122,296.866L200.789,296.479L200.458,296.091L200.128,295.702L199.799,295.312L199.472,294.921L199.145,294.529L198.82,294.136L198.496,293.742L198.172,293.347L197.851,292.951L197.53,292.554L197.21,292.156L196.892,291.757L196.575,291.357L196.259,290.956L195.944,290.554L195.63,290.151L195.318,289.747L195.006,289.342L194.696,288.937L194.387,288.53L194.08,288.122L193.773,287.714L193.468,287.304L193.164,286.894L192.861,286.482L192.559,286.07L192.258,285.656L191.959,285.242L191.661,284.827L191.364,284.411L191.068,283.994L190.774,283.576L190.481,283.157L190.189,282.737L189.898,282.316L189.609,281.895L189.32,281.472L189.033,281.049L188.748,280.624L188.463,280.199L188.18,279.773L187.898,279.346L187.617,278.918L187.337,278.489L187.059,278.059L186.782,277.628L186.506,277.197L186.232,276.764L185.959,276.331L185.687,275.897L185.416,275.462L185.146,275.026L184.878,274.589L184.611,274.151L184.346,273.713L184.082,273.273L183.819,272.833L183.557,272.392L183.296,271.95L183.037,271.507L182.78,271.063L182.523,270.619L182.268,270.173L182.014,269.727L181.761,269.28L181.51,268.832L181.26,268.383L181.011,267.934L180.764,267.483L180.518,267.032L180.273,266.58L180.03,266.127L179.788,265.673L179.547,265.219L179.308,264.764L179.07,264.307L178.833,263.851L178.598,263.393L178.364,262.934L178.131,262.475L177.9,262.015L177.67,261.554L177.441,261.092L177.214,260.629L176.988,260.166L176.764,259.702L176.541,259.237L176.319,258.771L176.099,258.305L175.88,257.838L175.662,257.37L175.446,256.901L175.231,256.432L175.017,255.961L174.805,255.49L174.594,255.018L174.385,254.546L174.177,254.072L173.971,253.598L173.765,253.124L173.562,252.648L173.359,252.172L173.159,251.695L172.959,251.217L172.761,250.738L172.564,250.259L172.369,249.779L172.175,249.298L171.983,248.817L171.792,248.335L171.602,247.852L171.414,247.368L171.227,246.884L171.042,246.399L170.858,245.913L170.676,245.427L170.495,244.94L170.316,244.452L170.138,243.963L169.961,243.474L169.786,242.984L169.612,242.493L169.44,242.002L169.269,241.51L169.1,241.017L168.932,240.524L168.766,240.03L168.601,239.535L168.438,239.04L168.276,238.544L168.115,238.047L167.956,237.55L167.799,237.052L167.643,236.553L167.488,236.053L167.335,235.553L167.184,235.053L167.034,234.551L166.885,234.049L166.738,233.547L166.593,233.043L166.449,232.54L166.307,232.035L166.166,231.53L166.026,231.024L165.888,230.518L165.752,230.011L165.617,229.503L165.484,228.995L165.352,228.486L165.222,227.976L165.093,227.466L164.966,226.955L164.84,226.444L164.716,225.932L164.594,225.419L164.473,224.906L164.353,224.392L164.235,223.878L164.119,223.363L164.004,222.847L163.891,222.331L163.779,221.815L163.669,221.297L163.561,220.779L163.454,220.261L163.348,219.742L163.245,219.222L163.142,218.702L163.042,218.181L162.943,217.66L162.845,217.138L162.749,216.616L162.655,216.093L162.563,215.569L162.471,215.045L162.382,214.521L162.294,213.995L162.208,213.47L162.123,212.943L162.04,212.417L161.959,211.889L161.879,211.361L161.801,210.833L161.724,210.304L161.649,209.775L161.576,209.245L161.504,208.714L161.434,208.183L161.366,207.652L161.299,207.12L161.234,206.587L161.17,206.054L161.109,205.521L161.048,204.987L160.99,204.452L160.933,203.917L160.878,203.382L160.824,202.845L160.772,202.309L160.722,201.772L160.673,201.235L160.626,200.697L160.581,200.158L160.538,199.619L160.496,199.08L160.455,198.54L160.417,198L160.38,197.459L160.345,196.918L160.311,196.376L160.28,195.834L160.25,195.291L160.221,194.748L160.195,194.205L160.17,193.661L160.146,193.116L160.125,192.571L160.105,192.026L160.087,191.48L160.07,190.934L160.056,190.388L160.043,189.841L160.031,189.293L160.022,188.745L160.014,188.197L160.008,187.649L160.003,187.099L160.001,186.55L160,186L160.001,185.45L160.003,184.901L160.008,184.351L160.014,183.803L160.022,183.255L160.031,182.707L160.043,182.159L160.056,181.612L160.07,181.066L160.087,180.52L160.105,179.974L160.125,179.429L160.146,178.884L160.17,178.339L160.195,177.795L160.221,177.252L160.25,176.709L160.28,176.166L160.311,175.624L160.345,175.082L160.38,174.541L160.417,174L160.455,173.46L160.496,172.92L160.538,172.381L160.581,171.842L160.626,171.303L160.673,170.765L160.722,170.228L160.772,169.691L160.824,169.155L160.878,168.618L160.933,168.083L160.99,167.548L161.048,167.013L161.109,166.479L161.17,165.946L161.234,165.413L161.299,164.88L161.366,164.348L161.434,163.817L161.504,163.286L161.576,162.755L161.649,162.225L161.724,161.696L161.801,161.167L161.879,160.639L161.959,160.111L162.04,159.583L162.123,159.057L162.208,158.53L162.294,158.005L162.382,157.479L162.471,156.955L162.563,156.431L162.655,155.907L162.749,155.384L162.845,154.862L162.943,154.34L163.042,153.819L163.142,153.298L163.245,152.778L163.348,152.258L163.454,151.739L163.561,151.221L163.669,150.703L163.779,150.185L163.891,149.669L164.004,149.153L164.119,148.637L164.235,148.122L164.353,147.608L164.473,147.094L164.594,146.581L164.716,146.068L164.84,145.556L164.966,145.045L165.093,144.534L165.222,144.024L165.352,143.514L165.484,143.005L165.617,142.497L165.752,141.989L165.888,141.482L166.026,140.976L166.166,140.47L166.307,139.965L166.449,139.46L166.593,138.957L166.738,138.453L166.885,137.951L167.034,137.449L167.184,136.947L167.335,136.447L167.488,135.947L167.643,135.447L167.799,134.948L167.956,134.45L168.115,133.953L168.276,133.456L168.438,132.96L168.601,132.465L168.766,131.97L168.932,131.476L169.1,130.983L169.269,130.49L169.44,129.998L169.612,129.507L169.786,129.016L169.961,128.526L170.138,128.037L170.316,127.548L170.495,127.06L170.676,126.573L170.858,126.087L171.042,125.601L171.227,125.116L171.414,124.632L171.602,124.148L171.792,123.665L171.983,123.183L172.175,122.702L172.369,122.221L172.564,121.741L172.761,121.262L172.959,120.783L173.159,120.305L173.359,119.828L173.562,119.352L173.765,118.876L173.971,118.402L174.177,117.928L174.385,117.454L174.594,116.982L174.805,116.51L175.017,116.039L175.231,115.568L175.446,115.099L175.662,114.63L175.88,114.162L176.099,113.695L176.319,113.229L176.541,112.763L176.764,112.298L176.988,111.834L177.214,111.371L177.441,110.908L177.67,110.446L177.9,109.985L178.131,109.525L178.364,109.066L178.598,108.607L178.833,108.149L179.07,107.693L179.308,107.236L179.547,106.781L179.788,106.327L180.03,105.873L180.273,105.42L180.518,104.968L180.764,104.517L181.011,104.066L181.26,103.617L181.51,103.168L181.761,102.72L182.014,102.273L182.268,101.827L182.523,101.381L182.78,100.937L183.037,100.493L183.296,100.05L183.557,99.6082L183.819,99.1671L184.082,98.7268L184.346,98.2874L184.611,97.8488L184.878,97.4111L185.146,96.9743L185.416,96.5383L185.687,96.1033L185.959,95.6691L186.232,95.2357L186.506,94.8033L186.782,94.3717L187.059,93.9411L187.337,93.5113L187.617,93.0824L187.898,92.6544L188.18,92.2273L188.463,91.8011L188.748,91.3758L189.033,90.9514L189.32,90.5279L189.609,90.1053L189.898,89.6837L190.189,89.2629L190.481,88.8431L190.774,88.4242L191.068,88.0062L191.364,87.5891L191.661,87.173L191.959,86.7578L192.258,86.3435L192.559,85.9302L192.861,85.5178L193.164,85.1064L193.468,84.6958L193.773,84.2863L194.08,83.8777L194.387,83.47L194.696,83.0633L195.006,82.6576L195.318,82.2528L195.63,81.849L195.944,81.4461L196.259,81.0442L196.575,80.6433L196.892,80.2433L197.21,79.8444L197.53,79.4464L197.851,79.0493L198.172,78.6533L198.496,78.2583L198.82,77.8642L199.145,77.4711L199.472,77.0791L199.799,76.688L200.128,76.2979L200.458,75.9088L200.789,75.5208L201.122,75.1337L201.455,74.7476L201.789,74.3626L202.125,73.9786L202.462,73.5956L202.8,73.2136L203.139,72.8326L203.479,72.4526L203.82,72.0737L204.163,71.6958L204.506,71.319L204.851,70.9432L205.197,70.5684L205.544,70.1946L205.892,69.8219L206.241,69.4503L206.591,69.0797L206.942,68.7101L207.295,68.3416L207.648,67.9742L208.003,67.6078L208.358,67.2425L208.715,66.8782L209.073,66.515L209.432,66.1529L209.792,65.7918L210.153,65.4319L210.515,65.073L210.878,64.7151L211.242,64.3584L211.608,64.0028L211.974,63.6482L212.342,63.2947L212.71,62.9423L213.08,62.591L213.45,62.2409L213.822,61.8918L214.195,61.5438L214.568,61.1969L214.943,60.8511L215.319,60.5065L215.696,60.1629L216.074,59.8205L216.453,59.4792L216.833,59.139L217.214,58.7999L217.596,58.462L217.979,58.1252L218.363,57.7895L218.748,57.4549L219.134,57.1215L219.521,56.7893L219.909,56.4581L220.298,56.1282L220.688,55.7993L221.079,55.4716L221.471,55.1451L221.864,54.8197L222.258,54.4955L222.653,54.1725L223.049,53.8506L223.446,53.5298L223.844,53.2103L224.243,52.8919L224.643,52.5747L225.044,52.2586L225.446,51.9438L225.849,51.6301L226.253,51.3176L226.658,51.0063L227.063,50.6962L227.47,50.3872L227.878,50.0795L228.286,49.773L228.696,49.4676L229.106,49.1635L229.518,48.8606L229.93,48.5589L230.344,48.2583L230.758,47.959L231.173,47.661L231.589,47.3641L232.006,47.0685L232.424,46.774L232.843,46.4808L233.263,46.1889L233.684,45.8981L234.105,45.6086L234.528,45.3204L234.951,45.0333L235.376,44.7475L235.801,44.463L236.227,44.1797L236.654,43.8977L237.082,43.6169L237.511,43.3373L237.941,43.059L238.372,42.782L238.803,42.5062L239.236,42.2317L239.669,41.9585L240.103,41.6866L240.538,41.4159L240.974,41.1465L241.411,40.8783L241.849,40.6115L242.287,40.3459L242.727,40.0816L243.167,39.8186L243.608,39.5569L244.05,39.2965L244.493,39.0374L244.937,38.7796L245.381,38.523L245.827,38.2678L246.273,38.0139L246.72,37.7613L247.168,37.5101L247.617,37.2601L248.066,37.0114L248.517,36.7641L248.968,36.5181L249.42,36.2734L249.873,36.03L250.327,35.788L250.781,35.5473L251.236,35.3079L251.693,35.0699L252.149,34.8332L252.607,34.5979L253.066,34.3639L253.525,34.1313L253.985,33.9L254.446,33.67L254.908,33.4414L255.371,33.2142L255.834,32.9883L256.298,32.7638L256.763,32.5407L257.229,32.3189L257.695,32.0986L258.162,31.8795L258.63,31.6619L259.099,31.4456L259.568,31.2307L260.039,31.0172L260.51,30.8051L260.982,30.5944L261.454,30.3851L261.928,30.1772L262.402,29.9706L262.876,29.7655L263.352,29.5618L263.828,29.3594L264.305,29.1585L264.783,28.959L265.262,28.7609L265.741,28.5643L266.221,28.369L266.702,28.1752L267.183,27.9828L267.665,27.7918L268.148,27.6022L268.632,27.4141L269.116,27.2274L269.601,27.0421L270.087,26.8583L270.573,26.676L271.06,26.495L271.548,26.3156L272.037,26.1375L272.526,25.9609L273.016,25.7858L273.507,25.6122L273.998,25.44L274.49,25.2692L274.983,25.0999L275.476,24.9321L275.97,24.7658L276.465,24.6009L276.96,24.4376L277.456,24.2757L277.953,24.1152L278.45,23.9563L278.948,23.7988L279.447,23.6429L279.947,23.4884L280.447,23.3354L280.947,23.1839L281.449,23.0339L281.951,22.8855L282.453,22.7385L282.957,22.593L283.46,22.4491L283.965,22.3066L284.47,22.1657L284.976,22.0263L285.482,21.8884L285.989,21.752L286.497,21.6172L287.005,21.4838L287.514,21.3521L288.024,21.2218L288.534,21.0931L289.045,20.9659L289.556,20.8403L290.068,20.7162L290.581,20.5936L291.094,20.4726L291.608,20.3532L292.122,20.2353L292.637,20.119L293.153,20.0042L293.669,19.891L294.185,19.7793L294.703,19.6692L295.221,19.5607L295.739,19.4538L296.258,19.3484L296.778,19.2446L297.298,19.1424L297.819,19.0418L298.34,18.9428L298.862,18.8453L299.384,18.7495L299.907,18.6552L300.431,18.5625L300.955,18.4715L301.479,18.382L302.005,18.2941L302.53,18.2079L303.057,18.1232L303.583,18.0402L304.111,17.9588L304.639,17.879L305.167,17.8008L305.696,17.7242L306.225,17.6493L306.755,17.576L307.286,17.5043L307.817,17.4342L308.348,17.3658L308.88,17.2991L309.413,17.2339L309.946,17.1704L310.479,17.1086L311.013,17.0484L311.548,16.9898L312.083,16.9329L312.618,16.8777L313.155,16.8241L313.691,16.7722L314.228,16.7219L314.765,16.6733L315.303,16.6264L315.842,16.5812L316.381,16.5376L316.92,16.4957L317.46,16.4555L318,16.4169L318.541,16.3801L319.082,16.3449L319.624,16.3115L320.166,16.2797L320.709,16.2496L321.252,16.2212L321.795,16.1945L322.339,16.1695L322.884,16.1462L323.429,16.1247L323.974,16.1048L324.52,16.0867L325.066,16.0702L325.612,16.0555L326.159,16.0425L326.707,16.0313L327.255,16.0217L327.803,16.0139L328.351,16.0078L328.901,16.0035L329.45,16.0009L330,16L330.55,16.0009L331.099,16.0035L331.649,16.0078L332.197,16.0139L332.745,16.0217L333.293,16.0313L333.841,16.0425L334.388,16.0555L334.934,16.0702L335.48,16.0867L336.026,16.1048L336.571,16.1247L337.116,16.1462L337.661,16.1695L338.205,16.1945L338.748,16.2212L339.291,16.2496L339.834,16.2797L340.376,16.3115L340.918,16.3449L341.459,16.3801L342,16.4169L342.54,16.4555L343.08,16.4957L343.619,16.5376L344.158,16.5812L344.697,16.6264L345.235,16.6733L345.772,16.7219L346.309,16.7722L346.845,16.8241L347.382,16.8777L347.917,16.9329L348.452,16.9898L348.987,17.0484L349.521,17.1086L350.054,17.1704L350.587,17.2339L351.12,17.2991L351.652,17.3658L352.183,17.4342L352.714,17.5043L353.245,17.576L353.775,17.6493L354.304,17.7242L354.833,17.8008L355.361,17.879L355.889,17.9588L356.417,18.0402L356.943,18.1232L357.47,18.2079L357.995,18.2941L358.521,18.382L359.045,18.4715L359.569,18.5625L360.093,18.6552L360.616,18.7495L361.138,18.8453L361.66,18.9428L362.181,19.0418L362.702,19.1424L363.222,19.2446L363.742,19.3484L364.261,19.4538L364.779,19.5607L365.297,19.6692L365.815,19.7793L366.331,19.891L366.847,20.0042L367.363,20.119L367.878,20.2353L368.392,20.3532L368.906,20.4726L369.419,20.5936L369.932,20.7162L370.444,20.8403L370.955,20.9659L371.466,21.0931L371.976,21.2218L372.486,21.3521L372.995,21.4838L373.503,21.6172L374.011,21.752L374.518,21.8884L375.024,22.0263L375.53,22.1657L376.035,22.3066L376.54,22.4491L377.043,22.593L377.547,22.7385L378.049,22.8855L378.551,23.0339L379.053,23.1839L379.553,23.3354L380.053,23.4884L380.553,23.6429L381.052,23.7988L381.55,23.9563L382.047,24.1152L382.544,24.2757L383.04,24.4376L383.535,24.6009L384.03,24.7658L384.524,24.9321L385.017,25.0999L385.51,25.2692L386.002,25.44L386.493,25.6122L386.984,25.7858L387.474,25.9609L387.963,26.1375L388.452,26.3156L388.94,26.495L389.427,26.676L389.913,26.8583L390.399,27.0421L390.884,27.2274L391.368,27.4141L391.852,27.6022L392.335,27.7918L392.817,27.9828L393.298,28.1752L393.779,28.369L394.259,28.5643L394.738,28.7609L395.217,28.959L395.695,29.1585L396.172,29.3594L396.648,29.5618L397.124,29.7655L397.598,29.9706L398.072,30.1772L398.546,30.3851L399.018,30.5944L399.49,30.8051L399.961,31.0172L400.432,31.2307L400.901,31.4456L401.37,31.6619L401.838,31.8795L402.305,32.0986L402.771,32.3189L403.237,32.5407L403.702,32.7638L404.166,32.9883L404.629,33.2142L405.092,33.4414L405.554,33.67L406.015,33.9L406.475,34.1313L406.934,34.3639L407.393,34.5979L407.851,34.8332L408.307,35.0699L408.764,35.3079L409.219,35.5473L409.673,35.788L410.127,36.03L410.58,36.2734L411.032,36.5181L411.483,36.7641L411.934,37.0114L412.383,37.2601L412.832,37.5101L413.28,37.7613L413.727,38.0139L414.173,38.2678L414.619,38.523L415.063,38.7796L415.507,39.0374L415.95,39.2965L416.392,39.5569L416.833,39.8186L417.273,40.0816L417.713,40.3459L418.151,40.6115L418.589,40.8783L419.026,41.1465L419.462,41.4159L419.897,41.6866L420.331,41.9585L420.764,42.2317L421.197,42.5062L421.628,42.782L422.059,43.059L422.489,43.3373L422.918,43.6169L423.346,43.8977L423.773,44.1797L424.199,44.463L424.624,44.7475L425.049,45.0333L425.472,45.3204L425.895,45.6086L426.316,45.8981L426.737,46.1889L427.157,46.4808L427.576,46.774L427.994,47.0685L428.411,47.3641L428.827,47.661L429.242,47.959L429.656,48.2583L430.07,48.5589L430.482,48.8606L430.894,49.1635L431.304,49.4676L431.714,49.773L432.122,50.0795L432.53,50.3872L432.937,50.6962L433.342,51.0063L433.747,51.3176L434.151,51.6301L434.554,51.9438L434.956,52.2586L435.357,52.5747L435.757,52.8919L436.156,53.2103L436.554,53.5298L436.951,53.8506L437.347,54.1725L437.742,54.4955L438.136,54.8197L438.529,55.1451L438.921,55.4716L439.312,55.7993L439.702,56.1282L440.091,56.4581L440.479,56.7893L440.866,57.1215L441.252,57.4549L441.637,57.7895L442.021,58.1252L442.404,58.462L442.786,58.7999L443.167,59.139L443.547,59.4792L443.926,59.8205L444.304,60.1629L444.681,60.5065L445.057,60.8511L445.432,61.1969L445.805,61.5438L446.178,61.8918L446.55,62.2409L446.92,62.591L447.29,62.9423L447.658,63.2947L448.026,63.6482L448.392,64.0028L448.758,64.3584L449.122,64.7151L449.485,65.073L449.847,65.4319L450.208,65.7918L450.568,66.1529L450.927,66.515L451.285,66.8782L451.642,67.2425L451.997,67.6078L452.352,67.9742L452.705,68.3416L453.058,68.7101L453.409,69.0797L453.759,69.4503L454.108,69.8219L454.456,70.1946L454.803,70.5684L455.149,70.9432L455.494,71.319L455.837,71.6958L456.18,72.0737L456.521,72.4526L456.861,72.8326L457.2,73.2136L457.538,73.5956L457.875,73.9786L458.211,74.3626L458.545,74.7476L458.878,75.1337L459.211,75.5208L459.542,75.9088L459.872,76.2979L460.201,76.688L460.528,77.0791L460.855,77.4711L461.18,77.8642L461.504,78.2583L461.828,78.6533L462.149,79.0493L462.47,79.4464L462.79,79.8444L463.108,80.2433L463.425,80.6433L463.741,81.0442L464.056,81.4461L464.37,81.849L464.682,82.2528L464.994,82.6576L465.304,83.0633L465.613,83.47L465.92,83.8777L466.227,84.2863L466.532,84.6958L466.836,85.1064L467.139,85.5178L467.441,85.9302L467.742,86.3435L468.041,86.7578L468.339,87.173L468.636,87.5891L468.932,88.0062L469.226,88.4242L469.519,88.8431L469.811,89.2629L470.102,89.6837L470.391,90.1053L470.68,90.5279L470.967,90.9514L471.252,91.3758L471.537,91.8011L471.82,92.2273L472.102,92.6544L472.383,93.0824L472.663,93.5113L472.941,93.9411L473.218,94.3717L473.494,94.8033L473.768,95.2357L474.041,95.6691L474.313,96.1033L474.584,96.5383L474.854,96.9743L475.122,97.4111L475.389,97.8488L475.654,98.2874L475.918,98.7268L476.181,99.1671L476.443,99.6082L476.704,100.05L476.963,100.493L477.22,100.937L477.477,101.381L477.732,101.827L477.986,102.273L478.239,102.72L478.49,103.168L478.74,103.617L478.989,104.066L479.236,104.517L479.482,104.968L479.727,105.42L479.97,105.873L480.212,106.327L480.453,106.781L480.692,107.236L480.93,107.693L481.167,108.149L481.402,108.607L481.636,109.066L481.869,109.525L482.1,109.985L482.33,110.446L482.559,110.908L482.786,111.371L483.012,111.834L483.236,112.298L483.459,112.763L483.681,113.229L483.901,113.695L484.12,114.162L484.338,114.63L484.554,115.099L484.769,115.568L484.983,116.039L485.195,116.51L485.406,116.982L485.615,117.454L485.823,117.928L486.029,118.402L486.235,118.876L486.438,119.352L486.641,119.828L486.841,120.305L487.041,120.783L487.239,121.262L487.436,121.741L487.631,122.221L487.825,122.702L488.017,123.183L488.208,123.665L488.398,124.148L488.586,124.632L488.773,125.116L488.958,125.601L489.142,126.087L489.324,126.573L489.505,127.06L489.684,127.548L489.862,128.037L490.039,128.526L490.214,129.016L490.388,129.507L490.56,129.998L490.731,130.49L490.9,130.983L491.068,131.476L491.234,131.97L491.399,132.465L491.562,132.96L491.724,133.456L491.885,133.953L492.044,134.45L492.201,134.948L492.357,135.447L492.512,135.947L492.665,136.447L492.816,136.947L492.966,137.449L493.115,137.951L493.262,138.453L493.407,138.957L493.551,139.46L493.693,139.965L493.834,140.47L493.974,140.976L494.112,141.482L494.248,141.989L494.383,142.497L494.516,143.005L494.648,143.514L494.778,144.024L494.907,144.534L495.034,145.045L495.16,145.556L495.284,146.068L495.406,146.581L495.527,147.094L495.647,147.608L495.765,148.122L495.881,148.637L495.996,149.153L496.109,149.669L496.221,150.185L496.331,150.703L496.439,151.221L496.546,151.739L496.652,152.258L496.755,152.778L496.858,153.298L496.958,153.819L497.057,154.34L497.155,154.862L497.251,155.384L497.345,155.907L497.437,156.431L497.529,156.955L497.618,157.479L497.706,158.005L497.792,158.53L497.877,159.057L497.96,159.583L498.041,160.111L498.121,160.639L498.199,161.167L498.276,161.696L498.351,162.225L498.424,162.755L498.496,163.286L498.566,163.817L498.634,164.348L498.701,164.88L498.766,165.413L498.83,165.946L498.891,166.479L498.952,167.013L499.01,167.548L499.067,168.083L499.122,168.618L499.176,169.155L499.228,169.691L499.278,170.228L499.327,170.765L499.374,171.303L499.419,171.842L499.462,172.381L499.504,172.92L499.545,173.46L499.583,174L499.62,174.541L499.655,175.082L499.689,175.624L499.72,176.166L499.75,176.709L499.779,177.252L499.805,177.795L499.83,178.339L499.854,178.884L499.875,179.429L499.895,179.974L499.913,180.52L499.93,181.066L499.944,181.612L499.957,182.159L499.969,182.707L499.978,183.255L499.986,183.803L499.992,184.351L499.997,184.901L499.999,185.45L500,186L499.999,186.55L499.997,187.099L499.992,187.649L499.986,188.197L499.978,188.745L499.969,189.293L499.957,189.841L499.944,190.388L499.93,190.934L499.913,191.48L499.895,192.026L499.875,192.571L499.854,193.116L499.83,193.661L499.805,194.205L499.779,194.748L499.75,195.291L499.72,195.834L499.689,196.376L499.655,196.918L499.62,197.459L499.583,198L499.545,198.54L499.504,199.08L499.462,199.619L499.419,200.158L499.374,200.697L499.327,201.235L499.278,201.772L499.228,202.309L499.176,202.845L499.122,203.382L499.067,203.917L499.01,204.452L498.952,204.987L498.891,205.521L498.83,206.054L498.766,206.587L498.701,207.12L498.634,207.652L498.566,208.183L498.496,208.714L498.424,209.245L498.351,209.775L498.276,210.304L498.199,210.833L498.121,211.361L498.041,211.889L497.96,212.417L497.877,212.943L497.792,213.47L497.706,213.995L497.618,214.521L497.529,215.045L497.437,215.569L497.345,216.093L497.251,216.616L497.155,217.138L497.057,217.66L496.958,218.181L496.858,218.702L496.755,219.222L496.652,219.742L496.546,220.261L496.439,220.779L496.331,221.297L496.221,221.815L496.109,222.331L495.996,222.847L495.881,223.363L495.765,223.878L495.647,224.392L495.527,224.906L495.406,225.419L495.284,225.932L495.16,226.444L495.034,226.955L494.907,227.466L494.778,227.976L494.648,228.486L494.516,228.995L494.383,229.503L494.248,230.011L494.112,230.518L493.974,231.024L493.834,231.53L493.693,232.035L493.551,232.54L493.407,233.043L493.262,233.547L493.115,234.049L492.966,234.551L492.816,235.053L492.665,235.553L492.512,236.053L492.357,236.553L492.201,237.052L492.044,237.55L491.885,238.047L491.724,238.544L491.562,239.04L491.399,239.535L491.234,240.03L491.068,240.524L490.9,241.017L490.731,241.51L490.56,242.002L490.388,242.493L490.214,242.984L490.039,243.474L489.862,243.963L489.684,244.452L489.505,244.94L489.324,245.427L489.142,245.913L488.958,246.399L488.773,246.884L488.586,247.368L488.398,247.852L488.208,248.335L488.017,248.817L487.825,249.298L487.631,249.779L487.436,250.259L487.239,250.738L487.041,251.217L486.841,251.695L486.641,252.172L486.438,252.648L486.235,253.124L486.029,253.598L485.823,254.072L485.615,254.546L485.406,255.018L485.195,255.49L484.983,255.961L484.769,256.432L484.554,256.901L484.338,257.37L484.12,257.838L483.901,258.305L483.681,258.771L483.459,259.237L483.236,259.702L483.012,260.166L482.786,260.629L482.559,261.092L482.33,261.554L482.1,262.015L481.869,262.475L481.636,262.934L481.402,263.393L481.167,263.851L480.93,264.307L480.692,264.764L480.453,265.219L480.212,265.673L479.97,266.127L479.727,266.58L479.482,267.032L479.236,267.483L478.989,267.934L478.74,268.383L478.49,268.832L478.239,269.28L477.986,269.727L477.732,270.173L477.477,270.619L477.22,271.063L476.963,271.507L476.704,271.95L476.443,272.392L476.181,272.833L475.918,273.273L475.654,273.713L475.389,274.151L475.122,274.589L474.854,275.026L474.584,275.462L474.313,275.897L474.041,276.331L473.768,276.764L473.494,277.197L473.218,277.628L472.941,278.059L472.663,278.489L472.383,278.918L472.102,279.346L471.82,279.773L471.537,280.199L471.252,280.624L470.967,281.049L470.68,281.472L470.391,281.895L470.102,282.316L469.811,282.737L469.519,283.157L469.226,283.576L468.932,283.994L468.636,284.411L468.339,284.827L468.041,285.242L467.742,285.656L467.441,286.07L467.139,286.482L466.836,286.894L466.532,287.304L466.227,287.714L465.92,288.122L465.613,288.53L465.304,288.937L464.994,289.342L464.682,289.747L464.37,290.151L464.056,290.554L463.741,290.956L463.425,291.357L463.108,291.757L462.79,292.156L462.47,292.554L462.149,292.951L461.828,293.347L461.504,293.742L461.18,294.136L460.855,294.529L460.528,294.921L460.201,295.312L459.872,295.702L459.542,296.091L459.211,296.479L458.878,296.866L458.545,297.252L458.211,297.637L457.875,298.021L457.538,298.404L457.2,298.786L456.861,299.167L456.521,299.547L456.18,299.926L455.837,300.304L455.494,300.681L455.149,301.057L454.803,301.432L454.456,301.805L454.108,302.178L453.759,302.55L453.409,302.92L453.058,303.29L452.705,303.658L452.352,304.026L451.997,304.392L451.642,304.758L451.285,305.122L450.927,305.485L450.568,305.847L450.208,306.208L449.847,306.568L449.485,306.927L449.122,307.285L448.758,307.642L448.392,307.997L448.026,308.352L447.658,308.705L447.29,309.058L446.92,309.409L446.55,309.759L446.178,310.108L445.805,310.456L445.432,310.803L445.057,311.149L444.681,311.494L444.304,311.837L443.926,312.18L443.547,312.521L443.167,312.861L442.786,313.2L442.404,313.538L442.021,313.875L441.637,314.211L441.252,314.545L440.866,314.878L440.479,315.211L440.091,315.542L439.702,315.872L439.312,316.201L438.921,316.528L438.529,316.855L438.136,317.18L437.742,317.504L437.347,317.828L436.951,318.149L436.554,318.47L436.156,318.79L435.757,319.108L435.357,319.425L434.956,319.741L434.554,320.056L434.151,320.37L433.747,320.682L433.342,320.994L432.937,321.304L432.53,321.613L432.122,321.92L431.714,322.227L431.304,322.532L430.894,322.836L430.482,323.139L430.07,323.441L429.656,323.742L429.242,324.041L428.827,324.339L428.411,324.636L427.994,324.932L427.576,325.226L427.157,325.519L426.737,325.811L426.316,326.102L425.895,326.391L425.472,326.68L425.049,326.967L424.624,327.252L424.199,327.537L423.773,327.82L423.346,328.102L422.918,328.383L422.489,328.663L422.059,328.941L421.628,329.218L421.197,329.494L420.764,329.768L420.331,330.041L419.897,330.313L419.462,330.584L419.026,330.854L418.589,331.122L418.151,331.389L417.713,331.654L417.273,331.918L416.833,332.181L416.392,332.443L415.95,332.704L415.507,332.963L415.063,333.22L414.619,333.477L414.173,333.732L413.727,333.986L413.28,334.239L412.832,334.49L412.383,334.74L411.934,334.989L411.483,335.236L411.032,335.482L410.58,335.727L410.127,335.97L409.673,336.212L409.219,336.453L408.764,336.692L408.307,336.93L407.851,337.167L407.393,337.402L406.934,337.636L406.475,337.869L406.015,338.1L405.554,338.33L405.092,338.559L404.629,338.786L404.166,339.012L403.702,339.236L403.237,339.459L402.771,339.681L402.305,339.901L401.838,340.12L401.37,340.338L400.901,340.554L400.432,340.769L399.961,340.983L399.49,341.195L399.018,341.406L398.546,341.615L398.072,341.823L397.598,342.029L397.124,342.235L396.648,342.438L396.172,342.641L395.695,342.841L395.217,343.041L394.738,343.239L394.259,343.436L393.779,343.631L393.298,343.825L392.817,344.017L392.335,344.208L391.852,344.398L391.368,344.586L390.884,344.773L390.399,344.958L389.913,345.142L389.427,345.324L388.94,345.505L388.452,345.684L387.963,345.862L387.474,346.039L386.984,346.214L386.493,346.388L386.002,346.56L385.51,346.731L385.017,346.9L384.524,347.068L384.03,347.234L383.535,347.399L383.04,347.562L382.544,347.724L382.047,347.885L381.55,348.044L381.052,348.201L380.553,348.357L380.053,348.512L379.553,348.665L379.053,348.816L378.551,348.966L378.049,349.115L377.547,349.262L377.043,349.407L376.54,349.551L376.035,349.693L375.53,349.834L375.024,349.974L374.518,350.112L374.011,350.248L373.503,350.383L372.995,350.516L372.486,350.648L371.976,350.778L371.466,350.907L370.955,351.034L370.444,351.16L369.932,351.284L369.419,351.406L368.906,351.527L368.392,351.647L367.878,351.765L367.363,351.881L366.847,351.996L366.331,352.109L365.815,352.221L365.297,352.331L364.779,352.439L364.261,352.546L363.742,352.652L363.222,352.755L362.702,352.858L362.181,352.958L361.66,353.057L361.138,353.155L360.616,353.251L360.093,353.345L359.569,353.437L359.045,353.529L358.521,353.618L357.995,353.706L357.47,353.792L356.943,353.877L356.417,353.96L355.889,354.041L355.361,354.121L354.833,354.199L354.304,354.276L353.775,354.351L353.245,354.424L352.714,354.496L352.183,354.566L351.652,354.634L351.12,354.701L350.587,354.766L350.054,354.83L349.521,354.891L348.987,354.952L348.452,355.01L347.917,355.067L347.382,355.122L346.845,355.176L346.309,355.228L345.772,355.278L345.235,355.327L344.697,355.374L344.158,355.419L343.619,355.462L343.08,355.504L342.54,355.545L342,355.583L341.459,355.62L340.918,355.655L340.376,355.689L339.834,355.72L339.291,355.75L338.748,355.779L338.205,355.805L337.661,355.83L337.116,355.854L336.571,355.875L336.026,355.895L335.48,355.913L334.934,355.93L334.388,355.944L333.841,355.957L333.293,355.969L332.745,355.978L332.197,355.986L331.649,355.992L331.099,355.997L330.55,355.999L330,356ZM330,314.333L330.418,314.333L330.837,314.331L331.252,314.327L331.669,314.323L332.087,314.317L332.502,314.31L332.917,314.301L333.332,314.291L333.747,314.28L334.162,314.267L334.576,314.254L334.99,314.239L335.402,314.222L335.814,314.205L336.227,314.186L336.638,314.166L337.05,314.144L337.462,314.121L337.871,314.097L338.282,314.072L338.692,314.045L339.102,314.017L339.511,313.988L339.918,313.958L340.326,313.926L340.734,313.893L341.142,313.859L341.549,313.823L341.955,313.787L342.361,313.749L342.767,313.709L343.172,313.669L343.576,313.627L343.981,313.584L344.385,313.54L344.788,313.494L345.191,313.448L345.594,313.4L345.996,313.35L346.398,313.3L346.798,313.249L347.199,313.196L347.6,313.141L348.001,313.086L348.4,313.029L348.799,312.972L349.198,312.913L349.596,312.853L349.994,312.791L350.391,312.729L350.787,312.665L351.184,312.6L351.581,312.533L351.976,312.466L352.371,312.397L352.766,312.327L353.16,312.256L353.554,312.184L353.948,312.11L354.34,312.036L354.732,311.96L355.126,311.883L355.517,311.805L355.908,311.725L356.298,311.645L356.688,311.563L357.079,311.48L357.468,311.396L357.856,311.311L358.245,311.224L358.633,311.137L359.02,311.048L359.407,310.958L359.793,310.867L360.18,310.774L360.566,310.681L360.951,310.586L361.336,310.49L361.72,310.394L362.104,310.295L362.486,310.196L362.87,310.096L363.252,309.994L363.632,309.892L364.015,309.788L364.396,309.683L364.776,309.577L365.156,309.469L365.536,309.361L365.914,309.251L366.294,309.141L366.671,309.029L367.048,308.916L367.425,308.802L367.803,308.687L368.178,308.57L368.553,308.453L368.928,308.335L369.303,308.215L369.677,308.094L370.051,307.972L370.423,307.849L370.797,307.725L371.168,307.6L371.539,307.474L371.91,307.346L372.282,307.217L372.651,307.088L373.02,306.957L373.39,306.825L373.757,306.692L374.125,306.558L374.493,306.423L374.859,306.287L375.227,306.149L375.593,306.011L375.957,305.871L376.322,305.731L376.686,305.589L377.05,305.446L377.414,305.302L377.776,305.157L378.137,305.012L378.499,304.864L378.861,304.716L379.22,304.567L379.581,304.417L379.941,304.265L380.299,304.113L380.657,303.959L381.015,303.805L381.372,303.649L381.729,303.493L382.085,303.335L382.441,303.176L382.796,303.016L383.15,302.855L383.504,302.693L383.858,302.53L384.21,302.366L384.562,302.201L384.914,302.035L385.264,301.868L385.615,301.7L385.966,301.53L386.314,301.36L386.663,301.189L387.011,301.017L387.359,300.843L387.705,300.669L388.052,300.494L388.398,300.317L388.743,300.139L389.088,299.961L389.432,299.782L389.776,299.601L390.118,299.419L390.459,299.237L390.801,299.054L391.143,298.869L391.484,298.683L391.823,298.496L392.162,298.309L392.5,298.121L392.838,297.931L393.175,297.741L393.513,297.548L393.849,297.356L394.184,297.163L394.519,296.968L394.853,296.772L395.188,296.575L395.52,296.378L395.852,296.18L396.183,295.981L396.514,295.78L396.846,295.578L397.176,295.375L397.504,295.173L397.832,294.969L398.161,294.763L398.488,294.556L398.814,294.35L399.141,294.14L399.466,293.931L399.79,293.722L400.114,293.511L400.437,293.298L400.759,293.086L401.082,292.871L401.403,292.656L401.722,292.441L402.044,292.224L402.363,292.006L402.68,291.788L402.999,291.568L403.317,291.347L403.632,291.126L403.948,290.903L404.264,290.68L404.578,290.455L404.892,290.23L405.204,290.005L405.518,289.777L405.829,289.549L406.139,289.321L406.45,289.09L406.76,288.859L407.068,288.628L407.377,288.395L407.684,288.161L407.991,287.927L408.296,287.692L408.601,287.456L408.906,287.218L409.211,286.98L409.514,286.741L409.816,286.501L410.117,286.261L410.418,286.019L410.718,285.777L411.018,285.534L411.316,285.289L411.614,285.044L411.912,284.798L412.209,284.55L412.504,284.303L412.799,284.055L413.093,283.805L413.387,283.554L413.68,283.303L413.971,283.052L414.263,282.798L414.553,282.544L414.842,282.29L415.132,282.034L415.42,281.777L415.706,281.521L415.994,281.262L416.28,281.003L416.564,280.744L416.848,280.483L417.132,280.221L417.416,279.958L417.697,279.695L417.978,279.432L418.259,279.166L418.538,278.901L418.816,278.635L419.095,278.367L419.372,278.098L419.648,277.83L419.923,277.56L420.198,277.29L420.472,277.018L420.745,276.745L421.018,276.472L421.29,276.198L421.56,275.923L421.83,275.648L422.098,275.372L422.367,275.095L422.635,274.816L422.901,274.538L423.166,274.259L423.432,273.978L423.695,273.697L423.958,273.416L424.221,273.132L424.483,272.848L424.744,272.564L425.003,272.28L425.262,271.994L425.521,271.706L425.777,271.42L426.034,271.132L426.29,270.842L426.544,270.553L426.798,270.263L427.052,269.971L427.303,269.68L427.554,269.387L427.805,269.093L428.055,268.799L428.303,268.504L428.55,268.209L428.798,267.912L429.044,267.614L429.289,267.316L429.534,267.018L429.777,266.718L430.019,266.418L430.261,266.117L430.501,265.816L430.741,265.514L430.98,265.211L431.218,264.906L431.456,264.601L431.692,264.296L431.927,263.991L432.161,263.684L432.395,263.377L432.628,263.068L432.859,262.76L433.09,262.45L433.321,262.139L433.549,261.829L433.777,261.518L434.005,261.204L434.23,260.892L434.455,260.578L434.68,260.264L434.903,259.948L435.126,259.632L435.347,259.317L435.568,258.999L435.788,258.68L436.006,258.363L436.224,258.044L436.441,257.722L436.656,257.403L436.871,257.082L437.086,256.759L437.298,256.437L437.511,256.114L437.722,255.79L437.931,255.466L438.14,255.141L438.35,254.814L438.556,254.488L438.763,254.161L438.969,253.832L439.173,253.504L439.375,253.176L439.578,252.846L439.78,252.514L439.981,252.183L440.18,251.852L440.378,251.52L440.575,251.188L440.772,250.853L440.968,250.519L441.163,250.184L441.356,249.849L441.548,249.513L441.741,249.175L441.931,248.838L442.121,248.5L442.309,248.162L442.496,247.823L442.683,247.484L442.869,247.143L443.054,246.801L443.237,246.459L443.419,246.118L443.601,245.776L443.782,245.432L443.961,245.088L444.139,244.743L444.317,244.398L444.494,244.052L444.669,243.705L444.843,243.359L445.017,243.011L445.189,242.663L445.36,242.314L445.53,241.966L445.7,241.615L445.868,241.264L446.035,240.914L446.201,240.562L446.366,240.21L446.53,239.858L446.693,239.504L446.855,239.15L447.016,238.796L447.176,238.441L447.335,238.085L447.493,237.729L447.649,237.373L447.805,237.016L447.96,236.657L448.113,236.299L448.265,235.941L448.417,235.581L448.567,235.22L448.716,234.861L448.864,234.499L449.012,234.138L449.157,233.777L449.302,233.413L449.446,233.049L449.589,232.686L449.731,232.322L449.871,231.957L450.011,231.593L450.149,231.226L450.287,230.859L450.423,230.493L450.558,230.126L450.692,229.757L450.825,229.39L450.957,229.02L451.088,228.651L451.217,228.281L451.346,227.91L451.474,227.539L451.6,227.168L451.725,226.797L451.849,226.424L451.972,226.051L452.094,225.677L452.215,225.303L452.335,224.928L452.453,224.552L452.57,224.178L452.687,223.803L452.802,223.425L452.916,223.048L453.029,222.671L453.141,222.293L453.251,221.915L453.361,221.536L453.469,221.156L453.577,220.776L453.683,220.396L453.788,220.015L453.892,219.633L453.994,219.252L454.096,218.87L454.196,218.487L454.295,218.104L454.394,217.719L454.49,217.336L454.586,216.951L454.681,216.566L454.774,216.18L454.867,215.793L454.958,215.407L455.048,215.021L455.137,214.633L455.224,214.245L455.311,213.856L455.396,213.468L455.48,213.079L455.563,212.688L455.645,212.298L455.725,211.907L455.805,211.517L455.883,211.126L455.96,210.732L456.036,210.34L456.11,209.948L456.184,209.554L456.256,209.16L456.327,208.767L456.397,208.371L456.466,207.976L456.533,207.582L456.6,207.184L456.665,206.787L456.729,206.391L456.791,205.994L456.853,205.596L456.913,205.198L456.972,204.799L457.029,204.4L457.086,204.001L457.141,203.6L457.196,203.199L457.249,202.798L457.3,202.398L457.35,201.996L457.4,201.594L457.448,201.191L457.494,200.788L457.54,200.385L457.584,199.981L457.627,199.576L457.669,199.172L457.709,198.767L457.749,198.361L457.787,197.955L457.823,197.549L457.859,197.142L457.893,196.734L457.926,196.326L457.958,195.918L457.988,195.511L458.017,195.102L458.045,194.692L458.072,194.282L458.097,193.871L458.121,193.462L458.144,193.05L458.166,192.639L458.186,192.227L458.205,191.814L458.222,191.402L458.239,190.99L458.254,190.576L458.267,190.162L458.28,189.747L458.291,189.332L458.301,188.917L458.31,188.502L458.317,188.087L458.323,187.669L458.327,187.252L458.331,186.837L458.333,186.418L458.333,186L458.333,185.582L458.331,185.163L458.327,184.748L458.323,184.331L458.317,183.913L458.31,183.498L458.301,183.083L458.291,182.668L458.28,182.253L458.267,181.838L458.254,181.424L458.239,181.01L458.222,180.598L458.205,180.186L458.186,179.773L458.166,179.361L458.144,178.95L458.121,178.538L458.097,178.129L458.072,177.718L458.045,177.308L458.017,176.898L457.988,176.489L457.958,176.082L457.926,175.674L457.893,175.266L457.859,174.858L457.823,174.451L457.787,174.045L457.749,173.639L457.709,173.233L457.669,172.828L457.627,172.424L457.584,172.019L457.54,171.615L457.494,171.212L457.448,170.809L457.4,170.406L457.35,170.004L457.3,169.602L457.249,169.202L457.196,168.801L457.141,168.4L457.086,167.999L457.029,167.6L456.972,167.201L456.913,166.802L456.853,166.404L456.791,166.006L456.729,165.609L456.665,165.213L456.6,164.816L456.533,164.418L456.466,164.024L456.397,163.629L456.327,163.233L456.256,162.84L456.184,162.446L456.11,162.052L456.036,161.66L455.96,161.268L455.883,160.874L455.805,160.483L455.725,160.093L455.645,159.702L455.563,159.312L455.48,158.921L455.396,158.532L455.311,158.144L455.224,157.755L455.137,157.367L455.048,156.979L454.958,156.593L454.867,156.207L454.774,155.82L454.681,155.434L454.586,155.049L454.49,154.664L454.394,154.281L454.295,153.896L454.196,153.513L454.096,153.13L453.994,152.748L453.892,152.367L453.788,151.985L453.683,151.604L453.577,151.224L453.469,150.844L453.361,150.464L453.251,150.085L453.141,149.707L453.029,149.329L452.916,148.952L452.802,148.575L452.687,148.197L452.57,147.822L452.453,147.448L452.335,147.072L452.215,146.697L452.094,146.323L451.972,145.949L451.849,145.576L451.725,145.203L451.6,144.832L451.474,144.461L451.346,144.09L451.217,143.719L451.088,143.349L450.957,142.98L450.825,142.61L450.692,142.243L450.558,141.875L450.423,141.507L450.287,141.141L450.149,140.774L450.011,140.407L449.871,140.043L449.731,139.678L449.589,139.314L449.446,138.95L449.302,138.587L449.157,138.224L449.012,137.862L448.864,137.501L448.716,137.139L448.567,136.78L448.417,136.419L448.265,136.059L448.113,135.701L447.96,135.343L447.805,134.984L447.649,134.627L447.493,134.271L447.335,133.915L447.176,133.559L447.016,133.204L446.855,132.85L446.693,132.496L446.53,132.143L446.366,131.789L446.201,131.438L446.035,131.087L445.868,130.736L445.7,130.385L445.53,130.034L445.36,129.686L445.189,129.337L445.017,128.989L444.843,128.641L444.669,128.295L444.493,127.948L444.317,127.602L444.139,127.257L443.961,126.912L443.782,126.568L443.601,126.224L443.42,125.882L443.237,125.541L443.054,125.199L442.869,124.857L442.683,124.516L442.496,124.177L442.309,123.838L442.12,123.499L441.931,123.162L441.741,122.825L441.548,122.487L441.356,122.151L441.163,121.816L440.968,121.481L440.772,121.147L440.575,120.812L440.378,120.48L440.18,120.148L439.981,119.817L439.78,119.486L439.578,119.154L439.376,118.825L439.173,118.496L438.968,118.168L438.763,117.84L438.557,117.512L438.349,117.186L438.141,116.859L437.932,116.534L437.722,116.21L437.511,115.886L437.298,115.563L437.086,115.241L436.871,114.918L436.656,114.597L436.441,114.278L436.224,113.957L436.006,113.637L435.788,113.319L435.568,113.001L435.347,112.683L435.126,112.367L434.904,112.052L434.68,111.736L434.455,111.422L434.23,111.108L434.004,110.796L433.777,110.483L433.549,110.171L433.32,109.861L433.09,109.55L432.859,109.241L432.627,108.931L432.395,108.623L432.162,108.316L431.927,108.009L431.692,107.704L431.456,107.399L431.218,107.094L430.98,106.79L430.741,106.486L430.501,106.184L430.261,105.883L430.019,105.582L429.777,105.281L429.534,104.982L429.289,104.683L429.044,104.386L428.798,104.088L428.551,103.792L428.303,103.496L428.055,103.201L427.805,102.907L427.555,102.613L427.303,102.321L427.051,102.029L426.798,101.737L426.544,101.447L426.29,101.158L426.034,100.868L425.778,100.58L425.521,100.293L425.262,100.006L425.003,99.7204L424.743,99.4353L424.482,99.1511L424.221,98.8679L423.958,98.5847L423.695,98.3025L423.431,98.022L423.167,97.7417L422.901,97.4622L422.634,97.1836L422.367,96.9053L422.098,96.6281L421.83,96.3522L421.56,96.0766L421.29,95.8021L421.018,95.5277L420.745,95.2542L420.472,94.9823L420.198,94.7108L419.924,94.4402L419.648,94.1703L419.372,93.9015L419.095,93.6331L418.816,93.3656L418.538,93.0995L418.259,92.8338L417.978,92.5684L417.697,92.3046L417.415,92.0417L417.132,91.7791L416.848,91.517L416.564,91.2563L416.28,90.9972L415.994,90.7379L415.707,90.4795L415.42,90.2225L415.132,89.966L414.843,89.7106L414.553,89.456L414.263,89.2018L413.971,88.9485L413.68,88.6968L413.387,88.4456L413.093,88.1947L412.799,87.9452L412.504,87.6968L412.209,87.4494L411.912,87.2023L411.614,86.9558L411.316,86.7107L411.018,86.4666L410.718,86.2229L410.418,85.9807L410.118,85.7396L409.816,85.4984L409.513,85.2586L409.21,85.0198L408.906,84.7815L408.602,84.5443L408.296,84.308L407.991,84.0731L407.684,83.8388L407.376,83.6049L407.068,83.3721L406.76,83.1408L406.45,82.9099L406.139,82.6797L405.829,82.4512L405.518,82.2234L405.204,81.9957L404.892,81.7698L404.578,81.5445L404.264,81.3202L403.949,81.097L403.632,80.8742L403.316,80.6529L402.999,80.4322L402.681,80.2126L402.362,79.9939L402.043,79.7762L401.723,79.5592L401.403,79.3436L401.082,79.1286L400.76,78.9145L400.437,78.7016L400.113,78.4892L399.79,78.2783L399.466,78.0684L399.14,77.8592L398.814,77.6505L398.488,77.4436L398.161,77.2374L397.832,77.0316L397.504,76.8274L397.175,76.6244L396.845,76.4216L396.515,76.2202L396.184,76.0199L395.852,75.8201L395.519,75.6215L395.187,75.4243L394.853,75.2278L394.519,75.032L394.184,74.8375L393.849,74.6441L393.513,74.4514L393.176,74.2598L392.839,74.0693L392.5,73.8794L392.162,73.6909L391.823,73.5035L391.483,73.3168L391.143,73.1312L390.802,72.9467L390.46,72.7631L390.118,72.5807L389.775,72.3991L389.432,72.2185L389.087,72.0389L388.743,71.8605L388.398,71.6831L388.052,71.5065L387.706,71.3313L387.359,71.1568L387.011,70.9832L386.663,70.8111L386.314,70.6398L385.965,70.4695L385.615,70.3002L385.264,70.1318L384.914,69.9649L384.562,69.7989L384.21,69.6337L383.857,69.4697L383.504,69.3066L383.15,69.1447L382.796,68.9838L382.441,68.824L382.085,68.6653L381.729,68.5074L381.372,68.3507L381.015,68.1951L380.658,68.0407L380.299,67.8872L379.94,67.7347L379.581,67.5833L379.221,67.4329L378.861,67.2838L378.5,67.1357L378.138,66.9885L377.776,66.8425L377.413,66.6977L377.05,66.5538L376.686,66.411L376.322,66.2693L375.957,66.1286L375.592,65.9892L375.226,65.8508L374.86,65.7134L374.493,65.5772L374.125,65.4419L373.757,65.3078L373.389,65.175L373.02,65.043L372.651,64.9124L372.281,64.7827L371.91,64.654L371.539,64.5266L371.168,64.4003L370.796,64.275L370.423,64.1509L370.051,64.028L369.677,63.9061L369.303,63.7851L368.928,63.6655L368.554,63.547L368.178,63.4294L367.802,63.3132L367.425,63.198L367.048,63.0839L366.671,62.971L366.293,62.8592L365.914,62.7485L365.536,62.639L365.156,62.5306L364.776,62.4233L364.396,62.3173L364.015,62.2123L363.633,62.1084L363.252,62.0058L362.869,61.9042L362.487,61.8038L362.103,61.7046L361.72,61.6065L361.335,61.5095L360.951,61.4137L360.566,61.3191L360.18,61.2256L359.794,61.1334L359.408,61.0423L359.02,60.9522L358.633,60.8634L358.245,60.7758L357.857,60.6893L357.468,60.6041L357.079,60.5199L356.689,60.437L356.299,60.3552L355.908,60.2746L355.517,60.1952L355.125,60.117L354.733,60.04L354.341,59.9642L353.948,59.8895L353.554,59.816L353.16,59.7437L352.766,59.6727L352.372,59.6029L351.976,59.5342L351.58,59.4667L351.184,59.4004L350.788,59.3354L350.391,59.2715L349.994,59.2089L349.596,59.1475L349.198,59.0873L348.799,59.0282L348.4,58.9705L348,58.9139L347.6,58.8586L347.2,58.8045L346.799,58.7516L346.398,58.6999L345.996,58.6495L345.594,58.6003L345.191,58.5524L344.788,58.5057L344.385,58.4602L343.981,58.4159L343.577,58.373L343.172,58.3312L342.766,58.2907L342.361,58.2514L341.955,58.2135L341.549,58.1767L341.142,58.1412L340.734,58.107L340.327,58.074L339.919,58.0423L339.51,58.0119L339.101,57.9827L338.692,57.9548L338.282,57.9282L337.872,57.9029L337.461,57.8788L337.05,57.856L336.639,57.8345L336.227,57.8143L335.815,57.7953L335.402,57.7777L334.989,57.7613L334.575,57.7463L334.162,57.7325L333.747,57.72L333.333,57.7089L332.917,57.699L332.502,57.6905L332.086,57.6832L331.67,57.6773L331.253,57.6727L330.836,57.6694L330.418,57.6674L330,57.6667L329.582,57.6674L329.164,57.6694L328.747,57.6727L328.33,57.6773L327.914,57.6832L327.498,57.6905L327.083,57.699L326.667,57.7089L326.253,57.72L325.838,57.7325L325.425,57.7463L325.011,57.7613L324.598,57.7777L324.185,57.7953L323.773,57.8143L323.361,57.8345L322.95,57.856L322.539,57.8788L322.128,57.9029L321.718,57.9282L321.308,57.9548L320.899,57.9827L320.49,58.0119L320.081,58.0423L319.673,58.074L319.266,58.107L318.858,58.1412L318.451,58.1767L318.045,58.2135L317.639,58.2514L317.234,58.2907L316.828,58.3312L316.423,58.373L316.019,58.4159L315.615,58.4602L315.212,58.5057L314.809,58.5524L314.406,58.6003L314.004,58.6495L313.602,58.6999L313.201,58.7516L312.8,58.8045L312.4,58.8586L312,58.9139L311.6,58.9705L311.201,59.0282L310.802,59.0873L310.404,59.1475L310.006,59.2089L309.609,59.2715L309.212,59.3354L308.816,59.4004L308.42,59.4667L308.024,59.5342L307.628,59.6029L307.234,59.6727L306.84,59.7437L306.446,59.816L306.052,59.8895L305.659,59.9642L305.267,60.04L304.875,60.117L304.483,60.1952L304.092,60.2746L303.701,60.3552L303.311,60.437L302.921,60.5199L302.532,60.6041L302.143,60.6893L301.755,60.7758L301.367,60.8634L300.98,60.9522L300.592,61.0423L300.206,61.1334L299.82,61.2256L299.434,61.3191L299.049,61.4137L298.665,61.5095L298.28,61.6065L297.897,61.7046L297.513,61.8038L297.131,61.9042L296.748,62.0058L296.367,62.1084L295.985,62.2123L295.604,62.3173L295.224,62.4233L294.844,62.5306L294.464,62.639L294.086,62.7485L293.707,62.8592L293.329,62.971L292.952,63.0839L292.575,63.198L292.198,63.3132L291.822,63.4294L291.446,63.547L291.072,63.6655L290.697,63.7851L290.323,63.9061L289.949,64.028L289.577,64.1509L289.204,64.275L288.832,64.4003L288.461,64.5266L288.09,64.654L287.719,64.7827L287.349,64.9124L286.98,65.043L286.611,65.175L286.243,65.3078L285.875,65.4419L285.507,65.5772L285.14,65.7134L284.774,65.8508L284.408,65.9892L284.043,66.1286L283.678,66.2693L283.314,66.411L282.95,66.5538L282.587,66.6977L282.224,66.8425L281.862,66.9885L281.5,67.1357L281.139,67.2838L280.779,67.4329L280.419,67.5833L280.06,67.7347L279.701,67.8872L279.342,68.0407L278.985,68.1951L278.628,68.3507L278.271,68.5074L277.915,68.6653L277.559,68.824L277.204,68.9838L276.85,69.1447L276.496,69.3066L276.143,69.4697L275.79,69.6337L275.438,69.7989L275.086,69.9649L274.736,70.1318L274.385,70.3002L274.035,70.4695L273.686,70.6397L273.337,70.8111L272.989,70.9834L272.641,71.1568L272.294,71.3311L271.948,71.5065L271.602,71.6831L271.257,71.8605L270.913,72.0389L270.568,72.2185L270.225,72.3991L269.882,72.5806L269.54,72.763L269.198,72.9467L268.857,73.1312L268.517,73.3168L268.177,73.5035L267.838,73.6911L267.5,73.8795L267.161,74.0693L266.824,74.2598L266.487,74.4514L266.151,74.6441L265.816,74.8375L265.481,75.0321L265.147,75.2276L264.813,75.4242L264.48,75.6217L264.148,75.8203L263.816,76.0199L263.485,76.2202L263.155,76.4217L262.825,76.624L262.496,76.8274L262.167,77.0319L261.84,77.2371L261.512,77.4434L261.186,77.6509L260.86,77.859L260.535,78.0682L260.21,78.2783L259.886,78.4894L259.563,78.7016L259.24,78.9145L258.918,79.1286L258.597,79.3434L258.277,79.5594L257.957,79.7762L257.638,79.9939L257.319,80.2126L257.001,80.4322L256.684,80.6527L256.367,80.8744L256.051,81.097L255.736,81.3202L255.422,81.5445L255.108,81.7698L254.795,81.9962L254.483,82.2229L254.171,82.451L253.86,82.6801L253.55,82.9099L253.241,83.1406L252.932,83.3724L252.624,83.6049L252.316,83.8386L252.009,84.0731L251.703,84.3082L251.398,84.5443L251.094,84.7815L250.79,85.0198L250.487,85.2586L250.184,85.4984L249.883,85.7391L249.582,85.9807L249.282,86.2231L248.982,86.4666L248.683,86.7109L248.385,86.956L248.088,87.2021L247.792,87.4489L247.496,87.6968L247.201,87.9454L246.907,88.1949L246.613,88.4456L246.321,88.6966L246.029,88.9488L245.737,89.2018L245.447,89.4557L245.157,89.7106L244.869,89.9658L244.58,90.2223L244.293,90.4798L244.006,90.7379L243.72,90.9969L243.435,91.2569L243.151,91.5176L242.868,91.7789L242.585,92.0411L242.303,92.3046L242.022,92.5687L241.742,92.8335L241.462,93.0992L241.183,93.3659L240.905,93.6331L240.628,93.9012L240.352,94.1703L240.076,94.4402L239.801,94.7111L239.528,94.9826L239.255,95.2545L238.982,95.5277L238.711,95.8018L238.44,96.0763L238.17,96.3519L237.901,96.6284L237.633,96.9056L237.366,97.1833L237.099,97.4619L236.834,97.7417L236.569,98.022L236.304,98.3032L236.041,98.585L235.779,98.8679L235.517,99.1511L235.257,99.4353L234.997,99.7207L234.738,100.006L234.48,100.293L234.222,100.58L233.966,100.868L233.711,101.157L233.456,101.447L233.202,101.738L232.949,102.029L232.697,102.321L232.445,102.613L232.195,102.907L231.945,103.201L231.697,103.496L231.449,103.792L231.202,104.088L230.956,104.386L230.711,104.683L230.467,104.982L230.223,105.281L229.981,105.582L229.739,105.883L229.498,106.184L229.259,106.487L229.019,106.79L228.782,107.094L228.544,107.398L228.308,107.704L228.073,108.009L227.839,108.316L227.605,108.624L227.372,108.932L227.141,109.241L226.91,109.55L226.68,109.86L226.451,110.171L226.223,110.483L225.996,110.795L225.77,111.108L225.545,111.422L225.32,111.737L225.097,112.052L224.874,112.367L224.653,112.684L224.432,113.001L224.213,113.319L223.994,113.638L223.776,113.957L223.559,114.277L223.344,114.597L223.129,114.918L222.915,115.24L222.702,115.563L222.489,115.887L222.278,116.21L222.068,116.534L221.859,116.86L221.651,117.186L221.443,117.512L221.237,117.84L221.032,118.167L220.827,118.496L220.624,118.825L220.422,119.155L220.22,119.485L220.02,119.816L219.82,120.148L219.622,120.48L219.424,120.813L219.228,121.147L219.032,121.481L218.838,121.816L218.644,122.152L218.451,122.488L218.26,122.824L218.069,123.161L217.88,123.499L217.691,123.838L217.503,124.177L217.317,124.517L217.131,124.858L216.947,125.198L216.763,125.54L216.581,125.882L216.399,126.225L216.218,126.568L216.039,126.913L215.86,127.257L215.683,127.602L215.507,127.948L215.331,128.294L215.157,128.641L214.983,128.989L214.811,129.337L214.64,129.686L214.469,130.035L214.3,130.385L214.132,130.735L213.965,131.086L213.799,131.438L213.633,131.79L213.469,132.143L213.307,132.496L213.145,132.85L212.984,133.204L212.824,133.559L212.665,133.915L212.508,134.271L212.351,134.627L212.195,134.985L212.041,135.342L211.887,135.701L211.735,136.06L211.583,136.419L211.433,136.779L211.284,137.139L211.136,137.5L210.988,137.862L210.843,138.224L210.698,138.587L210.554,138.95L210.411,139.313L210.269,139.678L210.129,140.043L209.989,140.408L209.851,140.774L209.713,141.14L209.577,141.507L209.442,141.875L209.308,142.242L209.175,142.611L209.043,142.98L208.912,143.349L208.783,143.719L208.654,144.089L208.527,144.461L208.4,144.832L208.275,145.204L208.151,145.576L208.028,145.95L207.906,146.323L207.785,146.697L207.665,147.072L207.547,147.446L207.429,147.822L207.313,148.199L207.198,148.574L207.084,148.952L206.971,149.329L206.859,149.707L206.749,150.085L206.639,150.464L206.531,150.844L206.423,151.223L206.317,151.604L206.212,151.985L206.108,152.366L206.006,152.748L205.904,153.13L205.804,153.513L205.705,153.897L205.606,154.281L205.509,154.665L205.414,155.049L205.319,155.434L205.226,155.82L205.133,156.206L205.042,156.593L204.952,156.979L204.863,157.367L204.776,157.755L204.689,158.143L204.604,158.532L204.52,158.921L204.437,159.312L204.355,159.702L204.275,160.092L204.195,160.484L204.117,160.875L204.04,161.267L203.964,161.66L203.889,162.053L203.816,162.446L203.744,162.84L203.673,163.234L203.603,163.628L203.534,164.023L203.467,164.42L203.4,164.816L203.335,165.212L203.272,165.609L203.209,166.006L203.147,166.404L203.087,166.802L203.028,167.201L202.97,167.6L202.914,168L202.859,168.4L202.805,168.8L202.752,169.201L202.7,169.602L202.65,170.004L202.6,170.406L202.552,170.809L202.506,171.212L202.46,171.616L202.416,172.019L202.373,172.424L202.331,172.828L202.291,173.233L202.251,173.639L202.213,174.045L202.177,174.452L202.141,174.858L202.107,175.266L202.074,175.674L202.042,176.081L202.012,176.49L201.983,176.899L201.955,177.308L201.928,177.718L201.903,178.128L201.879,178.539L201.856,178.95L201.835,179.361L201.814,179.773L201.795,180.185L201.778,180.598L201.761,181.011L201.746,181.425L201.733,181.838L201.72,182.253L201.709,182.668L201.699,183.083L201.69,183.498L201.683,183.914L201.677,184.331L201.673,184.748L201.669,185.164L201.667,185.582L201.667,186L201.667,186.418L201.669,186.836L201.673,187.252L201.677,187.669L201.683,188.086L201.69,188.502L201.699,188.917L201.709,189.332L201.72,189.747L201.733,190.162L201.746,190.575L201.761,190.989L201.778,191.402L201.795,191.815L201.814,192.227L201.835,192.639L201.856,193.05L201.879,193.461L201.903,193.872L201.928,194.282L201.955,194.692L201.983,195.101L202.012,195.51L202.042,195.919L202.074,196.326L202.107,196.734L202.141,197.142L202.177,197.548L202.213,197.955L202.251,198.361L202.291,198.767L202.331,199.172L202.373,199.576L202.416,199.981L202.46,200.384L202.506,200.788L202.552,201.191L202.6,201.594L202.65,201.996L202.7,202.398L202.752,202.799L202.805,203.2L202.859,203.6L202.914,204L202.97,204.4L203.028,204.799L203.087,205.198L203.147,205.596L203.209,205.994L203.272,206.391L203.335,206.788L203.4,207.184L203.467,207.58L203.534,207.977L203.603,208.372L203.673,208.766L203.744,209.16L203.816,209.554L203.889,209.947L203.964,210.34L204.04,210.733L204.117,211.125L204.195,211.516L204.275,211.908L204.355,212.298L204.437,212.688L204.52,213.079L204.604,213.468L204.689,213.857L204.776,214.245L204.863,214.633L204.952,215.021L205.042,215.407L205.133,215.794L205.226,216.18L205.319,216.566L205.414,216.951L205.509,217.335L205.606,217.719L205.705,218.103L205.804,218.487L205.904,218.87L206.006,219.252L206.108,219.634L206.212,220.015L206.317,220.396L206.423,220.777L206.531,221.156L206.639,221.536L206.749,221.915L206.859,222.293L206.971,222.671L207.084,223.048L207.198,223.426L207.313,223.801L207.429,224.178L207.547,224.554L207.665,224.928L207.785,225.303L207.906,225.677L208.028,226.05L208.151,226.424L208.275,226.796L208.4,227.168L208.527,227.539L208.654,227.911L208.783,228.281L208.912,228.651L209.043,229.02L209.175,229.389L209.308,229.758L209.442,230.126L209.577,230.493L209.713,230.86L209.851,231.226L209.989,231.592L210.129,231.957L210.269,232.322L210.411,232.687L210.554,233.05L210.698,233.413L210.843,233.776L210.988,234.138L211.136,234.5L211.284,234.861L211.433,235.221L211.583,235.581L211.735,235.94L211.887,236.299L212.041,236.658L212.195,237.015L212.351,237.373L212.508,237.729L212.665,238.085L212.824,238.441L212.984,238.796L213.145,239.15L213.307,239.504L213.47,239.857L213.633,240.209L213.799,240.563L213.965,240.914L214.132,241.264L214.3,241.615L214.469,241.965L214.64,242.314L214.811,242.663L214.983,243.011L215.157,243.359L215.331,243.706L215.506,244.052L215.683,244.398L215.86,244.743L216.039,245.087L216.218,245.432L216.399,245.775L216.581,246.119L216.763,246.46L216.947,246.801L217.131,247.142L217.317,247.483L217.503,247.823L217.691,248.162L217.879,248.5L218.069,248.839L218.26,249.176L218.451,249.512L218.644,249.849L218.838,250.184L219.032,250.519L219.228,250.853L219.424,251.187L219.622,251.519L219.82,251.852L220.02,252.184L220.22,252.515L220.422,252.845L220.624,253.175L220.827,253.504L221.032,253.833L221.237,254.161L221.444,254.488L221.65,254.814L221.859,255.14L222.069,255.466L222.278,255.79L222.489,256.113L222.702,256.437L222.915,256.76L223.129,257.082L223.344,257.403L223.559,257.723L223.776,258.043L223.994,258.362L224.212,258.681L224.432,258.999L224.653,259.316L224.874,259.632L225.097,259.948L225.32,260.263L225.545,260.578L225.77,260.892L225.996,261.204L226.223,261.518L226.451,261.829L226.68,262.139L226.91,262.45L227.141,262.76L227.372,263.068L227.605,263.376L227.839,263.685L228.073,263.991L228.308,264.296L228.544,264.602L228.782,264.906L229.02,265.21L229.259,265.513L229.498,265.816L229.739,266.118L229.981,266.418L230.223,266.718L230.467,267.018L230.711,267.316L230.956,267.614L231.202,267.912L231.449,268.209L231.697,268.504L231.945,268.799L232.195,269.093L232.446,269.387L232.697,269.68L232.949,269.971L233.202,270.262L233.456,270.553L233.711,270.843L233.966,271.132L234.223,271.42L234.479,271.707L234.738,271.994L234.997,272.28L235.256,272.564L235.517,272.848L235.779,273.132L236.042,273.415L236.304,273.697L236.568,273.978L236.834,274.259L237.1,274.538L237.366,274.816L237.633,275.094L237.902,275.372L238.17,275.648L238.44,275.924L238.711,276.198L238.982,276.472L239.254,276.745L239.527,277.017L239.802,277.289L240.077,277.56L240.352,277.83L240.628,278.098L240.905,278.367L241.184,278.634L241.462,278.901L241.742,279.167L242.022,279.431L242.303,279.695L242.585,279.959L242.868,280.221L243.151,280.482L243.435,280.743L243.72,281.003L244.006,281.262L244.293,281.521L244.58,281.778L244.868,282.034L245.158,282.29L245.447,282.544L245.737,282.798L246.029,283.051L246.321,283.304L246.613,283.554L246.907,283.805L247.201,284.054L247.496,284.303L247.792,284.551L248.088,284.798L248.386,285.044L248.683,285.289L248.982,285.534L249.281,285.777L249.582,286.019L249.883,286.261L250.184,286.501L250.486,286.741L250.789,286.98L251.094,287.218L251.399,287.456L251.704,287.692L252.009,287.927L252.316,288.162L252.623,288.395L252.931,288.627L253.241,288.86L253.55,289.09L253.861,289.32L254.171,289.549L254.483,289.777L254.795,290.004L255.108,290.23L255.422,290.455L255.736,290.68L256.052,290.903L256.367,291.126L256.684,291.347L257.001,291.568L257.32,291.788L257.637,292.006L257.956,292.224L258.277,292.441L258.597,292.656L258.918,292.871L259.241,293.086L259.563,293.298L259.886,293.511L260.21,293.722L260.534,293.932L260.859,294.141L261.186,294.349L261.512,294.557L261.84,294.763L262.168,294.968L262.496,295.173L262.825,295.376L263.154,295.578L263.486,295.78L263.817,295.981L264.148,296.18L264.48,296.378L264.813,296.575L265.147,296.772L265.481,296.968L265.816,297.163L266.151,297.356L266.487,297.548L266.825,297.741L267.162,297.931L267.499,298.12L267.838,298.309L268.177,298.496L268.516,298.683L268.857,298.869L269.199,299.054L269.541,299.237L269.882,299.419L270.224,299.601L270.568,299.782L270.912,299.961L271.257,300.139L271.602,300.317L271.948,300.494L272.295,300.669L272.641,300.843L272.989,301.017L273.337,301.189L273.686,301.36L274.034,301.53L274.385,301.7L274.736,301.868L275.086,302.035L275.438,302.201L275.79,302.366L276.142,302.53L276.496,302.693L276.85,302.855L277.204,303.016L277.559,303.176L277.915,303.335L278.271,303.493L278.628,303.649L278.985,303.805L279.343,303.959L279.701,304.113L280.059,304.265L280.419,304.417L280.78,304.567L281.139,304.716L281.501,304.864L281.863,305.012L282.224,305.157L282.586,305.302L282.95,305.446L283.314,305.589L283.678,305.731L284.043,305.871L284.407,306.011L284.773,306.149L285.141,306.287L285.507,306.423L285.875,306.558L286.243,306.692L286.61,306.825L286.98,306.957L287.349,307.088L287.718,307.217L288.09,307.346L288.461,307.474L288.832,307.6L289.203,307.725L289.577,307.849L289.949,307.972L290.323,308.094L290.697,308.215L291.072,308.335L291.447,308.453L291.822,308.57L292.197,308.687L292.575,308.802L292.952,308.916L293.329,309.029L293.706,309.141L294.086,309.251L294.464,309.361L294.844,309.469L295.224,309.577L295.604,309.683L295.985,309.788L296.368,309.892L296.748,309.994L297.13,310.096L297.514,310.196L297.896,310.295L298.28,310.394L298.664,310.49L299.049,310.586L299.434,310.681L299.82,310.774L300.207,310.867L300.593,310.958L300.98,311.048L301.367,311.137L301.755,311.224L302.144,311.311L302.532,311.396L302.921,311.48L303.312,311.563L303.702,311.645L304.092,311.725L304.483,311.805L304.874,311.883L305.268,311.96L305.66,312.036L306.052,312.11L306.446,312.184L306.84,312.256L307.234,312.327L307.629,312.397L308.024,312.466L308.419,312.533L308.816,312.6L309.213,312.665L309.609,312.729L310.006,312.791L310.404,312.853L310.802,312.913L311.201,312.972L311.6,313.029L311.999,313.086L312.4,313.141L312.801,313.196L313.202,313.249L313.602,313.3L314.004,313.35L314.406,313.4L314.809,313.448L315.212,313.494L315.615,313.54L316.019,313.584L316.424,313.627L316.828,313.669L317.233,313.709L317.639,313.749L318.045,313.787L318.451,313.823L318.858,313.859L319.266,313.893L319.674,313.926L320.082,313.958L320.489,313.988L320.898,314.017L321.308,314.045L321.718,314.072L322.129,314.097L322.538,314.121L322.95,314.144L323.362,314.166L323.773,314.186L324.186,314.205L324.598,314.222L325.01,314.239L325.424,314.254L325.838,314.267L326.253,314.28L326.668,314.291L327.083,314.301L327.498,314.31L327.913,314.317L328.331,314.323L328.748,314.327L329.163,314.331L329.582,314.333L330,314.333Z" style="fill:black;"/>
            </g>
            <g>
                <path d="M209.275,281.057C202.9,274.682 192.565,274.682 186.19,281.057L23.7809,443.466C17.4064,449.841 17.4064,460.176 23.7809,466.55L46.8654,489.635C53.2399,496.009 63.5752,496.009 69.9498,489.635L232.359,327.225C238.734,320.851 238.734,310.516 232.359,304.141L209.275,281.057Z" style="fill:black;"/>
            </g>
            <g>
                <path d="M380.093,110.496C353.755,84.1583 304.484,90.7279 270.042,125.17C235.601,159.611 229.031,208.883 255.369,235.22C250.106,211.365 263.034,174.832 291.369,146.496C319.704,118.161 356.238,105.233 380.093,110.496Z" style="fill:black;"/>
                <path d="M255.369,235.22L255.215,235.066L255.062,234.911L254.909,234.755L254.757,234.599L254.607,234.442L254.456,234.285L254.307,234.127L254.158,233.969L254.01,233.811L253.863,233.651L253.717,233.492L253.571,233.331L253.426,233.171L253.282,233.009L253.139,232.848L252.996,232.685L252.854,232.523L252.713,232.359L252.572,232.196L252.433,232.031L252.294,231.867L252.156,231.701L252.018,231.536L251.881,231.369L251.745,231.203L251.61,231.036L251.476,230.868L251.342,230.7L251.209,230.531L251.077,230.362L250.946,230.193L250.815,230.023L250.685,229.852L250.556,229.681L250.427,229.51L250.299,229.338L250.172,229.165L250.046,228.993L249.921,228.819L249.796,228.646L249.672,228.471L249.549,228.297L249.426,228.122L249.304,227.946L249.183,227.77L249.063,227.594L248.944,227.417L248.825,227.239L248.707,227.062L248.589,226.883L248.473,226.705L248.357,226.526L248.242,226.346L248.128,226.166L248.014,225.986L247.901,225.805L247.789,225.623L247.678,225.442L247.567,225.26L247.457,225.077L247.348,224.894L247.239,224.711L247.132,224.527L247.025,224.343L246.919,224.158L246.813,223.973L246.708,223.787L246.604,223.601L246.501,223.415L246.399,223.228L246.297,223.041L246.196,222.854L246.095,222.666L245.996,222.477L245.897,222.289L245.799,222.1L245.702,221.91L245.605,221.72L245.509,221.53L245.414,221.339L245.32,221.148L245.226,220.956L245.133,220.765L245.041,220.572L244.949,220.38L244.858,220.187L244.768,219.993L244.679,219.799L244.591,219.605L244.503,219.411L244.416,219.216L244.329,219.02L244.244,218.825L244.159,218.629L244.075,218.432L243.991,218.236L243.909,218.039L243.827,217.841L243.745,217.643L243.665,217.445L243.585,217.246L243.506,217.048L243.428,216.848L243.35,216.649L243.273,216.449L243.197,216.248L243.122,216.048L243.047,215.847L242.973,215.645L242.9,215.444L242.828,215.242L242.756,215.039L242.685,214.837L242.615,214.634L242.545,214.43L242.476,214.227L242.408,214.023L242.341,213.818L242.274,213.614L242.208,213.409L242.143,213.203L242.078,212.998L242.015,212.792L241.952,212.585L241.889,212.379L241.828,212.172L241.767,211.965L241.707,211.757L241.647,211.549L241.589,211.341L241.531,211.133L241.474,210.924L241.417,210.715L241.361,210.506L241.306,210.296L241.252,210.086L241.198,209.876L241.145,209.665L241.093,209.454L241.042,209.243L240.991,209.032L240.941,208.82L240.892,208.608L240.843,208.396L240.795,208.183L240.748,207.97L240.702,207.757L240.656,207.544L240.611,207.33L240.567,207.116L240.524,206.902L240.481,206.688L240.439,206.473L240.397,206.258L240.357,206.043L240.317,205.827L240.278,205.611L240.239,205.395L240.201,205.179L240.164,204.962L240.092,204.529L240.023,204.094L239.957,203.658L239.894,203.221L239.833,202.783L239.776,202.344L239.721,201.904L239.669,201.464L239.62,201.022L239.574,200.58L239.53,200.136L239.49,199.692L239.452,199.247L239.417,198.801L239.385,198.354L239.356,197.907L239.33,197.458L239.306,197.009L239.286,196.559L239.268,196.109L239.253,195.657L239.241,195.205L239.231,194.752L239.225,194.298L239.221,193.844L239.221,193.389L239.223,192.933L239.227,192.477L239.235,192.02L239.245,191.563L239.259,191.104L239.275,190.646L239.294,190.186L239.315,189.726L239.34,189.266L239.367,188.805L239.397,188.343L239.43,187.881L239.466,187.418L239.505,186.955L239.546,186.491L239.59,186.027L239.637,185.563L239.687,185.098L239.739,184.633L239.794,184.167L239.852,183.701L239.913,183.234L239.977,182.767L240.043,182.3L240.112,181.832L240.184,181.364L240.259,180.896L240.337,180.427L240.417,179.958L240.5,179.489L240.586,179.02L240.674,178.55L240.766,178.08L240.86,177.61L240.957,177.14L241.056,176.669L241.159,176.198L241.264,175.728L241.372,175.256L241.482,174.785L241.596,174.314L241.712,173.843L241.831,173.371L241.953,172.899L242.077,172.428L242.204,171.956L242.334,171.484L242.466,171.012L242.602,170.54L242.74,170.069L242.881,169.597L243.024,169.125L243.17,168.653L243.319,168.181L243.471,167.71L243.626,167.238L243.783,166.767L243.943,166.295L244.105,165.824L244.27,165.353L244.439,164.882L244.609,164.411L244.783,163.94L244.959,163.469L245.138,162.999L245.319,162.529L245.504,162.059L245.69,161.589L245.88,161.12L246.072,160.651L246.268,160.182L246.465,159.713L246.666,159.245L246.869,158.777L247.075,158.31L247.283,157.842L247.494,157.375L247.708,156.909L247.925,156.443L248.144,155.977L248.366,155.511L248.591,155.047L248.818,154.582L249.048,154.118L249.28,153.654L249.516,153.191L249.754,152.729L249.994,152.267L250.238,151.805L250.483,151.344L250.732,150.884L250.983,150.424L251.237,149.964L251.494,149.506L251.753,149.047L252.015,148.59L252.279,148.133L252.547,147.677L252.816,147.221L253.089,146.766L253.364,146.312L253.642,145.858L253.922,145.405L254.205,144.953L254.491,144.502L254.779,144.051L255.07,143.601L255.363,143.152L255.66,142.704L255.958,142.256L256.26,141.81L256.564,141.364L256.87,140.919L257.18,140.474L257.492,140.031L257.806,139.589L258.123,139.147L258.443,138.707L258.765,138.267L259.09,137.828L259.418,137.39L259.748,136.954L260.081,136.518L260.416,136.083L260.754,135.649L261.095,135.216L261.438,134.784L261.783,134.354L262.132,133.924L262.483,133.495L262.836,133.068L263.192,132.641L263.551,132.216L263.912,131.792L264.276,131.369L264.643,130.947L265.012,130.526L265.383,130.107L265.757,129.688L266.134,129.271L266.513,128.855L266.895,128.441L267.28,128.027L267.667,127.615L268.056,127.204L268.448,126.795L268.843,126.386L269.24,125.979L269.64,125.574L270.042,125.17L270.447,124.767L270.852,124.367L271.259,123.97L271.667,123.576L272.077,123.183L272.488,122.794L272.9,122.407L273.313,122.022L273.728,121.641L274.144,121.261L274.561,120.885L274.979,120.51L275.399,120.139L275.82,119.77L276.242,119.403L276.665,119.04L277.089,118.678L277.514,118.32L277.941,117.964L278.368,117.61L278.797,117.259L279.226,116.911L279.657,116.565L280.089,116.222L280.522,115.881L280.956,115.543L281.39,115.208L281.826,114.875L282.263,114.545L282.701,114.218L283.14,113.893L283.579,113.57L284.02,113.251L284.461,112.933L284.904,112.619L285.347,112.307L285.791,111.998L286.236,111.691L286.682,111.387L287.129,111.086L287.576,110.787L288.025,110.491L288.474,110.197L288.924,109.906L289.374,109.618L289.826,109.332L290.278,109.049L290.731,108.769L291.184,108.491L291.639,108.216L292.094,107.944L292.549,107.674L293.006,107.407L293.463,107.142L293.92,106.88L294.378,106.621L294.837,106.365L295.296,106.111L295.756,105.859L296.217,105.611L296.678,105.365L297.139,105.122L297.601,104.881L298.064,104.643L298.527,104.408L298.991,104.175L299.455,103.945L299.919,103.718L300.384,103.493L300.85,103.271L301.315,103.052L301.781,102.836L302.248,102.622L302.715,102.411L303.182,102.202L303.65,101.996L304.118,101.793L304.586,101.593L305.055,101.395L305.524,101.2L305.993,101.007L306.462,100.818L306.932,100.631L307.402,100.447L307.872,100.265L308.342,100.086L308.813,99.91L309.283,99.7365L309.754,99.5658L310.225,99.3978L310.696,99.2325L311.168,99.0699L311.639,98.91L312.111,98.7529L312.582,98.5985L313.054,98.4467L313.526,98.2978L313.998,98.1515L314.469,98.008L314.941,97.8672L315.413,97.7291L315.885,97.5938L316.357,97.4612L316.829,97.3313L317.3,97.2042L317.772,97.0798L318.244,96.9582L318.715,96.8393L319.187,96.7231L319.658,96.6097L320.129,96.4991L320.6,96.3912L321.071,96.286L321.542,96.1837L322.012,96.084L322.483,95.9872L322.953,95.893L323.423,95.8017L323.892,95.7131L324.362,95.6273L324.831,95.5442L325.3,95.4639L325.769,95.3864L326.237,95.3117L326.705,95.2397L327.172,95.1706L327.64,95.1041L328.107,95.0405L328.573,94.9797L329.039,94.9216L329.505,94.8663L329.971,94.8139L330.436,94.7642L330.9,94.7173L331.364,94.6731L331.828,94.6318L332.291,94.5933L332.754,94.5576L333.216,94.5247L333.677,94.4945L334.138,94.4672L334.599,94.4427L335.059,94.421L335.518,94.4021L335.977,94.386L336.435,94.3728L336.893,94.3623L337.35,94.3547L337.806,94.3498L338.262,94.3478L338.717,94.3487L339.171,94.3523L339.625,94.3588L340.078,94.3681L340.53,94.3802L340.981,94.3952L341.432,94.4129L341.882,94.4336L342.331,94.457L342.779,94.4833L343.227,94.5125L343.674,94.5445L344.12,94.5793L344.565,94.6169L345.009,94.6575L345.452,94.7008L345.895,94.747L346.336,94.7961L346.777,94.848L347.217,94.9028L347.656,94.9605L348.094,95.0209L348.53,95.0843L348.966,95.1505L349.401,95.2196L349.835,95.2916L350.052,95.3286L350.268,95.3664L350.484,95.4049L350.7,95.4441L350.915,95.484L351.131,95.5246L351.346,95.566L351.56,95.6081L351.775,95.6509L351.989,95.6944L352.203,95.7386L352.417,95.7836L352.63,95.8293L352.843,95.8757L353.056,95.9228L353.269,95.9706L353.481,96.0192L353.693,96.0685L353.905,96.1185L354.116,96.1692L354.327,96.2206L354.538,96.2728L354.748,96.3257L354.959,96.3793L355.169,96.4336L355.378,96.4887L355.588,96.5444L355.797,96.6009L356.005,96.6582L356.214,96.7161L356.422,96.7748L356.63,96.8342L356.837,96.8943L357.045,96.9552L357.251,97.0167L357.458,97.079L357.664,97.142L357.87,97.2058L358.076,97.2703L358.281,97.3355L358.486,97.4014L358.691,97.468L358.895,97.5354L359.099,97.6035L359.303,97.6723L359.506,97.7419L359.709,97.8122L359.912,97.8832L360.114,97.9549L360.316,98.0274L360.518,98.1006L360.719,98.1745L360.92,98.2492L361.121,98.3246L361.321,98.4007L361.521,98.4775L361.721,98.5551L361.92,98.6334L362.119,98.7124L362.318,98.7922L362.516,98.8727L362.714,98.9539L362.911,99.0359L363.108,99.1186L363.305,99.202L363.501,99.2861L363.697,99.371L363.893,99.4566L364.088,99.543L364.283,99.6301L364.478,99.7179L364.672,99.8064L364.866,99.8957L365.059,99.9857L365.252,100.076L365.445,100.168L365.637,100.26L365.829,100.353L366.021,100.447L366.212,100.541L366.402,100.636L366.593,100.732L366.783,100.829L366.972,100.926L367.161,101.024L367.35,101.123L367.538,101.223L367.726,101.323L367.914,101.424L368.101,101.526L368.288,101.628L368.474,101.732L368.66,101.836L368.846,101.94L369.031,102.046L369.215,102.152L369.4,102.259L369.583,102.367L369.767,102.475L369.95,102.584L370.132,102.694L370.314,102.805L370.496,102.916L370.677,103.028L370.858,103.141L371.039,103.255L371.219,103.369L371.398,103.484L371.577,103.6L371.756,103.717L371.934,103.834L372.112,103.952L372.289,104.071L372.466,104.19L372.643,104.311L372.819,104.432L372.994,104.554L373.169,104.676L373.344,104.799L373.518,104.923L373.692,105.048L373.865,105.174L374.038,105.3L374.211,105.427L374.382,105.554L374.554,105.683L374.725,105.812L374.895,105.942L375.065,106.073L375.235,106.204L375.404,106.336L375.573,106.469L375.741,106.603L375.908,106.738L376.075,106.873L376.242,107.009L376.408,107.145L376.574,107.283L376.739,107.421L376.904,107.56L377.068,107.7L377.232,107.84L377.395,107.981L377.558,108.123L377.72,108.266L377.882,108.409L378.043,108.553L378.204,108.698L378.364,108.844L378.524,108.99L378.683,109.138L378.842,109.286L379,109.434L379.158,109.584L379.315,109.734L379.472,109.885L379.628,110.036L379.783,110.189L379.939,110.342L380.093,110.496L379.813,110.435L379.532,110.376L379.249,110.319L378.966,110.263L378.681,110.208L378.395,110.156L378.108,110.105L377.82,110.056L377.531,110.008L377.241,109.962L376.949,109.918L376.657,109.876L376.364,109.835L376.069,109.795L375.773,109.758L375.477,109.722L375.179,109.687L374.88,109.655L374.581,109.624L374.28,109.594L373.978,109.567L373.675,109.54L373.371,109.516L373.067,109.493L372.761,109.472L372.454,109.452L372.147,109.435L371.838,109.418L371.528,109.404L371.218,109.391L370.906,109.379L370.594,109.37L370.28,109.362L369.966,109.355L369.651,109.35L369.335,109.347L369.018,109.346L368.7,109.346L368.382,109.347L368.062,109.351L367.742,109.356L367.42,109.362L367.098,109.37L366.775,109.38L366.451,109.392L366.127,109.405L365.801,109.42L365.475,109.436L365.148,109.454L364.82,109.473L364.491,109.494L364.162,109.517L363.832,109.542L363.501,109.568L363.169,109.595L362.837,109.624L362.503,109.655L362.169,109.688L361.835,109.722L361.499,109.757L361.163,109.795L360.826,109.834L360.489,109.874L360.151,109.916L359.812,109.96L359.472,110.005L359.132,110.052L358.791,110.1L358.449,110.15L358.107,110.202L357.764,110.255L357.421,110.31L357.077,110.367L356.732,110.425L356.387,110.484L356.041,110.546L355.694,110.608L355.347,110.673L355,110.739L354.651,110.806L354.303,110.876L353.953,110.946L353.603,111.019L353.253,111.093L352.902,111.168L352.55,111.245L352.198,111.324L351.846,111.404L351.493,111.486L351.139,111.569L350.785,111.654L350.431,111.741L350.076,111.829L349.72,111.919L349.364,112.01L349.008,112.103L348.651,112.197L348.294,112.293L347.936,112.391L347.578,112.49L347.22,112.59L346.861,112.693L346.502,112.796L346.142,112.902L345.782,113.009L345.421,113.117L345.061,113.227L344.699,113.339L344.338,113.452L343.976,113.567L343.614,113.683L343.251,113.801L342.888,113.92L342.525,114.041L342.162,114.164L341.798,114.288L341.434,114.413L341.069,114.54L340.704,114.669L340.34,114.799L339.974,114.931L339.609,115.064L339.243,115.199L338.877,115.336L338.511,115.474L338.145,115.613L337.778,115.754L337.411,115.897L337.044,116.041L336.677,116.187L336.309,116.334L335.942,116.482L335.574,116.633L335.206,116.785L334.838,116.938L334.469,117.093L334.101,117.249L333.732,117.407L333.364,117.566L332.995,117.727L332.626,117.89L332.257,118.054L331.888,118.219L331.518,118.386L331.149,118.555L330.78,118.725L330.41,118.897L330.041,119.07L329.671,119.245L329.301,119.421L328.932,119.598L328.562,119.778L328.192,119.958L327.822,120.141L327.453,120.324L327.083,120.51L326.713,120.696L326.343,120.885L325.974,121.075L325.604,121.266L325.234,121.459L324.865,121.653L324.495,121.849L324.125,122.046L323.756,122.245L323.387,122.445L323.017,122.647L322.648,122.85L322.279,123.055L321.91,123.261L321.541,123.469L321.172,123.679L320.803,123.889L320.435,124.102L320.066,124.315L319.698,124.531L319.33,124.748L318.962,124.966L318.594,125.186L318.227,125.407L317.859,125.629L317.492,125.854L317.125,126.079L316.758,126.307L316.391,126.535L316.025,126.765L315.659,126.997L315.293,127.23L314.927,127.465L314.562,127.701L314.196,127.938L313.831,128.177L313.467,128.418L313.102,128.66L312.738,128.903L312.375,129.148L312.011,129.394L311.648,129.642L311.285,129.891L310.922,130.142L310.56,130.394L310.198,130.648L309.837,130.903L309.476,131.16L309.115,131.418L308.754,131.678L308.394,131.939L308.035,132.201L307.675,132.465L307.317,132.73L306.958,132.997L306.6,133.265L306.242,133.535L305.885,133.806L305.528,134.079L305.172,134.353L304.816,134.629L304.461,134.906L304.106,135.184L303.751,135.464L303.397,135.745L303.044,136.028L302.691,136.313L302.338,136.598L301.986,136.885L301.635,137.174L301.284,137.464L300.933,137.755L300.584,138.048L300.234,138.343L299.886,138.638L299.537,138.936L299.19,139.234L298.843,139.534L298.496,139.836L298.15,140.139L297.805,140.443L297.46,140.749L297.116,141.056L296.773,141.365L296.43,141.675L296.088,141.986L295.746,142.299L295.406,142.614L295.065,142.929L294.726,143.246L294.387,143.565L294.049,143.885L293.711,144.207L293.375,144.529L293.039,144.854L292.703,145.179L292.369,145.507L292.035,145.835L291.701,146.165L291.369,146.496L291.038,146.829L290.708,147.162L290.379,147.496L290.052,147.83L289.726,148.166L289.402,148.502L289.079,148.839L288.758,149.176L288.438,149.514L288.119,149.853L287.802,150.193L287.486,150.533L287.172,150.874L286.859,151.215L286.547,151.557L286.237,151.9L285.929,152.244L285.622,152.588L285.316,152.932L285.011,153.278L284.708,153.623L284.407,153.97L284.107,154.317L283.808,154.665L283.511,155.013L283.215,155.362L282.921,155.711L282.628,156.061L282.337,156.411L282.047,156.762L281.758,157.114L281.471,157.466L281.185,157.818L280.901,158.171L280.618,158.525L280.337,158.879L280.057,159.233L279.778,159.588L279.501,159.943L279.226,160.299L278.952,160.656L278.679,161.012L278.408,161.37L278.138,161.727L277.87,162.085L277.603,162.444L277.338,162.803L277.074,163.162L276.811,163.522L276.55,163.882L276.291,164.242L276.033,164.603L275.776,164.964L275.521,165.326L275.267,165.688L275.015,166.05L274.764,166.412L274.515,166.775L274.267,167.138L274.021,167.502L273.776,167.866L273.532,168.23L273.29,168.594L273.05,168.959L272.811,169.324L272.573,169.689L272.337,170.054L272.103,170.42L271.87,170.786L271.638,171.152L271.408,171.519L271.179,171.885L270.952,172.252L270.726,172.619L270.502,172.986L270.279,173.354L270.058,173.721L269.838,174.089L269.62,174.457L269.403,174.825L269.188,175.194L268.974,175.562L268.762,175.931L268.551,176.299L268.342,176.668L268.134,177.037L267.928,177.406L267.723,177.775L267.52,178.145L267.318,178.514L267.118,178.883L266.919,179.253L266.721,179.622L266.526,179.992L266.331,180.362L266.139,180.731L265.947,181.101L265.757,181.471L265.569,181.84L265.382,182.21L265.197,182.58L265.013,182.95L264.831,183.32L264.65,183.689L264.471,184.059L264.293,184.429L264.117,184.798L263.943,185.168L263.769,185.538L263.598,185.907L263.428,186.276L263.259,186.646L263.092,187.015L262.927,187.384L262.763,187.753L262.6,188.122L262.439,188.491L262.28,188.86L262.122,189.228L261.965,189.597L261.811,189.965L261.657,190.333L261.505,190.701L261.355,191.069L261.206,191.437L261.059,191.804L260.914,192.171L260.769,192.538L260.627,192.905L260.486,193.272L260.346,193.638L260.208,194.004L260.072,194.37L259.937,194.736L259.804,195.102L259.672,195.467L259.542,195.832L259.413,196.196L259.286,196.561L259.16,196.925L259.036,197.289L258.914,197.652L258.793,198.016L258.674,198.378L258.556,198.741L258.439,199.103L258.325,199.465L258.212,199.827L258.1,200.188L257.99,200.549L257.881,200.909L257.774,201.269L257.669,201.629L257.565,201.988L257.463,202.347L257.362,202.706L257.263,203.064L257.166,203.421L257.07,203.779L256.975,204.135L256.883,204.492L256.791,204.848L256.702,205.203L256.613,205.558L256.527,205.913L256.442,206.267L256.359,206.62L256.277,206.973L256.197,207.326L256.118,207.678L256.041,208.029L255.965,208.38L255.891,208.731L255.819,209.081L255.748,209.43L255.679,209.779L255.612,210.127L255.546,210.475L255.481,210.822L255.418,211.168L255.357,211.514L255.297,211.86L255.239,212.204L255.183,212.548L255.128,212.892L255.075,213.235L255.023,213.577L254.973,213.918L254.925,214.259L254.878,214.599L254.832,214.939L254.789,215.278L254.747,215.616L254.706,215.954L254.667,216.29L254.63,216.627L254.594,216.962L254.56,217.297L254.528,217.631L254.497,217.964L254.468,218.296L254.44,218.628L254.414,218.959L254.39,219.289L254.367,219.619L254.346,219.947L254.326,220.275L254.309,220.602L254.292,220.928L254.278,221.254L254.264,221.579L254.253,221.902L254.243,222.225L254.235,222.548L254.228,222.869L254.223,223.189L254.22,223.509L254.218,223.828L254.218,224.145L254.22,224.462L254.223,224.778L254.228,225.094L254.234,225.408L254.242,225.721L254.252,226.034L254.263,226.345L254.276,226.656L254.291,226.965L254.307,227.274L254.325,227.582L254.345,227.888L254.366,228.194L254.389,228.499L254.413,228.803L254.439,229.105L254.467,229.407L254.496,229.708L254.527,230.008L254.56,230.306L254.594,230.604L254.63,230.901L254.668,231.196L254.707,231.491L254.748,231.784L254.791,232.077L254.835,232.368L254.881,232.658L254.929,232.948L254.978,233.236L255.029,233.523L255.081,233.808L255.135,234.093L255.191,234.377L255.249,234.659L255.308,234.94L255.369,235.22Z" style="fill:black;"/>
            </g>
        </g>
    </g>
</svg>
