<?xml version="1.0" standalone="no"?>
<!DOCTYPE svg PUBLIC "-//W3C//DTD SVG 1.1//EN" "http://www.w3.org/Graphics/SVG/1.1/DTD/svg11.dtd">
<svg width="512px" height="512px" version="1.1" xmlns="http://www.w3.org/2000/svg" xmlns:xlink="http://www.w3.org/1999/xlink" xml:space="preserve" style="fill-rule:evenodd;clip-rule:evenodd;stroke-linejoin:round;stroke-miterlimit:1.41421;">
    <g>
        <g id="Layer1">
            <g>
                <path d="M330,356L329.45,355.999L328.901,355.997L328.351,355.992L327.803,355.986L327.255,355.978L326.707,355.969L326.159,355.957L325.612,355.944L325.066,355.93L324.52,355.913L323.974,355.895L323.429,355.875L322.884,355.854L322.339,355.83L321.795,355.805L321.252,355.779L320.709,355.75L320.166,355.72L319.624,355.689L319.082,355.655L318.541,355.62L318,355.583L317.46,355.545L316.92,355.504L316.381,355.462L315.842,355.419L315.303,355.374L314.765,355.327L314.228,355.278L313.691,355.228L313.155,355.176L312.618,355.122L312.083,355.067L311.548,355.01L311.013,354.952L310.479,354.891L309.946,354.83L309.413,354.766L308.88,354.701L308.348,354.634L307.817,354.566L307.286,354.496L306.755,354.424L306.225,354.351L305.696,354.276L305.167,354.199L304.639,354.121L304.111,354.041L303.583,353.96L303.057,353.877L302.53,353.792L302.005,353.706L301.479,353.618L300.955,353.529L300.431,353.437L299.907,353.345L299.384,353.251L298.862,353.155L298.34,353.057L297.819,352.958L297.298,352.858L296.778,352.755L296.258,352.652L295.739,352.546L295.221,352.439L294.703,352.331L294.185,352.221L293.669,352.109L293.153,351.996L292.637,351.881L292.122,351.765L291.608,351.647L291.094,351.527L290.581,351.406L290.068,351.284L289.556,351.16L289.045,351.034L288.534,350.907L288.024,350.778L287.514,350.648L287.005,350.516L286.497,350.383L285.989,350.248L285.482,350.112L284.976,349.974L284.47,349.834L283.965,349.693L283.46,349.551L282.957,349.407L282.453,349.262L281.951,349.115L281.449,348.966L280.947,348.816L280.447,348.665L279.947,348.512L279.447,348.357L278.948,348.201L278.45,348.044L277.953,347.885L277.456,347.724L276.96,347.562L276.465,347.399L275.97,347.234L275.476,347.068L274.983,346.9L274.49,346.731L273.998,346.56L273.507,346.388L273.016,346.214L272.526,346.039L272.037,345.862L271.548,345.684L271.06,345.505L270.573,345.324L270.087,345.142L269.601,344.958L269.116,344.773L268.632,344.586L268.148,344.398L267.665,344.208L267.183,344.017L266.702,343.825L266.221,343.631L265.741,343.436L265.262,343.239L264.783,343.041L264.305,342.841L263.828,342.641L263.352,342.438L262.876,342.235L262.402,342.029L261.928,341.823L261.454,341.615L260.982,341.406L260.51,341.195L260.039,340.983L259.568,340.769L259.099,340.554L258.63,340.338L258.162,340.12L257.695,339.901L257.229,339.681L256.763,339.459L256.298,339.236L255.834,339.012L255.371,338.786L254.908,338.559L254.446,338.33L253.985,338.1L253.525,337.869L253.066,337.636L252.607,337.402L252.149,337.167L251.693,336.93L251.236,336.692L250.781,336.453L250.327,336.212L249.873,335.97L249.42,335.727L248.968,335.482L248.517,335.236L248.066,334.989L247.617,334.74L247.168,334.49L246.72,334.239L246.273,333.986L245.827,333.732L245.381,333.477L244.937,333.22L244.493,332.963L244.05,332.704L243.608,332.443L243.167,332.181L242.727,331.918L242.287,331.654L241.849,331.389L241.411,331.122L240.974,330.854L240.538,330.584L240.103,330.313L239.669,330.041L239.236,329.768L238.803,329.494L238.372,329.218L237.941,328.941L237.511,328.663L237.082,328.383L236.654,328.102L236.227,327.82L235.801,327.537L235.376,327.252L234.951,326.967L234.528,326.68L234.105,326.391L233.684,326.102L233.263,325.811L232.843,325.519L232.424,325.226L232.006,324.932L231.589,324.636L231.173,324.339L230.758,324.041L230.344,323.742L229.93,323.441L229.518,323.139L229.106,322.836L228.696,322.532L228.286,322.227L227.878,321.92L227.47,321.613L227.063,321.304L226.658,320.994L226.253,320.682L225.849,320.37L225.446,320.056L225.044,319.741L224.643,319.425L224.243,319.108L223.844,318.79L223.446,318.47L223.049,318.149L222.653,317.828L222.258,317.504L221.864,317.18L221.471,316.855L221.079,316.528L220.688,316.201L220.298,315.872L219.909,315.542L219.521,315.211L219.134,314.878L218.748,314.545L218.363,314.211L217.979,313.875L217.596,313.538L217.214,313.2L216.833,312.861L216.453,312.521L216.074,312.18L215.696,311.837L215.319,311.494L214.943,311.149L214.568,310.803L214.195,310.456L213.822,310.108L213.45,309.759L213.08,309.409L212.71,309.058L212.342,308.705L211.974,308.352L211.608,307.997L211.242,307.642L210.878,307.285L210.515,306.927L210.153,306.568L209.792,306.208L209.432,305.847L209.073,305.485L208.715,305.122L208.358,304.758L208.003,304.392L207.648,304.026L207.295,303.658L206.942,303.29L206.591,302.92L206.241,302.55L205.892,302.178L205.544,301.805L205.197,301.432L204.851,301.057L204.506,300.681L204.163,300.304L203.82,299.926L203.479,299.547L203.139,299.167L202.8,298.786L202.462,298.404L202.125,298.021L201.789,297.637L201.455,297.252L201.122,296.866L200.789,296.479L200.458,296.091L200.128,295.702L199.799,295.312L199.472,294.921L199.145,294.529L198.82,294.136L198.496,293.742L198.172,293.347L197.851,292.951L197.53,292.554L197.21,292.156L196.892,291.757L196.575,291.357L196.259,290.956L195.944,290.554L195.63,290.151L195.318,289.747L195.006,289.342L194.696,288.937L194.387,288.53L194.08,288.122L193.773,287.714L193.468,287.304L193.164,286.894L192.861,286.482L192.559,286.07L192.258,285.656L191.959,285.242L191.661,284.827L191.364,284.411L191.068,283.994L190.774,283.576L190.481,283.157L190.189,282.737L189.898,282.316L189.609,281.895L189.32,281.472L189.033,281.049L188.748,280.624L188.463,280.199L188.18,279.773L187.898,279.346L187.617,278.918L187.337,278.489L187.059,278.059L186.782,277.628L186.506,277.197L186.232,276.764L185.959,276.331L185.687,275.897L185.416,275.462L185.146,275.026L184.878,274.589L184.611,274.151L184.346,273.713L184.082,273.273L183.819,272.833L183.557,272.392L183.296,271.95L183.037,271.507L182.78,271.063L182.523,270.619L182.268,270.173L182.014,269.727L181.761,269.28L181.51,268.832L181.26,268.383L181.011,267.934L180.764,267.483L180.518,267.032L180.273,266.58L180.03,266.127L179.788,265.673L179.547,265.219L179.308,264.764L179.07,264.307L178.833,263.851L178.598,263.393L178.364,262.934L178.131,262.475L177.9,262.015L177.67,261.554L177.441,261.092L177.214,260.629L176.988,260.166L176.764,259.702L176.541,259.237L176.319,258.771L176.099,258.305L175.88,257.838L175.662,257.37L175.446,256.901L175.231,256.432L175.017,255.961L174.805,255.49L174.594,255.018L174.385,254.546L174.177,254.072L173.971,253.598L173.765,253.124L173.562,252.648L173.359,252.172L173.159,251.695L172.959,251.217L172.761,250.738L172.564,250.259L172.369,249.779L172.175,249.298L171.983,248.817L171.792,248.335L171.602,247.852L171.414,247.368L171.227,246.884L171.042,246.399L170.858,245.913L170.676,245.427L170.495,244.94L170.316,244.452L170.138,243.963L169.961,243.474L169.786,242.984L169.612,242.493L169.44,242.002L169.269,241.51L169.1,241.017L168.932,240.524L168.766,240.03L168.601,239.535L168.438,239.04L168.276,238.544L168.115,238.047L167.956,237.55L167.799,237.052L167.643,236.553L167.488,236.053L167.335,235.553L167.184,235.053L167.034,234.551L166.885,234.049L166.738,233.547L166.593,233.043L166.449,232.54L166.307,232.035L166.166,231.53L166.026,231.024L165.888,230.518L165.752,230.011L165.617,229.503L165.484,228.995L165.352,228.486L165.222,227.976L165.093,227.466L164.966,226.955L164.84,226.444L164.716,225.932L164.594,225.419L164.473,224.906L164.353,224.392L164.235,223.878L164.119,223.363L164.004,222.847L163.891,222.331L163.779,221.815L163.669,221.297L163.561,220.779L163.454,220.261L163.348,219.742L163.245,219.222L163.142,218.702L163.042,218.181L162.943,217.66L162.845,217.138L162.749,216.616L162.655,216.093L162.563,215.569L162.471,215.045L162.382,214.521L162.294,213.995L162.208,213.47L162.123,212.943L162.04,212.417L161.959,211.889L161.879,211.361L161.801,210.833L161.724,210.304L161.649,209.775L161.576,209.245L161.504,208.714L161.434,208.183L161.366,207.652L161.299,207.12L161.234,206.587L161.17,206.054L161.109,205.521L161.048,204.987L160.99,204.452L160.933,203.917L160.878,203.382L160.824,202.845L160.772,202.309L160.722,201.772L160.673,201.235L160.626,200.697L160.581,200.158L160.538,199.619L160.496,199.08L160.455,198.54L160.417,198L160.38,197.459L160.345,196.918L160.311,196.376L160.28,195.834L160.25,195.291L160.221,194.748L160.195,194.205L160.17,193.661L160.146,193.116L160.125,192.571L160.105,192.026L160.087,191.48L160.07,190.934L160.056,190.388L160.043,189.841L160.031,189.293L160.022,188.745L160.014,188.197L160.008,187.649L160.003,187.099L160.001,186.55L160,186L160.001,185.45L160.003,184.901L160.008,184.351L160.014,183.803L160.022,183.255L160.031,182.707L160.043,182.159L160.056,181.612L160.07,181.066L160.087,180.52L160.105,179.974L160.125,179.429L160.146,178.884L160.17,178.339L160.195,177.795L160.221,177.252L160.25,176.709L160.28,176.166L160.311,175.624L160.345,175.082L160.38,174.541L160.417,174L160.455,173.46L160.496,172.92L160.538,172.381L160.581,171.842L160.626,171.303L160.673,170.765L160.722,170.228L160.772,169.691L160.824,169.155L160.878,168.618L160.933,168.083L160.99,167.548L161.048,167.013L161.109,166.479L161.17,165.946L161.234,165.413L161.299,164.88L161.366,164.348L161.434,163.817L161.504,163.286L161.576,162.755L161.649,162.225L161.724,161.696L161.801,161.167L161.879,160.639L161.959,160.111L162.04,159.583L162.123,159.057L162.208,158.53L162.294,158.005L162.382,157.479L162.471,156.955L162.563,156.431L162.655,155.907L162.749,155.384L162.845,154.862L162.943,154.34L163.042,153.819L163.142,153.298L163.245,152.778L163.348,152.258L163.454,151.739L163.561,151.221L163.669,150.703L163.779,150.185L163.891,149.669L164.004,149.153L164.119,148.637L164.235,148.122L164.353,147.608L164.473,147.094L164.594,146.581L164.716,146.068L164.84,145.556L164.966,145.045L165.093,144.534L165.222,144.024L165.352,143.514L165.484,143.005L165.617,142.497L165.752,141.989L165.888,141.482L166.026,140.976L166.166,140.47L166.307,139.965L166.449,139.46L166.593,138.957L166.738,138.453L166.885,137.951L167.034,137.449L167.184,136.947L167.335,136.447L167.488,135.947L167.643,135.447L167.799,134.948L167.956,134.45L168.115,133.953L168.276,133.456L168.438,132.96L168.601,132.465L168.766,131.97L168.932,131.476L169.1,130.983L169.269,130.49L169.44,129.998L169.612,129.507L169.786,129.016L169.961,128.526L170.138,128.037L170.316,127.548L170.495,127.06L170.676,126.573L170.858,126.087L171.042,125.601L171.227,125.116L171.414,124.632L171.602,124.148L171.792,123.665L171.983,123.183L172.175,122.702L172.369,122.221L172.564,121.741L172.761,121.262L172.959,120.783L173.159,120.305L173.359,119.828L173.562,119.352L173.765,118.876L173.971,118.402L174.177,117.928L174.385,117.454L174.594,116.982L174.805,116.51L175.017,116.039L175.231,115.568L175.446,115.099L175.662,114.63L175.88,114.162L176.099,113.695L176.319,113.229L176.541,112.763L176.764,112.298L176.988,111.834L177.214,111.371L177.441,110.908L177.67,110.446L177.9,109.985L178.131,109.525L178.364,109.066L178.598,108.607L178.833,108.149L179.07,107.693L179.308,107.236L179.547,106.781L179.788,106.327L180.03,105.873L180.273,105.42L180.518,104.968L180.764,104.517L181.011,104.066L181.26,103.617L181.51,103.168L181.761,102.72L182.014,102.273L182.268,101.827L182.523,101.381L182.78,100.937L183.037,100.493L183.296,100.05L183.557,99.6082L183.819,99.1671L184.082,98.7268L184.346,98.2874L184.611,97.8488L184.878,97.4111L185.146,96.9743L185.416,96.5383L185.687,96.1033L185.959,95.6691L186.232,95.2357L186.506,94.8033L186.782,94.3717L187.059,93.9411L187.337,93.5113L187.617,93.0824L187.898,92.6544L188.18,92.2273L188.463,91.8011L188.748,91.3758L189.033,90.9514L189.32,90.5279L189.609,90.1053L189.898,89.6837L190.189,89.2629L190.481,88.8431L190.774,88.4242L191.068,88.0062L191.364,87.5891L191.661,87.173L191.959,86.7578L192.258,86.3435L192.559,85.9302L192.861,85.5178L193.164,85.1064L193.468,84.6958L193.773,84.2863L194.08,83.8777L194.387,83.47L194.696,83.0633L195.006,82.6576L195.318,82.2528L195.63,81.849L195.944,81.4461L196.259,81.0442L196.575,80.6433L196.892,80.2433L197.21,79.8444L197.53,79.4464L197.851,79.0493L198.172,78.6533L198.496,78.2583L198.82,77.8642L199.145,77.4711L199.472,77.0791L199.799,76.688L200.128,76.2979L200.458,75.9088L200.789,75.5208L201.122,75.1337L201.455,74.7476L201.789,74.3626L202.125,73.9786L202.462,73.5956L202.8,73.2136L203.139,72.8326L203.479,72.4526L203.82,72.0737L204.163,71.6958L204.506,71.319L204.851,70.9432L205.197,70.5684L205.544,70.1946L205.892,69.8219L206.241,69.4503L206.591,69.0797L206.942,68.7101L207.295,68.3416L207.648,67.9742L208.003,67.6078L208.358,67.2425L208.715,66.8782L209.073,66.515L209.432,66.1529L209.792,65.7918L210.153,65.4319L210.515,65.073L210.878,64.7151L211.242,64.3584L211.608,64.0028L211.974,63.6482L212.342,63.2947L212.71,62.9423L213.08,62.591L213.45,62.2409L213.822,61.8918L214.195,61.5438L214.568,61.1969L214.943,60.8511L215.319,60.5065L215.696,60.1629L216.074,59.8205L216.453,59.4792L216.833,59.139L217.214,58.7999L217.596,58.462L217.979,58.1252L218.363,57.7895L218.748,57.4549L219.134,57.1215L219.521,56.7893L219.909,56.4581L220.298,56.1282L220.688,55.7993L221.079,55.4716L221.471,55.1451L221.864,54.8197L222.258,54.4955L222.653,54.1725L223.049,53.8506L223.446,53.5298L223.844,53.2103L224.243,52.8919L224.643,52.5747L225.044,52.2586L225.446,51.9438L225.849,51.6301L226.253,51.3176L226.658,51.0063L227.063,50.6962L227.47,50.3872L227.878,50.0795L228.286,49.773L228.696,49.4676L229.106,49.1635L229.518,48.8606L229.93,48.5589L230.344,48.2583L230.758,47.959L231.173,47.661L231.589,47.3641L232.006,47.0685L232.424,46.774L232.843,46.4808L233.263,46.1889L233.684,45.8981L234.105,45.6086L234.528,45.3204L234.951,45.0333L235.376,44.7475L235.801,44.463L236.227,44.1797L236.654,43.8977L237.082,43.6169L237.511,43.3373L237.941,43.059L238.372,42.782L238.803,42.5062L239.236,42.2317L239.669,41.9585L240.103,41.6866L240.538,41.4159L240.974,41.1465L241.411,40.8783L241.849,40.6115L242.287,40.3459L242.727,40.0816L243.167,39.8186L243.608,39.5569L244.05,39.2965L244.493,39.0374L244.937,38.7796L245.381,38.523L245.827,38.2678L246.273,38.0139L246.72,37.7613L247.168,37.5101L247.617,37.2601L248.066,37.0114L248.517,36.7641L248.968,36.5181L249.42,36.2734L249.873,36.03L250.327,35.788L250.781,35.5473L251.236,35.3079L251.693,35.0699L252.149,34.8332L252.607,34.5979L253.066,34.3639L253.525,34.1313L253.985,33.9L254.446,33.67L254.908,33.4414L255.371,33.2142L255.834,32.9883L256.298,32.7638L256.763,32.5407L257.229,32.3189L257.695,32.0986L258.162,31.8795L258.63,31.6619L259.099,31.4456L259.568,31.2307L260.039,31.0172L260.51,30.8051L260.982,30.5944L261.454,30.3851L261.928,30.1772L262.402,29.9706L262.876,29.7655L263.352,29.5618L263.828,29.3594L264.305,29.1585L264.783,28.959L265.262,28.7609L265.741,28.5643L266.221,28.369L266.702,28.1752L267.183,27.9828L267.665,27.7918L268.148,27.6022L268.632,27.4141L269.116,27.2274L269.601,27.0421L270.087,26.8583L270.573,26.676L271.06,26.495L271.548,26.3156L272.037,26.1375L272.526,25.9609L273.016,25.7858L273.507,25.6122L273.998,25.44L274.49,25.2692L274.983,25.0999L275.476,24.9321L275.97,24.7658L276.465,24.6009L276.96,24.4376L277.456,24.2757L277.953,24.1152L278.45,23.9563L278.948,23.7988L279.447,23.6429L279.947,23.4884L280.447,23.3354L280.947,23.1839L281.449,23.0339L281.951,22.8855L282.453,22.7385L282.957,22.593L283.46,22.4491L283.965,22.3066L284.47,22.1657L284.976,22.0263L285.482,21.8884L285.989,21.752L286.497,21.6172L287.005,21.4838L287.514,21.3521L288.024,21.2218L288.534,21.0931L289.045,20.9659L289.556,20.8403L290.068,20.7162L290.581,20.5936L291.094,20.4726L291.608,20.3532L292.122,20.2353L292.637,20.119L293.153,20.0042L293.669,19.891L294.185,19.7793L294.703,19.6692L295.221,19.5607L295.739,19.4538L296.258,19.3484L296.778,19.2446L297.298,19.1424L297.819,19.0418L298.34,18.9428L298.862,18.8453L299.384,18.7495L299.907,18.6552L300.431,18.5625L300.955,18.4715L301.479,18.382L302.005,18.2941L302.53,18.2079L303.057,18.1232L303.583,18.0402L304.111,17.9588L304.639,17.879L305.167,17.8008L305.696,17.7242L306.225,17.6493L306.755,17.576L307.286,17.5043L307.817,17.4342L308.348,17.3658L308.88,17.2991L309.413,17.2339L309.946,17.1704L310.479,17.1086L311.013,17.0484L311.548,16.9898L312.083,16.9329L312.618,16.8777L313.155,16.8241L313.691,16.7722L314.228,16.7219L314.765,16.6733L315.303,16.6264L315.842,16.5812L316.381,16.5376L316.92,16.4957L317.46,16.4555L318,16.4169L318.541,16.3801L319.082,16.3449L319.624,16.3115L320.166,16.2797L320.709,16.2496L321.252,16.2212L321.795,16.1945L322.339,16.1695L322.884,16.1462L323.429,16.1247L323.974,16.1048L324.52,16.0867L325.066,16.0702L325.612,16.0555L326.159,16.0425L326.707,16.0313L327.255,16.0217L327.803,16.0139L328.351,16.0078L328.901,16.0035L329.45,16.0009L330,16L330.55,16.0009L331.099,16.0035L331.649,16.0078L332.197,16.0139L332.745,16.0217L333.293,16.0313L333.841,16.0425L334.388,16.0555L334.934,16.0702L335.48,16.0867L336.026,16.1048L336.571,16.1247L337.116,16.1462L337.661,16.1695L338.205,16.1945L338.748,16.2212L339.291,16.2496L339.834,16.2797L340.376,16.3115L340.918,16.3449L341.459,16.3801L342,16.4169L342.54,16.4555L343.08,16.4957L343.619,16.5376L344.158,16.5812L344.697,16.6264L345.235,16.6733L345.772,16.7219L346.309,16.7722L346.845,16.8241L347.382,16.8777L347.917,16.9329L348.452,16.9898L348.987,17.0484L349.521,17.1086L350.054,17.1704L350.587,17.2339L351.12,17.2991L351.652,17.3658L352.183,17.4342L352.714,17.5043L353.245,17.576L353.775,17.6493L354.304,17.7242L354.833,17.8008L355.361,17.879L355.889,17.9588L356.417,18.0402L356.943,18.1232L357.47,18.2079L357.995,18.2941L358.521,18.382L359.045,18.4715L359.569,18.5625L360.093,18.6552L360.616,18.7495L361.138,18.8453L361.66,18.9428L362.181,19.0418L362.702,19.1424L363.222,19.2446L363.742,19.3484L364.261,19.4538L364.779,19.5607L365.297,19.6692L365.815,19.7793L366.331,19.891L366.847,20.0042L367.363,20.119L367.878,20.2353L368.392,20.3532L368.906,20.4726L369.419,20.5936L369.932,20.7162L370.444,20.8403L370.955,20.9659L371.466,21.0931L371.976,21.2218L372.486,21.3521L372.995,21.4838L373.503,21.6172L374.011,21.752L374.518,21.8884L375.024,22.0263L375.53,22.1657L376.035,22.3066L376.54,22.4491L377.043,22.593L377.547,22.7385L378.049,22.8855L378.551,23.0339L379.053,23.1839L379.553,23.3354L380.053,23.4884L380.553,23.6429L381.052,23.7988L381.55,23.9563L382.047,24.1152L382.544,24.2757L383.04,24.4376L383.535,24.6009L384.03,24.7658L384.524,24.9321L385.017,25.0999L385.51,25.2692L386.002,25.44L386.493,25.6122L386.984,25.7858L387.474,25.9609L387.963,26.1375L388.452,26.3156L388.94,26.495L389.427,26.676L389.913,26.8583L390.399,27.0421L390.884,27.2274L391.368,27.4141L391.852,27.6022L392.335,27.7918L392.817,27.9828L393.298,28.1752L393.779,28.369L394.259,28.5643L394.738,28.7609L395.217,28.959L395.695,29.1585L396.172,29.3594L396.648,29.5618L397.124,29.7655L397.598,29.9706L398.072,30.1772L398.546,30.3851L399.018,30.5944L399.49,30.8051L399.961,31.0172L400.432,31.2307L400.901,31.4456L401.37,31.6619L401.838,31.8795L402.305,32.0986L402.771,32.3189L403.237,32.5407L403.702,32.7638L404.166,32.9883L404.629,33.2142L405.092,33.4414L405.554,33.67L406.015,33.9L406.475,34.1313L406.934,34.3639L407.393,34.5979L407.851,34.8332L408.307,35.0699L408.764,35.3079L409.219,35.5473L409.673,35.788L410.127,36.03L410.58,36.2734L411.032,36.5181L411.483,36.7641L411.934,37.0114L412.383,37.2601L412.832,37.5101L413.28,37.7613L413.727,38.0139L414.173,38.2678L414.619,38.523L415.063,38.7796L415.507,39.0374L415.95,39.2965L416.392,39.5569L416.833,39.8186L417.273,40.0816L417.713,40.3459L418.151,40.6115L418.589,40.8783L419.026,41.1465L419.462,41.4159L419.897,41.6866L420.331,41.9585L420.764,42.2317L421.197,42.5062L421.628,42.782L422.059,43.059L422.489,43.3373L422.918,43.6169L423.346,43.8977L423.773,44.1797L424.199,44.463L424.624,44.7475L425.049,45.0333L425.472,45.3204L425.895,45.6086L426.316,45.8981L426.737,46.1889L427.157,46.4808L427.576,46.774L427.994,47.0685L428.411,47.3641L428.827,47.661L429.242,47.959L429.656,48.2583L430.07,48.5589L430.482,48.8606L430.894,49.1635L431.304,49.4676L431.714,49.773L432.122,50.0795L432.53,50.3872L432.937,50.6962L433.342,51.0063L433.747,51.3176L434.151,51.6301L434.554,51.9438L434.956,52.2586L435.357,52.5747L435.757,52.8919L436.156,53.2103L436.554,53.5298L436.951,53.8506L437.347,54.1725L437.742,54.4955L438.136,54.8197L438.529,55.1451L438.921,55.4716L439.312,55.7993L439.702,56.1282L440.091,56.4581L440.479,56.7893L440.866,57.1215L441.252,57.4549L441.637,57.7895L442.021,58.1252L442.404,58.462L442.786,58.7999L443.167,59.139L443.547,59.4792L443.926,59.8205L444.304,60.1629L444.681,60.5065L445.057,60.8511L445.432,61.1969L445.805,61.5438L446.178,61.8918L446.55,62.2409L446.92,62.591L447.29,62.9423L447.658,63.2947L448.026,63.6482L448.392,64.0028L448.758,64.3584L449.122,64.7151L449.485,65.073L449.847,65.4319L450.208,65.7918L450.568,66.1529L450.927,66.515L451.285,66.8782L451.642,67.2425L451.997,67.6078L452.352,67.9742L452.705,68.3416L453.058,68.7101L453.409,69.0797L453.759,69.4503L454.108,69.8219L454.456,70.1946L454.803,70.5684L455.149,70.9432L455.494,71.319L455.837,71.6958L456.18,72.0737L456.521,72.4526L456.861,72.8326L457.2,73.2136L457.538,73.5956L457.875,73.9786L458.211,74.3626L458.545,74.7476L458.878,75.1337L459.211,75.5208L459.542,75.9088L459.872,76.2979L460.201,76.688L460.528,77.0791L460.855,77.4711L461.18,77.8642L461.504,78.2583L461.828,78.6533L462.149,79.0493L462.47,79.4464L462.79,79.8444L463.108,80.2433L463.425,80.6433L463.741,81.0442L464.056,81.4461L464.37,81.849L464.682,82.2528L464.994,82.6576L465.304,83.0633L465.613,83.47L465.92,83.8777L466.227,84.2863L466.532,84.6958L466.836,85.1064L467.139,85.5178L467.441,85.9302L467.742,86.3435L468.041,86.7578L468.339,87.173L468.636,87.5891L468.932,88.0062L469.226,88.4242L469.519,88.8431L469.811,89.2629L470.102,89.6837L470.391,90.1053L470.68,90.5279L470.967,90.9514L471.252,91.3758L471.537,91.8011L471.82,92.2273L472.102,92.6544L472.383,93.0824L472.663,93.5113L472.941,93.9411L473.218,94.3717L473.494,94.8033L473.768,95.2357L474.041,95.6691L474.313,96.1033L474.584,96.5383L474.854,96.9743L475.122,97.4111L475.389,97.8488L475.654,98.2874L475.918,98.7268L476.181,99.1671L476.443,99.6082L476.704,100.05L476.963,100.493L477.22,100.937L477.477,101.381L477.732,101.827L477.986,102.273L478.239,102.72L478.49,103.168L478.74,103.617L478.989,104.066L479.236,104.517L479.482,104.968L479.727,105.42L479.97,105.873L480.212,106.327L480.453,106.781L480.692,107.236L480.93,107.693L481.167,108.149L481.402,108.607L481.636,109.066L481.869,109.525L482.1,109.985L482.33,110.446L482.559,110.908L482.786,111.371L483.012,111.834L483.236,112.298L483.459,112.763L483.681,113.229L483.901,113.695L484.12,114.162L484.338,114.63L484.554,115.099L484.769,115.568L484.983,116.039L485.195,116.51L485.406,116.982L485.615,117.454L485.823,117.928L486.029,118.402L486.235,118.876L486.438,119.352L486.641,119.828L486.841,120.305L487.041,120.783L487.239,121.262L487.436,121.741L487.631,122.221L487.825,122.702L488.017,123.183L488.208,123.665L488.398,124.148L488.586,124.632L488.773,125.116L488.958,125.601L489.142,126.087L489.324,126.573L489.505,127.06L489.684,127.548L489.862,128.037L490.039,128.526L490.214,129.016L490.388,129.507L490.56,129.998L490.731,130.49L490.9,130.983L491.068,131.476L491.234,131.97L491.399,132.465L491.562,132.96L491.724,133.456L491.885,133.953L492.044,134.45L492.201,134.948L492.357,135.447L492.512,135.947L492.665,136.447L492.816,136.947L492.966,137.449L493.115,137.951L493.262,138.453L493.407,138.957L493.551,139.46L493.693,139.965L493.834,140.47L493.974,140.976L494.112,141.482L494.248,141.989L494.383,142.497L494.516,143.005L494.648,143.514L494.778,144.024L494.907,144.534L495.034,145.045L495.16,145.556L495.284,146.068L495.406,146.581L495.527,147.094L495.647,147.608L495.765,148.122L495.881,148.637L495.996,149.153L496.109,149.669L496.221,150.185L496.331,150.703L496.439,151.221L496.546,151.739L496.652,152.258L496.755,152.778L496.858,153.298L496.958,153.819L497.057,154.34L497.155,154.862L497.251,155.384L497.345,155.907L497.437,156.431L497.529,156.955L497.618,157.479L497.706,158.005L497.792,158.53L497.877,159.057L497.96,159.583L498.041,160.111L498.121,160.639L498.199,161.167L498.276,161.696L498.351,162.225L498.424,162.755L498.496,163.286L498.566,163.817L498.634,164.348L498.701,164.88L498.766,165.413L498.83,165.946L498.891,166.479L498.952,167.013L499.01,167.548L499.067,168.083L499.122,168.618L499.176,169.155L499.228,169.691L499.278,170.228L499.327,170.765L499.374,171.303L499.419,171.842L499.462,172.381L499.504,172.92L499.545,173.46L499.583,174L499.62,174.541L499.655,175.082L499.689,175.624L499.72,176.166L499.75,176.709L499.779,177.252L499.805,177.795L499.83,178.339L499.854,178.884L499.875,179.429L499.895,179.974L499.913,180.52L499.93,181.066L499.944,181.612L499.957,182.159L499.969,182.707L499.978,183.255L499.986,183.803L499.992,184.351L499.997,184.901L499.999,185.45L500,186L499.999,186.55L499.997,187.099L499.992,187.649L499.986,188.197L499.978,188.745L499.969,189.293L499.957,189.841L499.944,190.388L499.93,190.934L499.913,191.48L499.895,192.026L499.875,192.571L499.854,193.116L499.83,193.661L499.805,194.205L499.779,194.748L499.75,195.291L499.72,195.834L499.689,196.376L499.655,196.918L499.62,197.459L499.583,198L499.545,198.54L499.504,199.08L499.462,199.619L499.419,200.158L499.374,200.697L499.327,201.235L499.278,201.772L499.228,202.309L499.176,202.845L499.122,203.382L499.067,203.917L499.01,204.452L498.952,204.987L498.891,205.521L498.83,206.054L498.766,206.587L498.701,207.12L498.634,207.652L498.566,208.183L498.496,208.714L498.424,209.245L498.351,209.775L498.276,210.304L498.199,210.833L498.121,211.361L498.041,211.889L497.96,212.417L497.877,212.943L497.792,213.47L497.706,213.995L497.618,214.521L497.529,215.045L497.437,215.569L497.345,216.093L497.251,216.616L497.155,217.138L497.057,217.66L496.958,218.181L496.858,218.702L496.755,219.222L496.652,219.742L496.546,220.261L496.439,220.779L496.331,221.297L496.221,221.815L496.109,222.331L495.996,222.847L495.881,223.363L495.765,223.878L495.647,224.392L495.527,224.906L495.406,225.419L495.284,225.932L495.16,226.444L495.034,226.955L494.907,227.466L494.778,227.976L494.648,228.486L494.516,228.995L494.383,229.503L494.248,230.011L494.112,230.518L493.974,231.024L493.834,231.53L493.693,232.035L493.551,232.54L493.407,233.043L493.262,233.547L493.115,234.049L492.966,234.551L492.816,235.053L492.665,235.553L492.512,236.053L492.357,236.553L492.201,237.052L492.044,237.55L491.885,238.047L491.724,238.544L491.562,239.04L491.399,239.535L491.234,240.03L491.068,240.524L490.9,241.017L490.731,241.51L490.56,242.002L490.388,242.493L490.214,242.984L490.039,243.474L489.862,243.963L489.684,244.452L489.505,244.94L489.324,245.427L489.142,245.913L488.958,246.399L488.773,246.884L488.586,247.368L488.398,247.852L488.208,248.335L488.017,248.817L487.825,249.298L487.631,249.779L487.436,250.259L487.239,250.738L487.041,251.217L486.841,251.695L486.641,252.172L486.438,252.648L486.235,253.124L486.029,253.598L485.823,254.072L485.615,254.546L485.406,255.018L485.195,255.49L484.983,255.961L484.769,256.432L484.554,256.901L484.338,257.37L484.12,257.838L483.901,258.305L483.681,258.771L483.459,259.237L483.236,259.702L483.012,260.166L482.786,260.629L482.559,261.092L482.33,261.554L482.1,262.015L481.869,262.475L481.636,262.934L481.402,263.393L481.167,263.851L480.93,264.307L480.692,264.764L480.453,265.219L480.212,265.673L479.97,266.127L479.727,266.58L479.482,267.032L479.236,267.483L478.989,267.934L478.74,268.383L478.49,268.832L478.239,269.28L477.986,269.727L477.732,270.173L477.477,270.619L477.22,271.063L476.963,271.507L476.704,271.95L476.443,272.392L476.181,272.833L475.918,273.273L475.654,273.713L475.389,274.151L475.122,274.589L474.854,275.026L474.584,275.462L474.313,275.897L474.041,276.331L473.768,276.764L473.494,277.197L473.218,277.628L472.941,278.059L472.663,278.489L472.383,278.918L472.102,279.346L471.82,279.773L471.537,280.199L471.252,280.624L470.967,281.049L470.68,281.472L470.391,281.895L470.102,282.316L469.811,282.737L469.519,283.157L469.226,283.576L468.932,283.994L468.636,284.411L468.339,284.827L468.041,285.242L467.742,285.656L467.441,286.07L467.139,286.482L466.836,286.894L466.532,287.304L466.227,287.714L465.92,288.122L465.613,288.53L465.304,288.937L464.994,289.342L464.682,289.747L464.37,290.151L464.056,290.554L463.741,290.956L463.425,291.357L463.108,291.757L462.79,292.156L462.47,292.554L462.149,292.951L461.828,293.347L461.504,293.742L461.18,294.136L460.855,294.529L460.528,294.921L460.201,295.312L459.872,295.702L459.542,296.091L459.211,296.479L458.878,296.866L458.545,297.252L458.211,297.637L457.875,298.021L457.538,298.404L457.2,298.786L456.861,299.167L456.521,299.547L456.18,299.926L455.837,300.304L455.494,300.681L455.149,301.057L454.803,301.432L454.456,301.805L454.108,302.178L453.759,302.55L453.409,302.92L453.058,303.29L452.705,303.658L452.352,304.026L451.997,304.392L451.642,304.758L451.285,305.122L450.927,305.485L450.568,305.847L450.208,306.208L449.847,306.568L449.485,306.927L449.122,307.285L448.758,307.642L448.392,307.997L448.026,308.352L447.658,308.705L447.29,309.058L446.92,309.409L446.55,309.759L446.178,310.108L445.805,310.456L445.432,310.803L445.057,311.149L444.681,311.494L444.304,311.837L443.926,312.18L443.547,312.521L443.167,312.861L442.786,313.2L442.404,313.538L442.021,313.875L441.637,314.211L441.252,314.545L440.866,314.878L440.479,315.211L440.091,315.542L439.702,315.872L439.312,316.201L438.921,316.528L438.529,316.855L438.136,317.18L437.742,317.504L437.347,317.828L436.951,318.149L436.554,318.47L436.156,318.79L435.757,319.108L435.357,319.425L434.956,319.741L434.554,320.056L434.151,320.37L433.747,320.682L433.342,320.994L432.937,321.304L432.53,321.613L432.122,321.92L431.714,322.227L431.304,322.532L430.894,322.836L430.482,323.139L430.07,323.441L429.656,323.742L429.242,324.041L428.827,324.339L428.411,324.636L427.994,324.932L427.576,325.226L427.157,325.519L426.737,325.811L426.316,326.102L425.895,326.391L425.472,326.68L425.049,326.967L424.624,327.252L424.199,327.537L423.773,327.82L423.346,328.102L422.918,328.383L422.489,328.663L422.059,328.941L421.628,329.218L421.197,329.494L420.764,329.768L420.331,330.041L419.897,330.313L419.462,330.584L419.026,330.854L418.589,331.122L418.151,331.389L417.713,331.654L417.273,331.918L416.833,332.181L416.392,332.443L415.95,332.704L415.507,332.963L415.063,333.22L414.619,333.477L414.173,333.732L413.727,333.986L413.28,334.239L412.832,334.49L412.383,334.74L411.934,334.989L411.483,335.236L411.032,335.482L410.58,335.727L410.127,335.97L409.673,336.212L409.219,336.453L408.764,336.692L408.307,336.93L407.851,337.167L407.393,337.402L406.934,337.636L406.475,337.869L406.015,338.1L405.554,338.33L405.092,338.559L404.629,338.786L404.166,339.012L403.702,339.236L403.237,339.459L402.771,339.681L402.305,339.901L401.838,340.12L401.37,340.338L400.901,340.554L400.432,340.769L399.961,340.983L399.49,341.195L399.018,341.406L398.546,341.615L398.072,341.823L397.598,342.029L397.124,342.235L396.648,342.438L396.172,342.641L395.695,342.841L395.217,343.041L394.738,343.239L394.259,343.436L393.779,343.631L393.298,343.825L392.817,344.017L392.335,344.208L391.852,344.398L391.368,344.586L390.884,344.773L390.399,344.958L389.913,345.142L389.427,345.324L388.94,345.505L388.452,345.684L387.963,345.862L387.474,346.039L386.984,346.214L386.493,346.388L386.002,346.56L385.51,346.731L385.017,346.9L384.524,347.068L384.03,347.234L383.535,347.399L383.04,347.562L382.544,347.724L382.047,347.885L381.55,348.044L381.052,348.201L380.553,348.357L380.053,348.512L379.553,348.665L379.053,348.816L378.551,348.966L378.049,349.115L377.547,349.262L377.043,349.407L376.54,349.551L376.035,349.693L375.53,349.834L375.024,349.974L374.518,350.112L374.011,350.248L373.503,350.383L372.995,350.516L372.486,350.648L371.976,350.778L371.466,350.907L370.955,351.034L370.444,351.16L369.932,351.284L369.419,351.406L368.906,351.527L368.392,351.647L367.878,351.765L367.363,351.881L366.847,351.996L366.331,352.109L365.815,352.221L365.297,352.331L364.779,352.439L364.261,352.546L363.742,352.652L363.222,352.755L362.702,352.858L362.181,352.958L361.66,353.057L361.138,353.155L360.616,353.251L360.093,353.345L359.569,353.437L359.045,353.529L358.521,353.618L357.995,353.706L357.47,353.792L356.943,353.877L356.417,353.96L355.889,354.041L355.361,354.121L354.833,354.199L354.304,354.276L353.775,354.351L353.245,354.424L352.714,354.496L352.183,354.566L351.652,354.634L351.12,354.701L350.587,354.766L350.054,354.83L349.521,354.891L348.987,354.952L348.452,355.01L347.917,355.067L347.382,355.122L346.845,355.176L346.309,355.228L345.772,355.278L345.235,355.327L344.697,355.374L344.158,355.419L343.619,355.462L343.08,355.504L342.54,355.545L342,355.583L341.459,355.62L340.918,355.655L340.376,355.689L339.834,355.72L339.291,355.75L338.748,355.779L338.205,355.805L337.661,355.83L337.116,355.854L336.571,355.875L336.026,355.895L335.48,355.913L334.934,355.93L334.388,355.944L333.841,355.957L333.293,355.969L332.745,355.978L332.197,355.986L331.649,355.992L331.099,355.997L330.55,355.999L330,356ZM330,314.333L330.418,314.333L330.837,314.331L331.252,314.327L331.669,314.323L332.087,314.317L332.502,314.31L332.917,314.301L333.332,314.291L333.747,314.28L334.162,314.267L334.576,314.254L334.99,314.239L335.402,314.222L335.814,314.205L336.227,314.186L336.638,314.166L337.05,314.144L337.462,314.121L337.871,314.097L338.282,314.072L338.692,314.045L339.102,314.017L339.511,313.988L339.918,313.958L340.326,313.926L340.734,313.893L341.142,313.859L341.549,313.823L341.955,313.787L342.361,313.749L342.767,313.709L343.172,313.669L343.576,313.627L343.981,313.584L344.385,313.54L344.788,313.494L345.191,313.448L345.594,313.4L345.996,313.35L346.398,313.3L346.798,313.249L347.199,313.196L347.6,313.141L348.001,313.086L348.4,313.029L348.799,312.972L349.198,312.913L349.596,312.853L349.994,312.791L350.391,312.729L350.787,312.665L351.184,312.6L351.581,312.533L351.976,312.466L352.371,312.397L352.766,312.327L353.16,312.256L353.554,312.184L353.948,312.11L354.34,312.036L354.732,311.96L355.126,311.883L355.517,311.805L355.908,311.725L356.298,311.645L356.688,311.563L357.079,311.48L357.468,311.396L357.856,311.311L358.245,311.224L358.633,311.137L359.02,311.048L359.407,310.958L359.793,310.867L360.18,310.774L360.566,310.681L360.951,310.586L361.336,310.49L361.72,310.394L362.104,310.295L362.486,310.196L362.87,310.096L363.252,309.994L363.632,309.892L364.015,309.788L364.396,309.683L364.776,309.577L365.156,309.469L365.536,309.361L365.914,309.251L366.294,309.141L366.671,309.029L367.048,308.916L367.425,308.802L367.803,308.687L368.178,308.57L368.553,308.453L368.928,308.335L369.303,308.215L369.677,308.094L370.051,307.972L370.423,307.849L370.797,307.725L371.168,307.6L371.539,307.474L371.91,307.346L372.282,307.217L372.651,307.088L373.02,306.957L373.39,306.825L373.757,306.692L374.125,306.558L374.493,306.423L374.859,306.287L375.227,306.149L375.593,306.011L375.957,305.871L376.322,305.731L376.686,305.589L377.05,305.446L377.414,305.302L377.776,305.157L378.137,305.012L378.499,304.864L378.861,304.716L379.22,304.567L379.581,304.417L379.941,304.265L380.299,304.113L380.657,303.959L381.015,303.805L381.372,303.649L381.729,303.493L382.085,303.335L382.441,303.176L382.796,303.016L383.15,302.855L383.504,302.693L383.858,302.53L384.21,302.366L384.562,302.201L384.914,302.035L385.264,301.868L385.615,301.7L385.966,301.53L386.314,301.36L386.663,301.189L387.011,301.017L387.359,300.843L387.705,300.669L388.052,300.494L388.398,300.317L388.743,300.139L389.088,299.961L389.432,299.782L389.776,299.601L390.118,299.419L390.459,299.237L390.801,299.054L391.143,298.869L391.484,298.683L391.823,298.496L392.162,298.309L392.5,298.121L392.838,297.931L393.175,297.741L393.513,297.548L393.849,297.356L394.184,297.163L394.519,296.968L394.853,296.772L395.188,296.575L395.52,296.378L395.852,296.18L396.183,295.981L396.514,295.78L396.846,295.578L397.176,295.375L397.504,295.173L397.832,294.969L398.161,294.763L398.488,294.556L398.814,294.35L399.141,294.14L399.466,293.931L399.79,293.722L400.114,293.511L400.437,293.298L400.759,293.086L401.082,292.871L401.403,292.656L401.722,292.441L402.044,292.224L402.363,292.006L402.68,291.788L402.999,291.568L403.317,291.347L403.632,291.126L403.948,290.903L404.264,290.68L404.578,290.455L404.892,290.23L405.204,290.005L405.518,289.777L405.829,289.549L406.139,289.321L406.45,289.09L406.76,288.859L407.068,288.628L407.377,288.395L407.684,288.161L407.991,287.927L408.296,287.692L408.601,287.456L408.906,287.218L409.211,286.98L409.514,286.741L409.816,286.501L410.117,286.261L410.418,286.019L410.718,285.777L411.018,285.534L411.316,285.289L411.614,285.044L411.912,284.798L412.209,284.55L412.504,284.303L412.799,284.055L413.093,283.805L413.387,283.554L413.68,283.303L413.971,283.052L414.263,282.798L414.553,282.544L414.842,282.29L415.132,282.034L415.42,281.777L415.706,281.521L415.994,281.262L416.28,281.003L416.564,280.744L416.848,280.483L417.132,280.221L417.416,279.958L417.697,279.695L417.978,279.432L418.259,279.166L418.538,278.901L418.816,278.635L419.095,278.367L419.372,278.098L419.648,277.83L419.923,277.56L420.198,277.29L420.472,277.018L420.745,276.745L421.018,276.472L421.29,276.198L421.56,275.923L421.83,275.648L422.098,275.372L422.367,275.095L422.635,274.816L422.901,274.538L423.166,274.259L423.432,273.978L423.695,273.697L423.958,273.416L424.221,273.132L424.483,272.848L424.744,272.564L425.003,272.28L425.262,271.994L425.521,271.706L425.777,271.42L426.034,271.132L426.29,270.842L426.544,270.553L426.798,270.263L427.052,269.971L427.303,269.68L427.554,269.387L427.805,269.093L428.055,268.799L428.303,268.504L428.55,268.209L428.798,267.912L429.044,267.614L429.289,267.316L429.534,267.018L429.777,266.718L430.019,266.418L430.261,266.117L430.501,265.816L430.741,265.514L430.98,265.211L431.218,264.906L431.456,264.601L431.692,264.296L431.927,263.991L432.161,263.684L432.395,263.377L432.628,263.068L432.859,262.76L433.09,262.45L433.321,262.139L433.549,261.829L433.777,261.518L434.005,261.204L434.23,260.892L434.455,260.578L434.68,260.264L434.903,259.948L435.126,259.632L435.347,259.317L435.568,258.999L435.788,258.68L436.006,258.363L436.224,258.044L436.441,257.722L436.656,257.403L436.871,257.082L437.086,256.759L437.298,256.437L437.511,256.114L437.722,255.79L437.931,255.466L438.14,255.141L438.35,254.814L438.556,254.488L438.763,254.161L438.969,253.832L439.173,253.504L439.375,253.176L439.578,252.846L439.78,252.514L439.981,252.183L440.18,251.852L440.378,251.52L440.575,251.188L440.772,250.853L440.968,250.519L441.163,250.184L441.356,249.849L441.548,249.513L441.741,249.175L441.931,248.838L442.121,248.5L442.309,248.162L442.496,247.823L442.683,247.484L442.869,247.143L443.054,246.801L443.237,246.459L443.419,246.118L443.601,245.776L443.782,245.432L443.961,245.088L444.139,244.743L444.317,244.398L444.494,244.052L444.669,243.705L444.843,243.359L445.017,243.011L445.189,242.663L445.36,242.314L445.53,241.966L445.7,241.615L445.868,241.264L446.035,240.914L446.201,240.562L446.366,240.21L446.53,239.858L446.693,239.504L446.855,239.15L447.016,238.796L447.176,238.441L447.335,238.085L447.493,237.729L447.649,237.373L447.805,237.016L447.96,236.657L448.113,236.299L448.265,235.941L448.417,235.581L448.567,235.22L448.716,234.861L448.864,234.499L449.012,234.138L449.157,233.777L449.302,233.413L449.446,233.049L449.589,232.686L449.731,232.322L449.871,231.957L450.011,231.593L450.149,231.226L450.287,230.859L450.423,230.493L450.558,230.126L450.692,229.757L450.825,229.39L450.957,229.02L451.088,228.651L451.217,228.281L451.346,227.91L451.474,227.539L451.6,227.168L451.725,226.797L451.849,226.424L451.972,226.051L452.094,225.677L452.215,225.303L452.335,224.928L452.453,224.552L452.57,224.178L452.687,223.803L452.802,223.425L452.916,223.048L453.029,222.671L453.141,222.293L453.251,221.915L453.361,221.536L453.469,221.156L453.577,220.776L453.683,220.396L453.788,220.015L453.892,219.633L453.994,219.252L454.096,218.87L454.196,218.487L454.295,218.104L454.394,217.719L454.49,217.336L454.586,216.951L454.681,216.566L454.774,216.18L454.867,215.793L454.958,215.407L455.048,215.021L455.137,214.633L455.224,214.245L455.311,213.856L455.396,213.468L455.48,213.079L455.563,212.688L455.645,212.298L455.725,211.907L455.805,211.517L455.883,211.126L455.96,210.732L456.036,210.34L456.11,209.948L456.184,209.554L456.256,209.16L456.327,208.767L456.397,208.371L456.466,207.976L456.533,207.582L456.6,207.184L456.665,206.787L456.729,206.391L456.791,205.994L456.853,205.596L456.913,205.198L456.972,204.799L457.029,204.4L457.086,204.001L457.141,203.6L457.196,203.199L457.249,202.798L457.3,202.398L457.35,201.996L457.4,201.594L457.448,201.191L457.494,200.788L457.54,200.385L457.584,199.981L457.627,199.576L457.669,199.172L457.709,198.767L457.749,198.361L457.787,197.955L457.823,197.549L457.859,197.142L457.893,196.734L457.926,196.326L457.958,195.918L457.988,195.511L458.017,195.102L458.045,194.692L458.072,194.282L458.097,193.871L458.121,193.462L458.144,193.05L458.166,192.639L458.186,192.227L458.205,191.814L458.222,191.402L458.239,190.99L458.254,190.576L458.267,190.162L458.28,189.747L458.291,189.332L458.301,188.917L458.31,188.502L458.317,188.087L458.323,187.669L458.327,187.252L458.331,186.837L458.333,186.418L458.333,186L458.333,185.582L458.331,185.163L458.327,184.748L458.323,184.331L458.317,183.913L458.31,183.498L458.301,183.083L458.291,182.668L458.28,182.253L458.267,181.838L458.254,181.424L458.239,181.01L458.222,180.598L458.205,180.186L458.186,179.773L458.166,179.361L458.144,178.95L458.121,178.538L458.097,178.129L458.072,177.718L458.045,177.308L458.017,176.898L457.988,176.489L457.958,176.082L457.926,175.674L457.893,175.266L457.859,174.858L457.823,174.451L457.787,174.045L457.749,173.639L457.709,173.233L457.669,172.828L457.627,172.424L457.584,172.019L457.54,171.615L457.494,171.212L457.448,170.809L457.4,170.406L457.35,170.004L457.3,169.602L457.249,169.202L457.196,168.801L457.141,168.4L457.086,167.999L457.029,167.6L456.972,167.201L456.913,166.802L456.853,166.404L456.791,166.006L456.729,165.609L456.665,165.213L456.6,164.816L456.533,164.418L456.466,164.024L456.397,163.629L456.327,163.233L456.256,162.84L456.184,162.446L456.11,162.052L456.036,161.66L455.96,161.268L455.883,160.874L455.805,160.483L455.725,160.093L455.645,159.702L455.563,159.312L455.48,158.921L455.396,158.532L455.311,158.144L455.224,157.755L455.137,157.367L455.048,156.979L454.958,156.593L454.867,156.207L454.774,155.82L454.681,155.434L454.586,155.049L454.49,154.664L454.394,154.281L454.295,153.896L454.196,153.513L454.096,153.13L453.994,152.748L453.892,152.367L453.788,151.985L453.683,151.604L453.577,151.224L453.469,150.844L453.361,150.464L453.251,150.085L453.141,149.707L453.029,149.329L452.916,148.952L452.802,148.575L452.687,148.197L452.57,147.822L452.453,147.448L452.335,147.072L452.215,146.697L452.094,146.323L451.972,145.949L451.849,145.576L451.725,145.203L451.6,144.832L451.474,144.461L451.346,144.09L451.217,143.719L451.088,143.349L450.957,142.98L450.825,142.61L450.692,142.243L450.558,141.875L450.423,141.507L450.287,141.141L450.149,140.774L450.011,140.407L449.871,140.043L449.731,139.678L449.589,139.314L449.446,138.95L449.302,138.587L449.157,138.224L449.012,137.862L448.864,137.501L448.716,137.139L448.567,136.78L448.417,136.419L448.265,136.059L448.113,135.701L447.96,135.343L447.805,134.984L447.649,134.627L447.493,134.271L447.335,133.915L447.176,133.559L447.016,133.204L446.855,132.85L446.693,132.496L446.53,132.143L446.366,131.789L446.201,131.438L446.035,131.087L445.868,130.736L445.7,130.385L445.53,130.034L445.36,129.686L445.189,129.337L445.017,128.989L444.843,128.641L444.669,128.295L444.493,127.948L444.317,127.602L444.139,127.257L443.961,126.912L443.782,126.568L443.601,126.224L443.42,125.882L443.237,125.541L443.054,125.199L442.869,124.857L442.683,124.516L442.496,124.177L442.309,123.838L442.12,123.499L441.931,123.162L441.741,122.825L441.548,122.487L441.356,122.151L441.163,121.816L440.968,121.481L440.772,121.147L440.575,120.812L440.378,120.48L440.18,120.148L439.981,119.817L439.78,119.486L439.578,119.154L439.376,118.825L439.173,118.496L438.968,118.168L438.763,117.84L438.557,117.512L438.349,117.186L438.141,116.859L437.932,116.534L437.722,116.21L437.511,115.886L437.298,115.563L437.086,115.241L436.871,114.918L436.656,114.597L436.441,114.278L436.224,113.957L436.006,113.637L435.788,113.319L435.568,113.001L435.347,112.683L435.126,112.367L434.904,112.052L434.68,111.736L434.455,111.422L434.23,111.108L434.004,110.796L433.777,110.483L433.549,110.171L433.32,109.861L433.09,109.55L432.859,109.241L432.627,108.931L432.395,108.623L432.162,108.316L431.927,108.009L431.692,107.704L431.456,107.399L431.218,107.094L430.98,106.79L430.741,106.486L430.501,106.184L430.261,105.883L430.019,105.582L429.777,105.281L429.534,104.982L429.289,104.683L429.044,104.386L428.798,104.088L428.551,103.792L428.303,103.496L428.055,103.201L427.805,102.907L427.555,102.613L427.303,102.321L427.051,102.029L426.798,101.737L426.544,101.447L426.29,101.158L426.034,100.868L425.778,100.58L425.521,100.293L425.262,100.006L425.003,99.7204L424.743,99.4353L424.482,99.1511L424.221,98.8679L423.958,98.5847L423.695,98.3025L423.431,98.022L423.167,97.7417L422.901,97.4622L422.634,97.1836L422.367,96.9053L422.098,96.6281L421.83,96.3522L421.56,96.0766L421.29,95.8021L421.018,95.5277L420.745,95.2542L420.472,94.9823L420.198,94.7108L419.924,94.4402L419.648,94.1703L419.372,93.9015L419.095,93.6331L418.816,93.3656L418.538,93.0995L418.259,92.8338L417.978,92.5684L417.697,92.3046L417.415,92.0417L417.132,91.7791L416.848,91.517L416.564,91.2563L416.28,90.9972L415.994,90.7379L415.707,90.4795L415.42,90.2225L415.132,89.966L414.843,89.7106L414.553,89.456L414.263,89.2018L413.971,88.9485L413.68,88.6968L413.387,88.4456L413.093,88.1947L412.799,87.9452L412.504,87.6968L412.209,87.4494L411.912,87.2023L411.614,86.9558L411.316,86.7107L411.018,86.4666L410.718,86.2229L410.418,85.9807L410.118,85.7396L409.816,85.4984L409.513,85.2586L409.21,85.0198L408.906,84.7815L408.602,84.5443L408.296,84.308L407.991,84.0731L407.684,83.8388L407.376,83.6049L407.068,83.3721L406.76,83.1408L406.45,82.9099L406.139,82.6797L405.829,82.4512L405.518,82.2234L405.204,81.9957L404.892,81.7698L404.578,81.5445L404.264,81.3202L403.949,81.097L403.632,80.8742L403.316,80.6529L402.999,80.4322L402.681,80.2126L402.362,79.9939L402.043,79.7762L401.723,79.5592L401.403,79.3436L401.082,79.1286L400.76,78.9145L400.437,78.7016L400.113,78.4892L399.79,78.2783L399.466,78.0684L399.14,77.8592L398.814,77.6505L398.488,77.4436L398.161,77.2374L397.832,77.0316L397.504,76.8274L397.175,76.6244L396.845,76.4216L396.515,76.2202L396.184,76.0199L395.852,75.8201L395.519,75.6215L395.187,75.4243L394.853,75.2278L394.519,75.032L394.184,74.8375L393.849,74.6441L393.513,74.4514L393.176,74.2598L392.839,74.0693L392.5,73.8794L392.162,73.6909L391.823,73.5035L391.483,73.3168L391.143,73.1312L390.802,72.9467L390.46,72.7631L390.118,72.5807L389.775,72.3991L389.432,72.2185L389.087,72.0389L388.743,71.8605L388.398,71.6831L388.052,71.5065L387.706,71.3313L387.359,71.1568L387.011,70.9832L386.663,70.8111L386.314,70.6398L385.965,70.4695L385.615,70.3002L385.264,70.1318L384.914,69.9649L384.562,69.7989L384.21,69.6337L383.857,69.4697L383.504,69.3066L383.15,69.1447L382.796,68.9838L382.441,68.824L382.085,68.6653L381.729,68.5074L381.372,68.3507L381.015,68.1951L380.658,68.0407L380.299,67.8872L379.94,67.7347L379.581,67.5833L379.221,67.4329L378.861,67.2838L378.5,67.1357L378.138,66.9885L377.776,66.8425L377.413,66.6977L377.05,66.5538L376.686,66.411L376.322,66.2693L375.957,66.1286L375.592,65.9892L375.226,65.8508L374.86,65.7134L374.493,65.5772L374.125,65.4419L373.757,65.3078L373.389,65.175L373.02,65.043L372.651,64.9124L372.281,64.7827L371.91,64.654L371.539,64.5266L371.168,64.4003L370.796,64.275L370.423,64.1509L370.051,64.028L369.677,63.9061L369.303,63.7851L368.928,63.6655L368.554,63.547L368.178,63.4294L367.802,63.3132L367.425,63.198L367.048,63.0839L366.671,62.971L366.293,62.8592L365.914,62.7485L365.536,62.639L365.156,62.5306L364.776,62.4233L364.396,62.3173L364.015,62.2123L363.633,62.1084L363.252,62.0058L362.869,61.9042L362.487,61.8038L362.103,61.7046L361.72,61.6065L361.335,61.5095L360.951,61.4137L360.566,61.3191L360.18,61.2256L359.794,61.1334L359.408,61.0423L359.02,60.9522L358.633,60.8634L358.245,60.7758L357.857,60.6893L357.468,60.6041L357.079,60.5199L356.689,60.437L356.299,60.3552L355.908,60.2746L355.517,60.1952L355.125,60.117L354.733,60.04L354.341,59.9642L353.948,59.8895L353.554,59.816L353.16,59.7437L352.766,59.6727L352.372,59.6029L351.976,59.5342L351.58,59.4667L351.184,59.4004L350.788,59.3354L350.391,59.2715L349.994,59.2089L349.596,59.1475L349.198,59.0873L348.799,59.0282L348.4,58.9705L348,58.9139L347.6,58.8586L347.2,58.8045L346.799,58.7516L346.398,58.6999L345.996,58.6495L345.594,58.6003L345.191,58.5524L344.788,58.5057L344.385,58.4602L343.981,58.4159L343.577,58.373L343.172,58.3312L342.766,58.2907L342.361,58.2514L341.955,58.2135L341.549,58.1767L341.142,58.1412L340.734,58.107L340.327,58.074L339.919,58.0423L339.51,58.0119L339.101,57.9827L338.692,57.9548L338.282,57.9282L337.872,57.9029L337.461,57.8788L337.05,57.856L336.639,57.8345L336.227,57.8143L335.815,57.7953L335.402,57.7777L334.989,57.7613L334.575,57.7463L334.162,57.7325L333.747,57.72L333.333,57.7089L332.917,57.699L332.502,57.6905L332.086,57.6832L331.67,57.6773L331.253,57.6727L330.836,57.6694L330.418,57.6674L330,57.6667L329.582,57.6674L329.164,57.6694L328.747,57.6727L328.33,57.6773L327.914,57.6832L327.498,57.6905L327.083,57.699L326.667,57.7089L326.253,57.72L325.838,57.7325L325.425,57.7463L325.011,57.7613L324.598,57.7777L324.185,57.7953L323.773,57.8143L323.361,57.8345L322.95,57.856L322.539,57.8788L322.128,57.9029L321.718,57.9282L321.308,57.9548L320.899,57.9827L320.49,58.0119L320.081,58.0423L319.673,58.074L319.266,58.107L318.858,58.1412L318.451,58.1767L318.045,58.2135L317.639,58.2514L317.234,58.2907L316.828,58.3312L316.423,58.373L316.019,58.4159L315.615,58.4602L315.212,58.5057L314.809,58.5524L314.406,58.6003L314.004,58.6495L313.602,58.6999L313.201,58.7516L312.8,58.8045L312.4,58.8586L312,58.9139L311.6,58.9705L311.201,59.0282L310.802,59.0873L310.404,59.1475L310.006,59.2089L309.609,59.2715L309.212,59.3354L308.816,59.4004L308.42,59.4667L308.024,59.5342L307.628,59.6029L307.234,59.6727L306.84,59.7437L306.446,59.816L306.052,59.8895L305.659,59.9642L305.267,60.04L304.875,60.117L304.483,60.1952L304.092,60.2746L303.701,60.3552L303.311,60.437L302.921,60.5199L302.532,60.6041L302.143,60.6893L301.755,60.7758L301.367,60.8634L300.98,60.9522L300.592,61.0423L300.206,61.1334L299.82,61.2256L299.434,61.3191L299.049,61.4137L298.665,61.5095L298.28,61.6065L297.897,61.7046L297.513,61.8038L297.131,61.9042L296.748,62.0058L296.367,62.1084L295.985,62.2123L295.604,62.3173L295.224,62.4233L294.844,62.5306L294.464,62.639L294.086,62.7485L293.707,62.8592L293.329,62.971L292.952,63.0839L292.575,63.198L292.198,63.3132L291.822,63.4294L291.446,63.547L291.072,63.6655L290.697,63.7851L290.323,63.9061L289.949,64.028L289.577,64.1509L289.204,64.275L288.832,64.4003L288.461,64.5266L288.09,64.654L287.719,64.7827L287.349,64.9124L286.98,65.043L286.611,65.175L286.243,65.3078L285.875,65.4419L285.507,65.5772L285.14,65.7134L284.774,65.8508L284.408,65.9892L284.043,66.1286L283.678,66.2693L283.314,66.411L282.95,66.5538L282.587,66.6977L282.224,66.8425L281.862,66.9885L281.5,67.1357L281.139,67.2838L280.779,67.4329L280.419,67.5833L280.06,67.7347L279.701,67.8872L279.342,68.0407L278.985,68.1951L278.628,68.3507L278.271,68.5074L277.915,68.6653L277.559,68.824L277.204,68.9838L276.85,69.1447L276.496,69.3066L276.143,69.4697L275.79,69.6337L275.438,69.7989L275.086,69.9649L274.736,70.1318L274.385,70.3002L274.035,70.4695L273.686,70.6397L273.337,70.8111L272.989,70.9834L272.641,71.1568L272.294,71.3311L271.948,71.5065L271.602,71.6831L271.257,71.8605L270.913,72.0389L270.568,72.2185L270.225,72.3991L269.882,72.5806L269.54,72.763L269.198,72.9467L268.857,73.1312L268.517,73.3168L268.177,73.5035L267.838,73.6911L267.5,73.8795L267.161,74.0693L266.824,74.2598L266.487,74.4514L266.151,74.6441L265.816,74.8375L265.481,75.0321L265.147,75.2276L264.813,75.4242L264.48,75.6217L264.148,75.8203L263.816,76.0199L263.485,76.2202L263.155,76.4217L262.825,76.624L262.496,76.8274L262.167,77.0319L261.84,77.2371L261.512,77.4434L261.186,77.6509L260.86,77.859L260.535,78.0682L260.21,78.2783L259.886,78.4894L259.563,78.7016L259.24,78.9145L258.918,79.1286L258.597,79.3434L258.277,79.5594L257.957,79.7762L257.638,79.9939L257.319,80.2126L257.001,80.4322L256.684,80.6527L256.367,80.8744L256.051,81.097L255.736,81.3202L255.422,81.5445L255.108,81.7698L254.795,81.9962L254.483,82.2229L254.171,82.451L253.86,82.6801L253.55,82.9099L253.241,83.1406L252.932,83.3724L252.624,83.6049L252.316,83.8386L252.009,84.0731L251.703,84.3082L251.398,84.5443L251.094,84.7815L250.79,85.0198L250.487,85.2586L250.184,85.4984L249.883,85.7391L249.582,85.9807L249.282,86.2231L248.982,86.4666L248.683,86.7109L248.385,86.956L248.088,87.2021L247.792,87.4489L247.496,87.6968L247.201,87.9454L246.907,88.1949L246.613,88.4456L246.321,88.6966L246.029,88.9488L245.737,89.2018L245.447,89.4557L245.157,89.7106L244.869,89.9658L244.58,90.2223L244.293,90.4798L244.006,90.7379L243.72,90.9969L243.435,91.2569L243.151,91.5176L242.868,91.7789L242.585,92.0411L242.303,92.3046L242.022,92.5687L241.742,92.8335L241.462,93.0992L241.183,93.3659L240.905,93.6331L240.628,93.9012L240.352,94.1703L240.076,94.4402L239.801,94.7111L239.528,94.9826L239.255,95.2545L238.982,95.5277L238.711,95.8018L238.44,96.0763L238.17,96.3519L237.901,96.6284L237.633,96.9056L237.366,97.1833L237.099,97.4619L236.834,97.7417L236.569,98.022L236.304,98.3032L236.041,98.585L235.779,98.8679L235.517,99.1511L235.257,99.4353L234.997,99.7207L234.738,100.006L234.48,100.293L234.222,100.58L233.966,100.868L233.711,101.157L233.456,101.447L233.202,101.738L232.949,102.029L232.697,102.321L232.445,102.613L232.195,102.907L231.945,103.201L231.697,103.496L231.449,103.792L231.202,104.088L230.956,104.386L230.711,104.683L230.467,104.982L230.223,105.281L229.981,105.582L229.739,105.883L229.498,106.184L229.259,106.487L229.019,106.79L228.782,107.094L228.544,107.398L228.308,107.704L228.073,108.009L227.839,108.316L227.605,108.624L227.372,108.932L227.141,109.241L226.91,109.55L226.68,109.86L226.451,110.171L226.223,110.483L225.996,110.795L225.77,111.108L225.545,111.422L225.32,111.737L225.097,112.052L224.874,112.367L224.653,112.684L224.432,113.001L224.213,113.319L223.994,113.638L223.776,113.957L223.559,114.277L223.344,114.597L223.129,114.918L222.915,115.24L222.702,115.563L222.489,115.887L222.278,116.21L222.068,116.534L221.859,116.86L221.651,117.186L221.443,117.512L221.237,117.84L221.032,118.167L220.827,118.496L220.624,118.825L220.422,119.155L220.22,119.485L220.02,119.816L219.82,120.148L219.622,120.48L219.424,120.813L219.228,121.147L219.032,121.481L218.838,121.816L218.644,122.152L218.451,122.488L218.26,122.824L218.069,123.161L217.88,123.499L217.691,123.838L217.503,124.177L217.317,124.517L217.131,124.858L216.947,125.198L216.763,125.54L216.581,125.882L216.399,126.225L216.218,126.568L216.039,126.913L215.86,127.257L215.683,127.602L215.507,127.948L215.331,128.294L215.157,128.641L214.983,128.989L214.811,129.337L214.64,129.686L214.469,130.035L214.3,130.385L214.132,130.735L213.965,131.086L213.799,131.438L213.633,131.79L213.469,132.143L213.307,132.496L213.145,132.85L212.984,133.204L212.824,133.559L212.665,133.915L212.508,134.271L212.351,134.627L212.195,134.985L212.041,135.342L211.887,135.701L211.735,136.06L211.583,136.419L211.433,136.779L211.284,137.139L211.136,137.5L210.988,137.862L210.843,138.224L210.698,138.587L210.554,138.95L210.411,139.313L210.269,139.678L210.129,140.043L209.989,140.408L209.851,140.774L209.713,141.14L209.577,141.507L209.442,141.875L209.308,142.242L209.175,142.611L209.043,142.98L208.912,143.349L208.783,143.719L208.654,144.089L208.527,144.461L208.4,144.832L208.275,145.204L208.151,145.576L208.028,145.95L207.906,146.323L207.785,146.697L207.665,147.072L207.547,147.446L207.429,147.822L207.313,148.199L207.198,148.574L207.084,148.952L206.971,149.329L206.859,149.707L206.749,150.085L206.639,150.464L206.531,150.844L206.423,151.223L206.317,151.604L206.212,151.985L206.108,152.366L206.006,152.748L205.904,153.13L205.804,153.513L205.705,153.897L205.606,154.281L205.509,154.665L205.414,155.049L205.319,155.434L205.226,155.82L205.133,156.206L205.042,156.593L204.952,156.979L204.863,157.367L204.776,157.755L204.689,158.143L204.604,158.532L204.52,158.921L204.437,159.312L204.355,159.702L204.275,160.092L204.195,160.484L204.117,160.875L204.04,161.267L203.964,161.66L203.889,162.053L203.816,162.446L203.744,162.84L203.673,163.234L203.603,163.628L203.534,164.023L203.467,164.42L203.4,164.816L203.335,165.212L203.272,165.609L203.209,166.006L203.147,166.404L203.087,166.802L203.028,167.201L202.97,167.6L202.914,168L202.859,168.4L202.805,168.8L202.752,169.201L202.7,169.602L202.65,170.004L202.6,170.406L202.552,170.809L202.506,171.212L202.46,171.616L202.416,172.019L202.373,172.424L202.331,172.828L202.291,173.233L202.251,173.639L202.213,174.045L202.177,174.452L202.141,174.858L202.107,175.266L202.074,175.674L202.042,176.081L202.012,176.49L201.983,176.899L201.955,177.308L201.928,177.718L201.903,178.128L201.879,178.539L201.856,178.95L201.835,179.361L201.814,179.773L201.795,180.185L201.778,180.598L201.761,181.011L201.746,181.425L201.733,181.838L201.72,182.253L201.709,182.668L201.699,183.083L201.69,183.498L201.683,183.914L201.677,184.331L201.673,184.748L201.669,185.164L201.667,185.582L201.667,186L201.667,186.418L201.669,186.836L201.673,187.252L201.677,187.669L201.683,188.086L201.69,188.502L201.699,188.917L201.709,189.332L201.72,189.747L201.733,190.162L201.746,190.575L201.761,190.989L201.778,191.402L201.795,191.815L201.814,192.227L201.835,192.639L201.856,193.05L201.879,193.461L201.903,193.872L201.928,194.282L201.955,194.692L201.983,195.101L202.012,195.51L202.042,195.919L202.074,196.326L202.107,196.734L202.141,197.142L202.177,197.548L202.213,197.955L202.251,198.361L202.291,198.767L202.331,199.172L202.373,199.576L202.416,199.981L202.46,200.384L202.506,200.788L202.552,201.191L202.6,201.594L202.65,201.996L202.7,202.398L202.752,202.799L202.805,203.2L202.859,203.6L202.914,204L202.97,204.4L203.028,204.799L203.087,205.198L203.147,205.596L203.209,205.994L203.272,206.391L203.335,206.788L203.4,207.184L203.467,207.58L203.534,207.977L203.603,208.372L203.673,208.766L203.744,209.16L203.816,209.554L203.889,209.947L203.964,210.34L204.04,210.733L204.117,211.125L204.195,211.516L204.275,211.908L204.355,212.298L204.437,212.688L204.52,213.079L204.604,213.468L204.689,213.857L204.776,214.245L204.863,214.633L204.952,215.021L205.042,215.407L205.133,215.794L205.226,216.18L205.319,216.566L205.414,216.951L205.509,217.335L205.606,217.719L205.705,218.103L205.804,218.487L205.904,218.87L206.006,219.252L206.108,219.634L206.212,220.015L206.317,220.396L206.423,220.777L206.531,221.156L206.639,221.536L206.749,221.915L206.859,222.293L206.971,222.671L207.084,223.048L207.198,223.426L207.313,223.801L207.429,224.178L207.547,224.554L207.665,224.928L207.785,225.303L207.906,225.677L208.028,226.05L208.151,226.424L208.275,226.796L208.4,227.168L208.527,227.539L208.654,227.911L208.783,228.281L208.912,228.651L209.043,229.02L209.175,229.389L209.308,229.758L209.442,230.126L209.577,230.493L209.713,230.86L209.851,231.226L209.989,231.592L210.129,231.957L210.269,232.322L210.411,232.687L210.554,233.05L210.698,233.413L210.843,233.776L210.988,234.138L211.136,234.5L211.284,234.861L211.433,235.221L211.583,235.581L211.735,235.94L211.887,236.299L212.041,236.658L212.195,237.015L212.351,237.373L212.508,237.729L212.665,238.085L212.824,238.441L212.984,238.796L213.145,239.15L213.307,239.504L213.47,239.857L213.633,240.209L213.799,240.563L213.965,240.914L214.132,241.264L214.3,241.615L214.469,241.965L214.64,242.314L214.811,242.663L214.983,243.011L215.157,243.359L215.331,243.706L215.506,244.052L215.683,244.398L215.86,244.743L216.039,245.087L216.218,245.432L216.399,245.775L216.581,246.119L216.763,246.46L216.947,246.801L217.131,247.142L217.317,247.483L217.503,247.823L217.691,248.162L217.879,248.5L218.069,248.839L218.26,249.176L218.451,249.512L218.644,249.849L218.838,250.184L219.032,250.519L219.228,250.853L219.424,251.187L219.622,251.519L219.82,251.852L220.02,252.184L220.22,252.515L220.422,252.845L220.624,253.175L220.827,253.504L221.032,253.833L221.237,254.161L221.444,254.488L221.65,254.814L221.859,255.14L222.069,255.466L222.278,255.79L222.489,256.113L222.702,256.437L222.915,256.76L223.129,257.082L223.344,257.403L223.559,257.723L223.776,258.043L223.994,258.362L224.212,258.681L224.432,258.999L224.653,259.316L224.874,259.632L225.097,259.948L225.32,260.263L225.545,260.578L225.77,260.892L225.996,261.204L226.223,261.518L226.451,261.829L226.68,262.139L226.91,262.45L227.141,262.76L227.372,263.068L227.605,263.376L227.839,263.685L228.073,263.991L228.308,264.296L228.544,264.602L228.782,264.906L229.02,265.21L229.259,265.513L229.498,265.816L229.739,266.118L229.981,266.418L230.223,266.718L230.467,267.018L230.711,267.316L230.956,267.614L231.202,267.912L231.449,268.209L231.697,268.504L231.945,268.799L232.195,269.093L232.446,269.387L232.697,269.68L232.949,269.971L233.202,270.262L233.456,270.553L233.711,270.843L233.966,271.132L234.223,271.42L234.479,271.707L234.738,271.994L234.997,272.28L235.256,272.564L235.517,272.848L235.779,273.132L236.042,273.415L236.304,273.697L236.568,273.978L236.834,274.259L237.1,274.538L237.366,274.816L237.633,275.094L237.902,275.372L238.17,275.648L238.44,275.924L238.711,276.198L238.982,276.472L239.254,276.745L239.527,277.017L239.802,277.289L240.077,277.56L240.352,277.83L240.628,278.098L240.905,278.367L241.184,278.634L241.462,278.901L241.742,279.167L242.022,279.431L242.303,279.695L242.585,279.959L242.868,280.221L243.151,280.482L243.435,280.743L243.72,281.003L244.006,281.262L244.293,281.521L244.58,281.778L244.868,282.034L245.158,282.29L245.447,282.544L245.737,282.798L246.029,283.051L246.321,283.304L246.613,283.554L246.907,283.805L247.201,284.054L247.496,284.303L247.792,284.551L248.088,284.798L248.386,285.044L248.683,285.289L248.982,285.534L249.281,285.777L249.582,286.019L249.883,286.261L250.184,286.501L250.486,286.741L250.789,286.98L251.094,287.218L251.399,287.456L251.704,287.692L252.009,287.927L252.316,288.162L252.623,288.395L252.931,288.627L253.241,288.86L253.55,289.09L253.861,289.32L254.171,289.549L254.483,289.777L254.795,290.004L255.108,290.23L255.422,290.455L255.736,290.68L256.052,290.903L256.367,291.126L256.684,291.347L257.001,291.568L257.32,291.788L257.637,292.006L257.956,292.224L258.277,292.441L258.597,292.656L258.918,292.871L259.241,293.086L259.563,293.298L259.886,293.511L260.21,293.722L260.534,293.932L260.859,294.141L261.186,294.349L261.512,294.557L261.84,294.763L262.168,294.968L262.496,295.173L262.825,295.376L263.154,295.578L263.486,295.78L263.817,295.981L264.148,296.18L264.48,296.378L264.813,296.575L265.147,296.772L265.481,296.968L265.816,297.163L266.151,297.356L266.487,297.548L266.825,297.741L267.162,297.931L267.499,298.12L267.838,298.309L268.177,298.496L268.516,298.683L268.857,298.869L269.199,299.054L269.541,299.237L269.882,299.419L270.224,299.601L270.568,299.782L270.912,299.961L271.257,300.139L271.602,300.317L271.948,300.494L272.295,300.669L272.641,300.843L272.989,301.017L273.337,301.189L273.686,301.36L274.034,301.53L274.385,301.7L274.736,301.868L275.086,302.035L275.438,302.201L275.79,302.366L276.142,302.53L276.496,302.693L276.85,302.855L277.204,303.016L277.559,303.176L277.915,303.335L278.271,303.493L278.628,303.649L278.985,303.805L279.343,303.959L279.701,304.113L280.059,304.265L280.419,304.417L280.78,304.567L281.139,304.716L281.501,304.864L281.863,305.012L282.224,305.157L282.586,305.302L282.95,305.446L283.314,305.589L283.678,305.731L284.043,305.871L284.407,306.011L284.773,306.149L285.141,306.287L285.507,306.423L285.875,306.558L286.243,306.692L286.61,306.825L286.98,306.957L287.349,307.088L287.718,307.217L288.09,307.346L288.461,307.474L288.832,307.6L289.203,307.725L289.577,307.849L289.949,307.972L290.323,308.094L290.697,308.215L291.072,308.335L291.447,308.453L291.822,308.57L292.197,308.687L292.575,308.802L292.952,308.916L293.329,309.029L293.706,309.141L294.086,309.251L294.464,309.361L294.844,309.469L295.224,309.577L295.604,309.683L295.985,309.788L296.368,309.892L296.748,309.994L297.13,310.096L297.514,310.196L297.896,310.295L298.28,310.394L298.664,310.49L299.049,310.586L299.434,310.681L299.82,310.774L300.207,310.867L300.593,310.958L300.98,311.048L301.367,311.137L301.755,311.224L302.144,311.311L302.532,311.396L302.921,311.48L303.312,311.563L303.702,311.645L304.092,311.725L304.483,311.805L304.874,311.883L305.268,311.96L305.66,312.036L306.052,312.11L306.446,312.184L306.84,312.256L307.234,312.327L307.629,312.397L308.024,312.466L308.419,312.533L308.816,312.6L309.213,312.665L309.609,312.729L310.006,312.791L310.404,312.853L310.802,312.913L311.201,312.972L311.6,313.029L311.999,313.086L312.4,313.141L312.801,313.196L313.202,313.249L313.602,313.3L314.004,313.35L314.406,313.4L314.809,313.448L315.212,313.494L315.615,313.54L316.019,313.584L316.424,313.627L316.828,313.669L317.233,313.709L317.639,313.749L318.045,313.787L318.451,313.823L318.858,313.859L319.266,313.893L319.674,313.926L320.082,313.958L320.489,313.988L320.898,314.017L321.308,314.045L321.718,314.072L322.129,314.097L322.538,314.121L322.95,314.144L323.362,314.166L323.773,314.186L324.186,314.205L324.598,314.222L325.01,314.239L325.424,314.254L325.838,314.267L326.253,314.28L326.668,314.291L327.083,314.301L327.498,314.31L327.913,314.317L328.331,314.323L328.748,314.327L329.163,314.331L329.582,314.333L330,314.333Z" style="fill:black;"/>
            </g>
            <g>
                <path d="M209.275,281.057C202.9,274.682 192.565,274.682 186.19,281.057L23.7809,443.466C17.4064,449.841 17.4064,460.176 23.7809,466.55L46.8654,489.635C53.2399,496.009 63.5752,496.009 69.9498,489.635L232.359,327.225C238.734,320.851 238.734,310.516 232.359,304.141L209.275,281.057Z" style="fill:black;"/>
            </g>
            <g>
                <path d="M377.093,111.496C350.755,85.1583 301.484,91.7279 267.042,126.17C232.601,160.611 226.031,209.883 252.369,236.22C247.106,212.365 260.034,175.832 288.369,147.496C316.704,119.161 353.238,106.233 377.093,111.496Z" style="fill:black;"/>
                <path d="M252.369,236.22L252.215,236.066L252.062,235.911L251.909,235.755L251.757,235.599L251.607,235.442L251.456,235.285L251.307,235.127L251.158,234.969L251.01,234.811L250.863,234.651L250.717,234.492L250.571,234.331L250.426,234.171L250.282,234.009L250.139,233.848L249.996,233.685L249.854,233.523L249.713,233.359L249.572,233.196L249.433,233.031L249.294,232.867L249.156,232.701L249.018,232.536L248.881,232.369L248.745,232.203L248.61,232.036L248.476,231.868L248.342,231.7L248.209,231.531L248.077,231.362L247.946,231.193L247.815,231.023L247.685,230.852L247.556,230.681L247.427,230.51L247.299,230.338L247.172,230.165L247.046,229.993L246.921,229.819L246.796,229.646L246.672,229.471L246.549,229.297L246.426,229.122L246.304,228.946L246.183,228.77L246.063,228.594L245.944,228.417L245.825,228.239L245.707,228.062L245.589,227.883L245.473,227.705L245.357,227.526L245.242,227.346L245.128,227.166L245.014,226.986L244.901,226.805L244.789,226.623L244.678,226.442L244.567,226.26L244.457,226.077L244.348,225.894L244.239,225.711L244.132,225.527L244.025,225.343L243.919,225.158L243.813,224.973L243.708,224.787L243.604,224.601L243.501,224.415L243.399,224.228L243.297,224.041L243.196,223.854L243.095,223.666L242.996,223.477L242.897,223.289L242.799,223.1L242.702,222.91L242.605,222.72L242.509,222.53L242.414,222.339L242.32,222.148L242.226,221.956L242.133,221.765L242.041,221.572L241.949,221.38L241.858,221.187L241.768,220.993L241.679,220.799L241.591,220.605L241.503,220.411L241.416,220.216L241.329,220.02L241.244,219.825L241.159,219.629L241.075,219.432L240.991,219.236L240.909,219.039L240.827,218.841L240.745,218.643L240.665,218.445L240.585,218.246L240.506,218.048L240.428,217.848L240.35,217.649L240.273,217.449L240.197,217.248L240.122,217.048L240.047,216.847L239.973,216.645L239.9,216.444L239.828,216.242L239.756,216.039L239.685,215.837L239.615,215.634L239.545,215.43L239.476,215.227L239.408,215.023L239.341,214.818L239.274,214.614L239.208,214.409L239.143,214.203L239.078,213.998L239.015,213.792L238.952,213.585L238.889,213.379L238.828,213.172L238.767,212.965L238.707,212.757L238.647,212.549L238.589,212.341L238.531,212.133L238.474,211.924L238.417,211.715L238.361,211.506L238.306,211.296L238.252,211.086L238.198,210.876L238.145,210.665L238.093,210.454L238.042,210.243L237.991,210.032L237.941,209.82L237.892,209.608L237.843,209.396L237.795,209.183L237.748,208.97L237.702,208.757L237.656,208.544L237.611,208.33L237.567,208.116L237.524,207.902L237.481,207.688L237.439,207.473L237.397,207.258L237.357,207.043L237.317,206.827L237.278,206.611L237.239,206.395L237.201,206.179L237.164,205.962L237.092,205.529L237.023,205.094L236.957,204.658L236.894,204.221L236.833,203.783L236.776,203.344L236.721,202.904L236.669,202.464L236.62,202.022L236.574,201.58L236.53,201.136L236.49,200.692L236.452,200.247L236.417,199.801L236.385,199.354L236.356,198.907L236.33,198.458L236.306,198.009L236.286,197.559L236.268,197.109L236.253,196.657L236.241,196.205L236.231,195.752L236.225,195.298L236.221,194.844L236.221,194.389L236.223,193.933L236.227,193.477L236.235,193.02L236.245,192.563L236.259,192.104L236.275,191.646L236.294,191.186L236.315,190.726L236.34,190.266L236.367,189.805L236.397,189.343L236.43,188.881L236.466,188.418L236.505,187.955L236.546,187.491L236.59,187.027L236.637,186.563L236.687,186.098L236.739,185.633L236.794,185.167L236.852,184.701L236.913,184.234L236.977,183.767L237.043,183.3L237.112,182.832L237.184,182.364L237.259,181.896L237.337,181.427L237.417,180.958L237.5,180.489L237.586,180.02L237.674,179.55L237.766,179.08L237.86,178.61L237.957,178.14L238.056,177.669L238.159,177.198L238.264,176.728L238.372,176.256L238.482,175.785L238.596,175.314L238.712,174.843L238.831,174.371L238.953,173.899L239.077,173.428L239.204,172.956L239.334,172.484L239.466,172.012L239.602,171.54L239.74,171.069L239.881,170.597L240.024,170.125L240.17,169.653L240.319,169.181L240.471,168.71L240.626,168.238L240.783,167.767L240.943,167.295L241.105,166.824L241.27,166.353L241.439,165.882L241.609,165.411L241.783,164.94L241.959,164.469L242.138,163.999L242.319,163.529L242.504,163.059L242.69,162.589L242.88,162.12L243.072,161.651L243.268,161.182L243.465,160.713L243.666,160.245L243.869,159.777L244.075,159.31L244.283,158.842L244.494,158.375L244.708,157.909L244.925,157.443L245.144,156.977L245.366,156.511L245.591,156.047L245.818,155.582L246.048,155.118L246.28,154.654L246.516,154.191L246.754,153.729L246.994,153.267L247.238,152.805L247.483,152.344L247.732,151.884L247.983,151.424L248.237,150.964L248.494,150.506L248.753,150.047L249.015,149.59L249.279,149.133L249.547,148.677L249.816,148.221L250.089,147.766L250.364,147.312L250.642,146.858L250.922,146.405L251.205,145.953L251.491,145.502L251.779,145.051L252.07,144.601L252.363,144.152L252.66,143.704L252.958,143.256L253.26,142.81L253.564,142.364L253.87,141.919L254.18,141.474L254.492,141.031L254.806,140.589L255.123,140.147L255.443,139.707L255.765,139.267L256.09,138.828L256.418,138.39L256.748,137.954L257.081,137.518L257.416,137.083L257.754,136.649L258.095,136.216L258.438,135.784L258.783,135.354L259.132,134.924L259.483,134.495L259.836,134.068L260.192,133.641L260.551,133.216L260.912,132.792L261.276,132.369L261.643,131.947L262.012,131.526L262.383,131.107L262.757,130.688L263.134,130.271L263.513,129.855L263.895,129.441L264.28,129.027L264.667,128.615L265.056,128.204L265.448,127.795L265.843,127.386L266.24,126.979L266.64,126.574L267.042,126.17L267.447,125.767L267.852,125.367L268.259,124.97L268.667,124.576L269.077,124.183L269.488,123.794L269.9,123.407L270.313,123.022L270.728,122.641L271.144,122.261L271.561,121.885L271.979,121.51L272.399,121.139L272.82,120.77L273.242,120.403L273.665,120.04L274.089,119.678L274.514,119.32L274.941,118.964L275.368,118.61L275.797,118.259L276.226,117.911L276.657,117.565L277.089,117.222L277.522,116.881L277.956,116.543L278.39,116.208L278.826,115.875L279.263,115.545L279.701,115.218L280.14,114.893L280.579,114.57L281.02,114.251L281.461,113.933L281.904,113.619L282.347,113.307L282.791,112.998L283.236,112.691L283.682,112.387L284.129,112.086L284.576,111.787L285.025,111.491L285.474,111.197L285.924,110.906L286.374,110.618L286.826,110.332L287.278,110.049L287.731,109.769L288.184,109.491L288.639,109.216L289.094,108.944L289.549,108.674L290.006,108.407L290.463,108.142L290.92,107.88L291.378,107.621L291.837,107.365L292.296,107.111L292.756,106.859L293.217,106.611L293.678,106.365L294.139,106.122L294.601,105.881L295.064,105.643L295.527,105.408L295.991,105.175L296.455,104.945L296.919,104.718L297.384,104.493L297.85,104.271L298.315,104.052L298.781,103.836L299.248,103.622L299.715,103.411L300.182,103.202L300.65,102.996L301.118,102.793L301.586,102.593L302.055,102.395L302.524,102.2L302.993,102.007L303.462,101.818L303.932,101.631L304.402,101.447L304.872,101.265L305.342,101.086L305.813,100.91L306.283,100.737L306.754,100.566L307.225,100.398L307.696,100.232L308.168,100.07L308.639,99.91L309.111,99.7529L309.582,99.5985L310.054,99.4467L310.526,99.2978L310.998,99.1515L311.469,99.008L311.941,98.8672L312.413,98.7291L312.885,98.5938L313.357,98.4612L313.829,98.3313L314.3,98.2042L314.772,98.0798L315.244,97.9582L315.715,97.8393L316.187,97.7231L316.658,97.6097L317.129,97.4991L317.6,97.3912L318.071,97.286L318.542,97.1837L319.012,97.084L319.483,96.9872L319.953,96.893L320.423,96.8017L320.892,96.7131L321.362,96.6273L321.831,96.5442L322.3,96.4639L322.769,96.3864L323.237,96.3117L323.705,96.2397L324.172,96.1706L324.64,96.1041L325.107,96.0405L325.573,95.9797L326.039,95.9216L326.505,95.8663L326.971,95.8139L327.436,95.7642L327.9,95.7173L328.364,95.6731L328.828,95.6318L329.291,95.5933L329.754,95.5576L330.216,95.5247L330.677,95.4945L331.138,95.4672L331.599,95.4427L332.059,95.421L332.518,95.4021L332.977,95.386L333.435,95.3728L333.893,95.3623L334.35,95.3547L334.806,95.3498L335.262,95.3478L335.717,95.3487L336.171,95.3523L336.625,95.3588L337.078,95.3681L337.53,95.3802L337.981,95.3952L338.432,95.4129L338.882,95.4336L339.331,95.457L339.779,95.4833L340.227,95.5125L340.674,95.5445L341.12,95.5793L341.565,95.6169L342.009,95.6575L342.452,95.7008L342.895,95.747L343.336,95.7961L343.777,95.848L344.217,95.9028L344.656,95.9605L345.094,96.0209L345.53,96.0843L345.966,96.1505L346.401,96.2196L346.835,96.2916L347.052,96.3286L347.268,96.3664L347.484,96.4049L347.7,96.4441L347.915,96.484L348.131,96.5246L348.346,96.566L348.56,96.6081L348.775,96.6509L348.989,96.6944L349.203,96.7386L349.417,96.7836L349.63,96.8293L349.843,96.8757L350.056,96.9228L350.269,96.9706L350.481,97.0192L350.693,97.0685L350.905,97.1185L351.116,97.1692L351.327,97.2206L351.538,97.2728L351.748,97.3257L351.959,97.3793L352.169,97.4336L352.378,97.4887L352.588,97.5444L352.797,97.6009L353.005,97.6582L353.214,97.7161L353.422,97.7748L353.63,97.8342L353.837,97.8943L354.045,97.9552L354.251,98.0167L354.458,98.079L354.664,98.142L354.87,98.2058L355.076,98.2703L355.281,98.3355L355.486,98.4014L355.691,98.468L355.895,98.5354L356.099,98.6035L356.303,98.6723L356.506,98.7419L356.709,98.8122L356.912,98.8832L357.114,98.9549L357.316,99.0274L357.518,99.1006L357.719,99.1745L357.92,99.2492L358.121,99.3246L358.321,99.4007L358.521,99.4775L358.721,99.5551L358.92,99.6334L359.119,99.7124L359.318,99.7922L359.516,99.8727L359.714,99.9539L359.911,100.036L360.108,100.119L360.305,100.202L360.501,100.286L360.697,100.371L360.893,100.457L361.088,100.543L361.283,100.63L361.478,100.718L361.672,100.806L361.866,100.896L362.059,100.986L362.252,101.076L362.445,101.168L362.637,101.26L362.829,101.353L363.021,101.447L363.212,101.541L363.402,101.636L363.593,101.732L363.783,101.829L363.972,101.926L364.161,102.024L364.35,102.123L364.538,102.223L364.726,102.323L364.914,102.424L365.101,102.526L365.288,102.628L365.474,102.732L365.66,102.836L365.846,102.94L366.031,103.046L366.215,103.152L366.4,103.259L366.583,103.367L366.767,103.475L366.95,103.584L367.132,103.694L367.314,103.805L367.496,103.916L367.677,104.028L367.858,104.141L368.039,104.255L368.219,104.369L368.398,104.484L368.577,104.6L368.756,104.717L368.934,104.834L369.112,104.952L369.289,105.071L369.466,105.19L369.643,105.311L369.819,105.432L369.994,105.554L370.169,105.676L370.344,105.799L370.518,105.923L370.692,106.048L370.865,106.174L371.038,106.3L371.211,106.427L371.382,106.554L371.554,106.683L371.725,106.812L371.895,106.942L372.065,107.073L372.235,107.204L372.404,107.336L372.573,107.469L372.741,107.603L372.908,107.738L373.075,107.873L373.242,108.009L373.408,108.145L373.574,108.283L373.739,108.421L373.904,108.56L374.068,108.7L374.232,108.84L374.395,108.981L374.558,109.123L374.72,109.266L374.882,109.409L375.043,109.553L375.204,109.698L375.364,109.844L375.524,109.99L375.683,110.138L375.842,110.286L376,110.434L376.158,110.584L376.315,110.734L376.472,110.885L376.628,111.036L376.783,111.189L376.939,111.342L377.093,111.496L376.813,111.435L376.532,111.376L376.249,111.319L375.966,111.263L375.681,111.208L375.395,111.156L375.108,111.105L374.82,111.056L374.531,111.008L374.241,110.962L373.949,110.918L373.657,110.876L373.364,110.835L373.069,110.795L372.773,110.758L372.477,110.722L372.179,110.687L371.88,110.655L371.581,110.624L371.28,110.594L370.978,110.567L370.675,110.54L370.371,110.516L370.067,110.493L369.761,110.472L369.454,110.452L369.147,110.435L368.838,110.418L368.528,110.404L368.218,110.391L367.906,110.379L367.594,110.37L367.28,110.362L366.966,110.355L366.651,110.35L366.335,110.347L366.018,110.346L365.7,110.346L365.382,110.347L365.062,110.351L364.742,110.356L364.42,110.362L364.098,110.37L363.775,110.38L363.451,110.392L363.127,110.405L362.801,110.42L362.475,110.436L362.148,110.454L361.82,110.473L361.491,110.494L361.162,110.517L360.832,110.542L360.501,110.568L360.169,110.595L359.837,110.624L359.503,110.655L359.169,110.688L358.835,110.722L358.499,110.757L358.163,110.795L357.826,110.834L357.489,110.874L357.151,110.916L356.812,110.96L356.472,111.005L356.132,111.052L355.791,111.1L355.449,111.15L355.107,111.202L354.764,111.255L354.421,111.31L354.077,111.367L353.732,111.425L353.387,111.484L353.041,111.546L352.694,111.608L352.347,111.673L352,111.739L351.651,111.806L351.303,111.876L350.953,111.946L350.603,112.019L350.253,112.093L349.902,112.168L349.55,112.245L349.198,112.324L348.846,112.404L348.493,112.486L348.139,112.569L347.785,112.654L347.431,112.741L347.076,112.829L346.72,112.919L346.364,113.01L346.008,113.103L345.651,113.197L345.294,113.293L344.936,113.391L344.578,113.49L344.22,113.59L343.861,113.693L343.502,113.796L343.142,113.902L342.782,114.009L342.421,114.117L342.061,114.227L341.699,114.339L341.338,114.452L340.976,114.567L340.614,114.683L340.251,114.801L339.888,114.92L339.525,115.041L339.162,115.164L338.798,115.288L338.434,115.413L338.069,115.54L337.704,115.669L337.34,115.799L336.974,115.931L336.609,116.064L336.243,116.199L335.877,116.336L335.511,116.474L335.145,116.613L334.778,116.754L334.411,116.897L334.044,117.041L333.677,117.187L333.309,117.334L332.942,117.482L332.574,117.633L332.206,117.785L331.838,117.938L331.469,118.093L331.101,118.249L330.732,118.407L330.364,118.566L329.995,118.727L329.626,118.89L329.257,119.054L328.888,119.219L328.518,119.386L328.149,119.555L327.78,119.725L327.41,119.897L327.041,120.07L326.671,120.245L326.301,120.421L325.932,120.598L325.562,120.778L325.192,120.958L324.822,121.141L324.453,121.324L324.083,121.51L323.713,121.696L323.343,121.885L322.974,122.075L322.604,122.266L322.234,122.459L321.865,122.653L321.495,122.849L321.125,123.046L320.756,123.245L320.387,123.445L320.017,123.647L319.648,123.85L319.279,124.055L318.91,124.261L318.541,124.469L318.172,124.679L317.803,124.889L317.435,125.102L317.066,125.315L316.698,125.531L316.33,125.748L315.962,125.966L315.594,126.186L315.227,126.407L314.859,126.629L314.492,126.854L314.125,127.079L313.758,127.307L313.391,127.535L313.025,127.765L312.659,127.997L312.293,128.23L311.927,128.465L311.562,128.701L311.196,128.938L310.831,129.177L310.467,129.418L310.102,129.66L309.738,129.903L309.375,130.148L309.011,130.394L308.648,130.642L308.285,130.891L307.922,131.142L307.56,131.394L307.198,131.648L306.837,131.903L306.476,132.16L306.115,132.418L305.754,132.678L305.394,132.939L305.035,133.201L304.675,133.465L304.317,133.73L303.958,133.997L303.6,134.265L303.242,134.535L302.885,134.806L302.528,135.079L302.172,135.353L301.816,135.629L301.461,135.906L301.106,136.184L300.751,136.464L300.397,136.745L300.044,137.028L299.691,137.313L299.338,137.598L298.986,137.885L298.635,138.174L298.284,138.464L297.933,138.755L297.584,139.048L297.234,139.343L296.886,139.638L296.537,139.936L296.19,140.234L295.843,140.534L295.496,140.836L295.15,141.139L294.805,141.443L294.46,141.749L294.116,142.056L293.773,142.365L293.43,142.675L293.088,142.986L292.746,143.299L292.406,143.614L292.065,143.929L291.726,144.246L291.387,144.565L291.049,144.885L290.711,145.207L290.375,145.529L290.039,145.854L289.703,146.179L289.369,146.507L289.035,146.835L288.701,147.165L288.369,147.496L288.038,147.829L287.708,148.162L287.379,148.496L287.052,148.83L286.726,149.166L286.402,149.502L286.079,149.839L285.758,150.176L285.438,150.514L285.119,150.853L284.802,151.193L284.486,151.533L284.172,151.874L283.859,152.215L283.547,152.557L283.237,152.9L282.929,153.244L282.622,153.588L282.316,153.932L282.011,154.278L281.708,154.623L281.407,154.97L281.107,155.317L280.808,155.665L280.511,156.013L280.215,156.362L279.921,156.711L279.628,157.061L279.337,157.411L279.047,157.762L278.758,158.114L278.471,158.466L278.185,158.818L277.901,159.171L277.618,159.525L277.337,159.879L277.057,160.233L276.778,160.588L276.501,160.943L276.226,161.299L275.952,161.656L275.679,162.012L275.408,162.37L275.138,162.727L274.87,163.085L274.603,163.444L274.338,163.803L274.074,164.162L273.811,164.522L273.55,164.882L273.291,165.242L273.033,165.603L272.776,165.964L272.521,166.326L272.267,166.688L272.015,167.05L271.764,167.412L271.515,167.775L271.267,168.138L271.021,168.502L270.776,168.866L270.532,169.23L270.29,169.594L270.05,169.959L269.811,170.324L269.573,170.689L269.337,171.054L269.103,171.42L268.87,171.786L268.638,172.152L268.408,172.519L268.179,172.885L267.952,173.252L267.726,173.619L267.502,173.986L267.279,174.354L267.058,174.721L266.838,175.089L266.62,175.457L266.403,175.825L266.188,176.194L265.974,176.562L265.762,176.931L265.551,177.299L265.342,177.668L265.134,178.037L264.928,178.406L264.723,178.775L264.52,179.145L264.318,179.514L264.118,179.883L263.919,180.253L263.721,180.622L263.526,180.992L263.331,181.362L263.139,181.731L262.947,182.101L262.757,182.471L262.569,182.84L262.382,183.21L262.197,183.58L262.013,183.95L261.831,184.32L261.65,184.689L261.471,185.059L261.293,185.429L261.117,185.798L260.943,186.168L260.769,186.538L260.598,186.907L260.428,187.276L260.259,187.646L260.092,188.015L259.927,188.384L259.763,188.753L259.6,189.122L259.439,189.491L259.28,189.86L259.122,190.228L258.965,190.597L258.811,190.965L258.657,191.333L258.505,191.701L258.355,192.069L258.206,192.437L258.059,192.804L257.914,193.171L257.769,193.538L257.627,193.905L257.486,194.272L257.346,194.638L257.208,195.004L257.072,195.37L256.937,195.736L256.804,196.102L256.672,196.467L256.542,196.832L256.413,197.196L256.286,197.561L256.16,197.925L256.036,198.289L255.914,198.652L255.793,199.016L255.674,199.378L255.556,199.741L255.439,200.103L255.325,200.465L255.212,200.827L255.1,201.188L254.99,201.549L254.881,201.909L254.774,202.269L254.669,202.629L254.565,202.988L254.463,203.347L254.362,203.706L254.263,204.064L254.166,204.421L254.07,204.779L253.975,205.135L253.883,205.492L253.791,205.848L253.702,206.203L253.613,206.558L253.527,206.913L253.442,207.267L253.359,207.62L253.277,207.973L253.197,208.326L253.118,208.678L253.041,209.029L252.965,209.38L252.891,209.731L252.819,210.081L252.748,210.43L252.679,210.779L252.612,211.127L252.546,211.475L252.481,211.822L252.418,212.168L252.357,212.514L252.297,212.86L252.239,213.204L252.183,213.548L252.128,213.892L252.075,214.235L252.023,214.577L251.973,214.918L251.925,215.259L251.878,215.599L251.832,215.939L251.789,216.278L251.747,216.616L251.706,216.954L251.667,217.29L251.63,217.627L251.594,217.962L251.56,218.297L251.528,218.631L251.497,218.964L251.468,219.296L251.44,219.628L251.414,219.959L251.39,220.289L251.367,220.619L251.346,220.947L251.326,221.275L251.309,221.602L251.292,221.928L251.278,222.254L251.264,222.579L251.253,222.902L251.243,223.225L251.235,223.548L251.228,223.869L251.223,224.189L251.22,224.509L251.218,224.828L251.218,225.145L251.22,225.462L251.223,225.778L251.228,226.094L251.234,226.408L251.242,226.721L251.252,227.034L251.263,227.345L251.276,227.656L251.291,227.965L251.307,228.274L251.325,228.582L251.345,228.888L251.366,229.194L251.389,229.499L251.413,229.803L251.439,230.105L251.467,230.407L251.496,230.708L251.527,231.008L251.56,231.306L251.594,231.604L251.63,231.901L251.668,232.196L251.707,232.491L251.748,232.784L251.791,233.077L251.835,233.368L251.881,233.658L251.929,233.948L251.978,234.236L252.029,234.523L252.081,234.808L252.135,235.093L252.191,235.377L252.249,235.659L252.308,235.94L252.369,236.22Z" style="fill:black;"/>
            </g>
        </g>
    </g>
</svg>
