<?xml version="1.0" standalone="no"?>
<!DOCTYPE svg PUBLIC "-//W3C//DTD SVG 1.1//EN" "http://www.w3.org/Graphics/SVG/1.1/DTD/svg11.dtd">
<svg width="512px" height="512px" version="1.1" xmlns="http://www.w3.org/2000/svg" xmlns:xlink="http://www.w3.org/1999/xlink" xml:space="preserve" style="fill-rule:evenodd;clip-rule:evenodd;stroke-linecap:round;stroke-linejoin:round;stroke-miterlimit:1.41421;">
    <g>
        <g id="Layer1">
            <g>
                <path d="M164.398,507.893L158.124,507.784L151.938,506.735L145.98,504.769L140.384,501.93L135.278,498.283L130.778,493.911L126.985,488.913L123.986,483.402L121.848,477.502L120.62,471.349L120.33,465.082L122.547,389.074L111.285,389.074L110.639,389.072L109.928,389.065L109.217,389.054L108.506,389.038L107.796,389.018L107.089,388.993L106.381,388.964L105.673,388.931L104.968,388.893L104.262,388.85L103.557,388.803L102.855,388.752L102.153,388.696L101.45,388.636L100.75,388.572L100.052,388.503L99.3535,388.43L98.6557,388.352L97.9596,388.271L97.2652,388.185L96.5698,388.094L95.8777,387.999L95.1873,387.9L94.4974,387.797L93.808,387.69L93.1204,387.578L92.4333,387.462L91.7482,387.342L91.065,387.218L90.3824,387.089L89.7018,386.956L89.0217,386.819L88.3438,386.678L87.6665,386.533L86.9912,386.384L86.3181,386.231L85.6456,386.073L84.9753,385.912L84.3058,385.746L83.6371,385.577L82.9706,385.403L82.3061,385.225L81.6439,385.044L80.9827,384.858L80.3236,384.669L79.6655,384.475L79.0084,384.278L78.3535,384.076L77.7008,383.871L77.0493,383.662L76.4001,383.449L75.7532,383.232L75.1074,383.011L74.4626,382.786L73.8203,382.558L73.1803,382.326L72.5416,382.09L71.9053,381.85L71.2701,381.606L70.6373,381.359L70.0072,381.108L69.3782,380.854L68.7506,380.595L68.1253,380.333L67.5027,380.067L66.8814,379.798L66.2625,379.525L65.6451,379.248L65.0303,378.967L64.4179,378.684L63.8059,378.396L63.1978,378.105L62.5922,377.811L61.9868,377.512L61.3842,377.211L60.7841,376.905L60.1869,376.597L59.5911,376.285L58.9967,375.969L58.4052,375.65L57.8151,375.327L57.229,375.002L56.6447,374.673L56.0606,374.34L55.4804,374.004L54.9032,373.665L54.3274,373.322L53.7546,372.976L53.1835,372.627L52.614,372.274L52.0474,371.918L51.4836,371.559L50.9217,371.196L50.3625,370.83L49.8062,370.462L49.2507,370.089L48.699,369.714L48.1502,369.336L47.6025,368.954L47.0567,368.568L46.5145,368.18L45.9763,367.79L45.4383,367.395L44.9028,366.997L44.3716,366.597L43.8413,366.193L43.3139,365.786L42.7888,365.376L42.2665,364.963L41.748,364.548L41.2307,364.129L40.7164,363.707L40.2053,363.283L39.6953,362.854L39.189,362.424L38.6852,361.99L38.1834,361.552L37.6854,361.113L37.19,360.671L36.6965,360.225L36.2061,359.777L35.7189,359.326L35.2329,358.871L34.751,358.414L34.2723,357.955L33.7942,357.491L33.3208,357.026L32.8499,356.558L32.3812,356.086L31.9163,355.613L31.4534,355.136L30.9927,354.656L30.5359,354.174L30.0824,353.689L29.6305,353.201L29.1825,352.711L28.7371,352.218L28.2936,351.721L27.8546,351.224L27.4181,350.723L26.9836,350.218L26.553,349.712L26.1251,349.203L25.6997,348.691L25.2782,348.177L24.8594,347.66L24.4438,347.141L24.031,346.619L23.6204,346.093L23.2142,345.566L22.8107,345.037L22.41,344.504L22.0127,343.97L21.6182,343.432L21.227,342.892L20.8386,342.35L20.4537,341.805L20.0722,341.258L19.6935,340.708L19.3178,340.156L18.9456,339.601L18.5771,339.045L18.2112,338.485L17.8488,337.924L17.4898,337.36L17.1333,336.793L16.7805,336.224L16.4315,335.654L16.0855,335.08L15.7427,334.504L15.4035,333.927L15.0673,333.346L14.7346,332.763L14.4052,332.178L14.0794,331.591L13.7571,331.002L13.438,330.411L13.1226,329.817L12.8104,329.221L12.5017,328.623L12.1968,328.023L11.895,327.42L11.5967,326.816L11.3023,326.209L11.0114,325.601L10.7237,324.99L10.4399,324.377L10.1597,323.762L9.88278,323.145L9.6099,322.526L9.34049,321.905L9.07456,321.282L8.81265,320.657L8.55405,320.03L8.29934,319.401L8.0484,318.77L7.80097,318.137L7.55747,317.502L7.31759,316.865L7.08154,316.227L6.84943,315.587L6.62116,314.945L6.39642,314.301L6.17547,313.654L5.95876,313.007L5.74564,312.358L5.53639,311.706L5.33118,311.054L5.12973,310.399L4.93232,309.743L4.73875,309.085L4.5491,308.425L4.36359,307.764L4.18198,307.101L4.00433,306.436L3.83076,305.77L3.66109,305.102L3.49553,304.433L3.33413,303.762L3.17667,303.09L3.02337,302.416L2.87413,301.741L2.72901,301.064L2.58797,300.385L2.45112,299.706L2.31846,299.025L2.18987,298.342L2.06558,297.659L1.94545,296.974L1.82945,296.287L1.71773,295.6L1.61025,294.911L1.50699,294.22L1.40805,293.529L1.31332,292.836L1.22291,292.143L1.13684,291.448L1.05501,290.752L0.977523,290.054L0.90439,289.356L0.835608,288.657L0.771182,287.957L0.711109,287.255L0.655435,286.553L0.604168,285.849L0.557292,285.145L0.514819,284.44L0.476786,283.734L0.443199,283.027L0.414053,282.319L0.389357,281.61L0.369142,280.901L0.353397,280.191L0.342138,279.48L0.335378,278.768L0.333333,278.121L0.333333,139.286L0.335378,138.64L0.342138,137.928L0.353397,137.217L0.369142,136.507L0.389357,135.797L0.414053,135.088L0.443201,134.381L0.476788,133.674L0.514819,132.968L0.557292,132.262L0.604165,131.558L0.655431,130.855L0.711109,130.152L0.771182,129.451L0.835608,128.751L0.90439,128.051L0.977531,127.353L1.05501,126.656L1.13683,125.96L1.22291,125.265L1.31332,124.571L1.40804,123.878L1.50701,123.187L1.61025,122.497L1.71774,121.808L1.82946,121.12L1.94541,120.434L2.06558,119.749L2.18989,119.065L2.31843,118.383L2.45112,117.702L2.58799,117.022L2.72901,116.344L2.87413,115.667L3.02335,114.992L3.17667,114.318L3.33411,113.645L3.49558,112.975L3.66114,112.305L3.83073,111.637L4.00433,110.971L4.18195,110.307L4.36356,109.644L4.54915,108.983L4.73875,108.323L4.93232,107.665L5.12977,107.008L5.33108,106.354L5.53639,105.701L5.74564,105.05L5.95872,104.4L6.17562,103.753L6.39634,103.107L6.621,102.463L6.84943,101.821L7.08162,101.18L7.31768,100.542L7.55747,99.9051L7.80102,99.2704L8.0484,98.6373L8.2994,98.0065L8.55405,97.3777L8.81249,96.7507L9.07462,96.1256L9.34043,95.5025L9.60984,94.8815L9.8829,94.2625L10.1596,93.6455L10.4399,93.0304L10.7239,92.4175L11.0113,91.8068L11.3022,91.1982L11.5969,90.5914L11.8951,89.9868L12.1966,89.3846L12.5017,88.7844L12.8104,88.1863L13.1225,87.5903L13.4381,86.9967L13.7571,86.4052L14.0796,85.8157L14.4054,85.2287L14.7346,84.644L15.0673,84.0614L15.4033,83.4811L15.7426,82.9032L16.0854,82.3274L16.4315,81.7539L16.7808,81.1828L17.1335,80.6141L17.4894,80.0476L17.8487,79.4836L18.211,78.9221L18.5769,78.3626L18.9459,77.8057L19.3182,77.251L19.6935,76.6991L20.0721,76.1495L20.4539,75.6022L20.8388,75.0575L21.2268,74.5153L21.618,73.9755L22.0124,73.4381L22.41,72.9032L22.8105,72.371L23.2142,71.8412L23.621,71.3138L24.0306,70.7894L24.4434,70.2673L24.8594,69.7477L25.2783,69.2307L25.7004,68.7161L26.1252,68.2045L26.553,67.6955L26.9838,67.1891L27.4177,66.6852L27.8545,66.1839L28.2941,65.6855L28.7366,65.1898L29.1822,64.6966L29.6308,64.2059L30.082,63.7184L30.5361,63.2335L30.9932,62.7511L31.4532,62.2716L31.9158,61.795L32.3814,61.321L32.8499,60.8497L33.321,60.3814L33.795,59.9158L34.2717,59.4531L34.751,58.9933L35.2333,58.5362L35.7184,58.0819L36.2061,57.6306L36.6965,57.1823L37.1896,56.7368L37.6854,56.2942L38.184,55.8544L38.6852,55.4177L39.1887,54.9841L39.6956,54.5529L40.2049,54.1249L40.7161,53.7004L41.2307,53.2783L41.7478,52.8593L42.2672,52.4435L42.7893,52.0307L43.3139,51.6209L43.8413,51.2141L44.3708,50.8106L44.9031,50.4101L45.4383,50.0123L45.9753,49.6182L46.5153,49.2268L47.0577,48.8386L47.6022,48.4539L48.1494,48.0721L48.699,47.6936L49.2512,47.3181L49.8057,46.9459L50.3625,46.577L50.922,46.2111L51.4836,45.8487L52.0476,45.4894L52.6143,45.1334L53.1829,44.7808L53.7537,44.4316L54.3274,44.0854L54.9032,43.7426L55.481,43.4034L56.0614,43.0673L56.6441,42.7345L57.2287,42.4054L57.8157,42.0796L58.4052,41.7571L58.9967,41.4381L59.5905,41.1224L60.1863,40.8104L60.7841,40.5019L61.3848,40.1965L61.9871,39.8949L62.5912,39.597L63.1981,39.3023L63.8068,39.0113L64.4173,38.724L65.0306,38.4399L65.6458,38.1595L66.2622,37.883L66.8814,37.6099L67.5027,37.3404L68.1256,37.0746L68.7506,36.8126L69.3776,36.5541L70.0068,36.2993L70.6377,36.0483L71.2704,35.801L71.905,35.5575L72.5416,35.3177L73.1803,35.0816L73.8206,34.8494L74.4626,34.6211L75.1067,34.3964L75.7528,34.1756L76.4005,33.9586L77.0496,33.7456L77.7008,33.5364L78.3538,33.3311L79.0087,33.1297L79.6648,32.9323L80.3226,32.7388L80.9824,32.5492L81.6436,32.3636L82.3068,32.1819L82.9716,32.0043L83.6378,31.8306L84.3051,31.6612L84.9743,31.4957L85.6456,31.334L86.3178,31.1767L86.9916,31.0233L87.6672,30.8741L88.3435,30.729L89.0217,30.588L89.7018,30.4511L90.3824,30.3185L91.0647,30.19L91.7489,30.0655L92.434,29.9454L93.12,29.8295L93.8076,29.7178L94.4967,29.6103L95.187,29.507L95.8784,29.408L96.5709,29.3133L97.2649,29.2229L97.96,29.1368L98.6557,29.055L99.3528,28.9776L100.051,28.9044L100.75,28.8356L101.451,28.7712L102.153,28.7111L102.855,28.6554L103.558,28.6042L104.262,28.5573L104.968,28.5148L105.674,28.4768L106.381,28.4432L107.088,28.4141L107.797,28.3894L108.507,28.3691L109.217,28.3534L109.928,28.3421L110.639,28.3354L111.286,28.3333L400.714,28.3333L401.361,28.3354L402.072,28.3421L402.783,28.3534L403.493,28.3691L404.203,28.3894L404.912,28.4141L405.619,28.4432L406.326,28.4768L407.032,28.5148L407.738,28.5573L408.442,28.6042L409.145,28.6554L409.847,28.7111L410.549,28.7712L411.25,28.8356L411.949,28.9044L412.647,28.9776L413.344,29.055L414.04,29.1368L414.735,29.2229L415.429,29.3133L416.122,29.408L416.813,29.507L417.503,29.6103L418.192,29.7178L418.88,29.8295L419.566,29.9453L420.251,30.0655L420.935,30.19L421.617,30.3184L422.298,30.4511L422.978,30.588L423.657,30.7291L424.333,30.8741L425.009,31.0234L425.683,31.1768L426.354,31.334L427.026,31.4956L427.695,31.6611L428.362,31.8307L429.028,32.0043L429.693,32.1819L430.356,32.3636L431.018,32.5493L431.677,32.7388L432.335,32.9323L432.991,33.1296L433.646,33.3311L434.299,33.5364L434.95,33.7456L435.6,33.9587L436.247,34.1756L436.893,34.3963L437.537,34.6211L438.179,34.8494L438.82,35.0817L439.459,35.3178L440.095,35.5575L440.729,35.801L441.362,36.0483L441.993,36.2992L442.622,36.5541L443.25,36.8127L443.874,37.0746L444.497,37.3402L445.119,37.61L445.738,37.8832L446.354,38.1593L446.969,38.4398L447.583,38.724L448.193,39.0111L448.802,39.3024L449.409,39.5971L450.013,39.8948L450.615,40.1965L451.216,40.5019L451.814,40.8107L452.41,41.1225L453.003,41.438L453.595,41.7571L454.184,42.0794L454.771,42.4052L455.356,42.7346L455.939,43.0673L456.519,43.4035L457.097,43.7427L457.672,44.0851L458.246,44.4316L458.817,44.7809L459.386,45.1333L459.952,45.4893L460.517,45.8488L461.078,46.2112L461.638,46.5772L462.194,46.946L462.748,47.3178L463.301,47.6936L463.851,48.0721L464.398,48.4537L464.942,48.8386L465.485,49.227L466.025,49.6182L466.562,50.0126L467.097,50.4101L467.629,50.8102L468.159,51.2141L468.686,51.6209L469.211,52.0306L469.733,52.4439L470.252,52.8593L470.769,53.2782L471.284,53.7004L471.795,54.1249L472.305,54.5531L472.811,54.9837L473.315,55.4175L473.816,55.8545L474.315,56.2942L474.81,56.7366L475.304,57.1826L475.794,57.6312L476.281,58.0816L476.766,58.5359L477.249,58.9934L477.729,59.4533L478.205,59.9156L478.679,60.3811L479.15,60.8498L479.619,61.3209L480.084,61.795L480.547,62.2715L481.007,62.7511L481.464,63.2339L481.918,63.7189L482.369,64.2059L482.818,64.6965L483.264,65.19L483.706,65.6856L484.145,66.1834L484.582,66.6852L485.016,67.1892L485.447,67.6952L485.875,68.2042L486.3,68.7164L486.722,69.2307L487.14,69.7471L487.557,70.2675L487.97,70.7898L488.379,71.3139L488.786,71.8413L489.19,72.3716L489.59,72.9028L489.987,73.4373L490.382,73.9755L490.773,74.5155L491.161,75.0575L491.546,75.6025L491.928,76.1493L492.306,76.699L492.682,77.2516L493.054,77.8062L493.423,78.3625L493.789,78.9217L494.151,79.4836L494.51,80.0474L494.866,80.614L495.22,81.1835L495.569,81.7546L495.914,82.3263L496.257,82.9032L496.597,83.4817L496.932,84.0606L497.265,84.6434L497.595,85.229L497.921,85.8163L498.243,86.4052L498.562,86.9967L498.877,87.5899L499.19,88.1869L499.499,88.7853L499.803,89.3842L500.105,89.9868L500.403,90.5909L500.698,91.1978L500.989,91.8071L501.276,92.4179L501.56,93.0303L501.84,93.6451L502.117,94.2625L502.39,94.8814L502.66,95.5027L502.925,96.1253L503.187,96.7506L503.446,97.3782L503.701,98.0072L503.952,98.6373L504.199,99.2701L504.443,99.9053L504.682,100.542L504.918,101.18L505.15,101.82L505.379,102.463L505.604,103.107L505.824,103.752L506.041,104.4L506.255,105.051L506.464,105.701L506.669,106.353L506.87,107.008L507.068,107.665L507.261,108.322L507.451,108.981L507.636,109.644L507.818,110.307L507.996,110.972L508.169,111.637L508.339,112.306L508.505,112.975L508.666,113.644L508.823,114.317L508.977,114.993L509.126,115.668L509.271,116.344L509.412,117.022L509.549,117.7L509.682,118.382L509.81,119.065L509.934,119.748L510.055,120.435L510.171,121.12L510.282,121.808L510.39,122.497L510.493,123.186L510.592,123.878L510.687,124.571L510.777,125.265L510.863,125.96L510.945,126.656L511.023,127.354L511.095,128.05L511.164,128.75L511.229,129.452L511.289,130.152L511.345,130.855L511.396,131.559L511.443,132.262L511.485,132.968L511.523,133.673L511.557,134.381L511.586,135.089L511.611,135.796L511.631,136.506L511.647,137.217L511.658,137.928L511.665,138.639L511.667,139.285L511.667,278.122L511.665,278.768L511.658,279.479L511.647,280.19L511.631,280.901L511.611,281.611L511.586,282.318L511.557,283.026L511.523,283.735L511.485,284.44L511.443,285.145L511.396,285.849L511.345,286.552L511.289,287.256L511.229,287.956L511.164,288.657L511.095,289.357L511.023,290.054L510.945,290.752L510.863,291.448L510.777,292.142L510.687,292.836L510.592,293.53L510.493,294.221L510.39,294.91L510.282,295.599L510.171,296.287L510.055,296.973L509.934,297.659L509.81,298.342L509.682,299.025L509.549,299.707L509.412,300.386L509.271,301.064L509.126,301.74L508.977,302.415L508.823,303.091L508.666,303.763L508.505,304.432L508.339,305.101L508.169,305.77L507.996,306.436L507.818,307.1L507.636,307.763L507.451,308.426L507.261,309.085L507.068,309.742L506.87,310.399L506.669,311.054L506.464,311.707L506.255,312.357L506.041,313.007L505.824,313.655L505.604,314.3L505.379,314.945L505.15,315.587L504.918,316.227L504.682,316.866L504.443,317.502L504.199,318.137L503.952,318.77L503.701,319.4L503.446,320.029L503.187,320.657L502.925,321.282L502.66,321.905L502.39,322.526L502.117,323.145L501.84,323.763L501.56,324.377L501.277,324.989L500.989,325.601L500.697,326.21L500.403,326.816L500.105,327.42L499.803,328.024L499.499,328.622L499.19,329.221L498.877,329.818L498.562,330.411L498.243,331.002L497.921,331.591L497.595,332.178L497.265,332.764L496.932,333.347L496.597,333.926L496.257,334.504L495.914,335.081L495.569,335.653L495.22,336.223L494.867,336.793L494.51,337.361L494.151,337.924L493.789,338.486L493.423,339.045L493.055,339.601L492.683,340.155L492.306,340.708L491.928,341.258L491.546,341.805L491.161,342.35L490.773,342.892L490.382,343.432L489.987,343.971L489.59,344.505L489.19,345.036L488.786,345.566L488.38,346.093L487.969,346.618L487.556,347.14L487.14,347.66L486.722,348.177L486.3,348.69L485.875,349.203L485.447,349.712L485.016,350.218L484.582,350.723L484.145,351.224L483.706,351.721L483.263,352.218L482.817,352.711L482.37,353.201L481.918,353.689L481.465,354.173L481.007,354.656L480.547,355.136L480.084,355.613L479.619,356.086L479.15,356.558L478.679,357.026L478.206,357.491L477.728,357.955L477.249,358.414L476.767,358.871L476.281,359.326L475.794,359.776L475.304,360.225L474.81,360.671L474.315,361.113L473.817,361.552L473.315,361.99L472.811,362.424L472.305,362.854L471.795,363.283L471.284,363.707L470.769,364.129L470.252,364.548L469.734,364.963L469.211,365.376L468.686,365.786L468.159,366.193L467.628,366.598L467.097,366.997L466.562,367.395L466.024,367.79L465.486,368.18L464.943,368.568L464.397,368.954L463.85,369.336L463.301,369.714L462.749,370.089L462.194,370.462L461.638,370.83L461.078,371.196L460.517,371.559L459.952,371.918L459.386,372.274L458.817,372.627L458.245,372.976L457.672,373.322L457.097,373.665L456.52,374.004L455.939,374.34L455.355,374.673L454.771,375.002L454.185,375.328L453.595,375.65L453.003,375.969L452.409,376.285L451.814,376.597L451.216,376.905L450.616,377.211L450.013,377.512L449.408,377.811L448.802,378.105L448.194,378.396L447.582,378.684L446.97,378.967L446.355,379.248L445.738,379.524L445.119,379.797L444.497,380.067L443.875,380.333L443.25,380.595L442.622,380.854L441.993,381.108L441.363,381.359L440.73,381.606L440.095,381.85L439.459,382.09L438.82,382.326L438.18,382.558L437.537,382.786L436.892,383.011L436.247,383.232L435.6,383.449L434.951,383.662L434.299,383.871L433.646,384.076L432.992,384.278L432.335,384.475L431.676,384.669L431.017,384.858L430.356,385.044L429.694,385.225L429.03,385.403L428.363,385.577L427.694,385.746L427.025,385.912L426.354,386.073L425.682,386.231L425.009,386.384L424.334,386.533L423.656,386.678L422.978,386.819L422.298,386.956L421.617,387.089L420.935,387.217L420.252,387.342L419.567,387.462L418.88,387.578L418.192,387.69L417.503,387.797L416.813,387.9L416.122,387.999L415.43,388.094L414.735,388.185L414.04,388.271L413.344,388.352L412.647,388.43L411.948,388.503L411.25,388.572L410.55,388.636L409.847,388.696L409.145,388.752L408.443,388.803L407.738,388.85L407.032,388.893L406.327,388.931L405.619,388.964L404.911,388.993L404.204,389.018L403.494,389.038L402.783,389.054L402.072,389.065L401.361,389.072L400.715,389.074L292.673,389.074L192.207,494.973L187.558,499.187L182.33,502.655L176.639,505.299L170.616,507.058L164.398,507.893ZM161.979,466.296L274.768,347.407L400.648,347.407L401.097,347.406L401.545,347.402L401.992,347.395L402.438,347.385L402.884,347.372L403.329,347.357L403.773,347.338L404.217,347.317L404.66,347.293L405.102,347.267L405.543,347.237L405.984,347.205L406.424,347.17L406.863,347.133L407.301,347.092L407.739,347.049L408.176,347.004L408.612,346.955L409.047,346.904L409.481,346.85L409.914,346.794L410.347,346.735L410.779,346.673L411.21,346.608L411.64,346.541L412.069,346.472L412.497,346.399L412.925,346.324L413.351,346.247L413.777,346.166L414.201,346.084L414.625,345.998L415.048,345.911L415.47,345.82L415.89,345.727L416.31,345.632L416.729,345.533L417.147,345.433L417.564,345.33L417.98,345.224L418.395,345.116L418.809,345.005L419.222,344.892L419.634,344.776L420.045,344.658L420.455,344.538L420.864,344.415L421.271,344.289L421.678,344.162L422.083,344.031L422.488,343.899L422.891,343.764L423.294,343.626L423.695,343.486L424.095,343.344L424.494,343.199L424.891,343.052L425.288,342.903L425.683,342.751L426.078,342.597L426.471,342.441L426.863,342.282L427.253,342.121L427.643,341.957L428.031,341.792L428.418,341.624L428.804,341.454L429.189,341.281L429.572,341.106L429.955,340.929L430.335,340.75L430.715,340.569L431.093,340.385L431.47,340.199L431.846,340.011L432.221,339.82L432.594,339.628L432.966,339.433L433.336,339.236L433.705,339.037L434.073,338.836L434.44,338.632L434.805,338.427L435.169,338.219L435.531,338.009L435.892,337.797L436.251,337.583L436.61,337.367L436.966,337.149L437.322,336.929L437.676,336.706L438.028,336.482L438.379,336.255L438.729,336.026L439.077,335.796L439.423,335.563L439.769,335.329L440.112,335.092L440.454,334.853L440.795,334.612L441.134,334.37L441.472,334.125L441.808,333.878L442.142,333.63L442.475,333.379L442.807,333.127L443.137,332.872L443.465,332.616L443.792,332.357L444.117,332.097L444.44,331.835L444.762,331.571L445.083,331.305L445.401,331.037L445.718,330.767L446.034,330.496L446.348,330.222L446.66,329.947L446.97,329.67L447.279,329.391L447.586,329.11L447.891,328.828L448.195,328.543L448.497,328.257L448.797,327.969L449.096,327.679L449.392,327.388L449.687,327.095L449.981,326.8L450.272,326.503L450.562,326.204L450.85,325.904L451.136,325.602L451.42,325.299L451.703,324.993L451.984,324.686L452.263,324.377L452.54,324.067L452.815,323.755L453.088,323.441L453.36,323.126L453.63,322.809L453.897,322.49L454.163,322.17L454.427,321.848L454.69,321.524L454.95,321.199L455.208,320.872L455.465,320.544L455.719,320.214L455.972,319.883L456.222,319.55L456.471,319.215L456.718,318.879L456.962,318.542L457.205,318.202L457.446,317.862L457.684,317.52L457.921,317.176L458.156,316.831L458.388,316.484L458.619,316.136L458.848,315.787L459.074,315.435L459.299,315.083L459.521,314.729L459.741,314.374L459.96,314.017L460.176,313.659L460.39,313.299L460.602,312.938L460.812,312.576L461.019,312.212L461.225,311.847L461.428,311.481L461.63,311.113L461.829,310.744L462.026,310.373L462.22,310.001L462.413,309.628L462.603,309.254L462.791,308.878L462.977,308.501L463.161,308.122L463.343,307.743L463.522,307.362L463.699,306.98L463.874,306.596L464.046,306.212L464.216,305.826L464.384,305.439L464.55,305.05L464.713,304.661L464.874,304.27L465.033,303.878L465.19,303.485L465.344,303.091L465.495,302.695L465.645,302.299L465.792,301.901L465.936,301.502L466.079,301.102L466.219,300.701L466.356,300.299L466.491,299.895L466.624,299.491L466.754,299.085L466.882,298.679L467.008,298.271L467.13,297.862L467.251,297.452L467.369,297.041L467.485,296.63L467.598,296.217L467.708,295.803L467.817,295.388L467.922,294.972L468.025,294.555L468.126,294.137L468.224,293.718L468.32,293.298L468.413,292.877L468.503,292.455L468.591,292.032L468.676,291.609L468.759,291.184L468.839,290.758L468.917,290.332L468.992,289.905L469.064,289.476L469.134,289.047L469.201,288.617L469.265,288.186L469.327,287.754L469.386,287.322L469.443,286.888L469.497,286.454L469.548,286.019L469.596,285.583L469.642,285.146L469.685,284.709L469.725,284.271L469.763,283.831L469.798,283.392L469.83,282.951L469.859,282.509L469.886,282.067L469.91,281.624L469.931,281.181L469.949,280.736L469.965,280.291L469.977,279.846L469.987,279.399L469.994,278.952L469.999,278.504L470,278.056L470,139.352L469.999,138.903L469.994,138.455L469.987,138.008L469.977,137.562L469.965,137.116L469.949,136.671L469.931,136.227L469.91,135.783L469.886,135.34L469.859,134.898L469.83,134.457L469.798,134.016L469.763,133.576L469.725,133.137L469.685,132.699L469.642,132.261L469.596,131.824L469.548,131.388L469.497,130.953L469.443,130.519L469.386,130.086L469.327,129.653L469.265,129.221L469.201,128.79L469.134,128.36L469.064,127.931L468.992,127.503L468.917,127.075L468.839,126.649L468.759,126.223L468.676,125.799L468.591,125.375L468.503,124.952L468.413,124.53L468.32,124.11L468.224,123.69L468.126,123.271L468.025,122.853L467.922,122.436L467.817,122.02L467.708,121.605L467.598,121.191L467.485,120.778L467.369,120.366L467.251,119.955L467.13,119.545L467.008,119.136L466.882,118.729L466.754,118.322L466.624,117.917L466.491,117.512L466.356,117.109L466.219,116.706L466.079,116.305L465.936,115.905L465.792,115.506L465.645,115.109L465.495,114.712L465.344,114.317L465.19,113.922L465.033,113.529L464.874,113.137L464.713,112.747L464.55,112.357L464.384,111.969L464.216,111.582L464.046,111.196L463.874,110.811L463.699,110.428L463.522,110.045L463.343,109.665L463.161,109.285L462.977,108.907L462.791,108.53L462.603,108.154L462.413,107.779L462.22,107.406L462.026,107.034L461.829,106.664L461.63,106.295L461.428,105.927L461.225,105.56L461.019,105.195L460.812,104.831L460.602,104.469L460.39,104.108L460.176,103.749L459.96,103.39L459.741,103.034L459.521,102.678L459.299,102.324L459.074,101.972L458.848,101.621L458.619,101.271L458.388,100.923L458.156,100.577L457.921,100.231L457.684,99.8878L457.446,99.5456L457.205,99.2049L456.962,98.8658L456.718,98.5282L456.471,98.1921L456.222,97.8575L455.972,97.5245L455.719,97.1931L455.465,96.8632L455.208,96.5349L454.95,96.2082L454.69,95.8831L454.427,95.5596L454.163,95.2376L453.897,94.9173L453.63,94.5987L453.36,94.2816L453.088,93.9662L452.815,93.6525L452.54,93.3404L452.263,93.03L451.984,92.7212L451.703,92.4142L451.42,92.1088L451.136,91.8052L450.85,91.5032L450.562,91.203L450.272,90.9045L449.981,90.6077L449.687,90.3127L449.392,90.0194L449.096,89.7279L448.797,89.4382L448.497,89.1502L448.195,88.8641L447.891,88.5797L447.586,88.2971L447.279,88.0164L446.97,87.7374L446.66,87.4603L446.348,87.185L446.034,86.9116L445.718,86.6401L445.401,86.3704L445.083,86.1025L444.762,85.8366L444.44,85.5725L444.117,85.3104L443.792,85.0501L443.465,84.7918L443.137,84.5354L442.807,84.2809L442.475,84.0283L442.142,83.7778L441.808,83.5291L441.472,83.2825L441.134,83.0378L440.795,82.795L440.454,82.5543L440.112,82.3156L439.769,82.0789L439.423,81.8442L439.077,81.6115L438.729,81.3809L438.379,81.1523L438.028,80.9258L437.676,80.7013L437.322,80.4789L436.966,80.2585L436.61,80.0403L436.251,79.8241L435.892,79.6101L435.531,79.3981L435.169,79.1883L434.805,78.9806L434.44,78.7751L434.073,78.5717L433.705,78.3704L433.336,78.1713L432.966,77.9744L432.594,77.7796L432.221,77.5871L431.846,77.3967L431.47,77.2085L431.093,77.0226L430.715,76.8388L430.335,76.6573L429.955,76.4781L429.572,76.3011L429.189,76.1263L428.804,75.9538L428.418,75.7836L428.031,75.6157L427.643,75.45L427.253,75.2867L426.863,75.1256L426.471,74.9669L426.078,74.8105L425.683,74.6564L425.288,74.5047L424.891,74.3553L424.494,74.2083L424.095,74.0636L423.695,73.9213L423.294,73.7814L422.891,73.6439L422.488,73.5088L422.083,73.3761L421.678,73.2458L421.271,73.1179L420.864,72.9925L420.455,72.8695L420.045,72.749L419.634,72.6309L419.222,72.5153L418.809,72.4022L418.395,72.2915L417.98,72.1834L417.564,72.0777L417.147,71.9746L416.729,71.874L416.31,71.7759L415.89,71.6803L415.47,71.5873L415.048,71.4969L414.625,71.409L414.201,71.3237L413.777,71.2409L413.351,71.1608L412.925,71.0832L412.497,71.0082L412.069,70.9359L411.64,70.8662L411.21,70.7991L410.779,70.7346L410.347,70.6728L409.914,70.6137L409.481,70.5572L409.047,70.5034L408.612,70.4522L408.176,70.4038L407.739,70.3581L407.301,70.315L406.863,70.2747L406.424,70.2371L405.984,70.2022L405.543,70.1701L405.102,70.1407L404.66,70.1141L404.217,70.0902L403.773,70.0692L403.329,70.0509L402.884,70.0354L402.438,70.0227L401.992,70.0128L401.545,70.0057L401.097,70.0014L400.648,70L111.352,70L110.903,70.0014L110.455,70.0057L110.008,70.0128L109.562,70.0227L109.116,70.0354L108.671,70.0509L108.227,70.0692L107.783,70.0902L107.34,70.1141L106.898,70.1407L106.457,70.1701L106.016,70.2022L105.576,70.2371L105.137,70.2747L104.699,70.315L104.261,70.3581L103.824,70.4038L103.388,70.4522L102.953,70.5034L102.519,70.5572L102.086,70.6137L101.653,70.6728L101.221,70.7346L100.79,70.7991L100.36,70.8662L99.9311,70.9359L99.5028,71.0082L99.0754,71.0832L98.6489,71.1608L98.2234,71.2409L97.7987,71.3237L97.375,71.409L96.9523,71.4969L96.5304,71.5873L96.1095,71.6803L95.6896,71.7759L95.2707,71.874L94.8527,71.9746L94.4357,72.0777L94.0197,72.1834L93.6048,72.2915L93.1908,72.4022L92.7778,72.5153L92.3659,72.6309L91.9551,72.749L91.5452,72.8695L91.1364,72.9925L90.7287,73.1179L90.3221,73.2458L89.9165,73.3761L89.5121,73.5088L89.1087,73.6439L88.7064,73.7814L88.3053,73.9213L87.9053,74.0636L87.5064,74.2083L87.1086,74.3553L86.712,74.5047L86.3166,74.6564L85.9223,74.8105L85.5292,74.9669L85.1372,75.1256L84.7465,75.2867L84.357,75.45L83.9687,75.6157L83.5816,75.7836L83.1957,75.9538L82.811,76.1263L82.4276,76.3011L82.0455,76.4781L81.6646,76.6573L81.285,76.8388L80.9066,77.0226L80.5295,77.2085L80.1538,77.3967L79.7793,77.5871L79.4062,77.7796L79.0343,77.9744L78.6638,78.1713L78.2946,78.3704L77.9268,78.5717L77.5603,78.7751L77.1952,78.9806L76.8315,79.1883L76.4691,79.3981L76.1081,79.6101L75.7486,79.8241L75.3904,80.0403L75.0336,80.2585L74.6783,80.4789L74.3244,80.7013L73.9719,80.9258L73.6209,81.1523L73.2713,81.3809L72.9232,81.6115L72.5766,81.8442L72.2314,82.0789L71.8878,82.3156L71.5456,82.5543L71.2049,82.795L70.8658,83.0378L70.5282,83.2825L70.1921,83.5291L69.8575,83.7778L69.5245,84.0283L69.1931,84.2809L68.8632,84.5354L68.5349,84.7918L68.2082,85.0501L67.8831,85.3104L67.5595,85.5725L67.2376,85.8366L66.9173,86.1025L66.5987,86.3704L66.2816,86.6401L65.9662,86.9116L65.6525,87.185L65.3404,87.4603L65.03,87.7374L64.7212,88.0164L64.4142,88.2971L64.1088,88.5797L63.8052,88.8641L63.5032,89.1502L63.203,89.4382L62.9045,89.7279L62.6077,90.0194L62.3127,90.3127L62.0194,90.6077L61.7279,90.9045L61.4382,91.203L61.1502,91.5032L60.8641,91.8052L60.5797,92.1088L60.2971,92.4142L60.0164,92.7212L59.7374,93.03L59.4603,93.3404L59.185,93.6525L58.9116,93.9662L58.6401,94.2816L58.3704,94.5987L58.1025,94.9173L57.8366,95.2376L57.5725,95.5596L57.3104,95.8831L57.0501,96.2082L56.7918,96.5349L56.5354,96.8632L56.2809,97.1931L56.0283,97.5245L55.7778,97.8575L55.5291,98.1921L55.2825,98.5282L55.0378,98.8658L54.795,99.2049L54.5543,99.5456L54.3156,99.8878L54.0789,100.231L53.8442,100.577L53.6115,100.923L53.3809,101.271L53.1523,101.621L52.9258,101.972L52.7013,102.324L52.4789,102.678L52.2585,103.034L52.0403,103.39L51.8241,103.749L51.6101,104.108L51.3981,104.469L51.1883,104.831L50.9806,105.195L50.7751,105.56L50.5717,105.927L50.3704,106.295L50.1713,106.664L49.9744,107.034L49.7796,107.406L49.5871,107.779L49.3967,108.154L49.2085,108.53L49.0226,108.907L48.8388,109.285L48.6573,109.665L48.4781,110.045L48.3011,110.428L48.1263,110.811L47.9538,111.196L47.7836,111.582L47.6157,111.969L47.45,112.357L47.2867,112.747L47.1256,113.137L46.9669,113.529L46.8105,113.922L46.6564,114.317L46.5047,114.712L46.3553,115.109L46.2083,115.506L46.0636,115.905L45.9213,116.305L45.7814,116.706L45.6439,117.109L45.5088,117.512L45.3761,117.917L45.2458,118.322L45.1179,118.729L44.9925,119.136L44.8695,119.545L44.749,119.955L44.6309,120.366L44.5153,120.778L44.4022,121.191L44.2915,121.605L44.1834,122.02L44.0777,122.436L43.9746,122.853L43.874,123.271L43.7759,123.69L43.6803,124.11L43.5873,124.53L43.4969,124.952L43.409,125.375L43.3237,125.799L43.2409,126.223L43.1608,126.649L43.0832,127.075L43.0082,127.503L42.9359,127.931L42.8662,128.36L42.7991,128.79L42.7346,129.221L42.6728,129.653L42.6137,130.086L42.5572,130.519L42.5034,130.953L42.4522,131.388L42.4038,131.824L42.3581,132.261L42.315,132.699L42.2747,133.137L42.2371,133.576L42.2022,134.016L42.1701,134.457L42.1407,134.898L42.1141,135.34L42.0902,135.783L42.0692,136.227L42.0509,136.671L42.0354,137.116L42.0227,137.562L42.0128,138.008L42.0057,138.455L42.0014,138.903L42,139.352L42,278.056L42.0014,278.504L42.0057,278.952L42.0128,279.399L42.0227,279.846L42.0354,280.291L42.0509,280.736L42.0692,281.181L42.0902,281.624L42.1141,282.067L42.1407,282.509L42.1701,282.951L42.2022,283.392L42.2371,283.831L42.2747,284.271L42.315,284.709L42.3581,285.146L42.4038,285.583L42.4522,286.019L42.5034,286.454L42.5572,286.888L42.6137,287.322L42.6728,287.754L42.7346,288.186L42.7991,288.617L42.8662,289.047L42.9359,289.476L43.0082,289.905L43.0832,290.332L43.1608,290.758L43.2409,291.184L43.3237,291.609L43.409,292.032L43.4969,292.455L43.5873,292.877L43.6803,293.298L43.7759,293.718L43.874,294.137L43.9746,294.555L44.0777,294.972L44.1834,295.388L44.2915,295.803L44.4022,296.217L44.5153,296.63L44.6309,297.041L44.749,297.452L44.8695,297.862L44.9925,298.271L45.1179,298.679L45.2458,299.085L45.3761,299.491L45.5088,299.895L45.6439,300.299L45.7814,300.701L45.9213,301.102L46.0636,301.502L46.2083,301.901L46.3553,302.299L46.5047,302.695L46.6564,303.091L46.8105,303.485L46.9669,303.878L47.1256,304.27L47.2867,304.661L47.45,305.05L47.6157,305.439L47.7836,305.826L47.9538,306.212L48.1263,306.596L48.3011,306.98L48.4781,307.362L48.6573,307.743L48.8388,308.122L49.0226,308.501L49.2085,308.878L49.3967,309.254L49.5871,309.628L49.7796,310.001L49.9744,310.373L50.1713,310.744L50.3704,311.113L50.5717,311.481L50.7751,311.847L50.9806,312.212L51.1883,312.576L51.3981,312.938L51.6101,313.299L51.8241,313.659L52.0403,314.017L52.2585,314.374L52.4789,314.729L52.7013,315.083L52.9258,315.435L53.1523,315.787L53.3809,316.136L53.6115,316.484L53.8442,316.831L54.0789,317.176L54.3156,317.52L54.5543,317.862L54.795,318.202L55.0378,318.542L55.2825,318.879L55.5291,319.215L55.7778,319.55L56.0283,319.883L56.2809,320.214L56.5354,320.544L56.7918,320.872L57.0501,321.199L57.3104,321.524L57.5725,321.848L57.8366,322.17L58.1025,322.49L58.3704,322.809L58.6401,323.126L58.9116,323.441L59.185,323.755L59.4603,324.067L59.7374,324.377L60.0164,324.686L60.2971,324.993L60.5797,325.299L60.8641,325.602L61.1502,325.904L61.4382,326.204L61.7279,326.503L62.0194,326.8L62.3127,327.095L62.6077,327.388L62.9045,327.679L63.203,327.969L63.5032,328.257L63.8052,328.543L64.1088,328.828L64.4142,329.11L64.7212,329.391L65.03,329.67L65.3404,329.947L65.6525,330.222L65.9662,330.496L66.2816,330.767L66.5987,331.037L66.9173,331.305L67.2376,331.571L67.5595,331.835L67.8831,332.097L68.2082,332.357L68.5349,332.616L68.8632,332.872L69.1931,333.127L69.5245,333.379L69.8575,333.63L70.1921,333.878L70.5282,334.125L70.8658,334.37L71.2049,334.612L71.5456,334.853L71.8878,335.092L72.2314,335.329L72.5766,335.563L72.9232,335.796L73.2713,336.026L73.6209,336.255L73.9719,336.482L74.3244,336.706L74.6783,336.929L75.0336,337.149L75.3904,337.367L75.7486,337.583L76.1081,337.797L76.4691,338.009L76.8315,338.219L77.1952,338.427L77.5603,338.632L77.9268,338.836L78.2946,339.037L78.6638,339.236L79.0343,339.433L79.4062,339.628L79.7793,339.82L80.1538,340.011L80.5295,340.199L80.9066,340.385L81.285,340.569L81.6646,340.75L82.0455,340.929L82.4276,341.106L82.811,341.281L83.1957,341.454L83.5816,341.624L83.9687,341.792L84.357,341.957L84.7465,342.121L85.1372,342.282L85.5292,342.441L85.9223,342.597L86.3166,342.751L86.712,342.903L87.1086,343.052L87.5064,343.199L87.9053,343.344L88.3053,343.486L88.7064,343.626L89.1087,343.764L89.5121,343.899L89.9165,344.031L90.3221,344.162L90.7287,344.289L91.1364,344.415L91.5452,344.538L91.9551,344.658L92.3659,344.776L92.7778,344.892L93.1908,345.005L93.6048,345.116L94.0197,345.224L94.4357,345.33L94.8527,345.433L95.2707,345.533L95.6896,345.632L96.1095,345.727L96.5304,345.82L96.9523,345.911L97.375,345.998L97.7987,346.084L98.2234,346.166L98.6489,346.247L99.0754,346.324L99.5028,346.399L99.9311,346.472L100.36,346.541L100.79,346.608L101.221,346.673L101.653,346.735L102.086,346.794L102.519,346.85L102.953,346.904L103.388,346.955L103.824,347.004L104.261,347.049L104.699,347.092L105.137,347.133L105.576,347.17L106.016,347.205L106.457,347.237L106.898,347.267L107.34,347.293L107.783,347.317L108.227,347.338L108.671,347.357L109.116,347.372L109.562,347.385L110.008,347.395L110.455,347.402L110.903,347.406L111.352,347.407L165.447,347.407L161.979,466.296Z" style="fill:black;"/>
            </g>
            <g>
                <path d="M72,176L250,176" style="fill:none;stroke-width:25px;stroke:black;"/>
            </g>
            <g>
                <path d="M308,176L416,176" style="fill:none;stroke-width:25px;stroke:black;"/>
            </g>
            <g>
                <path d="M72,250.04L118,250.04" style="fill:none;stroke-width:25px;stroke:black;"/>
            </g>
            <g>
                <path d="M176,250L280,250" style="fill:none;stroke-width:25px;stroke:black;"/>
            </g>
            <g>
                <path d="M326,250L438,250" style="fill:none;stroke-width:25px;stroke:black;"/>
            </g>
        </g>
    </g>
</svg>
