<?xml version="1.0" standalone="no"?>
<!DOCTYPE svg PUBLIC "-//W3C//DTD SVG 1.1//EN" "http://www.w3.org/Graphics/SVG/1.1/DTD/svg11.dtd">
<svg width="512px" height="512px" version="1.1" xmlns="http://www.w3.org/2000/svg" xmlns:xlink="http://www.w3.org/1999/xlink" xml:space="preserve" style="fill-rule:evenodd;clip-rule:evenodd;stroke-linejoin:round;stroke-miterlimit:1.41421;">
    <g>
        <g id="Layer1">
            <g>
                <path d="M256,511.667L255.175,511.665L254.352,511.661L253.529,511.655L252.706,511.646L251.884,511.634L251.063,511.62L250.242,511.603L249.421,511.583L248.601,511.561L247.781,511.537L246.963,511.509L246.145,511.48L245.328,511.447L244.51,511.412L243.695,511.375L242.879,511.335L242.063,511.292L241.248,511.247L240.434,511.199L239.62,511.149L238.808,511.096L237.997,511.041L237.185,510.983L236.373,510.923L235.563,510.86L234.754,510.794L233.945,510.726L233.136,510.656L232.329,510.583L231.521,510.507L230.715,510.429L229.91,510.349L229.105,510.266L228.301,510.18L227.497,510.092L226.695,510.002L225.892,509.909L225.091,509.813L224.29,509.715L223.49,509.615L222.69,509.512L221.892,509.406L221.094,509.299L220.298,509.188L219.501,509.076L218.706,508.961L217.91,508.843L217.116,508.723L216.323,508.6L215.53,508.475L214.739,508.348L213.948,508.218L213.158,508.086L212.368,507.952L211.58,507.814L210.792,507.675L210.004,507.533L209.219,507.389L208.434,507.242L207.648,507.093L206.864,506.942L206.082,506.788L205.3,506.632L204.519,506.473L203.738,506.312L202.958,506.149L202.18,505.983L201.402,505.815L200.624,505.644L199.849,505.472L199.074,505.297L198.299,505.119L197.526,504.939L196.753,504.757L195.981,504.573L195.21,504.386L194.441,504.197L193.671,504.005L192.903,503.811L192.137,503.615L191.369,503.417L190.604,503.216L189.84,503.013L189.076,502.808L188.313,502.6L187.552,502.39L186.791,502.178L186.031,501.963L185.272,501.746L184.515,501.528L183.758,501.306L183.001,501.082L182.247,500.857L181.493,500.629L180.74,500.398L179.988,500.166L179.236,499.931L178.487,499.694L177.738,499.454L176.99,499.213L176.242,498.969L175.497,498.723L174.752,498.475L174.008,498.224L173.265,497.972L172.523,497.717L171.782,497.459L171.042,497.2L170.304,496.939L169.566,496.675L168.829,496.409L168.093,496.141L167.359,495.871L166.625,495.598L165.893,495.324L165.162,495.047L164.431,494.768L163.702,494.487L162.974,494.204L162.247,493.918L161.521,493.631L160.796,493.341L160.072,493.049L159.35,492.755L158.629,492.459L157.907,492.161L157.188,491.861L156.47,491.558L155.752,491.253L155.037,490.947L154.322,490.638L153.608,490.327L152.897,490.014L152.185,489.699L151.475,489.382L150.765,489.062L150.057,488.741L149.351,488.418L148.645,488.092L147.941,487.765L147.238,487.435L146.536,487.103L145.835,486.769L145.135,486.433L144.437,486.096L143.74,485.756L143.043,485.414L142.348,485.07L141.655,484.724L140.963,484.376L140.272,484.026L139.581,483.673L138.892,483.319L138.205,482.964L137.518,482.605L136.833,482.245L136.15,481.883L135.467,481.519L134.786,481.153L134.105,480.784L133.427,480.414L132.749,480.042L132.072,479.668L131.398,479.292L130.724,478.914L130.051,478.534L129.38,478.153L128.71,477.768L128.041,477.382L127.374,476.995L126.708,476.605L126.043,476.213L125.379,475.819L124.717,475.424L124.056,475.027L123.397,474.627L122.739,474.226L122.081,473.822L121.426,473.418L120.772,473.011L120.119,472.601L119.467,472.19L118.817,471.778L118.168,471.363L117.52,470.947L116.875,470.528L116.23,470.108L115.586,469.686L114.944,469.262L114.303,468.836L113.663,468.408L113.025,467.978L112.389,467.547L111.753,467.113L111.12,466.678L110.487,466.241L109.856,465.802L109.226,465.361L108.598,464.919L107.971,464.475L107.345,464.028L106.721,463.58L106.098,463.13L105.478,462.679L104.857,462.225L104.239,461.769L103.622,461.312L103.006,460.854L102.392,460.393L101.779,459.93L101.168,459.466L100.559,459L99.9501,458.532L99.3431,458.062L98.7374,457.591L98.133,457.117L97.5312,456.643L96.9302,456.166L96.3305,455.688L95.7326,455.208L95.1356,454.725L94.5405,454.242L93.9473,453.756L93.355,453.269L92.7641,452.78L92.175,452.289L91.5872,451.797L91.0017,451.303L90.4168,450.807L89.8338,450.31L89.2524,449.811L88.6716,449.309L88.0935,448.807L87.5162,448.302L86.9408,447.796L86.3669,447.288L85.7945,446.779L85.2239,446.268L84.6542,445.755L84.0866,445.241L83.5204,444.724L82.9556,444.207L82.3928,443.687L81.8314,443.166L81.2711,442.643L80.7126,442.119L80.1561,441.593L79.6007,441.065L79.0472,440.535L78.4951,440.004L77.9445,439.472L77.3961,438.938L76.8484,438.401L76.3023,437.863L75.7589,437.325L75.2168,436.784L74.6752,436.241L74.1361,435.697L73.5991,435.152L73.0626,434.604L72.528,434.055L71.9957,433.505L71.4648,432.953L70.9352,432.399L70.4074,431.844L69.8815,431.287L69.3568,430.729L68.8341,430.169L68.3128,429.607L67.7932,429.044L67.2756,428.48L66.7596,427.914L66.2448,427.346L65.7319,426.776L65.221,426.206L64.7113,425.633L64.2036,425.059L63.6979,424.484L63.1936,423.907L62.6903,423.328L62.1895,422.748L61.6903,422.166L61.1928,421.583L60.6972,420.999L60.2029,420.413L59.7106,419.825L59.22,419.236L58.7311,418.645L58.2437,418.053L57.7579,417.459L57.2747,416.864L56.7928,416.268L56.3122,415.669L55.8339,415.07L55.3572,414.469L54.882,413.866L54.4092,413.263L53.9377,412.657L53.4678,412.05L53.0004,411.442L52.5341,410.832L52.0697,410.221L51.6073,409.608L51.1465,408.994L50.6877,408.378L50.2304,407.761L49.775,407.143L49.3217,406.523L48.8701,405.902L48.42,405.279L47.9719,404.655L47.5258,404.029L47.0813,403.402L46.6384,402.774L46.198,402.144L45.7591,401.513L45.3219,400.881L44.8867,400.247L44.4535,399.612L44.022,398.975L43.5921,398.337L43.1642,397.697L42.7384,397.056L42.3143,396.414L41.8922,395.771L41.4718,395.126L41.0534,394.48L40.637,393.832L40.222,393.183L39.8095,392.533L39.3984,391.881L38.9896,391.228L38.5827,390.574L38.1771,389.918L37.7741,389.261L37.3727,388.603L36.9733,387.944L36.576,387.283L36.1802,386.62L35.7867,385.957L35.395,385.292L35.0054,384.626L34.6176,383.959L34.2317,383.29L33.8477,382.62L33.4656,381.948L33.0857,381.276L32.708,380.603L32.3318,379.927L31.9576,379.251L31.5856,378.573L31.2154,377.894L30.8473,377.214L30.4814,376.533L30.1171,375.85L29.7548,375.166L29.3948,374.482L29.0366,373.795L28.6804,373.107L28.3263,372.419L27.9743,371.729L27.6242,371.038L27.276,370.345L26.9299,369.651L26.5861,368.957L26.2443,368.261L25.9043,367.563L25.5662,366.864L25.2305,366.165L24.8967,365.464L24.565,364.762L24.2354,364.059L23.9077,363.354L23.5825,362.649L23.2589,361.942L22.9374,361.234L22.6183,360.526L22.3011,359.815L21.986,359.104L21.6729,358.391L21.3619,357.677L21.0532,356.963L20.7466,356.247L20.4421,355.53L20.1394,354.811L19.839,354.092L19.5409,353.372L19.2448,352.65L18.9509,351.928L18.659,351.204L18.3693,350.479L18.0817,349.753L17.7963,349.026L17.5131,348.298L17.232,347.569L16.9531,346.838L16.6764,346.107L16.4017,345.375L16.1293,344.641L15.8591,343.907L15.591,343.171L15.325,342.434L15.0613,341.696L14.7998,340.957L14.5406,340.218L14.2836,339.477L14.0285,338.735L13.7758,337.992L13.5254,337.248L13.2772,336.503L13.0312,335.757L12.7873,335.01L12.5456,334.262L12.3063,333.513L12.0693,332.763L11.8343,332.012L11.6017,331.26L11.3714,330.507L11.1433,329.753L10.9174,328.998L10.6938,328.242L10.4725,327.485L10.2534,326.727L10.0367,325.969L9.82215,325.209L9.6099,324.448L9.40002,323.687L9.19234,322.924L8.98703,322.16L8.78399,321.396L8.58321,320.63L8.38477,319.864L8.18868,319.097L7.99483,318.329L7.80337,317.56L7.6142,316.79L7.42735,316.019L7.24283,315.247L7.06066,314.474L6.88083,313.701L6.70336,312.927L6.52826,312.152L6.35538,311.375L6.18496,310.598L6.01694,309.82L5.85123,309.042L5.68785,308.262L5.52686,307.481L5.3683,306.7L5.21209,305.918L5.05822,305.135L4.90679,304.351L4.75774,303.567L4.61108,302.782L4.46683,301.995L4.32494,301.208L4.18551,300.42L4.04848,299.632L3.91382,298.842L3.78165,298.052L3.65188,297.261L3.52451,296.469L3.39955,295.677L3.27707,294.883L3.15704,294.09L3.03942,293.295L2.92425,292.499L2.81152,291.703L2.70125,290.906L2.59346,290.108L2.48811,289.309L2.38524,288.51L2.28481,287.71L2.18687,286.909L2.09142,286.108L1.99842,285.306L1.90792,284.503L1.8199,283.699L1.73439,282.895L1.65136,282.09L1.57084,281.285L1.4928,280.478L1.41727,279.671L1.34426,278.864L1.27376,278.055L1.20578,277.246L1.14032,276.437L1.07738,275.626L1.01697,274.816L0.959082,274.004L0.903735,273.192L0.850935,272.379L0.800672,271.566L0.75295,270.752L0.707789,269.937L0.665167,269.122L0.625101,268.306L0.5876,267.49L0.552659,266.672L0.520291,265.855L0.490494,265.037L0.463263,264.218L0.438614,263.399L0.416541,262.579L0.397052,261.758L0.380156,260.937L0.365847,260.116L0.354133,259.294L0.345014,258.471L0.3385,257.648L0.334585,256.824L0.333281,256L0.334585,255.176L0.3385,254.352L0.345014,253.529L0.354133,252.706L0.365847,251.884L0.380156,251.063L0.397052,250.242L0.416541,249.421L0.438615,248.601L0.463262,247.782L0.490493,246.963L0.520291,246.145L0.552659,245.328L0.587599,244.511L0.625102,243.694L0.665167,242.878L0.707786,242.063L0.752951,241.248L0.800672,240.434L0.850935,239.621L0.903739,238.808L0.959082,237.996L1.01697,237.184L1.07738,236.374L1.14031,235.563L1.20578,234.754L1.27376,233.945L1.34425,233.137L1.41727,232.329L1.49281,231.522L1.57083,230.716L1.65135,229.91L1.73439,229.105L1.8199,228.301L1.90792,227.497L1.99842,226.694L2.09142,225.892L2.18688,225.091L2.28481,224.29L2.38523,223.49L2.48811,222.691L2.59346,221.892L2.70127,221.094L2.81152,220.297L2.92424,219.501L3.0394,218.705L3.15704,217.91L3.27708,217.116L3.39956,216.323L3.52451,215.531L3.65186,214.739L3.78164,213.948L3.91385,213.158L4.04848,212.368L4.18551,211.58L4.32496,210.792L4.4668,210.005L4.6111,209.218L4.75776,208.433L4.90677,207.649L5.05824,206.865L5.21209,206.082L5.3683,205.3L5.52687,204.518L5.68785,203.738L5.85121,202.958L6.0169,202.18L6.18498,201.402L6.35543,200.625L6.52821,199.849L6.70336,199.073L6.88083,198.299L7.06066,197.526L7.24285,196.753L7.42735,195.981L7.6142,195.21L7.80337,194.44L7.99483,193.671L8.18865,192.903L8.3848,192.136L8.58321,191.37L8.78393,190.604L8.987,189.84L9.19234,189.076L9.40002,188.313L9.60997,187.552L9.82215,186.791L10.0367,186.031L10.2535,185.273L10.4725,184.515L10.6938,183.758L10.9174,183.002L11.1433,182.247L11.3714,181.493L11.6017,180.74L11.8343,179.988L12.0692,179.237L12.3064,178.487L12.5457,177.738L12.7873,176.99L13.0311,176.243L13.2771,175.497L13.5254,174.752L13.7759,174.008L14.0286,173.265L14.2835,172.523L14.5406,171.782L14.7999,171.042L15.0614,170.304L15.3251,169.566L15.5909,168.829L15.859,168.093L16.1293,167.359L16.4017,166.625L16.6763,165.893L16.953,165.162L17.232,164.431L17.5131,163.702L17.7963,162.974L18.0818,162.247L18.3693,161.521L18.659,160.796L18.9508,160.072L19.2448,159.35L19.5409,158.628L19.8391,157.908L20.1395,157.188L20.442,156.47L20.7466,155.753L21.0532,155.037L21.362,154.322L21.673,153.609L21.9859,152.896L22.301,152.185L22.6182,151.475L22.9375,150.766L23.2589,150.058L23.5823,149.351L23.9079,148.645L24.2355,147.941L24.5649,147.238L24.8966,146.536L25.2306,145.835L25.5664,145.135L25.9042,144.437L26.2441,143.74L26.5862,143.043L26.93,142.349L27.276,141.655L27.6242,140.962L27.9743,140.271L28.3263,139.581L28.6804,138.893L29.0365,138.205L29.3947,137.519L29.755,136.833L30.1171,136.15L30.4812,135.467L30.8473,134.786L31.2154,134.105L31.5856,133.427L31.9577,132.749L32.3318,132.073L32.7078,131.397L33.0858,130.724L33.4657,130.051L33.8477,129.38L34.2317,128.71L34.6174,128.041L35.0052,127.374L35.395,126.708L35.7868,126.043L36.1804,125.379L36.5758,124.717L36.9733,124.056L37.3728,123.397L37.774,122.739L38.1773,122.082L38.5827,121.426L38.9895,120.772L39.3984,120.119L39.8095,119.467L40.2222,118.817L40.6368,118.168L41.0534,117.52L41.472,116.874L41.8922,116.229L42.3143,115.586L42.7384,114.944L43.1642,114.303L43.5921,113.663L44.022,113.025L44.4533,112.389L44.8867,111.753L45.3221,111.119L45.759,110.487L46.1979,109.856L46.6388,109.226L47.0813,108.598L47.5257,107.971L47.9721,107.345L48.4201,106.721L48.8697,106.099L49.3215,105.477L49.7752,104.857L50.2304,104.239L50.6877,103.622L51.1466,103.006L51.6072,102.392L52.0698,101.779L52.5342,101.168L53,100.558L53.468,99.95L53.9377,99.343L54.4091,98.7375L54.8823,98.1336L55.3571,97.5312L55.8339,96.9301L56.3124,96.3305L56.7926,95.7325L57.2745,95.1359L57.7582,94.5408L58.2438,93.947L58.731,93.3549L59.2198,92.7644L59.7105,92.1751L60.203,91.5874L60.697,91.0014L61.1929,90.4166L61.6904,89.8335L62.1896,89.2521L62.6906,88.6719L63.1933,88.0934L63.6975,87.5165L64.2037,86.9409L64.7115,86.3669L65.2209,85.7946L65.7321,85.2236L66.245,84.6542L66.7594,84.0866L67.2755,83.5204L67.7933,82.9557L68.3128,82.3927L68.8341,81.831L69.3568,81.2712L69.8812,80.7129L70.4075,80.156L70.9351,79.6009L71.4646,79.0471L71.9958,78.495L72.5284,77.9447L73.0627,77.3958L73.5988,76.8484L74.1363,76.3028L74.6754,75.7589L75.2163,75.2163L75.7589,74.6754L76.3028,74.1363L76.8484,73.5988L77.3958,73.0627L77.9447,72.5284L78.495,71.9958L79.0471,71.4646L79.6009,70.9351L80.156,70.4075L80.7129,69.8812L81.2712,69.3568L81.831,68.8341L82.3927,68.3128L82.9557,67.7933L83.5204,67.2755L84.0866,66.7594L84.6542,66.245L85.2236,65.7321L85.7946,65.2209L86.3669,64.7115L86.9409,64.2037L87.5165,63.6975L88.0934,63.1933L88.6719,62.6906L89.2521,62.1896L89.8335,61.6904L90.4166,61.1929L91.0014,60.697L91.5874,60.203L92.1751,59.7105L92.7644,59.2198L93.3549,58.731L93.947,58.2438L94.5408,57.7582L95.1359,57.2745L95.7325,56.7926L96.3305,56.3124L96.9301,55.8339L97.5312,55.3571L98.1336,54.8823L98.7375,54.4091L99.343,53.9377L99.95,53.468L100.558,53L101.168,52.5342L101.779,52.0698L102.392,51.6072L103.006,51.1466L103.622,50.6877L104.239,50.2304L104.857,49.7752L105.477,49.3215L106.099,48.8697L106.721,48.4201L107.345,47.9721L107.971,47.5257L108.598,47.0813L109.226,46.6388L109.856,46.1979L110.487,45.759L111.119,45.3221L111.753,44.8867L112.389,44.4533L113.025,44.022L113.663,43.5921L114.303,43.1642L114.944,42.7384L115.586,42.3143L116.229,41.8922L116.874,41.472L117.52,41.0534L118.168,40.6368L118.817,40.2222L119.467,39.8095L120.119,39.3984L120.772,38.9895L121.426,38.5827L122.082,38.1773L122.739,37.774L123.397,37.3728L124.056,36.9733L124.717,36.5758L125.379,36.1804L126.043,35.7868L126.708,35.395L127.374,35.0052L128.041,34.6174L128.71,34.2317L129.38,33.8477L130.051,33.4657L130.724,33.0858L131.397,32.7078L132.073,32.3318L132.749,31.9577L133.427,31.5856L134.105,31.2154L134.786,30.8473L135.467,30.4812L136.15,30.1171L136.833,29.755L137.519,29.3947L138.205,29.0365L138.893,28.6804L139.581,28.3263L140.271,27.9743L140.962,27.6242L141.655,27.276L142.349,26.93L143.043,26.5862L143.74,26.2441L144.437,25.9042L145.135,25.5664L145.835,25.2306L146.536,24.8966L147.238,24.5649L147.941,24.2355L148.645,23.9079L149.351,23.5823L150.058,23.2589L150.766,22.9375L151.475,22.6182L152.185,22.301L152.896,21.9859L153.609,21.673L154.322,21.362L155.037,21.0532L155.753,20.7466L156.47,20.442L157.188,20.1395L157.908,19.8391L158.628,19.5409L159.35,19.2448L160.072,18.9508L160.796,18.659L161.521,18.3693L162.247,18.0818L162.974,17.7963L163.702,17.5131L164.431,17.232L165.162,16.953L165.893,16.6763L166.625,16.4017L167.359,16.1293L168.093,15.859L168.829,15.5909L169.566,15.3251L170.304,15.0614L171.042,14.7999L171.782,14.5406L172.523,14.2835L173.265,14.0286L174.008,13.7759L174.752,13.5254L175.497,13.2771L176.243,13.0311L176.99,12.7873L177.738,12.5457L178.487,12.3064L179.237,12.0692L179.988,11.8343L180.74,11.6017L181.493,11.3714L182.247,11.1433L183.002,10.9174L183.758,10.6938L184.515,10.4725L185.273,10.2535L186.031,10.0367L186.791,9.82215L187.552,9.60997L188.313,9.40002L189.076,9.19234L189.84,8.987L190.604,8.78393L191.37,8.58321L192.136,8.3848L192.903,8.18865L193.671,7.99483L194.44,7.80337L195.21,7.6142L195.981,7.42735L196.753,7.24285L197.526,7.06066L198.299,6.88083L199.073,6.70336L199.849,6.52821L200.625,6.35543L201.402,6.18498L202.18,6.0169L202.958,5.85121L203.738,5.68785L204.518,5.52687L205.3,5.3683L206.082,5.21209L206.865,5.05824L207.649,4.90677L208.433,4.75776L209.218,4.6111L210.005,4.4668L210.792,4.32496L211.58,4.18551L212.368,4.04848L213.158,3.91385L213.948,3.78164L214.739,3.65186L215.531,3.52451L216.323,3.39956L217.116,3.27708L217.91,3.15704L218.705,3.0394L219.501,2.92424L220.297,2.81152L221.094,2.70127L221.892,2.59346L222.691,2.48811L223.49,2.38523L224.29,2.28481L225.091,2.18688L225.892,2.09142L226.694,1.99842L227.497,1.90792L228.301,1.8199L229.105,1.73439L229.91,1.65135L230.716,1.57083L231.522,1.49281L232.329,1.41727L233.137,1.34425L233.945,1.27376L234.754,1.20578L235.563,1.14031L236.374,1.07738L237.184,1.01697L237.996,0.959082L238.808,0.903739L239.621,0.850935L240.434,0.800672L241.248,0.752951L242.063,0.707786L242.878,0.665167L243.694,0.625102L244.511,0.587599L245.328,0.552659L246.145,0.520291L246.963,0.490493L247.782,0.463262L248.601,0.438615L249.421,0.416541L250.242,0.397052L251.063,0.380156L251.884,0.365847L252.706,0.354133L253.529,0.345014L254.352,0.3385L255.176,0.334585L256,0.333281L256.824,0.334585L257.648,0.3385L258.471,0.345014L259.294,0.354133L260.116,0.365847L260.937,0.380156L261.758,0.397052L262.579,0.416541L263.399,0.438614L264.218,0.463263L265.037,0.490494L265.855,0.520291L266.672,0.552659L267.49,0.5876L268.306,0.625101L269.122,0.665167L269.937,0.707789L270.752,0.75295L271.566,0.800672L272.379,0.850935L273.192,0.903735L274.004,0.959082L274.816,1.01697L275.626,1.07738L276.437,1.14032L277.246,1.20578L278.055,1.27376L278.864,1.34426L279.671,1.41727L280.478,1.4928L281.285,1.57084L282.09,1.65136L282.895,1.73439L283.699,1.8199L284.503,1.90792L285.306,1.99842L286.108,2.09142L286.909,2.18687L287.71,2.28481L288.51,2.38524L289.309,2.48811L290.108,2.59346L290.906,2.70125L291.703,2.81152L292.499,2.92425L293.295,3.03942L294.09,3.15704L294.883,3.27707L295.677,3.39955L296.469,3.52451L297.261,3.65188L298.052,3.78165L298.842,3.91382L299.632,4.04848L300.42,4.18551L301.208,4.32494L301.995,4.46683L302.782,4.61108L303.567,4.75774L304.351,4.90679L305.135,5.05822L305.918,5.21209L306.7,5.3683L307.481,5.52686L308.262,5.68785L309.042,5.85123L309.82,6.01694L310.598,6.18496L311.375,6.35538L312.152,6.52826L312.927,6.70336L313.701,6.88083L314.474,7.06066L315.247,7.24283L316.019,7.42735L316.79,7.6142L317.56,7.80337L318.329,7.99483L319.097,8.18868L319.864,8.38477L320.63,8.58321L321.396,8.78399L322.16,8.98703L322.924,9.19234L323.687,9.40002L324.448,9.6099L325.209,9.82215L325.969,10.0367L326.727,10.2534L327.485,10.4725L328.242,10.6938L328.998,10.9174L329.753,11.1433L330.507,11.3714L331.26,11.6017L332.012,11.8343L332.763,12.0693L333.513,12.3063L334.262,12.5456L335.01,12.7873L335.757,13.0312L336.503,13.2772L337.248,13.5254L337.992,13.7758L338.735,14.0285L339.477,14.2836L340.218,14.5406L340.957,14.7998L341.696,15.0613L342.434,15.325L343.171,15.591L343.907,15.8591L344.641,16.1293L345.375,16.4017L346.107,16.6764L346.838,16.9531L347.569,17.232L348.298,17.5131L349.026,17.7963L349.753,18.0817L350.479,18.3693L351.204,18.659L351.928,18.9509L352.65,19.2448L353.372,19.5409L354.092,19.839L354.811,20.1394L355.53,20.4421L356.247,20.7466L356.963,21.0532L357.677,21.3619L358.391,21.6729L359.104,21.986L359.815,22.3011L360.526,22.6183L361.234,22.9374L361.942,23.2589L362.649,23.5825L363.354,23.9077L364.059,24.2354L364.762,24.565L365.464,24.8967L366.165,25.2305L366.864,25.5662L367.563,25.9043L368.261,26.2443L368.957,26.5861L369.651,26.9299L370.345,27.276L371.038,27.6242L371.729,27.9743L372.419,28.3263L373.107,28.6804L373.795,29.0366L374.482,29.3948L375.166,29.7548L375.85,30.1171L376.533,30.4814L377.214,30.8473L377.894,31.2154L378.573,31.5856L379.251,31.9576L379.927,32.3318L380.603,32.708L381.276,33.0857L381.948,33.4656L382.62,33.8477L383.29,34.2317L383.959,34.6176L384.626,35.0054L385.292,35.395L385.957,35.7867L386.62,36.1802L387.283,36.576L387.944,36.9733L388.603,37.3727L389.261,37.7741L389.918,38.1771L390.574,38.5827L391.228,38.9896L391.881,39.3984L392.533,39.8095L393.183,40.222L393.832,40.637L394.48,41.0534L395.126,41.4718L395.771,41.8922L396.414,42.3143L397.056,42.7384L397.697,43.1642L398.337,43.5921L398.975,44.022L399.612,44.4535L400.247,44.8867L400.881,45.3219L401.513,45.7591L402.144,46.198L402.774,46.6384L403.402,47.0813L404.029,47.5258L404.655,47.9719L405.279,48.42L405.902,48.8701L406.523,49.3217L407.143,49.775L407.761,50.2304L408.378,50.6877L408.994,51.1465L409.608,51.6073L410.221,52.0697L410.832,52.5341L411.442,53.0004L412.05,53.4678L412.657,53.9377L413.263,54.4092L413.866,54.882L414.469,55.3572L415.07,55.8339L415.669,56.3122L416.268,56.7928L416.864,57.2747L417.459,57.7579L418.053,58.2437L418.645,58.7311L419.236,59.22L419.825,59.7106L420.413,60.2029L420.999,60.6972L421.583,61.1928L422.166,61.6903L422.748,62.1895L423.328,62.6903L423.907,63.1936L424.484,63.6979L425.059,64.2036L425.633,64.7113L426.206,65.221L426.776,65.7319L427.346,66.2448L427.914,66.7596L428.48,67.2756L429.044,67.7932L429.607,68.3128L430.169,68.8341L430.729,69.3568L431.287,69.8815L431.844,70.4074L432.399,70.9352L432.953,71.4648L433.505,71.9957L434.055,72.528L434.604,73.0626L435.152,73.5991L435.697,74.1361L436.241,74.6752L436.784,75.2168L437.325,75.7589L437.863,76.3023L438.401,76.8484L438.938,77.3961L439.472,77.9445L440.004,78.4951L440.535,79.0472L441.065,79.6007L441.593,80.1561L442.119,80.7126L442.643,81.2711L443.166,81.8314L443.687,82.3928L444.207,82.9556L444.724,83.5204L445.241,84.0866L445.755,84.6542L446.268,85.2239L446.779,85.7945L447.288,86.3669L447.796,86.9408L448.302,87.5162L448.807,88.0935L449.309,88.6716L449.811,89.2524L450.31,89.8338L450.807,90.4168L451.303,91.0017L451.797,91.5872L452.289,92.175L452.78,92.7641L453.269,93.355L453.756,93.9473L454.242,94.5405L454.725,95.1356L455.208,95.7326L455.688,96.3305L456.166,96.9302L456.643,97.5312L457.117,98.133L457.591,98.7374L458.062,99.3431L458.532,99.9501L459,100.559L459.466,101.168L459.93,101.779L460.393,102.392L460.854,103.006L461.312,103.622L461.769,104.239L462.225,104.857L462.679,105.478L463.13,106.098L463.58,106.721L464.028,107.345L464.475,107.971L464.919,108.598L465.361,109.226L465.802,109.856L466.241,110.487L466.678,111.12L467.113,111.753L467.547,112.389L467.978,113.025L468.408,113.663L468.836,114.303L469.262,114.944L469.686,115.586L470.108,116.23L470.528,116.875L470.947,117.52L471.363,118.168L471.778,118.817L472.19,119.467L472.601,120.119L473.011,120.772L473.418,121.426L473.822,122.081L474.226,122.739L474.627,123.397L475.027,124.056L475.424,124.717L475.819,125.379L476.213,126.043L476.605,126.708L476.995,127.374L477.382,128.041L477.768,128.71L478.153,129.38L478.534,130.051L478.914,130.724L479.292,131.398L479.668,132.072L480.042,132.749L480.414,133.427L480.784,134.105L481.153,134.786L481.519,135.467L481.883,136.15L482.245,136.833L482.605,137.518L482.964,138.205L483.319,138.892L483.673,139.581L484.026,140.272L484.376,140.963L484.724,141.655L485.07,142.348L485.414,143.043L485.756,143.74L486.096,144.437L486.433,145.135L486.769,145.835L487.103,146.536L487.435,147.238L487.765,147.941L488.092,148.645L488.418,149.351L488.741,150.057L489.062,150.765L489.382,151.475L489.699,152.185L490.014,152.897L490.327,153.608L490.638,154.322L490.947,155.037L491.253,155.752L491.558,156.47L491.861,157.188L492.161,157.907L492.459,158.629L492.755,159.35L493.049,160.072L493.341,160.796L493.631,161.521L493.918,162.247L494.204,162.974L494.487,163.702L494.768,164.431L495.047,165.162L495.324,165.893L495.598,166.625L495.871,167.359L496.141,168.093L496.409,168.829L496.675,169.566L496.939,170.304L497.2,171.042L497.459,171.782L497.717,172.523L497.972,173.265L498.224,174.008L498.475,174.752L498.723,175.497L498.969,176.242L499.213,176.99L499.454,177.738L499.694,178.487L499.931,179.236L500.166,179.988L500.398,180.74L500.629,181.493L500.857,182.247L501.082,183.001L501.306,183.758L501.528,184.515L501.746,185.272L501.963,186.031L502.178,186.791L502.39,187.552L502.6,188.313L502.808,189.076L503.013,189.84L503.216,190.604L503.417,191.369L503.615,192.137L503.811,192.903L504.005,193.671L504.197,194.441L504.386,195.21L504.573,195.981L504.757,196.753L504.939,197.526L505.119,198.299L505.297,199.074L505.472,199.849L505.644,200.624L505.815,201.402L505.983,202.18L506.149,202.958L506.312,203.738L506.473,204.519L506.632,205.3L506.788,206.082L506.942,206.864L507.093,207.648L507.242,208.434L507.389,209.219L507.533,210.004L507.675,210.792L507.814,211.58L507.952,212.368L508.086,213.158L508.218,213.948L508.348,214.739L508.475,215.53L508.6,216.323L508.723,217.116L508.843,217.91L508.961,218.706L509.076,219.501L509.188,220.298L509.299,221.094L509.406,221.892L509.512,222.69L509.615,223.49L509.715,224.29L509.813,225.091L509.909,225.892L510.002,226.695L510.092,227.497L510.18,228.301L510.266,229.105L510.349,229.91L510.429,230.715L510.507,231.521L510.583,232.329L510.656,233.136L510.726,233.945L510.794,234.754L510.86,235.563L510.923,236.373L510.983,237.185L511.041,237.997L511.096,238.808L511.149,239.62L511.199,240.434L511.247,241.248L511.292,242.063L511.335,242.879L511.375,243.695L511.412,244.51L511.447,245.328L511.48,246.145L511.509,246.963L511.537,247.781L511.561,248.601L511.583,249.421L511.603,250.242L511.62,251.063L511.634,251.884L511.646,252.706L511.655,253.529L511.661,254.352L511.665,255.175L511.667,256L511.665,256.825L511.661,257.648L511.655,258.471L511.646,259.294L511.634,260.116L511.62,260.937L511.603,261.758L511.583,262.579L511.561,263.399L511.537,264.219L511.509,265.037L511.48,265.855L511.447,266.672L511.412,267.49L511.375,268.305L511.335,269.121L511.292,269.937L511.247,270.752L511.199,271.566L511.149,272.38L511.096,273.192L511.041,274.003L510.983,274.815L510.923,275.627L510.86,276.437L510.794,277.245L510.726,278.055L510.656,278.864L510.583,279.671L510.507,280.478L510.429,281.285L510.349,282.09L510.266,282.895L510.18,283.699L510.092,284.503L510.002,285.305L509.909,286.108L509.813,286.909L509.715,287.71L509.615,288.51L509.512,289.31L509.406,290.108L509.299,290.906L509.189,291.702L509.076,292.499L508.961,293.294L508.843,294.089L508.723,294.884L508.6,295.677L508.475,296.47L508.348,297.262L508.218,298.052L508.086,298.842L507.952,299.632L507.814,300.42L507.675,301.208L507.533,301.996L507.389,302.781L507.242,303.566L507.093,304.352L506.942,305.136L506.788,305.918L506.632,306.7L506.473,307.481L506.312,308.262L506.149,309.042L505.983,309.82L505.815,310.598L505.644,311.376L505.472,312.151L505.297,312.926L505.119,313.701L504.939,314.474L504.757,315.247L504.573,316.019L504.386,316.79L504.197,317.559L504.005,318.329L503.811,319.097L503.615,319.863L503.417,320.631L503.216,321.397L503.013,322.16L502.808,322.924L502.6,323.687L502.39,324.448L502.178,325.209L501.963,325.969L501.747,326.727L501.528,327.485L501.306,328.242L501.082,328.999L500.857,329.753L500.629,330.507L500.398,331.26L500.166,332.012L499.931,332.764L499.694,333.513L499.455,334.261L499.213,335.01L498.969,335.758L498.723,336.503L498.475,337.248L498.224,337.992L497.972,338.734L497.717,339.477L497.459,340.218L497.2,340.958L496.939,341.696L496.675,342.434L496.409,343.172L496.141,343.907L495.871,344.641L495.598,345.375L495.324,346.107L495.047,346.838L494.768,347.568L494.487,348.298L494.204,349.026L493.918,349.753L493.631,350.479L493.341,351.204L493.049,351.928L492.755,352.651L492.459,353.371L492.161,354.092L491.861,354.811L491.558,355.53L491.253,356.247L490.947,356.963L490.638,357.677L490.327,358.392L490.014,359.103L489.699,359.815L489.382,360.525L489.062,361.234L488.741,361.943L488.418,362.649L488.092,363.354L487.765,364.059L487.435,364.762L487.103,365.464L486.769,366.165L486.434,366.865L486.096,367.563L485.756,368.26L485.414,368.957L485.07,369.651L484.724,370.345L484.376,371.037L484.026,371.728L483.673,372.419L483.319,373.108L482.963,373.795L482.605,374.482L482.245,375.166L481.883,375.85L481.519,376.533L481.153,377.214L480.784,377.895L480.414,378.573L480.042,379.251L479.668,379.928L479.292,380.602L478.914,381.276L478.534,381.949L478.153,382.62L477.768,383.29L477.382,383.959L476.995,384.626L476.605,385.292L476.213,385.957L475.82,386.62L475.424,387.283L475.027,387.944L474.627,388.603L474.226,389.262L473.823,389.919L473.418,390.574L473.011,391.228L472.601,391.881L472.19,392.533L471.778,393.183L471.363,393.832L470.947,394.48L470.529,395.125L470.108,395.77L469.686,396.414L469.262,397.056L468.836,397.697L468.408,398.337L467.978,398.975L467.547,399.611L467.113,400.247L466.678,400.88L466.241,401.513L465.802,402.145L465.361,402.774L464.919,403.402L464.474,404.029L464.028,404.655L463.58,405.279L463.13,405.902L462.679,406.523L462.225,407.142L461.769,407.761L461.312,408.378L460.854,408.994L460.393,409.608L459.93,410.221L459.466,410.832L459,411.442L458.532,412.05L458.062,412.657L457.591,413.263L457.118,413.867L456.643,414.469L456.166,415.07L455.688,415.669L455.207,416.268L454.725,416.865L454.242,417.459L453.757,418.053L453.269,418.645L452.78,419.236L452.289,419.825L451.797,420.413L451.303,420.999L450.807,421.583L450.31,422.166L449.811,422.747L449.309,423.328L448.807,423.907L448.302,424.484L447.796,425.059L447.289,425.633L446.779,426.206L446.268,426.776L445.755,427.346L445.24,427.914L444.724,428.48L444.207,429.044L443.687,429.607L443.166,430.169L442.643,430.729L442.118,431.288L441.593,431.844L441.065,432.399L440.535,432.953L440.004,433.505L439.472,434.055L438.938,434.604L438.401,435.152L437.863,435.697L437.325,436.241L436.784,436.784L436.241,437.325L435.697,437.863L435.152,438.401L434.604,438.938L434.055,439.472L433.505,440.004L432.953,440.535L432.399,441.065L431.844,441.593L431.288,442.118L430.729,442.643L430.169,443.166L429.607,443.687L429.044,444.207L428.48,444.724L427.914,445.24L427.346,445.755L426.776,446.268L426.206,446.779L425.633,447.289L425.059,447.796L424.484,448.302L423.907,448.807L423.328,449.309L422.747,449.811L422.166,450.31L421.583,450.807L420.999,451.303L420.413,451.797L419.825,452.289L419.236,452.78L418.645,453.269L418.053,453.757L417.459,454.242L416.865,454.725L416.268,455.207L415.669,455.688L415.07,456.166L414.469,456.643L413.867,457.118L413.263,457.591L412.657,458.062L412.05,458.532L411.442,459L410.832,459.466L410.221,459.93L409.608,460.393L408.994,460.854L408.378,461.312L407.761,461.769L407.142,462.225L406.523,462.679L405.902,463.13L405.279,463.58L404.655,464.028L404.029,464.474L403.402,464.919L402.774,465.361L402.145,465.802L401.513,466.241L400.88,466.678L400.247,467.113L399.611,467.547L398.975,467.978L398.337,468.408L397.697,468.836L397.056,469.262L396.414,469.686L395.77,470.108L395.125,470.529L394.48,470.947L393.832,471.363L393.183,471.778L392.533,472.19L391.881,472.601L391.228,473.011L390.574,473.418L389.919,473.823L389.262,474.226L388.603,474.627L387.944,475.027L387.283,475.424L386.62,475.82L385.957,476.213L385.292,476.605L384.626,476.995L383.959,477.382L383.29,477.768L382.62,478.153L381.949,478.534L381.276,478.914L380.602,479.292L379.928,479.668L379.251,480.042L378.573,480.414L377.895,480.784L377.214,481.153L376.533,481.519L375.85,481.883L375.166,482.245L374.482,482.605L373.795,482.963L373.108,483.319L372.419,483.673L371.728,484.026L371.037,484.376L370.345,484.724L369.651,485.07L368.957,485.414L368.26,485.756L367.563,486.096L366.865,486.434L366.165,486.769L365.464,487.103L364.762,487.435L364.059,487.765L363.354,488.092L362.649,488.418L361.943,488.741L361.234,489.062L360.525,489.382L359.815,489.699L359.103,490.014L358.392,490.327L357.677,490.638L356.963,490.947L356.247,491.253L355.53,491.558L354.811,491.861L354.092,492.161L353.371,492.459L352.651,492.755L351.928,493.049L351.204,493.341L350.479,493.631L349.753,493.918L349.026,494.204L348.298,494.487L347.568,494.768L346.838,495.047L346.107,495.324L345.375,495.598L344.641,495.871L343.907,496.141L343.172,496.409L342.434,496.675L341.696,496.939L340.958,497.2L340.218,497.459L339.477,497.717L338.734,497.972L337.992,498.224L337.248,498.475L336.503,498.723L335.758,498.969L335.01,499.213L334.261,499.455L333.513,499.694L332.764,499.931L332.012,500.166L331.26,500.398L330.507,500.629L329.753,500.857L328.999,501.082L328.242,501.306L327.485,501.528L326.727,501.747L325.969,501.963L325.209,502.178L324.448,502.39L323.687,502.6L322.924,502.808L322.16,503.013L321.397,503.216L320.631,503.417L319.863,503.615L319.097,503.811L318.329,504.005L317.559,504.197L316.79,504.386L316.019,504.573L315.247,504.757L314.474,504.939L313.701,505.119L312.926,505.297L312.151,505.472L311.376,505.644L310.598,505.815L309.82,505.983L309.042,506.149L308.262,506.312L307.481,506.473L306.7,506.632L305.918,506.788L305.136,506.942L304.352,507.093L303.566,507.242L302.781,507.389L301.996,507.533L301.208,507.675L300.42,507.814L299.632,507.952L298.842,508.086L298.052,508.218L297.262,508.348L296.47,508.475L295.677,508.6L294.884,508.723L294.089,508.843L293.294,508.961L292.499,509.076L291.702,509.189L290.906,509.299L290.108,509.406L289.31,509.512L288.51,509.615L287.71,509.715L286.909,509.813L286.108,509.909L285.305,510.002L284.503,510.092L283.699,510.18L282.895,510.266L282.09,510.349L281.285,510.429L280.478,510.507L279.671,510.583L278.864,510.656L278.055,510.726L277.245,510.794L276.437,510.86L275.627,510.923L274.815,510.983L274.003,511.041L273.192,511.096L272.38,511.149L271.566,511.199L270.752,511.247L269.937,511.292L269.121,511.335L268.305,511.375L267.49,511.412L266.672,511.447L265.855,511.48L265.037,511.509L264.219,511.537L263.399,511.561L262.579,511.583L261.758,511.603L260.937,511.62L260.116,511.634L259.294,511.646L258.471,511.655L257.648,511.661L256.825,511.665L256,511.667ZM256,470L256.692,469.999L257.384,469.996L258.075,469.99L258.766,469.982L259.456,469.973L260.146,469.961L260.835,469.946L261.523,469.93L262.211,469.912L262.899,469.891L263.586,469.868L264.272,469.843L264.958,469.816L265.643,469.787L266.328,469.755L267.012,469.722L267.696,469.686L268.379,469.648L269.062,469.608L269.743,469.566L270.425,469.522L271.106,469.475L271.786,469.427L272.465,469.376L273.144,469.323L273.823,469.268L274.5,469.211L275.178,469.152L275.854,469.091L276.53,469.028L277.206,468.963L277.88,468.895L278.554,468.826L279.228,468.754L279.901,468.68L280.573,468.605L281.245,468.527L281.916,468.447L282.586,468.365L283.256,468.281L283.925,468.195L284.593,468.106L285.261,468.016L285.928,467.924L286.595,467.83L287.26,467.733L287.926,467.635L288.59,467.534L289.254,467.432L289.917,467.327L290.58,467.221L291.241,467.112L291.902,467.001L292.563,466.889L293.223,466.774L293.882,466.658L294.54,466.539L295.198,466.418L295.854,466.296L296.511,466.171L297.166,466.044L297.821,465.916L298.475,465.785L299.128,465.652L299.781,465.518L300.433,465.381L301.084,465.242L301.735,465.102L302.384,464.959L303.033,464.815L303.682,464.669L304.329,464.52L304.976,464.37L305.622,464.217L306.267,464.063L306.912,463.907L307.555,463.749L308.198,463.589L308.841,463.427L309.482,463.263L310.123,463.097L310.762,462.929L311.402,462.759L312.04,462.588L312.677,462.414L313.314,462.239L313.95,462.061L314.585,461.882L315.219,461.701L315.853,461.517L316.486,461.332L317.118,461.146L317.749,460.957L318.379,460.766L319.008,460.573L319.637,460.379L320.265,460.183L320.892,459.984L321.518,459.784L322.143,459.582L322.768,459.379L323.391,459.173L324.014,458.965L324.636,458.756L325.257,458.545L325.877,458.332L326.497,458.117L327.115,457.9L327.733,457.681L328.35,457.461L328.965,457.239L329.58,457.015L330.194,456.789L330.808,456.561L331.42,456.331L332.032,456.1L332.642,455.867L333.252,455.632L333.861,455.395L334.468,455.156L335.075,454.916L335.681,454.674L336.287,454.43L336.891,454.184L337.494,453.936L338.096,453.687L338.698,453.436L339.298,453.183L339.898,452.928L340.497,452.672L341.094,452.413L341.691,452.153L342.287,451.892L342.882,451.628L343.476,451.363L344.069,451.096L344.661,450.827L345.252,450.557L345.842,450.284L346.431,450.01L347.019,449.735L347.606,449.457L348.193,449.178L348.778,448.897L349.362,448.615L349.945,448.33L350.528,448.044L351.109,447.757L351.689,447.467L352.268,447.176L352.847,446.883L353.424,446.589L354,446.292L354.575,445.994L355.149,445.695L355.723,445.393L356.295,445.09L356.866,444.786L357.436,444.479L358.005,444.171L358.573,443.862L359.14,443.55L359.706,443.237L360.271,442.923L360.835,442.606L361.398,442.288L361.959,441.969L362.52,441.647L363.08,441.325L363.638,441L364.196,440.674L364.752,440.346L365.307,440.017L365.862,439.685L366.415,439.353L366.967,439.019L367.518,438.683L368.068,438.345L368.616,438.006L369.164,437.665L369.711,437.323L370.256,436.979L370.801,436.633L371.344,436.286L371.886,435.937L372.427,435.587L372.967,435.235L373.506,434.882L374.043,434.527L374.58,434.17L375.115,433.812L375.649,433.452L376.183,433.091L376.714,432.728L377.245,432.364L377.775,431.998L378.303,431.63L378.831,431.261L379.357,430.89L379.882,430.518L380.406,430.144L380.928,429.769L381.45,429.392L381.97,429.014L382.489,428.634L383.007,428.253L383.524,427.87L384.04,427.486L384.554,427.1L385.067,426.713L385.579,426.324L386.09,425.933L386.599,425.541L387.108,425.148L387.615,424.753L388.121,424.357L388.626,423.959L389.129,423.56L389.631,423.159L390.132,422.757L390.632,422.353L391.131,421.948L391.628,421.541L392.124,421.133L392.619,420.723L393.112,420.312L393.605,419.9L394.096,419.486L394.585,419.07L395.074,418.654L395.561,418.235L396.047,417.816L396.532,417.394L397.015,416.972L397.497,416.548L397.978,416.122L398.458,415.696L398.936,415.267L399.413,414.838L399.889,414.407L400.363,413.974L400.836,413.54L401.308,413.105L401.779,412.668L402.248,412.23L402.716,411.791L403.182,411.35L403.647,410.908L404.111,410.464L404.574,410.019L405.035,409.573L405.495,409.125L405.953,408.676L406.411,408.226L406.866,407.774L407.321,407.321L407.774,406.866L408.226,406.411L408.676,405.953L409.125,405.495L409.573,405.035L410.019,404.574L410.464,404.111L410.908,403.647L411.35,403.182L411.791,402.716L412.23,402.248L412.668,401.779L413.105,401.308L413.54,400.836L413.974,400.363L414.407,399.889L414.838,399.413L415.267,398.936L415.696,398.458L416.122,397.978L416.548,397.497L416.972,397.015L417.394,396.532L417.816,396.047L418.235,395.561L418.654,395.074L419.07,394.585L419.486,394.096L419.9,393.605L420.312,393.112L420.723,392.619L421.133,392.124L421.541,391.628L421.948,391.131L422.353,390.632L422.757,390.132L423.159,389.631L423.56,389.129L423.959,388.626L424.357,388.121L424.753,387.615L425.148,387.108L425.541,386.599L425.933,386.09L426.324,385.579L426.713,385.067L427.1,384.554L427.486,384.04L427.87,383.524L428.253,383.007L428.634,382.489L429.014,381.97L429.392,381.45L429.769,380.928L430.144,380.406L430.518,379.882L430.89,379.357L431.261,378.831L431.63,378.303L431.998,377.775L432.364,377.245L432.728,376.714L433.091,376.183L433.452,375.649L433.812,375.115L434.17,374.58L434.527,374.043L434.882,373.506L435.235,372.967L435.587,372.427L435.937,371.886L436.286,371.344L436.633,370.801L436.979,370.256L437.323,369.711L437.665,369.164L438.006,368.616L438.345,368.068L438.683,367.518L439.019,366.967L439.353,366.415L439.685,365.862L440.017,365.307L440.346,364.752L440.674,364.196L441,363.638L441.325,363.08L441.647,362.52L441.969,361.959L442.288,361.398L442.606,360.835L442.923,360.271L443.237,359.706L443.55,359.14L443.862,358.573L444.171,358.005L444.479,357.436L444.786,356.866L445.09,356.295L445.393,355.723L445.695,355.149L445.994,354.575L446.292,354L446.589,353.424L446.883,352.847L447.176,352.268L447.467,351.689L447.757,351.109L448.044,350.528L448.33,349.945L448.615,349.362L448.897,348.778L449.178,348.193L449.457,347.606L449.735,347.019L450.01,346.431L450.284,345.842L450.557,345.252L450.827,344.661L451.096,344.069L451.363,343.476L451.628,342.882L451.892,342.287L452.153,341.691L452.413,341.094L452.672,340.497L452.928,339.898L453.183,339.298L453.436,338.698L453.687,338.096L453.936,337.494L454.184,336.891L454.43,336.287L454.674,335.681L454.916,335.075L455.156,334.468L455.395,333.861L455.632,333.252L455.867,332.642L456.1,332.032L456.331,331.42L456.561,330.808L456.789,330.194L457.015,329.58L457.239,328.965L457.461,328.35L457.681,327.733L457.9,327.115L458.117,326.497L458.332,325.877L458.545,325.257L458.756,324.636L458.965,324.014L459.173,323.391L459.379,322.768L459.582,322.143L459.784,321.518L459.984,320.892L460.183,320.265L460.379,319.637L460.573,319.008L460.766,318.379L460.957,317.749L461.146,317.118L461.332,316.486L461.517,315.853L461.701,315.219L461.882,314.585L462.061,313.95L462.239,313.314L462.414,312.677L462.588,312.04L462.759,311.402L462.929,310.762L463.097,310.123L463.263,309.482L463.427,308.841L463.589,308.198L463.749,307.555L463.907,306.912L464.063,306.267L464.217,305.622L464.37,304.976L464.52,304.329L464.669,303.682L464.815,303.033L464.959,302.384L465.102,301.735L465.242,301.084L465.381,300.433L465.518,299.781L465.652,299.128L465.785,298.475L465.916,297.821L466.044,297.166L466.171,296.511L466.296,295.854L466.418,295.198L466.539,294.54L466.658,293.882L466.774,293.223L466.889,292.563L467.001,291.902L467.112,291.241L467.221,290.58L467.327,289.917L467.432,289.254L467.534,288.59L467.635,287.926L467.733,287.26L467.83,286.595L467.924,285.928L468.016,285.261L468.106,284.593L468.195,283.925L468.281,283.256L468.365,282.586L468.447,281.916L468.527,281.245L468.605,280.573L468.68,279.901L468.754,279.228L468.826,278.554L468.895,277.88L468.963,277.206L469.028,276.53L469.091,275.854L469.152,275.178L469.211,274.5L469.268,273.823L469.323,273.144L469.376,272.465L469.427,271.786L469.475,271.106L469.522,270.425L469.566,269.743L469.608,269.062L469.648,268.379L469.686,267.696L469.722,267.012L469.755,266.328L469.787,265.643L469.816,264.958L469.843,264.272L469.868,263.586L469.891,262.899L469.912,262.211L469.93,261.523L469.946,260.835L469.961,260.146L469.973,259.456L469.982,258.766L469.99,258.075L469.996,257.384L469.999,256.692L470,256L469.999,255.308L469.996,254.616L469.99,253.925L469.982,253.234L469.973,252.544L469.961,251.854L469.946,251.165L469.93,250.477L469.912,249.789L469.891,249.101L469.868,248.414L469.843,247.728L469.816,247.042L469.787,246.357L469.755,245.672L469.722,244.988L469.686,244.304L469.648,243.621L469.608,242.938L469.566,242.257L469.522,241.575L469.475,240.894L469.427,240.214L469.376,239.535L469.323,238.856L469.268,238.177L469.211,237.5L469.152,236.822L469.091,236.146L469.028,235.47L468.963,234.794L468.895,234.12L468.826,233.446L468.754,232.772L468.68,232.099L468.605,231.427L468.527,230.755L468.447,230.084L468.365,229.414L468.281,228.744L468.195,228.075L468.106,227.407L468.016,226.739L467.924,226.072L467.83,225.405L467.733,224.74L467.635,224.074L467.534,223.41L467.432,222.746L467.327,222.083L467.221,221.42L467.112,220.759L467.001,220.098L466.889,219.437L466.774,218.777L466.658,218.118L466.539,217.46L466.418,216.802L466.296,216.146L466.171,215.489L466.044,214.834L465.916,214.179L465.785,213.525L465.652,212.872L465.518,212.219L465.381,211.567L465.242,210.916L465.102,210.265L464.959,209.616L464.815,208.967L464.669,208.318L464.52,207.671L464.37,207.024L464.217,206.378L464.063,205.733L463.907,205.088L463.749,204.445L463.589,203.802L463.427,203.159L463.263,202.518L463.097,201.877L462.929,201.238L462.759,200.598L462.588,199.96L462.414,199.323L462.239,198.686L462.061,198.05L461.882,197.415L461.701,196.781L461.517,196.147L461.332,195.514L461.146,194.882L460.957,194.251L460.766,193.621L460.573,192.992L460.379,192.363L460.183,191.735L459.984,191.108L459.784,190.482L459.582,189.857L459.379,189.232L459.173,188.609L458.965,187.986L458.756,187.364L458.545,186.743L458.332,186.123L458.117,185.503L457.9,184.885L457.681,184.267L457.461,183.65L457.239,183.035L457.015,182.42L456.789,181.806L456.561,181.192L456.331,180.58L456.1,179.968L455.867,179.358L455.632,178.748L455.395,178.139L455.156,177.532L454.916,176.925L454.674,176.319L454.43,175.713L454.184,175.109L453.936,174.506L453.687,173.904L453.436,173.302L453.183,172.702L452.928,172.102L452.672,171.503L452.413,170.906L452.153,170.309L451.892,169.713L451.628,169.118L451.363,168.524L451.096,167.931L450.827,167.339L450.557,166.748L450.284,166.158L450.01,165.569L449.735,164.981L449.457,164.394L449.178,163.807L448.897,163.222L448.615,162.638L448.33,162.055L448.044,161.472L447.757,160.891L447.467,160.311L447.176,159.732L446.883,159.153L446.589,158.576L446.292,158L445.994,157.425L445.695,156.851L445.393,156.277L445.09,155.705L444.786,155.134L444.479,154.564L444.171,153.995L443.862,153.427L443.55,152.86L443.237,152.294L442.923,151.729L442.606,151.165L442.288,150.602L441.969,150.041L441.647,149.48L441.325,148.92L441,148.362L440.674,147.804L440.346,147.248L440.017,146.693L439.685,146.138L439.353,145.585L439.019,145.033L438.683,144.482L438.345,143.932L438.006,143.384L437.665,142.836L437.323,142.289L436.979,141.744L436.633,141.199L436.286,140.656L435.937,140.114L435.587,139.573L435.235,139.033L434.882,138.494L434.527,137.957L434.17,137.42L433.812,136.885L433.452,136.351L433.091,135.817L432.728,135.286L432.364,134.755L431.998,134.225L431.63,133.697L431.261,133.169L430.89,132.643L430.518,132.118L430.144,131.594L429.769,131.072L429.392,130.55L429.014,130.03L428.634,129.511L428.253,128.993L427.87,128.476L427.486,127.96L427.1,127.446L426.713,126.933L426.324,126.421L425.933,125.91L425.541,125.401L425.148,124.892L424.753,124.385L424.357,123.879L423.959,123.374L423.56,122.871L423.159,122.369L422.757,121.868L422.353,121.368L421.948,120.869L421.541,120.372L421.133,119.876L420.723,119.381L420.312,118.888L419.9,118.395L419.486,117.904L419.07,117.415L418.654,116.926L418.235,116.439L417.816,115.953L417.394,115.468L416.972,114.985L416.548,114.503L416.122,114.022L415.696,113.542L415.267,113.064L414.838,112.587L414.407,112.111L413.974,111.637L413.54,111.164L413.105,110.692L412.668,110.221L412.23,109.752L411.791,109.284L411.35,108.818L410.908,108.353L410.464,107.889L410.019,107.426L409.573,106.965L409.125,106.505L408.676,106.047L408.226,105.589L407.774,105.134L407.321,104.679L406.866,104.226L406.411,103.774L405.953,103.324L405.495,102.875L405.035,102.427L404.574,101.981L404.111,101.536L403.647,101.092L403.182,100.65L402.716,100.209L402.248,99.7696L401.779,99.3316L401.308,98.8949L400.836,98.4597L400.363,98.0258L399.889,97.5933L399.413,97.1623L398.936,96.7326L398.458,96.3044L397.978,95.8775L397.497,95.4521L397.015,95.0281L396.532,94.6056L396.047,94.1845L395.561,93.7648L395.074,93.3465L394.585,92.9297L394.096,92.5143L393.605,92.1003L393.112,91.6878L392.619,91.2768L392.124,90.8672L391.628,90.4591L391.131,90.0524L390.632,89.6472L390.132,89.2434L389.631,88.8412L389.129,88.4404L388.626,88.0411L388.121,87.6432L387.615,87.2469L387.108,86.852L386.599,86.4586L386.09,86.0667L385.579,85.6764L385.067,85.2875L384.554,84.9001L384.04,84.5142L383.524,84.1299L383.007,83.747L382.489,83.3657L381.97,82.9859L381.45,82.6076L380.928,82.2308L380.406,81.8556L379.882,81.4819L379.357,81.1097L378.831,80.7391L378.303,80.37L377.775,80.0025L377.245,79.6365L376.714,79.272L376.183,78.9092L375.649,78.5478L375.115,78.1881L374.58,77.8299L374.043,77.4733L373.506,77.1182L372.967,76.7648L372.427,76.4129L371.886,76.0625L371.344,75.7138L370.801,75.3667L370.256,75.0211L369.711,74.6772L369.164,74.3348L368.616,73.9941L368.068,73.655L367.518,73.3174L366.967,72.9815L366.415,72.6472L365.862,72.3145L365.307,71.9834L364.752,71.654L364.196,71.3262L363.638,71L363.08,70.6755L362.52,70.3525L361.959,70.0313L361.398,69.7117L360.835,69.3937L360.271,69.0774L359.706,68.7627L359.14,68.4497L358.573,68.1383L358.005,67.8286L357.436,67.5206L356.866,67.2143L356.295,66.9096L355.723,66.6066L355.149,66.3053L354.575,66.0057L354,65.7077L353.424,65.4115L352.847,65.1169L352.268,64.8241L351.689,64.5329L351.109,64.2434L350.528,63.9557L349.945,63.6697L349.362,63.3853L348.778,63.1027L348.193,62.8218L347.606,62.5427L347.019,62.2652L346.431,61.9895L345.842,61.7156L345.252,61.4433L344.661,61.1728L344.069,60.9041L343.476,60.6371L342.882,60.3718L342.287,60.1083L341.691,59.8465L341.094,59.5866L340.497,59.3283L339.898,59.0719L339.298,58.8172L338.698,58.5643L338.096,58.3131L337.494,58.0638L336.891,57.8162L336.287,57.5704L335.681,57.3264L335.075,57.0842L334.468,56.8438L333.861,56.6051L333.252,56.3683L332.642,56.1333L332.032,55.9001L331.42,55.6687L330.808,55.4391L330.194,55.2114L329.58,54.9855L328.965,54.7614L328.35,54.5391L327.733,54.3186L327.115,54.1L326.497,53.8832L325.877,53.6683L325.257,53.4552L324.636,53.244L324.014,53.0346L323.391,52.8271L322.768,52.6214L322.143,52.4176L321.518,52.2156L320.892,52.0156L320.265,51.8174L319.637,51.621L319.008,51.4266L318.379,51.234L317.749,51.0433L317.118,50.8545L316.486,50.6676L315.853,50.4826L315.219,50.2994L314.585,50.1182L313.95,49.9389L313.314,49.7615L312.677,49.586L312.04,49.4124L311.402,49.2407L310.762,49.071L310.123,48.9032L309.482,48.7373L308.841,48.5733L308.198,48.4113L307.555,48.2512L306.912,48.093L306.267,47.9368L305.622,47.7826L304.976,47.6303L304.329,47.4799L303.682,47.3315L303.033,47.185L302.384,47.0406L301.735,46.898L301.084,46.7575L300.433,46.6189L299.781,46.4823L299.128,46.3477L298.475,46.2151L297.821,46.0844L297.166,45.9558L296.511,45.8291L295.854,45.7044L295.198,45.5818L294.54,45.4611L293.882,45.3424L293.223,45.2258L292.563,45.1112L291.902,44.9985L291.241,44.8879L290.58,44.7793L289.917,44.6728L289.254,44.5683L288.59,44.4658L287.926,44.3653L287.26,44.2669L286.595,44.1705L285.928,44.0762L285.261,43.9839L284.593,43.8936L283.925,43.8055L283.256,43.7193L282.586,43.6353L281.916,43.5533L281.245,43.4734L280.573,43.3955L279.901,43.3197L279.228,43.246L278.554,43.1744L277.88,43.1049L277.206,43.0374L276.53,42.9721L275.854,42.9088L275.178,42.8476L274.5,42.7886L273.823,42.7316L273.144,42.6767L272.465,42.624L271.786,42.5734L271.106,42.5249L270.425,42.4785L269.743,42.4342L269.062,42.3921L268.379,42.3521L267.696,42.3142L267.012,42.2785L266.328,42.2449L265.643,42.2134L264.958,42.1841L264.272,42.1569L263.586,42.1319L262.899,42.1091L262.211,42.0884L261.523,42.0699L260.835,42.0535L260.146,42.0394L259.456,42.0273L258.766,42.0175L258.075,42.0099L257.384,42.0044L256.692,42.0011L256,42L255.308,42.0011L254.616,42.0044L253.925,42.0099L253.234,42.0175L252.544,42.0273L251.854,42.0394L251.165,42.0535L250.477,42.0699L249.789,42.0884L249.101,42.1091L248.414,42.1319L247.728,42.1569L247.042,42.1841L246.357,42.2134L245.672,42.2449L244.988,42.2785L244.304,42.3142L243.621,42.3521L242.938,42.3921L242.257,42.4342L241.575,42.4785L240.894,42.5249L240.214,42.5734L239.535,42.624L238.856,42.6767L238.177,42.7316L237.5,42.7886L236.822,42.8476L236.146,42.9088L235.47,42.9721L234.794,43.0374L234.12,43.1049L233.446,43.1744L232.772,43.246L232.099,43.3197L231.427,43.3955L230.755,43.4734L230.084,43.5533L229.414,43.6353L228.744,43.7193L228.075,43.8055L227.407,43.8936L226.739,43.9839L226.072,44.0762L225.405,44.1705L224.74,44.2669L224.074,44.3653L223.41,44.4658L222.746,44.5683L222.083,44.6728L221.42,44.7793L220.759,44.8879L220.098,44.9985L219.437,45.1112L218.777,45.2258L218.118,45.3424L217.46,45.4611L216.802,45.5818L216.146,45.7044L215.489,45.8291L214.834,45.9558L214.179,46.0844L213.525,46.2151L212.872,46.3477L212.219,46.4823L211.567,46.6189L210.916,46.7575L210.265,46.898L209.616,47.0406L208.967,47.185L208.318,47.3315L207.671,47.4799L207.024,47.6303L206.378,47.7826L205.733,47.9368L205.088,48.093L204.445,48.2512L203.802,48.4113L203.159,48.5733L202.518,48.7373L201.877,48.9032L201.238,49.071L200.598,49.2407L199.96,49.4124L199.323,49.586L198.686,49.7615L198.05,49.9389L197.415,50.1182L196.781,50.2994L196.147,50.4826L195.514,50.6676L194.882,50.8545L194.251,51.0433L193.621,51.234L192.992,51.4266L192.363,51.621L191.735,51.8174L191.108,52.0156L190.482,52.2156L189.857,52.4176L189.232,52.6214L188.609,52.8271L187.986,53.0346L187.364,53.244L186.743,53.4552L186.123,53.6683L185.503,53.8832L184.885,54.1L184.267,54.3186L183.65,54.5391L183.035,54.7614L182.42,54.9855L181.806,55.2114L181.192,55.4391L180.58,55.6687L179.968,55.9001L179.358,56.1333L178.748,56.3683L178.139,56.6051L177.532,56.8438L176.925,57.0842L176.319,57.3264L175.713,57.5704L175.109,57.8162L174.506,58.0638L173.904,58.3131L173.302,58.5643L172.702,58.8172L172.102,59.0719L171.503,59.3283L170.906,59.5866L170.309,59.8465L169.713,60.1083L169.118,60.3718L168.524,60.6371L167.931,60.9041L167.339,61.1728L166.748,61.4433L166.158,61.7156L165.569,61.9895L164.981,62.2652L164.394,62.5427L163.807,62.8218L163.222,63.1027L162.638,63.3853L162.055,63.6697L161.472,63.9557L160.891,64.2434L160.311,64.5329L159.732,64.8241L159.153,65.1169L158.576,65.4115L158,65.7077L157.425,66.0057L156.851,66.3053L156.277,66.6066L155.705,66.9096L155.134,67.2143L154.564,67.5206L153.995,67.8286L153.427,68.1383L152.86,68.4497L152.294,68.7627L151.729,69.0774L151.165,69.3937L150.602,69.7117L150.041,70.0313L149.48,70.3525L148.92,70.6755L148.362,71L147.804,71.3262L147.248,71.654L146.693,71.9834L146.138,72.3145L145.585,72.6472L145.033,72.9815L144.482,73.3174L143.932,73.655L143.384,73.9941L142.836,74.3348L142.289,74.6772L141.744,75.0211L141.199,75.3667L140.656,75.7138L140.114,76.0625L139.573,76.4129L139.033,76.7648L138.494,77.1182L137.957,77.4733L137.42,77.8299L136.885,78.1881L136.351,78.5478L135.817,78.9092L135.286,79.272L134.755,79.6365L134.225,80.0025L133.697,80.37L133.169,80.7391L132.643,81.1097L132.118,81.4819L131.594,81.8556L131.072,82.2308L130.55,82.6076L130.03,82.9859L129.511,83.3657L128.993,83.747L128.476,84.1299L127.96,84.5142L127.446,84.9001L126.933,85.2875L126.421,85.6764L125.91,86.0667L125.401,86.4586L124.892,86.852L124.385,87.2469L123.879,87.6432L123.374,88.0411L122.871,88.4404L122.369,88.8412L121.868,89.2434L121.368,89.6472L120.869,90.0524L120.372,90.4591L119.876,90.8672L119.381,91.2768L118.888,91.6878L118.395,92.1003L117.904,92.5143L117.415,92.9297L116.926,93.3465L116.439,93.7648L115.953,94.1845L115.468,94.6056L114.985,95.0281L114.503,95.4521L114.022,95.8775L113.542,96.3044L113.064,96.7326L112.587,97.1623L112.111,97.5933L111.637,98.0258L111.164,98.4597L110.692,98.8949L110.221,99.3316L109.752,99.7696L109.284,100.209L108.818,100.65L108.353,101.092L107.889,101.536L107.426,101.981L106.965,102.427L106.505,102.875L106.047,103.324L105.589,103.774L105.134,104.226L104.679,104.679L104.226,105.134L103.774,105.589L103.324,106.047L102.875,106.505L102.427,106.965L101.981,107.426L101.536,107.889L101.092,108.353L100.65,108.818L100.209,109.284L99.7696,109.752L99.3316,110.221L98.8949,110.692L98.4597,111.164L98.0258,111.637L97.5933,112.111L97.1623,112.587L96.7326,113.064L96.3044,113.542L95.8775,114.022L95.4521,114.503L95.0281,114.985L94.6056,115.468L94.1845,115.953L93.7648,116.439L93.3465,116.926L92.9297,117.415L92.5143,117.904L92.1003,118.395L91.6878,118.888L91.2768,119.381L90.8672,119.876L90.4591,120.372L90.0524,120.869L89.6472,121.368L89.2434,121.868L88.8412,122.369L88.4404,122.871L88.0411,123.374L87.6432,123.879L87.2469,124.385L86.852,124.892L86.4586,125.401L86.0667,125.91L85.6764,126.421L85.2875,126.933L84.9001,127.446L84.5142,127.96L84.1299,128.476L83.747,128.993L83.3657,129.511L82.9859,130.03L82.6076,130.55L82.2308,131.072L81.8556,131.594L81.4819,132.118L81.1097,132.643L80.7391,133.169L80.37,133.697L80.0025,134.225L79.6365,134.755L79.272,135.286L78.9092,135.817L78.5478,136.351L78.1881,136.885L77.8299,137.42L77.4733,137.957L77.1182,138.494L76.7648,139.033L76.4129,139.573L76.0625,140.114L75.7138,140.656L75.3667,141.199L75.0211,141.744L74.6772,142.289L74.3348,142.836L73.9941,143.384L73.655,143.932L73.3174,144.482L72.9815,145.033L72.6472,145.585L72.3145,146.138L71.9834,146.693L71.654,147.248L71.3262,147.804L71,148.362L70.6755,148.92L70.3525,149.48L70.0313,150.041L69.7117,150.602L69.3937,151.165L69.0774,151.729L68.7627,152.294L68.4497,152.86L68.1383,153.427L67.8286,153.995L67.5206,154.564L67.2143,155.134L66.9096,155.705L66.6066,156.277L66.3053,156.851L66.0057,157.425L65.7077,158L65.4115,158.576L65.1169,159.153L64.8241,159.732L64.5329,160.311L64.2434,160.891L63.9557,161.472L63.6697,162.055L63.3853,162.638L63.1027,163.222L62.8218,163.807L62.5427,164.394L62.2652,164.981L61.9895,165.569L61.7156,166.158L61.4433,166.748L61.1728,167.339L60.9041,167.931L60.6371,168.524L60.3718,169.118L60.1083,169.713L59.8465,170.309L59.5866,170.906L59.3283,171.503L59.0719,172.102L58.8172,172.702L58.5643,173.302L58.3131,173.904L58.0638,174.506L57.8162,175.109L57.5704,175.713L57.3264,176.319L57.0842,176.925L56.8438,177.532L56.6051,178.139L56.3683,178.748L56.1333,179.358L55.9001,179.968L55.6687,180.58L55.4391,181.192L55.2114,181.806L54.9855,182.42L54.7614,183.035L54.5391,183.65L54.3186,184.267L54.1,184.885L53.8832,185.503L53.6683,186.123L53.4552,186.743L53.244,187.364L53.0346,187.986L52.8271,188.609L52.6214,189.232L52.4176,189.857L52.2156,190.482L52.0156,191.108L51.8174,191.735L51.621,192.363L51.4266,192.992L51.234,193.621L51.0433,194.251L50.8545,194.882L50.6676,195.514L50.4826,196.147L50.2994,196.781L50.1182,197.415L49.9389,198.05L49.7615,198.686L49.586,199.323L49.4124,199.96L49.2407,200.598L49.071,201.238L48.9032,201.877L48.7373,202.518L48.5733,203.159L48.4113,203.802L48.2512,204.445L48.093,205.088L47.9368,205.733L47.7826,206.378L47.6303,207.024L47.4799,207.671L47.3315,208.318L47.185,208.967L47.0406,209.616L46.898,210.265L46.7575,210.916L46.6189,211.567L46.4823,212.219L46.3477,212.872L46.2151,213.525L46.0844,214.179L45.9558,214.834L45.8291,215.489L45.7044,216.146L45.5818,216.802L45.4611,217.46L45.3424,218.118L45.2258,218.777L45.1112,219.437L44.9985,220.098L44.8879,220.759L44.7793,221.42L44.6728,222.083L44.5683,222.746L44.4658,223.41L44.3653,224.074L44.2669,224.74L44.1705,225.405L44.0762,226.072L43.9839,226.739L43.8936,227.407L43.8055,228.075L43.7193,228.744L43.6353,229.414L43.5533,230.084L43.4734,230.755L43.3955,231.427L43.3197,232.099L43.246,232.772L43.1744,233.446L43.1049,234.12L43.0374,234.794L42.9721,235.47L42.9088,236.146L42.8476,236.822L42.7886,237.5L42.7316,238.177L42.6767,238.856L42.624,239.535L42.5734,240.214L42.5249,240.894L42.4785,241.575L42.4342,242.257L42.3921,242.938L42.3521,243.621L42.3142,244.304L42.2785,244.988L42.2449,245.672L42.2134,246.357L42.1841,247.042L42.1569,247.728L42.1319,248.414L42.1091,249.101L42.0884,249.789L42.0699,250.477L42.0535,251.165L42.0394,251.854L42.0273,252.544L42.0175,253.234L42.0099,253.925L42.0044,254.616L42.0011,255.308L42,256L42.0011,256.692L42.0044,257.384L42.0099,258.075L42.0175,258.766L42.0273,259.456L42.0394,260.146L42.0535,260.835L42.0699,261.523L42.0884,262.211L42.1091,262.899L42.1319,263.586L42.1569,264.272L42.1841,264.958L42.2134,265.643L42.2449,266.328L42.2785,267.012L42.3142,267.696L42.3521,268.379L42.3921,269.062L42.4342,269.743L42.4785,270.425L42.5249,271.106L42.5734,271.786L42.624,272.465L42.6767,273.144L42.7316,273.823L42.7886,274.5L42.8476,275.178L42.9088,275.854L42.9721,276.53L43.0374,277.206L43.1049,277.88L43.1744,278.554L43.246,279.228L43.3197,279.901L43.3955,280.573L43.4734,281.245L43.5533,281.916L43.6353,282.586L43.7193,283.256L43.8055,283.925L43.8936,284.593L43.9839,285.261L44.0762,285.928L44.1705,286.595L44.2669,287.26L44.3653,287.926L44.4658,288.59L44.5683,289.254L44.6728,289.917L44.7793,290.58L44.8879,291.241L44.9985,291.902L45.1112,292.563L45.2258,293.223L45.3424,293.882L45.4611,294.54L45.5818,295.198L45.7044,295.854L45.8291,296.511L45.9558,297.166L46.0844,297.821L46.2151,298.475L46.3477,299.128L46.4823,299.781L46.6189,300.433L46.7575,301.084L46.898,301.735L47.0406,302.384L47.185,303.033L47.3315,303.682L47.4799,304.329L47.6303,304.976L47.7826,305.622L47.9368,306.267L48.093,306.912L48.2512,307.555L48.4113,308.198L48.5733,308.841L48.7373,309.482L48.9032,310.123L49.071,310.762L49.2407,311.402L49.4124,312.04L49.586,312.677L49.7615,313.314L49.9389,313.95L50.1182,314.585L50.2994,315.219L50.4826,315.853L50.6676,316.486L50.8545,317.118L51.0433,317.749L51.234,318.379L51.4266,319.008L51.621,319.637L51.8174,320.265L52.0156,320.892L52.2156,321.518L52.4176,322.143L52.6214,322.768L52.8271,323.391L53.0346,324.014L53.244,324.636L53.4552,325.257L53.6683,325.877L53.8832,326.497L54.1,327.115L54.3186,327.733L54.5391,328.35L54.7614,328.965L54.9855,329.58L55.2114,330.194L55.4391,330.808L55.6687,331.42L55.9001,332.032L56.1333,332.642L56.3683,333.252L56.6051,333.861L56.8438,334.468L57.0842,335.075L57.3264,335.681L57.5704,336.287L57.8162,336.891L58.0638,337.494L58.3131,338.096L58.5643,338.698L58.8172,339.298L59.0719,339.898L59.3283,340.497L59.5866,341.094L59.8465,341.691L60.1083,342.287L60.3718,342.882L60.6371,343.476L60.9041,344.069L61.1728,344.661L61.4433,345.252L61.7156,345.842L61.9895,346.431L62.2652,347.019L62.5427,347.606L62.8218,348.193L63.1027,348.778L63.3853,349.362L63.6697,349.945L63.9557,350.528L64.2434,351.109L64.5329,351.689L64.8241,352.268L65.1169,352.847L65.4115,353.424L65.7077,354L66.0057,354.575L66.3053,355.149L66.6066,355.723L66.9096,356.295L67.2143,356.866L67.5206,357.436L67.8286,358.005L68.1383,358.573L68.4497,359.14L68.7627,359.706L69.0774,360.271L69.3937,360.835L69.7117,361.398L70.0313,361.959L70.3525,362.52L70.6755,363.08L71,363.638L71.3262,364.196L71.654,364.752L71.9834,365.307L72.3145,365.862L72.6472,366.415L72.9815,366.967L73.3174,367.518L73.655,368.068L73.9941,368.616L74.3348,369.164L74.6772,369.711L75.0211,370.256L75.3667,370.801L75.7138,371.344L76.0625,371.886L76.4129,372.427L76.7648,372.967L77.1182,373.506L77.4733,374.043L77.8299,374.58L78.1881,375.115L78.5478,375.649L78.9092,376.183L79.272,376.714L79.6365,377.245L80.0025,377.775L80.37,378.303L80.7391,378.831L81.1097,379.357L81.4819,379.882L81.8556,380.406L82.2308,380.928L82.6076,381.45L82.9859,381.97L83.3657,382.489L83.747,383.007L84.1299,383.524L84.5142,384.04L84.9001,384.554L85.2875,385.067L85.6764,385.579L86.0667,386.09L86.4586,386.599L86.852,387.108L87.2469,387.615L87.6432,388.121L88.0411,388.626L88.4404,389.129L88.8412,389.631L89.2434,390.132L89.6472,390.632L90.0524,391.131L90.4591,391.628L90.8672,392.124L91.2768,392.619L91.6878,393.112L92.1003,393.605L92.5143,394.096L92.9297,394.585L93.3465,395.074L93.7648,395.561L94.1845,396.047L94.6056,396.532L95.0281,397.015L95.4521,397.497L95.8775,397.978L96.3044,398.458L96.7326,398.936L97.1623,399.413L97.5933,399.889L98.0258,400.363L98.4597,400.836L98.8949,401.308L99.3316,401.779L99.7696,402.248L100.209,402.716L100.65,403.182L101.092,403.647L101.536,404.111L101.981,404.574L102.427,405.035L102.875,405.495L103.324,405.953L103.774,406.411L104.226,406.866L104.679,407.321L105.134,407.774L105.589,408.226L106.047,408.676L106.505,409.125L106.965,409.573L107.426,410.019L107.889,410.464L108.353,410.908L108.818,411.35L109.284,411.791L109.752,412.23L110.221,412.668L110.692,413.105L111.164,413.54L111.637,413.974L112.111,414.407L112.587,414.838L113.064,415.267L113.542,415.696L114.022,416.122L114.503,416.548L114.985,416.972L115.468,417.394L115.953,417.816L116.439,418.235L116.926,418.654L117.415,419.07L117.904,419.486L118.395,419.9L118.888,420.312L119.381,420.723L119.876,421.133L120.372,421.541L120.869,421.948L121.368,422.353L121.868,422.757L122.369,423.159L122.871,423.56L123.374,423.959L123.879,424.357L124.385,424.753L124.892,425.148L125.401,425.541L125.91,425.933L126.421,426.324L126.933,426.713L127.446,427.1L127.96,427.486L128.476,427.87L128.993,428.253L129.511,428.634L130.03,429.014L130.55,429.392L131.072,429.769L131.594,430.144L132.118,430.518L132.643,430.89L133.169,431.261L133.697,431.63L134.225,431.998L134.755,432.364L135.286,432.728L135.817,433.091L136.351,433.452L136.885,433.812L137.42,434.17L137.957,434.527L138.494,434.882L139.033,435.235L139.573,435.587L140.114,435.937L140.656,436.286L141.199,436.633L141.744,436.979L142.289,437.323L142.836,437.665L143.384,438.006L143.932,438.345L144.482,438.683L145.033,439.019L145.585,439.353L146.138,439.685L146.693,440.017L147.248,440.346L147.804,440.674L148.362,441L148.92,441.325L149.48,441.647L150.041,441.969L150.602,442.288L151.165,442.606L151.729,442.923L152.294,443.237L152.86,443.55L153.427,443.862L153.995,444.171L154.564,444.479L155.134,444.786L155.705,445.09L156.277,445.393L156.851,445.695L157.425,445.994L158,446.292L158.576,446.589L159.153,446.883L159.732,447.176L160.311,447.467L160.891,447.757L161.472,448.044L162.055,448.33L162.638,448.615L163.222,448.897L163.807,449.178L164.394,449.457L164.981,449.735L165.569,450.01L166.158,450.284L166.748,450.557L167.339,450.827L167.931,451.096L168.524,451.363L169.118,451.628L169.713,451.892L170.309,452.153L170.906,452.413L171.503,452.672L172.102,452.928L172.702,453.183L173.302,453.436L173.904,453.687L174.506,453.936L175.109,454.184L175.713,454.43L176.319,454.674L176.925,454.916L177.532,455.156L178.139,455.395L178.748,455.632L179.358,455.867L179.968,456.1L180.58,456.331L181.192,456.561L181.806,456.789L182.42,457.015L183.035,457.239L183.65,457.461L184.267,457.681L184.885,457.9L185.503,458.117L186.123,458.332L186.743,458.545L187.364,458.756L187.986,458.965L188.609,459.173L189.232,459.379L189.857,459.582L190.482,459.784L191.108,459.984L191.735,460.183L192.363,460.379L192.992,460.573L193.621,460.766L194.251,460.957L194.882,461.146L195.514,461.332L196.147,461.517L196.781,461.701L197.415,461.882L198.05,462.061L198.686,462.239L199.323,462.414L199.96,462.588L200.598,462.759L201.238,462.929L201.877,463.097L202.518,463.263L203.159,463.427L203.802,463.589L204.445,463.749L205.088,463.907L205.733,464.063L206.378,464.217L207.024,464.37L207.671,464.52L208.318,464.669L208.967,464.815L209.616,464.959L210.265,465.102L210.916,465.242L211.567,465.381L212.219,465.518L212.872,465.652L213.525,465.785L214.179,465.916L214.834,466.044L215.489,466.171L216.146,466.296L216.802,466.418L217.46,466.539L218.118,466.658L218.777,466.774L219.437,466.889L220.098,467.001L220.759,467.112L221.42,467.221L222.083,467.327L222.746,467.432L223.41,467.534L224.074,467.635L224.74,467.733L225.405,467.83L226.072,467.924L226.739,468.016L227.407,468.106L228.075,468.195L228.744,468.281L229.414,468.365L230.084,468.447L230.755,468.527L231.427,468.605L232.099,468.68L232.772,468.754L233.446,468.826L234.12,468.895L234.794,468.963L235.47,469.028L236.146,469.091L236.822,469.152L237.5,469.211L238.177,469.268L238.856,469.323L239.535,469.376L240.214,469.427L240.894,469.475L241.575,469.522L242.257,469.566L242.938,469.608L243.621,469.648L244.304,469.686L244.988,469.722L245.672,469.755L246.357,469.787L247.042,469.816L247.728,469.843L248.414,469.868L249.101,469.891L249.789,469.912L250.477,469.93L251.165,469.946L251.854,469.961L252.544,469.973L253.234,469.982L253.925,469.99L254.616,469.996L255.308,469.999L256,470Z" style="fill:black;"/>
            </g>
            <g>
                <path d="M256,220C275.882,220 292,236.118 292,256C292,275.882 275.882,292 256,292C236.118,292 220,275.882 220,256C220,236.118 236.118,220 256,220Z" style="fill:black;"/>
            </g>
            <g>
                <path d="M248.839,239.076L118.88,151.717L105.491,171.635L235.45,258.994L248.839,239.076Z" style="fill:black;"/>
            </g>
            <g>
                <rect x="280.352" y="244" width="109.055" height="24" style="fill:black;"/>
            </g>
        </g>
    </g>
</svg>
