<?xml version="1.0" standalone="no"?>
<!DOCTYPE svg PUBLIC "-//W3C//DTD SVG 1.1//EN" "http://www.w3.org/Graphics/SVG/1.1/DTD/svg11.dtd">
<svg width="512px" height="512px" version="1.1" xmlns="http://www.w3.org/2000/svg" xmlns:xlink="http://www.w3.org/1999/xlink" xml:space="preserve" style="fill-rule:evenodd;clip-rule:evenodd;stroke-linecap:round;stroke-linejoin:round;stroke-miterlimit:1.41421;">
    <g>
        <g id="Layer1">
            <g>
                <path d="M189.479,513.333L188.986,513.333L188.472,513.331L187.958,513.327L187.447,513.323L186.935,513.317L186.424,513.31L185.912,513.301L185.402,513.291L184.893,513.28L184.384,513.267L183.875,513.253L183.368,513.237L182.86,513.22L182.352,513.202L181.847,513.182L181.341,513.161L180.835,513.138L180.33,513.114L179.826,513.089L179.321,513.062L178.818,513.033L178.315,513.003L177.813,512.972L177.312,512.938L176.81,512.904L176.309,512.868L175.809,512.83L175.308,512.791L174.809,512.75L174.309,512.707L173.81,512.663L173.313,512.617L172.815,512.57L172.317,512.521L171.82,512.47L171.323,512.418L170.828,512.364L170.332,512.309L169.836,512.251L169.342,512.192L168.847,512.131L168.353,512.069L167.859,512.004L167.366,511.938L166.874,511.87L166.381,511.8L165.888,511.729L165.397,511.655L164.906,511.58L164.414,511.503L163.924,511.424L163.435,511.343L162.944,511.26L162.454,511.175L161.966,511.089L161.478,511L160.989,510.91L160.501,510.817L160.014,510.722L159.527,510.626L159.041,510.527L158.554,510.426L158.067,510.323L157.582,510.218L157.097,510.111L156.613,510.002L156.129,509.891L155.644,509.778L155.161,509.662L154.676,509.544L154.194,509.424L153.712,509.302L153.231,509.178L152.749,509.051L152.267,508.921L151.788,508.79L151.307,508.657L150.826,508.52L150.348,508.382L149.869,508.242L149.391,508.098L148.914,507.953L148.435,507.805L147.958,507.654L147.483,507.502L147.007,507.347L146.532,507.189L146.056,507.028L145.581,506.865L145.109,506.7L144.635,506.532L144.163,506.362L143.691,506.189L143.218,506.013L142.749,505.835L142.28,505.654L141.81,505.471L141.341,505.284L140.872,505.094L140.405,504.903L139.938,504.709L139.473,504.511L139.008,504.312L138.542,504.108L138.08,503.903L137.618,503.695L137.156,503.484L136.694,503.27L136.234,503.053L135.775,502.834L135.317,502.612L134.859,502.386L134.402,502.158L133.947,501.927L133.492,501.693L133.039,501.456L132.587,501.216L132.135,500.974L131.687,500.729L131.237,500.48L130.789,500.228L130.342,499.974L129.896,499.716L129.453,499.456L129.011,499.193L128.569,498.927L128.128,498.657L127.689,498.385L127.253,498.111L126.817,497.832L126.381,497.551L125.948,497.266L125.516,496.979L125.087,496.69L124.659,496.397L124.231,496.1L123.806,495.801L123.383,495.499L122.961,495.194L122.542,494.887L122.124,494.577L121.706,494.262L121.291,493.946L120.878,493.626L120.467,493.303L120.059,492.979L119.651,492.65L119.245,492.318L118.843,491.985L118.442,491.648L118.043,491.309L117.646,490.967L117.251,490.621L116.858,490.272L116.468,489.922L116.08,489.569L115.694,489.213L115.309,488.853L114.927,488.491L114.549,488.127L114.172,487.76L113.797,487.39L113.425,487.018L113.055,486.643L112.689,486.266L112.323,485.886L111.96,485.503L111.601,485.118L111.244,484.731L110.889,484.341L110.537,483.949L110.187,483.554L109.84,483.157L109.496,482.757L109.154,482.355L108.815,481.951L108.479,481.545L108.145,481.136L107.814,480.726L107.485,480.312L107.16,479.898L106.837,479.48L106.517,479.06L106.2,478.64L105.886,478.216L105.574,477.791L105.265,477.363L104.959,476.933L104.656,476.502L104.355,476.069L104.057,475.633L103.763,475.196L103.471,474.758L103.182,474.317L102.895,473.874L102.612,473.43L102.332,472.984L102.054,472.536L101.779,472.088L101.507,471.637L101.238,471.183L100.972,470.73L100.708,470.273L100.447,469.816L100.19,469.357L99.935,468.897L99.683,468.436L99.4335,467.972L99.1872,467.508L98.9435,467.042L98.7024,466.573L98.4644,466.105L98.2293,465.635L97.9969,465.163L97.7676,464.691L97.5403,464.216L97.3161,463.74L97.0952,463.265L96.8764,462.787L96.6603,462.307L96.4474,461.827L96.237,461.346L96.0291,460.863L95.8242,460.379L95.6217,459.894L95.4218,459.408L95.2248,458.921L95.0307,458.433L94.8389,457.944L94.6495,457.453L94.4628,456.961L94.279,456.469L94.0977,455.975L93.9186,455.48L93.7425,454.985L93.5687,454.488L93.3974,453.99L93.2287,453.492L93.0624,452.992L92.8987,452.492L92.7375,451.99L92.5785,451.487L92.4221,450.984L92.268,450.479L92.1165,449.974L91.9672,449.467L91.8204,448.96L91.676,448.452L91.5338,447.943L91.394,447.433L91.2566,446.922L91.1214,446.41L90.9883,445.896L90.8577,445.383L90.7295,444.868L90.6212,444.425L90.0187,441.337L89.7101,438.206L76.7101,183.7L76.8724,178.303L77.9041,173.002L79.7782,167.937L82.4455,163.242L85.8361,159.039L89.8608,155.438L94.414,152.535L99.3764,150.405L104.618,149.104L110,148.667L402,148.667L407.382,149.104L412.624,150.405L417.586,152.535L422.139,155.438L426.164,159.039L429.554,163.242L432.222,167.937L434.096,173.002L435.128,178.303L435.29,183.7L422.29,438.206L421.824,442.311L420.854,446.326L420.725,446.745L420.576,447.223L420.424,447.701L420.27,448.179L420.115,448.655L419.958,449.131L419.8,449.605L419.639,450.079L419.476,450.553L419.312,451.024L419.146,451.496L418.977,451.967L418.807,452.437L418.635,452.906L418.461,453.373L418.285,453.84L418.107,454.307L417.926,454.774L417.745,455.237L417.561,455.701L417.374,456.163L417.186,456.625L416.996,457.088L416.804,457.546L416.609,458.006L416.412,458.465L416.214,458.922L416.013,459.38L415.81,459.835L415.606,460.288L415.398,460.743L415.188,461.196L414.977,461.647L414.762,462.099L414.546,462.549L414.328,462.998L414.107,463.445L413.885,463.891L413.66,464.337L413.432,464.782L413.203,465.226L412.97,465.669L412.736,466.111L412.499,466.551L412.26,466.99L412.019,467.428L411.775,467.865L411.53,468.301L411.281,468.736L411.03,469.17L410.778,469.601L410.522,470.032L410.263,470.463L410.003,470.892L409.74,471.319L409.476,471.744L409.208,472.168L408.937,472.593L408.665,473.014L408.39,473.435L408.112,473.854L407.832,474.272L407.55,474.688L407.265,475.104L406.978,475.517L406.689,475.928L406.396,476.34L406.101,476.748L405.804,477.156L405.504,477.562L405.203,477.965L404.899,478.367L404.591,478.769L404.281,479.169L403.969,479.566L403.656,479.961L403.338,480.357L403.019,480.748L402.698,481.138L402.373,481.528L402.047,481.914L401.718,482.299L401.385,482.683L401.052,483.064L400.716,483.442L400.377,483.821L400.035,484.197L399.693,484.569L399.347,484.94L398.998,485.31L398.648,485.678L398.295,486.043L397.94,486.406L397.583,486.766L397.224,487.125L396.861,487.482L396.497,487.837L396.129,488.19L395.761,488.539L395.391,488.886L395.017,489.232L394.642,489.575L394.265,489.915L393.885,490.254L393.503,490.591L393.119,490.925L392.734,491.255L392.346,491.584L391.955,491.911L391.563,492.235L391.17,492.557L390.773,492.876L390.374,493.193L389.976,493.506L389.574,493.818L389.17,494.127L388.764,494.434L388.358,494.737L387.949,495.038L387.536,495.338L387.123,495.635L386.71,495.927L386.294,496.218L385.877,496.506L385.457,496.792L385.034,497.076L384.612,497.356L384.188,497.633L383.762,497.908L383.334,498.181L382.905,498.451L382.475,498.717L382.042,498.982L381.608,499.244L381.174,499.502L380.738,499.758L380.3,500.012L379.86,500.263L379.421,500.511L378.979,500.756L378.536,500.999L378.091,501.239L377.645,501.477L377.2,501.71L376.752,501.943L376.301,502.173L375.852,502.399L375.401,502.622L374.949,502.844L374.495,503.062L374.04,503.278L373.584,503.492L373.127,503.702L372.671,503.909L372.211,504.115L371.751,504.318L371.291,504.517L370.829,504.715L370.367,504.91L369.903,505.102L369.439,505.291L368.976,505.478L368.51,505.662L368.042,505.844L367.575,506.023L367.106,506.2L366.637,506.374L366.167,506.546L365.696,506.715L365.225,506.882L364.753,507.046L364.281,507.207L363.807,507.367L363.333,507.524L362.857,507.678L362.381,507.83L361.906,507.979L361.429,508.126L360.951,508.271L360.472,508.414L359.993,508.554L359.516,508.691L359.036,508.827L358.553,508.96L358.073,509.091L357.592,509.219L357.108,509.345L356.626,509.469L356.142,509.591L355.658,509.71L355.175,509.827L354.689,509.942L354.202,510.055L353.717,510.166L353.231,510.274L352.742,510.381L352.255,510.485L351.765,510.587L351.277,510.687L350.789,510.785L350.298,510.881L349.808,510.975L349.316,511.067L348.825,511.156L348.333,511.244L347.841,511.33L347.348,511.413L346.853,511.495L346.36,511.575L345.866,511.652L345.37,511.728L344.874,511.802L344.378,511.874L343.882,511.945L343.385,512.013L342.886,512.079L342.388,512.144L341.889,512.206L341.39,512.267L340.89,512.326L340.389,512.384L339.889,512.439L339.387,512.493L338.884,512.545L338.382,512.595L337.879,512.643L337.376,512.689L336.871,512.734L336.367,512.778L335.861,512.819L335.354,512.859L334.849,512.897L334.341,512.933L333.833,512.968L333.325,513.001L332.815,513.033L332.306,513.063L331.796,513.091L331.285,513.117L330.773,513.143L330.262,513.166L329.75,513.188L329.236,513.208L328.721,513.227L328.207,513.244L327.691,513.26L327.175,513.274L326.659,513.286L326.141,513.297L325.623,513.307L325.104,513.315L324.585,513.322L324.065,513.327L323.544,513.33L323.022,513.333L322.524,513.333L189.479,513.333ZM189.5,480L322.5,480L322.93,479.999L323.358,479.998L323.784,479.995L324.21,479.99L324.633,479.985L325.056,479.979L325.476,479.971L325.896,479.962L326.313,479.952L326.73,479.94L327.145,479.928L327.558,479.914L327.97,479.899L328.38,479.883L328.789,479.865L329.197,479.846L329.603,479.827L330.007,479.805L330.41,479.783L330.812,479.76L331.212,479.735L331.611,479.709L332.008,479.682L332.404,479.653L332.799,479.624L333.192,479.593L333.583,479.561L333.973,479.527L334.362,479.493L334.749,479.457L335.135,479.42L335.519,479.381L335.902,479.342L336.284,479.301L336.664,479.259L337.042,479.216L337.42,479.171L337.795,479.125L338.17,479.078L338.543,479.03L338.914,478.98L339.284,478.93L339.653,478.878L340.02,478.824L340.386,478.77L340.751,478.714L341.114,478.657L341.475,478.598L341.836,478.539L342.194,478.478L342.552,478.416L342.908,478.352L343.263,478.287L343.616,478.221L343.968,478.154L344.318,478.086L344.667,478.016L345.015,477.945L345.361,477.872L345.706,477.798L346.05,477.723L346.392,477.647L346.733,477.57L347.072,477.491L347.41,477.411L347.747,477.329L348.082,477.246L348.416,477.162L348.749,477.077L349.08,476.99L349.41,476.902L349.739,476.813L350.066,476.723L350.392,476.631L350.716,476.538L351.039,476.443L351.361,476.347L351.681,476.25L352,476.152L352.318,476.052L352.634,475.951L352.949,475.849L353.263,475.745L353.575,475.64L353.886,475.534L354.196,475.426L354.504,475.317L354.811,475.207L355.117,475.095L355.421,474.982L355.724,474.868L356.026,474.752L356.327,474.635L356.626,474.517L356.923,474.397L357.22,474.276L357.515,474.153L357.809,474.03L358.101,473.905L358.392,473.778L358.682,473.65L358.971,473.521L359.258,473.391L359.544,473.259L359.829,473.126L360.112,472.991L360.394,472.855L360.675,472.718L360.955,472.579L361.233,472.439L361.51,472.298L361.786,472.155L362.06,472.011L362.333,471.866L362.605,471.719L362.875,471.571L363.145,471.421L363.413,471.27L363.679,471.118L363.945,470.964L364.209,470.809L364.472,470.652L364.733,470.495L364.994,470.335L365.253,470.175L365.511,470.013L365.767,469.849L366.023,469.684L366.277,469.518L366.53,469.35L366.781,469.181L367.031,469.011L367.28,468.839L367.528,468.666L367.775,468.491L368.02,468.315L368.264,468.138L368.507,467.959L368.749,467.778L368.989,467.597L369.228,467.414L369.466,467.229L369.703,467.043L369.939,466.856L370.173,466.667L370.406,466.477L370.638,466.285L370.868,466.092L371.098,465.898L371.326,465.702L371.553,465.504L371.779,465.306L372.003,465.105L372.227,464.904L372.449,464.701L372.67,464.496L372.889,464.29L373.108,464.083L373.325,463.874L373.541,463.664L373.756,463.452L373.97,463.239L374.182,463.024L374.394,462.808L374.604,462.591L374.813,462.372L375.021,462.151L375.227,461.929L375.433,461.706L375.637,461.481L375.84,461.255L376.042,461.027L376.243,460.798L376.442,460.567L376.641,460.335L376.838,460.101L377.034,459.866L377.229,459.63L377.423,459.392L377.615,459.152L377.807,458.911L377.997,458.669L378.186,458.425L378.374,458.179L378.561,457.932L378.747,457.684L378.931,457.434L379.115,457.182L379.297,456.93L379.478,456.675L379.658,456.419L379.837,456.162L380.014,455.903L380.191,455.643L380.366,455.381L380.541,455.118L380.714,454.853L380.886,454.586L381.057,454.318L381.226,454.049L381.395,453.778L381.563,453.506L381.729,453.232L381.894,452.956L382.059,452.679L382.222,452.401L382.384,452.121L382.544,451.839L382.704,451.556L382.863,451.272L383.02,450.986L383.177,450.698L383.332,450.409L383.487,450.118L383.64,449.826L383.792,449.532L383.943,449.237L384.093,448.94L384.241,448.642L384.389,448.342L384.536,448.04L384.681,447.737L384.826,447.433L384.969,447.127L385.112,446.819L385.253,446.51L385.393,446.199L385.532,445.887L385.67,445.573L385.807,445.258L385.943,444.941L386.078,444.622L386.212,444.302L386.344,443.981L386.476,443.657L386.607,443.333L386.736,443.006L386.865,442.678L386.992,442.349L387.119,442.018L387.244,441.685L387.368,441.351L387.492,441.015L387.614,440.678L387.735,440.339L387.855,439.998L387.974,439.656L388.092,439.313L388.209,438.967L388.325,438.62L388.44,438.272L388.554,437.922L388.667,437.57L388.779,437.217L388.89,436.862L389,436.506L402,182L110,182L123,436.506L123.09,436.876L123.182,437.244L123.275,437.61L123.37,437.974L123.465,438.337L123.563,438.697L123.661,439.056L123.761,439.414L123.862,439.769L123.964,440.123L124.068,440.474L124.173,440.825L124.279,441.173L124.387,441.519L124.496,441.864L124.606,442.207L124.718,442.548L124.83,442.888L124.945,443.225L125.06,443.561L125.177,443.895L125.295,444.228L125.415,444.559L125.536,444.887L125.658,445.215L125.782,445.54L125.907,445.864L126.033,446.186L126.16,446.506L126.289,446.825L126.419,447.141L126.551,447.456L126.684,447.77L126.818,448.081L126.953,448.391L127.09,448.7L127.228,449.006L127.367,449.311L127.508,449.614L127.65,449.915L127.794,450.215L127.938,450.513L128.085,450.809L128.232,451.104L128.381,451.397L128.531,451.688L128.682,451.978L128.835,452.266L128.989,452.552L129.144,452.837L129.301,453.119L129.459,453.401L129.618,453.68L129.779,453.958L129.941,454.234L130.104,454.509L130.269,454.782L130.435,455.053L130.602,455.323L130.77,455.591L130.94,455.857L131.112,456.122L131.284,456.385L131.458,456.646L131.633,456.906L131.81,457.164L131.988,457.421L132.167,457.676L132.348,457.929L132.529,458.181L132.713,458.431L132.897,458.68L133.083,458.927L133.27,459.172L133.459,459.416L133.648,459.658L133.84,459.898L134.032,460.137L134.226,460.374L134.421,460.61L134.618,460.844L134.815,461.077L135.014,461.308L135.215,461.537L135.417,461.765L135.62,461.991L135.824,462.216L136.03,462.439L136.237,462.661L136.446,462.881L136.655,463.099L136.866,463.316L137.079,463.532L137.293,463.745L137.508,463.958L137.724,464.168L137.942,464.378L138.161,464.585L138.381,464.791L138.603,464.996L138.826,465.199L139.05,465.401L139.276,465.601L139.503,465.799L139.731,465.996L139.961,466.192L140.192,466.385L140.424,466.578L140.658,466.769L140.893,466.958L141.129,467.146L141.367,467.333L141.606,467.518L141.846,467.701L142.088,467.883L142.331,468.064L142.575,468.243L142.821,468.42L143.068,468.596L143.316,468.771L143.566,468.944L143.817,469.116L144.069,469.286L144.323,469.455L144.578,469.622L144.834,469.788L145.092,469.952L145.35,470.115L145.611,470.276L145.872,470.436L146.135,470.595L146.4,470.752L146.665,470.908L146.932,471.062L147.2,471.215L147.47,471.366L147.741,471.516L148.013,471.665L148.287,471.812L148.562,471.958L148.838,472.102L149.115,472.245L149.394,472.386L149.674,472.526L149.956,472.665L150.239,472.802L150.523,472.938L150.809,473.073L151.096,473.206L151.384,473.337L151.673,473.468L151.964,473.597L152.256,473.724L152.55,473.85L152.845,473.975L153.141,474.099L153.439,474.221L153.738,474.341L154.038,474.461L154.339,474.579L154.642,474.695L154.946,474.81L155.252,474.924L155.559,475.037L155.867,475.148L156.177,475.258L156.487,475.367L156.8,475.474L157.113,475.58L157.428,475.684L157.744,475.787L158.062,475.889L158.381,475.99L158.701,476.089L159.022,476.187L159.345,476.283L159.669,476.379L159.995,476.473L160.322,476.565L160.65,476.657L160.98,476.747L161.311,476.835L161.643,476.923L161.976,477.009L162.311,477.094L162.647,477.178L162.985,477.26L163.324,477.341L163.664,477.421L164.006,477.499L164.348,477.576L164.693,477.652L165.038,477.727L165.385,477.8L165.733,477.872L166.083,477.943L166.434,478.013L166.786,478.081L167.139,478.148L167.494,478.214L167.851,478.279L168.208,478.342L168.567,478.405L168.927,478.465L169.289,478.525L169.652,478.584L170.016,478.641L170.381,478.697L170.748,478.752L171.117,478.805L171.486,478.857L171.857,478.909L172.229,478.958L172.603,479.007L172.978,479.055L173.354,479.101L173.732,479.146L174.111,479.19L174.491,479.233L174.872,479.274L175.255,479.315L175.64,479.354L176.025,479.392L176.412,479.429L176.8,479.464L177.19,479.499L177.581,479.532L177.973,479.564L178.367,479.595L178.762,479.625L179.158,479.653L179.556,479.681L179.955,479.707L180.355,479.732L180.757,479.756L181.16,479.779L181.564,479.801L181.97,479.821L182.377,479.841L182.785,479.859L183.195,479.876L183.606,479.892L184.018,479.907L184.432,479.921L184.847,479.934L185.263,479.945L185.681,479.956L186.1,479.965L186.52,479.973L186.942,479.98L187.365,479.986L187.789,479.991L188.215,479.995L188.642,479.998L189.07,479.999L189.5,480Z" style="fill:black;"/>
            </g>
            <g>
                <path d="M81,121L80.9509,120.951L81.0005,95.7071L81.0023,95.4137L81.0052,95.1213L81.0092,94.8289L81.0144,94.5361L81.0208,94.2442L81.0283,93.9519L81.037,93.6601L81.0468,93.3683L81.0578,93.0766L81.0699,92.7853L81.0831,92.4942L81.0975,92.2035L81.1131,91.9125L81.1297,91.6219L81.1476,91.3315L81.1666,91.0411L81.1866,90.7517L81.2078,90.4619L81.2303,90.1717L81.2537,89.8831L81.2783,89.594L81.3041,89.3046L81.3309,89.0167L81.3589,88.7284L81.3881,88.4397L81.4183,88.1521L81.4496,87.8652L81.4821,87.5773L81.5186,87.2657L81.586,86.717L81.661,86.1448L81.7403,85.5739L81.824,85.0038L81.9121,84.435L82.0046,83.8676L82.1013,83.3013L82.2025,82.7362L82.3079,82.1725L82.4175,81.6101L82.5315,81.0491L82.6496,80.4894L82.772,79.9311L82.8986,79.3742L83.0294,78.8188L83.1643,78.2651L83.3033,77.7129L83.4465,77.1619L83.5937,76.6126L83.745,76.0649L83.9004,75.5186L84.0597,74.9743L84.223,74.4316L84.3903,73.8904L84.5616,73.3509L84.7367,72.8132L84.9158,72.2771L85.0988,71.7429L85.2855,71.2105L85.4762,70.6797L85.6705,70.1511L85.8688,69.6239L86.0708,69.0986L86.2765,68.5753L86.4859,68.0539L86.6989,67.5344L86.9157,67.0167L87.136,66.5011L87.36,65.9873L87.5875,65.4757L87.8186,64.9658L88.0533,64.4579L88.2914,63.9522L88.533,63.4485L88.7781,62.9466L89.0267,62.4469L89.2785,61.9494L89.5339,61.4537L89.7925,60.9603L90.0545,60.469L90.3199,59.9797L90.5886,59.4923L90.8605,59.0073L91.1355,58.5246L91.4138,58.0439L91.6954,57.5653L91.9802,57.0887L92.2681,56.6144L92.5591,56.1424L92.8531,55.6726L93.1504,55.2048L93.4506,54.7394L93.754,54.276L94.0603,53.815L94.3694,53.3564L94.6819,52.8996L94.9972,52.4452L95.3152,51.9933L95.6362,51.5435L95.9603,51.0958L96.2871,50.6505L96.6167,50.2076L96.9491,49.7669L97.2844,49.3284L97.6226,48.8921L97.9634,48.4583L98.307,48.0266L98.6533,47.5973L99.0022,47.1705L99.3539,46.7458L99.7083,46.3235L100.065,45.9034L100.425,45.4856L100.787,45.0703L101.152,44.6574L101.519,44.2466L101.889,43.8383L102.262,43.4323L102.637,43.0285L103.014,42.6272L103.394,42.2282L103.777,41.8316L104.162,41.4375L104.549,41.0456L104.939,40.656L105.331,40.2688L105.726,39.8839L106.123,39.5015L106.522,39.1216L106.923,38.7438L107.327,38.3686L107.733,37.9957L108.142,37.6251L108.553,37.257L108.966,36.8914L109.381,36.528L109.799,36.167L110.218,35.8084L110.64,35.4523L111.064,35.0986L111.49,34.7473L111.919,34.3984L112.349,34.0518L112.782,33.7076L113.217,33.366L113.654,33.0268L114.093,32.69L114.534,32.3556L114.977,32.0236L115.422,31.6939L115.87,31.3668L116.318,31.0424L116.77,30.72L117.223,30.4001L117.678,30.0829L118.135,29.7679L118.595,29.4553L119.056,29.1455L119.519,28.8379L119.984,28.5327L120.45,28.2302L120.919,27.9301L121.39,27.6323L121.862,27.3371L122.337,27.0443L122.813,26.7541L123.291,26.4663L123.771,26.1809L124.252,25.8982L124.736,25.6179L125.221,25.3399L125.708,25.0646L126.197,24.7918L126.688,24.5215L127.18,24.2537L127.674,23.9885L128.17,23.7256L128.667,23.4653L129.167,23.2076L129.668,22.9523L130.17,22.6997L130.674,22.4496L131.18,22.202L131.688,21.9569L132.197,21.7144L132.708,21.4745L133.22,21.237L133.734,21.0023L134.25,20.77L134.767,20.5403L135.286,20.3133L135.806,20.0887L136.329,19.8667L136.852,19.6474L137.377,19.4306L137.904,19.2164L138.432,19.0049L138.961,18.796L139.492,18.5897L140.025,18.386L140.559,18.185L141.094,17.9865L141.631,17.7907L142.17,17.5975L142.71,17.407L143.251,17.2192L143.794,17.034L144.338,16.8514L144.883,16.6716L145.43,16.4944L145.978,16.3199L146.528,16.1481L147.079,15.9789L147.631,15.8125L148.185,15.6488L148.74,15.4878L149.296,15.3295L149.853,15.174L150.413,15.0211L150.973,14.871L151.534,14.7236L152.097,14.579L152.661,14.4372L153.226,14.2981L153.792,14.1617L154.36,14.0281L154.929,13.8974L155.499,13.7694L156.07,13.6442L156.643,13.5218L157.216,13.4022L157.791,13.2854L158.367,13.1715L158.944,13.0603L159.522,12.952L160.101,12.8466L160.682,12.744L161.263,12.6442L161.846,12.5473L162.43,12.4533L163.015,12.3621L163.6,12.2739L164.187,12.1885L164.775,12.106L165.364,12.0264L165.954,11.9497L166.545,11.876L167.137,11.8051L167.73,11.7372L168.324,11.6723L168.919,11.6102L169.514,11.5512L170.111,11.4951L170.709,11.442L171.307,11.3918L171.907,11.3446L172.507,11.3004L173.108,11.2592L173.711,11.2211L174.314,11.1859L174.917,11.1537L175.522,11.1246L176.128,11.0985L176.734,11.0755L177.341,11.0555L177.949,11.0385L178.558,11.0246L179.167,11.0138L179.777,11.0061L180.388,11.0015L180.968,11L331.032,11L331.612,11.0015L332.223,11.0061L332.833,11.0138L333.442,11.0246L334.051,11.0385L334.659,11.0555L335.266,11.0755L335.872,11.0985L336.478,11.1246L337.083,11.1537L337.686,11.1859L338.289,11.2211L338.892,11.2592L339.493,11.3004L340.093,11.3446L340.693,11.3918L341.291,11.442L341.889,11.4951L342.486,11.5512L343.082,11.6102L343.676,11.6723L344.27,11.7372L344.863,11.8051L345.455,11.876L346.046,11.9497L346.636,12.0264L347.225,12.106L347.813,12.1885L348.4,12.2739L348.985,12.3621L349.57,12.4533L350.154,12.5473L350.737,12.6442L351.318,12.744L351.899,12.8466L352.478,12.952L353.056,13.0603L353.633,13.1715L354.209,13.2854L354.784,13.4022L355.357,13.5218L355.93,13.6442L356.501,13.7694L357.071,13.8974L357.64,14.0282L358.208,14.1617L358.774,14.2981L359.339,14.4372L359.903,14.579L360.466,14.7236L361.027,14.871L361.588,15.0211L362.147,15.174L362.704,15.3295L363.26,15.4878L363.815,15.6488L364.369,15.8125L364.921,15.9789L365.472,16.1481L366.022,16.3199L366.57,16.4944L367.117,16.6716L367.662,16.8514L368.206,17.0339L368.749,17.2192L369.29,17.407L369.83,17.5975L370.369,17.7907L370.906,17.9865L371.441,18.1849L371.975,18.386L372.508,18.5897L373.039,18.796L373.569,19.0051L374.096,19.2164L374.623,19.4305L375.148,19.6474L375.672,19.8668L376.193,20.0886L376.714,20.3132L377.233,20.5403L377.75,20.77L378.266,21.0023L378.78,21.2372L379.292,21.4744L379.803,21.7144L380.312,21.9569L380.82,22.202L381.326,22.4495L381.83,22.6996L382.333,22.9525L382.833,23.2075L383.333,23.4653L383.83,23.7257L384.326,23.9883L384.82,24.2536L385.312,24.5216L385.803,24.7919L386.292,25.0646L386.779,25.3399L387.264,25.6179L387.748,25.8982L388.229,26.181L388.709,26.4662L389.187,26.7539L389.664,27.0445L390.138,27.3372L390.61,27.6322L391.081,27.9301L391.549,28.2302L392.016,28.5326L392.481,28.8379L392.944,29.1455L393.405,29.4553L393.865,29.768L394.322,30.0831L394.777,30.4L395.23,30.7198L395.681,31.0422L396.13,31.3668L396.578,31.694L397.023,32.0234L397.466,32.3555L397.907,32.69L398.346,33.0268L398.783,33.3661L399.218,33.7077L399.651,34.0518L400.081,34.3985L400.51,34.7474L400.935,35.0984L401.36,35.4524L401.782,35.8085L402.201,36.1668L402.619,36.5281L403.034,36.8911L403.447,37.2571L403.858,37.6252L404.266,37.9955L404.673,38.3688L405.077,38.7442L405.478,39.1216L405.877,39.5011L406.274,39.8838L406.669,40.269L407.061,40.6562L407.451,41.0456L407.838,41.437L408.223,41.8313L408.606,42.2284L408.986,42.6275L409.363,43.0285L409.738,43.4322L410.111,43.8384L410.481,44.2466L410.848,44.6574L411.213,45.0702L411.575,45.4855L411.935,45.9034L412.292,46.3239L412.646,46.7463L412.997,47.1701L413.346,47.597L413.693,48.0271L414.037,48.4584L414.377,48.8918L414.716,49.3284L415.051,49.7667L415.383,50.2077L415.713,50.6505L416.04,51.0958L416.364,51.5438L416.684,51.9928L417.003,52.445L417.318,52.8999L417.631,53.3566L417.94,53.815L418.246,54.276L418.549,54.7394L418.849,55.2046L419.147,55.6724L419.441,56.1426L419.732,56.6145L420.02,57.0883L420.305,57.5653L420.586,58.0439L420.864,58.5242L421.14,59.0077L421.412,59.4929L421.68,59.9791L421.945,60.4684L422.208,60.9609L422.466,61.4543L422.721,61.9492L422.973,62.4465L423.222,62.9462L423.467,63.4483L423.709,63.9528L423.947,64.4587L424.181,64.9654L424.412,65.4752L424.64,65.9873L424.864,66.5008L425.084,67.0167L425.301,67.5348L425.514,68.0544L425.723,68.5753L425.929,69.0984L426.131,69.6237L426.33,70.1513L426.524,70.6802L426.714,71.2103L426.901,71.7425L427.084,72.2769L427.263,72.8134L427.439,73.3512L427.61,73.89L427.777,74.4318L427.94,74.9748L428.1,75.5188L428.255,76.0649L428.406,76.6119L428.554,77.1619L428.697,77.7129L428.836,78.2648L428.971,78.8196L429.101,79.3742L429.228,79.9308L429.35,80.4892L429.469,81.0493L429.582,81.6103L429.692,82.172L429.798,82.7364L429.899,83.3015L429.995,83.8673L430.088,84.4348L430.176,85.0038L430.26,85.5734L430.339,86.1446L430.414,86.7173L430.482,87.2671L430.518,87.5773L430.55,87.8642L430.582,88.1531L430.612,88.4402L430.641,88.7274L430.669,89.0167L430.696,89.3061L430.722,89.5935L430.746,89.8831L430.77,90.1727L430.792,90.4604L430.813,90.7502L430.834,91.0421L430.852,91.332L430.87,91.6219L430.887,91.912L430.902,92.2021L430.917,92.4942L430.93,92.7863L430.942,93.0766L430.953,93.3688L430.963,93.6611L430.972,93.9514L430.979,94.2437L430.986,94.5361L430.991,94.8285L430.995,95.1208L430.998,95.4152L430.999,95.7076L431.051,120.949L431,121L81,121ZM106,96L406,96L406,95.8059L405.998,95.612L405.997,95.4182L405.994,95.2245L405.99,95.031L405.986,94.8376L405.981,94.6444L405.976,94.4514L405.969,94.2585L405.962,94.0657L405.954,93.8731L405.945,93.6807L405.935,93.4884L405.925,93.2962L405.914,93.1042L405.902,92.9124L405.89,92.7207L405.877,92.5292L405.863,92.3379L405.848,92.1467L405.832,91.9557L405.816,91.7648L405.799,91.5741L405.781,91.3836L405.763,91.1932L405.744,91.003L405.724,90.813L405.703,90.6231L405.681,90.4334L405.659,90.2439L405.613,89.8653L405.563,89.4875L405.511,89.1104L405.456,88.7339L405.397,88.3582L405.336,87.9832L405.272,87.6089L405.206,87.2354L405.136,86.8626L405.063,86.4905L404.988,86.1193L404.91,85.7487L404.829,85.379L404.745,85.01L404.658,84.6419L404.569,84.2745L404.476,83.9079L404.381,83.5421L404.283,83.1772L404.183,82.8131L404.079,82.4498L403.973,82.0873L403.865,81.7257L403.753,81.365L403.639,81.0051L403.522,80.646L403.402,80.2879L403.28,79.9306L403.155,79.5743L403.027,79.2188L402.897,78.8642L402.764,78.5106L402.628,78.1578L402.49,77.806L402.349,77.4552L402.205,77.1052L402.059,76.7563L401.911,76.4082L401.759,76.0612L401.605,75.7151L401.449,75.37L401.29,75.0259L401.128,74.6827L400.964,74.3406L400.798,73.9995L400.629,73.6594L400.457,73.3203L400.283,72.9823L400.106,72.6453L399.927,72.3093L399.745,71.9744L399.561,71.6406L399.375,71.3078L399.186,70.9761L398.994,70.6455L398.8,70.316L398.604,69.9875L398.405,69.6602L398.204,69.334L398.001,69.0089L397.795,68.6849L397.587,68.3621L397.376,68.0404L397.163,67.7198L396.948,67.4004L396.73,67.0822L396.51,66.7652L396.288,66.4493L396.063,66.1346L395.836,65.8211L395.607,65.5088L395.376,65.1977L395.142,64.8878L394.906,64.5792L394.668,64.2717L394.427,63.9656L394.184,63.6606L393.939,63.3569L393.692,63.0545L393.443,62.7533L393.191,62.4534L392.937,62.1548L392.681,61.8575L392.423,61.5615L392.163,61.2668L391.9,60.9733L391.636,60.6812L391.369,60.3905L391.1,60.101L390.829,59.8129L390.556,59.5262L390.281,59.2408L390.004,58.9568L389.724,58.6741L389.443,58.3928L389.159,58.1129L388.874,57.8344L388.586,57.5573L388.296,57.2816L388.005,57.0073L387.711,56.7345L387.415,56.463L387.118,56.193L386.818,55.9245L386.516,55.6574L386.213,55.3917L385.907,55.1275L385.6,54.8648L385.29,54.6036L384.979,54.3438L384.665,54.0856L384.35,53.8288L384.033,53.5736L383.714,53.3199L383.393,53.0677L383.07,52.817L382.746,52.5679L382.419,52.3203L382.091,52.0743L381.76,51.8298L381.428,51.5869L381.094,51.3456L380.759,51.1059L380.421,50.8677L380.082,50.6312L379.741,50.3962L379.398,50.1629L379.053,49.9312L378.707,49.7011L378.359,49.4726L378.009,49.2458L377.657,49.0207L377.304,48.7972L376.949,48.5753L376.592,48.3552L376.234,48.1367L375.874,47.9199L375.512,47.7048L375.148,47.4914L374.783,47.2797L374.417,47.0697L374.048,46.8614L373.678,46.6549L373.306,46.4501L372.933,46.2471L372.558,46.0458L372.182,45.8462L371.804,45.6485L371.424,45.4525L371.043,45.2583L370.66,45.0658L370.276,44.8752L369.89,44.6864L369.503,44.4994L369.114,44.3142L368.724,44.1308L368.332,43.9493L367.938,43.7696L367.544,43.5918L367.147,43.4158L366.749,43.2417L366.35,43.0694L365.95,42.8991L365.547,42.7306L365.144,42.564L364.739,42.3993L364.333,42.2365L363.925,42.0756L363.516,41.9167L363.105,41.7596L362.693,41.6045L362.28,41.4514L361.865,41.3002L361.449,41.151L361.032,41.0037L360.613,40.8584L360.193,40.7151L359.772,40.5738L359.35,40.4344L358.926,40.2971L358.501,40.1618L358.074,40.0285L357.647,39.8972L357.218,39.768L356.788,39.6408L356.356,39.5156L355.924,39.3925L355.49,39.2715L355.055,39.1525L354.618,39.0356L354.181,38.9208L353.742,38.8081L353.303,38.6975L352.862,38.589L352.42,38.4826L351.977,38.3783L351.532,38.2761L351.087,38.1761L350.64,38.0782L350.192,37.9825L349.744,37.889L349.294,37.7976L348.843,37.7083L348.391,37.6213L347.938,37.5364L347.484,37.4538L347.029,37.3733L346.572,37.295L346.115,37.219L345.657,37.1452L345.198,37.0736L344.737,37.0042L344.276,36.9371L343.814,36.8723L343.351,36.8097L342.887,36.7494L342.422,36.6913L341.956,36.6356L341.489,36.5821L341.021,36.5309L340.552,36.4821L340.083,36.4355L339.612,36.3913L339.141,36.3494L338.668,36.3098L338.195,36.2725L337.721,36.2377L337.246,36.2051L336.771,36.175L336.294,36.1472L335.817,36.1217L335.338,36.0987L334.859,36.0781L334.38,36.0598L333.899,36.044L333.418,36.0306L332.936,36.0196L332.453,36.011L331.969,36.0049L331.485,36.0012L331,36L181,36L180.515,36.0012L180.031,36.0049L179.547,36.011L179.064,36.0196L178.582,36.0306L178.101,36.044L177.62,36.0598L177.141,36.0781L176.662,36.0987L176.183,36.1217L175.706,36.1472L175.229,36.175L174.754,36.2051L174.279,36.2377L173.805,36.2725L173.332,36.3098L172.859,36.3494L172.388,36.3913L171.917,36.4355L171.448,36.4821L170.979,36.5309L170.511,36.5821L170.044,36.6356L169.578,36.6913L169.113,36.7494L168.649,36.8097L168.186,36.8723L167.724,36.9371L167.263,37.0042L166.802,37.0736L166.343,37.1452L165.885,37.219L165.428,37.295L164.971,37.3733L164.516,37.4538L164.062,37.5364L163.609,37.6213L163.157,37.7083L162.706,37.7976L162.256,37.889L161.808,37.9825L161.36,38.0782L160.913,38.1761L160.468,38.2761L160.023,38.3783L159.58,38.4826L159.138,38.589L158.697,38.6975L158.258,38.8081L157.819,38.9208L157.382,39.0356L156.945,39.1525L156.51,39.2715L156.076,39.3925L155.644,39.5156L155.212,39.6408L154.782,39.768L154.353,39.8972L153.926,40.0285L153.499,40.1618L153.074,40.2971L152.65,40.4344L152.228,40.5738L151.807,40.7151L151.387,40.8584L150.968,41.0037L150.551,41.151L150.135,41.3002L149.72,41.4514L149.307,41.6045L148.895,41.7596L148.484,41.9167L148.075,42.0756L147.667,42.2365L147.261,42.3993L146.856,42.564L146.453,42.7306L146.05,42.8991L145.65,43.0694L145.251,43.2417L144.853,43.4158L144.456,43.5918L144.062,43.7696L143.668,43.9493L143.276,44.1308L142.886,44.3142L142.497,44.4994L142.11,44.6864L141.724,44.8752L141.34,45.0658L140.957,45.2583L140.576,45.4525L140.196,45.6485L139.818,45.8462L139.442,46.0458L139.067,46.2471L138.694,46.4501L138.322,46.6549L137.952,46.8614L137.583,47.0697L137.217,47.2797L136.852,47.4914L136.488,47.7048L136.126,47.9199L135.766,48.1367L135.408,48.3552L135.051,48.5753L134.696,48.7972L134.343,49.0207L133.991,49.2458L133.641,49.4726L133.293,49.7011L132.947,49.9312L132.602,50.1629L132.259,50.3962L131.918,50.6312L131.579,50.8677L131.241,51.1059L130.906,51.3456L130.572,51.5869L130.24,51.8298L129.909,52.0743L129.581,52.3203L129.254,52.5679L128.93,52.817L128.607,53.0677L128.286,53.3199L127.967,53.5736L127.65,53.8288L127.335,54.0856L127.021,54.3438L126.71,54.6036L126.4,54.8648L126.093,55.1275L125.787,55.3917L125.484,55.6574L125.182,55.9245L124.882,56.193L124.585,56.463L124.289,56.7345L123.995,57.0073L123.704,57.2816L123.414,57.5573L123.126,57.8344L122.841,58.1129L122.557,58.3928L122.276,58.6741L121.996,58.9568L121.719,59.2408L121.444,59.5262L121.171,59.8129L120.9,60.101L120.631,60.3905L120.364,60.6812L120.1,60.9733L119.837,61.2668L119.577,61.5615L119.319,61.8575L119.063,62.1548L118.809,62.4534L118.557,62.7533L118.308,63.0545L118.061,63.3569L117.816,63.6606L117.573,63.9656L117.332,64.2717L117.094,64.5792L116.858,64.8878L116.624,65.1977L116.393,65.5088L116.164,65.8211L115.937,66.1346L115.712,66.4493L115.49,66.7652L115.27,67.0822L115.052,67.4004L114.837,67.7198L114.624,68.0404L114.413,68.3621L114.205,68.6849L113.999,69.0089L113.796,69.334L113.595,69.6602L113.396,69.9875L113.2,70.316L113.006,70.6455L112.814,70.9761L112.625,71.3078L112.439,71.6406L112.255,71.9744L112.073,72.3093L111.894,72.6453L111.717,72.9823L111.543,73.3203L111.371,73.6594L111.202,73.9995L111.036,74.3406L110.872,74.6827L110.71,75.0259L110.551,75.37L110.395,75.7151L110.241,76.0612L110.089,76.4082L109.941,76.7563L109.795,77.1052L109.651,77.4552L109.51,77.806L109.372,78.1578L109.236,78.5106L109.103,78.8642L108.973,79.2188L108.845,79.5743L108.72,79.9306L108.598,80.2879L108.478,80.646L108.361,81.0051L108.247,81.365L108.135,81.7257L108.027,82.0873L107.921,82.4498L107.817,82.8131L107.717,83.1772L107.619,83.5421L107.524,83.9079L107.431,84.2745L107.342,84.6419L107.255,85.01L107.171,85.379L107.09,85.7487L107.012,86.1193L106.937,86.4905L106.864,86.8626L106.794,87.2354L106.728,87.6089L106.664,87.9832L106.603,88.3582L106.544,88.7339L106.489,89.1104L106.437,89.4875L106.387,89.8653L106.341,90.2439L106.319,90.4334L106.297,90.6231L106.276,90.813L106.256,91.003L106.237,91.1932L106.219,91.3836L106.201,91.5741L106.184,91.7648L106.168,91.9557L106.152,92.1467L106.137,92.3379L106.123,92.5292L106.11,92.7207L106.098,92.9124L106.086,93.1042L106.075,93.2962L106.065,93.4884L106.055,93.6807L106.046,93.8731L106.038,94.0657L106.031,94.2585L106.024,94.4514L106.019,94.6444L106.014,94.8376L106.01,95.031L106.006,95.2245L106.003,95.4182L106.002,95.612L106,95.8059L106,96Z" style="fill:black;"/>
            </g>
            <g>
                <path d="M418,95L447.669,95L447.94,121L418.27,121L418,95Z" style="fill:black;"/>
            </g>
            <g>
                <path d="M62,95L99.2251,95L99.5237,121L62.2986,121L62,95Z" style="fill:black;"/>
            </g>
            <g>
                <rect x="240" y="-7.10543e-15" width="32" height="24" style="fill:black;"/>
            </g>
            <g>
                <path d="M180.927,219.861L188.927,433.965" style="fill:none;stroke-width:20.83px;stroke:black;"/>
            </g>
            <g>
                <path d="M256.75,219.861L256.75,443.194" style="fill:none;stroke-width:20.83px;stroke:black;"/>
            </g>
            <g>
                <path d="M331.073,219.861L326.073,433.965" style="fill:none;stroke-width:20.83px;stroke:black;"/>
            </g>
        </g>
    </g>
</svg>
